<svg viewBox="0 0 41.62 13.35" xmlns="http://www.w3.org/2000/svg"><g fill="#fff"><path d="m3.9 0a4 4 0 0 1 1.37.22 3.12 3.12 0 0 1 1.07.61 2.82 2.82 0 0 1 .66.97 3 3 0 0 1 .28 1.2 3.25 3.25 0 0 1 -.18 1.1 4.74 4.74 0 0 1 -.47 1 6.35 6.35 0 0 1 -.7.89l-.83.87-2.46 2.46a6.53 6.53 0 0 1 .71-.16 3.85 3.85 0 0 1 .65-.05h2.81a.64.64 0 0 1 .47.16.57.57 0 0 1 .18.44v1.1h-7.46v-.61a1.18 1.18 0 0 1 .08-.39 1 1 0 0 1 .25-.36l3.3-3.26c.28-.27.52-.54.74-.79a5.64 5.64 0 0 0 .55-.74 4.08 4.08 0 0 0 .33-.75 2.74 2.74 0 0 0 .12-.81 2 2 0 0 0 -.11-.67 1.44 1.44 0 0 0 -.32-.49 1.22 1.22 0 0 0 -.5-.3 1.89 1.89 0 0 0 -.65-.1 2 2 0 0 0 -.61.09 1.58 1.58 0 0 0 -.5.26 1.52 1.52 0 0 0 -.37.39 1.64 1.64 0 0 0 -.23.48.74.74 0 0 1 -.33.45.87.87 0 0 1 -.58.06l-1-.17a3.83 3.83 0 0 1 .45-1.35 3.35 3.35 0 0 1 .81-1 3.41 3.41 0 0 1 1.12-.55 4.45 4.45 0 0 1 1.35-.2z"/><path d="m21.62.12v9.16h1.69v3.5a.51.51 0 0 1 -.18.41.63.63 0 0 1 -.46.16h-1.22v-2.54h-8v2a.51.51 0 0 1 -.18.41.65.65 0 0 1 -.46.16h-1.2v-4.1h1.18a1.68 1.68 0 0 0 .42-.36 2.66 2.66 0 0 0 .41-.69 7.71 7.71 0 0 0 .38-1.12 16.21 16.21 0 0 0 .32-1.65c.1-.65.18-1.42.24-2.3s.12-1.89.16-3zm-5 1.53c-.06 1.05-.14 2-.25 2.79s-.22 1.56-.37 2.14a11.53 11.53 0 0 1 -.46 1.59 6.39 6.39 0 0 1 -.54 1.11h4.57v-7.63z"/><path d="m31.72.12v1.63h-3.28v9.06h-2v-9.06h-3.3v-1.63z"/><path d="m41.62 10.81h-2v-9.16h-4.76v9.16h-2v-10.69h8.79z"/></g></svg>