<svg viewBox="0 0 85.59 13.24" xmlns="http://www.w3.org/2000/svg"><g fill="#fff"><path d="m6.91 6.67h1.37v1a.35.35 0 0 1 -.38.36h-1v2.61h-1.61v-2.56h-4.58a.47.47 0 0 1 -.33-.08.46.46 0 0 1 -.18-.31l-.2-.93 5.15-6.76h1.76zm-1.62-3.5c0-.33 0-.69.07-1.09l-3.36 4.59h3.29z"/><path d="m12.93 3.11h3a5.1 5.1 0 0 1 1.26.14 2.75 2.75 0 0 1 .88.39 1.48 1.48 0 0 1 .51.58 1.58 1.58 0 0 1 .16.72 2.22 2.22 0 0 1 -.06.51 1.46 1.46 0 0 1 -.23.51 1.84 1.84 0 0 1 -.44.44 2.21 2.21 0 0 1 -.71.31 3 3 0 0 1 .7.23 1.64 1.64 0 0 1 .55.36 1.54 1.54 0 0 1 .35.51 1.67 1.67 0 0 1 .12.65 2 2 0 0 1 -.24 1 2.2 2.2 0 0 1 -.66.7 3 3 0 0 1 -.95.4 4.52 4.52 0 0 1 -1.12.13h-3.12zm1.77 3.18h1.22a1.53 1.53 0 0 0 .49-.08 1.11 1.11 0 0 0 .4-.22 1 1 0 0 0 .25-.34 1 1 0 0 0 .09-.43 1 1 0 0 0 -.06-.34.72.72 0 0 0 -.2-.29 1 1 0 0 0 -.38-.21 2 2 0 0 0 -.59-.08h-1.22zm0 1.12v2h1.38a1.42 1.42 0 0 0 .92-.25.91.91 0 0 0 .34-.76 1.23 1.23 0 0 0 -.04-.4.83.83 0 0 0 -.2-.32 1 1 0 0 0 -.39-.2 2.12 2.12 0 0 0 -.62-.08z"/><path d="m27.71 3.11v7.58h-1.85v-6.18h-1.86a19.43 19.43 0 0 1 -.28 2.4 9.1 9.1 0 0 1 -.45 1.71 4.39 4.39 0 0 1 -.57 1.13 2.63 2.63 0 0 1 -.68.66 2.13 2.13 0 0 1 -.75.32 3.94 3.94 0 0 1 -.77.08 2.15 2.15 0 0 1 -.61-.07c-.13-.05-.19-.12-.19-.2v-1.14h.44a1.73 1.73 0 0 0 .5-.07 1.19 1.19 0 0 0 .44-.33 2.29 2.29 0 0 0 .44-.65 6 6 0 0 0 .39-1.12 15.35 15.35 0 0 0 .31-1.71q.13-1 .21-2.43z"/><path d="m34.47 10.69a.92.92 0 0 1 -.41-.07.54.54 0 0 1 -.22-.32l-.17-.54a4.6 4.6 0 0 1 -.57.46 3.33 3.33 0 0 1 -.58.33 4 4 0 0 1 -.64.2 4.42 4.42 0 0 1 -.76.06 2.92 2.92 0 0 1 -.9-.13 1.83 1.83 0 0 1 -.71-.39 1.69 1.69 0 0 1 -.51-.64 2.21 2.21 0 0 1 -.16-.89 1.77 1.77 0 0 1 .22-.85 2.13 2.13 0 0 1 .77-.75 4.77 4.77 0 0 1 1.42-.56 10.14 10.14 0 0 1 2.21-.25v-.44a1.64 1.64 0 0 0 -.33-1.13 1.21 1.21 0 0 0 -1-.37 2.18 2.18 0 0 0 -.74.11 2.35 2.35 0 0 0 -.53.23l-.33.25a.8.8 0 0 1 -.41.1.52.52 0 0 1 -.33-.1.8.8 0 0 1 -.22-.23l-.33-.58a4.64 4.64 0 0 1 3.21-1.19 3.11 3.11 0 0 1 1.21.22 2.68 2.68 0 0 1 .9.6 2.57 2.57 0 0 1 .56.93 3.5 3.5 0 0 1 .19 1.19v4.78zm-2.77-1.13a2.12 2.12 0 0 0 1-.21 3 3 0 0 0 .82-.61v-1.28a11 11 0 0 0 -1.36.13 4 4 0 0 0 -.87.26 1.16 1.16 0 0 0 -.48.36.82.82 0 0 0 -.14.45.8.8 0 0 0 .29.69 1.25 1.25 0 0 0 .74.21z"/><path d="m43.92 3.11v6.23h1.41v3.35a.54.54 0 0 1 -.15.4.49.49 0 0 1 -.38.15h-1.15v-2.55h-5.78v2a.55.55 0 0 1 -.12.35.45.45 0 0 1 -.39.17h-1.17v-3.82h.29a1.43 1.43 0 0 0 .52-.09 1.17 1.17 0 0 0 .44-.3 2.51 2.51 0 0 0 .42-.66 5.74 5.74 0 0 0 .35-1.12 15.59 15.59 0 0 0 .29-1.7c.08-.67.14-1.47.19-2.4zm-3.71 1.4c-.05.63-.11 1.21-.19 1.72a12.72 12.72 0 0 1 -.26 1.36 7.56 7.56 0 0 1 -.33 1 4.13 4.13 0 0 1 -.38.76h3.06v-4.84z"/><path d="m49.53 3a3.94 3.94 0 0 1 1.35.23 3.14 3.14 0 0 1 1.06.67 3.13 3.13 0 0 1 .69 1.1 3.92 3.92 0 0 1 .25 1.46 1.18 1.18 0 0 1 -.09.56.38.38 0 0 1 -.34.14h-4.78a3.53 3.53 0 0 0 .21 1 2 2 0 0 0 .44.7 1.62 1.62 0 0 0 .64.42 2.41 2.41 0 0 0 .83.13 2.48 2.48 0 0 0 .77-.1 4 4 0 0 0 .57-.23c.17-.08.31-.16.43-.23a.76.76 0 0 1 .36-.1.4.4 0 0 1 .35.17l.53.66a3.23 3.23 0 0 1 -.69.6 3.65 3.65 0 0 1 -.8.38 4.22 4.22 0 0 1 -.85.21 6.15 6.15 0 0 1 -.84.06 4.08 4.08 0 0 1 -1.5-.27 3.3 3.3 0 0 1 -1.2-.77 3.67 3.67 0 0 1 -.8-1.27 4.77 4.77 0 0 1 -.3-1.76 4.15 4.15 0 0 1 .26-1.46 3.54 3.54 0 0 1 .73-1.19 3.48 3.48 0 0 1 1.19-.82 3.83 3.83 0 0 1 1.53-.29zm0 1.31a1.73 1.73 0 0 0 -1.27.45 2.16 2.16 0 0 0 -.55 1.24h3.5a2.09 2.09 0 0 0 -.1-.67 1.72 1.72 0 0 0 -.3-.55 1.41 1.41 0 0 0 -.52-.37 1.81 1.81 0 0 0 -.72-.11z"/><path d="m61.54 3.11v7.58h-1.86v-6.18h-1.89a21.58 21.58 0 0 1 -.28 2.4 9.94 9.94 0 0 1 -.45 1.71 4.09 4.09 0 0 1 -.58 1.13 2.48 2.48 0 0 1 -.68.66 2.08 2.08 0 0 1 -.74.32 4.13 4.13 0 0 1 -.78.08 2.12 2.12 0 0 1 -.6-.07c-.13-.05-.19-.12-.19-.2v-1.14h.44a1.73 1.73 0 0 0 .5-.07 1.19 1.19 0 0 0 .48-.33 2.52 2.52 0 0 0 .44-.65 6 6 0 0 0 .39-1.12 15.35 15.35 0 0 0 .31-1.71q.14-1 .21-2.43z"/><path d="m65 3.11v2.81h1.37a4.13 4.13 0 0 1 1.36.19 2.45 2.45 0 0 1 .9.52 1.94 1.94 0 0 1 .5.75 2.42 2.42 0 0 1 .16.89 2.63 2.63 0 0 1 -.19 1 2.15 2.15 0 0 1 -.57.77 2.75 2.75 0 0 1 -.91.5 4.2 4.2 0 0 1 -1.23.17h-3.15v-7.6zm0 4.11v2.17h1.4a1.31 1.31 0 0 0 .94-.31 1.18 1.18 0 0 0 .24-1.2.93.93 0 0 0 -.58-.57 1.68 1.68 0 0 0 -.58-.09z"/><path d="m70.31 3.11h1.86v6.23h3v-6.23h1.83v6.23h1.42v3.35a.54.54 0 0 1 -.15.4.5.5 0 0 1 -.38.15h-1.13v-2.55h-6.45z"/><path d="m84.75 10.69a.92.92 0 0 1 -.41-.07.54.54 0 0 1 -.22-.32l-.12-.54a4.6 4.6 0 0 1 -.57.46 3.33 3.33 0 0 1 -.58.33 4 4 0 0 1 -.64.2 4.42 4.42 0 0 1 -.76.06 2.92 2.92 0 0 1 -.9-.13 1.83 1.83 0 0 1 -.71-.39 1.69 1.69 0 0 1 -.47-.64 2.21 2.21 0 0 1 -.16-.89 1.77 1.77 0 0 1 .22-.85 2.13 2.13 0 0 1 .77-.75 4.77 4.77 0 0 1 1.42-.56 10.14 10.14 0 0 1 2.21-.25v-.44a1.64 1.64 0 0 0 -.33-1.13 1.21 1.21 0 0 0 -1-.37 2.18 2.18 0 0 0 -.74.11 2.35 2.35 0 0 0 -.53.23l-.42.25a.8.8 0 0 1 -.41.1.52.52 0 0 1 -.33-.1.8.8 0 0 1 -.22-.23l-.33-.58a4.64 4.64 0 0 1 3.21-1.19 3.11 3.11 0 0 1 1.21.22 2.68 2.68 0 0 1 .9.6 2.57 2.57 0 0 1 .56.93 3.5 3.5 0 0 1 .19 1.19v4.78zm-2.75-1.13a2.12 2.12 0 0 0 1-.21 3 3 0 0 0 .82-.61v-1.28a11 11 0 0 0 -1.36.13 4 4 0 0 0 -.87.26 1.16 1.16 0 0 0 -.48.36.82.82 0 0 0 -.14.45.8.8 0 0 0 .29.69 1.25 1.25 0 0 0 .74.21z"/></g></svg>