<svg xmlns="http://www.w3.org/2000/svg" viewBox="0 0 130.48 11.45"><title>Avito</title><path d="M6.58,9.23H5.42V1.74H1.16V9.23H0V.84H6.58Z"/><path d="M8.29,11.24V3.3h.63a.26.26,0,0,1,.28.22l.09.7a3.11,3.11,0,0,1,.89-.74,2.46,2.46,0,0,1,2.09-.09A2,2,0,0,1,13,4a2.8,2.8,0,0,1,.46.95,4.75,4.75,0,0,1,.16,1.31,4,4,0,0,1-.18,1.22,3.15,3.15,0,0,1-.51,1A2.4,2.4,0,0,1,11,9.31a2.3,2.3,0,0,1-.95-.18,2.17,2.17,0,0,1-.7-.51v2.62ZM11,4a1.78,1.78,0,0,0-.91.23,2.77,2.77,0,0,0-.72.66V7.8a1.64,1.64,0,0,0,.64.55,1.93,1.93,0,0,0,.77.16,1.52,1.52,0,0,0,1.3-.6,2.71,2.71,0,0,0,.45-1.68,4.17,4.17,0,0,0-.1-1,2,2,0,0,0-.3-.68,1.13,1.13,0,0,0-.48-.39A1.67,1.67,0,0,0,11,4Z"/><path d="M14.89,9.24V3.31H16v4a2.18,2.18,0,0,1,0,.25l0,.26.1-.21.11-.17.14-.19.34-.45.47-.62c.17-.24.35-.47.52-.72L19,3.56a.85.85,0,0,1,.16-.17.33.33,0,0,1,.22-.09h.64V9.23H19v-4A2.09,2.09,0,0,1,19,5l0-.27a1,1,0,0,1-.11.21,1.42,1.42,0,0,1-.11.18l-.14.19c-.08.12-.2.27-.33.45l-.47.62-.54.71c-.42.57-.89,1.21-1.43,1.92a.69.69,0,0,1-.16.18.33.33,0,0,1-.22.09Z"/><path d="M29.58,3.3V9.23H28.51V4.1H25.62V9.23H24.55V3.3Z"/><path d="M33.73,3.21a3.19,3.19,0,0,1,1.19.21,2.59,2.59,0,0,1,.9.62,2.66,2.66,0,0,1,.58,1,3.87,3.87,0,0,1,.2,1.26,3.89,3.89,0,0,1-.2,1.27,2.74,2.74,0,0,1-.58,1,2.56,2.56,0,0,1-.9.61,3.51,3.51,0,0,1-2.39,0,2.52,2.52,0,0,1-.91-.61,2.72,2.72,0,0,1-.57-1,3.64,3.64,0,0,1-.2-1.27A3.62,3.62,0,0,1,31.05,5a2.64,2.64,0,0,1,.57-1,2.54,2.54,0,0,1,.91-.62A3.21,3.21,0,0,1,33.73,3.21Zm0,5.29a1.56,1.56,0,0,0,1.33-.59,2.64,2.64,0,0,0,.44-1.64,2.65,2.65,0,0,0-.44-1.65A1.54,1.54,0,0,0,33.73,4a1.92,1.92,0,0,0-.79.15,1.43,1.43,0,0,0-.56.44,1.82,1.82,0,0,0-.33.7,3.49,3.49,0,0,0-.11.95,2.64,2.64,0,0,0,.44,1.64A1.57,1.57,0,0,0,33.73,8.5Z"/><path d="M43,3.3V8.44h1.1V11a.32.32,0,0,1-.09.24.27.27,0,0,1-.22.08h-.65v-2H38V11a.31.31,0,0,1-.07.2.27.27,0,0,1-.22.09h-.67V8.47h.25a1.19,1.19,0,0,0,.41-.08,1.1,1.1,0,0,0,.38-.29,2.44,2.44,0,0,0,.35-.57,6.29,6.29,0,0,0,.29-.94A13.79,13.79,0,0,0,39,5.21c.06-.54.12-1.18.15-1.91ZM40,4.12c0,.61-.1,1.15-.17,1.62A10.21,10.21,0,0,1,39.59,7a5,5,0,0,1-.31.9,3.28,3.28,0,0,1-.35.6h3V4.12Z"/><path d="M50.57,3.3V8.44h1.1V11a.32.32,0,0,1-.08.24.29.29,0,0,1-.22.08h-.65v-2H45.64V11a.31.31,0,0,1-.07.2.25.25,0,0,1-.22.09h-.67V8.47h.26a1.1,1.1,0,0,0,.4-.08,1.23,1.23,0,0,0,.39-.29,2.45,2.45,0,0,0,.34-.57,5.23,5.23,0,0,0,.3-.94c.09-.38.16-.84.23-1.38s.12-1.18.16-1.91Zm-2.94.82a16.21,16.21,0,0,1-.17,1.62c-.07.46-.15.88-.24,1.23a7.16,7.16,0,0,1-.31.9,3.28,3.28,0,0,1-.36.6h3V4.12Z"/><path d="M55,3.21a2.79,2.79,0,0,1,1,.18,2.34,2.34,0,0,1,.79.51,2.37,2.37,0,0,1,.53.83,3.08,3.08,0,0,1,.19,1.13.8.8,0,0,1,0,.33.25.25,0,0,1-.2.08h-4a3.19,3.19,0,0,0,.16,1,2.1,2.1,0,0,0,.39.69,1.67,1.67,0,0,0,.6.42,2.11,2.11,0,0,0,.77.13,2.31,2.31,0,0,0,.69-.09,3.51,3.51,0,0,0,.5-.19l.35-.2a.45.45,0,0,1,.24-.09.23.23,0,0,1,.2.1l.3.38a2.07,2.07,0,0,1-.47.41,3.19,3.19,0,0,1-.59.28,4.42,4.42,0,0,1-.65.17,4.89,4.89,0,0,1-.66.05,3.09,3.09,0,0,1-1.15-.21A2.54,2.54,0,0,1,53,8.5a2.7,2.7,0,0,1-.6-1,4,4,0,0,1-.21-1.35A3.36,3.36,0,0,1,52.36,5a2.7,2.7,0,0,1,.56-.94,2.55,2.55,0,0,1,.88-.62A3,3,0,0,1,55,3.21ZM55,4a1.63,1.63,0,0,0-1.21.44,2,2,0,0,0-.55,1.21h3.3a2.41,2.41,0,0,0-.1-.67,1.6,1.6,0,0,0-.31-.52,1.39,1.39,0,0,0-.48-.34A1.71,1.71,0,0,0,55,4Z"/><path d="M58.72,11.24V3.3h.63a.26.26,0,0,1,.28.22l.09.7a3.11,3.11,0,0,1,.89-.74,2.46,2.46,0,0,1,2.09-.09,2,2,0,0,1,.72.58,2.8,2.8,0,0,1,.46.95A4.75,4.75,0,0,1,64,6.23a4,4,0,0,1-.18,1.22,3.15,3.15,0,0,1-.51,1,2.4,2.4,0,0,1-1.92.88,2.3,2.3,0,0,1-1-.18,2.17,2.17,0,0,1-.7-.51v2.62ZM61.41,4a1.78,1.78,0,0,0-.91.23,2.77,2.77,0,0,0-.72.66V7.8a1.64,1.64,0,0,0,.64.55,1.93,1.93,0,0,0,.77.16,1.52,1.52,0,0,0,1.3-.6,2.71,2.71,0,0,0,.45-1.68,4.17,4.17,0,0,0-.1-1,2,2,0,0,0-.3-.68,1.13,1.13,0,0,0-.48-.39A1.67,1.67,0,0,0,61.41,4Z"/><path d="M67.17,5.47a1,1,0,0,0,.32.29.85.85,0,0,0,.43.1h.52V3.3h1V5.86H70a.86.86,0,0,0,.76-.39L72,3.59a.51.51,0,0,1,.2-.21.54.54,0,0,1,.28-.08h.84L71.76,5.56a1.74,1.74,0,0,1-.29.35,1,1,0,0,1-.39.22,1.18,1.18,0,0,1,.49.24,1.43,1.43,0,0,1,.35.41L73.5,9.23h-.74a.83.83,0,0,1-.43-.09.64.64,0,0,1-.24-.27L70.92,7a1,1,0,0,0-.84-.45h-.61V9.24h-1V6.57h-.6a1.14,1.14,0,0,0-.49.11A1,1,0,0,0,67,7L65.83,8.87a.64.64,0,0,1-.24.27.9.9,0,0,1-.44.09h-.73L66,6.78a1.43,1.43,0,0,1,.35-.41,1.21,1.21,0,0,1,.48-.24,1,1,0,0,1-.38-.22,1.77,1.77,0,0,1-.3-.35L64.58,3.3h.84a.57.57,0,0,1,.28.08.55.55,0,0,1,.19.21Z"/><path d="M78.11,3.59a.74.74,0,0,1,.22-.21.6.6,0,0,1,.29-.08h.83L77.88,5.56a1.49,1.49,0,0,1-.3.35,1,1,0,0,1-.38.22,1.32,1.32,0,0,1,.49.24,1.6,1.6,0,0,1,.35.41l1.58,2.45h-.74a.88.88,0,0,1-.44-.09,1.15,1.15,0,0,1-.27-.27L77,7a.93.93,0,0,0-.84-.45h-.65V9.24H74.45V3.3h1.06V5.86h.57a.86.86,0,0,0,.75-.39Z"/><path d="M82.76,3.21a2.79,2.79,0,0,1,1,.18,2.38,2.38,0,0,1,.8.51,2.34,2.34,0,0,1,.52.83,3.08,3.08,0,0,1,.19,1.13.66.66,0,0,1,0,.33.23.23,0,0,1-.2.08H81a2.93,2.93,0,0,0,.15,1,2.3,2.3,0,0,0,.39.69,1.67,1.67,0,0,0,.6.42,2.11,2.11,0,0,0,.77.13,2.31,2.31,0,0,0,.69-.09,3.51,3.51,0,0,0,.5-.19l.35-.2a.45.45,0,0,1,.24-.09.22.22,0,0,1,.2.1l.3.38a2.07,2.07,0,0,1-.47.41,2.91,2.91,0,0,1-.59.28,4.42,4.42,0,0,1-.65.17,4.89,4.89,0,0,1-.66.05,3.09,3.09,0,0,1-1.15-.21,2.54,2.54,0,0,1-.91-.6,2.7,2.7,0,0,1-.6-1A4,4,0,0,1,80,6.15,3.36,3.36,0,0,1,80.14,5a2.86,2.86,0,0,1,.56-.94,2.65,2.65,0,0,1,.88-.62A3,3,0,0,1,82.76,3.21Zm0,.76a1.65,1.65,0,0,0-1.21.44A2,2,0,0,0,81,5.62h3.3a2.09,2.09,0,0,0-.1-.67,1.44,1.44,0,0,0-.31-.52,1.39,1.39,0,0,0-.48-.34A1.67,1.67,0,0,0,82.79,4Z"/><rect x="117.22" y="4.25" width="1.51" height="5.53"/><polygon points="115.08 4.25 113.6 8.27 112.12 4.25 110.61 4.25 112.64 9.78 113.04 9.78 114.15 9.78 114.55 9.78 116.58 4.25 115.08 4.25"/><path d="M124.06,5.47V4.25h-1.81V2.72h-1.51V4.25h-1.19V5.47h1.19V7.85c0,1.23.62,2.05,2.18,2.05a3.21,3.21,0,0,0,1.14-.23l-.18-1.19a2.59,2.59,0,0,1-.67.09c-.45,0-1-.2-1-.82V5.47Z"/><path d="M109.49,9.78h1.6l-3-8.1H107l-3,8.1h1.61l.57-1.54h2.77ZM106.6,7l.93-2.54L108.47,7Z"/><path d="M127.52,4.11a2.9,2.9,0,1,0,3,2.9,2.93,2.93,0,0,0-3-2.9m0,4.41A1.49,1.49,0,1,1,129,7a1.51,1.51,0,0,1-1.52,1.49"/><path d="M119,2.63a1,1,0,1,1-1-1,1,1,0,0,1,1,1"/><path d="M95.06,2.54A2.54,2.54,0,1,1,92.52,0a2.54,2.54,0,0,1,2.54,2.54" style="fill:#0af"/><path d="M101.43,8.36a3.1,3.1,0,1,1-3.1-3.1,3.09,3.09,0,0,1,3.1,3.1" style="fill:#97cf26"/><path d="M100.33,2.54a2,2,0,1,1-2-2,2,2,0,0,1,2,2" style="fill:#ff6163"/><path d="M94,8.36a1.44,1.44,0,1,1-1.44-1.44A1.44,1.44,0,0,1,94,8.36" style="fill:#a169f7"/></svg>