<svg viewBox="0 0 116.46 27.53" xmlns="http://www.w3.org/2000/svg"><rect fill="#ed6941" height="27.53" rx=".91" width="116.46"/><g fill="#fff"><path d="m18.42 17.31h-1.3v-8.55h-4.78v8.55h-1.34v-9.57h7.38z"/><path d="m23.19 10.44a3.5 3.5 0 0 1 1.33.24 3 3 0 0 1 1 .7 3.16 3.16 0 0 1 .64 1.1 4.35 4.35 0 0 1 .23 1.44 4.26 4.26 0 0 1 -.23 1.44 3.07 3.07 0 0 1 -.64 1.1 3 3 0 0 1 -1 .7 3.5 3.5 0 0 1 -1.33.24 3.61 3.61 0 0 1 -1.35-.24 3 3 0 0 1 -1-.7 3 3 0 0 1 -.65-1.1 4.27 4.27 0 0 1 -.19-1.44 4.35 4.35 0 0 1 .22-1.44 2.93 2.93 0 0 1 1.66-1.8 3.61 3.61 0 0 1 1.31-.24zm0 6a1.7 1.7 0 0 0 1.49-.67 3.1 3.1 0 0 0 .5-1.87 3.11 3.11 0 0 0 -.5-1.88 1.71 1.71 0 0 0 -1.49-.68 2.24 2.24 0 0 0 -.89.17 1.62 1.62 0 0 0 -.62.51 2.05 2.05 0 0 0 -.38.8 4.46 4.46 0 0 0 -.12 1.08 3 3 0 0 0 .5 1.87 1.74 1.74 0 0 0 1.51.7z"/><path d="m33.71 10.54v6.77h-1.19v-5.83h-2.14a19.35 19.35 0 0 1 -.24 2.22 10.83 10.83 0 0 1 -.38 1.6 4.28 4.28 0 0 1 -.51 1.07 2.43 2.43 0 0 1 -.58.64 1.69 1.69 0 0 1 -.62.3 2.41 2.41 0 0 1 -.65.08q-.57 0-.57-.18v-.75h.35a1.48 1.48 0 0 0 .46-.08 1.17 1.17 0 0 0 .46-.31 2.44 2.44 0 0 0 .43-.64 5.76 5.76 0 0 0 .38-1.06 13.82 13.82 0 0 0 .29-1.6c.08-.62.15-1.37.19-2.23z"/><path d="m37.6 19.3a.71.71 0 0 1 -.15.22.43.43 0 0 1 -.28.08h-.88l1.24-2.69-2.79-6.37h1a.36.36 0 0 1 .24.08.38.38 0 0 1 .12.17l1.81 4.26c0 .1.07.2.1.3a2.17 2.17 0 0 1 .08.3c.06-.21.13-.41.2-.61l1.76-4.25a.4.4 0 0 1 .14-.18.38.38 0 0 1 .21-.07h.94z"/><path d="m47.58 17.31h-1.19v-2.87a9.71 9.71 0 0 1 -1.64.28 3.7 3.7 0 0 1 -1.33-.11 1.77 1.77 0 0 1 -.9-.62 2 2 0 0 1 -.33-1.21v-2.24h1.19v2.06a1.33 1.33 0 0 0 .2.77 1 1 0 0 0 .58.39 2.75 2.75 0 0 0 .94.06 8.29 8.29 0 0 0 1.29-.22v-3.06h1.19z"/><path d="m49.34 17.31v-6.76h1.2v4.59.28.31a1.15 1.15 0 0 1 .12-.25l.12-.2.15-.21.38-.51.52-.71.6-.82 1.57-2.19a.89.89 0 0 1 .19-.2.42.42 0 0 1 .25-.1h.71v6.77h-1.15v-4.6c0-.08 0-.17 0-.28v-.3a2.68 2.68 0 0 1 -.12.24l-.13.2-.15.22-.38.51-.53.71-.59.81c-.47.65-1 1.38-1.61 2.19a1.2 1.2 0 0 1 -.19.21.36.36 0 0 1 -.24.09z"/><path d="m56.19 10.54h6.38v.91h-2.57v5.86h-1.21v-5.86h-2.6z"/><path d="m64.77 10.54v2.65h1.44a3.57 3.57 0 0 1 1.17.17 2 2 0 0 1 .77.45 1.62 1.62 0 0 1 .42.65 2.38 2.38 0 0 1 .13.76 2.32 2.32 0 0 1 -.16.84 1.93 1.93 0 0 1 -.48.66 2.3 2.3 0 0 1 -.77.43 3.42 3.42 0 0 1 -1.06.16h-2.6v-6.77zm0 3.52v2.38h1.46a1.93 1.93 0 0 0 .62-.09 1.33 1.33 0 0 0 .44-.25 1.16 1.16 0 0 0 .26-.39 1.27 1.27 0 0 0 .08-.48 1.33 1.33 0 0 0 -.07-.45 1 1 0 0 0 -.24-.37 1.15 1.15 0 0 0 -.45-.25 1.83 1.83 0 0 0 -.66-.1z"/><path d="m76 10.44a3.5 3.5 0 0 1 1.33.24 3 3 0 0 1 1 .7 3.16 3.16 0 0 1 .64 1.1 4.35 4.35 0 0 1 .23 1.44 4.26 4.26 0 0 1 -.2 1.44 3.07 3.07 0 0 1 -.64 1.1 3 3 0 0 1 -1 .7 3.5 3.5 0 0 1 -1.36.24 3.61 3.61 0 0 1 -1.35-.24 3 3 0 0 1 -1-.7 3.07 3.07 0 0 1 -.64-1.1 4.26 4.26 0 0 1 -.23-1.44 4.35 4.35 0 0 1 .22-1.44 3.16 3.16 0 0 1 .64-1.1 3 3 0 0 1 1-.7 3.61 3.61 0 0 1 1.36-.24zm0 6a1.73 1.73 0 0 0 1.49-.67 3.1 3.1 0 0 0 .5-1.87 3.11 3.11 0 0 0 -.5-1.88 1.74 1.74 0 0 0 -1.49-.65 2.21 2.21 0 0 0 -.89.17 1.73 1.73 0 0 0 -.63.51 2.2 2.2 0 0 0 -.37.8 4.46 4.46 0 0 0 -.11 1.08 3.1 3.1 0 0 0 .49 1.87 1.77 1.77 0 0 0 1.51.67z"/><path d="m79.8 10.54h6.38v.91h-2.6v5.86h-1.19v-5.86h-2.59z"/><path d="m92.42 17.31h-1.19v-2.87a9.55 9.55 0 0 1 -1.64.28 3.72 3.72 0 0 1 -1.33-.11 1.77 1.77 0 0 1 -.9-.62 2 2 0 0 1 -.36-1.21v-2.24h1.2v2.06a1.33 1.33 0 0 0 .19.77 1.09 1.09 0 0 0 .58.39 2.77 2.77 0 0 0 .94.06 7.92 7.92 0 0 0 1.29-.22v-3.06h1.19z"/><path d="m97 10.44a2.93 2.93 0 0 1 1.12.2 2.61 2.61 0 0 1 .9.59 2.74 2.74 0 0 1 .59.95 3.62 3.62 0 0 1 .21 1.28.82.82 0 0 1 -.06.38.26.26 0 0 1 -.23.09h-4.53a3.58 3.58 0 0 0 .17 1.07 2.08 2.08 0 0 0 .44.79 1.69 1.69 0 0 0 .67.48 2.31 2.31 0 0 0 .86.16 2.46 2.46 0 0 0 .77-.11 3.44 3.44 0 0 0 .56-.22 3.1 3.1 0 0 0 .39-.23.65.65 0 0 1 .27-.1.26.26 0 0 1 .23.12l.33.43a2.1 2.1 0 0 1 -.52.46 4.07 4.07 0 0 1 -.66.33 4.31 4.31 0 0 1 -1.51.29 3.4 3.4 0 0 1 -1.29-.24 2.84 2.84 0 0 1 -1-.69 3.17 3.17 0 0 1 -.67-1.13 4.63 4.63 0 0 1 -.24-1.55 3.81 3.81 0 0 1 .2-1.32 3.07 3.07 0 0 1 .62-1.07 3 3 0 0 1 1-.71 3.35 3.35 0 0 1 1.38-.25zm0 .87a1.83 1.83 0 0 0 -1.35.5 2.33 2.33 0 0 0 -.65 1.38h3.7a2.58 2.58 0 0 0 -.11-.76 1.65 1.65 0 0 0 -.35-.59 1.42 1.42 0 0 0 -.54-.39 1.86 1.86 0 0 0 -.7-.14z"/><path d="m100.42 10.54h6.38v.91h-2.59v5.86h-1.21v-5.86h-2.6z"/></g></svg>