<svg xmlns="http://www.w3.org/2000/svg" viewBox="0 0 208.46 40.11"><title>Cheka_Autostory</title><path d="M64.92,14.72H62.11V2.11h-6.5V14.72h-2.8V0H64.92Z"/><path d="M67.43,18.13V4.27H69a.65.65,0,0,1,.66.46l.2,1a5.39,5.39,0,0,1,1.48-1.17,4,4,0,0,1,2-.45,3.48,3.48,0,0,1,2.83,1.39,4.91,4.91,0,0,1,.81,1.67,8.25,8.25,0,0,1,.28,2.27,6.86,6.86,0,0,1-.32,2.17A5.28,5.28,0,0,1,76,13.31a4.14,4.14,0,0,1-3.33,1.56,3.88,3.88,0,0,1-1.53-.27A3.67,3.67,0,0,1,70,13.85v4.28Zm5-12.06A2.63,2.63,0,0,0,71,6.4,3.78,3.78,0,0,0,70,7.33V12a2.46,2.46,0,0,0,.94.74,3,3,0,0,0,1.12.21,2.51,2.51,0,0,0,1-.22,2.08,2.08,0,0,0,.8-.65,3.39,3.39,0,0,0,.5-1.1,6.65,6.65,0,0,0,.17-1.58,6.89,6.89,0,0,0-.15-1.55,2.88,2.88,0,0,0-.43-1,1.61,1.61,0,0,0-.67-.58A2.21,2.21,0,0,0,72.4,6.07Z"/><path d="M83.7,4.11a6,6,0,0,1,2.15.38A4.75,4.75,0,0,1,87.5,5.56a4.51,4.51,0,0,1,1.06,1.69,6.24,6.24,0,0,1,.38,2.23,6.28,6.28,0,0,1-.38,2.23,4.55,4.55,0,0,1-1.06,1.7,4.64,4.64,0,0,1-1.65,1.08,6.33,6.33,0,0,1-4.32,0,4.59,4.59,0,0,1-1.66-1.08,4.83,4.83,0,0,1-1.07-1.7,6.29,6.29,0,0,1-.37-2.23,6.25,6.25,0,0,1,.37-2.23,4.79,4.79,0,0,1,1.07-1.69,4.7,4.7,0,0,1,1.66-1.07A6,6,0,0,1,83.7,4.11Zm0,8.83a2.28,2.28,0,0,0,2-.88A4.35,4.35,0,0,0,86.3,9.5a4.42,4.42,0,0,0-.64-2.58,2.26,2.26,0,0,0-2-.88,2.29,2.29,0,0,0-2,.89,4.33,4.33,0,0,0-.64,2.57,4.3,4.3,0,0,0,.64,2.56A2.34,2.34,0,0,0,83.7,12.94Z"/><path d="M90.7,4.27h4.18a6.83,6.83,0,0,1,1.74.2,3.69,3.69,0,0,1,1.2.53,2.07,2.07,0,0,1,.71.8,2.22,2.22,0,0,1,.22,1,2.89,2.89,0,0,1-.08.7,2.11,2.11,0,0,1-.32.7,2.33,2.33,0,0,1-.61.6,2.8,2.8,0,0,1-1,.43,5.51,5.51,0,0,1,1,.31,2.66,2.66,0,0,1,.75.5,2.29,2.29,0,0,1,.48.7,2.37,2.37,0,0,1,.17.9A2.67,2.67,0,0,1,98.8,13a2.82,2.82,0,0,1-.9,1,4.13,4.13,0,0,1-1.3.56,6.09,6.09,0,0,1-1.55.19H90.7Zm2.43,4.38h1.68a1.83,1.83,0,0,0,.68-.11,1.57,1.57,0,0,0,.54-.3,1.35,1.35,0,0,0,.35-.47,1.32,1.32,0,0,0,.13-.6,1.25,1.25,0,0,0-.09-.46,1,1,0,0,0-.27-.41A1.65,1.65,0,0,0,95.62,6a2.64,2.64,0,0,0-.81-.11H93.13Zm0,1.55V13H95a2,2,0,0,0,1.28-.39,1.31,1.31,0,0,0,.47-1.06,1.78,1.78,0,0,0-.08-.53,1,1,0,0,0-.27-.44,1.45,1.45,0,0,0-.54-.28,2.91,2.91,0,0,0-.85-.1Z"/><path d="M105.39,4.11a5.34,5.34,0,0,1,1.86.32,4,4,0,0,1,1.46.92,4.51,4.51,0,0,1,1,1.48,5.5,5.5,0,0,1,.34,2,1.66,1.66,0,0,1-.12.77.51.51,0,0,1-.48.2h-6.57a4.55,4.55,0,0,0,.29,1.39,2.85,2.85,0,0,0,.6,1,2.48,2.48,0,0,0,.88.57,3.69,3.69,0,0,0,2.21,0,4.87,4.87,0,0,0,.78-.31c.23-.12.43-.22.59-.32a1.08,1.08,0,0,1,.5-.14.53.53,0,0,1,.47.23l.74.92a4.09,4.09,0,0,1-1,.82,5.37,5.37,0,0,1-1.11.53,6.65,6.65,0,0,1-1.17.28,9.14,9.14,0,0,1-1.15.08,5.75,5.75,0,0,1-2.06-.36,4.61,4.61,0,0,1-1.66-1.07,5,5,0,0,1-1.11-1.75,6.67,6.67,0,0,1-.4-2.42,5.82,5.82,0,0,1,.35-2,4.91,4.91,0,0,1,1-1.64,4.75,4.75,0,0,1,1.61-1.1A5.36,5.36,0,0,1,105.39,4.11Zm.06,1.8a2.4,2.4,0,0,0-1.75.62,3,3,0,0,0-.81,1.76h4.82a2.81,2.81,0,0,0-.14-.92,2,2,0,0,0-.42-.75,2,2,0,0,0-.7-.52A2.58,2.58,0,0,0,105.45,5.91Z"/><path d="M111.76,18.13V4.27h1.56a.65.65,0,0,1,.66.46l.2,1a5.39,5.39,0,0,1,1.48-1.17,4,4,0,0,1,2-.45,3.48,3.48,0,0,1,2.83,1.39,4.91,4.91,0,0,1,.81,1.67,8.25,8.25,0,0,1,.28,2.27,6.86,6.86,0,0,1-.32,2.17,5.28,5.28,0,0,1-.91,1.73A4.14,4.14,0,0,1,117,14.87a3.88,3.88,0,0,1-1.53-.27,3.67,3.67,0,0,1-1.12-.75v4.28Zm5-12.06a2.63,2.63,0,0,0-1.36.33,3.78,3.78,0,0,0-1.05.93V12a2.46,2.46,0,0,0,.94.74,3,3,0,0,0,1.12.21,2.51,2.51,0,0,0,1-.22,2.08,2.08,0,0,0,.8-.65,3.39,3.39,0,0,0,.5-1.1,6.65,6.65,0,0,0,.17-1.58,6.89,6.89,0,0,0-.15-1.55,2.88,2.88,0,0,0-.43-1,1.61,1.61,0,0,0-.67-.58A2.21,2.21,0,0,0,116.73,6.07Z"/><path d="M125.78,4.27V8.14h1.89a5.64,5.64,0,0,1,1.87.27,3.36,3.36,0,0,1,1.25.71,2.69,2.69,0,0,1,.68,1,3.39,3.39,0,0,1,.22,1.23,3.32,3.32,0,0,1-.27,1.35,2.87,2.87,0,0,1-.77,1.06,3.71,3.71,0,0,1-1.26.68,5.18,5.18,0,0,1-1.69.25h-4.35V4.27Zm0,5.66v3h1.91a1.8,1.8,0,0,0,1.3-.43,1.6,1.6,0,0,0,.33-1.65,1.45,1.45,0,0,0-.3-.47,1.58,1.58,0,0,0-.54-.32,2.36,2.36,0,0,0-.8-.12Z"/><path d="M130.82,4.27H141V6.14h-3.79v8.58H134.6V6.14h-3.78Z"/><path d="M146.65,4.11a5.28,5.28,0,0,1,1.85.32,4,4,0,0,1,1.46.92,4.21,4.21,0,0,1,1,1.48,5.5,5.5,0,0,1,.34,2,1.66,1.66,0,0,1-.12.77.5.5,0,0,1-.48.2h-6.57a4.86,4.86,0,0,0,.29,1.39,2.85,2.85,0,0,0,.6,1,2.43,2.43,0,0,0,.89.57,3.35,3.35,0,0,0,1.13.19,3.41,3.41,0,0,0,1.07-.15,5.43,5.43,0,0,0,.79-.31l.59-.32a1,1,0,0,1,.49-.14.56.56,0,0,1,.48.23l.73.92a4.09,4.09,0,0,1-1,.82,5.3,5.3,0,0,1-1.1.53,7.1,7.1,0,0,1-1.17.28,9.43,9.43,0,0,1-1.16.08,5.79,5.79,0,0,1-2.06-.36,4.7,4.7,0,0,1-1.66-1.07,4.88,4.88,0,0,1-1.1-1.75,6.67,6.67,0,0,1-.41-2.42,5.82,5.82,0,0,1,.35-2,4.91,4.91,0,0,1,1-1.64,4.85,4.85,0,0,1,1.61-1.1A5.37,5.37,0,0,1,146.65,4.11Zm0,1.8a2.4,2.4,0,0,0-1.75.62,3.11,3.11,0,0,0-.81,1.76H149a3.1,3.1,0,0,0-.14-.92,2.28,2.28,0,0,0-.42-.75,2.08,2.08,0,0,0-.71-.52A2.58,2.58,0,0,0,146.7,5.91Z"/><path d="M9.26,26.26V36.7H6.7V28.12H2.56V36.7H0V26.26Z"/><path d="M16.31,26.1a5.92,5.92,0,0,1,2.15.37,4.94,4.94,0,0,1,1.66,1.07,4.86,4.86,0,0,1,1.06,1.69,6.94,6.94,0,0,1,0,4.47,4.9,4.9,0,0,1-1.06,1.7,4.68,4.68,0,0,1-1.66,1.08,6.3,6.3,0,0,1-4.31,0,4.63,4.63,0,0,1-1.67-1.08,4.76,4.76,0,0,1-1.06-1.7,6.76,6.76,0,0,1,0-4.47,4.72,4.72,0,0,1,1.06-1.69,4.89,4.89,0,0,1,1.67-1.07A5.93,5.93,0,0,1,16.31,26.1Zm0,8.82a2.27,2.27,0,0,0,2-.87,4.31,4.31,0,0,0,.64-2.57,4.33,4.33,0,0,0-.64-2.57,2.25,2.25,0,0,0-2-.89,2.3,2.3,0,0,0-2,.89,4.35,4.35,0,0,0-.65,2.57A4.28,4.28,0,0,0,14.32,34,2.29,2.29,0,0,0,16.31,34.92Z"/><path d="M33.08,26.26V36.7H30.53V28.18H27.92a30.74,30.74,0,0,1-.38,3.32,15.14,15.14,0,0,1-.62,2.35,5.94,5.94,0,0,1-.8,1.56,3.66,3.66,0,0,1-.94.91,3,3,0,0,1-1,.43,5.47,5.47,0,0,1-1.07.11,2.68,2.68,0,0,1-.83-.1c-.18-.07-.26-.16-.26-.27V34.92h.61a2.33,2.33,0,0,0,.68-.1A1.6,1.6,0,0,0,24,34.4a3.13,3.13,0,0,0,.61-.9A7.93,7.93,0,0,0,25.1,32a23.91,23.91,0,0,0,.43-2.36c.12-.93.22-2,.29-3.34Z"/><path d="M44.66,26.26V36.7H42.1V32.08H38V36.7H35.4V26.26H38v4H42.1v-4Z"/><path d="M50.9,39.57a1.09,1.09,0,0,1-.3.41.91.91,0,0,1-.55.13H48.14l2-4.18-4.29-9.67h2.24a.73.73,0,0,1,.47.14,1,1,0,0,1,.26.33l2.25,5.41a10.84,10.84,0,0,1,.35,1.11c.05-.19.11-.37.18-.56s.13-.37.21-.56l2.13-5.4a.77.77,0,0,1,.28-.34.71.71,0,0,1,.43-.13h2Z"/><path d="M60.39,26.26v4.25H62.5A5.8,5.8,0,0,1,63,28.67a4.36,4.36,0,0,1,2.52-2.27,5.68,5.68,0,0,1,1.89-.3,5.54,5.54,0,0,1,2.08.37,4.64,4.64,0,0,1,1.59,1.07,4.8,4.8,0,0,1,1,1.69,6.56,6.56,0,0,1,.36,2.23,6.3,6.3,0,0,1-.37,2.24,4.88,4.88,0,0,1-1.05,1.7,4.53,4.53,0,0,1-1.6,1.08,5.41,5.41,0,0,1-2,.38,5.6,5.6,0,0,1-1.94-.32A4.1,4.1,0,0,1,64,35.63a4.53,4.53,0,0,1-1-1.43,5.9,5.9,0,0,1-.49-1.9h-2.1v4.4H57.83V26.26Zm7,8.66a2,2,0,0,0,1.83-.87,4.65,4.65,0,0,0,.59-2.57,4.67,4.67,0,0,0-.59-2.57A2,2,0,0,0,67.43,28a2.07,2.07,0,0,0-1.84.89A4.7,4.7,0,0,0,65,31.48a4.65,4.65,0,0,0,.59,2.57A2.06,2.06,0,0,0,67.43,34.92Z"/><path d="M79.06,36.71V26.27h2.55v6.1c0,.15,0,.32,0,.51s0,.38-.07.57a4.47,4.47,0,0,1,.46-.83l.19-.27.48-.66.67-.93.76-1.05c.6-.83,1.28-1.78,2-2.83a1.65,1.65,0,0,1,.38-.42.84.84,0,0,1,.54-.2H88.6V36.7H86V30.61a4.63,4.63,0,0,1,0-.51,3.57,3.57,0,0,1,.07-.56c-.08.15-.15.3-.23.44a4,4,0,0,1-.23.37l-.2.28L85,31.3l-.66.92-.76,1-2,2.83a2.09,2.09,0,0,1-.38.42.75.75,0,0,1-.53.2Z"/><path d="M98.55,28.47a1.51,1.51,0,0,1-.22.22.49.49,0,0,1-.32.08.67.67,0,0,1-.38-.11l-.45-.27a3.19,3.19,0,0,0-.61-.26,2.86,2.86,0,0,0-.89-.12,2.73,2.73,0,0,0-1.18.24,2.17,2.17,0,0,0-.84.69,3,3,0,0,0-.5,1.08A5.8,5.8,0,0,0,93,31.46,5.63,5.63,0,0,0,93.17,33,3.25,3.25,0,0,0,93.69,34a2.22,2.22,0,0,0,.83.67,2.46,2.46,0,0,0,1.1.23,2.71,2.71,0,0,0,1-.15,2.94,2.94,0,0,0,.64-.32l.45-.33a.65.65,0,0,1,.43-.14.5.5,0,0,1,.46.23l.74.92a4.61,4.61,0,0,1-.92.81,5.09,5.09,0,0,1-2.13.81,7.17,7.17,0,0,1-1.13.09,4.63,4.63,0,0,1-1.85-.37,4.32,4.32,0,0,1-1.52-1.05,4.86,4.86,0,0,1-1-1.69,6.51,6.51,0,0,1-.38-2.29,6.34,6.34,0,0,1,.34-2.13,4.65,4.65,0,0,1,1-1.7,4.59,4.59,0,0,1,1.61-1.13,5.67,5.67,0,0,1,2.22-.4,5.33,5.33,0,0,1,2.08.37,5.12,5.12,0,0,1,1.61,1.08Z"/><path d="M100.08,26.26h10.13v1.86h-3.79V36.7h-2.55V28.12h-3.79Z"/><path d="M116.07,26.1a5.86,5.86,0,0,1,2.14.37,4.85,4.85,0,0,1,1.66,1.07,4.72,4.72,0,0,1,1.06,1.69,6.94,6.94,0,0,1,0,4.47,4.76,4.76,0,0,1-1.06,1.7,4.59,4.59,0,0,1-1.66,1.08,5.86,5.86,0,0,1-2.14.38,6,6,0,0,1-2.17-.38,4.59,4.59,0,0,1-1.66-1.08,4.78,4.78,0,0,1-1.07-1.7,6.76,6.76,0,0,1,0-4.47,4.74,4.74,0,0,1,1.07-1.69,4.85,4.85,0,0,1,1.66-1.07A6,6,0,0,1,116.07,26.1Zm0,8.82a2.28,2.28,0,0,0,2-.87,4.39,4.39,0,0,0,.63-2.57,4.41,4.41,0,0,0-.63-2.57,2.26,2.26,0,0,0-2-.89,2.32,2.32,0,0,0-2,.89,4.35,4.35,0,0,0-.65,2.57,4.28,4.28,0,0,0,.65,2.56A2.31,2.31,0,0,0,116.07,34.92Z"/><path d="M123,40.11V26.26h1.57a.62.62,0,0,1,.65.46l.21,1a5.2,5.2,0,0,1,1.47-1.18,4.18,4.18,0,0,1,1.95-.44,3.63,3.63,0,0,1,1.59.35,3.54,3.54,0,0,1,1.25,1,5,5,0,0,1,.8,1.67,8.23,8.23,0,0,1,.29,2.27,7.2,7.2,0,0,1-.32,2.17,5.4,5.4,0,0,1-.92,1.73,4.22,4.22,0,0,1-3.33,1.56,3.88,3.88,0,0,1-1.53-.27,3.8,3.8,0,0,1-1.12-.75v4.27Zm5-12.06a2.66,2.66,0,0,0-1.36.33,4.09,4.09,0,0,0-1,.93V34a2.46,2.46,0,0,0,1,.73,2.89,2.89,0,0,0,1.11.21,2.52,2.52,0,0,0,1-.21,2,2,0,0,0,.79-.65A3,3,0,0,0,130,33a6.05,6.05,0,0,0,.18-1.57,6.83,6.83,0,0,0-.15-1.55,3,3,0,0,0-.43-1,1.63,1.63,0,0,0-.68-.58A2.06,2.06,0,0,0,128,28.05Z"/><path d="M134.59,36.71V26.27h2.56v6.1a4.92,4.92,0,0,1,0,.51c0,.19,0,.38-.06.57a5.17,5.17,0,0,1,.45-.83l.2-.27.48-.66.67-.93q.38-.51.75-1.05l2-2.83a1.91,1.91,0,0,1,.39-.42.81.81,0,0,1,.53-.2h1.56V36.7h-2.56V30.61c0-.16,0-.33,0-.51s0-.37.07-.56c-.07.15-.15.3-.22.44s-.16.26-.23.37l-.21.28-.48.67-.67.92-.75,1-2,2.83a2.45,2.45,0,0,1-.38.42.76.76,0,0,1-.53.2Z"/><path d="M149,26.26v4.25h2.11a6.07,6.07,0,0,1,.52-1.84,4.54,4.54,0,0,1,1-1.39,4.63,4.63,0,0,1,1.49-.88,5.68,5.68,0,0,1,1.89-.3,5.51,5.51,0,0,1,2.08.37,4.69,4.69,0,0,1,1.6,1.07,4.78,4.78,0,0,1,1,1.69,6.56,6.56,0,0,1,.36,2.23,6.3,6.3,0,0,1-.37,2.24,5,5,0,0,1-1,1.7,4.57,4.57,0,0,1-1.61,1.08,5.41,5.41,0,0,1-2,.38,5.64,5.64,0,0,1-1.94-.32,4.18,4.18,0,0,1-1.49-.91,4.53,4.53,0,0,1-1-1.43,5.9,5.9,0,0,1-.49-1.9H149v4.4h-2.56V26.26Zm7,8.66a2,2,0,0,0,1.83-.87,4.57,4.57,0,0,0,.59-2.57,4.59,4.59,0,0,0-.59-2.57,2.33,2.33,0,0,0-3.66,0,4.61,4.61,0,0,0-.59,2.57,4.66,4.66,0,0,0,.58,2.57A2.07,2.07,0,0,0,156.05,34.92Z"/><path d="M174.63,36.7a1.19,1.19,0,0,1-.56-.1.73.73,0,0,1-.31-.44l-.23-.74a8.37,8.37,0,0,1-.79.63,4.2,4.2,0,0,1-.8.45,4.1,4.1,0,0,1-.88.27,5.48,5.48,0,0,1-1,.1,4.08,4.08,0,0,1-1.24-.18,2.79,2.79,0,0,1-1-.54,2.39,2.39,0,0,1-.64-.88,3.14,3.14,0,0,1-.23-1.23,2.4,2.4,0,0,1,.32-1.17,3,3,0,0,1,1-1,6.89,6.89,0,0,1,2-.77,14.53,14.53,0,0,1,3-.34v-.61a2.21,2.21,0,0,0-.46-1.55,1.66,1.66,0,0,0-1.31-.51,3.33,3.33,0,0,0-1,.14,6.17,6.17,0,0,0-.72.32l-.56.33a1.2,1.2,0,0,1-.57.14.73.73,0,0,1-.45-.14,1,1,0,0,1-.3-.32l-.46-.8a6.36,6.36,0,0,1,4.41-1.65,4.4,4.4,0,0,1,1.67.3,3.6,3.6,0,0,1,1.24.83,3.45,3.45,0,0,1,.77,1.28,4.72,4.72,0,0,1,.27,1.63V36.7Zm-3.82-1.56a3.2,3.2,0,0,0,1.36-.28,4.2,4.2,0,0,0,1.12-.85V32.25a13.94,13.94,0,0,0-1.87.18,5.75,5.75,0,0,0-1.21.35,1.67,1.67,0,0,0-.65.5,1.08,1.08,0,0,0-.19.62,1.09,1.09,0,0,0,.39,1A1.79,1.79,0,0,0,170.81,35.14Z"/><path d="M178,26.26h4.18a7.35,7.35,0,0,1,1.74.19,3.81,3.81,0,0,1,1.2.53,2.15,2.15,0,0,1,.71.8,2.27,2.27,0,0,1,.23,1,3,3,0,0,1-.09.7,2.16,2.16,0,0,1-.32.69,2.35,2.35,0,0,1-.61.61,3,3,0,0,1-1,.43,4.79,4.79,0,0,1,1,.31,2.66,2.66,0,0,1,.75.5,2.29,2.29,0,0,1,.48.7,2.37,2.37,0,0,1,.17.9,2.6,2.6,0,0,1-.34,1.37,2.76,2.76,0,0,1-.9,1,4.13,4.13,0,0,1-1.3.56,6.58,6.58,0,0,1-1.55.18H178Zm2.43,4.38h1.68a2.06,2.06,0,0,0,.68-.11,1.44,1.44,0,0,0,.54-.31,1.37,1.37,0,0,0,.48-1.06,1.44,1.44,0,0,0-.08-.46,1.11,1.11,0,0,0-.28-.41,1.48,1.48,0,0,0-.53-.28,2.37,2.37,0,0,0-.81-.11h-1.68Zm0,1.54V35h1.91a2,2,0,0,0,1.28-.38,1.31,1.31,0,0,0,.47-1.06A1.91,1.91,0,0,0,184,33a1,1,0,0,0-.27-.43,1.31,1.31,0,0,0-.54-.28,2.88,2.88,0,0,0-.85-.11Z"/><path d="M187.24,26.26h10.13v1.86h-3.79V36.7H191V28.12h-3.78Z"/><path d="M203.22,26.1a5.92,5.92,0,0,1,2.15.37A4.94,4.94,0,0,1,207,27.54a4.86,4.86,0,0,1,1.06,1.69,6.94,6.94,0,0,1,0,4.47A4.9,4.9,0,0,1,207,35.4a4.68,4.68,0,0,1-1.66,1.08,6.3,6.3,0,0,1-4.31,0,4.63,4.63,0,0,1-1.67-1.08,4.76,4.76,0,0,1-1.06-1.7,6.76,6.76,0,0,1,0-4.47,4.72,4.72,0,0,1,1.06-1.69,4.89,4.89,0,0,1,1.67-1.07A6,6,0,0,1,203.22,26.1Zm0,8.82a2.27,2.27,0,0,0,2-.87,4.31,4.31,0,0,0,.64-2.57,4.33,4.33,0,0,0-.64-2.57,2.25,2.25,0,0,0-2-.89,2.3,2.3,0,0,0-2,.89,4.35,4.35,0,0,0-.65,2.57,4.28,4.28,0,0,0,.65,2.56A2.29,2.29,0,0,0,203.22,34.92Z"/></svg>