<svg xmlns="http://www.w3.org/2000/svg" viewBox="0 0 148.2 47.81"><title>Logo</title><path d="M2.39,45.42H145.81v-43H2.39ZM1.2,0H147a1.1,1.1,0,0,1,1.19,1.19V46.61a1.1,1.1,0,0,1-1.19,1.2H1.2A1.1,1.1,0,0,1,0,46.61V1.19A1.1,1.1,0,0,1,1.2,0" style="fill:#ed6941"/><path d="M55.82,17H45.69c-.49,0-.74.21-.74.62V18.8c0,.41.25.62.74.62h3.62v10.8c0,.35.17.53.5.53H51.7c.33,0,.49-.18.49-.53V19.42h3.63c.49,0,.74-.21.74-.62V17.58c0-.41-.25-.62-.74-.62"/><path d="M18.45,25.11l1.21-3.05a4.56,4.56,0,0,0,.27-.79q0-.24.09-.72h0q0,.48.09.72a5.28,5.28,0,0,0,.26.79l1.22,3.05Zm3.21-7.37q-.32-.78-.93-.78H19.35q-.62,0-.93.78L13.6,30.11c-.17.43,0,.64.46.64h1.56a.91.91,0,0,0,.91-.67l1-2.58h5l1,2.58a.91.91,0,0,0,.9.67H26c.47,0,.63-.21.46-.64Z"/><path d="M40.38,17h-1.5c-.46,0-.69.17-.69.53v7.42c0,1.73-.26,2.81-.78,3.25a2.77,2.77,0,0,1-3.54,0c-.52-.44-.78-1.52-.78-3.25V17.49c0-.36-.23-.53-.69-.53H30.9c-.46,0-.69.17-.69.53V25c0,2.24.48,3.81,1.46,4.71a5.6,5.6,0,0,0,4,1.35,5.62,5.62,0,0,0,4-1.35q1.45-1.35,1.46-4.71V17.49c0-.36-.23-.53-.69-.53"/><path d="M87.25,17H77.12c-.49,0-.74.21-.74.62V18.8c0,.41.25.62.74.62h3.63v10.8c0,.35.16.53.49.53h1.89c.33,0,.5-.18.5-.53V19.42h3.62c.5,0,.74-.21.74-.62V17.58c0-.41-.24-.62-.74-.62"/><path d="M69.27,27.53a3.72,3.72,0,0,1-5.6,0,6.41,6.41,0,0,1-.89-3.68,6.37,6.37,0,0,1,.89-3.67,3.7,3.7,0,0,1,5.6,0,6.37,6.37,0,0,1,.89,3.67,6.41,6.41,0,0,1-.89,3.68m-2.8-10.9a6.39,6.39,0,0,0-5,1.95,7.65,7.65,0,0,0-1.75,5.27,7.62,7.62,0,0,0,1.75,5.27,6.39,6.39,0,0,0,5,1.95,6.39,6.39,0,0,0,5-1.95,7.57,7.57,0,0,0,1.75-5.27,7.61,7.61,0,0,0-1.75-5.27,6.39,6.39,0,0,0-5-1.95"/><path d="M125.79,25.11,127,22.06a4.3,4.3,0,0,0,.26-.79c0-.16.06-.4.1-.72h0q0,.48.09.72a5.28,5.28,0,0,0,.26.79L129,25.11Zm8,5L129,17.74c-.2-.52-.51-.78-.92-.78h-1.38q-.63,0-.93.78l-4.83,12.37c-.16.43,0,.64.46.64H123a.91.91,0,0,0,.91-.67l1-2.58h5l1,2.58a.93.93,0,0,0,.91.67h1.57c.47,0,.63-.21.46-.64"/><path d="M112.92,22.57l4.48-4.78c.52-.56.4-.83-.37-.83h-2a1.45,1.45,0,0,0-.91.57l-4.79,5.13h-.07a11.06,11.06,0,0,0,0-1.15V17.68q0-.72-.69-.72h-1.49q-.69,0-.69.72V30q0,.72.69.72h1.49q.69,0,.69-.72V26.45L111,24.63l3.63,5.55a1.06,1.06,0,0,0,.88.57h1.85c.61,0,.73-.28.37-.83Z"/><path d="M101.33,28.36H94.75V24.79h5.75c.49,0,.73-.21.73-.63V23c0-.42-.24-.63-.73-.63H94.75V19.34H101c.49,0,.74-.21.74-.62V17.58c0-.41-.25-.62-.74-.62H92.56q-.69,0-.69.72V30q0,.72.69.72h8.77c.5,0,.74-.21.74-.63V29c0-.42-.24-.63-.74-.63"/><rect width="148.2" height="47.81" style="fill:none"/></svg>