<svg enable-background="new 0 0 279.2 39.5" height="39.5" viewBox="0 0 279.2 39.5" width="279.2" xmlns="http://www.w3.org/2000/svg"><g fill="#ed6941"><path d="m55.3 0v7.2h.7l-.1 2.8h-.8l-.1-1.9h-5.1v1.9h-.9v-2.7h.6c.3-.6.6-1.1.8-1.8.3-.9.4-2 .4-3.4v-2.1zm-3.6 2.4c0 1.3-.1 2.4-.4 3.3-.2.6-.4 1.1-.7 1.5h3.6v-6.3h-2.5z"/><path d="m58.7.9h-2.5v-.9h6v.9h-2.5v7.2h-1.1v-7.2z"/><path d="m69 0v8.1h-1v-7.2h-3.8v7.2h-1v-8.1z"/><path d="m70.2 9.6c.3-.7.6-2 .7-2.9l1.1-.1c-.3 1-.8 2.4-1.1 2.9z"/><path d="m75.9 4.2c0-.7 0-1.3 0-1.9h.9v1c.4-.7 1.1-1.1 2.1-1.1 1.4 0 2.5 1.2 2.5 3 0 2.1-1.3 3.1-2.6 3.1-.8 0-1.4-.3-1.8-.9v3.2h-1v-6.4zm1 1.5v.4c.2.7.8 1.2 1.6 1.2 1.1 0 1.8-.9 1.8-2.2 0-1.1-.6-2.1-1.7-2.1-.7 0-1.4.5-1.6 1.3 0 .1-.1.3-.1.4z"/><path d="m83.3 5.4c0 1.4.9 2 2 2 .8 0 1.2-.1 1.6-.3l.1.7c-.4.2-1 .4-1.9.4-1.8 0-2.9-1.2-2.9-2.9s1-3.1 2.7-3.1c1.9 0 2.4 1.7 2.4 2.7v.5zm3.1-.8c0-.7-.3-1.7-1.5-1.7-1.1 0-1.5 1-1.6 1.7z"/><path d="m88.8 2.3h1.3l1.1 2.9c.1.4.4 1.1.5 1.6.1-.4.5-1.4.7-2l.9-2.5h1.3l.4 5.8h-1l-.1-2.8c0-.6-.1-1.4-.1-2.1-.2.5-.3 1-.6 1.9l-1.2 2.9h-.8l-1-2.9c-.2-.6-.4-1.4-.6-1.9 0 .7-.1 1.5-.1 2.1l-.1 2.7h-1z"/><path d="m101.6 5.1c0 2.1-1.5 3.1-2.9 3.1-1.6 0-2.8-1.2-2.8-3 0-1.9 1.3-3.1 2.9-3.1 1.7 0 2.8 1.3 2.8 3zm-4.6.1c0 1.3.7 2.2 1.8 2.2 1 0 1.8-.9 1.8-2.3 0-1-.5-2.2-1.7-2.2-1.3 0-1.9 1.2-1.9 2.3z"/><path d="m104 2.3v2.3h2.8v-2.3h1v5.8h-1v-2.6h-2.8v2.6h-1v-5.8z"/><path d="m113.4 2.3v.8h-1.8v5h-1v-5h-1.8v-.8z"/><path d="m112.8 9.6c.3-.7.6-2 .7-2.9l1.2-.1c-.3 1-.8 2.4-1.1 2.9z"/><path d="m119 4.7h.5c.9 0 1.5-.4 1.5-.9s-.5-.8-1.1-.8c-.5 0-1 .2-1.4.4l-.3-.6c.6-.4 1.3-.5 1.9-.5.9 0 2 .4 2 1.5 0 .7-.7 1.2-1.3 1.3.9.1 1.6.6 1.6 1.5 0 1.3-1.3 1.7-2.5 1.7-.7 0-1.4-.2-1.9-.5l.3-.7c.4.2 1 .4 1.5.4.9 0 1.4-.4 1.4-1 0-.8-.8-1-1.7-1h-.5z"/><path d="m127.8 6.7c0 .5 0 1 .1 1.4h-1l-.1-.7c-.3.5-.9.9-1.8.9-1.2 0-1.8-.8-1.8-1.7 0-1.4 1.2-2.2 3.5-2.2v-.1c0-.5-.1-1.3-1.3-1.3-.5 0-1.1.2-1.5.4l-.2-.7c.5-.3 1.2-.5 1.9-.5 1.8 0 2.2 1.2 2.2 2.4zm-1.1-1.6c-1.2 0-2.5.2-2.5 1.3 0 .7.5 1 1 1 .8 0 1.2-.5 1.4-1 0-.1.1-.2.1-.3z"/><path d="m133.9 2.3v5.8h-1v-5h-2v1.5c0 1.6-.2 2.7-.9 3.2-.3.2-.6.4-1.2.4l-.1-.8c.2 0 .4-.1.6-.2.5-.4.6-1.2.6-2.5v-2.4z"/><path d="m140.9 5.1c0 2.1-1.5 3.1-2.9 3.1-1.6 0-2.8-1.2-2.8-3 0-1.9 1.3-3.1 2.9-3.1 1.7 0 2.8 1.3 2.8 3zm-4.6.1c0 1.3.7 2.2 1.8 2.2 1 0 1.8-.9 1.8-2.3 0-1-.5-2.2-1.7-2.2s-1.9 1.2-1.9 2.3z"/><path d="m145.8 2.3v.9h-2.5v5h-1v-5.9z"/><path d="m147.7 2.3v2.4c0 .9 0 1.5-.1 2.3.3-.7.6-1.1.9-1.8l1.8-3h1.2v5.8h-1v-2.4c0-.9 0-1.4.1-2.4-.4.7-.6 1.2-1 1.8-.6.9-1.2 2-1.8 3h-1.2v-5.7z"/><path d="m152.7 9.6c.3-.7.6-2 .7-2.9l1.2-.1c-.3 1-.8 2.4-1.1 2.9z"/><path d="m163.7 5.1c0 2.1-1.5 3.1-2.9 3.1-1.6 0-2.8-1.2-2.8-3 0-1.9 1.3-3.1 2.9-3.1 1.7 0 2.8 1.3 2.8 3zm-4.6.1c0 1.3.7 2.2 1.8 2.2 1 0 1.8-.9 1.8-2.3 0-1-.5-2.2-1.7-2.2-1.4 0-1.9 1.2-1.9 2.3z"/><path d="m168.6 2.3v.9h-2.6v5h-1v-5.9z"/><path d="m169.6 4.2c0-.7 0-1.3 0-1.9h.9v1c.4-.7 1.1-1.1 2.1-1.1 1.4 0 2.5 1.2 2.5 3 0 2.1-1.3 3.1-2.6 3.1-.8 0-1.4-.3-1.8-.9v3.2h-1v-6.4zm1 1.5v.4c.2.7.8 1.2 1.6 1.2 1.1 0 1.8-.9 1.8-2.2 0-1.2-.6-2.2-1.7-2.2-.7 0-1.4.5-1.6 1.3 0 .1-.1.3-.1.4z"/><path d="m180.5 6.7c0 .5 0 1 .1 1.4h-1l-.1-.7c-.3.5-.9.9-1.8.9-1.2 0-1.8-.8-1.8-1.7 0-1.4 1.2-2.2 3.5-2.2v-.1c0-.5-.1-1.3-1.3-1.3-.5 0-1.1.2-1.5.4l-.2-.7c.5-.3 1.2-.5 1.9-.5 1.8 0 2.2 1.2 2.2 2.4zm-1.1-1.6c-1.2 0-2.5.2-2.5 1.3 0 .7.5 1 1 1 .8 0 1.2-.5 1.4-1 0-.1.1-.2.1-.3z"/><path d="m183.2 2.3v2.3h2.8v-2.3h1v5.8h-1v-2.6h-2.8v2.6h-1v-5.8z"/><path d="m189.7 2.3v2.4c0 .9 0 1.5-.1 2.3.3-.7.6-1.1.9-1.8l1.8-3h1.2v5.8h-1v-2.4c0-.9 0-1.4.1-2.4-.4.7-.6 1.2-1 1.8-.6.9-1.2 2-1.8 3h-1.2v-5.7z"/><path d="m196.2 2.3v2c0 .7.3 1.2 1.2 1.2.5 0 .9-.2 1.2-.4v-2.8h1v5.9h-1v-2.4c-.4.3-1 .4-1.6.4-1.1 0-1.9-.6-1.9-1.9v-2z"/><path d="m202 5.4c0 1.4.9 2 2 2 .8 0 1.2-.1 1.6-.3l.2.8c-.4.2-1 .4-1.9.4-1.8 0-2.9-1.2-2.9-2.9s1-3.1 2.7-3.1c1.9 0 2.4 1.7 2.4 2.7v.5h-4.1zm3.1-.8c0-.7-.3-1.7-1.5-1.7-1.1 0-1.5 1-1.6 1.7z"/><path d="m208.4 2.3v2.3h2.8v-2.3h1v5.8h-1v-2.6h-2.8v2.6h-1v-5.8z"/><path d="m214.9 2.3v2.4c0 .9 0 1.5-.1 2.3.3-.7.6-1.1.9-1.8l1.8-3h1.2v5.8h-1v-2.4c0-.9 0-1.4.1-2.4-.4.7-.6 1.2-1 1.8-.6.9-1.2 2-1.8 3h-1v-5.7z"/><path d="m224.9 8.1h-1v-2.5h-.8c-.4 0-.7.1-1 .3-.4.3-.6 1.1-.8 1.6-.1.2-.2.3-.2.5h-1.1c.1-.2.3-.4.4-.7.3-.6.4-1.3.9-1.8.2-.2.4-.3.7-.3-.8-.1-1.5-.6-1.5-1.4 0-.6.3-1 .8-1.3s1.2-.4 1.9-.4 1.4.1 1.9.1v5.9zm-1-5.1c-.3 0-.5-.1-.9-.1-.7 0-1.6.2-1.6 1 0 .7.9 1 1.5 1h.9v-1.9z"/><path d="m226 9.6c.3-.7.6-2 .7-2.9l1.2-.1c-.3 1-.8 2.4-1.1 2.9z"/><path d="m5.7 19.5c0 2.1-1.5 3.1-2.9 3.1-1.6 0-2.8-1.2-2.8-3 0-1.9 1.3-3.1 2.9-3.1s2.8 1.3 2.8 3zm-4.6.1c0 1.3.7 2.2 1.8 2.2 1 0 1.8-.9 1.8-2.3 0-1-.5-2.2-1.7-2.2-1.4 0-1.9 1.2-1.9 2.3z"/><path d="m10.8 16.7v.8h-1.8v5h-1v-5h-1.8v-.8z"/><path d="m15.7 22.3c-.3.1-.9.3-1.7.3-1.8 0-2.9-1.2-2.9-3s1.2-3.1 3.1-3.1c.6 0 1.2.2 1.5.3l-.2.8c-.3-.1-.6-.3-1.2-.3-1.3 0-2.1 1-2.1 2.2 0 1.3.9 2.2 2 2.2.6 0 1-.2 1.3-.3z"/><path d="m17.5 16.7 1.3 3.4c.1.4.3.8.4 1.2.1-.3.2-.8.4-1.2l1.2-3.4h1.1l-1.6 4.1c-.8 2-1.3 3-2 3.6-.5.5-1 .6-1.3.7l-.3-.9c.3-.1.6-.3.9-.5s.6-.6.9-1.2c0-.1.1-.2.1-.3s0-.1-.1-.3l-2.1-5.3h1.1z"/><path d="m27 16.7v.8h-1.8v5h-1v-5h-1.8v-.8z"/><path d="m31.9 22.3c-.3.1-.9.3-1.7.3-1.8 0-2.9-1.2-2.9-3s1.2-3.1 3.1-3.1c.6 0 1.2.2 1.5.3l-.2.8c-.3-.1-.6-.3-1.2-.3-1.3 0-2.1 1-2.1 2.2 0 1.3.9 2.2 2 2.2.6 0 1-.2 1.3-.3z"/><path d="m37.2 16.7v.8h-1.8v5h-1v-5h-1.8v-.8z"/><path d="m38.1 16.8c.4-.1 1.2-.1 1.8-.1 1 0 2.6.2 2.6 1.5 0 .7-.6 1.2-1.2 1.3.9.1 1.5.6 1.5 1.4 0 1.5-1.9 1.7-3.1 1.7-.6 0-1.3 0-1.6-.1zm1 5h.9c.7 0 1.8-.2 1.8-1s-.8-1-1.8-1h-.8v2zm.1-2.7h.8c.8 0 1.6-.2 1.6-.9 0-.6-.5-.9-1.6-.9-.3 0-.6 0-.8 0z"/><path d="m45.1 16.7v2.4c0 .9 0 1.5-.1 2.3.3-.7.6-1.1.9-1.8l1.8-3h1.2v5.8h-1v-2.4c0-.9 0-1.4.1-2.4-.4.7-.6 1.2-1 1.8-.6.9-1.2 2-1.8 3h-1.2v-5.8h1.1z"/><path d="m51.4 19.8c0 1.4.9 2 2 2 .8 0 1.2-.1 1.6-.3l.2.8c-.4.2-1 .4-1.9.4-1.8 0-2.9-1.2-2.9-2.9s1-3.1 2.7-3.1c1.9 0 2.4 1.7 2.4 2.7v.5h-4.1zm3.1-.8c0-.7-.3-1.7-1.5-1.7-1.1 0-1.5 1-1.6 1.7z"/><path d="m63.3 16.7v.8h-1.8v5h-1v-5h-1.8v-.8z"/><path d="m64.7 19.8c0 1.4.9 2 2 2 .8 0 1.2-.1 1.6-.3l.2.8c-.4.2-1 .4-1.9.4-1.8 0-2.9-1.2-2.9-2.9s1-3.1 2.7-3.1c1.9 0 2.4 1.7 2.4 2.7v.5h-4.1zm3.1-.8c0-.7-.3-1.7-1.5-1.7-1.1 0-1.5 1-1.6 1.7z"/><path d="m70.5 16.7.8 1.2c.2.3.4.6.6.9.2-.3.4-.6.6-1l.8-1.2h1.1l-2 2.8 2 3h-1.2l-.9-1.3c-.2-.3-.4-.7-.6-1-.2.4-.4.7-.6 1l-.8 1.3h-1.2l2.1-3-2-2.8h1.3z"/><path d="m76 22.6c-.4 0-.7-.3-.7-.8 0-.4.3-.8.7-.8s.7.3.7.8c.1.5-.2.8-.7.8z"/><path d="m85.9 19.5c0 2.1-1.5 3.1-2.9 3.1-1.6 0-2.8-1.2-2.8-3 0-1.9 1.3-3.1 2.9-3.1s2.8 1.3 2.8 3zm-4.6.1c0 1.3.7 2.2 1.8 2.2 1 0 1.8-.9 1.8-2.3 0-1-.5-2.2-1.7-2.2-1.4 0-1.9 1.2-1.9 2.3z"/><path d="m91.6 14.7c-.3.1-.8.2-1.2.3-.9.1-1.6.5-2.1 1.1-.4.5-.6 1.3-.6 1.9.4-.8 1.2-1.3 2-1.3 1.4 0 2.5 1 2.5 2.9s-1 3.1-2.7 3.1c-2 0-2.7-2-2.7-3.9 0-1.3.3-2.4.9-3.2s1.4-1.2 2.5-1.4c.5-.1 1-.2 1.4-.3zm-.5 4.9c0-.9-.4-2.2-1.6-2.2-.6 0-1.1.3-1.3.8-.2.3-.3.8-.3 1.2 0 1 .5 2.4 1.6 2.4 1.2 0 1.6-1.1 1.6-2.2z"/><path d="m97.7 22.3c-.3.1-.9.3-1.7.3-1.8 0-2.9-1.2-2.9-3s1.2-3.1 3.1-3.1c.6 0 1.2.2 1.5.3l-.2.8c-.3-.1-.6-.3-1.2-.3-1.3 0-2.1 1-2.1 2.2 0 1.3.9 2.2 2 2.2.6 0 1-.2 1.3-.3z"/><path d="m103.5 16.7v5.8h-1v-5h-2v1.5c0 1.6-.2 2.7-.9 3.2-.3.2-.6.4-1.2.4l-.1-.8c.2 0 .4-.1.6-.2.5-.4.6-1.2.6-2.5v-2.3h4z"/><path d="m105.6 16.7 1.3 3.4c.1.4.3.8.4 1.2.1-.3.2-.8.4-1.2l1.2-3.4h1.1l-1.6 4.1c-.8 2-1.3 3-2 3.6-.5.5-1 .6-1.3.7l-.3-.9c.3-.1.6-.3.9-.5s.6-.6.9-1.2c0-.1.1-.2.1-.3s0-.1-.1-.3l-2.1-5.3h1.1z"/><path d="m111.5 16.7 1.9 2.5h.2v-2.5h1v2.5h.2l1.9-2.5h1.2l-2.3 2.6c.9.1 1.4.6 1.7 1.5.2.6.4 1.2.6 1.6h-.9c-.2-.3-.4-.8-.5-1.3-.4-.9-.9-1.2-1.7-1.2h-.2v2.6h-1v-2.6h-.2c-.8 0-1.3.3-1.7 1.2-.2.5-.3 1-.6 1.3h-1c.2-.5.4-1.1.6-1.6.4-.9.9-1.5 1.8-1.5l-2.3-2.6z"/><path d="m120 16.7v2.4c0 .9 0 1.5-.1 2.3.3-.7.6-1.1.9-1.8l1.8-3h1.2v5.8h-1v-2.4c0-.9 0-1.4.1-2.4-.4.7-.6 1.2-1 1.8-.6.9-1.2 2-1.8 3h-1.1v-5.8h1z"/><path d="m125.6 16.8c.4-.1 1.2-.1 1.8-.1 1 0 2.6.2 2.6 1.5 0 .7-.6 1.2-1.2 1.3.9.1 1.5.6 1.5 1.4 0 1.5-1.9 1.7-3.1 1.7-.6 0-1.3 0-1.6-.1zm1 5h.9c.7 0 1.8-.2 1.8-1s-.8-1-1.8-1h-.8v2zm0-2.7h.8c.8 0 1.6-.2 1.6-.9 0-.6-.5-.9-1.6-.9-.3 0-.6 0-.8 0z"/><path d="m135.7 21.1c0 .5 0 1 .1 1.4h-1l-.1-.7c-.3.5-.9.9-1.8.9-1.2 0-1.8-.8-1.8-1.7 0-1.4 1.2-2.2 3.5-2.2v-.1c0-.5-.1-1.3-1.3-1.3-.5 0-1.1.2-1.5.4l-.2-.7c.5-.3 1.2-.5 1.9-.5 1.8 0 2.2 1.2 2.2 2.4zm-1-1.6c-1.2 0-2.5.2-2.5 1.3 0 .7.5 1 1 1 .8 0 1.2-.5 1.4-1 0-.1.1-.2.1-.3z"/><path d="m138.4 16.7v2.3h2.8v-2.3h1v5.8h-1v-2.6h-2.8v2.6h-1v-5.8z"/><path d="m144.9 16.7v2.4c0 .9 0 1.5-.1 2.3.3-.7.6-1.1.9-1.8l1.8-3h1.2v5.8h-1v-2.4c0-.9 0-1.4.1-2.4-.4.7-.6 1.2-1 1.8-.6.9-1.2 2-1.8 3h-1.2v-5.8h1.1z"/><path d="m154.9 22.5h-1v-2.5h-.8c-.4 0-.7.1-1 .3-.4.3-.6 1.1-.8 1.6-.1.2-.2.3-.2.5h-1.1c.1-.2.3-.4.4-.7.3-.6.4-1.3.9-1.8.2-.2.4-.3.7-.3-.8-.1-1.5-.6-1.5-1.4 0-.6.3-1 .8-1.3s1.2-.4 1.9-.4 1.4.1 1.9.1v5.9zm-1.1-5.1c-.3 0-.5-.1-.9-.1-.7 0-1.6.2-1.6 1 0 .7.9 1 1.5 1h.9v-1.9z"/><path d="m155.9 24c.3-.7.6-2 .7-2.9l1.2-.1c-.3 1-.8 2.4-1.1 2.9z"/><path d="m162.6 16.7v2.4c0 .9 0 1.5-.1 2.3.3-.7.6-1.1.9-1.8l1.8-3h1.2v5.8h-1v-2.4c0-.9 0-1.4.1-2.4-.4.7-.6 1.2-1 1.8-.6.9-1.2 2-1.8 3h-1.2v-5.8h1.1z"/><path d="m172.4 22.3c-.3.1-.9.3-1.7.3-1.8 0-2.9-1.2-2.9-3s1.2-3.1 3.1-3.1c.6 0 1.2.2 1.5.3l-.2.8c-.3-.1-.6-.3-1.2-.3-1.3 0-2.1 1-2.1 2.2 0 1.3.9 2.2 2 2.2.6 0 1-.2 1.3-.3z"/><path d="m178.4 16.7v5.8h-1.1v-5h-2.7v5h-1v-5.8z"/><path d="m185.4 19.5c0 2.1-1.5 3.1-2.9 3.1-1.6 0-2.8-1.2-2.8-3 0-1.9 1.3-3.1 2.9-3.1 1.7 0 2.8 1.3 2.8 3zm-4.6.1c0 1.3.7 2.2 1.8 2.2 1 0 1.8-.9 1.8-2.3 0-1-.5-2.2-1.7-2.2-1.4 0-1.9 1.2-1.9 2.3z"/><path d="m191.1 16.7v5.8h-1v-5h-2v1.5c0 1.6-.2 2.7-.9 3.2-.3.2-.6.4-1.2.4l-.1-.8c.2 0 .4-.1.6-.2.5-.4.6-1.2.6-2.5v-2.3h4z"/><path d="m193.9 16.7v2c.3 0 .6-.1 1-.1 1.3 0 2.7.4 2.7 2 0 .6-.2 1-.6 1.3-.6.5-1.7.7-2.5.7-.6 0-1.1 0-1.6-.1v-5.8zm0 5.1h.8c.8 0 1.8-.3 1.8-1.2 0-1-1.1-1.2-1.8-1.2-.3 0-.5 0-.8.1z"/><path d="m199.3 19.1h.5c.9 0 1.5-.4 1.5-.9s-.5-.8-1.1-.8c-.5 0-1 .2-1.4.4l-.3-.6c.6-.4 1.3-.5 1.9-.5.9 0 2 .4 2 1.5 0 .7-.7 1.2-1.3 1.3.9.1 1.6.6 1.6 1.5 0 1.3-1.3 1.7-2.5 1.7-.7 0-1.4-.2-1.9-.5l.3-.7c.4.2 1 .4 1.5.4.9 0 1.4-.4 1.4-1 0-.8-.8-1-1.7-1h-.5z"/><path d="m209.3 19.5c0 2.1-1.5 3.1-2.9 3.1-1.6 0-2.8-1.2-2.8-3 0-1.9 1.3-3.1 2.9-3.1s2.8 1.3 2.8 3zm-4.6.1c0 1.3.7 2.2 1.8 2.2 1 0 1.8-.9 1.8-2.3 0-1-.5-2.2-1.7-2.2-1.4 0-1.9 1.2-1.9 2.3z"/><path d="m210.6 16.8c.4-.1 1.2-.1 1.8-.1 1 0 2.6.2 2.6 1.5 0 .7-.6 1.2-1.2 1.3.9.1 1.5.6 1.5 1.4 0 1.5-1.9 1.7-3.1 1.7-.6 0-1.3 0-1.6-.1zm1 5h.9c.7 0 1.8-.2 1.8-1s-.8-1-1.8-1h-.8v2zm0-2.7h.8c.8 0 1.6-.2 1.6-.9 0-.6-.5-.9-1.6-.9-.3 0-.6 0-.8 0z"/><path d="m220.7 21.1c0 .5 0 1 .1 1.4h-1l-.1-.7c-.3.5-.9.9-1.8.9-1.2 0-1.8-.8-1.8-1.7 0-1.4 1.2-2.2 3.5-2.2v-.1c0-.5-.1-1.3-1.3-1.3-.5 0-1.1.2-1.5.4l-.2-.7c.5-.3 1.2-.5 1.9-.5 1.8 0 2.2 1.2 2.2 2.4zm-1-1.6c-1.2 0-2.5.2-2.5 1.3 0 .7.5 1 1 1 .8 0 1.2-.5 1.4-1 0-.1.1-.2.1-.3z"/><path d="m223.4 16.7v2.3h2.8v-2.3h1v5.8h-1v-2.6h-2.8v2.6h-1v-5.8z"/><path d="m229.9 16.7v2.4c0 .9 0 1.5-.1 2.3.3-.7.6-1.1.9-1.8l1.8-3h1.2v5.8h-1v-2.4c0-.9 0-1.4.1-2.4-.4.7-.6 1.2-1 1.8-.6.9-1.2 2-1.8 3h-1.2v-5.8h1.1z"/><path d="m236.2 19.8c0 1.4.9 2 2 2 .8 0 1.2-.1 1.6-.3l.2.8c-.4.2-1 .4-1.9.4-1.8 0-2.9-1.2-2.9-2.9s1-3.1 2.7-3.1c1.9 0 2.4 1.7 2.4 2.7v.5h-4.1zm3.1-.8c0-.7-.3-1.7-1.5-1.7-1.1 0-1.5 1-1.6 1.7z"/><path d="m244.1 16.8c.4-.1 1.2-.1 1.8-.1 1 0 2.6.2 2.6 1.5 0 .7-.6 1.2-1.2 1.3.9.1 1.5.6 1.5 1.4 0 1.5-1.9 1.7-3.1 1.7-.6 0-1.3 0-1.6-.1zm1 5h.9c.7 0 1.8-.2 1.8-1s-.8-1-1.8-1h-.8v2zm0-2.7h.8c.8 0 1.6-.2 1.6-.9 0-.6-.5-.9-1.6-.9-.3 0-.6 0-.8 0z"/><path d="m256.6 16.7v.8h-1.8v5h-1v-5h-1.8v-.8z"/><path d="m261.5 21.1c0 .5 0 1 .1 1.4h-1l-.1-.7c-.3.5-.9.9-1.8.9-1.2 0-1.8-.8-1.8-1.7 0-1.4 1.2-2.2 3.5-2.2v-.1c0-.5-.1-1.3-1.3-1.3-.5 0-1.1.2-1.5.4l-.2-.7c.5-.3 1.2-.5 1.9-.5 1.8 0 2.2 1.2 2.2 2.4zm-1-1.6c-1.2 0-2.5.2-2.5 1.3 0 .7.5 1 1 1 .8 0 1.2-.5 1.4-1 0-.1.1-.2.1-.3z"/><path d="m264.3 16.7v2.5h.3l2.2-2.5h1.3l-2.5 2.6c.9.1 1.5.7 2 1.8.2.4.4.9.6 1.4h-1.1c-.2-.3-.4-.7-.5-1.2-.4-.9-.9-1.4-1.9-1.4h-.2v2.6h-1v-5.8z"/><path d="m273.1 22.3c-.3.1-.9.3-1.7.3-1.8 0-2.9-1.2-2.9-3s1.2-3.1 3.1-3.1c.6 0 1.2.2 1.5.3l-.2.8c-.3-.1-.6-.3-1.2-.3-1.3 0-2.1 1-2.1 2.2 0 1.3.9 2.2 2 2.2.6 0 1-.2 1.3-.3z"/><path d="m275.3 16.7v2.4c0 .9 0 1.5-.1 2.3.3-.7.6-1.1.9-1.8l1.8-3h1.2v5.8h-1v-2.4c0-.9 0-1.4.1-2.4-.4.7-.6 1.2-1 1.8-.6.9-1.2 2-1.8 3h-1.2v-5.8h1.1z"/><path d="m20.6 31.1v2.4c0 .9 0 1.5-.1 2.3.3-.7.6-1.1.9-1.8l1.8-3h1.2v5.8h-1v-2.5c0-.9 0-1.4.1-2.4-.4.7-.6 1.2-1 1.8-.6.9-1.2 2-1.8 3h-1.2v-5.8h1.1z"/><path d="m33.4 31.1v5h.6l-.1 2.6h-.8v-1.8h-4v1.8h-.8v-2.6h.5c.3-.4.4-.8.6-1.2.2-.7.3-1.5.3-2.3v-1.5zm-3 1.7c0 .8-.1 1.5-.3 2.2-.1.4-.3.8-.5 1.1h2.7v-4.2h-1.9z"/><path d="m35.2 33c0-.7 0-1.3 0-1.9h.9v1c.4-.7 1.1-1.1 2.1-1.1 1.4 0 2.5 1.2 2.5 3 0 2.1-1.3 3.1-2.6 3.1-.8 0-1.4-.3-1.8-.9v3.2h-1v-6.4zm1.1 1.5v.4c.2.7.8 1.2 1.6 1.2 1.1 0 1.8-.9 1.8-2.2 0-1.2-.6-2.2-1.7-2.2-.7 0-1.4.5-1.6 1.3 0 .1-.1.3-.1.4z"/><path d="m42.3 31.1 1.3 3.4c.1.4.3.8.4 1.2.1-.3.2-.8.4-1.2l1.2-3.4h1.1l-1.7 4.1c-.8 2-1.3 3-2 3.6-.5.5-1 .6-1.3.7l-.3-.9c.3-.1.6-.3.9-.5s.6-.6.9-1.2c0-.1.1-.2.1-.3s0-.1-.1-.3l-2.1-5.3h1.2z"/><path d="m51.1 31.1v.9h-2.5v5h-1v-5.8h3.5z"/><path d="m53.1 31.1v2.4c0 .9 0 1.5-.1 2.3.3-.7.6-1.1.9-1.8l1.8-3h1.3v5.8h-1v-2.5c0-.9 0-1.4.1-2.4-.4.7-.6 1.2-1 1.8-.6.9-1.2 2-1.8 3h-1.2v-5.8h1z"/><path d="m59.4 34.2c0 1.4.9 2 2 2 .8 0 1.2-.1 1.6-.3l.2.8c-.4.2-1 .4-1.9.4-1.8 0-2.9-1.2-2.9-2.9s1-3.1 2.7-3.1c1.9 0 2.4 1.7 2.4 2.7v.5h-4.1zm3-.8c0-.7-.3-1.7-1.5-1.7-1.1 0-1.5 1-1.6 1.7z"/><path d="m71.8 31.1v5h.6l-.1 2.6h-.8v-1.8h-4v1.8h-.8v-2.6h.5c.3-.4.4-.8.6-1.2.2-.7.3-1.5.3-2.3v-1.5zm-2.9 1.7c0 .8-.1 1.5-.3 2.2-.1.4-.3.8-.5 1.1h2.7v-4.2h-1.9z"/><path d="m77.8 35.5c0 .5 0 1 .1 1.4h-1l-.1-.7c-.4.4-1 .8-1.8.8-1.2 0-1.8-.8-1.8-1.7 0-1.4 1.2-2.2 3.5-2.2v-.1c0-.5-.1-1.3-1.3-1.3-.5 0-1.1.2-1.5.4l-.2-.7c.5-.3 1.2-.5 1.9-.5 1.8 0 2.2 1.2 2.2 2.4zm-1.1-1.6c-1.2 0-2.5.2-2.5 1.3 0 .7.5 1 1 1 .8 0 1.2-.5 1.4-1 0-.1.1-.2.1-.3z"/><path d="m80.5 31.1v2.3h2.8v-2.3h1v5.8h-1v-2.6h-2.8v2.6h-1v-5.8z"/><path d="m87 31.1v2.3h2.8v-2.3h1v5.8h-1v-2.6h-2.8v2.6h-1v-5.8z"/><path d="m93.6 31.1v2c.2 0 .6-.1.9-.1 1.2 0 2.5.5 2.5 1.9 0 .6-.2 1-.6 1.3-.6.5-1.6.7-2.3.7-.6 0-1.1 0-1.6-.1v-5.8h1.1zm0 5.1h.7c.8 0 1.7-.3 1.7-1.2s-.8-1.2-1.6-1.2c-.3 0-.6 0-.8.1zm5.2-5.1v5.8h-1v-5.8z"/><path d="m101.1 34.2c0 1.4.9 2 2 2 .8 0 1.2-.1 1.6-.3l.2.8c-.4.2-1 .4-1.9.4-1.8 0-2.9-1.2-2.9-2.9s1-3.1 2.7-3.1c1.9 0 2.4 1.7 2.4 2.7v.5h-4.1zm3.1-.8c0-.7-.3-1.7-1.5-1.7-1.1 0-1.5 1-1.6 1.7z"/><path d="m110.1 31.1v2.4c0 .9 0 1.5-.1 2.3.3-.7.6-1.1.9-1.8l1.8-3h1.2v5.8h-1v-2.5c0-.9 0-1.4.1-2.4-.4.7-.6 1.2-1 1.8-.6.9-1.2 2-1.8 3h-1.2v-5.8h1.1z"/><path d="m116.2 33.5h.5c.9 0 1.5-.4 1.5-.9s-.5-.8-1.1-.8c-.5 0-1 .2-1.4.4l-.3-.6c.6-.4 1.3-.5 1.9-.5.9 0 2 .4 2 1.5 0 .7-.7 1.2-1.3 1.3.9.1 1.6.6 1.6 1.5 0 1.3-1.3 1.7-2.5 1.7-.7 0-1.4-.2-1.9-.5l.3-.7c.4.2 1 .4 1.5.4.9 0 1.4-.4 1.4-1 0-.8-.8-1-1.7-1h-.5z"/><path d="m128.7 33.9c0 2.1-1.5 3.1-2.9 3.1-1.6 0-2.8-1.2-2.8-3 0-1.9 1.3-3.1 2.9-3.1 1.7 0 2.8 1.3 2.8 3zm-4.6.1c0 1.3.7 2.2 1.8 2.2 1 0 1.8-.9 1.8-2.3 0-1-.5-2.2-1.7-2.2-1.3 0-1.9 1.2-1.9 2.3z"/><path d="m133.5 28.4v2.6c1.7.1 2.9 1.2 2.9 3 0 1.9-1.3 2.9-2.9 3v2.3h-1v-2.3c-1.7-.1-2.9-1.2-2.9-3 0-1.9 1.3-2.9 2.9-3.1v-2.6h1zm-1 3.3c-1.2.2-1.9 1.1-1.9 2.3s.7 2.1 1.9 2.3zm1 4.6c1.2-.2 1.9-1.1 1.9-2.3s-.7-2.1-1.9-2.3z"/><path d="m138.7 31.1v2.4c0 .9 0 1.5-.1 2.3.3-.7.6-1.1.9-1.8l1.8-3h1.2v5.8h-1v-2.5c0-.9 0-1.4.1-2.4-.4.7-.6 1.2-1 1.8-.6.9-1.2 2-1.8 3h-1.2v-5.8h1.1z"/><path d="m145.4 31.1v5h2.7v-5h1v5h.6l-.1 2.6h-.8v-1.8h-4.4v-5.8z"/><path d="m152 31.1v2.4c0 .9 0 1.5-.1 2.3.3-.7.6-1.1.9-1.8l1.8-3h1.2v5.8h-1v-2.5c0-.9 0-1.4.1-2.4-.4.7-.6 1.2-1 1.8-.6.9-1.2 2-1.8 3h-1.1v-5.8h1z"/><path d="m161.7 35.5c0 .5 0 1 .1 1.4h-1l-.1-.7c-.3.5-.9.9-1.8.9-1.2 0-1.8-.8-1.8-1.7 0-1.4 1.2-2.2 3.5-2.2v-.1c0-.5-.1-1.3-1.3-1.3-.5 0-1.1.2-1.5.4l-.2-.7c.5-.3 1.2-.5 1.9-.5 1.8 0 2.2 1.2 2.2 2.4zm-1-1.6c-1.2 0-2.5.2-2.5 1.3 0 .7.5 1 1 1 .8 0 1.2-.5 1.4-1 0-.1.1-.2.1-.3z"/><path d="m167.9 31.1v5.8h-1v-5h-2v1.5c0 1.6-.2 2.7-.9 3.2-.3.2-.6.4-1.2.4l-.1-.8c.2 0 .4-.1.6-.2.5-.4.6-1.2.6-2.5v-2.3h4z"/><path d="m170.6 31.1v2c.3 0 .6-.1 1-.1 1.3 0 2.7.4 2.7 2 0 .6-.2 1-.6 1.3-.6.5-1.7.7-2.5.7-.6 0-1.1 0-1.6-.1v-5.8zm0 5.1h.8c.8 0 1.8-.3 1.8-1.2 0-1-1.1-1.2-1.8-1.2-.3 0-.5 0-.8.1z"/><path d="m176.6 31.1v2.3h2.8v-2.3h1v5.8h-1v-2.6h-2.8v2.6h-1v-5.8z"/><path d="m183.1 31.1v2c.2 0 .6-.1.9-.1 1.2 0 2.5.5 2.5 1.9 0 .6-.2 1-.6 1.3-.6.5-1.6.7-2.3.7-.6 0-1.1 0-1.6-.1v-5.8h1.1zm0 5.1h.7c.8 0 1.7-.3 1.7-1.2s-.8-1.2-1.6-1.2c-.3 0-.6 0-.8.1zm5.3-5.1v5.8h-1v-5.8z"/><path d="m190.6 31.1.8 1.2c.2.3.4.6.6.9.2-.3.4-.6.6-1l.8-1.2h1.1l-2 2.8 2 3h-1.2l-.9-1.3c-.2-.3-.4-.7-.6-1-.2.4-.4.7-.6 1l-.8 1.3h-1.2l2.1-3-2-2.8h1.3z"/><path d="m199.2 31.1v2.4c0 .9 0 1.5-.1 2.3.3-.7.6-1.1.9-1.8l1.8-3h1.2v5.8h-1v-2.5c0-.9 0-1.4.1-2.4-.4.7-.6 1.2-1 1.8-.6.9-1.2 2-1.8 3h-1.2v-5.8h1.1z"/><path d="m209 36.7c-.3.1-.9.3-1.7.3-1.8 0-2.9-1.2-2.9-3s1.2-3.1 3.1-3.1c.6 0 1.2.2 1.5.3l-.2.8c-.3-.1-.6-.3-1.2-.3-1.3 0-2.1 1-2.1 2.2 0 1.3.9 2.2 2 2.2.6 0 1-.2 1.3-.3z"/><path d="m214.3 31.1v.8h-1.8v5h-1v-5h-1.8v-.8z"/><path d="m220.3 33.9c0 2.1-1.5 3.1-2.9 3.1-1.6 0-2.8-1.2-2.8-3 0-1.9 1.3-3.1 2.9-3.1 1.7 0 2.8 1.3 2.8 3zm-4.6.1c0 1.3.7 2.2 1.8 2.2 1 0 1.8-.9 1.8-2.3 0-1-.5-2.2-1.7-2.2-1.3 0-1.9 1.2-1.9 2.3z"/><path d="m222.5 31.1v2c0 .7.3 1.2 1.2 1.2.5 0 .9-.2 1.2-.4v-2.8h1v5.9h-1v-2.4c-.4.3-1 .4-1.6.4-1.1 0-1.9-.6-1.9-1.9v-2.1h1.1z"/><path d="m228.8 31.1v2.3h2.8v-2.3h1v5.8h-1v-2.6h-2.8v2.6h-1v-5.8z"/><path d="m235.3 31.1v2.4c0 .9 0 1.5-.1 2.3.3-.7.6-1.1.9-1.8l1.8-3h1.2v5.8h-1v-2.5c0-.9 0-1.4.1-2.4-.4.7-.6 1.2-1 1.8-.6.9-1.2 2-1.8 3h-1.2v-5.8h1.1z"/><path d="m242 31.1v2.5h.3l2.2-2.5h1.3l-2.5 2.6c.9.1 1.5.7 2 1.8.2.4.4.9.6 1.4h-1.1c-.2-.3-.4-.7-.5-1.2-.4-.9-.9-1.4-1.9-1.4h-.4v2.6h-1v-5.8z"/><path d="m251.9 33.9c0 2.1-1.5 3.1-2.9 3.1-1.6 0-2.8-1.2-2.8-3 0-1.9 1.3-3.1 2.9-3.1s2.8 1.3 2.8 3zm-4.6.1c0 1.3.7 2.2 1.8 2.2 1 0 1.8-.9 1.8-2.3 0-1-.5-2.2-1.7-2.2-1.4 0-1.9 1.2-1.9 2.3z"/><path d="m253.2 31.2c.4-.1 1.2-.1 1.8-.1 1 0 2.6.2 2.6 1.5 0 .7-.6 1.2-1.2 1.3.9.1 1.5.6 1.5 1.4 0 1.5-1.9 1.7-3.1 1.7-.6 0-1.3 0-1.6-.1zm1 5h.9c.7 0 1.8-.2 1.8-1s-.8-1-1.8-1h-.8v2zm0-2.7h.8c.8 0 1.6-.2 1.6-.9 0-.6-.5-.9-1.6-.9-.3 0-.6 0-.8 0z"/><path d="m259.7 37c-.4 0-.7-.3-.7-.8 0-.4.3-.8.7-.8s.7.3.7.8-.3.8-.7.8z"/></g></svg>