<svg viewBox="0 0 87.78 10.81" xmlns="http://www.w3.org/2000/svg"><g fill="#fff"><path d="m7.38 1.54h-5.38v2.88h1.8a6.38 6.38 0 0 1 1.81.23 3.51 3.51 0 0 1 1.24.62 2.55 2.55 0 0 1 .7.94 2.9 2.9 0 0 1 .22 1.14 3.35 3.35 0 0 1 -.26 1.37 2.89 2.89 0 0 1 -.78 1 3.5 3.5 0 0 1 -1.25.68 5.52 5.52 0 0 1 -1.69.24h-3.79v-10.64h7.38zm-5.38 4.46v3.14h1.79a3.08 3.08 0 0 0 .94-.14 1.66 1.66 0 0 0 .62-.33 1.32 1.32 0 0 0 .33-.51 2 2 0 0 0 .09-.62 2.17 2.17 0 0 0 -.09-.65 1.16 1.16 0 0 0 -.33-.5 1.68 1.68 0 0 0 -.61-.32 3.57 3.57 0 0 0 -.94-.07z"/><path d="m10.73 3.1v2.81h1.37a4.11 4.11 0 0 1 1.36.2 2.44 2.44 0 0 1 .9.51 1.94 1.94 0 0 1 .5.75 2.46 2.46 0 0 1 .16.89 2.59 2.59 0 0 1 -.19 1 2.07 2.07 0 0 1 -.57.77 2.58 2.58 0 0 1 -.91.5 3.88 3.88 0 0 1 -1.23.18h-3.12v-7.61zm0 4.11v2.17h1.39a1.27 1.27 0 0 0 .94-.31 1.07 1.07 0 0 0 .31-.8 1.09 1.09 0 0 0 -.07-.4 1 1 0 0 0 -.22-.34 1.06 1.06 0 0 0 -.39-.23 1.68 1.68 0 0 0 -.58-.09zm7.55-4.11v7.59h-1.86v-7.59z"/><path d="m27.2 3.1v7.59h-1.85v-6.19h-1.9a19.85 19.85 0 0 1 -.28 2.41 9.53 9.53 0 0 1 -.45 1.71 4.56 4.56 0 0 1 -.57 1.13 3 3 0 0 1 -.68.66 2.3 2.3 0 0 1 -.75.31 3.94 3.94 0 0 1 -.77.08 1.84 1.84 0 0 1 -.61-.07c-.13-.05-.19-.11-.19-.2v-1.14h.44a1.73 1.73 0 0 0 .5-.07 1.2 1.2 0 0 0 .48-.3 2.36 2.36 0 0 0 .43-.66 5.71 5.71 0 0 0 .39-1.12 15.35 15.35 0 0 0 .31-1.71c.09-.68.16-1.48.21-2.43z"/><path d="m34 10.69a.9.9 0 0 1 -.41-.08.54.54 0 0 1 -.22-.31l-.17-.54a5.6 5.6 0 0 1 -.57.45 3.33 3.33 0 0 1 -.58.33 2.65 2.65 0 0 1 -.64.2 4.37 4.37 0 0 1 -.76.07 3.26 3.26 0 0 1 -.9-.13 2.13 2.13 0 0 1 -.71-.39 1.78 1.78 0 0 1 -.47-.64 2.29 2.29 0 0 1 -.16-.9 1.73 1.73 0 0 1 .22-.84 2.24 2.24 0 0 1 .77-.76 5.05 5.05 0 0 1 1.42-.56 10.8 10.8 0 0 1 2.18-.25v-.44a1.64 1.64 0 0 0 -.33-1.13 1.24 1.24 0 0 0 -1-.36 2.2 2.2 0 0 0 -.74.1 3.82 3.82 0 0 0 -.53.23 4.49 4.49 0 0 1 -.4.26.81.81 0 0 1 -.41.11.59.59 0 0 1 -.33-.1 1.19 1.19 0 0 1 -.22-.23l-.33-.59a4.64 4.64 0 0 1 3.23-1.19 3.3 3.3 0 0 1 1.21.22 2.7 2.7 0 0 1 .9.61 2.57 2.57 0 0 1 .56.93 3.44 3.44 0 0 1 .19 1.14v4.79zm-2.81-1.14a2.25 2.25 0 0 0 1-.2 3.22 3.22 0 0 0 .81-.62v-1.28a9.22 9.22 0 0 0 -1.36.14 3.52 3.52 0 0 0 -.87.25 1.37 1.37 0 0 0 -.48.36.83.83 0 0 0 -.14.46.78.78 0 0 0 .29.68 1.25 1.25 0 0 0 .75.21z"/><path d="m39.9 3.1h3a4.73 4.73 0 0 1 1.26.15 2.69 2.69 0 0 1 .87.38 1.56 1.56 0 0 1 .51.58 1.63 1.63 0 0 1 .17.73 2.35 2.35 0 0 1 -.06.51 1.62 1.62 0 0 1 -.68.94 1.88 1.88 0 0 1 -.7.31 3.59 3.59 0 0 1 .7.23 2.12 2.12 0 0 1 .54.36 1.46 1.46 0 0 1 .35.51 1.56 1.56 0 0 1 .13.66 1.87 1.87 0 0 1 -.25 1 2.07 2.07 0 0 1 -.65.7 2.81 2.81 0 0 1 -1 .4 4.58 4.58 0 0 1 -1.12.14h-3.07zm1.77 3.18h1.21a1.55 1.55 0 0 0 .5-.07 1.26 1.26 0 0 0 .39-.21 1 1 0 0 0 .23-.36 1 1 0 0 0 .09-.43 1.06 1.06 0 0 0 -.06-.34.8.8 0 0 0 -.2-.29 1.07 1.07 0 0 0 -.38-.21 2 2 0 0 0 -.6-.08h-1.18zm0 1.13v2h1.38a1.47 1.47 0 0 0 .95-.25 1 1 0 0 0 .34-.77 1.23 1.23 0 0 0 -.08-.39.67.67 0 0 0 -.19-.31 1 1 0 0 0 -.39-.21 2.16 2.16 0 0 0 -.62-.07z"/><path d="m50.07 3.1h7.36v1.36h-2.75v6.23h-1.86v-6.23h-2.75z"/><path d="m63.51 10.69a.9.9 0 0 1 -.41-.08.54.54 0 0 1 -.22-.31l-.17-.54a5.6 5.6 0 0 1 -.57.45 3.33 3.33 0 0 1 -.58.33 2.65 2.65 0 0 1 -.64.2 4.35 4.35 0 0 1 -.75.07 3.28 3.28 0 0 1 -.91-.13 2.13 2.13 0 0 1 -.71-.39 1.78 1.78 0 0 1 -.47-.64 2.29 2.29 0 0 1 -.16-.9 1.64 1.64 0 0 1 .23-.84 2.12 2.12 0 0 1 .76-.76 5.05 5.05 0 0 1 1.42-.56 10.8 10.8 0 0 1 2.21-.25v-.44a1.64 1.64 0 0 0 -.33-1.13 1.24 1.24 0 0 0 -1-.36 2.24 2.24 0 0 0 -.74.1 3.82 3.82 0 0 0 -.53.23 4.49 4.49 0 0 1 -.41.23.81.81 0 0 1 -.41.11.59.59 0 0 1 -.33-.1.9.9 0 0 1 -.21-.23l-.33-.59a4.59 4.59 0 0 1 3.24-1.16 3.3 3.3 0 0 1 1.21.22 2.61 2.61 0 0 1 .9.61 2.57 2.57 0 0 1 .56.93 3.44 3.44 0 0 1 .19 1.18v4.79zm-2.77-1.14a2.25 2.25 0 0 0 1-.2 3.06 3.06 0 0 0 .82-.62v-1.28a9.22 9.22 0 0 0 -1.36.14 3.52 3.52 0 0 0 -.87.25 1.37 1.37 0 0 0 -.48.36.83.83 0 0 0 -.14.46.78.78 0 0 0 .29.68 1.25 1.25 0 0 0 .74.21z"/><path d="m70.61 3.58a1 1 0 0 1 .39-.34 1 1 0 0 1 .49-.14h1.46l-1.8 2.82a2.17 2.17 0 0 1 -.38.48 1.47 1.47 0 0 1 -.47.28 1.69 1.69 0 0 1 .61.33 2.47 2.47 0 0 1 .44.55l1.8 3.13h-1.3a1.45 1.45 0 0 1 -.76-.17 1.35 1.35 0 0 1 -.46-.46l-1.13-2.06a1 1 0 0 0 -1-.54h-.69v3.27h-1.81v-7.63h1.86v3.13h.6a1 1 0 0 0 .5-.11 1 1 0 0 0 .33-.36z"/><path d="m79.31 4.71-.16.16a.39.39 0 0 1 -.23.06.49.49 0 0 1 -.28-.09l-.33-.19a2.63 2.63 0 0 0 -.44-.19 2.06 2.06 0 0 0 -.65-.08 1.9 1.9 0 0 0 -.85.17 1.68 1.68 0 0 0 -.62.5 2.25 2.25 0 0 0 -.36.78 4.21 4.21 0 0 0 -.12 1 4 4 0 0 0 .13 1.17 2.33 2.33 0 0 0 .38.79 1.65 1.65 0 0 0 .6.49 1.88 1.88 0 0 0 .8.17 2.06 2.06 0 0 0 .72-.11 2.81 2.81 0 0 0 .46-.23l.33-.24a.49.49 0 0 1 .31-.15.4.4 0 0 1 .34.17l.53.67a3.38 3.38 0 0 1 -.67.59 3.83 3.83 0 0 1 -.75.39 4.16 4.16 0 0 1 -.79.2 5.76 5.76 0 0 1 -.82.06 3.55 3.55 0 0 1 -1.34-.26 3.17 3.17 0 0 1 -1.11-.77 3.45 3.45 0 0 1 -.75-1.23 4.78 4.78 0 0 1 -.27-1.66 4.84 4.84 0 0 1 .24-1.55 3.44 3.44 0 0 1 .72-1.23 3.39 3.39 0 0 1 1.17-.82 4.06 4.06 0 0 1 1.61-.28 4 4 0 0 1 1.52.27 3.75 3.75 0 0 1 1.17.73z"/><path d="m80.85 10.7v-7.59h1.86v4.43.37s0 .27 0 .41a4 4 0 0 1 .33-.6l.14-.2.28-.52.54-.62.55-.77c.43-.61.93-1.29 1.48-2.05a1.36 1.36 0 0 1 .28-.31.6.6 0 0 1 .39-.15h1.13v7.59h-1.91v-4.43c0-.11 0-.24 0-.37s0-.27 0-.41c0 .12-.11.23-.16.33a3.18 3.18 0 0 1 -.17.27 2.12 2.12 0 0 0 -.15.2l-.35.48-.48.67c-.18.25-.37.5-.55.76l-1.48 2.05a1.6 1.6 0 0 1 -.28.31.56.56 0 0 1 -.39.15z"/></g></svg>