<svg viewBox="0 0 62.18 10.82" xmlns="http://www.w3.org/2000/svg"><g fill="#4a4a49"><path d="m7 8.75h-1.61v-7.43h-3.77v7.43h-1.62v-8.67h7z"/><path d="m11.25 2.5a3.56 3.56 0 0 1 1.25.22 2.86 2.86 0 0 1 1 .63 2.89 2.89 0 0 1 .61 1 4 4 0 0 1 0 2.63 2.85 2.85 0 0 1 -.61 1 2.86 2.86 0 0 1 -1 .63 3.35 3.35 0 0 1 -1.25.22 3.31 3.31 0 0 1 -1.25-.21 2.81 2.81 0 0 1 -1-.62 2.85 2.85 0 0 1 -.61-1 3.66 3.66 0 0 1 -.19-1.34 3.64 3.64 0 0 1 .22-1.31 2.89 2.89 0 0 1 .61-1 2.81 2.81 0 0 1 1-.63 3.52 3.52 0 0 1 1.22-.22zm0 5.2a1.32 1.32 0 0 0 1.14-.51 2.65 2.65 0 0 0 .37-1.51 2.66 2.66 0 0 0 -.37-1.52 1.3 1.3 0 0 0 -1.14-.52 1.31 1.31 0 0 0 -1.15.52 2.6 2.6 0 0 0 -.38 1.52 2.57 2.57 0 0 0 .38 1.51 1.33 1.33 0 0 0 1.15.51z"/><path d="m20.79 2.6v5.06h1.13v2.71a.45.45 0 0 1 -.12.33.41.41 0 0 1 -.3.12h-.93v-2.07h-4.57v1.65a.53.53 0 0 1 -.1.29.39.39 0 0 1 -.31.13h-.94v-3.12h.24a1.78 1.78 0 0 0 .39-.07 1 1 0 0 0 .37-.26 1.93 1.93 0 0 0 .35-.54 4.66 4.66 0 0 0 .29-.91 11.14 11.14 0 0 0 .22-1.38c.07-.54.12-1.19.16-1.94zm-3 1.13c0 .52-.09 1-.15 1.4s-.13.78-.21 1.1a5.78 5.78 0 0 1 -.26.85 3.26 3.26 0 0 1 -.3.62h2.44v-4z"/><path d="m22.85 10.76v-8.16h.9a.36.36 0 0 1 .38.27l.12.57a3 3 0 0 1 .86-.69 2.28 2.28 0 0 1 1.13-.27 2 2 0 0 1 .92.21 2.1 2.1 0 0 1 .72.61 3 3 0 0 1 .47 1 4.92 4.92 0 0 1 .16 1.34 4.4 4.4 0 0 1 -.18 1.28 3.29 3.29 0 0 1 -.53 1 2.59 2.59 0 0 1 -.8.68 2.42 2.42 0 0 1 -1.09.24 2.33 2.33 0 0 1 -.91-.15 2.23 2.23 0 0 1 -.65-.45v2.52zm2.88-7.11a1.52 1.52 0 0 0 -.79.2 2.22 2.22 0 0 0 -.61.55v2.76a1.36 1.36 0 0 0 .55.43 1.7 1.7 0 0 0 .64.13 1.48 1.48 0 0 0 .61-.13 1.19 1.19 0 0 0 .46-.38 1.91 1.91 0 0 0 .29-.66 3.6 3.6 0 0 0 .1-.92 4.77 4.77 0 0 0 -.08-.92 2 2 0 0 0 -.25-.61 1 1 0 0 0 -.4-.34 1.24 1.24 0 0 0 -.52-.11z"/><path d="m32.38 2.5a3.56 3.56 0 0 1 1.25.22 2.86 2.86 0 0 1 1 .63 2.89 2.89 0 0 1 .61 1 3.64 3.64 0 0 1 .22 1.31 3.66 3.66 0 0 1 -.26 1.34 2.85 2.85 0 0 1 -.61 1 2.86 2.86 0 0 1 -1 .63 3.35 3.35 0 0 1 -1.25.22 3.31 3.31 0 0 1 -1.25-.22 2.67 2.67 0 0 1 -1-.63 2.73 2.73 0 0 1 -.62-1 3.66 3.66 0 0 1 -.22-1.32 3.64 3.64 0 0 1 .22-1.31 2.77 2.77 0 0 1 .62-1 2.67 2.67 0 0 1 1-.63 3.52 3.52 0 0 1 1.29-.24zm0 5.2a1.32 1.32 0 0 0 1.14-.51 2.57 2.57 0 0 0 .37-1.51 2.58 2.58 0 0 0 -.37-1.52 1.52 1.52 0 0 0 -2.29 0 2.6 2.6 0 0 0 -.38 1.52 2.57 2.57 0 0 0 .38 1.51 1.33 1.33 0 0 0 1.15.51z"/><path d="m39.88 1.48a3 3 0 0 0 -1 .22 2.06 2.06 0 0 0 -.66.5 2.09 2.09 0 0 0 -.39.74 3.43 3.43 0 0 0 -.16 1 2.19 2.19 0 0 1 .85-.77 2.67 2.67 0 0 1 1.29-.3 2.57 2.57 0 0 1 1.1.22 2.22 2.22 0 0 1 .84.61 2.66 2.66 0 0 1 .53.95 4 4 0 0 1 .18 1.23 3.31 3.31 0 0 1 -.22 1.25 2.68 2.68 0 0 1 -.61.95 2.74 2.74 0 0 1 -1 .6 3.52 3.52 0 0 1 -1.25.21 3.43 3.43 0 0 1 -1.22-.21 2.4 2.4 0 0 1 -1-.7 3.52 3.52 0 0 1 -.64-1.27 6.85 6.85 0 0 1 -.23-1.9 8.11 8.11 0 0 1 .27-1.81 4 4 0 0 1 .57-1.42 3.06 3.06 0 0 1 1-1 3.63 3.63 0 0 1 1.62-.41l2.19-.17.06.77a.81.81 0 0 1 -.07.42.41.41 0 0 1 -.35.18zm-.44 6.28a1.34 1.34 0 0 0 1.15-.49 2.35 2.35 0 0 0 .41-1.44 2.32 2.32 0 0 0 -.4-1.43 1.32 1.32 0 0 0 -1.13-.49 1.44 1.44 0 0 0 -1.15.46 2.11 2.11 0 0 0 -.39 1.39 2.5 2.5 0 0 0 .37 1.49 1.32 1.32 0 0 0 1.14.51z"/><path d="m49 2.6v6.15h-1.47v-2.75h-2.4v2.75h-1.49v-6.15h1.49v2.33h2.4v-2.33z"/><path d="m53.1 2.5a2.83 2.83 0 0 1 1.07.19 2.29 2.29 0 0 1 .85.54 2.4 2.4 0 0 1 .55.88 3.1 3.1 0 0 1 .21 1.18.94.94 0 0 1 -.08.46.3.3 0 0 1 -.27.11h-3.81a2.7 2.7 0 0 0 .17.82 1.6 1.6 0 0 0 .34.57 1.51 1.51 0 0 0 .52.34 2.07 2.07 0 0 0 1.27 0 2.21 2.21 0 0 0 .46-.18l.34-.19a.67.67 0 0 1 .28-.06.29.29 0 0 1 .27.14l.43.54a2.5 2.5 0 0 1 -.55.48 3.42 3.42 0 0 1 -.64.31 4 4 0 0 1 -.68.17 5.12 5.12 0 0 1 -.67 0 3.31 3.31 0 0 1 -1.16-.17 2.59 2.59 0 0 1 -1-.63 2.9 2.9 0 0 1 -.64-1 3.93 3.93 0 0 1 -.24-1.43 3.29 3.29 0 0 1 .21-1.18 2.88 2.88 0 0 1 .58-1 2.73 2.73 0 0 1 .93-.65 3.08 3.08 0 0 1 1.26-.24zm0 1.06a1.38 1.38 0 0 0 -1 .37 1.77 1.77 0 0 0 -.47 1h2.79a1.67 1.67 0 0 0 -.08-.55 1.18 1.18 0 0 0 -.22-.38 1.27 1.27 0 0 0 -.41-.31 1.5 1.5 0 0 0 -.58-.13z"/><path d="m59.51 2.5a2.87 2.87 0 0 1 1.07.19 2.29 2.29 0 0 1 .85.54 2.53 2.53 0 0 1 .55.88 3.11 3.11 0 0 1 .2 1.18 1 1 0 0 1 -.07.46.31.31 0 0 1 -.27.11h-3.84a3.06 3.06 0 0 0 .16.82 1.78 1.78 0 0 0 .35.57 1.57 1.57 0 0 0 .51.34 2 2 0 0 0 .66.11 1.89 1.89 0 0 0 .62-.09 2.21 2.21 0 0 0 .46-.18l.34-.19a.63.63 0 0 1 .29-.08.29.29 0 0 1 .27.14l.43.54a2.75 2.75 0 0 1 -.55.48 3.42 3.42 0 0 1 -.64.31 4.23 4.23 0 0 1 -.68.17 5.12 5.12 0 0 1 -.67 0 3.27 3.27 0 0 1 -1.19-.21 2.59 2.59 0 0 1 -1-.63 2.92 2.92 0 0 1 -.65-1 4.16 4.16 0 0 1 -.23-1.43 3.52 3.52 0 0 1 .2-1.18 2.91 2.91 0 0 1 .59-1 2.73 2.73 0 0 1 .93-.65 3 3 0 0 1 1.31-.2zm0 1.06a1.42 1.42 0 0 0 -1 .37 1.76 1.76 0 0 0 -.46 1h2.79a2 2 0 0 0 -.08-.55 1.18 1.18 0 0 0 -.23-.38 1.27 1.27 0 0 0 -.41-.31 1.5 1.5 0 0 0 -.58-.13z"/></g></svg>