<svg xmlns="http://www.w3.org/2000/svg" viewBox="0 0 99.11 59.96"><title>G3_H3</title><path d="M42.33,58.44A37.41,37.41,0,0,1,31.52,60a36,36,0,0,1-13-2.23,29.22,29.22,0,0,1-9.94-6.21A27.13,27.13,0,0,1,2.23,42,31.82,31.82,0,0,1,0,30,33.21,33.21,0,0,1,2.15,17.85,26.77,26.77,0,0,1,17.85,2.19,34.74,34.74,0,0,1,30.51,0a36.92,36.92,0,0,1,6.67.57,34.08,34.08,0,0,1,5.76,1.56,25.21,25.21,0,0,1,4.85,2.41,29.15,29.15,0,0,1,4,3.13l-3.13,4.95a3,3,0,0,1-1.9,1.44,3.43,3.43,0,0,1-2.56-.59l-2.68-1.54a16.67,16.67,0,0,0-3-1.34,24.21,24.21,0,0,0-3.69-.93,26.56,26.56,0,0,0-4.73-.37,20.33,20.33,0,0,0-7.85,1.46,16.57,16.57,0,0,0-6,4.18,18.78,18.78,0,0,0-3.81,6.53A25.39,25.39,0,0,0,11.16,30a26.21,26.21,0,0,0,1.44,9,19,19,0,0,0,4,6.69A17.3,17.3,0,0,0,23,49.84a22.51,22.51,0,0,0,8.24,1.44,23.28,23.28,0,0,0,5.8-.67,27.3,27.3,0,0,0,5-1.85V38.09H34.6A2.19,2.19,0,0,1,33,37.5a2,2,0,0,1-.59-1.43V29.9H51.85V53.63A31.3,31.3,0,0,1,42.33,58.44Z" style="fill:#4a4a49"/><path d="M80.24,0a21.89,21.89,0,0,1,7.33,1.16,17,17,0,0,1,5.58,3.2,14,14,0,0,1,3.54,4.81,14.33,14.33,0,0,1,1.24,6,17.41,17.41,0,0,1-.63,4.93,11.58,11.58,0,0,1-1.82,3.71,11,11,0,0,1-2.92,2.68,17.94,17.94,0,0,1-3.92,1.83,15.26,15.26,0,0,1,7.87,5.07,13.71,13.71,0,0,1,2.6,8.56,17.55,17.55,0,0,1-1.63,7.75,16.55,16.55,0,0,1-4.38,5.65,19,19,0,0,1-6.38,3.47A24.7,24.7,0,0,1,79,60a26.45,26.45,0,0,1-7.71-1,16.71,16.71,0,0,1-5.72-3,18.14,18.14,0,0,1-4.14-4.86,32.5,32.5,0,0,1-2.92-6.66L63,42.6a5.29,5.29,0,0,1,3.27-.39,3.18,3.18,0,0,1,2.21,1.64c.49.95,1,1.88,1.6,2.8a11.45,11.45,0,0,0,2.09,2.46A10,10,0,0,0,75,50.85a10.29,10.29,0,0,0,3.91.67,11.18,11.18,0,0,0,4.47-.83,9.63,9.63,0,0,0,3.18-2.17,9,9,0,0,0,1.91-3,9.21,9.21,0,0,0,.63-3.31,15.19,15.19,0,0,0-.45-3.83,5.72,5.72,0,0,0-1.86-2.94,10.21,10.21,0,0,0-4.08-1.91,29.41,29.41,0,0,0-7.12-.69V25.72A25.58,25.58,0,0,0,81.7,25a10.37,10.37,0,0,0,3.88-1.8,6.19,6.19,0,0,0,2-2.78,10.74,10.74,0,0,0,.56-3.57q0-4.14-2.31-6.29a8.71,8.71,0,0,0-6.16-2.15A10.14,10.14,0,0,0,76.39,9a9.16,9.16,0,0,0-2.7,1.42,8.47,8.47,0,0,0-2,2.13,9.24,9.24,0,0,0-1.21,2.67,4.38,4.38,0,0,1-1.81,2.48,5,5,0,0,1-3.14.28L60.24,17A21.8,21.8,0,0,1,62.6,9.59,17.64,17.64,0,0,1,67,4.28a17.85,17.85,0,0,1,6-3.2A23.87,23.87,0,0,1,80.24,0Z" style="fill:#4a4a49"/></svg>