<svg viewBox="0 0 191.61 25.96" xmlns="http://www.w3.org/2000/svg"><g fill="#4a4a49"><path d="m6.54 1.23a1 1 0 0 1 .22-.23.42.42 0 0 1 .3-.12h.87v8.6h-1.17v-6.13c0-.16 0-.34 0-.53s0-.38.06-.59a4.68 4.68 0 0 1 -.22.5c-.08.16-.16.29-.23.41l-4 6a1.27 1.27 0 0 1 -.22.25.49.49 0 0 1 -.31.11h-.84v-8.64h1.12v6.14.54s0 .38 0 .59c.07-.18.14-.35.22-.51a3.15 3.15 0 0 1 .23-.41z"/><path d="m13.72 3.38v.82h-2.87v5.26h-1.07v-6.08z"/><path d="m14.74 11.52v-8.14h.64a.27.27 0 0 1 .28.23l.09.72a3.41 3.41 0 0 1 .89-.77 2.32 2.32 0 0 1 1.16-.28 2.1 2.1 0 0 1 .95.2 2 2 0 0 1 .73.59 2.87 2.87 0 0 1 .46 1 4.85 4.85 0 0 1 .16 1.33 4.15 4.15 0 0 1 -.18 1.25 3 3 0 0 1 -.52 1 2.46 2.46 0 0 1 -1.93.91 2.35 2.35 0 0 1 -1-.19 2.1 2.1 0 0 1 -.7-.53v2.69zm2.71-7.38a1.73 1.73 0 0 0 -.92.24 2.7 2.7 0 0 0 -.72.68v2.94a1.68 1.68 0 0 0 .64.56 1.94 1.94 0 0 0 .78.16 1.52 1.52 0 0 0 1.31-.61 2.85 2.85 0 0 0 .46-1.73 4.36 4.36 0 0 0 -.11-1 2 2 0 0 0 -.3-.69 1.11 1.11 0 0 0 -.49-.4 1.51 1.51 0 0 0 -.65-.15z"/><path d="m24 3.29a3.09 3.09 0 0 1 1.2.22 2.65 2.65 0 0 1 .91.63 2.85 2.85 0 0 1 .58 1 4 4 0 0 1 .2 1.29 4.08 4.08 0 0 1 -.2 1.3 2.9 2.9 0 0 1 -.58 1 2.65 2.65 0 0 1 -.91.63 3.41 3.41 0 0 1 -2.41 0 2.69 2.69 0 0 1 -.92-.63 2.9 2.9 0 0 1 -.58-1 4.08 4.08 0 0 1 -.2-1.3 4 4 0 0 1 .2-1.29 2.85 2.85 0 0 1 .58-1 2.69 2.69 0 0 1 .92-.63 3.11 3.11 0 0 1 1.21-.22zm0 5.42a1.55 1.55 0 0 0 1.34-.6 2.75 2.75 0 0 0 .45-1.68 2.82 2.82 0 0 0 -.45-1.7 1.55 1.55 0 0 0 -1.34-.6 2 2 0 0 0 -.8.15 1.64 1.64 0 0 0 -.56.45 2.14 2.14 0 0 0 -.34.73 4 4 0 0 0 -.11 1 2.75 2.75 0 0 0 .45 1.68 1.59 1.59 0 0 0 1.36.57z"/><path d="m28.26 3.38h2.23a3.4 3.4 0 0 1 1 .12 1.84 1.84 0 0 1 .66.31 1.19 1.19 0 0 1 .38.46 1.31 1.31 0 0 1 .12.56 2 2 0 0 1 0 .41 1.33 1.33 0 0 1 -.19.42 1.59 1.59 0 0 1 -.46.34 2 2 0 0 1 -.58.24 1.94 1.94 0 0 1 1.07.49 1.23 1.23 0 0 1 .38 1 1.73 1.73 0 0 1 -.17.78 1.58 1.58 0 0 1 -.49.54 2.16 2.16 0 0 1 -.72.33 3.19 3.19 0 0 1 -.89.11h-2.34zm1 2.63h1.17a1.51 1.51 0 0 0 .48-.07 1.22 1.22 0 0 0 .39-.21.9.9 0 0 0 .25-.33 1 1 0 0 0 0-.74.61.61 0 0 0 -.2-.28 1 1 0 0 0 -.38-.2 1.86 1.86 0 0 0 -.57-.08h-1.11zm0 .68v2h1.3a1.45 1.45 0 0 0 .95-.28.92.92 0 0 0 .35-.76 1 1 0 0 0 -.07-.4.69.69 0 0 0 -.21-.3 1.08 1.08 0 0 0 -.4-.21 2.18 2.18 0 0 0 -.61-.07z"/><path d="m36.78 3.29a3.09 3.09 0 0 1 1.2.22 2.56 2.56 0 0 1 .91.63 2.7 2.7 0 0 1 .58 1 4 4 0 0 1 .2 1.29 4.08 4.08 0 0 1 -.2 1.3 2.74 2.74 0 0 1 -.58 1 2.56 2.56 0 0 1 -.91.63 3.41 3.41 0 0 1 -2.41 0 2.56 2.56 0 0 1 -.91-.63 2.61 2.61 0 0 1 -.58-1 3.82 3.82 0 0 1 -.2-1.3 3.72 3.72 0 0 1 .2-1.29 2.61 2.61 0 0 1 1.49-1.62 3.11 3.11 0 0 1 1.21-.23zm0 5.42a1.55 1.55 0 0 0 1.34-.6 2.75 2.75 0 0 0 .45-1.68 2.82 2.82 0 0 0 -.45-1.7 1.55 1.55 0 0 0 -1.34-.6 2 2 0 0 0 -.8.15 1.64 1.64 0 0 0 -.56.45 2.14 2.14 0 0 0 -.34.73 4 4 0 0 0 -.11 1 2.75 2.75 0 0 0 .45 1.68 1.59 1.59 0 0 0 1.36.57z"/><path d="m41 9.47v-6.08h1.1v4.13a2.5 2.5 0 0 1 0 .25 1.24 1.24 0 0 1 0 .27l.11-.22.11-.18.14-.18.29-.46c.13-.19.29-.4.47-.64l.53-.73 1.45-2a1.41 1.41 0 0 1 .17-.18.33.33 0 0 1 .22-.09h.65v6.1h-1.07v-4.13a2.26 2.26 0 0 1 0-.25v-.27a2 2 0 0 1 -.07.19l-.1.21a1.73 1.73 0 0 0 -.14.19l-.34.46-.52.64-.53.73-1.45 2a1.29 1.29 0 0 1 -.16.18.33.33 0 0 1 -.22.09zm2.7-7.56a1.24 1.24 0 0 0 .41 0 .58.58 0 0 0 .27-.19.74.74 0 0 0 .16-.32 2.17 2.17 0 0 0 .05-.49h.62a.18.18 0 0 1 .17.11.4.4 0 0 1 .06.22 1.19 1.19 0 0 1 -.12.54 1.21 1.21 0 0 1 -.34.41 1.65 1.65 0 0 1 -.55.26 2.75 2.75 0 0 1 -.73.09 2.7 2.7 0 0 1 -.7-.14 1.65 1.65 0 0 1 -.55-.26 1.24 1.24 0 0 1 -.35-.41 1.19 1.19 0 0 1 -.1-.54.4.4 0 0 1 0-.19.2.2 0 0 1 .18-.11h.62a2.17 2.17 0 0 0 0 .49.73.73 0 0 0 .15.32.58.58 0 0 0 .27.19 1.31 1.31 0 0 0 .48.02z"/><path d="m56.06 3.38v6.08h-1.06v-2.84h-2.93v2.84h-1.07v-6.08h1.07v2.43h2.93v-2.43z"/><path d="m60.32 3.29a3.09 3.09 0 0 1 1.2.22 2.65 2.65 0 0 1 .91.63 2.85 2.85 0 0 1 .58 1 4 4 0 0 1 .2 1.29 4.08 4.08 0 0 1 -.2 1.3 2.9 2.9 0 0 1 -.58 1 2.65 2.65 0 0 1 -.91.63 3.41 3.41 0 0 1 -2.41 0 2.6 2.6 0 0 1 -.92-.63 2.9 2.9 0 0 1 -.58-1 4.08 4.08 0 0 1 -.2-1.3 4 4 0 0 1 .2-1.29 2.85 2.85 0 0 1 .58-1 2.6 2.6 0 0 1 .92-.63 3.11 3.11 0 0 1 1.21-.22zm0 5.42a1.56 1.56 0 0 0 1.34-.6 2.75 2.75 0 0 0 .44-1.68 2.82 2.82 0 0 0 -.44-1.7 1.56 1.56 0 0 0 -1.34-.6 2 2 0 0 0 -.8.15 1.64 1.64 0 0 0 -.56.45 2.14 2.14 0 0 0 -.34.73 4 4 0 0 0 -.11 1 2.75 2.75 0 0 0 .49 1.65 1.59 1.59 0 0 0 1.32.6z"/><path d="m66.22 11.26a.53.53 0 0 1 -.13.19.37.37 0 0 1 -.25.07h-.84l1.11-2.41-2.5-5.73h.92a.36.36 0 0 1 .22.07.42.42 0 0 1 .11.16l1.63 3.82c0 .1.06.18.09.27a2.68 2.68 0 0 1 .07.27q.07-.27.18-.54l1.58-3.82a.28.28 0 0 1 .12-.16.29.29 0 0 1 .2-.07h.84z"/><path d="m69.87 3.38h5.73v.82h-2.33v5.26h-1.07v-5.26h-2.33z"/><path d="m79.77 2a2.7 2.7 0 0 0 -1 .27 2.18 2.18 0 0 0 -.73.58 2.73 2.73 0 0 0 -.43.89 5.57 5.57 0 0 0 -.17 1.16 2.1 2.1 0 0 1 .38-.52 2.65 2.65 0 0 1 .52-.4 2.58 2.58 0 0 1 .64-.25 2.87 2.87 0 0 1 .73-.08 2.68 2.68 0 0 1 1.09.21 2.24 2.24 0 0 1 .82.6 2.68 2.68 0 0 1 .52.94 3.91 3.91 0 0 1 .18 1.22 3.59 3.59 0 0 1 -.2 1.22 2.61 2.61 0 0 1 -.6.94 2.53 2.53 0 0 1 -.92.6 3.25 3.25 0 0 1 -1.2.21 3.13 3.13 0 0 1 -1.15-.21 2.21 2.21 0 0 1 -.92-.67 3.37 3.37 0 0 1 -.61-1.23 6.78 6.78 0 0 1 -.23-1.89 8.69 8.69 0 0 1 .17-1.76 4.12 4.12 0 0 1 .57-1.4 2.87 2.87 0 0 1 1-1 3.53 3.53 0 0 1 1.45-.43l2.18-.2.06.56a.53.53 0 0 1 -.06.31.31.31 0 0 1 -.26.14zm-.41 6.79a1.65 1.65 0 0 0 1.36-.57 2.48 2.48 0 0 0 .46-1.6 2.63 2.63 0 0 0 -.44-1.62 1.59 1.59 0 0 0 -1.33-.57 2 2 0 0 0 -.76.13 1.47 1.47 0 0 0 -.58.4 1.78 1.78 0 0 0 -.37.63 2.84 2.84 0 0 0 -.13.87 3.58 3.58 0 0 0 .12 1 2 2 0 0 0 .34.74 1.41 1.41 0 0 0 .55.45 1.75 1.75 0 0 0 .78.1z"/><path d="m85.26 11.26a.55.55 0 0 1 -.14.19.34.34 0 0 1 -.25.07h-.79l1.11-2.41-2.51-5.73h.93a.38.38 0 0 1 .22.07.42.42 0 0 1 .11.16l1.62 3.82a1.71 1.71 0 0 1 .09.27 2.76 2.76 0 0 1 .08.27q.08-.27.18-.54l1.57-3.82a.34.34 0 0 1 .13-.16.28.28 0 0 1 .19-.07h.85z"/><path d="m93.28 3.68a.73.73 0 0 1 .22-.21.53.53 0 0 1 .3-.09h.83l-1.58 2.32a1.37 1.37 0 0 1 -.3.36 1 1 0 0 1 -.38.22 1.35 1.35 0 0 1 .48.24 1.71 1.71 0 0 1 .36.43l1.59 2.51h-.74a.88.88 0 0 1 -.44-.09.81.81 0 0 1 -.27-.28l-1.19-1.89a.92.92 0 0 0 -.84-.47h-.66v2.74h-1.07v-6.09h1.07v2.62h.58a.84.84 0 0 0 .76-.4z"/><path d="m106.52 5.11a4.54 4.54 0 0 1 -.32 1.75 3.93 3.93 0 0 1 -.9 1.38 4.37 4.37 0 0 1 -1.41.9 5.09 5.09 0 0 1 -1.83.32h-3.34v-8.7h3.34a4.89 4.89 0 0 1 1.83.32 4.37 4.37 0 0 1 1.41.9 4 4 0 0 1 .9 1.38 4.51 4.51 0 0 1 .32 1.75zm-1.85 0a3.88 3.88 0 0 0 -.18-1.23 2.6 2.6 0 0 0 -.49-.88 2.4 2.4 0 0 0 -.82-.58 2.73 2.73 0 0 0 -1.1-.2h-1.53v5.83h1.53a2.92 2.92 0 0 0 1.1-.2 2.27 2.27 0 0 0 .82-.58 2.6 2.6 0 0 0 .51-.93 3.88 3.88 0 0 0 .16-1.23z"/><path d="m110.23 3.18a2.94 2.94 0 0 1 1.09.19 2.37 2.37 0 0 1 1.43 1.43 3.21 3.21 0 0 1 .25 1.2 2.82 2.82 0 0 1 0 .31 1.45 1.45 0 0 1 -.06.19.23.23 0 0 1 -.12.1h-.18-3.72a2 2 0 0 0 .5 1.28 1.52 1.52 0 0 0 1.09.4 2 2 0 0 0 .59-.08l.44-.18.34-.18a.6.6 0 0 1 .31-.08.36.36 0 0 1 .3.14l.48.6a2.77 2.77 0 0 1 -1.25.82 3.17 3.17 0 0 1 -.69.17 5.12 5.12 0 0 1 -.67 0 3.46 3.46 0 0 1 -1.21-.21 2.75 2.75 0 0 1 -1-.63 3 3 0 0 1 -.65-1 3.93 3.93 0 0 1 -.24-1.43 3.58 3.58 0 0 1 .2-1.19 2.93 2.93 0 0 1 .6-1 2.79 2.79 0 0 1 1-.66 3.15 3.15 0 0 1 1.17-.19zm0 1.16a1.26 1.26 0 0 0 -.93.34 1.79 1.79 0 0 0 -.44 1h2.58a1.57 1.57 0 0 0 -.07-.49 1.06 1.06 0 0 0 -.22-.42 1 1 0 0 0 -.37-.28 1.35 1.35 0 0 0 -.52-.15z"/><path d="m115.65.52v8.94h-1.65v-8.94z"/><path d="m118.7.52v8.94h-1.7v-8.94z"/><path d="m129 9.33a5.51 5.51 0 0 1 -1.59.23 5.46 5.46 0 0 1 -2-.33 4.7 4.7 0 0 1 -1.49-.93 4.13 4.13 0 0 1 -1-1.41 4.74 4.74 0 0 1 -.34-1.78 5 5 0 0 1 .32-1.8 4.06 4.06 0 0 1 .92-1.4 4.19 4.19 0 0 1 1.5-.91 5.12 5.12 0 0 1 1.88-.34 5.34 5.34 0 0 1 1 .09 4.62 4.62 0 0 1 .87.24 4 4 0 0 1 .72.36 4 4 0 0 1 .6.46l-.52.81a.51.51 0 0 1 -.31.23.53.53 0 0 1 -.42-.1l-.42-.23a4.68 4.68 0 0 0 -.45-.19 3.19 3.19 0 0 0 -.51-.12 5.57 5.57 0 0 0 -.63 0 2.77 2.77 0 0 0 -1.1.21 2.31 2.31 0 0 0 -.84.6 2.68 2.68 0 0 0 -.53.92 3.8 3.8 0 0 0 -.18 1.21 3.62 3.62 0 0 0 .2 1.28 2.71 2.71 0 0 0 .58 1 2.28 2.28 0 0 0 .89.59 3 3 0 0 0 1.15.21 3 3 0 0 0 .77-.09 4.12 4.12 0 0 0 .67-.24v-1.54h-1a.4.4 0 0 1 -.27-.09.3.3 0 0 1 -.1-.24v-1.03h3v3.62a4.62 4.62 0 0 1 -1.37.71z"/><path d="m134.55.66a3.29 3.29 0 0 1 1.12.18 2.48 2.48 0 0 1 .83.48 2 2 0 0 1 .5.68 2.2 2.2 0 0 1 .18.88 2.65 2.65 0 0 1 -.09.73 1.64 1.64 0 0 1 -.26.55 1.43 1.43 0 0 1 -.42.39 2.5 2.5 0 0 1 -.57.27 2 2 0 0 1 1.5 2 2.66 2.66 0 0 1 -.21 1.18 2.56 2.56 0 0 1 -.66.85 3 3 0 0 1 -1 .52 4 4 0 0 1 -1.15.17 3.87 3.87 0 0 1 -1.13-.15 2.53 2.53 0 0 1 -.85-.43 2.44 2.44 0 0 1 -.63-.72 5.38 5.38 0 0 1 -.47-1l.74-.3a.84.84 0 0 1 .53-.06.47.47 0 0 1 .36.26 4.23 4.23 0 0 0 .25.42 2 2 0 0 0 .31.33 1.11 1.11 0 0 0 .38.22 1.44 1.44 0 0 0 .49.08 1.57 1.57 0 0 0 .6-.11 1.42 1.42 0 0 0 .44-.3 1.29 1.29 0 0 0 .26-.42 1.42 1.42 0 0 0 .08-.45 2.34 2.34 0 0 0 -.05-.55.77.77 0 0 0 -.25-.41 1.26 1.26 0 0 0 -.57-.26 4.14 4.14 0 0 0 -1-.1v-1.16a3.64 3.64 0 0 0 .89-.09 1.48 1.48 0 0 0 .55-.25.86.86 0 0 0 .27-.39 1.64 1.64 0 0 0 .08-.5 1.18 1.18 0 0 0 -.3-.87 1.14 1.14 0 0 0 -.84-.3 1.23 1.23 0 0 0 -.44.07 1 1 0 0 0 -.36.19 1.24 1.24 0 0 0 -.28.28 1.11 1.11 0 0 0 -.16.35.77.77 0 0 1 -.3.4.83.83 0 0 1 -.52.05l-.87-.16a3.21 3.21 0 0 1 .36-1.12 2.7 2.7 0 0 1 .66-.79 2.44 2.44 0 0 1 .9-.48 3.57 3.57 0 0 1 1.1-.16z"/><path d="m142.11 8.24h1.73v-4.76c0-.2 0-.42 0-.64l-1.13.94a.52.52 0 0 1 -.24.11.5.5 0 0 1 -.21 0 .49.49 0 0 1 -.18-.08.25.25 0 0 1 -.12-.1l-.53-.7 2.7-2.26h1.36v7.49h1.51v1.22h-4.89z"/><path d="m153.74 1.45a1.07 1.07 0 0 1 -.05.32.56.56 0 0 1 -.17.24.72.72 0 0 1 -.3.16 1.42 1.42 0 0 1 -.44.06h-2.25l-.29 1.65a5.06 5.06 0 0 1 .52-.08h.49a3.21 3.21 0 0 1 1.2.21 2.62 2.62 0 0 1 .89.57 2.45 2.45 0 0 1 .53.84 3 3 0 0 1 .18 1.05 3.27 3.27 0 0 1 -.24 1.27 3 3 0 0 1 -.68 1 3.14 3.14 0 0 1 -1 .64 3.73 3.73 0 0 1 -1.32.23 3.42 3.42 0 0 1 -.79-.09 4.92 4.92 0 0 1 -.71-.23 3.88 3.88 0 0 1 -.6-.34 4.3 4.3 0 0 1 -.51-.4l.51-.7a.5.5 0 0 1 .42-.22.62.62 0 0 1 .32.09l.35.22a3.47 3.47 0 0 0 .47.21 2 2 0 0 0 .64.1 1.79 1.79 0 0 0 .68-.13 1.31 1.31 0 0 0 .47-.36 1.42 1.42 0 0 0 .28-.53 2.07 2.07 0 0 0 .1-.66 1.36 1.36 0 0 0 -.39-1 1.55 1.55 0 0 0 -1.12-.37 3.51 3.51 0 0 0 -1.22.23l-1-.29.73-4.28h4.37z"/><path d="m159.35 5.7a10.37 10.37 0 0 0 .28 2.41 10.12 10.12 0 0 0 .81 2.22.53.53 0 0 1 .08.23.51.51 0 0 1 0 .18.3.3 0 0 1 -.09.13l-.13.1-.73.44a10.41 10.41 0 0 1 -.75-1.38 9.43 9.43 0 0 1 -.51-1.4 10 10 0 0 1 -.3-1.44 12 12 0 0 1 -.09-1.49 12.29 12.29 0 0 1 .08-1.49 10 10 0 0 1 .3-1.44 9.43 9.43 0 0 1 .51-1.4 9.72 9.72 0 0 1 .75-1.37l.73.43.13.1a.3.3 0 0 1 .09.13.51.51 0 0 1 0 .18.46.46 0 0 1 -.08.23 10.12 10.12 0 0 0 -.81 2.22 10.37 10.37 0 0 0 -.27 2.41z"/><path d="m164.46.66a3.29 3.29 0 0 1 1.12.18 2.48 2.48 0 0 1 .83.48 2 2 0 0 1 .53.71 2.2 2.2 0 0 1 .18.88 2.65 2.65 0 0 1 -.09.73 1.86 1.86 0 0 1 -.26.55 1.43 1.43 0 0 1 -.42.39 2.5 2.5 0 0 1 -.57.27 2 2 0 0 1 1.5 2 2.66 2.66 0 0 1 -.28 1.15 2.56 2.56 0 0 1 -.66.85 2.92 2.92 0 0 1 -1 .52 4.11 4.11 0 0 1 -2.27 0 2.44 2.44 0 0 1 -.85-.43 2.63 2.63 0 0 1 -.64-.72 6.09 6.09 0 0 1 -.46-1l.74-.3a.84.84 0 0 1 .53-.06.47.47 0 0 1 .36.26 4.23 4.23 0 0 0 .25.42 1.64 1.64 0 0 0 .31.33 1.11 1.11 0 0 0 .38.22 1.44 1.44 0 0 0 .49.08 1.38 1.38 0 0 0 1-.41 1.29 1.29 0 0 0 .26-.42 1.42 1.42 0 0 0 .08-.45 3 3 0 0 0 0-.55.77.77 0 0 0 -.25-.41 1.25 1.25 0 0 0 -.58-.26 4.05 4.05 0 0 0 -1-.1v-1.14a3.64 3.64 0 0 0 .89-.09 1.48 1.48 0 0 0 .55-.25.86.86 0 0 0 .27-.39 1.64 1.64 0 0 0 .08-.5 1.18 1.18 0 0 0 -.3-.87 1.14 1.14 0 0 0 -.84-.3 1.23 1.23 0 0 0 -.44.07 1 1 0 0 0 -.36.19 1.24 1.24 0 0 0 -.28.28 1.11 1.11 0 0 0 -.16.35.77.77 0 0 1 -.3.4.83.83 0 0 1 -.52.05l-.87-.16a3.21 3.21 0 0 1 .36-1.12 2.56 2.56 0 0 1 .66-.79 2.44 2.44 0 0 1 .9-.48 3.52 3.52 0 0 1 1.13-.16z"/><path d="m173.84 1.45a1.07 1.07 0 0 1 -.05.32.56.56 0 0 1 -.17.24.72.72 0 0 1 -.3.16 1.42 1.42 0 0 1 -.44.06h-2.25l-.29 1.65a5.06 5.06 0 0 1 .52-.08h.49a3.21 3.21 0 0 1 1.2.21 2.62 2.62 0 0 1 .89.57 2.45 2.45 0 0 1 .53.84 3 3 0 0 1 .18 1.05 3.27 3.27 0 0 1 -.24 1.27 3 3 0 0 1 -.68 1 3.14 3.14 0 0 1 -1 .64 3.73 3.73 0 0 1 -1.32.23 3.42 3.42 0 0 1 -.79-.09 4.92 4.92 0 0 1 -.71-.23 3.88 3.88 0 0 1 -.6-.34 4.3 4.3 0 0 1 -.51-.4l.51-.7a.5.5 0 0 1 .42-.22.65.65 0 0 1 .32.09l.35.22a4 4 0 0 0 .46.21 2.06 2.06 0 0 0 .65.1 1.79 1.79 0 0 0 .68-.13 1.31 1.31 0 0 0 .47-.36 1.42 1.42 0 0 0 .28-.53 2.07 2.07 0 0 0 .1-.66 1.36 1.36 0 0 0 -.39-1 1.56 1.56 0 0 0 -1.15-.47 3.5 3.5 0 0 0 -1.21.23l-1-.29.73-4.28h4.37z"/><path d="m178.61 6.12.17-.22.17-.22a2.53 2.53 0 0 1 -.63.26 2.71 2.71 0 0 1 -.71.08 2.65 2.65 0 0 1 -.87-.15 2.46 2.46 0 0 1 -.74-.47 2.34 2.34 0 0 1 -.55-.78 2.75 2.75 0 0 1 -.21-1.11 2.87 2.87 0 0 1 .21-1.1 2.73 2.73 0 0 1 .55-.91 3 3 0 0 1 1-.61 3.25 3.25 0 0 1 1.23-.23 3.37 3.37 0 0 1 1.23.21 2.63 2.63 0 0 1 1.54 1.51 3.42 3.42 0 0 1 .2 1.17 4 4 0 0 1 -.07.79 3.38 3.38 0 0 1 -.19.71 4.22 4.22 0 0 1 -.3.65 5.93 5.93 0 0 1 -.4.62l-1.94 2.77a.93.93 0 0 1 -.34.26 1.08 1.08 0 0 1 -.52.11h-1.52zm1-2.72a1.66 1.66 0 0 0 -.1-.61 1.21 1.21 0 0 0 -.29-.44 1.12 1.12 0 0 0 -.43-.27 1.64 1.64 0 0 0 -.59-.08 1.43 1.43 0 0 0 -.56.1 1.37 1.37 0 0 0 -.42.29 1.43 1.43 0 0 0 -.26.45 1.69 1.69 0 0 0 -.1.56 1.5 1.5 0 0 0 .34 1.05 1.32 1.32 0 0 0 1 .36 1.41 1.41 0 0 0 .59-.11 1.09 1.09 0 0 0 .43-.29 1.16 1.16 0 0 0 .27-.44 1.69 1.69 0 0 0 .09-.57z"/><path d="m188.41 5.11a7.25 7.25 0 0 1 -.24 2 4.2 4.2 0 0 1 -.68 1.39 2.82 2.82 0 0 1 -1 .81 3.06 3.06 0 0 1 -1.28.27 3 3 0 0 1 -1.27-.27 2.71 2.71 0 0 1 -1-.81 4 4 0 0 1 -.67-1.39 6.86 6.86 0 0 1 -.25-2 6.86 6.86 0 0 1 .25-2 4 4 0 0 1 .67-1.39 2.61 2.61 0 0 1 1-.81 3 3 0 0 1 1.27-.27 3.06 3.06 0 0 1 1.28.27 2.72 2.72 0 0 1 1 .81 4.2 4.2 0 0 1 .68 1.39 7.25 7.25 0 0 1 .24 2zm-1.71 0a7.2 7.2 0 0 0 -.13-1.53 3.08 3.08 0 0 0 -.33-1 1.18 1.18 0 0 0 -.49-.48 1.25 1.25 0 0 0 -.56-.14 1.18 1.18 0 0 0 -.55.14 1.22 1.22 0 0 0 -.48.48 3.08 3.08 0 0 0 -.33 1 7.92 7.92 0 0 0 -.13 1.53 7.92 7.92 0 0 0 .13 1.53 2.92 2.92 0 0 0 .33.94 1.16 1.16 0 0 0 1 .63 1.25 1.25 0 0 0 .56-.14 1.15 1.15 0 0 0 .49-.49 2.92 2.92 0 0 0 .33-.94 7.2 7.2 0 0 0 .16-1.53z"/><path d="m190.18 5.7a10.37 10.37 0 0 0 -.28-2.41 10.12 10.12 0 0 0 -.81-2.22.46.46 0 0 1 -.09-.23.51.51 0 0 1 0-.18.3.3 0 0 1 .09-.13l.12-.1.79-.43a10.86 10.86 0 0 1 .75 1.37 9.43 9.43 0 0 1 .51 1.4 9.92 9.92 0 0 1 .29 1.44 12.29 12.29 0 0 1 .09 1.49 12 12 0 0 1 -.09 1.49 9.92 9.92 0 0 1 -.29 1.44 9.43 9.43 0 0 1 -.51 1.4 11.71 11.71 0 0 1 -.75 1.38l-.74-.44-.12-.1a.3.3 0 0 1 -.09-.13.51.51 0 0 1 0-.18.53.53 0 0 1 .08-.23 10.12 10.12 0 0 0 .81-2.22 10.37 10.37 0 0 0 .24-2.41z"/><path d="m5.93 17.78v5.27h1.07v2.58a.36.36 0 0 1 -.08.24.32.32 0 0 1 -.23.09h-.61v-2.1h-5.08v1.79a.38.38 0 0 1 -.07.21.28.28 0 0 1 -.23.1h-.7v-2.88h.26a1 1 0 0 0 .4-.08 1 1 0 0 0 .39-.29 2.53 2.53 0 0 0 .35-.58 5.58 5.58 0 0 0 .29-1 14.29 14.29 0 0 0 .24-1.42c.07-.55.12-1.2.16-2zm-3 .84c0 .63-.1 1.18-.17 1.66a10.39 10.39 0 0 1 -.25 1.26 5.79 5.79 0 0 1 -.31.92 2.53 2.53 0 0 1 -.36.62h3v-4.46z"/><path d="m13.45 17.78v6.08h-1.07v-5.24h-1.92a18.44 18.44 0 0 1 -.21 2 9 9 0 0 1 -.35 1.44 3.91 3.91 0 0 1 -.45 1 2.24 2.24 0 0 1 -.52.57 1.55 1.55 0 0 1 -.56.28 2.36 2.36 0 0 1 -.58.07c-.34 0-.51-.05-.51-.16v-.72h.31a1.18 1.18 0 0 0 .41-.1 1.14 1.14 0 0 0 .42-.28 2.25 2.25 0 0 0 .38-.57 4.59 4.59 0 0 0 .34-1 11.88 11.88 0 0 0 .26-1.44c.08-.56.14-1.22.18-2z"/><path d="m19.36 23.86h-1v-2.56h-.47a1.14 1.14 0 0 0 -.28 0 .62.62 0 0 0 -.19.07.53.53 0 0 0 -.14.12 1.4 1.4 0 0 0 -.12.18l-1.36 1.82a.63.63 0 0 1 -.25.28.79.79 0 0 1 -.42.09h-.75l1.77-2.29a1.11 1.11 0 0 1 .57-.48 2.59 2.59 0 0 1 -.78-.21 1.78 1.78 0 0 1 -.52-.37 1.26 1.26 0 0 1 -.29-.48 1.54 1.54 0 0 1 -.09-.52 1.71 1.71 0 0 1 .12-.62 1.42 1.42 0 0 1 .39-.56 2 2 0 0 1 .7-.39 2.92 2.92 0 0 1 1-.16h2.07zm-3.25-4.29a.91.91 0 0 0 .36.77 1.54 1.54 0 0 0 1 .28h.89v-2.12h-1a1.53 1.53 0 0 0 -.57.1 1.09 1.09 0 0 0 -.38.25 1 1 0 0 0 -.2.35 1.19 1.19 0 0 0 -.1.37z"/><path d="m24.13 17.78h2.23a3.35 3.35 0 0 1 1 .12 1.84 1.84 0 0 1 .66.31 1.11 1.11 0 0 1 .38.46 1.31 1.31 0 0 1 .12.56 2 2 0 0 1 -.05.41 1.33 1.33 0 0 1 -.19.42 1.41 1.41 0 0 1 -.37.36 1.84 1.84 0 0 1 -.58.24 1.94 1.94 0 0 1 1.07.49 1.24 1.24 0 0 1 .39 1 1.61 1.61 0 0 1 -.18.78 1.58 1.58 0 0 1 -.49.54 2 2 0 0 1 -.72.33 3.19 3.19 0 0 1 -.89.11h-2.38zm1 2.63h1.17a1.57 1.57 0 0 0 .49-.07 1.07 1.07 0 0 0 .38-.21.93.93 0 0 0 .26-.33 1 1 0 0 0 0-.74.63.63 0 0 0 -.21-.28.91.91 0 0 0 -.38-.2 1.82 1.82 0 0 0 -.57-.08h-1.11zm0 .68v2h1.31a1.42 1.42 0 0 0 .94-.28.9.9 0 0 0 .35-.76 1.25 1.25 0 0 0 -.06-.4.81.81 0 0 0 -.22-.3 1 1 0 0 0 -.4-.21 2.18 2.18 0 0 0 -.61-.07z"/><path d="m34 23.86a.54.54 0 0 1 -.24-.05.35.35 0 0 1 -.13-.2l-.17-.61-.47.39a2.31 2.31 0 0 1 -.48.28 3 3 0 0 1 -.53.19 3.1 3.1 0 0 1 -.64.06 2.39 2.39 0 0 1 -.66-.1 1.72 1.72 0 0 1 -.55-.3 1.43 1.43 0 0 1 -.36-.5 1.74 1.74 0 0 1 -.14-.72 1.34 1.34 0 0 1 .2-.69 1.76 1.76 0 0 1 .64-.59 4.43 4.43 0 0 1 1.16-.42 8.42 8.42 0 0 1 1.75-.19v-.41a1.66 1.66 0 0 0 -.3-1.07 1.12 1.12 0 0 0 -.9-.36 1.83 1.83 0 0 0 -.66.1 2.19 2.19 0 0 0 -.46.22l-.34.22a.44.44 0 0 1 -.28.1.28.28 0 0 1 -.18-.06.35.35 0 0 1 -.13-.14l-.2-.34a3.56 3.56 0 0 1 1.07-.75 3.37 3.37 0 0 1 1.29-.24 2.38 2.38 0 0 1 .91.16 2 2 0 0 1 .66.47 1.93 1.93 0 0 1 .41.73 3 3 0 0 1 .14.93v3.89zm-2.29-.65a2.12 2.12 0 0 0 .52-.06 2.32 2.32 0 0 0 .44-.16 2 2 0 0 0 .39-.26 3.92 3.92 0 0 0 .37-.34v-1.26a8.29 8.29 0 0 0 -1.25.11 3.47 3.47 0 0 0 -.85.25 1.05 1.05 0 0 0 -.47.35.77.77 0 0 0 -.15.46 1 1 0 0 0 .08.41.67.67 0 0 0 .21.29.9.9 0 0 0 .32.17 1.6 1.6 0 0 0 .34.04z"/><path d="m36.05 17.78h1.08v5.27h2.48v-5.27h1.07v5.27h2.48v-5.27h1.07v6.08h-8.18z"/><path d="m48.41 17.69a2.75 2.75 0 0 1 1 .18 2.32 2.32 0 0 1 .81.53 2.51 2.51 0 0 1 .53.85 3.21 3.21 0 0 1 .25 1.16.77.77 0 0 1 -.05.33.23.23 0 0 1 -.21.09h-4.11a3.33 3.33 0 0 0 .16 1 2.11 2.11 0 0 0 .39.71 1.56 1.56 0 0 0 .6.42 2 2 0 0 0 .78.15 2.41 2.41 0 0 0 .7-.1 3.46 3.46 0 0 0 .5-.2l.35-.2a.45.45 0 0 1 .24-.09.24.24 0 0 1 .21.1l.29.39a2.11 2.11 0 0 1 -.47.42 3.59 3.59 0 0 1 -.59.29 4.77 4.77 0 0 1 -.65.17 3.79 3.79 0 0 1 -.67.06 3.15 3.15 0 0 1 -1.16-.22 2.62 2.62 0 0 1 -.92-.62 3.09 3.09 0 0 1 -.6-1 4.23 4.23 0 0 1 -.21-1.39 3.58 3.58 0 0 1 .19-1.19 2.86 2.86 0 0 1 .56-1 2.52 2.52 0 0 1 .9-.63 2.79 2.79 0 0 1 1.18-.21zm0 .78a1.64 1.64 0 0 0 -1.22.45 2.07 2.07 0 0 0 -.55 1.24h3.36a2.11 2.11 0 0 0 -.1-.68 1.59 1.59 0 0 0 -.31-.54 1.31 1.31 0 0 0 -.49-.34 1.51 1.51 0 0 0 -.66-.13z"/><path d="m56.2 17.78v.82h-2.87v5.26h-1.07v-6.08z"/><path d="m59.49 17.69a3.09 3.09 0 0 1 1.2.22 2.56 2.56 0 0 1 .91.63 2.7 2.7 0 0 1 .58 1 4 4 0 0 1 .2 1.29 4.08 4.08 0 0 1 -.2 1.3 2.74 2.74 0 0 1 -.58 1 2.56 2.56 0 0 1 -.91.63 3.41 3.41 0 0 1 -2.41 0 2.56 2.56 0 0 1 -.91-.63 2.61 2.61 0 0 1 -.58-1 3.82 3.82 0 0 1 -.2-1.3 3.72 3.72 0 0 1 .2-1.29 2.61 2.61 0 0 1 1.49-1.62 3.11 3.11 0 0 1 1.21-.23zm0 5.42a1.55 1.55 0 0 0 1.34-.6 2.75 2.75 0 0 0 .45-1.68 2.82 2.82 0 0 0 -.45-1.7 1.55 1.55 0 0 0 -1.34-.6 2 2 0 0 0 -.8.15 1.64 1.64 0 0 0 -.56.45 2.14 2.14 0 0 0 -.34.73 4 4 0 0 0 -.11 1 2.75 2.75 0 0 0 .45 1.68 1.59 1.59 0 0 0 1.36.57z"/><path d="m71.87 17.78v6.08h-1.08v-5.26h-2.91v5.26h-1.08v-6.08z"/><path d="m73.56 25.92v-8.14h.64a.26.26 0 0 1 .28.23l.09.72a3.29 3.29 0 0 1 .9-.77 2.28 2.28 0 0 1 1.15-.28 2.1 2.1 0 0 1 .95.2 1.89 1.89 0 0 1 .73.59 2.87 2.87 0 0 1 .46 1 4.85 4.85 0 0 1 .16 1.33 4.15 4.15 0 0 1 -.18 1.2 3 3 0 0 1 -.52 1 2.39 2.39 0 0 1 -.82.66 2.52 2.52 0 0 1 -1.11.25 2.26 2.26 0 0 1 -1-.19 2.13 2.13 0 0 1 -.71-.53v2.69zm2.71-7.38a1.69 1.69 0 0 0 -.91.24 2.59 2.59 0 0 0 -.73.68v2.94a1.75 1.75 0 0 0 .64.56 2 2 0 0 0 .78.16 1.52 1.52 0 0 0 1.31-.61 2.78 2.78 0 0 0 .46-1.73 4.36 4.36 0 0 0 -.11-1 2.14 2.14 0 0 0 -.3-.7 1.1 1.1 0 0 0 -.49-.39 1.51 1.51 0 0 0 -.65-.15z"/><path d="m82.77 17.69a2.79 2.79 0 0 1 1 .18 2.2 2.2 0 0 1 .8.53 2.38 2.38 0 0 1 .54.85 3.44 3.44 0 0 1 .19 1.16.62.62 0 0 1 -.06.33.2.2 0 0 1 -.2.09h-4.04a3.69 3.69 0 0 0 .15 1 2.12 2.12 0 0 0 .4.71 1.56 1.56 0 0 0 .6.42 1.94 1.94 0 0 0 .78.15 2.29 2.29 0 0 0 .69-.1 3.05 3.05 0 0 0 .5-.2 3.34 3.34 0 0 0 .35-.2.51.51 0 0 1 .25-.09.23.23 0 0 1 .2.1l.3.39a2.11 2.11 0 0 1 -.47.42 4 4 0 0 1 -.59.29 4.77 4.77 0 0 1 -.65.17 3.88 3.88 0 0 1 -.67.06 3.11 3.11 0 0 1 -1.16-.22 2.54 2.54 0 0 1 -.92-.62 2.79 2.79 0 0 1 -.6-1 4 4 0 0 1 -.22-1.39 3.58 3.58 0 0 1 .2-1.19 2.7 2.7 0 0 1 .56-1 2.48 2.48 0 0 1 .89-.63 2.84 2.84 0 0 1 1.18-.21zm0 .78a1.61 1.61 0 0 0 -1.21.45 2.14 2.14 0 0 0 -.56 1.24h3.33a2.11 2.11 0 0 0 -.11-.68 1.57 1.57 0 0 0 -.3-.54 1.39 1.39 0 0 0 -.49-.34 1.56 1.56 0 0 0 -.64-.13z"/><path d="m86.62 17.78h2.22a3.43 3.43 0 0 1 1 .12 1.93 1.93 0 0 1 .66.31 1.19 1.19 0 0 1 .38.46 1.57 1.57 0 0 1 .06 1 1.14 1.14 0 0 1 -.19.42 1.54 1.54 0 0 1 -.36.36 2.07 2.07 0 0 1 -.58.24 2 2 0 0 1 1.07.49 1.27 1.27 0 0 1 .38 1 1.61 1.61 0 0 1 -.18.78 1.66 1.66 0 0 1 -.48.54 2.12 2.12 0 0 1 -.73.33 3.12 3.12 0 0 1 -.88.11h-2.37zm1 2.63h1.17a1.53 1.53 0 0 0 .49-.07 1.22 1.22 0 0 0 .39-.21 1 1 0 0 0 .25-.33 1 1 0 0 0 0-.74.69.69 0 0 0 -.2-.28 1.06 1.06 0 0 0 -.38-.2 1.93 1.93 0 0 0 -.58-.08h-1.12zm0 .68v2h1.38a1.45 1.45 0 0 0 1-.28.92.92 0 0 0 .35-.76 1.24 1.24 0 0 0 -.07-.4.81.81 0 0 0 -.22-.3 1 1 0 0 0 -.4-.21 2.1 2.1 0 0 0 -.6-.07z"/><path d="m95.14 17.69a3.09 3.09 0 0 1 1.2.22 2.75 2.75 0 0 1 .91.63 2.85 2.85 0 0 1 .58 1 4 4 0 0 1 .2 1.29 4.08 4.08 0 0 1 -.2 1.3 2.9 2.9 0 0 1 -.58 1 2.75 2.75 0 0 1 -.91.63 3.41 3.41 0 0 1 -2.41 0 2.6 2.6 0 0 1 -.93-.66 2.9 2.9 0 0 1 -.58-1 4.08 4.08 0 0 1 -.2-1.3 4 4 0 0 1 .2-1.29 2.85 2.85 0 0 1 .58-1 2.6 2.6 0 0 1 .92-.63 3.07 3.07 0 0 1 1.22-.19zm0 5.42a1.57 1.57 0 0 0 1.34-.6 2.82 2.82 0 0 0 .44-1.68 2.89 2.89 0 0 0 -.44-1.7 1.57 1.57 0 0 0 -1.34-.6 2 2 0 0 0 -.8.15 1.55 1.55 0 0 0 -.56.45 2 2 0 0 0 -.34.73 4 4 0 0 0 -.11 1 2.75 2.75 0 0 0 .45 1.68 1.57 1.57 0 0 0 1.36.57z"/><path d="m103.61 18.86-.1.11a.23.23 0 0 1 -.13 0 .35.35 0 0 1 -.2-.07l-.27-.17a1.84 1.84 0 0 0 -.39-.16 1.79 1.79 0 0 0 -.56-.08 1.84 1.84 0 0 0 -.8.16 1.68 1.68 0 0 0 -.57.46 2.16 2.16 0 0 0 -.35.73 3.93 3.93 0 0 0 -.11.95 3.65 3.65 0 0 0 .12 1 2.21 2.21 0 0 0 .36.72 1.5 1.5 0 0 0 .56.44 1.6 1.6 0 0 0 .73.16 1.65 1.65 0 0 0 .64-.1 2.06 2.06 0 0 0 .42-.2l.28-.21a.33.33 0 0 1 .22-.09.23.23 0 0 1 .2.1l.3.39a2.24 2.24 0 0 1 -.45.42 2.81 2.81 0 0 1 -.54.29 2.64 2.64 0 0 1 -.61.17 3.49 3.49 0 0 1 -.65.06 2.67 2.67 0 0 1 -1.06-.21 2.56 2.56 0 0 1 -.85-.61 2.86 2.86 0 0 1 -.56-1 3.91 3.91 0 0 1 -.24-1.3 4.15 4.15 0 0 1 .19-1.25 2.79 2.79 0 0 1 .56-1 2.53 2.53 0 0 1 .89-.65 3.09 3.09 0 0 1 1.22-.23 2.81 2.81 0 0 1 1.13.21 2.55 2.55 0 0 1 .87.58z"/><path d="m106.53 20.75-2-3h1a.31.31 0 0 1 .19 0 .26.26 0 0 1 .11.12l1.49 2.28a1.14 1.14 0 0 1 .15-.34l1.29-1.81a.87.87 0 0 1 .12-.14.25.25 0 0 1 .15 0h1l-2 2.91 2.13 3.17h-1a.26.26 0 0 1 -.2-.07.37.37 0 0 1 -.13-.15l-1.53-2.38a1.43 1.43 0 0 1 -.12.31l-1.42 2.07a.64.64 0 0 1 -.13.15.24.24 0 0 1 -.19.07h-.95z"/><path d="m113.37 17.69a3 3 0 0 1 1.2.22 2.54 2.54 0 0 1 1.49 1.62 3.71 3.71 0 0 1 .21 1.29 3.81 3.81 0 0 1 -.21 1.3 2.72 2.72 0 0 1 -.57 1 2.69 2.69 0 0 1 -.92.63 3.21 3.21 0 0 1 -1.2.22 3.25 3.25 0 0 1 -1.2-.22 2.6 2.6 0 0 1 -.92-.63 2.9 2.9 0 0 1 -.58-1 4.08 4.08 0 0 1 -.2-1.3 4 4 0 0 1 .2-1.29 2.85 2.85 0 0 1 .58-1 2.6 2.6 0 0 1 .92-.63 3.06 3.06 0 0 1 1.2-.21zm0 5.42a1.58 1.58 0 0 0 1.35-.6 2.82 2.82 0 0 0 .44-1.68 2.89 2.89 0 0 0 -.44-1.7 1.58 1.58 0 0 0 -1.35-.6 2 2 0 0 0 -.79.15 1.55 1.55 0 0 0 -.56.45 2 2 0 0 0 -.34.73 3.6 3.6 0 0 0 -.11 1 2.75 2.75 0 0 0 .45 1.68 1.57 1.57 0 0 0 1.35.57z"/><path d="m122.61 17.78v5.27h1.11v2.58a.29.29 0 0 1 -.31.33h-.65v-2.1h-5.11v1.79a.38.38 0 0 1 -.07.21.28.28 0 0 1 -.23.1h-.67v-2.88h.26a1 1 0 0 0 .4-.09 1 1 0 0 0 .39-.29 2.53 2.53 0 0 0 .35-.58 5.5 5.5 0 0 0 .3-1c.09-.39.16-.86.23-1.42s.12-1.2.16-2zm-3 .84c0 .63-.1 1.18-.17 1.66a10.39 10.39 0 0 1 -.25 1.26 4.93 4.93 0 0 1 -.31.92 2.53 2.53 0 0 1 -.36.62h3v-4.46z"/><path d="m128.93 18.86a.53.53 0 0 1 -.09.11.29.29 0 0 1 -.14 0 .32.32 0 0 1 -.19-.07l-.27-.17a2.42 2.42 0 0 0 -.39-.16 1.86 1.86 0 0 0 -.57-.08 1.8 1.8 0 0 0 -.79.16 1.51 1.51 0 0 0 -.57.46 2 2 0 0 0 -.35.73 3.48 3.48 0 0 0 -.12.95 3.28 3.28 0 0 0 .13 1 1.87 1.87 0 0 0 .36.72 1.47 1.47 0 0 0 .55.44 1.64 1.64 0 0 0 .74.16 1.69 1.69 0 0 0 .64-.1 2.06 2.06 0 0 0 .42-.2l.27-.21a.37.37 0 0 1 .22-.09.24.24 0 0 1 .21.1l.3.39a3 3 0 0 1 -.45.42 2.62 2.62 0 0 1 -.55.29 2.39 2.39 0 0 1 -.61.17 3.39 3.39 0 0 1 -.68.12 2.64 2.64 0 0 1 -1.06-.21 2.46 2.46 0 0 1 -.85-.61 3 3 0 0 1 -.57-1 4.18 4.18 0 0 1 -.2-1.33 3.86 3.86 0 0 1 .19-1.25 2.93 2.93 0 0 1 .55-1 2.53 2.53 0 0 1 .89-.65 3.17 3.17 0 0 1 1.23-.23 2.88 2.88 0 0 1 1.13.21 2.61 2.61 0 0 1 .86.58z"/><path d="m129.75 17.78h5.73v.82h-2.33v5.26h-1.07v-5.26h-2.33z"/><path d="m136.5 17.78h2.22a3.43 3.43 0 0 1 1 .12 1.84 1.84 0 0 1 .66.31 1.19 1.19 0 0 1 .38.46 1.31 1.31 0 0 1 .12.56 1.51 1.51 0 0 1 -.06.41 1.14 1.14 0 0 1 -.19.42 1.37 1.37 0 0 1 -.36.36 2.07 2.07 0 0 1 -.58.24 1.94 1.94 0 0 1 1.07.49 1.27 1.27 0 0 1 .38 1 1.73 1.73 0 0 1 -.17.78 1.69 1.69 0 0 1 -.49.54 2.16 2.16 0 0 1 -.72.33 3.24 3.24 0 0 1 -.89.11h-2.37zm1 2.63h1.17a1.53 1.53 0 0 0 .49-.07 1.22 1.22 0 0 0 .39-.21.9.9 0 0 0 .25-.33 1 1 0 0 0 0-.74.69.69 0 0 0 -.2-.28 1 1 0 0 0 -.38-.2 1.93 1.93 0 0 0 -.58-.08h-1.17zm0 .68v2h1.31a1.45 1.45 0 0 0 .95-.28.92.92 0 0 0 .35-.76 1 1 0 0 0 -.07-.4.69.69 0 0 0 -.21-.3 1.08 1.08 0 0 0 -.4-.21 2.18 2.18 0 0 0 -.61-.07z"/><path d="m146.32 23.86a.54.54 0 0 1 -.24-.05.31.31 0 0 1 -.13-.2l-.12-.57-.47.39a3 3 0 0 1 -.48.28 3.13 3.13 0 0 1 -.54.19 3.06 3.06 0 0 1 -.63.06 2.41 2.41 0 0 1 -.67-.1 1.67 1.67 0 0 1 -.54-.3 1.43 1.43 0 0 1 -.36-.5 1.6 1.6 0 0 1 -.14-.72 1.34 1.34 0 0 1 .2-.69 1.68 1.68 0 0 1 .64-.59 4.3 4.3 0 0 1 1.16-.42 8.34 8.34 0 0 1 1.75-.19v-.45a1.61 1.61 0 0 0 -.31-1.07 1.1 1.1 0 0 0 -.89-.36 1.8 1.8 0 0 0 -.66.1 2.19 2.19 0 0 0 -.46.22c-.14.08-.25.16-.34.22a.48.48 0 0 1 -.28.1.33.33 0 0 1 -.19-.06.44.44 0 0 1 -.13-.14l-.19-.34a3.56 3.56 0 0 1 1.09-.72 3.3 3.3 0 0 1 1.29-.24 2.29 2.29 0 0 1 .9.16 1.93 1.93 0 0 1 .67.47 2.07 2.07 0 0 1 .41.73 3 3 0 0 1 .13.93v3.89zm-2.32-.65a2 2 0 0 0 .51-.06 1.91 1.91 0 0 0 .49-.15 2.48 2.48 0 0 0 .4-.26 3.92 3.92 0 0 0 .37-.34v-1.27a8.56 8.56 0 0 0 -1.26.11 3.38 3.38 0 0 0 -.84.25 1.15 1.15 0 0 0 -.48.35.76.76 0 0 0 -.14.46 1 1 0 0 0 .07.41.78.78 0 0 0 .22.28.82.82 0 0 0 .32.17 1.6 1.6 0 0 0 .34.05z"/><path d="m151.49 17.78h2.23a3.35 3.35 0 0 1 1 .12 1.84 1.84 0 0 1 .66.31 1.11 1.11 0 0 1 .38.46 1.31 1.31 0 0 1 .12.56 2 2 0 0 1 -.05.41 1.33 1.33 0 0 1 -.19.42 1.41 1.41 0 0 1 -.37.36 1.84 1.84 0 0 1 -.58.24 2 2 0 0 1 1.08.49 1.27 1.27 0 0 1 .38 1 1.61 1.61 0 0 1 -.18.78 1.58 1.58 0 0 1 -.49.54 2 2 0 0 1 -.72.33 3.19 3.19 0 0 1 -.89.11h-2.34zm1 2.63h1.17a1.57 1.57 0 0 0 .49-.07 1.07 1.07 0 0 0 .38-.21.93.93 0 0 0 .26-.33 1 1 0 0 0 0-.74.63.63 0 0 0 -.21-.28.91.91 0 0 0 -.38-.2 1.82 1.82 0 0 0 -.57-.08h-1.17zm0 .68v2h1.31a1.42 1.42 0 0 0 .94-.28.9.9 0 0 0 .35-.76 1.25 1.25 0 0 0 -.06-.4.81.81 0 0 0 -.22-.3 1 1 0 0 0 -.4-.21 2.18 2.18 0 0 0 -.61-.07z"/><path d="m160.52 23.87v-6.08h1.08v4.13a2.5 2.5 0 0 1 0 .25 1.24 1.24 0 0 1 0 .27l.11-.22.11-.18.14-.19c.09-.11.2-.27.34-.46l.47-.64.53-.73 1.45-2a1.41 1.41 0 0 1 .17-.18.33.33 0 0 1 .22-.09h.65v6.08h-1.07v-4.1a2.26 2.26 0 0 1 0-.25v-.27a2 2 0 0 1 -.11.21l-.11.19a1.73 1.73 0 0 0 -.14.19l-.34.46-.48.64-.53.73-1.45 2a.86.86 0 0 1 -.16.18.33.33 0 0 1 -.22.09z"/><path d="m171.37 17.78v.82h-2.87v5.26h-1.07v-6.08z"/><path d="m172.38 25.92v-8.14h.62a.27.27 0 0 1 .28.23l.09.72a3.41 3.41 0 0 1 .89-.77 2.3 2.3 0 0 1 1.15-.28 2.14 2.14 0 0 1 1 .2 1.94 1.94 0 0 1 .72.59 2.88 2.88 0 0 1 .47 1 5.27 5.27 0 0 1 .16 1.33 4.15 4.15 0 0 1 -.18 1.25 3.22 3.22 0 0 1 -.52 1 2.46 2.46 0 0 1 -1.93.91 2.35 2.35 0 0 1 -1-.19 2.1 2.1 0 0 1 -.7-.53v2.69zm2.72-7.38a1.73 1.73 0 0 0 -.92.24 2.7 2.7 0 0 0 -.72.68v2.94a1.68 1.68 0 0 0 .64.56 1.94 1.94 0 0 0 .78.16 1.53 1.53 0 0 0 1.31-.61 2.85 2.85 0 0 0 .45-1.73 4.4 4.4 0 0 0 -.1-1 2.14 2.14 0 0 0 -.3-.7 1.21 1.21 0 0 0 -.49-.39 1.51 1.51 0 0 0 -.65-.15z"/><path d="m181.59 17.69a2.75 2.75 0 0 1 1 .18 2.32 2.32 0 0 1 .81.53 2.51 2.51 0 0 1 .53.85 3.21 3.21 0 0 1 .19 1.16.77.77 0 0 1 0 .33.23.23 0 0 1 -.21.09h-4.06a3.33 3.33 0 0 0 .16 1 2.11 2.11 0 0 0 .39.71 1.56 1.56 0 0 0 .6.42 2 2 0 0 0 .78.15 2.41 2.41 0 0 0 .7-.1 3.46 3.46 0 0 0 .5-.2c.14-.07.25-.14.35-.2a.45.45 0 0 1 .24-.09.21.21 0 0 1 .2.1l.23.38a2.16 2.16 0 0 1 -.48.42 3.59 3.59 0 0 1 -.59.29 4.77 4.77 0 0 1 -.65.17 3.79 3.79 0 0 1 -.67.06 3.15 3.15 0 0 1 -1.16-.22 2.62 2.62 0 0 1 -.92-.62 3.09 3.09 0 0 1 -.6-1 4.23 4.23 0 0 1 -.21-1.39 3.58 3.58 0 0 1 .19-1.19 2.86 2.86 0 0 1 .56-1 2.52 2.52 0 0 1 .9-.63 2.79 2.79 0 0 1 1.22-.2zm0 .78a1.62 1.62 0 0 0 -1.22.45 2.07 2.07 0 0 0 -.55 1.24h3.32a2.11 2.11 0 0 0 -.1-.68 1.59 1.59 0 0 0 -.31-.54 1.31 1.31 0 0 0 -.49-.34 1.51 1.51 0 0 0 -.62-.13z"/><path d="m185.26 23.2a.72.72 0 0 1 .06-.29.75.75 0 0 1 .15-.24.78.78 0 0 1 .24-.16.72.72 0 0 1 .29-.06.73.73 0 0 1 .3.06.78.78 0 0 1 .24.16 1 1 0 0 1 .16.24.72.72 0 0 1 .06.29.73.73 0 0 1 -.06.3.74.74 0 0 1 -.4.4.94.94 0 0 1 -.3.05.93.93 0 0 1 -.29-.05 1 1 0 0 1 -.24-.16.75.75 0 0 1 -.15-.24.73.73 0 0 1 -.06-.3z"/></g></svg>