<svg viewBox="0 0 106.63 27.35" xmlns="http://www.w3.org/2000/svg"><g fill="#4a4a49"><path d="m5.31 2.74.14-.19a1.25 1.25 0 0 1 .4-.31.69.69 0 0 1 .25 0h1.36v8.7h-1.81v-5.23c0-.21 0-.44 0-.68s0-.48.08-.75c-.09.23-.19.45-.29.66s-.19.38-.28.53l-3 4.88a1.3 1.3 0 0 1 -.15.2l-.18.18a.94.94 0 0 1 -.22.12.49.49 0 0 1 -.24.05h-1.37v-8.7h1.81v5.19.68a7 7 0 0 1 -.07.75 6.9 6.9 0 0 1 .26-.66c.1-.2.2-.38.29-.53z"/><path d="m14.71 3.56h-3.62v7.34h-1.81v-8.7h5.43z"/><path d="m17.6 7.91v3h-1.8v-8.71h2.94a5 5 0 0 1 1.54.21 2.88 2.88 0 0 1 1.07.59 2.28 2.28 0 0 1 .62.89 3 3 0 0 1 .21 1.11 3.22 3.22 0 0 1 -.18 1.18 2.47 2.47 0 0 1 -.64.92 3 3 0 0 1 -1.07.59 4.68 4.68 0 0 1 -1.52.22zm0-1.38h1.14a1.68 1.68 0 0 0 1.26-.41 1.54 1.54 0 0 0 .37-1.12 1.63 1.63 0 0 0 -.1-.59 1.19 1.19 0 0 0 -.27-.41 1.16 1.16 0 0 0 -.51-.29 2.18 2.18 0 0 0 -.72-.11h-1.17z"/><path d="m30.33 10.9h-1.39a.61.61 0 0 1 -.38-.11.67.67 0 0 1 -.22-.28l-.59-1.67h-3.47l-.59 1.67a.66.66 0 0 1 -.21.27.6.6 0 0 1 -.38.12h-1.4l3.39-8.7h1.84zm-5.62-3.3h2.6l-.94-2.67c-.06-.14-.12-.3-.18-.49s-.12-.44-.19-.62c-.06.23-.12.43-.18.63s-.12.35-.17.49z"/><path d="m36.43 2.74a1.15 1.15 0 0 1 .14-.19 1.53 1.53 0 0 1 .18-.18l.25-.13a.69.69 0 0 1 .25 0h1.35v8.7h-1.84v-5.23c0-.21 0-.44 0-.68s0-.48.07-.75c-.09.23-.18.45-.28.66s-.2.38-.29.53l-3 4.88a1.21 1.21 0 0 1 -.14.2l-.18.18a.94.94 0 0 1 -.22.12.53.53 0 0 1 -.25.05h-1.35v-8.7h1.81v5.19.68s0 .49-.07.75a4 4 0 0 1 .28-.66c.1-.2.2-.38.29-.53zm-1.49-1.85a1.16 1.16 0 0 0 .35 0 .39.39 0 0 0 .23-.14.61.61 0 0 0 .11-.27 2.59 2.59 0 0 0 0-.44h1a.29.29 0 0 1 .26.14.68.68 0 0 1 .11.27 1 1 0 0 1 -.15.55 1.32 1.32 0 0 1 -.42.39 2.19 2.19 0 0 1 -.64.24 4.28 4.28 0 0 1 -.83.07 4.21 4.21 0 0 1 -.83-.07 2.26 2.26 0 0 1 -.65-.24 1.32 1.32 0 0 1 -.48-.39 1.1 1.1 0 0 1 -.1-.55.58.58 0 0 1 .1-.31.27.27 0 0 1 .23-.14h1a2.59 2.59 0 0 0 0 .44.61.61 0 0 0 .12.27.37.37 0 0 0 .22.14 1.19 1.19 0 0 0 .37.04z"/><path d="m46.56 2.2v1.45h-2.56v7.25h-1.79v-7.25h-2.54v-1.45z"/><path d="m53.19 2.2v1.41h-3.73v2.23h2.9v1.37h-2.9v2.28h3.73v1.41h-5.54v-8.7z"/><path d="m63.55 2.2v1.45h-2.55v7.25h-1.8v-7.25h-2.55v-1.45z"/><path d="m71.4 10.9h-1.4a.61.61 0 0 1 -.38-.11.67.67 0 0 1 -.22-.28l-.59-1.67h-3.46l-.59 1.67a.66.66 0 0 1 -.21.27.6.6 0 0 1 -.38.12h-1.4l3.39-8.7h1.84zm-5.62-3.3h2.6l-.94-2.67c-.06-.14-.12-.3-.18-.49s-.12-.4-.18-.62c-.06.23-.12.43-.18.63s-.12.35-.17.49z"/><path d="m76.8 7.55.2.45c.06-.16.13-.32.2-.47l.21-.44 2.42-4.62a.74.74 0 0 1 .11-.16.51.51 0 0 1 .13-.09h.16 1.58v8.7h-1.6v-5.36c0-.11 0-.23 0-.36v-.39l-2.46 4.72a.68.68 0 0 1 -.63.39h-.26a.79.79 0 0 1 -.37-.1.74.74 0 0 1 -.26-.29l-2.5-4.74v.4s0 .25 0 .37v5.34h-1.54v-8.7h1.57.16l.12.09a.5.5 0 0 1 .11.16l2.44 4.64z"/><path d="m83.16 9.92a.72.72 0 0 1 .07-.33.64.64 0 0 1 .18-.27.83.83 0 0 1 .3-.18.92.92 0 0 1 .38-.07 1 1 0 0 1 .43.09.86.86 0 0 1 .3.23 1 1 0 0 1 .18.34 1.4 1.4 0 0 1 .06.41 2.32 2.32 0 0 1 -.09.62 3.06 3.06 0 0 1 -.27.66 4.3 4.3 0 0 1 -.44.64 4.13 4.13 0 0 1 -.6.58l-.29-.26a.22.22 0 0 1 -.09-.11.28.28 0 0 1 0-.13.19.19 0 0 1 0-.12.47.47 0 0 1 .09-.12l.16-.17a1.55 1.55 0 0 0 .19-.24c.06-.08.12-.18.18-.28a2.19 2.19 0 0 0 .12-.33.87.87 0 0 1 -.36-.09 1.05 1.05 0 0 1 -.27-.2.75.75 0 0 1 -.18-.3 1.06 1.06 0 0 1 -.05-.37z"/><path d="m5.42 18h-3.61v7.3h-1.81v-8.7h5.42z"/><path d="m12.9 16.6v7.34h1.33v2.91a.51.51 0 0 1 -.16.37.63.63 0 0 1 -.41.13h-1.08v-2.05h-6.15v1.55a.47.47 0 0 1 -.16.37.59.59 0 0 1 -.41.13h-1.08v-3.41h1a1.2 1.2 0 0 0 .32-.29 2.42 2.42 0 0 0 .32-.55 6.51 6.51 0 0 0 .28-.9c.09-.36.17-.8.25-1.33s.14-1.13.19-1.84.09-1.51.12-2.43zm-3.98 1.4c-.05.81-.11 1.53-.19 2.16s-.17 1.19-.28 1.67a8.92 8.92 0 0 1 -.35 1.26 5 5 0 0 1 -.41.89h3.4v-5.98z"/><path d="m21 16.6v1.4h-3.77v2.23h2.9v1.37h-2.9v2.28h3.77v1.42h-5.59v-8.7z"/><path d="m25.15 25.3v-8.7h3.09a5.94 5.94 0 0 1 1.5.16 2.87 2.87 0 0 1 1 .47 1.85 1.85 0 0 1 .58.73 2.5 2.5 0 0 1 .18 1 1.9 1.9 0 0 1 -.09.58 1.79 1.79 0 0 1 -.27.51 2 2 0 0 1 -.47.45 2.77 2.77 0 0 1 -.69.33q1.74.4 1.74 1.92a2.48 2.48 0 0 1 -.21 1 2.26 2.26 0 0 1 -.62.82 2.8 2.8 0 0 1 -1 .55 4.36 4.36 0 0 1 -1.37.19zm1.8-5h1.18a3.39 3.39 0 0 0 .68-.07 1.36 1.36 0 0 0 .49-.2.88.88 0 0 0 .3-.36 1.27 1.27 0 0 0 .11-.54 1.57 1.57 0 0 0 -.09-.56.82.82 0 0 0 -.27-.36 1.16 1.16 0 0 0 -.45-.2 2.62 2.62 0 0 0 -.66-.07h-1.24zm0 1.22v2.38h1.54a2 2 0 0 0 .71-.1 1.24 1.24 0 0 0 .45-.28 1.1 1.1 0 0 0 .24-.4 1.84 1.84 0 0 0 .06-.47 1.19 1.19 0 0 0 -.08-.47.81.81 0 0 0 -.25-.36 1.12 1.12 0 0 0 -.45-.22 2.73 2.73 0 0 0 -.69-.08z"/><path d="m40.58 25.3h-1.39a.66.66 0 0 1 -.38-.11.67.67 0 0 1 -.22-.28l-.59-1.67h-3.47l-.59 1.67a.53.53 0 0 1 -.21.27.58.58 0 0 1 -.38.12h-1.35l3.4-8.7h1.84zm-5.58-3.3h2.6l-1-2.67c0-.14-.11-.3-.17-.49s-.13-.4-.19-.62c0 .23-.11.43-.17.63s-.12.35-.18.49z"/><path d="m46 22c.07.15.13.3.19.46.06-.16.12-.32.19-.47s.14-.3.22-.44l2.4-4.67a.5.5 0 0 1 .11-.16.38.38 0 0 1 .13-.09h.15 1.61v8.7h-1.62v-5.33c0-.11 0-.23 0-.36a2.56 2.56 0 0 1 0-.39l-2.49 4.72a.66.66 0 0 1 -.63.39h-.25a.76.76 0 0 1 -.37-.1.67.67 0 0 1 -.26-.29l-2.5-4.74v.4.37 5.3h-1.51v-8.7h1.57.16a.38.38 0 0 1 .13.09 1.42 1.42 0 0 1 .11.16l2.43 4.64c.08.17.14.32.23.51z"/><path d="m57 23.93a.72.72 0 0 0 .27-.09 1.15 1.15 0 0 0 .26-.19 1.19 1.19 0 0 0 .24-.35l.31-.61-3.49-6.09h1.69a.53.53 0 0 1 .37.11.91.91 0 0 1 .23.28l1.51 2.92c.1.18.19.37.27.55a5.37 5.37 0 0 1 .21.56 5.79 5.79 0 0 1 .43-1.11l1.33-2.91a1 1 0 0 1 .22-.27.57.57 0 0 1 .37-.12h1.5l-3.51 7.47a3.41 3.41 0 0 1 -.42.66 1.76 1.76 0 0 1 -.47.4 1.52 1.52 0 0 1 -.55.2 2.93 2.93 0 0 1 -.61.06 2.22 2.22 0 0 1 -.69-.08c-.14-.06-.21-.14-.21-.25v-1.07h.49z"/><path d="m68.89 18h-3.61v7.3h-1.81v-8.7h5.42z"/><path d="m78.1 21a4.72 4.72 0 0 1 -.33 1.77 4.15 4.15 0 0 1 -.9 1.41 4.33 4.33 0 0 1 -1.41.93 4.84 4.84 0 0 1 -1.82.34 4.89 4.89 0 0 1 -1.83-.34 4.44 4.44 0 0 1 -1.41-.93 4.33 4.33 0 0 1 -.91-1.41 4.92 4.92 0 0 1 -.32-1.77 4.84 4.84 0 0 1 .32-1.77 4.33 4.33 0 0 1 .91-1.41 4.28 4.28 0 0 1 1.41-.93 4.7 4.7 0 0 1 1.83-.34 4.65 4.65 0 0 1 1.82.34 4 4 0 0 1 2.31 2.34 4.68 4.68 0 0 1 .33 1.77zm-1.85 0a3.88 3.88 0 0 0 -.18-1.23 2.64 2.64 0 0 0 -.52-.93 2.31 2.31 0 0 0 -.82-.58 3.1 3.1 0 0 0 -2.19 0 2.35 2.35 0 0 0 -.83.58 2.8 2.8 0 0 0 -.52.93 4.53 4.53 0 0 0 0 2.46 2.66 2.66 0 0 0 .52.92 2.35 2.35 0 0 0 .83.58 3.1 3.1 0 0 0 2.19 0 2.31 2.31 0 0 0 .82-.58 2.51 2.51 0 0 0 .52-.92 3.88 3.88 0 0 0 .18-1.23z"/><path d="m86.42 16.6v7.34h1.33v2.91a.47.47 0 0 1 -.16.37.61.61 0 0 1 -.41.13h-1.08v-2.05h-6.1v1.55a.51.51 0 0 1 -.16.37.63.63 0 0 1 -.41.13h-1.13v-3.41h1a1.18 1.18 0 0 0 .31-.29 2.1 2.1 0 0 0 .32-.55 6.39 6.39 0 0 0 .29-.9 12.12 12.12 0 0 0 .24-1.33c.08-.52.14-1.13.19-1.84s.1-1.51.12-2.43zm-4 1.36c0 .81-.12 1.53-.2 2.16s-.17 1.19-.27 1.67a10.5 10.5 0 0 1 -.35 1.26 5.79 5.79 0 0 1 -.41.89h3.39v-5.94z"/><path d="m96.4 25.3h-1.82v-3.75h-3.83v3.75h-1.81v-8.7h1.81v3.69h3.83v-3.69h1.82z"/><path d="m106.63 21a4.92 4.92 0 0 1 -.32 1.77 4.17 4.17 0 0 1 -.91 1.41 4.29 4.29 0 0 1 -1.4.93 5.07 5.07 0 0 1 -3.65 0 4.33 4.33 0 0 1 -1.41-.93 4.17 4.17 0 0 1 -.94-1.46 4.92 4.92 0 0 1 -.29-1.72 4.84 4.84 0 0 1 .29-1.82 4.09 4.09 0 0 1 2.32-2.34 5.07 5.07 0 0 1 3.65 0 4.11 4.11 0 0 1 2.31 2.34 4.88 4.88 0 0 1 .35 1.82zm-1.84 0a3.88 3.88 0 0 0 -.18-1.23 2.64 2.64 0 0 0 -.52-.93 2.4 2.4 0 0 0 -.82-.58 2.92 2.92 0 0 0 -1.1-.2 3 3 0 0 0 -1.1.2 2.4 2.4 0 0 0 -.82.58 2.64 2.64 0 0 0 -.52.93 4.29 4.29 0 0 0 0 2.46 2.51 2.51 0 0 0 .52.92 2.4 2.4 0 0 0 .82.58 3 3 0 0 0 1.1.2 2.92 2.92 0 0 0 1.1-.2 2.4 2.4 0 0 0 .82-.58 2.51 2.51 0 0 0 .52-.92 3.88 3.88 0 0 0 .18-1.23z"/></g></svg>