<svg xmlns="http://www.w3.org/2000/svg" viewBox="0 0 98.51 60.02"><title>G5_H3</title><path d="M42.37,58.49A37.19,37.19,0,0,1,31.55,60a36.05,36.05,0,0,1-13-2.24,29.17,29.17,0,0,1-9.95-6.21,27.19,27.19,0,0,1-6.36-9.5A31.84,31.84,0,0,1,0,30,33.26,33.26,0,0,1,2.15,17.87,27.57,27.57,0,0,1,8.26,8.36a27.26,27.26,0,0,1,9.61-6.17A34.75,34.75,0,0,1,30.54,0a37.12,37.12,0,0,1,6.68.57A34.08,34.08,0,0,1,43,2.13a25.24,25.24,0,0,1,4.85,2.42,28.67,28.67,0,0,1,4,3.12l-3.12,5a3,3,0,0,1-1.91,1.44,3.39,3.39,0,0,1-2.56-.59l-2.68-1.54a17,17,0,0,0-3-1.34,25.22,25.22,0,0,0-3.7-.94,27.6,27.6,0,0,0-4.73-.36,20.35,20.35,0,0,0-7.86,1.46,16.61,16.61,0,0,0-6,4.18,18.92,18.92,0,0,0-3.81,6.54A25.49,25.49,0,0,0,11.17,30a26.17,26.17,0,0,0,1.44,9,18.78,18.78,0,0,0,4.06,6.7A17.3,17.3,0,0,0,23,49.88a22.36,22.36,0,0,0,8.25,1.45,23.22,23.22,0,0,0,5.8-.67,28.15,28.15,0,0,0,5-1.85V38.13H34.64A2.23,2.23,0,0,1,33,37.54a2,2,0,0,1-.59-1.44V29.93H51.9V53.68A31.13,31.13,0,0,1,42.37,58.49Z" style="fill:#4a4a49"/><path d="M96.48,4.91a4.76,4.76,0,0,1-1.34,3.5c-.89.89-2.41,1.34-4.55,1.34H74.47L72.36,22a36.49,36.49,0,0,1,7.23-.81,22.36,22.36,0,0,1,8.16,1.38,16.83,16.83,0,0,1,5.93,3.81,16,16,0,0,1,3.61,5.71,20.07,20.07,0,0,1,1.22,7,21.62,21.62,0,0,1-1.64,8.53,19.39,19.39,0,0,1-4.57,6.6,20.5,20.5,0,0,1-6.93,4.24A24.59,24.59,0,0,1,76.66,60a23.22,23.22,0,0,1-5.23-.57,25.35,25.35,0,0,1-4.65-1.53,24.92,24.92,0,0,1-4-2.19,24.18,24.18,0,0,1-3.31-2.62l3.08-4.26a3,3,0,0,1,2.56-1.38,4,4,0,0,1,2.07.65c.71.43,1.51.91,2.42,1.42A19.85,19.85,0,0,0,72.79,51a13.5,13.5,0,0,0,4.44.65,12.57,12.57,0,0,0,4.88-.89,9.65,9.65,0,0,0,3.51-2.5,10.67,10.67,0,0,0,2.11-3.82,15.75,15.75,0,0,0,.71-4.81,10,10,0,0,0-2.78-7.49q-2.79-2.7-8.22-2.7a25.68,25.68,0,0,0-8.57,1.54l-6.26-1.78L67.49.65h29Z" style="fill:#4a4a49"/></svg>