<svg viewBox="0 0 191.55 25.91" xmlns="http://www.w3.org/2000/svg"><g fill="#4a4a49"><path d="m6.54 1.19a1 1 0 0 1 .22-.25.42.42 0 0 1 .3-.12h.87v8.6h-1.17v-6.11c0-.17 0-.34 0-.53s0-.38.06-.59a4.68 4.68 0 0 1 -.22.5l-.23.41-4 6a1.09 1.09 0 0 1 -.22.26.49.49 0 0 1 -.31.11h-.84v-8.65h1.12v6.12.53s0 .39 0 .6c.07-.18.14-.35.22-.51a3.15 3.15 0 0 1 .23-.41z"/><path d="m13.72 3.34v.82h-2.87v5.26h-1.07v-6.08z"/><path d="m14.74 11.48v-8.14h.64a.27.27 0 0 1 .28.22l.09.72a3.36 3.36 0 0 1 .89-.76 2.32 2.32 0 0 1 1.16-.29 2.11 2.11 0 0 1 .95.21 2 2 0 0 1 .73.59 2.91 2.91 0 0 1 .46 1 5 5 0 0 1 .16 1.34 4.15 4.15 0 0 1 -.18 1.25 2.88 2.88 0 0 1 -.52 1 2.34 2.34 0 0 1 -.83.67 2.44 2.44 0 0 1 -1.1.24 2.35 2.35 0 0 1 -1-.18 2.24 2.24 0 0 1 -.7-.53v2.69zm2.71-7.38a1.73 1.73 0 0 0 -.92.24 2.55 2.55 0 0 0 -.72.68v2.98a1.57 1.57 0 0 0 .64.55 1.79 1.79 0 0 0 .78.17 1.55 1.55 0 0 0 1.31-.61 2.85 2.85 0 0 0 .46-1.77 4.36 4.36 0 0 0 -.11-1 2.14 2.14 0 0 0 -.3-.7 1.26 1.26 0 0 0 -.49-.4 1.67 1.67 0 0 0 -.65-.14z"/><path d="m24 3.25a3.09 3.09 0 0 1 1.2.22 2.65 2.65 0 0 1 .91.63 2.9 2.9 0 0 1 .58 1 4.08 4.08 0 0 1 .2 1.3 4 4 0 0 1 -.2 1.29 2.85 2.85 0 0 1 -.58 1 2.65 2.65 0 0 1 -.91.63 3.56 3.56 0 0 1 -2.41 0 2.69 2.69 0 0 1 -.92-.63 2.85 2.85 0 0 1 -.58-1 4 4 0 0 1 -.2-1.29 4.08 4.08 0 0 1 .2-1.3 2.9 2.9 0 0 1 .58-1 2.69 2.69 0 0 1 .92-.63 3.11 3.11 0 0 1 1.21-.22zm0 5.42a1.55 1.55 0 0 0 1.34-.6 2.78 2.78 0 0 0 .45-1.69 2.8 2.8 0 0 0 -.45-1.69 1.55 1.55 0 0 0 -1.34-.6 2 2 0 0 0 -.8.15 1.64 1.64 0 0 0 -.56.45 2.14 2.14 0 0 0 -.34.73 4 4 0 0 0 -.11 1 2.78 2.78 0 0 0 .45 1.69 1.59 1.59 0 0 0 1.36.56z"/><path d="m28.26 3.34h2.23a3.4 3.4 0 0 1 1 .12 1.69 1.69 0 0 1 .66.31 1.24 1.24 0 0 1 .38.45 1.39 1.39 0 0 1 .12.57 2 2 0 0 1 0 .41 1.43 1.43 0 0 1 -.19.42 1.38 1.38 0 0 1 -.46.38 1.72 1.72 0 0 1 -.58.25 1.94 1.94 0 0 1 1.07.49 1.23 1.23 0 0 1 .38 1 1.68 1.68 0 0 1 -.17.77 1.61 1.61 0 0 1 -.49.55 2.16 2.16 0 0 1 -.72.33 3.62 3.62 0 0 1 -.89.11h-2.34zm1 2.63h1.17a1.85 1.85 0 0 0 .48-.07 1.79 1.79 0 0 0 .39-.21 1 1 0 0 0 .25-.33 1 1 0 0 0 .09-.42.87.87 0 0 0 -.06-.32.69.69 0 0 0 -.2-.29 1.13 1.13 0 0 0 -.38-.19 1.86 1.86 0 0 0 -.57-.08h-1.14zm0 .68v2h1.3a1.45 1.45 0 0 0 .95-.28.92.92 0 0 0 .35-.76 1 1 0 0 0 -.07-.4.72.72 0 0 0 -.21-.31 1.25 1.25 0 0 0 -.4-.2 2.18 2.18 0 0 0 -.61-.07z"/><path d="m36.78 3.25a3.09 3.09 0 0 1 1.2.22 2.56 2.56 0 0 1 .91.63 2.74 2.74 0 0 1 .58 1 4.08 4.08 0 0 1 .2 1.3 4 4 0 0 1 -.2 1.29 2.7 2.7 0 0 1 -.58 1 2.56 2.56 0 0 1 -.91.63 3.56 3.56 0 0 1 -2.41 0 2.61 2.61 0 0 1 -1.49-1.62 3.72 3.72 0 0 1 -.2-1.29 3.82 3.82 0 0 1 .2-1.3 2.61 2.61 0 0 1 .58-1 2.56 2.56 0 0 1 .91-.63 3.11 3.11 0 0 1 1.21-.23zm0 5.42a1.55 1.55 0 0 0 1.34-.6 2.78 2.78 0 0 0 .45-1.69 2.8 2.8 0 0 0 -.45-1.69 1.55 1.55 0 0 0 -1.34-.6 2 2 0 0 0 -.8.15 1.64 1.64 0 0 0 -.56.45 2.14 2.14 0 0 0 -.34.73 4 4 0 0 0 -.11 1 2.78 2.78 0 0 0 .45 1.69 1.59 1.59 0 0 0 1.36.56z"/><path d="m41 9.43v-6.08h1.1v4.13.25s0 .18 0 .27l.11-.22.11-.18.14-.19.29-.41c.13-.19.29-.4.47-.64l.53-.73 1.45-2a1.41 1.41 0 0 1 .17-.18.33.33 0 0 1 .22-.09h.64v6.06h-1.06v-4.13a2.26 2.26 0 0 1 0-.25v-.28a2.25 2.25 0 0 1 -.07.24l-.1.17a1 1 0 0 0 -.14.19l-.34.46-.52.64-.53.73-1.45 2a1.29 1.29 0 0 1 -.16.18.33.33 0 0 1 -.22.09zm2.7-7.56a1.22 1.22 0 0 0 .41-.06.5.5 0 0 0 .27-.18.74.74 0 0 0 .16-.32 2.24 2.24 0 0 0 .05-.49h.62a.19.19 0 0 1 .17.1.46.46 0 0 1 .06.23 1.19 1.19 0 0 1 -.12.54 1.21 1.21 0 0 1 -.32.41 1.65 1.65 0 0 1 -.55.26 2.75 2.75 0 0 1 -.73.09 2.7 2.7 0 0 1 -.72-.09 1.65 1.65 0 0 1 -.55-.26 1.24 1.24 0 0 1 -.35-.41 1.19 1.19 0 0 1 -.1-.54.46.46 0 0 1 0-.23.21.21 0 0 1 .18-.1h.62a2.24 2.24 0 0 0 0 .49.73.73 0 0 0 .15.32.5.5 0 0 0 .27.18 1.29 1.29 0 0 0 .48.06z"/><path d="m56.06 3.34v6.08h-1.06v-2.84h-2.93v2.84h-1.07v-6.08h1.07v2.43h2.93v-2.43z"/><path d="m60.32 3.25a3.09 3.09 0 0 1 1.2.22 2.65 2.65 0 0 1 .91.63 2.9 2.9 0 0 1 .58 1 4.08 4.08 0 0 1 .2 1.3 4 4 0 0 1 -.21 1.27 2.85 2.85 0 0 1 -.58 1 2.65 2.65 0 0 1 -.91.63 3.56 3.56 0 0 1 -2.41 0 2.6 2.6 0 0 1 -.92-.63 2.85 2.85 0 0 1 -.58-1 4 4 0 0 1 -.2-1.29 4.08 4.08 0 0 1 .2-1.3 2.9 2.9 0 0 1 .58-1 2.6 2.6 0 0 1 .92-.63 3.11 3.11 0 0 1 1.22-.2zm0 5.42a1.56 1.56 0 0 0 1.34-.6 2.78 2.78 0 0 0 .44-1.69 2.8 2.8 0 0 0 -.44-1.69 1.56 1.56 0 0 0 -1.34-.6 2 2 0 0 0 -.8.15 1.64 1.64 0 0 0 -.56.45 2.14 2.14 0 0 0 -.34.73 4 4 0 0 0 -.11 1 2.78 2.78 0 0 0 .49 1.65 1.59 1.59 0 0 0 1.32.6z"/><path d="m66.22 11.21a.58.58 0 0 1 -.13.2.44.44 0 0 1 -.25.07h-.79l1.1-2.41-2.5-5.73h.92a.31.31 0 0 1 .22.07.48.48 0 0 1 .11.15l1.63 3.83.09.27a2.13 2.13 0 0 1 .07.27q.07-.27.18-.54l1.58-3.83a.36.36 0 0 1 .12-.16.34.34 0 0 1 .2-.06h.84z"/><path d="m69.87 3.34h5.73v.82h-2.33v5.26h-1.07v-5.26h-2.33z"/><path d="m79.77 1.91a3.11 3.11 0 0 0 -1 .27 2.08 2.08 0 0 0 -.72.59 2.47 2.47 0 0 0 -.44.89 5.57 5.57 0 0 0 -.17 1.16 1.93 1.93 0 0 1 .38-.52 2.32 2.32 0 0 1 .52-.4 2.58 2.58 0 0 1 .64-.25 2.86 2.86 0 0 1 .73-.09 2.53 2.53 0 0 1 1.09.22 2.24 2.24 0 0 1 .82.6 2.6 2.6 0 0 1 .52.94 3.89 3.89 0 0 1 .18 1.21 3.6 3.6 0 0 1 -.2 1.23 2.61 2.61 0 0 1 -.6.94 2.51 2.51 0 0 1 -.92.59 3.21 3.21 0 0 1 -1.2.21 3 3 0 0 1 -1.14-.2 2.27 2.27 0 0 1 -.93-.67 3.45 3.45 0 0 1 -.61-1.23 6.83 6.83 0 0 1 -.23-1.89 8.86 8.86 0 0 1 .17-1.77 4.15 4.15 0 0 1 .57-1.39 2.87 2.87 0 0 1 1-1 3.53 3.53 0 0 1 1.46-.35l2.17-.24.06.55a.54.54 0 0 1 -.06.32.28.28 0 0 1 -.26.13zm-.41 6.8a1.65 1.65 0 0 0 1.36-.57 2.49 2.49 0 0 0 .46-1.61 2.62 2.62 0 0 0 -.44-1.6 1.59 1.59 0 0 0 -1.33-.57 2 2 0 0 0 -.76.13 1.56 1.56 0 0 0 -.58.39 1.92 1.92 0 0 0 -.37.64 2.83 2.83 0 0 0 -.13.86 3.65 3.65 0 0 0 .12 1 2 2 0 0 0 .34.73 1.43 1.43 0 0 0 .55.46 1.75 1.75 0 0 0 .78.14z"/><path d="m85.26 11.21a.6.6 0 0 1 -.14.2.38.38 0 0 1 -.24.07h-.8l1.11-2.41-2.5-5.73h.92a.32.32 0 0 1 .22.07.48.48 0 0 1 .11.15l1.62 3.83a1.43 1.43 0 0 1 .09.27 2.13 2.13 0 0 1 .08.27q.08-.27.18-.54l1.57-3.83a.48.48 0 0 1 .13-.16.33.33 0 0 1 .19-.06h.85z"/><path d="m93.28 3.64a.63.63 0 0 1 .22-.21.53.53 0 0 1 .3-.09h.83l-1.58 2.32a1.37 1.37 0 0 1 -.3.36 1.09 1.09 0 0 1 -.38.22 1.21 1.21 0 0 1 .48.24 1.55 1.55 0 0 1 .36.43l1.59 2.51h-.74a.78.78 0 0 1 -.44-.1.7.7 0 0 1 -.27-.27l-1.19-1.89a.92.92 0 0 0 -.84-.47h-.66v2.74h-1.07v-6.09h1.07v2.66h.58a.86.86 0 0 0 .76-.44z"/><path d="m106.47 5.08a4.7 4.7 0 0 1 -.31 1.75 4.07 4.07 0 0 1 -.9 1.38 4 4 0 0 1 -1.38.89 4.93 4.93 0 0 1 -1.8.32h-3.31v-8.68h3.31a4.93 4.93 0 0 1 1.8.32 4.13 4.13 0 0 1 1.38.9 4 4 0 0 1 .9 1.37 4.73 4.73 0 0 1 .31 1.75zm-1.65 0a4 4 0 0 0 -.19-1.28 2.66 2.66 0 0 0 -.55-1 2.3 2.3 0 0 0 -.86-.6 3 3 0 0 0 -1.14-.2h-1.69v6.14h1.69a3 3 0 0 0 1.14-.21 2.32 2.32 0 0 0 .86-.61 2.66 2.66 0 0 0 .55-1 3.91 3.91 0 0 0 .19-1.24z"/><path d="m110.21 3.17a3.12 3.12 0 0 1 1.07.18 2.45 2.45 0 0 1 .85.55 2.49 2.49 0 0 1 .55.87 3.37 3.37 0 0 1 .2 1.19.94.94 0 0 1 -.07.45.3.3 0 0 1 -.28.12h-3.81a3.12 3.12 0 0 0 .17.82 1.78 1.78 0 0 0 .35.57 1.32 1.32 0 0 0 .51.33 1.76 1.76 0 0 0 .66.11 1.91 1.91 0 0 0 .62-.08 3.36 3.36 0 0 0 .46-.19l.34-.18a.54.54 0 0 1 .28-.09.31.31 0 0 1 .28.14l.43.54a2.55 2.55 0 0 1 -.56.48 3.11 3.11 0 0 1 -.63.32 3.35 3.35 0 0 1 -.68.16 5.29 5.29 0 0 1 -.67 0 3.36 3.36 0 0 1 -1.2-.21 3.07 3.07 0 0 1 -1-.63 3.1 3.1 0 0 1 -.64-1 4.06 4.06 0 0 1 -.23-1.42 3.62 3.62 0 0 1 .2-1.19 2.77 2.77 0 0 1 .59-1 2.73 2.73 0 0 1 .93-.65 3 3 0 0 1 1.28-.19zm0 1.06a1.36 1.36 0 0 0 -1 .37 1.83 1.83 0 0 0 -.47 1h2.8a1.91 1.91 0 0 0 -.08-.54 1.39 1.39 0 0 0 -.24-.45 1.33 1.33 0 0 0 -.42-.3 1.41 1.41 0 0 0 -.56-.08z"/><path d="m115.49.5v8.92h-1.49v-8.92z"/><path d="m118.47.5v8.92h-1.47v-8.92z"/><path d="m128.85 9.29a5.52 5.52 0 0 1 -1.6.23 5.3 5.3 0 0 1 -1.92-.33 4.42 4.42 0 0 1 -1.47-.92 3.92 3.92 0 0 1 -.94-1.41 4.66 4.66 0 0 1 -.33-1.78 4.91 4.91 0 0 1 .32-1.79 4.06 4.06 0 0 1 .9-1.41 4.08 4.08 0 0 1 1.42-.88 5.28 5.28 0 0 1 1.87-.35 6.2 6.2 0 0 1 1 .08 5 5 0 0 1 .85.23 4 4 0 0 1 .72.36 4.44 4.44 0 0 1 .59.46l-.46.73a.46.46 0 0 1 -.28.22.56.56 0 0 1 -.38-.09l-.4-.23a3 3 0 0 0 -.44-.2 3.57 3.57 0 0 0 -.54-.13 3.65 3.65 0 0 0 -.7-.06 2.86 2.86 0 0 0 -1.16.22 2.42 2.42 0 0 0 -.89.62 2.76 2.76 0 0 0 -.56 1 3.87 3.87 0 0 0 -.2 1.26 3.91 3.91 0 0 0 .21 1.33 3 3 0 0 0 .6 1 2.53 2.53 0 0 0 .94.55 3.34 3.34 0 0 0 1.21.21 3.22 3.22 0 0 0 .86-.1 3.47 3.47 0 0 0 .74-.27v-1.56h-1.09a.3.3 0 0 1 -.24-.09.26.26 0 0 1 -.09-.21v-.91h2.88v3.51a4.68 4.68 0 0 1 -1.42.71z"/><path d="m136.85 1.37a.7.7 0 0 1 -.2.52.94.94 0 0 1 -.67.2h-2.39l-.31 1.81a5.39 5.39 0 0 1 1.07-.12 3.45 3.45 0 0 1 1.21.2 2.53 2.53 0 0 1 .87.57 2.33 2.33 0 0 1 .54.84 3 3 0 0 1 .18 1 3.22 3.22 0 0 1 -.25 1.26 2.8 2.8 0 0 1 -.67 1 2.9 2.9 0 0 1 -1 .62 3.55 3.55 0 0 1 -1.28.23 3.33 3.33 0 0 1 -.78-.09 3.61 3.61 0 0 1 -.68-.22 4.89 4.89 0 0 1 -.6-.33 4.88 4.88 0 0 1 -.49-.38l.46-.63a.44.44 0 0 1 .38-.21.51.51 0 0 1 .3.1l.36.21a4.55 4.55 0 0 0 .48.21 2.08 2.08 0 0 0 .65.09 1.81 1.81 0 0 0 .72-.13 1.41 1.41 0 0 0 .52-.37 1.53 1.53 0 0 0 .31-.56 2.35 2.35 0 0 0 .11-.71 1.5 1.5 0 0 0 -.41-1.11 1.68 1.68 0 0 0 -1.28-.37 3.82 3.82 0 0 0 -1.26.23l-.9-.23.72-4.22h4.29z"/><path d="m142.14 8.31h1.76v-5.06c0-.19 0-.4 0-.62l-1.24 1.05a.61.61 0 0 1 -.22.1.41.41 0 0 1 -.19 0l-.17-.07a.36.36 0 0 1 -.11-.1l-.46-.61 2.65-2.27h1.22v7.58h1.56v1.11h-4.8z"/><path d="m153.68 1.37a.66.66 0 0 1 -.2.52.92.92 0 0 1 -.67.2h-2.38l-.31 1.81a5.39 5.39 0 0 1 1.07-.12 3.43 3.43 0 0 1 1.2.2 2.57 2.57 0 0 1 .88.57 2.45 2.45 0 0 1 .53.84 3 3 0 0 1 .18 1 3.22 3.22 0 0 1 -.24 1.26 2.83 2.83 0 0 1 -.68 1 2.77 2.77 0 0 1 -1 .62 3.57 3.57 0 0 1 -1.29.23 3.19 3.19 0 0 1 -.77-.09 4 4 0 0 1 -.69-.22 4.75 4.75 0 0 1 -.59-.33 4 4 0 0 1 -.49-.38l.46-.63a.43.43 0 0 1 .37-.21.54.54 0 0 1 .31.1l.36.21a4.32 4.32 0 0 0 .47.21 2.1 2.1 0 0 0 .66.09 1.81 1.81 0 0 0 .72-.13 1.41 1.41 0 0 0 .52-.37 1.53 1.53 0 0 0 .31-.56 2.34 2.34 0 0 0 .1-.71 1.46 1.46 0 0 0 -.41-1.11 1.65 1.65 0 0 0 -1.21-.4 3.88 3.88 0 0 0 -1.27.23l-.94-.2.72-4.26h4.28z"/><path d="m159.28 5.66a10 10 0 0 0 .31 2.43 9.59 9.59 0 0 0 .85 2.24.52.52 0 0 1 .07.21.46.46 0 0 1 0 .17.42.42 0 0 1 -.08.12l-.11.08-.66.41a9.37 9.37 0 0 1 -.75-1.38 9.32 9.32 0 0 1 -.51-1.39 10 10 0 0 1 -.3-1.42 12 12 0 0 1 0-2.94 9.81 9.81 0 0 1 .3-1.43 9.32 9.32 0 0 1 .51-1.39 9.28 9.28 0 0 1 .74-1.37l.66.4.11.08a.42.42 0 0 1 .08.12.46.46 0 0 1 0 .17.52.52 0 0 1 -.07.21 9.5 9.5 0 0 0 -.85 2.25 9.87 9.87 0 0 0 -.3 2.43z"/><path d="m166.85 1.37a.7.7 0 0 1 -.2.52.92.92 0 0 1 -.67.2h-2.38l-.31 1.81a5.29 5.29 0 0 1 1.06-.12 3.45 3.45 0 0 1 1.21.2 2.57 2.57 0 0 1 .88.57 2.45 2.45 0 0 1 .53.84 3 3 0 0 1 .18 1 3.22 3.22 0 0 1 -.24 1.26 2.83 2.83 0 0 1 -.68 1 2.94 2.94 0 0 1 -1 .62 3.57 3.57 0 0 1 -1.29.23 3.19 3.19 0 0 1 -.77-.09 3.71 3.71 0 0 1 -.69-.22 4.75 4.75 0 0 1 -.59-.33 4 4 0 0 1 -.49-.38l.45-.63a.46.46 0 0 1 .38-.21.57.57 0 0 1 .31.1l.36.21a4.32 4.32 0 0 0 .47.21 2.1 2.1 0 0 0 .66.09 1.81 1.81 0 0 0 .72-.13 1.41 1.41 0 0 0 .52-.37 1.69 1.69 0 0 0 .31-.56 2.34 2.34 0 0 0 .1-.71 1.46 1.46 0 0 0 -.41-1.11 1.65 1.65 0 0 0 -1.27-.37 3.83 3.83 0 0 0 -1.27.23l-.88-.23.72-4.22h4.28z"/><path d="m173.81 1.37a.7.7 0 0 1 -.2.52.92.92 0 0 1 -.67.2h-2.38l-.31 1.81a5.29 5.29 0 0 1 1.06-.12 3.45 3.45 0 0 1 1.21.2 2.57 2.57 0 0 1 .88.57 2.45 2.45 0 0 1 .53.84 3 3 0 0 1 .18 1 3.22 3.22 0 0 1 -.24 1.26 2.83 2.83 0 0 1 -.68 1 2.94 2.94 0 0 1 -1 .62 3.57 3.57 0 0 1 -1.29.23 3.19 3.19 0 0 1 -.77-.09 3.71 3.71 0 0 1 -.69-.22 4.75 4.75 0 0 1 -.59-.33 4 4 0 0 1 -.49-.38l.45-.63a.46.46 0 0 1 .38-.21.57.57 0 0 1 .31.1l.36.21a4.32 4.32 0 0 0 .47.21 2.1 2.1 0 0 0 .66.09 1.81 1.81 0 0 0 .72-.13 1.41 1.41 0 0 0 .52-.37 1.69 1.69 0 0 0 .31-.56 2.34 2.34 0 0 0 .1-.71 1.46 1.46 0 0 0 -.41-1.11 1.65 1.65 0 0 0 -1.23-.37 3.83 3.83 0 0 0 -1.27.23l-.92-.23.72-4.22h4.28z"/><path d="m178.73 6.05.19-.24.17-.24a2.45 2.45 0 0 1 -.66.29 3.08 3.08 0 0 1 -.75.1 2.46 2.46 0 0 1 -.89-.16 2.19 2.19 0 0 1 -.77-.47 2.47 2.47 0 0 1 -.54-.78 2.62 2.62 0 0 1 -.21-1.09 2.83 2.83 0 0 1 .22-1.09 2.77 2.77 0 0 1 .61-.89 2.84 2.84 0 0 1 .9-.61 3.18 3.18 0 0 1 1.21-.22 3.29 3.29 0 0 1 1.2.21 2.52 2.52 0 0 1 .9.59 2.63 2.63 0 0 1 .58.9 3.32 3.32 0 0 1 .2 1.16 3.7 3.7 0 0 1 -.07.76 3.92 3.92 0 0 1 -.2.69 4.33 4.33 0 0 1 -.3.66c-.12.21-.26.42-.4.63l-2 2.83a.88.88 0 0 1 -.31.24 1 1 0 0 1 -.46.1h-1.35zm1-2.69a1.74 1.74 0 0 0 -.1-.63 1.33 1.33 0 0 0 -.31-.47 1.35 1.35 0 0 0 -.47-.3 1.64 1.64 0 0 0 -.6-.1 1.7 1.7 0 0 0 -.61.11 1.44 1.44 0 0 0 -.46.31 1.33 1.33 0 0 0 -.29.47 1.64 1.64 0 0 0 -.1.6 1.54 1.54 0 0 0 .37 1.11 1.46 1.46 0 0 0 1.07.38 1.62 1.62 0 0 0 .64-.12 1.29 1.29 0 0 0 .76-.78 1.57 1.57 0 0 0 .07-.58z"/><path d="m188.4 5.08a6.74 6.74 0 0 1 -.25 2 4 4 0 0 1 -.67 1.39 2.71 2.71 0 0 1 -1 .81 3 3 0 0 1 -1.27.27 2.89 2.89 0 0 1 -1.21-.3 2.79 2.79 0 0 1 -1-.81 4.18 4.18 0 0 1 -.66-1.39 7.12 7.12 0 0 1 -.24-2 7.12 7.12 0 0 1 .24-2 4 4 0 0 1 .66-1.38 2.6 2.6 0 0 1 1-.81 2.89 2.89 0 0 1 1.2-.21 3 3 0 0 1 1.27.27 2.53 2.53 0 0 1 1 .81 3.86 3.86 0 0 1 .67 1.38 6.74 6.74 0 0 1 .26 1.97zm-1.53 0a7.43 7.43 0 0 0 -.14-1.56 3.14 3.14 0 0 0 -.37-1 1.31 1.31 0 0 0 -.53-.52 1.52 1.52 0 0 0 -.63-.14 1.47 1.47 0 0 0 -.61.14 1.38 1.38 0 0 0 -.53.52 3.15 3.15 0 0 0 -.36 1 7.51 7.51 0 0 0 -.13 1.56 7.51 7.51 0 0 0 .13 1.56 3.32 3.32 0 0 0 .36 1 1.42 1.42 0 0 0 .53.51 1.34 1.34 0 0 0 .61.15 1.39 1.39 0 0 0 .63-.15 1.35 1.35 0 0 0 .53-.51 3.31 3.31 0 0 0 .37-1 7.43 7.43 0 0 0 .14-1.56z"/><path d="m190.26 5.66a10.36 10.36 0 0 0 -.26-2.43 10 10 0 0 0 -.89-2.23.52.52 0 0 1 -.11-.23.31.31 0 0 1 0-.17.42.42 0 0 1 .08-.12l.11-.08.66-.4a10.41 10.41 0 0 1 .76 1.37 9.32 9.32 0 0 1 .51 1.39 9.79 9.79 0 0 1 .29 1.43 12.05 12.05 0 0 1 0 2.94 9.93 9.93 0 0 1 -.29 1.42 9.32 9.32 0 0 1 -.51 1.39 10.5 10.5 0 0 1 -.76 1.38l-.66-.41-.11-.08a.42.42 0 0 1 -.08-.12.31.31 0 0 1 0-.17.52.52 0 0 1 .07-.21 10.08 10.08 0 0 0 .93-2.24 10.49 10.49 0 0 0 .26-2.43z"/><path d="m5.93 17.74v5.26h1.07v2.57a.37.37 0 0 1 -.08.25.36.36 0 0 1 -.23.08h-.61v-2.08h-5.08v1.79a.44.44 0 0 1 -.07.21.27.27 0 0 1 -.23.09h-.7v-2.91h.26a1 1 0 0 0 .4 0 1 1 0 0 0 .39-.29 2.41 2.41 0 0 0 .35-.59 5.18 5.18 0 0 0 .29-.95c.09-.39.17-.87.24-1.42s.12-1.21.16-2zm-3 .84c0 .63-.1 1.18-.17 1.66a10.39 10.39 0 0 1 -.25 1.26 5.79 5.79 0 0 1 -.31.92 2.74 2.74 0 0 1 -.36.62h3v-4.46z"/><path d="m13.45 17.74v6.08h-1.07v-5.24h-1.92a18.72 18.72 0 0 1 -.21 2 9.22 9.22 0 0 1 -.35 1.42 3.91 3.91 0 0 1 -.45 1 2.42 2.42 0 0 1 -.52.57 1.55 1.55 0 0 1 -.56.28 3 3 0 0 1 -.58.07c-.34 0-.51-.06-.51-.16v-.68h.31a1.47 1.47 0 0 0 .41-.08 1.14 1.14 0 0 0 .42-.28 2.45 2.45 0 0 0 .38-.57 4.59 4.59 0 0 0 .34-1 12.25 12.25 0 0 0 .26-1.44c.08-.56.14-1.23.18-2z"/><path d="m19.36 23.82h-1v-2.56h-.47-.28l-.19.08a.53.53 0 0 0 -.14.12l-.12.17-1.34 1.8a.63.63 0 0 1 -.25.28.79.79 0 0 1 -.42.09h-.75l1.77-2.29a1.11 1.11 0 0 1 .57-.48 2.32 2.32 0 0 1 -.78-.22 1.6 1.6 0 0 1 -.52-.36 1.34 1.34 0 0 1 -.29-.48 1.54 1.54 0 0 1 -.09-.52 1.67 1.67 0 0 1 .12-.62 1.42 1.42 0 0 1 .39-.56 2 2 0 0 1 .7-.39 2.92 2.92 0 0 1 1-.16h2.07zm-3.25-4.29a.92.92 0 0 0 .36.77 1.54 1.54 0 0 0 1 .28h.89v-2.12h-1a1.35 1.35 0 0 0 -.57.1.94.94 0 0 0 -.58.59 1.31 1.31 0 0 0 -.1.38z"/><path d="m29.2 17.74v6.08h-1.08v-5.26h-2.91v5.26h-1.08v-6.08z"/><path d="m33.45 17.65a3.09 3.09 0 0 1 1.2.22 2.56 2.56 0 0 1 .91.63 2.74 2.74 0 0 1 .58 1 4.08 4.08 0 0 1 .2 1.3 4 4 0 0 1 -.2 1.29 2.7 2.7 0 0 1 -.58 1 2.56 2.56 0 0 1 -.91.63 3.56 3.56 0 0 1 -2.41 0 2.61 2.61 0 0 1 -1.49-1.62 3.72 3.72 0 0 1 -.2-1.29 3.82 3.82 0 0 1 .2-1.3 2.61 2.61 0 0 1 .58-1 2.56 2.56 0 0 1 .91-.63 3.11 3.11 0 0 1 1.21-.23zm0 5.42a1.55 1.55 0 0 0 1.34-.6 2.8 2.8 0 0 0 .45-1.69 2.8 2.8 0 0 0 -.45-1.69 1.55 1.55 0 0 0 -1.34-.6 2 2 0 0 0 -.8.15 1.64 1.64 0 0 0 -.56.45 2.18 2.18 0 0 0 -.34.72 4.11 4.11 0 0 0 -.11 1 2.8 2.8 0 0 0 .45 1.69 1.59 1.59 0 0 0 1.36.57z"/><path d="m42.84 17.74v6.08h-1.07v-5.24h-1.92c-.05.77-.12 1.44-.21 2a10.51 10.51 0 0 1 -.35 1.42 3.91 3.91 0 0 1 -.45 1 2.66 2.66 0 0 1 -.52.57 1.52 1.52 0 0 1 -.57.28 2.78 2.78 0 0 1 -.57.07c-.34 0-.51-.06-.51-.16v-.68h.33a1.53 1.53 0 0 0 .41-.07 1 1 0 0 0 .41-.28 2.18 2.18 0 0 0 .39-.57 5.24 5.24 0 0 0 .34-1 12.25 12.25 0 0 0 .26-1.44c.08-.56.13-1.23.17-2z"/><path d="m49.6 17.74v6.08h-1.08v-2.82h-2.92v2.84h-1.07v-6.1h1.07v2.43h2.92v-2.43z"/><path d="m53.85 17.65a3.09 3.09 0 0 1 1.2.22 2.65 2.65 0 0 1 .91.63 2.74 2.74 0 0 1 .58 1 4.08 4.08 0 0 1 .2 1.3 4 4 0 0 1 -.2 1.29 2.7 2.7 0 0 1 -.58 1 2.65 2.65 0 0 1 -.91.63 3.56 3.56 0 0 1 -2.41 0 2.61 2.61 0 0 1 -1.49-1.62 3.71 3.71 0 0 1 -.21-1.29 3.81 3.81 0 0 1 .21-1.3 2.61 2.61 0 0 1 .58-1 2.56 2.56 0 0 1 .91-.63 3.11 3.11 0 0 1 1.21-.23zm0 5.42a1.55 1.55 0 0 0 1.34-.6 2.8 2.8 0 0 0 .45-1.69 2.8 2.8 0 0 0 -.45-1.69 1.55 1.55 0 0 0 -1.34-.6 2 2 0 0 0 -.8.15 1.64 1.64 0 0 0 -.56.45 2.18 2.18 0 0 0 -.34.72 4.11 4.11 0 0 0 -.11 1 2.8 2.8 0 0 0 .45 1.69 1.59 1.59 0 0 0 1.36.57z"/><path d="m62 17.74v.82h-2.84v5.26h-1.07v-6.08z"/><path d="m65.32 17.65a3.09 3.09 0 0 1 1.2.22 2.56 2.56 0 0 1 .91.63 2.61 2.61 0 0 1 .58 1 3.82 3.82 0 0 1 .2 1.3 3.72 3.72 0 0 1 -.2 1.29 2.61 2.61 0 0 1 -1.49 1.62 3.56 3.56 0 0 1 -2.41 0 2.61 2.61 0 0 1 -1.49-1.62 3.72 3.72 0 0 1 -.2-1.29 3.82 3.82 0 0 1 .2-1.3 2.61 2.61 0 0 1 .58-1 2.56 2.56 0 0 1 .91-.63 3.11 3.11 0 0 1 1.21-.22zm0 5.42a1.55 1.55 0 0 0 1.34-.6 2.8 2.8 0 0 0 .45-1.69 2.8 2.8 0 0 0 -.45-1.69 1.55 1.55 0 0 0 -1.34-.6 1.92 1.92 0 0 0 -.79.15 1.59 1.59 0 0 0 -.57.45 2 2 0 0 0 -.33.72 3.63 3.63 0 0 0 -.12 1 2.8 2.8 0 0 0 .49 1.66 1.59 1.59 0 0 0 1.32.6z"/><path d="m77.7 17.74v6.08h-1.08v-5.26h-2.91v5.26h-1.08v-6.08z"/><path d="m82 17.65a3 3 0 0 1 1.2.22 2.56 2.56 0 0 1 .91.63 2.61 2.61 0 0 1 .58 1 3.82 3.82 0 0 1 .2 1.3 3.72 3.72 0 0 1 -.2 1.29 2.61 2.61 0 0 1 -1.49 1.62 3.21 3.21 0 0 1 -1.2.21 3.3 3.3 0 0 1 -1.21-.21 2.65 2.65 0 0 1 -.91-.63 2.7 2.7 0 0 1 -.58-1 4 4 0 0 1 -.2-1.29 4.08 4.08 0 0 1 .2-1.3 2.74 2.74 0 0 1 .58-1 2.65 2.65 0 0 1 .91-.63 3.11 3.11 0 0 1 1.21-.21zm0 5.42a1.58 1.58 0 0 0 1.35-.6 2.88 2.88 0 0 0 .44-1.69 2.88 2.88 0 0 0 -.44-1.69 1.58 1.58 0 0 0 -1.35-.6 1.92 1.92 0 0 0 -.79.15 1.59 1.59 0 0 0 -.57.45 2 2 0 0 0 -.33.72 3.64 3.64 0 0 0 -.11 1 2.88 2.88 0 0 0 .44 1.69 1.59 1.59 0 0 0 1.36.57z"/><path d="m90.14 17.74v.82h-2.87v5.26h-1.08v-6.08z"/><path d="m91.15 25.88v-8.14h.64a.26.26 0 0 1 .28.22l.09.72a3.25 3.25 0 0 1 .9-.76 2.28 2.28 0 0 1 1.15-.29 2.24 2.24 0 0 1 1 .2 2 2 0 0 1 .73.6 2.91 2.91 0 0 1 .46 1 5 5 0 0 1 .16 1.34 4.15 4.15 0 0 1 -.23 1.23 2.88 2.88 0 0 1 -.52 1 2.31 2.31 0 0 1 -.82.67 2.5 2.5 0 0 1 -1.1.24 2.06 2.06 0 0 1 -1.67-.71v2.69zm2.71-7.38a1.69 1.69 0 0 0 -.91.24 2.58 2.58 0 0 0 -.73.68v2.94a1.7 1.7 0 0 0 .64.55 1.86 1.86 0 0 0 .79.17 1.54 1.54 0 0 0 1.3-.61 2.78 2.78 0 0 0 .46-1.73 4.4 4.4 0 0 0 -.1-1 2.38 2.38 0 0 0 -.31-.74 1.23 1.23 0 0 0 -.48-.4 1.73 1.73 0 0 0 -.66-.1z"/><path d="m99.56 25.61a.58.58 0 0 1 -.13.2.44.44 0 0 1 -.25.07h-.79l1.11-2.41-2.5-5.73h.92a.31.31 0 0 1 .22.07.36.36 0 0 1 .11.15l1.63 3.83.09.27a2.13 2.13 0 0 1 .07.27q.07-.27.18-.54l1.57-3.79a.36.36 0 0 1 .12-.16.34.34 0 0 1 .2-.06h.89z"/><path d="m106 20a.89.89 0 0 0 .31.3.9.9 0 0 0 .44.11h.52v-2.67h1v2.63h.51a.86.86 0 0 0 .77-.41l1.31-1.96a.7.7 0 0 1 .2-.22.57.57 0 0 1 .29-.08h.84l-1.59 2.32a1.37 1.37 0 0 1 -.3.36 1.09 1.09 0 0 1 -.38.22 1.21 1.21 0 0 1 .48.24 1.55 1.55 0 0 1 .36.43l1.59 2.51h-.74a.88.88 0 0 1 -.44-.09.61.61 0 0 1 -.24-.28l-1.18-1.89a1 1 0 0 0 -.85-.47h-.61v2.74h-1v-2.7h-.6a1 1 0 0 0 -.49.12.93.93 0 0 0 -.36.35l-1.18 1.89a.61.61 0 0 1 -.24.28.9.9 0 0 1 -.44.09h-.74l1.59-2.51a1.75 1.75 0 0 1 .36-.43 1.14 1.14 0 0 1 .48-.24 1.24 1.24 0 0 1 -.39-.22 1.57 1.57 0 0 1 -.29-.36l-1.58-2.32h.84a.57.57 0 0 1 .28.08.7.7 0 0 1 .2.22z"/><path d="m115.6 17.65a2.79 2.79 0 0 1 1 .18 2.32 2.32 0 0 1 .81.53 2.51 2.51 0 0 1 .53.85 3.42 3.42 0 0 1 .19 1.15.66.66 0 0 1 -.06.34c0 .06-.1.08-.2.08h-4.06a3.71 3.71 0 0 0 .15 1 2.12 2.12 0 0 0 .4.71 1.56 1.56 0 0 0 .6.42 1.94 1.94 0 0 0 .78.14 2.31 2.31 0 0 0 .69-.09 3.05 3.05 0 0 0 .5-.2l.36-.2a.45.45 0 0 1 .24-.09.22.22 0 0 1 .2.1l.3.39a1.85 1.85 0 0 1 -.47.41 3.27 3.27 0 0 1 -.59.3 4.77 4.77 0 0 1 -.65.17 5.16 5.16 0 0 1 -.67 0 3.11 3.11 0 0 1 -1.16-.21 2.62 2.62 0 0 1 -.92-.62 2.87 2.87 0 0 1 -.6-1 4 4 0 0 1 -.22-1.39 3.54 3.54 0 0 1 .2-1.19 2.7 2.7 0 0 1 .56-1 2.48 2.48 0 0 1 .89-.63 2.84 2.84 0 0 1 1.2-.15zm0 .78a1.61 1.61 0 0 0 -1.21.45 2.14 2.14 0 0 0 -.56 1.24h3.33a2.06 2.06 0 0 0 -.11-.68 1.39 1.39 0 0 0 -.79-.89 1.69 1.69 0 0 0 -.64-.12z"/><path d="m124.51 17.74v6.08h-1.07v-2.82h-2.92v2.84h-1.07v-6.1h1.07v2.43h2.92v-2.43z"/><path d="m126.2 23.83v-6.08h1.08v4.13a2.32 2.32 0 0 1 0 .24 1.33 1.33 0 0 1 0 .28c0-.08.07-.15.11-.22l.11-.18a2.06 2.06 0 0 1 .14-.19l.34-.46c.13-.19.29-.4.47-.64l.53-.73 1.45-2a1.41 1.41 0 0 1 .17-.18.33.33 0 0 1 .22-.09h.65v6.08h-1.07v-4.1a2.26 2.26 0 0 1 0-.25v-.28a2.25 2.25 0 0 1 -.11.22l-.11.19a1 1 0 0 0 -.14.19l-.34.46-.48.64-.53.73-1.45 2a.86.86 0 0 1 -.16.18.33.33 0 0 1 -.22.09z"/><path d="m137.33 23.82h-1v-2.56h-.47-.28a.68.68 0 0 0 -.19.08.41.41 0 0 0 -.14.12l-.13.17-1.33 1.8a.69.69 0 0 1 -.25.28.83.83 0 0 1 -.43.09h-.74l1.76-2.29a1.11 1.11 0 0 1 .57-.48 2.32 2.32 0 0 1 -.78-.22 1.84 1.84 0 0 1 -.52-.36 1.5 1.5 0 0 1 -.29-.48 1.54 1.54 0 0 1 -.09-.52 1.67 1.67 0 0 1 .12-.62 1.56 1.56 0 0 1 .4-.56 2 2 0 0 1 .7-.39 2.88 2.88 0 0 1 1-.16h2.07zm-3.26-4.29a.92.92 0 0 0 .36.77 1.55 1.55 0 0 0 1 .28h.89v-2.12h-1a1.44 1.44 0 0 0 -.58.1 1 1 0 0 0 -.37.25 1 1 0 0 0 -.21.34 1.31 1.31 0 0 0 -.09.38z"/><path d="m142.1 17.74h2.22a3.43 3.43 0 0 1 1 .12 1.69 1.69 0 0 1 .66.31 1.16 1.16 0 0 1 .38.45 1.39 1.39 0 0 1 .12.57 1.51 1.51 0 0 1 -.06.41 1.22 1.22 0 0 1 -.19.42 1.34 1.34 0 0 1 -.36.35 1.81 1.81 0 0 1 -.58.25 2 2 0 0 1 1.07.48 1.3 1.3 0 0 1 .38 1 1.57 1.57 0 0 1 -.18.77 1.69 1.69 0 0 1 -.48.55 2.12 2.12 0 0 1 -.73.33 3.53 3.53 0 0 1 -.88.11h-2.37zm1 2.63h1.17a1.53 1.53 0 0 0 .49-.08 1.22 1.22 0 0 0 .39-.21.87.87 0 0 0 .25-.32 1 1 0 0 0 .09-.42.87.87 0 0 0 -.06-.32.8.8 0 0 0 -.2-.29 1.23 1.23 0 0 0 -.38-.19 1.93 1.93 0 0 0 -.58-.08h-1.17zm0 .68v2h1.31a1.45 1.45 0 0 0 .95-.28.94.94 0 0 0 .35-.76 1.24 1.24 0 0 0 -.07-.4.74.74 0 0 0 -.22-.31 1.15 1.15 0 0 0 -.4-.2 2.06 2.06 0 0 0 -.6-.07z"/><path d="m151.13 23.83v-6.08h1.07v4.13a2.09 2.09 0 0 1 0 .24v.28c0-.08.07-.15.1-.22a1.74 1.74 0 0 0 .11-.18l.14-.19.34-.46.47-.64.54-.73c.42-.58.9-1.24 1.45-2a.94.94 0 0 1 .17-.18.31.31 0 0 1 .22-.09h.64v6.08h-1.07v-4.1c0-.07 0-.16 0-.25v-.28a1.13 1.13 0 0 1 -.11.22l-.11.19a2.17 2.17 0 0 0 -.14.19l-.34.46-.47.64-.54.73-1.44 2a1.41 1.41 0 0 1 -.17.18.31.31 0 0 1 -.22.09z"/><path d="m162 17.74v.82h-2.86v5.26h-1.14v-6.08z"/><path d="m163 25.88v-8.14h.64a.26.26 0 0 1 .28.22l.09.72a3.25 3.25 0 0 1 .9-.76 2.28 2.28 0 0 1 1.15-.29 2.24 2.24 0 0 1 .95.2 2 2 0 0 1 .73.6 2.91 2.91 0 0 1 .46 1 5 5 0 0 1 .16 1.34 4.15 4.15 0 0 1 -.18 1.25 2.88 2.88 0 0 1 -.52 1 2.26 2.26 0 0 1 -.83.67 2.44 2.44 0 0 1 -1.1.24 2.06 2.06 0 0 1 -1.66-.71v2.69zm2.71-7.38a1.75 1.75 0 0 0 -.92.24 2.55 2.55 0 0 0 -.72.68v2.94a1.63 1.63 0 0 0 .64.55 1.85 1.85 0 0 0 .78.17 1.55 1.55 0 0 0 1.31-.61 2.78 2.78 0 0 0 .46-1.73 4.36 4.36 0 0 0 -.11-1 2.14 2.14 0 0 0 -.3-.7 1.19 1.19 0 0 0 -.49-.4 1.67 1.67 0 0 0 -.66-.14z"/><path d="m171.4 25.61a.77.77 0 0 1 -.13.2.44.44 0 0 1 -.25.07h-.8l1.11-2.41-2.5-5.73h.92a.32.32 0 0 1 .22.07.48.48 0 0 1 .11.15l1.63 3.83.09.27c0 .09 0 .17.07.27q.07-.27.18-.54l1.58-3.79a.36.36 0 0 1 .12-.16.33.33 0 0 1 .19-.06h.85z"/><path d="m175.13 23.16a.72.72 0 0 1 .06-.29.7.7 0 0 1 .15-.24.81.81 0 0 1 .24-.17.73.73 0 0 1 .3-.06.72.72 0 0 1 .29.06.81.81 0 0 1 .24.17.6.6 0 0 1 .16.24.72.72 0 0 1 .06.29.73.73 0 0 1 -.06.3.63.63 0 0 1 -.16.23.78.78 0 0 1 -.24.16.72.72 0 0 1 -.29.06.73.73 0 0 1 -.3-.06.78.78 0 0 1 -.24-.16.76.76 0 0 1 -.15-.23.73.73 0 0 1 -.06-.3z"/></g></svg>