<svg viewBox="0 0 119.48 23.3" xmlns="http://www.w3.org/2000/svg"><g fill="#4a4a49"><path d="m6.25 2.3a2.41 2.41 0 0 1 -.25 1.1 2.11 2.11 0 0 1 -.83.82 3.15 3.15 0 0 1 .53.33 2.08 2.08 0 0 1 .4.45 1.62 1.62 0 0 1 .27.5 1.56 1.56 0 0 1 .1.57 3 3 0 0 1 -.22 1.11 2.54 2.54 0 0 1 -.65.9 3 3 0 0 1 -1 .6 4.09 4.09 0 0 1 -1.41.23 4.58 4.58 0 0 1 -.9-.09 4.84 4.84 0 0 1 -.85-.23 4.93 4.93 0 0 1 -.77-.36 3.83 3.83 0 0 1 -.67-.49l.53-.85a.55.55 0 0 1 .18-.16.41.41 0 0 1 .23-.06.7.7 0 0 1 .36.12c.12.08.27.16.45.26a3.19 3.19 0 0 0 .61.26 2.62 2.62 0 0 0 .84.12 1.86 1.86 0 0 0 1.16-.31 1.16 1.16 0 0 0 .42-1 1.06 1.06 0 0 0 -.12-.5 1.13 1.13 0 0 0 -.33-.36 1.5 1.5 0 0 0 -.51-.26 2.31 2.31 0 0 0 -.66 0h-1.25v-1.47h1.09a2 2 0 0 0 1.15-.28.92.92 0 0 0 .4-.8.87.87 0 0 0 -.37-.73 1.85 1.85 0 0 0 -1.09-.27 2.53 2.53 0 0 0 -.72.09 2.68 2.68 0 0 0 -.53.2l-.39.2a.64.64 0 0 1 -.3.09.35.35 0 0 1 -.21-.03.53.53 0 0 1 -.17-.19l-.45-.89a3.82 3.82 0 0 1 1.23-.67 4.62 4.62 0 0 1 1.57-.25 4.76 4.76 0 0 1 1.3.17 3.13 3.13 0 0 1 1 .47 2 2 0 0 1 .58.72 2 2 0 0 1 .25.94z"/><path d="m15.35 8.8h-1.35a.66.66 0 0 1 -.38-.11.67.67 0 0 1 -.22-.28l-.59-1.67h-3.51l-.59 1.67a.56.56 0 0 1 -.2.27.62.62 0 0 1 -.39.12h-1.4l3.4-8.7h1.88zm-5.61-3.3h2.6l-.95-2.67c-.05-.14-.11-.3-.17-.49s-.13-.4-.19-.62c0 .23-.11.43-.17.63s-.12.35-.18.49z"/><path d="m23.58.1v8.7h-1.81v-7.34h-2.17c-.06 1.08-.15 2-.25 2.8a16.72 16.72 0 0 1 -.37 2 6.55 6.55 0 0 1 -.5 1.33 2.8 2.8 0 0 1 -.61.8 1.89 1.89 0 0 1 -.72.39 3 3 0 0 1 -.8.1 2.15 2.15 0 0 1 -.68-.08c-.14-.06-.21-.14-.21-.25v-1.1h.48a1.37 1.37 0 0 0 .39-.06.85.85 0 0 0 .41-.3 2.3 2.3 0 0 0 .39-.71 7.25 7.25 0 0 0 .35-1.28c.1-.55.19-1.23.26-2s.13-1.8.16-3z"/><path d="m33.82 4.45a4.72 4.72 0 0 1 -.33 1.77 4.15 4.15 0 0 1 -.9 1.41 4.33 4.33 0 0 1 -1.41.93 4.84 4.84 0 0 1 -1.82.34 4.89 4.89 0 0 1 -1.83-.34 4.55 4.55 0 0 1 -1.41-.93 4.33 4.33 0 0 1 -.91-1.41 4.92 4.92 0 0 1 -.32-1.77 4.84 4.84 0 0 1 .32-1.77 4.33 4.33 0 0 1 .91-1.41 4.38 4.38 0 0 1 1.41-.93 4.7 4.7 0 0 1 1.83-.34 4.65 4.65 0 0 1 1.82.34 4.18 4.18 0 0 1 1.41.93 4.15 4.15 0 0 1 .9 1.41 4.68 4.68 0 0 1 .33 1.77zm-1.82 0a3.88 3.88 0 0 0 -.18-1.23 2.64 2.64 0 0 0 -.52-.93 2.31 2.31 0 0 0 -.82-.58 2.86 2.86 0 0 0 -1.09-.2 2.92 2.92 0 0 0 -1.1.2 2.44 2.44 0 0 0 -.83.58 2.79 2.79 0 0 0 -.51.93 3.88 3.88 0 0 0 -.18 1.23 3.88 3.88 0 0 0 .18 1.23 2.64 2.64 0 0 0 .51.92 2.44 2.44 0 0 0 .83.58 2.92 2.92 0 0 0 1.1.2 2.86 2.86 0 0 0 1.09-.2 2.31 2.31 0 0 0 .82-.58 2.51 2.51 0 0 0 .52-.92 3.88 3.88 0 0 0 .18-1.23z"/><path d="m40.56 1.46h-3.56v7.34h-1.86v-8.7h5.42z"/><path d="m45.87 7.43a.72.72 0 0 0 .27-.09 1.43 1.43 0 0 0 .26-.19 1.41 1.41 0 0 0 .23-.35l.31-.61-3.49-6.09h1.69a.57.57 0 0 1 .38.11.88.88 0 0 1 .22.28l1.52 2.92a4.55 4.55 0 0 1 .26.55 5.37 5.37 0 0 1 .21.56 6.53 6.53 0 0 1 .43-1.11l1.33-2.92a1.31 1.31 0 0 1 .22-.27.6.6 0 0 1 .38-.12h1.49l-3.51 7.47a3.4 3.4 0 0 1 -.41.66 2 2 0 0 1 -.48.4 1.54 1.54 0 0 1 -.54.2 3 3 0 0 1 -.62.06 2.15 2.15 0 0 1 -.68-.08c-.14-.06-.21-.14-.21-.25v-1.11h.48z"/><path d="m57.9 6.66a.34.34 0 0 1 .25.11l.72.76a3.39 3.39 0 0 1 -1.32 1 4.57 4.57 0 0 1 -1.86.35 4.32 4.32 0 0 1 -1.76-.34 3.78 3.78 0 0 1 -1.32-.92 4 4 0 0 1 -.84-1.41 5.16 5.16 0 0 1 -.3-1.78 5.48 5.48 0 0 1 .14-1.24 4.42 4.42 0 0 1 .39-1.05 3.84 3.84 0 0 1 .65-.89 3.79 3.79 0 0 1 .86-.68 4.12 4.12 0 0 1 1-.42 4.78 4.78 0 0 1 1.28-.15 5.22 5.22 0 0 1 .91.08 4.42 4.42 0 0 1 .8.24 3.64 3.64 0 0 1 1.26.83l-.61.85a.38.38 0 0 1 -.14.14.36.36 0 0 1 -.22.06.51.51 0 0 1 -.3-.1 3.89 3.89 0 0 0 -.36-.23 2.44 2.44 0 0 0 -1.34-.33 2.48 2.48 0 0 0 -1 .2 2.14 2.14 0 0 0 -.79.57 2.63 2.63 0 0 0 -.5.92 4 4 0 0 0 -.18 1.25 3.77 3.77 0 0 0 .19 1.25 2.85 2.85 0 0 0 .53.92 2.17 2.17 0 0 0 .8.58 2.4 2.4 0 0 0 1 .19 4.68 4.68 0 0 0 .55 0 2.07 2.07 0 0 0 .46-.1 1.84 1.84 0 0 0 .4-.19 2.37 2.37 0 0 0 .39-.28.51.51 0 0 1 .13-.09.29.29 0 0 1 .13-.1z"/><path d="m67.05 8.8h-1.81v-7.34h-3.55v7.34h-1.81v-8.7h7.17z"/><path d="m74.42.1v1.41h-3.73v2.23h2.9v1.37h-2.9v2.28h3.73v1.41h-5.55v-8.7z"/><path d="m77.68 4.33-2.75-4.23h1.8a.64.64 0 0 1 .27 0 .78.78 0 0 1 .15.16l1.85 3.12.07-.15.09-.15 1.69-2.75a.57.57 0 0 1 .15-.18.36.36 0 0 1 .21 0h1.72l-2.75 4.1 2.82 4.55h-1.8a.49.49 0 0 1 -.3-.09.68.68 0 0 1 -.17-.21l-1.87-3.2-.06.13-.06.11-1.74 2.96a1.29 1.29 0 0 1 -.19.21.39.39 0 0 1 -.26.09h-1.72z"/><path d="m91.51 8.8h-1.39a.63.63 0 0 1 -.38-.11.67.67 0 0 1 -.22-.28l-.59-1.67h-3.47l-.59 1.67a.66.66 0 0 1 -.21.27.6.6 0 0 1 -.38.12h-1.4l3.39-8.7h1.85zm-5.62-3.3h2.6l-.94-2.67-.18-.49c-.06-.19-.12-.4-.18-.62-.06.23-.11.43-.18.63s-.12.35-.17.49z"/><path d="m.82 23.2v-8.7h3.09a5.89 5.89 0 0 1 1.5.16 2.87 2.87 0 0 1 1 .47 1.76 1.76 0 0 1 .58.73 2.5 2.5 0 0 1 .18 1 1.9 1.9 0 0 1 -.09.58 1.79 1.79 0 0 1 -.27.51 2 2 0 0 1 -.47.45 2.77 2.77 0 0 1 -.69.33q1.74.4 1.74 1.92a2.48 2.48 0 0 1 -.21 1 2.26 2.26 0 0 1 -.62.82 2.8 2.8 0 0 1 -1 .55 4.36 4.36 0 0 1 -1.37.19zm1.8-5h1.18a3.39 3.39 0 0 0 .68-.07 1.36 1.36 0 0 0 .52-.13.88.88 0 0 0 .3-.36 1.27 1.27 0 0 0 .11-.54 1.57 1.57 0 0 0 -.09-.56.82.82 0 0 0 -.32-.41 1.16 1.16 0 0 0 -.45-.2 2.62 2.62 0 0 0 -.66-.07h-1.27zm0 1.22v2.38h1.54a2.12 2.12 0 0 0 .72-.1 1.28 1.28 0 0 0 .44-.28 1.1 1.1 0 0 0 .24-.4 1.84 1.84 0 0 0 .06-.47 1.19 1.19 0 0 0 -.08-.47.81.81 0 0 0 -.25-.36 1.05 1.05 0 0 0 -.45-.22 2.73 2.73 0 0 0 -.69-.08z"/><path d="m16.25 23.2h-1.39a.66.66 0 0 1 -.38-.11.67.67 0 0 1 -.22-.28l-.59-1.67h-3.47l-.59 1.67a.56.56 0 0 1 -.2.27.62.62 0 0 1 -.41.12h-1.38l3.38-8.7h1.84zm-5.61-3.3h2.6l-1-2.67c0-.14-.11-.3-.17-.49s-.13-.4-.19-.62c0 .23-.11.43-.17.63s-.12.35-.18.49z"/><path d="m28.28 23.2h-11.28v-8.7h1.81v7.34h2.9v-7.34h1.81v7.34h2.91v-7.34h1.81z"/><path d="m35.41 15a1.25 1.25 0 0 1 .15-.19.77.77 0 0 1 .18-.18l.22-.13a.64.64 0 0 1 .24 0h1.36v8.7h-1.81v-5.2c0-.21 0-.44 0-.68a7.22 7.22 0 0 1 .07-.75c-.09.23-.18.45-.28.66s-.2.38-.29.53l-3 4.88a2.43 2.43 0 0 1 -.14.2 1.54 1.54 0 0 1 -.19.17.57.57 0 0 1 -.21.13.53.53 0 0 1 -.25.05h-1.36v-8.69h1.81v5.19.68s0 .49-.08.75a6.9 6.9 0 0 1 .28-.66c.11-.2.2-.38.29-.53z"/><path d="m41.3 18.73-2.74-4.23h1.8a.59.59 0 0 1 .26 0 .46.46 0 0 1 .15.16l1.87 3.08a1 1 0 0 1 .07-.15 1.09 1.09 0 0 1 .08-.15l1.68-2.75a.57.57 0 0 1 .16-.18.36.36 0 0 1 .21-.05h1.73l-2.77 4.19 2.84 4.55h-1.8a.44.44 0 0 1 -.29-.09.6.6 0 0 1 -.18-.21l-1.89-3.2s0 .08 0 .13l-.06.11-1.79 3a1 1 0 0 1 -.19.21.36.36 0 0 1 -.26.09h-1.73z"/><path d="m56.32 21.06a.34.34 0 0 1 .25.11l.71.76a3.36 3.36 0 0 1 -1.28 1.07 4.57 4.57 0 0 1 -1.86.35 4.32 4.32 0 0 1 -1.79-.35 3.91 3.91 0 0 1 -1.35-1 4.33 4.33 0 0 1 -.84-1.41 5.4 5.4 0 0 1 -.29-1.78 5.48 5.48 0 0 1 .13-1.2 4 4 0 0 1 .41-1.07 4.16 4.16 0 0 1 .65-.89 3.87 3.87 0 0 1 1.94-1.1 4.72 4.72 0 0 1 1.21-.15 5.31 5.31 0 0 1 .91.08 5 5 0 0 1 .8.24 3.75 3.75 0 0 1 .69.36 3.24 3.24 0 0 1 .56.47l-.6.82a.47.47 0 0 1 -.14.14.39.39 0 0 1 -.23.06.51.51 0 0 1 -.29-.1l-.36-.23a3 3 0 0 0 -.55-.24 3.11 3.11 0 0 0 -.82-.1 2.55 2.55 0 0 0 -1 .2 2.19 2.19 0 0 0 -.78.57 2.64 2.64 0 0 0 -.51.92 4 4 0 0 0 -.18 1.25 3.77 3.77 0 0 0 .2 1.25 2.68 2.68 0 0 0 .53.92 2.22 2.22 0 0 0 .79.58 2.43 2.43 0 0 0 1 .19 4.73 4.73 0 0 0 .56 0 2.21 2.21 0 0 0 .46-.1 2.09 2.09 0 0 0 .4-.19 2.31 2.31 0 0 0 .38-.28.55.55 0 0 1 .14-.09.29.29 0 0 1 .15-.06z"/><path d="m60.1 20.21v3h-1.8v-8.71h2.94a5 5 0 0 1 1.54.21 3 3 0 0 1 1.07.58 2.28 2.28 0 0 1 .62.89 3 3 0 0 1 .2 1.12 3.22 3.22 0 0 1 -.21 1.18 2.44 2.44 0 0 1 -.63.92 3 3 0 0 1 -1.08.59 4.58 4.58 0 0 1 -1.51.22zm0-1.38h1.14a1.64 1.64 0 0 0 1.23-.41 1.51 1.51 0 0 0 .4-1.12 1.87 1.87 0 0 0 -.1-.59 1.19 1.19 0 0 0 -.3-.45 1.22 1.22 0 0 0 -.47-.26 2.18 2.18 0 0 0 -.72-.11h-1.18z"/><path d="m72.83 23.2h-1.39a.67.67 0 0 1 -.39-.11.76.76 0 0 1 -.22-.28l-.58-1.67h-3.48l-.58 1.67a.66.66 0 0 1 -.21.27.6.6 0 0 1 -.38.12h-1.41l3.4-8.7h1.84zm-5.62-3.3h2.6l-.94-2.67c-.06-.14-.12-.3-.18-.49s-.12-.4-.18-.62c-.06.23-.12.43-.18.63s-.12.35-.18.49z"/><path d="m74.36 14.5a1 1 0 0 1 .5.13 1 1 0 0 1 .37.36l1.62 2.67a.86.86 0 0 0 .33.35 1.16 1.16 0 0 0 .42.08h.73v-3.59h1.67v3.59h.72a1.18 1.18 0 0 0 .43-.08 1 1 0 0 0 .34-.35l1.64-2.66a1 1 0 0 1 .37-.36 1 1 0 0 1 .5-.13h1.43l-2.13 3.3a2.42 2.42 0 0 1 -.37.48 1.35 1.35 0 0 1 -.47.3 1.82 1.82 0 0 1 .59.34 2.9 2.9 0 0 1 .49.61l2.15 3.66h-1.21a1.3 1.3 0 0 1 -.67-.16 1.19 1.19 0 0 1 -.44-.45l-1.61-2.68a.86.86 0 0 0 -.36-.37.9.9 0 0 0 -.48-.11h-.92v3.77h-1.7v-3.77h-.88a.89.89 0 0 0 -.85.48l-1.57 2.68a1.27 1.27 0 0 1 -.44.45 1.28 1.28 0 0 1 -.67.16h-1.2l2.14-3.66a2.38 2.38 0 0 1 .49-.61 1.82 1.82 0 0 1 .59-.34 1.35 1.35 0 0 1 -.47-.3 2.42 2.42 0 0 1 -.37-.48l-2.13-3.31z"/><path d="m92.12 14.5v1.41h-3.74v2.23h2.91v1.37h-2.91v2.28h3.74v1.41h-5.55v-8.7z"/><path d="m100.92 23.2h-1.81v-3.75h-3.84v3.75h-1.81v-8.7h1.81v3.69h3.84v-3.69h1.81z"/><path d="m108.05 15a1.25 1.25 0 0 1 .15-.19.77.77 0 0 1 .18-.18l.22-.13a.64.64 0 0 1 .24 0h1.36v8.7h-1.81v-5.2c0-.21 0-.44 0-.68a7.22 7.22 0 0 1 .07-.75c-.09.23-.18.45-.28.66s-.2.38-.29.53l-3 4.88a2.43 2.43 0 0 1 -.14.2 1.54 1.54 0 0 1 -.19.17.57.57 0 0 1 -.21.13.53.53 0 0 1 -.25.05h-1.36v-8.69h1.81v5.19.68a7.11 7.11 0 0 1 -.08.75 6.9 6.9 0 0 1 .28-.66c.11-.2.2-.38.3-.53z"/><path d="m117.33 15c0-.06.09-.13.15-.19a1.53 1.53 0 0 1 .18-.18l.22-.13a.69.69 0 0 1 .25 0h1.35v8.7h-1.81v-5.2c0-.21 0-.44 0-.68s0-.48.07-.75c-.09.23-.18.45-.28.66s-.2.38-.29.53l-3 4.88a2.43 2.43 0 0 1 -.14.2l-.18.17a.71.71 0 0 1 -.22.13.53.53 0 0 1 -.25.05h-1.38v-8.69h1.81v5.19.68s0 .49-.07.75a4 4 0 0 1 .28-.66c.1-.2.2-.38.29-.53zm-1.48-1.85a1.16 1.16 0 0 0 .35 0 .39.39 0 0 0 .23-.14.61.61 0 0 0 .11-.27 2.59 2.59 0 0 0 0-.44h1a.29.29 0 0 1 .26.14.68.68 0 0 1 .08.31 1 1 0 0 1 -.15.55 1.32 1.32 0 0 1 -.42.39 2.51 2.51 0 0 1 -.64.24 4.28 4.28 0 0 1 -.83.07 4.21 4.21 0 0 1 -.83-.07 2.59 2.59 0 0 1 -.65-.24 1.32 1.32 0 0 1 -.42-.39 1.1 1.1 0 0 1 -.14-.55.58.58 0 0 1 .08-.31.27.27 0 0 1 .25-.14h1a2.59 2.59 0 0 0 0 .44.61.61 0 0 0 .12.27.37.37 0 0 0 .22.14 1.19 1.19 0 0 0 .38.04z"/></g></svg>