<svg viewBox="0 0 194.28 25.91" xmlns="http://www.w3.org/2000/svg"><g fill="#4a4a49"><path d="m5.58 1.19a1 1 0 0 1 .22-.25.42.42 0 0 1 .3-.12h.9v8.6h-1.2v-6.11c0-.17 0-.34 0-.53s0-.38.06-.59a4.68 4.68 0 0 1 -.22.5l-.23.41-4 6a1.09 1.09 0 0 1 -.22.26.49.49 0 0 1 -.31.11h-.88v-8.65h1.16v6.12.53s0 .39 0 .6c.07-.18.14-.35.22-.51s.15-.29.23-.41z"/><path d="m12.76 3.34v.82h-2.87v5.26h-1.07v-6.08z"/><path d="m13.78 11.48v-8.14h.64a.27.27 0 0 1 .28.22l.09.72a3.36 3.36 0 0 1 .89-.76 2.32 2.32 0 0 1 1.16-.29 2.24 2.24 0 0 1 .95.2 2.1 2.1 0 0 1 .73.6 2.91 2.91 0 0 1 .48.97 5 5 0 0 1 .16 1.34 4.15 4.15 0 0 1 -.16 1.25 2.88 2.88 0 0 1 -.52 1 2.34 2.34 0 0 1 -.83.67 2.44 2.44 0 0 1 -1.1.24 2.35 2.35 0 0 1 -1-.18 2.24 2.24 0 0 1 -.7-.53v2.69zm2.71-7.38a1.73 1.73 0 0 0 -.92.24 2.55 2.55 0 0 0 -.72.68v2.98a1.57 1.57 0 0 0 .64.55 1.79 1.79 0 0 0 .78.17 1.55 1.55 0 0 0 1.31-.61 2.85 2.85 0 0 0 .42-1.77 4.36 4.36 0 0 0 -.11-1 2.05 2.05 0 0 0 -.3-.7 1.26 1.26 0 0 0 -.49-.4 1.67 1.67 0 0 0 -.61-.14z"/><path d="m23.06 3.25a3.09 3.09 0 0 1 1.2.22 2.65 2.65 0 0 1 .91.63 2.9 2.9 0 0 1 .58 1 4.08 4.08 0 0 1 .2 1.3 4 4 0 0 1 -.2 1.29 2.85 2.85 0 0 1 -.58 1 2.65 2.65 0 0 1 -.91.63 3.56 3.56 0 0 1 -2.41 0 2.69 2.69 0 0 1 -.92-.63 2.85 2.85 0 0 1 -.58-1 4 4 0 0 1 -.2-1.29 4.08 4.08 0 0 1 .2-1.3 2.9 2.9 0 0 1 .58-1 2.69 2.69 0 0 1 .92-.63 3.11 3.11 0 0 1 1.21-.22zm0 5.42a1.55 1.55 0 0 0 1.34-.6 2.78 2.78 0 0 0 .45-1.69 2.8 2.8 0 0 0 -.45-1.69 1.55 1.55 0 0 0 -1.34-.6 2 2 0 0 0 -.8.15 1.64 1.64 0 0 0 -.56.45 2.14 2.14 0 0 0 -.34.73 4 4 0 0 0 -.11 1 2.78 2.78 0 0 0 .45 1.69 1.59 1.59 0 0 0 1.36.56z"/><path d="m27.3 3.34h2.23a3.4 3.4 0 0 1 1 .12 1.83 1.83 0 0 1 .66.3 1.27 1.27 0 0 1 .38.46 1.39 1.39 0 0 1 .12.57 2 2 0 0 1 0 .41 1.43 1.43 0 0 1 -.19.42 1.38 1.38 0 0 1 -.5.38 1.72 1.72 0 0 1 -.58.25 1.94 1.94 0 0 1 1.07.49 1.23 1.23 0 0 1 .38 1 1.68 1.68 0 0 1 -.17.77 1.61 1.61 0 0 1 -.49.55 2.16 2.16 0 0 1 -.72.33 3.62 3.62 0 0 1 -.89.11h-2.3zm1 2.63h1.2a1.27 1.27 0 0 0 .5-.08 1 1 0 0 0 .39-.21.87.87 0 0 0 .25-.32.93.93 0 0 0 .09-.42.87.87 0 0 0 -.06-.32.69.69 0 0 0 -.2-.29 1.13 1.13 0 0 0 -.38-.19 1.86 1.86 0 0 0 -.57-.08h-1.19zm0 .68v2h1.3a1.45 1.45 0 0 0 .95-.28.92.92 0 0 0 .35-.76 1 1 0 0 0 -.07-.4.78.78 0 0 0 -.21-.31 1.25 1.25 0 0 0 -.4-.2 2.18 2.18 0 0 0 -.61-.07z"/><path d="m35.82 3.25a3.09 3.09 0 0 1 1.2.22 2.56 2.56 0 0 1 .91.63 2.74 2.74 0 0 1 .58 1 3.82 3.82 0 0 1 .2 1.3 3.72 3.72 0 0 1 -.2 1.29 2.7 2.7 0 0 1 -.58 1 2.56 2.56 0 0 1 -.91.63 3.56 3.56 0 0 1 -2.41 0 2.61 2.61 0 0 1 -1.49-1.62 3.72 3.72 0 0 1 -.2-1.29 3.82 3.82 0 0 1 .2-1.3 2.61 2.61 0 0 1 .58-1 2.56 2.56 0 0 1 .91-.63 3.11 3.11 0 0 1 1.21-.23zm0 5.42a1.55 1.55 0 0 0 1.34-.6 2.78 2.78 0 0 0 .45-1.69 2.8 2.8 0 0 0 -.45-1.69 1.55 1.55 0 0 0 -1.34-.6 2 2 0 0 0 -.8.15 1.64 1.64 0 0 0 -.56.45 2.14 2.14 0 0 0 -.34.73 4 4 0 0 0 -.11 1 2.78 2.78 0 0 0 .45 1.69 1.59 1.59 0 0 0 1.36.56z"/><path d="m40.06 9.43v-6.08h1.08v4.13a2.32 2.32 0 0 1 0 .24 2.66 2.66 0 0 1 0 .28c0-.08.07-.15.11-.22l.11-.18.14-.19.29-.41c.13-.19.29-.4.47-.64l.53-.73 1.45-2a1.41 1.41 0 0 1 .17-.18.33.33 0 0 1 .22-.09h.64v6.06h-1.06v-4.13a2.26 2.26 0 0 1 0-.25v-.28a2.25 2.25 0 0 1 -.11.22l-.1.19a1 1 0 0 0 -.14.19l-.34.46-.48.64-.53.73-1.45 2a1.29 1.29 0 0 1 -.16.18.33.33 0 0 1 -.22.09zm2.68-7.56a1.22 1.22 0 0 0 .41-.06.5.5 0 0 0 .27-.18.74.74 0 0 0 .16-.32 2.24 2.24 0 0 0 .05-.49h.62a.19.19 0 0 1 .17.1.46.46 0 0 1 .06.23 1.19 1.19 0 0 1 -.12.54 1.21 1.21 0 0 1 -.36.41 1.65 1.65 0 0 1 -.55.26 2.75 2.75 0 0 1 -.73.09 2.7 2.7 0 0 1 -.72-.09 1.65 1.65 0 0 1 -.55-.26 1.24 1.24 0 0 1 -.35-.41 1.19 1.19 0 0 1 -.1-.54.46.46 0 0 1 .06-.23.21.21 0 0 1 .18-.1h.62a2.24 2.24 0 0 0 0 .49.73.73 0 0 0 .15.32.5.5 0 0 0 .27.18 1.29 1.29 0 0 0 .46.06z"/><path d="m55.1 3.34v6.08h-1.1v-2.84h-2.89v2.84h-1.11v-6.08h1.07v2.43h2.93v-2.43z"/><path d="m59.36 3.25a3.09 3.09 0 0 1 1.2.22 2.65 2.65 0 0 1 .91.63 2.9 2.9 0 0 1 .58 1 4.08 4.08 0 0 1 .2 1.3 4 4 0 0 1 -.2 1.29 2.85 2.85 0 0 1 -.58 1 2.65 2.65 0 0 1 -.91.63 3.56 3.56 0 0 1 -2.41 0 2.6 2.6 0 0 1 -.92-.63 2.85 2.85 0 0 1 -.58-1 4 4 0 0 1 -.2-1.29 4.08 4.08 0 0 1 .2-1.3 2.9 2.9 0 0 1 .58-1 2.6 2.6 0 0 1 .92-.63 3.11 3.11 0 0 1 1.21-.22zm0 5.42a1.56 1.56 0 0 0 1.34-.6 2.78 2.78 0 0 0 .45-1.69 2.8 2.8 0 0 0 -.45-1.69 1.56 1.56 0 0 0 -1.34-.6 2 2 0 0 0 -.8.15 1.64 1.64 0 0 0 -.56.45 2.14 2.14 0 0 0 -.34.73 4 4 0 0 0 -.11 1 2.78 2.78 0 0 0 .45 1.65 1.59 1.59 0 0 0 1.36.6z"/><path d="m65.26 11.21a.58.58 0 0 1 -.13.2.44.44 0 0 1 -.25.07h-.79l1.1-2.41-2.5-5.73h.92a.36.36 0 0 1 .22.07.48.48 0 0 1 .11.15l1.63 3.83.09.27a2.13 2.13 0 0 1 .07.27q.08-.27.18-.54l1.58-3.83a.37.37 0 0 1 .32-.22h.84z"/><path d="m68.91 3.34h5.74v.82h-2.34v5.26h-1.07v-5.26h-2.33z"/><path d="m78.81 1.91a3.11 3.11 0 0 0 -1 .27 2.08 2.08 0 0 0 -.72.59 2.47 2.47 0 0 0 -.44.89 5.57 5.57 0 0 0 -.17 1.16 1.93 1.93 0 0 1 .38-.52 2.06 2.06 0 0 1 .52-.4 2.58 2.58 0 0 1 .62-.25 2.86 2.86 0 0 1 .73-.09 2.53 2.53 0 0 1 1.09.22 2.24 2.24 0 0 1 .82.6 2.6 2.6 0 0 1 .52.94 3.84 3.84 0 0 1 .18 1.21 3.65 3.65 0 0 1 -.2 1.23 2.61 2.61 0 0 1 -.6.94 2.51 2.51 0 0 1 -.92.59 3.21 3.21 0 0 1 -1.2.21 3 3 0 0 1 -1.14-.2 2.27 2.27 0 0 1 -.93-.67 3.34 3.34 0 0 1 -.61-1.24 6.7 6.7 0 0 1 -.23-1.88 8.86 8.86 0 0 1 .17-1.77 4.15 4.15 0 0 1 .57-1.39 2.87 2.87 0 0 1 1-1 3.53 3.53 0 0 1 1.48-.35l2.17-.24.06.55a.54.54 0 0 1 -.06.32.27.27 0 0 1 -.25.13zm-.41 6.8a1.65 1.65 0 0 0 1.36-.57 2.49 2.49 0 0 0 .46-1.61 2.62 2.62 0 0 0 -.44-1.6 1.59 1.59 0 0 0 -1.33-.57 2 2 0 0 0 -.76.13 1.56 1.56 0 0 0 -.58.39 1.92 1.92 0 0 0 -.37.64 2.83 2.83 0 0 0 -.13.86 3.65 3.65 0 0 0 .12 1 2 2 0 0 0 .34.73 1.43 1.43 0 0 0 .55.46 1.75 1.75 0 0 0 .78.14z"/><path d="m84.3 11.21a.6.6 0 0 1 -.14.2.38.38 0 0 1 -.24.07h-.8l1.11-2.41-2.5-5.73h.92a.38.38 0 0 1 .22.07.48.48 0 0 1 .11.15l1.62 3.83a1.43 1.43 0 0 1 .09.27 2.13 2.13 0 0 1 .08.27q.08-.27.18-.54l1.57-3.83a.37.37 0 0 1 .13-.15.28.28 0 0 1 .19-.07h.85z"/><path d="m92.32 3.64a.63.63 0 0 1 .22-.21.53.53 0 0 1 .3-.09h.83l-1.58 2.32a1.37 1.37 0 0 1 -.3.36 1 1 0 0 1 -.38.22 1.32 1.32 0 0 1 .49.24 1.53 1.53 0 0 1 .35.43l1.59 2.51h-.74a.78.78 0 0 1 -.44-.1.7.7 0 0 1 -.27-.27l-1.19-1.89a.92.92 0 0 0 -.84-.47h-.66v2.74h-1.07v-6.09h1.07v2.66h.58a.86.86 0 0 0 .72-.44z"/><path d="m105.58 5.08a4.51 4.51 0 0 1 -.32 1.75 4.05 4.05 0 0 1 -.89 1.38 4.09 4.09 0 0 1 -1.37.89 4.93 4.93 0 0 1 -1.8.32h-3.3v-8.68h3.3a4.93 4.93 0 0 1 1.8.32 4.27 4.27 0 0 1 1.39.9 4 4 0 0 1 .89 1.37 4.54 4.54 0 0 1 .3 1.75zm-1.66 0a4.26 4.26 0 0 0 -.18-1.28 2.66 2.66 0 0 0 -.55-1 2.47 2.47 0 0 0 -.86-.6 3 3 0 0 0 -1.15-.2h-1.68v6.14h1.68a3 3 0 0 0 1.15-.21 2.5 2.5 0 0 0 .86-.61 2.66 2.66 0 0 0 .55-1 4.17 4.17 0 0 0 .18-1.24z"/><path d="m109.31 3.17a3.14 3.14 0 0 1 1.08.18 2.4 2.4 0 0 1 .84.55 2.51 2.51 0 0 1 .56.87 3.37 3.37 0 0 1 .21 1.23 1.09 1.09 0 0 1 -.07.45.3.3 0 0 1 -.28.12h-3.81a2.76 2.76 0 0 0 .17.82 1.62 1.62 0 0 0 .35.57 1.25 1.25 0 0 0 .51.33 1.76 1.76 0 0 0 .66.11 1.94 1.94 0 0 0 .62-.08 3.21 3.21 0 0 0 .45-.19l.35-.18a.51.51 0 0 1 .28-.09.32.32 0 0 1 .28.14l.42.54a2.55 2.55 0 0 1 -.55.49 3.15 3.15 0 0 1 -.64.31 3.2 3.2 0 0 1 -.68.16 5.16 5.16 0 0 1 -.67 0 3.35 3.35 0 0 1 -1.19-.21 2.59 2.59 0 0 1 -1-.63 3 3 0 0 1 -.64-1 3.88 3.88 0 0 1 -.24-1.42 3.25 3.25 0 0 1 .24-1.24 2.79 2.79 0 0 1 .58-1 2.94 2.94 0 0 1 .93-.65 3.08 3.08 0 0 1 1.24-.18zm0 1.06a1.34 1.34 0 0 0 -1 .37 1.77 1.77 0 0 0 -.47 1h2.8a1.91 1.91 0 0 0 -.08-.54 1.41 1.41 0 0 0 -.25-.45 1.28 1.28 0 0 0 -.41-.3 1.46 1.46 0 0 0 -.56-.08z"/><path d="m114.6.5v8.92h-1.48v-8.92z"/><path d="m117.58.5v8.92h-1.48v-8.92z"/><path d="m128 9.29a5.52 5.52 0 0 1 -1.6.23 5.3 5.3 0 0 1 -1.92-.33 4.23 4.23 0 0 1 -1.48-.92 3.92 3.92 0 0 1 -1-1.41 4.66 4.66 0 0 1 -.33-1.78 4.91 4.91 0 0 1 .33-1.79 4.23 4.23 0 0 1 .91-1.41 4.08 4.08 0 0 1 1.43-.88 5.24 5.24 0 0 1 1.87-.32 6.2 6.2 0 0 1 1 .08 6.56 6.56 0 0 1 .85.23 3.63 3.63 0 0 1 .71.36 4 4 0 0 1 .6.46l-.46.73a.48.48 0 0 1 -.29.22.54.54 0 0 1 -.37-.09l-.4-.23a3.62 3.62 0 0 0 -.44-.2 3.43 3.43 0 0 0 -.55-.13 3.58 3.58 0 0 0 -.7-.06 2.92 2.92 0 0 0 -1.16.22 2.39 2.39 0 0 0 -.88.62 2.78 2.78 0 0 0 -.57 1 3.87 3.87 0 0 0 -.19 1.26 3.91 3.91 0 0 0 .21 1.33 2.74 2.74 0 0 0 .6 1 2.58 2.58 0 0 0 .93.62 3.4 3.4 0 0 0 1.22.21 3.22 3.22 0 0 0 .86-.1 3.47 3.47 0 0 0 .74-.27v-1.66h-1.1a.36.36 0 0 1 -.24-.08.29.29 0 0 1 -.09-.22v-.91h2.88v3.51a4.63 4.63 0 0 1 -1.37.71z"/><path d="m136.51.74v.65a1.47 1.47 0 0 1 -.06.46 2.33 2.33 0 0 1 -.12.3l-3.33 6.77a1 1 0 0 1 -.29.35.75.75 0 0 1 -.49.15h-1.08l3.36-6.63a2.58 2.58 0 0 1 .22-.37 2 2 0 0 1 .24-.33h-4.14a.37.37 0 0 1 -.24-.1.33.33 0 0 1 -.1-.24v-1z"/><path d="m141.24 8.31h1.76v-5.06c0-.19 0-.4 0-.62l-1.25 1.05a.5.5 0 0 1 -.21.1.46.46 0 0 1 -.2 0 .59.59 0 0 1 -.16-.07.27.27 0 0 1 -.11-.1l-.45-.61 2.65-2.27h1.21v7.58h1.52v1.11h-4.8z"/><path d="m153.35.74v.65a1.47 1.47 0 0 1 -.06.46 2.33 2.33 0 0 1 -.12.3l-3.29 6.77a1.09 1.09 0 0 1 -.29.35.76.76 0 0 1 -.5.15h-1.09l3.35-6.63a4 4 0 0 1 .22-.37 2 2 0 0 1 .25-.33h-4.15a.34.34 0 0 1 -.34-.34v-1z"/><path d="m158.39 5.66a10 10 0 0 0 .3 2.43 10.08 10.08 0 0 0 .86 2.24.74.74 0 0 1 .07.21.44.44 0 0 1 0 .17.37.37 0 0 1 -.07.12l-.11.08-.66.41a10.5 10.5 0 0 1 -.78-1.38 9.32 9.32 0 0 1 -.51-1.39 9.93 9.93 0 0 1 -.29-1.42 11.84 11.84 0 0 1 -.09-1.47 12.12 12.12 0 0 1 .09-1.48 9.93 9.93 0 0 1 .29-1.42 9.32 9.32 0 0 1 .51-1.39 10.41 10.41 0 0 1 .76-1.37l.66.4.11.08a.37.37 0 0 1 .07.12.41.41 0 0 1 0 .16.7.7 0 0 1 -.07.22 10 10 0 0 0 -1.16 4.68z"/><path d="m166.52.74v.65a1.47 1.47 0 0 1 -.06.46 2.33 2.33 0 0 1 -.12.3l-3.29 6.77a1.09 1.09 0 0 1 -.29.35.76.76 0 0 1 -.5.15h-1.07l3.35-6.63a4 4 0 0 1 .22-.37 2 2 0 0 1 .25-.33h-4.15a.34.34 0 0 1 -.34-.34v-1z"/><path d="m173.48.74v.65a1.47 1.47 0 0 1 -.06.46 2.33 2.33 0 0 1 -.12.3l-3.3 6.77a1.09 1.09 0 0 1 -.29.35.76.76 0 0 1 -.5.15h-1.07l3.35-6.63a4 4 0 0 1 .22-.37 2 2 0 0 1 .25-.33h-4.15a.34.34 0 0 1 -.34-.34v-1z"/><path d="m177.83 6.05.19-.24.18-.24a2.45 2.45 0 0 1 -.66.29 3.1 3.1 0 0 1 -.76.1 2.44 2.44 0 0 1 -.88-.16 2.11 2.11 0 0 1 -.77-.47 2.47 2.47 0 0 1 -.54-.78 2.62 2.62 0 0 1 -.21-1.09 2.66 2.66 0 0 1 .22-1.09 2.59 2.59 0 0 1 .6-.89 2.78 2.78 0 0 1 .94-.61 3.11 3.11 0 0 1 1.21-.22 3.19 3.19 0 0 1 1.19.21 2.51 2.51 0 0 1 1.46 1.49 3.11 3.11 0 0 1 .21 1.16 4.56 4.56 0 0 1 -.07.76 3.92 3.92 0 0 1 -.14.73 5.58 5.58 0 0 1 -.3.66 7.49 7.49 0 0 1 -.41.63l-2 2.83a.88.88 0 0 1 -.31.24 1 1 0 0 1 -.46.1h-1.36zm1-2.69a1.73 1.73 0 0 0 -.11-.63 1.19 1.19 0 0 0 -.3-.47 1.39 1.39 0 0 0 -.48-.3 1.63 1.63 0 0 0 -.59-.1 1.66 1.66 0 0 0 -.61.11 1.33 1.33 0 0 0 -.46.31 1.2 1.2 0 0 0 -.29.47 1.64 1.64 0 0 0 -.11.6 1.54 1.54 0 0 0 .38 1.11 1.43 1.43 0 0 0 1.06.38 1.59 1.59 0 0 0 .64-.12 1.27 1.27 0 0 0 .77-.78 1.57 1.57 0 0 0 .08-.58z"/><path d="m187.5 5.08a7.12 7.12 0 0 1 -.24 2 4.19 4.19 0 0 1 -.67 1.39 2.82 2.82 0 0 1 -1 .81 3.07 3.07 0 0 1 -2.52 0 2.76 2.76 0 0 1 -1-.81 4.19 4.19 0 0 1 -.67-1.39 7.12 7.12 0 0 1 -.24-2 7.12 7.12 0 0 1 .24-2 4 4 0 0 1 .67-1.38 2.57 2.57 0 0 1 1-.81 3.08 3.08 0 0 1 2.52 0 2.62 2.62 0 0 1 1 .81 4 4 0 0 1 .67 1.38 7.12 7.12 0 0 1 .24 2zm-1.53 0a7.51 7.51 0 0 0 -.13-1.56 3.41 3.41 0 0 0 -.37-1 1.28 1.28 0 0 0 -.53-.51 1.42 1.42 0 0 0 -.63-.15 1.31 1.31 0 0 0 -.61.15 1.22 1.22 0 0 0 -.53.51 3.15 3.15 0 0 0 -.36 1 7.43 7.43 0 0 0 -.14 1.56 7.43 7.43 0 0 0 .14 1.56 3.32 3.32 0 0 0 .36 1 1.35 1.35 0 0 0 .53.51 1.31 1.31 0 0 0 .61.15 1.31 1.31 0 0 0 1.16-.66 3.61 3.61 0 0 0 .37-1 7.51 7.51 0 0 0 .16-1.56z"/><path d="m189.37 5.66a10.12 10.12 0 0 0 -1.15-4.66.54.54 0 0 1 -.08-.22.41.41 0 0 1 0-.16.37.37 0 0 1 .07-.12l.12-.08.67-.42a10.41 10.41 0 0 1 .76 1.37 10.52 10.52 0 0 1 .5 1.39 8.73 8.73 0 0 1 .29 1.42 12.12 12.12 0 0 1 .09 1.48 11.84 11.84 0 0 1 -.09 1.47 8.73 8.73 0 0 1 -.29 1.42 10.52 10.52 0 0 1 -.5 1.39 10.5 10.5 0 0 1 -.76 1.38l-.66-.41-.12-.08a.37.37 0 0 1 -.07-.12.44.44 0 0 1 0-.17.56.56 0 0 1 .08-.21 10.12 10.12 0 0 0 1.15-4.67z"/><path d="m6.63 23.82h-1.17v-7.68h-4.3v7.68h-1.16v-8.6h6.63z"/><path d="m11 17.65a3.09 3.09 0 0 1 1.2.22 2.56 2.56 0 0 1 .91.63 2.7 2.7 0 0 1 .58 1 4.26 4.26 0 0 1 0 2.58 2.7 2.7 0 0 1 -.58 1 2.56 2.56 0 0 1 -.91.63 3.56 3.56 0 0 1 -2.41 0 2.61 2.61 0 0 1 -1.49-1.62 4.26 4.26 0 0 1 0-2.58 2.61 2.61 0 0 1 1.49-1.62 3.11 3.11 0 0 1 1.21-.24zm0 5.42a1.55 1.55 0 0 0 1.34-.6 2.78 2.78 0 0 0 .45-1.69 2.8 2.8 0 0 0 -.45-1.69 1.55 1.55 0 0 0 -1.34-.6 2 2 0 0 0 -.8.15 1.64 1.64 0 0 0 -.56.45 2.14 2.14 0 0 0 -.34.73 4 4 0 0 0 -.11 1 2.78 2.78 0 0 0 .45 1.69 1.59 1.59 0 0 0 1.36.56z"/><path d="m20.19 17.74v5.26h1.11v2.57a.29.29 0 0 1 -.31.33h-.66v-2.08h-5.11v1.79a.35.35 0 0 1 -.07.21.25.25 0 0 1 -.22.09h-.67v-2.91h.25a1 1 0 0 0 .41-.09 1.1 1.1 0 0 0 .39-.29 2.13 2.13 0 0 0 .34-.59 5.11 5.11 0 0 0 .3-.95 14.29 14.29 0 0 0 .24-1.42c.07-.55.12-1.21.15-2zm-3 .84c0 .63-.1 1.18-.17 1.66a12.75 12.75 0 0 1 -.25 1.26 7 7 0 0 1 -.31.92 3.77 3.77 0 0 1 -.36.62h3v-4.46z"/><path d="m27.44 17.74v6.08h-1.07v-2.82h-2.92v2.84h-1.07v-6.1h1.07v2.43h2.92v-2.43z"/><path d="m29.14 23.83v-6.08h1.07v4.13a2 2 0 0 1 0 .24v.28a1.47 1.47 0 0 1 .1-.22 1.74 1.74 0 0 0 .11-.18l.14-.19c.09-.11.2-.27.34-.46l.47-.64.54-.73c.42-.58.9-1.24 1.45-2a.94.94 0 0 1 .17-.18.31.31 0 0 1 .22-.09h.64v6.08h-1.11v-4.1c0-.07 0-.16 0-.25v-.28a1.13 1.13 0 0 1 -.11.22l-.11.19a2.17 2.17 0 0 0 -.14.19l-.34.46-.47.64-.54.73-1.44 2a1.41 1.41 0 0 1 -.17.18.31.31 0 0 1 -.22.09z"/><path d="m39.33 21.42.12.29a5.89 5.89 0 0 1 .24-.58l1.86-3.13a.39.39 0 0 1 .19-.19.54.54 0 0 1 .22-.05h.86v6.1h-1v-4c0-.11 0-.23 0-.37s0-.27.06-.39l-2.11 3.7a.64.64 0 0 1 -.13.15.35.35 0 0 1 -.18.05h-.12a.35.35 0 0 1 -.18-.05.37.37 0 0 1 -.13-.15l-2.1-3.8v.39a2.75 2.75 0 0 1 0 .38v4h-.93v-6.1h.86a.43.43 0 0 1 .22.06.41.41 0 0 1 .19.18l1.89 3.17a2.55 2.55 0 0 1 .17.34z"/><path d="m44.51 23.83v-6.08h1.07v4.13a2 2 0 0 1 0 .24v.28a1.51 1.51 0 0 1 .11-.22 1.74 1.74 0 0 1 .11-.18s.05-.07.13-.19.2-.27.34-.46l.47-.64.54-.73 1.45-2a.94.94 0 0 1 .17-.18.33.33 0 0 1 .22-.09h.64v6.08h-1.11v-4.1a2.5 2.5 0 0 1 0-.25 1.41 1.41 0 0 1 0-.28 2.18 2.18 0 0 1 -.12.22 1.18 1.18 0 0 1 -.11.19l-.14.19c-.08.12-.2.27-.34.46l-.47.64-.53.73-1.45 2a.94.94 0 0 1 -.17.18.29.29 0 0 1 -.21.09z"/><path d="m50.73 17.74h5.74v.82h-2.34v5.26h-1.07v-5.26h-2.33z"/><path d="m59.72 17.65a2.75 2.75 0 0 1 1 .18 2.32 2.32 0 0 1 .81.53 2.51 2.51 0 0 1 .53.85 3.19 3.19 0 0 1 .19 1.15.83.83 0 0 1 0 .34.23.23 0 0 1 -.21.08h-4.1a3.34 3.34 0 0 0 .16 1 2.11 2.11 0 0 0 .39.71 1.56 1.56 0 0 0 .6.42 2 2 0 0 0 .78.14 2.43 2.43 0 0 0 .7-.09 3.46 3.46 0 0 0 .5-.2l.35-.2a.45.45 0 0 1 .24-.09.21.21 0 0 1 .2.1l.31.39a2.16 2.16 0 0 1 -.48.42 3.59 3.59 0 0 1 -.59.29 4.77 4.77 0 0 1 -.65.17 3.78 3.78 0 0 1 -.67 0 3.15 3.15 0 0 1 -1.16-.21 2.62 2.62 0 0 1 -.92-.62 3.2 3.2 0 0 1 -.6-1 4.23 4.23 0 0 1 -.21-1.39 3.54 3.54 0 0 1 .19-1.19 2.86 2.86 0 0 1 .56-1 2.52 2.52 0 0 1 .9-.63 2.79 2.79 0 0 1 1.18-.15zm0 .78a1.62 1.62 0 0 0 -1.22.45 2.07 2.07 0 0 0 -.5 1.24h3.3a2.07 2.07 0 0 0 -.1-.68 1.59 1.59 0 0 0 -.31-.54 1.31 1.31 0 0 0 -.49-.34 1.51 1.51 0 0 0 -.65-.13z"/><path d="m66.64 23.83v-6.08h1.08v4.13a2.12 2.12 0 0 1 0 .24 1.33 1.33 0 0 1 0 .28c0-.08.07-.15.11-.22l.11-.18a2.06 2.06 0 0 1 .14-.19c.09-.11.2-.27.34-.46s.29-.4.47-.64l.53-.73 1.45-2a1.41 1.41 0 0 1 .17-.18.33.33 0 0 1 .22-.09h.64v6.08h-1.11v-4.1a2.26 2.26 0 0 1 0-.25v-.28a2.25 2.25 0 0 1 -.11.22l-.11.19a1 1 0 0 0 -.14.19l-.34.46-.48.64-.53.73-1.45 2a1.29 1.29 0 0 1 -.16.18.33.33 0 0 1 -.22.09z"/><path d="m77.49 17.74v.82h-2.87v5.26h-1.07v-6.08z"/><path d="m78.5 25.88v-8.14h.65a.27.27 0 0 1 .28.22l.09.72a3.21 3.21 0 0 1 .89-.76 2.42 2.42 0 0 1 2.11-.09 2.07 2.07 0 0 1 .72.6 2.73 2.73 0 0 1 .46 1 5 5 0 0 1 .17 1.34 4.15 4.15 0 0 1 -.18 1.23 3.22 3.22 0 0 1 -.52 1 2.43 2.43 0 0 1 -.83.66 2.47 2.47 0 0 1 -1.1.24 2.35 2.35 0 0 1 -1-.18 2.24 2.24 0 0 1 -.7-.53v2.69zm2.71-7.38a1.72 1.72 0 0 0 -.91.24 2.55 2.55 0 0 0 -.72.68v2.94a1.57 1.57 0 0 0 .64.55 1.79 1.79 0 0 0 .78.17 1.56 1.56 0 0 0 1.31-.61 2.85 2.85 0 0 0 .45-1.73 4.4 4.4 0 0 0 -.1-1 2 2 0 0 0 -.31-.7 1.23 1.23 0 0 0 -.48-.4 1.69 1.69 0 0 0 -.66-.14z"/><path d="m86.92 25.61a.78.78 0 0 1 -.14.2.41.41 0 0 1 -.25.07h-.79l1.11-2.41-2.51-5.73h.93a.33.33 0 0 1 .21.07.4.4 0 0 1 .12.15l1.62 3.83.09.27a2.13 2.13 0 0 1 .07.27l.18-.54 1.58-3.79a.44.44 0 0 1 .12-.15.31.31 0 0 1 .2-.07h.85z"/><path d="m99.38 17.74v6.08h-1.07v-2.82h-2.92v2.84h-1.07v-6.1h1.07v2.43h2.92v-2.43z"/><path d="m104.94 23.82a.51.51 0 0 1 -.24-.05.31.31 0 0 1 -.13-.2l-.12-.57-.47.39a3 3 0 0 1 -.48.28 2.45 2.45 0 0 1 -.54.18 2.48 2.48 0 0 1 -.63.07 2.41 2.41 0 0 1 -.67-.1 1.57 1.57 0 0 1 -.54-.3 1.45 1.45 0 0 1 -.37-.5 1.75 1.75 0 0 1 -.13-.72 1.34 1.34 0 0 1 .2-.69 1.68 1.68 0 0 1 .64-.59 4.3 4.3 0 0 1 1.16-.42 8.34 8.34 0 0 1 1.75-.19v-.48a1.59 1.59 0 0 0 -.31-1.07 1.1 1.1 0 0 0 -.89-.36 1.76 1.76 0 0 0 -.66.1 2.28 2.28 0 0 0 -.47.22l-.33.22a.48.48 0 0 1 -.28.1.33.33 0 0 1 -.19-.06.58.58 0 0 1 -.13-.14l-.19-.34a3.6 3.6 0 0 1 1.09-.73 3.3 3.3 0 0 1 1.29-.24 2.29 2.29 0 0 1 .9.17 1.8 1.8 0 0 1 .67.47 1.91 1.91 0 0 1 .4.73 2.75 2.75 0 0 1 .14.93v3.89zm-2.29-.65a2 2 0 0 0 .51-.06 1.91 1.91 0 0 0 .44-.16 2.48 2.48 0 0 0 .4-.26 3 3 0 0 0 .37-.35v-1.26a10 10 0 0 0 -1.26.12 3.41 3.41 0 0 0 -.84.24 1.16 1.16 0 0 0 -.48.36.73.73 0 0 0 -.14.45 1.09 1.09 0 0 0 .07.42.76.76 0 0 0 .22.28.85.85 0 0 0 .31.17 1.75 1.75 0 0 0 .4.05z"/><path d="m115.17 17.74v6.08h-1.07v-2.82h-2.92v2.84h-1.07v-6.1h1.07v2.43h2.92v-2.43z"/><path d="m119.43 17.65a3.09 3.09 0 0 1 1.2.22 2.65 2.65 0 0 1 .91.63 2.85 2.85 0 0 1 .58 1 4.26 4.26 0 0 1 0 2.58 2.85 2.85 0 0 1 -.58 1 2.65 2.65 0 0 1 -.91.63 3.56 3.56 0 0 1 -2.41 0 2.54 2.54 0 0 1 -1.49-1.62 4.07 4.07 0 0 1 0-2.58 2.54 2.54 0 0 1 1.49-1.62 3.11 3.11 0 0 1 1.21-.24zm0 5.42a1.55 1.55 0 0 0 1.34-.6 2.78 2.78 0 0 0 .45-1.69 2.8 2.8 0 0 0 -.45-1.69 1.55 1.55 0 0 0 -1.34-.6 2 2 0 0 0 -.8.15 1.64 1.64 0 0 0 -.56.45 2.14 2.14 0 0 0 -.34.73 4 4 0 0 0 -.11 1 2.78 2.78 0 0 0 .45 1.69 1.59 1.59 0 0 0 1.36.56z"/><path d="m123.67 17.74h2.23a3.4 3.4 0 0 1 1 .12 1.84 1.84 0 0 1 .66.31 1.16 1.16 0 0 1 .38.45 1.39 1.39 0 0 1 .12.57 2 2 0 0 1 -.05.41 1.43 1.43 0 0 1 -.19.42 1.38 1.38 0 0 1 -.37.35 1.72 1.72 0 0 1 -.58.25 1.94 1.94 0 0 1 1.07.49 1.23 1.23 0 0 1 .38.95 1.54 1.54 0 0 1 -.17.77 1.61 1.61 0 0 1 -.49.55 2.16 2.16 0 0 1 -.72.33 3.62 3.62 0 0 1 -.89.11h-2.34zm1 2.63h1.17a1.27 1.27 0 0 0 .48-.08.92.92 0 0 0 .39-.21.8.8 0 0 0 .25-.32.93.93 0 0 0 .09-.42.87.87 0 0 0 -.05-.34.61.61 0 0 0 -.2-.28 1 1 0 0 0 -.38-.2 1.86 1.86 0 0 0 -.57-.08h-1.15zm0 .68v2h1.33a1.45 1.45 0 0 0 1-.28.92.92 0 0 0 .35-.76 1 1 0 0 0 -.07-.4.78.78 0 0 0 -.21-.31 1.25 1.25 0 0 0 -.4-.2 2.18 2.18 0 0 0 -.61-.07z"/><path d="m130.65 17.74v2.38h1.29a3.22 3.22 0 0 1 1.06.15 1.78 1.78 0 0 1 .69.41 1.4 1.4 0 0 1 .38.58 2.25 2.25 0 0 1 .11.68 2.1 2.1 0 0 1 -.14.76 1.66 1.66 0 0 1 -.43.59 2.1 2.1 0 0 1 -.69.39 3.13 3.13 0 0 1 -1 .14h-2.33v-6.08zm0 3.16v2.1h1.35a1.84 1.84 0 0 0 .56-.08 1.05 1.05 0 0 0 .4-.23 1 1 0 0 0 .23-.34 1.27 1.27 0 0 0 .08-.44 1.09 1.09 0 0 0 -.07-.4.74.74 0 0 0 -.22-.33.92.92 0 0 0 -.4-.23 1.72 1.72 0 0 0 -.6-.09zm5.94-3.16v6.08h-1.07v-6.08z"/><path d="m138.29 23.83v-6.08h1.07v4.13a2 2 0 0 1 0 .24v.28c0-.08.07-.15.1-.22a1.74 1.74 0 0 0 .11-.18l.14-.19c.09-.11.2-.27.34-.46l.47-.64.48-.71c.42-.58.9-1.24 1.45-2a.94.94 0 0 1 .17-.18.31.31 0 0 1 .22-.09h.64v6.08h-1.07v-4.12c0-.07 0-.16 0-.25v-.28a1.13 1.13 0 0 1 -.11.22l-.11.19a2.17 2.17 0 0 0 -.14.19l-.34.46-.47.64-.54.73-1.44 2a1.41 1.41 0 0 1 -.17.18.31.31 0 0 1 -.22.09zm2.71-7.56a1.29 1.29 0 0 0 .42-.06.5.5 0 0 0 .27-.18.73.73 0 0 0 .15-.32 2.24 2.24 0 0 0 0-.49h.62a.21.21 0 0 1 .18.1.46.46 0 0 1 .06.23 1.19 1.19 0 0 1 -.12.54 1.24 1.24 0 0 1 -.35.41 1.65 1.65 0 0 1 -.55.26 2.7 2.7 0 0 1 -.73.09 2.75 2.75 0 0 1 -.73-.09 1.65 1.65 0 0 1 -.55-.26 1.21 1.21 0 0 1 -.34-.41 1.19 1.19 0 0 1 -.12-.54.46.46 0 0 1 .06-.23.19.19 0 0 1 .17-.1h.62a2.24 2.24 0 0 0 .05.49.73.73 0 0 0 .15.32.57.57 0 0 0 .28.18 1.22 1.22 0 0 0 .46.06z"/><path d="m150.12 25.61a.6.6 0 0 1 -.14.2.39.39 0 0 1 -.25.07h-.79l1.11-2.41-2.51-5.73h.93a.38.38 0 0 1 .22.07.48.48 0 0 1 .11.15l1.62 3.83a1.43 1.43 0 0 1 .09.27c0 .09.05.17.08.27q.07-.27.18-.54l1.57-3.79a.37.37 0 0 1 .13-.15.26.26 0 0 1 .19-.07h.85z"/><path d="m154.45 25.88v-8.14h.64a.26.26 0 0 1 .28.22l.09.72a3.25 3.25 0 0 1 .9-.76 2.28 2.28 0 0 1 1.15-.29 2.24 2.24 0 0 1 1 .2 2 2 0 0 1 .73.6 2.91 2.91 0 0 1 .46 1 5 5 0 0 1 .16 1.34 4.15 4.15 0 0 1 -.18 1.25 3 3 0 0 1 -.52 1 2.39 2.39 0 0 1 -.82.66 2.5 2.5 0 0 1 -1.1.24 2.06 2.06 0 0 1 -1.67-.71v2.69zm2.71-7.38a1.69 1.69 0 0 0 -.91.24 2.45 2.45 0 0 0 -.73.68v2.94a1.7 1.7 0 0 0 .64.55 1.86 1.86 0 0 0 .79.17 1.54 1.54 0 0 0 1.3-.61 2.78 2.78 0 0 0 .46-1.73 3.89 3.89 0 0 0 -.11-1 2.14 2.14 0 0 0 -.3-.7 1.23 1.23 0 0 0 -.48-.4 1.73 1.73 0 0 0 -.66-.14z"/><path d="m163.73 17.65a3 3 0 0 1 1.2.22 2.61 2.61 0 0 1 1.49 1.62 4.26 4.26 0 0 1 0 2.58 2.61 2.61 0 0 1 -1.49 1.62 3.21 3.21 0 0 1 -1.2.21 3.3 3.3 0 0 1 -1.21-.21 2.56 2.56 0 0 1 -.91-.63 2.7 2.7 0 0 1 -.58-1 4.26 4.26 0 0 1 0-2.58 2.7 2.7 0 0 1 .58-1 2.56 2.56 0 0 1 .91-.63 3.11 3.11 0 0 1 1.21-.2zm0 5.42a1.58 1.58 0 0 0 1.35-.6 2.85 2.85 0 0 0 .44-1.69 2.88 2.88 0 0 0 -.44-1.69 1.58 1.58 0 0 0 -1.35-.6 1.92 1.92 0 0 0 -.79.15 1.59 1.59 0 0 0 -.57.45 2 2 0 0 0 -.33.73 3.52 3.52 0 0 0 -.11 1 2.78 2.78 0 0 0 .44 1.69 1.59 1.59 0 0 0 1.36.56z"/><path d="m168 17.74h2.23a3.43 3.43 0 0 1 1 .12 2 2 0 0 1 .66.31 1.14 1.14 0 0 1 .37.45 1.39 1.39 0 0 1 .12.57 1.48 1.48 0 0 1 0 .41 1.43 1.43 0 0 1 -.19.42 1.25 1.25 0 0 1 -.37.35 1.67 1.67 0 0 1 -.57.25 2 2 0 0 1 1.07.49 1.27 1.27 0 0 1 .38.95 1.54 1.54 0 0 1 -.18.77 1.61 1.61 0 0 1 -.49.55 2 2 0 0 1 -.72.33 3.56 3.56 0 0 1 -.89.11h-2.42zm1 2.63h1.17a1.29 1.29 0 0 0 .49-.08.92.92 0 0 0 .39-.21.89.89 0 0 0 .25-.32.93.93 0 0 0 .09-.42.87.87 0 0 0 -.06-.32.63.63 0 0 0 -.21-.28.93.93 0 0 0 -.37-.2 1.93 1.93 0 0 0 -.58-.08h-1.17zm0 .68v2h1.31a1.47 1.47 0 0 0 .95-.28.91.91 0 0 0 .34-.76 1.25 1.25 0 0 0 -.06-.4.93.93 0 0 0 -.22-.31 1.15 1.15 0 0 0 -.4-.2 2.13 2.13 0 0 0 -.61-.07z"/><path d="m176.42 17.65a2.75 2.75 0 0 1 1 .18 2.32 2.32 0 0 1 .81.53 2.51 2.51 0 0 1 .53.85 3.19 3.19 0 0 1 .19 1.15.83.83 0 0 1 -.05.34.23.23 0 0 1 -.21.08h-4.06a3.34 3.34 0 0 0 .16 1 2 2 0 0 0 .39.71 1.56 1.56 0 0 0 .6.42 1.94 1.94 0 0 0 .78.14 2.31 2.31 0 0 0 .69-.09 3.19 3.19 0 0 0 .51-.2l.35-.2a.45.45 0 0 1 .24-.09.21.21 0 0 1 .2.1l.3.39a2.11 2.11 0 0 1 -.47.42 3.59 3.59 0 0 1 -.59.29 4.77 4.77 0 0 1 -.65.17 3.85 3.85 0 0 1 -.67 0 3.11 3.11 0 0 1 -1.16-.21 2.62 2.62 0 0 1 -.92-.62 2.87 2.87 0 0 1 -.6-1 4.22 4.22 0 0 1 -.22-1.39 3.54 3.54 0 0 1 .2-1.19 2.86 2.86 0 0 1 .56-1 2.48 2.48 0 0 1 .89-.63 2.87 2.87 0 0 1 1.2-.15zm0 .78a1.62 1.62 0 0 0 -1.22.45 2.07 2.07 0 0 0 -.55 1.24h3.35a2.06 2.06 0 0 0 -.11-.68 1.57 1.57 0 0 0 -.3-.54 1.39 1.39 0 0 0 -.49-.34 1.51 1.51 0 0 0 -.65-.13z"/><path d="m185.33 17.74v6.08h-1.07v-2.82h-2.92v2.84h-1.07v-6.1h1.07v2.43h2.92v-2.43z"/><path d="m188.05 17.74v2.38h1.29a3.26 3.26 0 0 1 1.06.15 2 2 0 0 1 .69.41 1.38 1.38 0 0 1 .37.58 2 2 0 0 1 .12.68 1.91 1.91 0 0 1 -.15.76 1.64 1.64 0 0 1 -.42.59 2.06 2.06 0 0 1 -.7.39 3 3 0 0 1 -.95.14h-2.36v-6.08zm0 3.16v2.1h1.31a1.89 1.89 0 0 0 .56-.08.94.94 0 0 0 .39-.23 1 1 0 0 0 .24-.34 1.27 1.27 0 0 0 .07-.44 1.34 1.34 0 0 0 -.06-.4.83.83 0 0 0 -.22-.33 1 1 0 0 0 -.4-.23 1.76 1.76 0 0 0 -.6-.09z"/><path d="m192.78 23.16a.93.93 0 0 1 .05-.29.72.72 0 0 1 .16-.24.81.81 0 0 1 .24-.17.73.73 0 0 1 .3-.06.72.72 0 0 1 .29.06.81.81 0 0 1 .24.17.77.77 0 0 1 .22.53.73.73 0 0 1 -.06.3.79.79 0 0 1 -.16.23.63.63 0 0 1 -.24.16.72.72 0 0 1 -.29.06.73.73 0 0 1 -.3-.06.63.63 0 0 1 -.24-.16.79.79 0 0 1 -.16-.23.94.94 0 0 1 -.05-.3zm1.28-7.94v3.43.53s0 .35 0 .52 0 .35 0 .54 0 .37-.06.58h-.72c0-.21-.05-.4-.07-.58s0-.36 0-.54 0-.35 0-.52 0-.35 0-.53v-3.43z"/></g></svg>