<svg viewBox="0 0 98.01 58.67" xmlns="http://www.w3.org/2000/svg"><g fill="#4a4a49"><path d="m41.42 57.18a36.56 36.56 0 0 1 -10.58 1.49 35.44 35.44 0 0 1 -12.72-2.18 28.36 28.36 0 0 1 -9.72-6.08 26.6 26.6 0 0 1 -6.22-9.29 31.2 31.2 0 0 1 -2.18-11.79 32.41 32.41 0 0 1 2.1-11.86 26.87 26.87 0 0 1 6-9.29 26.6 26.6 0 0 1 9.39-6 33.88 33.88 0 0 1 12.36-2.18 36.27 36.27 0 0 1 6.53.56 34.14 34.14 0 0 1 5.62 1.52 24.4 24.4 0 0 1 4.74 2.37 27.8 27.8 0 0 1 3.95 3.05l-3.06 4.84a2.87 2.87 0 0 1 -1.86 1.41 3.32 3.32 0 0 1 -2.5-.57l-2.62-1.51a17.41 17.41 0 0 0 -2.92-1.31 24.35 24.35 0 0 0 -3.61-.91 26.47 26.47 0 0 0 -4.63-.36 19.87 19.87 0 0 0 -7.68 1.43 16.07 16.07 0 0 0 -5.81 4.09 18.23 18.23 0 0 0 -3.77 6.39 24.85 24.85 0 0 0 -1.31 8.33 25.59 25.59 0 0 0 1.41 8.8 18.48 18.48 0 0 0 4 6.55 17 17 0 0 0 6.18 4.09 22 22 0 0 0 8.06 1.4 22.32 22.32 0 0 0 5.67-.65 26.57 26.57 0 0 0 4.88-1.81v-10.44h-7.26a2.2 2.2 0 0 1 -1.61-.57 2 2 0 0 1 -.57-1.41v-6h19v23.19a30.37 30.37 0 0 1 -9.26 4.7z"/><path d="m98 .63v4.25a9.67 9.67 0 0 1 -.39 3.12 15.84 15.84 0 0 1 -.79 2l-21.76 44.7a6.68 6.68 0 0 1 -1.9 2.36 5.16 5.16 0 0 1 -3.3 1h-7.1l22.24-43.89c.47-.9 1-1.73 1.45-2.48a18.89 18.89 0 0 1 1.55-2.16h-27.39a2.17 2.17 0 0 1 -1.61-.68 2.18 2.18 0 0 1 -.68-1.59v-6.63z"/></g></svg>