<svg viewBox="0 0 101.04 116.37" xmlns="http://www.w3.org/2000/svg"><g fill="#4a4a49"><path d="m26.09 45.71v-10.71h3.17a5.11 5.11 0 0 1 4.84 5.35 5.11 5.11 0 0 1 -4.84 5.35zm3.17 3.54a8.9 8.9 0 0 0 8.6-6.65l10 7.85 10.14-7.85v6.65h11.42v-3.54h-7.42v-14.23h-4v6.64l-9.64 7.53-2.2-1.65 4.62-3.61 5-3.92-2.85-2.27-9.63 7.52-2.16-1.72 9.64-7.53-2.87-2.24-10 7.86a8.89 8.89 0 0 0 -8.6-6.65h-7.26v17.81zm53-3.54v3.54h-11.47v-17.77h4v14.23zm-31.48 31a36.33 36.33 0 1 1 36.32-36.35 36.34 36.34 0 0 1 -36.32 36.33zm0-76.71a40.36 40.36 0 1 0 40.36 40.36 40.36 40.36 0 0 0 -40.36-40.36z"/><path d="m16 116.11h-2.32l-.26-.25-.25-1.27h-.25a5.89 5.89 0 0 1 -4.56 1.78c-5.07 0-8.36-3.8-8.36-9.12s3.29-9.12 8.61-9.12c5.06 0 7.09 2.79 7.6 5.32l-.26.25h-3l-.25-.25c-.51-1-1.27-2.28-4.05-2.28-3.29 0-5.07 2.54-5.06 6.08s1.77 6.08 5.06 6.08c2.79 0 4.05-1.52 4.05-3.55l-.25-.25h-4.35l-.25-.25v-2.54l.25-.25h7.9l.26.25v9.12z"/><path d="m26.59 102.94h-.25l-2.28 6.06.25.25h4.31l.25-.25-2.28-6.08zm7.34 13.17h-2.27l-.26-.25-1.26-3.29-.51-.26h-6.33l-.51.26-1.26 3.29-.26.25h-2.27l-.25-.25v-2.53l5.82-14.69.26-.25h3.29l.25.26 5.83 14.68v2.54l-.26.25z"/><path d="m55.46 116.11h-3.04l-.25-.25v-9.88h-.26l-4.05 9.88-.25.25h-2.79l-.25-.25-4.05-9.88h-.25v9.88l-.26.25h-3.04l-.25-.25v-17.22l.25-.26h3.8l.25.26 5.07 12.4h.25l5.07-12.4.25-.26h3.8l.25.26v17.21z"/><path d="m63.06 116.11h-3.04l-.25-.26v-17.22l.25-.25h3.04l.25.25v17.22z"/><path d="m67.61 98.38h3.55l.51.25 6.83 11.65h.26v-11.65l.25-.25h3.04l.25.25v17.22l-.25.26h-3.54l-.51-.26-6.84-11.65h-.25v11.65l-.25.26h-3.04l-.26-.26v-17.22z"/><path d="m100.79 116.1h-2.28l-.25-.25-.26-1.27h-.25a5.85 5.85 0 0 1 -4.56 1.78c-5.06 0-8.35-3.8-8.35-9.12s3.29-9.12 8.61-9.12c5.06 0 7.09 2.79 7.59 5.32l-.25.25h-3l-.25-.25c-.51-1-1.27-2.28-4-2.28-3.3 0-5.07 2.54-5.07 6.08s1.78 6.08 5.07 6.08c2.78 0 4-1.52 4-3.55l-.25-.25h-4.35l-.25-.25v-2.54l.25-.25h7.85l.25.25v9.12z"/></g></svg>