<svg enable-background="new 0 0 141.9 61.2" height="61.2" viewBox="0 0 141.9 61.2" width="141.9" xmlns="http://www.w3.org/2000/svg"><g fill="#505050"><path d="m25.9 0h11v14h-1.9v-12.3h-7.3v12.3h-1.9v-14z"/><path d="m39.7 17.9v-14h1.6v1.3c.4-.5.8-.9 1.3-1.2s1-.4 1.7-.4c.9 0 1.6.2 2.3.7.7.4 1.2 1.1 1.5 1.9s.5 1.7.5 2.7-.2 2-.6 2.8-.9 1.5-1.6 1.9-1.5.7-2.2.7c-.6 0-1.1-.1-1.5-.4-.5-.2-.8-.5-1.1-.9v4.9zm1.6-8.9c0 1.3.3 2.3.8 2.9s1.2.9 1.9.9c.8 0 1.4-.3 2-1 .5-.6.8-1.6.8-3 0-1.3-.3-2.3-.8-2.9s-1.2-1-1.9-1-1.4.3-1.9 1c-.6.8-.9 1.8-.9 3.1z"/><path d="m50 8.9c0-1.9.5-3.3 1.6-4.2.9-.8 1.9-1.1 3.2-1.1 1.4 0 2.5.5 3.4 1.4s1.3 2.2 1.3 3.8c0 1.3-.2 2.3-.6 3.1-.4.7-1 1.3-1.7 1.7s-1.6.6-2.5.6c-1.4 0-2.6-.5-3.4-1.4-.9-.8-1.3-2.1-1.3-3.9zm1.7 0c0 1.3.3 2.3.9 2.9s1.3 1 2.1 1c.9 0 1.6-.3 2.1-1 .6-.6.9-1.6.9-3 0-1.3-.3-2.2-.9-2.9-.6-.6-1.3-1-2.1-1-.9 0-1.6.3-2.1 1s-.9 1.7-.9 3z"/><path d="m61.5 3.9h1.7v8.7h4.8v-8.7h1.7v8.7h1.1v4.3h-1.4v-2.9h-7.9z"/><path d="m79.4 10.7 1.8.2c-.3 1-.8 1.8-1.6 2.4s-1.7.9-2.9.9c-1.5 0-2.7-.5-3.5-1.4-.9-.9-1.3-2.2-1.3-3.8 0-1.7.4-3 1.3-4s2-1.4 3.4-1.4 2.5.5 3.4 1.4 1.3 2.2 1.3 3.9v.5h-7.6c.1 1.1.4 2 .9 2.6.6.6 1.3.9 2.1.9.6 0 1.2-.2 1.6-.5.5-.4.9-.9 1.1-1.7zm-5.6-2.7h5.7c-.1-.9-.3-1.5-.7-1.9-.5-.7-1.3-1-2.1-1s-1.5.3-2 .8-.9 1.2-.9 2.1z"/><path d="m90 10.3 1.7.2c-.2 1.2-.7 2.1-1.4 2.7-.8.7-1.7 1-2.8 1-1.4 0-2.5-.5-3.4-1.4s-1.3-2.2-1.3-3.9c0-1.1.2-2.1.5-2.9.4-.8.9-1.4 1.7-1.8.7-.4 1.6-.6 2.4-.6 1.1 0 2 .3 2.7.8.7.6 1.2 1.3 1.3 2.4l-1.7.3c-.2-.7-.4-1.2-.8-1.5-.3-.4-.8-.6-1.4-.6-.8 0-1.5.4-2.1 1-.5.6-.8 1.6-.8 2.9 0 1.4.3 2.4.8 3s1.2.9 2 .9c.7 0 1.2-.2 1.7-.6s.8-1 .9-1.9z"/><path d="m99.8 10.3 1.7.2c-.2 1.2-.7 2.1-1.4 2.7-.8.7-1.7 1-2.8 1-1.4 0-2.5-.5-3.4-1.4s-1.3-2.2-1.3-3.9c0-1.1.2-2.1.5-2.9.4-.8.9-1.4 1.7-1.8.7-.4 1.6-.6 2.4-.6 1.1 0 2 .3 2.7.8.7.6 1.2 1.3 1.3 2.4l-1.7.3c-.2-.7-.4-1.2-.8-1.5-.3-.4-.8-.6-1.4-.6-.9 0-1.6.3-2.1.9s-.8 1.6-.8 2.9c0 1.4.3 2.4.8 3s1.2.9 2 .9c.7 0 1.2-.2 1.7-.6.5-.3.8-.9.9-1.8z"/><path d="m102.5 8.9c0-1.9.5-3.3 1.6-4.2.9-.8 1.9-1.1 3.2-1.1 1.4 0 2.5.5 3.4 1.4s1.3 2.2 1.3 3.8c0 1.3-.2 2.3-.6 3.1-.4.7-1 1.3-1.7 1.7s-1.6.6-2.5.6c-1.4 0-2.6-.5-3.4-1.4-.8-.8-1.3-2.1-1.3-3.9zm1.8 0c0 1.3.3 2.3.9 2.9s1.3 1 2.1 1c.9 0 1.6-.3 2.1-1 .6-.6.9-1.6.9-3 0-1.3-.3-2.2-.9-2.9-.6-.6-1.3-1-2.1-1-.9 0-1.6.3-2.1 1s-.9 1.7-.9 3z"/><path d="m114.1 17.9v-14h1.6v1.3c.4-.5.8-.9 1.3-1.2s1-.4 1.7-.4c.9 0 1.6.2 2.3.7.7.4 1.2 1.1 1.5 1.9s.5 1.7.5 2.7-.2 2-.6 2.8-.9 1.5-1.6 1.9-1.5.7-2.2.7c-.6 0-1.1-.1-1.5-.4-.5-.2-.8-.5-1.1-.9v4.9zm1.5-8.9c0 1.3.3 2.3.8 2.9s1.2.9 1.9.9c.8 0 1.4-.3 2-1 .5-.6.8-1.6.8-3 0-1.3-.3-2.3-.8-2.9s-1.2-1-1.9-1-1.4.3-1.9 1c-.6.8-.9 1.8-.9 3.1z"/><path d="m125 3.9h1.7v4h2.2c1.4 0 2.5.3 3.3.8.8.6 1.2 1.3 1.2 2.3 0 .8-.3 1.6-1 2.2-.6.6-1.7.9-3.1.9h-4.3zm1.7 8.7h1.8c1.1 0 1.9-.1 2.3-.4.5-.3.7-.7.7-1.3 0-.4-.2-.8-.5-1.2-.3-.3-1.1-.5-2.3-.5h-2zm7.9-8.7h1.7v10.1h-1.7z"/><path d="m0 37.5v-14h1.9v14z"/><path d="m4.9 37.5v-10.1h1.5v1.4c.7-1.1 1.8-1.7 3.2-1.7.6 0 1.2.1 1.7.3s.9.5 1.2.9.4.8.5 1.3c.1.3.1.9.1 1.7v6.2h-1.7v-6.2c0-.7-.1-1.2-.2-1.6-.1-.3-.4-.6-.7-.8s-.7-.3-1.2-.3c-.7 0-1.4.2-1.9.7s-.8 1.4-.8 2.7v5.5z"/><path d="m19.5 36 .2 1.5c-.5.1-.9.2-1.3.2-.6 0-1.1-.1-1.5-.3-.3-.2-.6-.5-.7-.8s-.2-1-.2-2v-5.8h-1.3v-1.3h1.3v-2.5l1.7-1v3.5h1.7v1.3h-1.7v5.9c0 .5 0 .8.1.9s.2.3.3.3c.1.1.3.1.6.1z"/><path d="m28.2 34.2 1.8.2c-.3 1-.8 1.8-1.6 2.4s-1.7.9-2.9.9c-1.5 0-2.7-.5-3.5-1.4-.9-.9-1.3-2.2-1.3-3.8 0-1.7.4-3 1.3-4s2-1.4 3.4-1.4 2.5.5 3.3 1.4c.9.9 1.3 2.2 1.3 3.9v.5h-7.6c.1 1.1.4 2 .9 2.6.6.6 1.3.9 2.1.9.6 0 1.2-.2 1.6-.5.6-.4.9-.9 1.2-1.7zm-5.7-2.7h5.7c-.1-.9-.3-1.5-.7-1.9-.5-.7-1.3-1-2.1-1s-1.5.3-2 .8-.8 1.2-.9 2.1z"/><path d="m32.1 37.5v-14h1.7v14z"/><path d="m42.4 23.3c1.2 0 2.4.3 3.5.9s2.1 1.5 2.7 2.7 1 2.4 1 3.6-.3 2.4-1 3.6c-.6 1.1-1.5 2-2.7 2.7-1.1.6-2.3 1-3.6 1s-2.4-.3-3.6-1c-1.1-.6-2-1.5-2.7-2.7-.6-1.1-1-2.3-1-3.6s.3-2.5 1-3.6 1.5-2 2.7-2.7 2.5-.9 3.7-.9zm0 1.1c-1 0-2 .3-3 .8s-1.7 1.3-2.3 2.2c-.5 1-.8 2-.8 3s.3 2 .8 3 1.3 1.7 2.2 2.2c1 .5 2 .8 3 .8s2-.3 3-.8 1.7-1.3 2.2-2.2.8-1.9.8-3c0-1-.3-2.1-.8-3-.5-1-1.3-1.7-2.3-2.2-.8-.5-1.8-.8-2.8-.8zm-3.1 10.1v-7.8h2.7c.9 0 1.6.1 2 .2s.7.4 1 .8.4.7.4 1.1c0 .6-.2 1.1-.6 1.5s-.9.7-1.6.7c.3.1.5.3.7.4.3.3.7.8 1.1 1.5l.9 1.5h-1.5l-.7-1.2c-.5-1-1-1.6-1.3-1.8-.2-.2-.6-.3-1-.3h-.7v3.3h-1.4zm1.2-4.4h1.5c.7 0 1.2-.1 1.5-.3s.4-.5.4-.9c0-.2-.1-.4-.2-.6s-.3-.3-.5-.4-.6-.1-1.3-.1h-1.4z"/><path d="m66.6 32.6 1.9.5c-.4 1.5-1.1 2.7-2.1 3.5s-2.2 1.2-3.7 1.2-2.7-.3-3.7-.9c-.9-.6-1.7-1.5-2.2-2.7s-.8-2.5-.8-3.8c0-1.5.3-2.7.8-3.8.6-1.1 1.4-1.9 2.4-2.5s2.2-.8 3.4-.8c1.4 0 2.6.4 3.5 1.1 1 .7 1.6 1.7 2 3l-1.8.4c-.3-1-.8-1.8-1.4-2.2-.6-.5-1.4-.7-2.3-.7-1.1 0-2 .3-2.7.8s-1.2 1.2-1.5 2.1-.4 1.8-.4 2.7c0 1.2.2 2.2.5 3.1s.9 1.6 1.6 2 1.5.7 2.4.7c1 0 1.9-.3 2.6-.9.7-.7 1.2-1.6 1.5-2.8z"/><path d="m69.8 32.4c0-1.9.5-3.3 1.6-4.2.9-.8 1.9-1.1 3.2-1.1 1.4 0 2.5.5 3.4 1.4s1.3 2.2 1.3 3.8c0 1.3-.2 2.3-.6 3.1-.4.7-1 1.3-1.7 1.7s-1.6.6-2.5.6c-1.4 0-2.6-.5-3.4-1.4-.8-.8-1.3-2.2-1.3-3.9zm1.8 0c0 1.3.3 2.3.9 2.9s1.3 1 2.1 1c.9 0 1.6-.3 2.1-1 .6-.6.9-1.6.9-3 0-1.3-.3-2.2-.9-2.9-.6-.6-1.3-1-2.1-1-.9 0-1.6.3-2.1 1s-.9 1.7-.9 3z"/><path d="m81.3 37.5v-10.1h1.5v1.5c.4-.7.8-1.2 1.1-1.4s.7-.3 1.1-.3c.6 0 1.2.2 1.8.6l-.6 1.6c-.4-.2-.8-.4-1.3-.4-.4 0-.7.1-1 .3s-.5.5-.6.9c-.2.6-.3 1.3-.3 2v5.3z"/><path d="m94.8 34.2 1.8.2c-.3 1-.8 1.8-1.6 2.4s-1.7.9-2.9.9c-1.5 0-2.7-.5-3.5-1.4-.9-.9-1.3-2.2-1.3-3.8 0-1.7.4-3 1.3-4s2-1.4 3.4-1.4 2.5.5 3.3 1.4c.9.9 1.3 2.2 1.3 3.9v.5h-7.6c.1 1.1.4 2 .9 2.6.6.6 1.3.9 2.1.9.6 0 1.2-.2 1.6-.5.6-.4 1-.9 1.2-1.7zm-5.6-2.7h5.7c-.1-.9-.3-1.5-.7-1.9-.5-.7-1.3-1-2.1-1s-1.5.3-2 .8-.9 1.2-.9 2.1z"/><path d="m102.2 31.3v-6.6h-2.5v-1.2h6.4v1.2h-2.5v6.6zm4.7 0v-7.8h1.9l2 6.2 1.9-6.2h1.9v7.8h-1.2v-6.5l-2 6.5h-1.2l-2.1-6.6v6.6z"/><path d="m123.8 25.5v-2h1.7v2zm0 12v-10.1h1.7v10.2h-1.7z"/><path d="m127.8 25.3v-1.7h9.1v1.4c-.9.9-1.8 2.2-2.7 3.8s-1.6 3.2-2 4.9c-.3 1.2-.6 2.5-.7 3.9h-1.8c0-1.1.2-2.4.7-4 .4-1.6 1-3.1 1.8-4.5s1.6-2.7 2.5-3.7h-6.9z"/><path d="m8.4 57.8 1.7-.2c.1.8.4 1.3.8 1.7s.9.5 1.5.5c.5 0 1-.1 1.4-.4s.7-.6 1-1 .5-1 .6-1.6c.2-.7.3-1.4.3-2.1 0-.1 0-.2 0-.3-.3.5-.8 1-1.4 1.3s-1.2.5-1.9.5c-1.2 0-2.1-.4-2.9-1.3-.8-.8-1.2-2-1.2-3.3 0-1.4.4-2.6 1.3-3.4.8-.9 1.9-1.3 3.2-1.3.9 0 1.7.2 2.5.7s1.3 1.2 1.7 2.1.6 2.2.6 3.9c0 1.8-.2 3.2-.6 4.3s-1 1.9-1.7 2.4c-.8.6-1.7.8-2.7.8-1.1 0-2-.3-2.7-.9-.9-.5-1.4-1.3-1.5-2.4zm7-6.2c0-1-.3-1.8-.8-2.4s-1.2-.9-1.9-.9c-.8 0-1.4.3-2 .9s-.9 1.4-.9 2.4c0 .9.3 1.6.8 2.2s1.2.8 2 .8 1.5-.3 2-.8c.6-.5.8-1.2.8-2.2z"/><path d="m18.8 56.8v-1.7h5.3v1.7z"/><path d="m26 50.8h5.8v1.4h-4.1v8.8h-1.7z"/><path d="m32.1 55.9c0-1.9.5-3.3 1.6-4.2.9-.8 1.9-1.1 3.2-1.1 1.4 0 2.5.5 3.4 1.4s1.3 2.2 1.3 3.8c0 1.3-.2 2.3-.6 3.1-.4.7-1 1.3-1.7 1.7s-1.6.6-2.5.6c-1.4 0-2.6-.5-3.4-1.4-.9-.8-1.3-2.2-1.3-3.9zm1.8 0c0 1.3.3 2.3.9 2.9s1.3 1 2.1 1c.9 0 1.6-.3 2.1-1 .6-.7.9-1.6.9-3 0-1.3-.3-2.2-.9-2.9-.6-.6-1.3-1-2.1-1-.9 0-1.6.3-2.1 1-.6.8-.9 1.7-.9 3z"/><path d="m49.1 50.8h8v10.2h-1.7v-8.7h-4.6v8.7h-1.7z"/><path d="m59 55.9c0-1.9.5-3.3 1.6-4.2.9-.8 1.9-1.1 3.2-1.1 1.4 0 2.5.5 3.4 1.4s1.3 2.2 1.3 3.8c0 1.3-.2 2.3-.6 3.1-.4.7-1 1.3-1.7 1.7s-1.6.6-2.5.6c-1.4 0-2.6-.5-3.4-1.4-.8-.8-1.3-2.2-1.3-3.9zm1.8 0c0 1.3.3 2.3.9 2.9s1.3 1 2.1 1c.9 0 1.6-.3 2.1-1 .6-.7.9-1.6.9-3 0-1.3-.3-2.2-.9-2.9-.6-.6-1.3-1-2.1-1-.9 0-1.6.3-2.1 1-.6.8-.9 1.7-.9 3z"/><path d="m70.5 50.8h1.7v4.4c.5 0 .9-.1 1.2-.3.2-.2.5-.8 1-1.8.3-.8.6-1.3.8-1.6s.5-.4.7-.5c.3-.1.7-.1 1.3-.1h.3v1.4h-.5c-.5 0-.7.1-.9.2-.1.1-.3.6-.6 1.3s-.5 1.1-.7 1.4-.6.5-1 .7c.7.2 1.5.9 2.2 2.1l2 3h-1.9l-1.8-3.1c-.4-.6-.7-1-1-1.2s-.6-.3-1-.3v4.6h-1.7v-10.2z"/><path d="m78.7 55.9c0-1.9.5-3.3 1.6-4.2.9-.8 1.9-1.1 3.2-1.1 1.4 0 2.5.5 3.4 1.4s1.3 2.2 1.3 3.8c0 1.3-.2 2.3-.6 3.1-.4.7-1 1.3-1.7 1.7s-1.6.6-2.5.6c-1.4 0-2.6-.5-3.4-1.4-.9-.8-1.3-2.2-1.3-3.9zm1.8 0c0 1.3.3 2.3.9 2.9s1.3 1 2.1 1c.9 0 1.6-.3 2.1-1 .6-.7.9-1.6.9-3 0-1.3-.3-2.2-.9-2.9-.6-.6-1.3-1-2.1-1-.9 0-1.6.3-2.1 1-.6.8-.9 1.7-.9 3z"/><path d="m90.6 50.8h8v10.2h-1.7v-8.7h-4.6v5.1c0 1.2 0 2-.1 2.3-.1.4-.3.7-.6 1s-.8.4-1.5.4c-.4 0-.9 0-1.4-.1v-1.4h.8c.4 0 .6 0 .8-.1s.3-.2.3-.3c.1-.2.1-.7.1-1.6v-6.8z"/><path d="m108.2 57.7 1.8.3c-.3 1-.8 1.8-1.6 2.4s-1.7.9-2.9.9c-1.5 0-2.7-.5-3.5-1.4-.9-.9-1.3-2.2-1.3-3.8 0-1.7.4-3 1.3-4s2-1.4 3.4-1.4 2.5.5 3.3 1.4c.9.9 1.3 2.2 1.3 3.9v.5h-7.6c.1 1.1.4 2 .9 2.6s1.3.9 2.1.9c.6 0 1.2-.2 1.6-.5.6-.5.9-1 1.2-1.8zm-5.7-2.7h5.7c-.1-.9-.3-1.5-.7-1.9-.5-.7-1.3-1-2.1-1s-1.5.3-2 .8-.8 1.2-.9 2.1z"/><path d="m112.1 50.8h1.7v4.2h4.8v-4.2h1.7v10.2h-1.7v-4.5h-4.8v4.5h-1.7z"/><path d="m122.9 50.8h1.7v7.7l4.8-7.7h1.9v10.2h-1.7v-7.7l-4.8 7.7h-1.9z"/><path d="m141.9 50.8v10.2h-1.7v-4h-1c-.6 0-1.1.1-1.4.2-.3.2-.7.7-1.3 1.5l-1.5 2.3h-2.1l1.9-2.7c.6-.8 1.1-1.3 1.7-1.4-1-.1-1.7-.5-2.2-1.1s-.7-1.2-.7-2c0-.9.3-1.6.9-2.1s1.5-.8 2.7-.8h4.7zm-1.8 1.5h-2.4c-1 0-1.7.2-2 .5s-.4.7-.4 1.1c0 .6.2 1.1.7 1.3s1.2.4 2.3.4h1.9v-3.3z"/></g></svg>