<svg enable-background="new 0 0 292.6 20.3" height="20.3" viewBox="0 0 292.6 20.3" width="292.6" xmlns="http://www.w3.org/2000/svg"><g fill="#6f7175"><path d="m13.8.7v14.6h-1.1v-13.6h-.2l-4.6 13.6h-1.7l-5-13.6h-.1v13.6h-1.1v-14.6h2.1l4.9 13.7h.2l4.6-13.6h2z"/><path d="m16.4 10.2c0-3.6 1.5-5.3 4.8-5.3s4.3 2 4.3 5.4c0 3.6-1.5 5.3-4.8 5.3s-4.3-2-4.3-5.4zm8-.1c0-2.3-.6-4.2-3.2-4.2-2.8 0-3.7 1.6-3.7 4.5 0 2.4.6 4.2 3.2 4.2 2.8 0 3.7-1.5 3.7-4.5z"/><path d="m27.9 5.2h1.1v9.2h4.4v-9.2h1.1v9.2h4.5v-9.2h1.1v9.2h1.4v4h-1v-3h-12.6z"/><path d="m50.1 5.2h1.1v10.2h-1.1v-4.7h-5.7v4.7h-1.1v-10.2h1.1v4.5h5.7z"/><path d="m58.6 9c1.9 0 3.4 1 3.4 3 0 2.1-1.3 3.2-3.4 3.2h-4.4v-10h1.1v3.8zm0 5.4c1.4 0 2.3-.7 2.3-2.3 0-1.4-.9-2.1-2.3-2.1h-3.3v4.3h3.3zm5.3-9.2h1.1v10.2h-1.1z"/><path d="m74.8 5.2h1.8v10.2h-1.1v-9.3h-.2l-5.5 9.2h-1.8v-10.1h1.1v9.2h.2zm.6-5c0 2.1-1.1 3.5-3.1 3.5s-3.1-1.3-3.1-3.5h1c.1 1.5.6 2.6 2.1 2.6s2-1.1 2.1-2.6h1z"/><path d="m84 9c0-4.8.9-7.6 4.9-8.4 1.4-.3 2.3-.3 3.2-.6l.3 1c-.7.3-1.8.4-3.3.6-3.1.7-3.8 2.5-4.1 5.7.6-1.6 2.1-2.1 4-2.1 3 0 4.1 2 4.1 5.3 0 3.5-1.5 5.1-4.8 5.1-3.1 0-4.3-1.8-4.3-6.6zm8 1.2c0-2.2-.6-4.1-3.2-4.1-2.8 0-3.6 1.6-3.6 4.1 0 2.4.8 4.3 3.1 4.3 2.8.1 3.7-1.5 3.7-4.3z"/><path d="m94.9 10.2c0-3.6 1.5-5.3 4.5-5.3 3.2 0 3.9 2.1 3.9 4.9v.7h-7.3c0 .8.1 1.4.2 1.9.5 1.7 1.6 2.2 3.3 2.2 1.3 0 2.6-.5 3.2-.8l.4.8c-.6.4-2.2.9-3.7.9-3.4.1-4.5-1.7-4.5-5.3zm7.3-.6c0-2.9-1.2-3.7-2.8-3.7-1.2 0-2.1.4-2.6 1.1-.4.6-.7 1.5-.7 2.6z"/><path d="m112.8 14.8c-.6.3-1.9.7-3.1.7-3.2 0-4.6-1.9-4.6-5.2 0-3.6 1.8-5.5 4.9-5.5 1.1 0 2.2.4 2.9 1.1l-.7.7c-.5-.5-1.3-.9-2.2-.9-2.4 0-3.8 1.5-3.8 4.6 0 2.4 1 4.1 3.6 4.1 1.2 0 2-.3 2.7-.6z"/><path d="m114.9 5.2h7.8v10.2h-1.1v-9.3h-5.7v9.2h-1.1v-10.1z"/><path d="m126.5 5.2.1.8c.5-.3 1-.6 1.4-.7.5-.2 1.1-.3 1.8-.3 2.9 0 4.2 1.8 4.2 5.2 0 3.2-1.4 5.4-4.8 5.4-.9 0-1.4-.1-2.1-.4l-.3-.1v5.1l-1.1.1v-12.7l-.2-2.5h1zm2.7 9.4c2.5 0 3.7-1.4 3.7-4.5 0-2-.6-4.2-3.3-4.2-.7 0-1.3.1-1.8.4-.4.2-.7.5-1.1.7v6.9c.3.2.6.4 1 .5.6.1 1 .2 1.5.2z"/><path d="m135.9 10.2c0-3.6 1.5-5.3 4.8-5.3s4.3 2 4.3 5.4c0 3.6-1.5 5.3-4.8 5.3s-4.3-2-4.3-5.4zm8-.1c0-2.3-.6-4.2-3.2-4.2-2.8 0-3.7 1.6-3.7 4.5 0 2.4.6 4.2 3.2 4.2 2.8 0 3.7-1.5 3.7-4.5z"/><path d="m155.4 12.5c0 2-1.7 2.8-3.3 2.8h-4.7v-10.1h4.5c1.8 0 3.1.7 3.1 2.5 0 1.3-.7 2-1.6 2.3 1 .2 2 .8 2 2.5zm-3.8-6.4h-3.1v3.5h3.3c1.5 0 2.2-.7 2.2-1.8-.1-1.3-1-1.7-2.4-1.7zm.1 8.3c1.4 0 2.6-.4 2.6-1.9s-.9-2-2.4-2h-3.4v3.9z"/><path d="m157.3 10.2c0-3.6 1.5-5.3 4.8-5.3s4.3 2 4.3 5.4c0 3.6-1.5 5.3-4.8 5.3s-4.3-2-4.3-5.4zm8-.1c0-2.3-.6-4.2-3.2-4.2-2.8 0-3.7 1.6-3.7 4.5 0 2.4.6 4.2 3.2 4.2 2.8 0 3.7-1.5 3.7-4.5z"/><path d="m168.1 15.3v3h-1v-4h1.3c.9-2.3 1.2-4.8 1.3-9.2h6.4v9.2h1.4v4h-1v-3zm7-.9v-8.3h-4.3c-.1 3-.3 5.7-1.2 8.2h5.5z"/><path d="m186.3 5.2h1.1v10.2h-1.1v-4.7h-5.7v4.7h-1.1v-10.2h1.1v4.5h5.7z"/><path d="m189.8 10.2c0-3.6 1.5-5.3 4.8-5.3s4.3 2 4.3 5.4c0 3.6-1.5 5.3-4.8 5.3s-4.3-2-4.3-5.4zm8-.1c0-2.3-.6-4.2-3.2-4.2-2.8 0-3.7 1.6-3.7 4.5 0 2.4.6 4.2 3.2 4.2 2.8 0 3.7-1.5 3.7-4.5z"/><path d="m208.1 5.2h1.8v10.2h-1.1v-9.3h-.2l-5.5 9.2h-1.8v-10.1h1.1v9.2h.2zm.6-5c0 2.1-1.1 3.5-3.1 3.5s-3.1-1.3-3.1-3.5h1c.1 1.5.6 2.6 2.1 2.6s2-1.1 2.1-2.6h1z"/><path d="m217.7 5.2h7.8v10.2h-1.1v-9.3h-5.7v9.2h-1.1v-10.1z"/><path d="m233 9c1.9 0 3.4 1 3.4 3 0 2.1-1.3 3.2-3.4 3.2h-4.4v-10h1.1v3.8zm-.1 5.4c1.4 0 2.3-.7 2.3-2.3 0-1.4-.9-2.1-2.3-2.1h-3.3v4.3h3.3zm5.4-9.2h1.1v10.2h-1.1z"/><path d="m240.9 14.4c.2.1.4.1.6.1 1 0 1.5-1.5 1.7-5 .1-1.4.1-3.1.2-4.3h6.4v10.2h-1.1v-9.3h-4.3c-.1 1 0 2.4-.2 4.1-.3 3.4-.9 5.2-2.5 5.2-.4 0-.7 0-1-.1z"/><path d="m252.2 10.2c0-3.6 1.5-5.3 4.5-5.3 3.2 0 3.9 2.1 3.9 4.9v.7h-7.2c0 .8.1 1.4.2 1.9.5 1.7 1.6 2.2 3.3 2.2 1.3 0 2.6-.5 3.2-.8l.4.8c-.6.4-2.2.9-3.7.9-3.4.1-4.6-1.7-4.6-5.3zm7.3-.6c0-2.9-1.2-3.7-2.8-3.7-1.2 0-2.1.4-2.6 1.1-.4.6-.7 1.5-.7 2.6z"/><path d="m270.2 14.8c-.6.3-1.9.7-3.1.7-3.2 0-4.6-1.9-4.6-5.2 0-3.6 1.8-5.5 4.9-5.5 1.1 0 2.2.4 2.9 1.1l-.7.7c-.5-.5-1.3-.9-2.2-.9-2.4 0-3.8 1.5-3.8 4.6 0 2.4 1 4.1 3.6 4.1 1.2 0 2-.3 2.7-.6z"/><path d="m271.1 10.2c0-3.6 1.5-5.3 4.8-5.3s4.3 2 4.3 5.4c0 3.6-1.5 5.3-4.8 5.3s-4.3-2-4.3-5.4zm8-.1c0-2.3-.6-4.2-3.2-4.2-2.8 0-3.7 1.6-3.7 4.5 0 2.4.6 4.2 3.2 4.2 2.8 0 3.7-1.5 3.7-4.5z"/><path d="m289.8 14.8c-.6.3-1.9.7-3.1.7-3.2 0-4.6-1.9-4.6-5.2 0-3.6 1.8-5.5 4.9-5.5 1.1 0 2.2.4 2.9 1.1l-.7.7c-.5-.5-1.3-.9-2.2-.9-2.4 0-3.8 1.5-3.8 4.6 0 2.4 1 4.1 3.6 4.1 1.2 0 2-.3 2.7-.6z"/><path d="m292.6 15.3h-1.4v-1.5h1.4z"/></g></svg>