<svg enable-background="new 0 0 104.3 10.3" height="10.3" viewBox="0 0 104.3 10.3" width="104.3" xmlns="http://www.w3.org/2000/svg"><g fill="#fff"><path d="m5.8.4v1.2h-2.2v6.1h-1.5v-6.1h-2.1v-1.2z"/><path d="m6.6 2.7.1.3c.1-.2.3-.3.5-.3.3-.1.6-.2.9-.2 1.5 0 2.1 1 2.1 2.5 0 1.6-.7 2.8-2.4 2.8-.2 0-.5 0-.7-.1-.1 0-.1 0-.2 0v2.4l-1.4.2v-6.3l-.1-1.3zm.9 4.1c.7 0 1.2-.4 1.2-1.7 0-1.1-.4-1.6-1.1-1.6-.2 0-.4.1-.6.2l-.1.1v2.9c.1 0 .1.1.2.1z"/><path d="m14 2.7h2v5.1h-1.4v-4h-.1l-1.4 3.9h-2v-5h1.4v3.9h.1z"/><path d="m24 7.4c-.4.3-1.1.5-1.9.5-1.9 0-2.5-.9-2.5-2.6 0-1.8 1-2.7 2.7-2.7.8 0 1.5.3 1.8.7l-.8.7c-.3-.3-.6-.5-1-.5-.8 0-1.3.5-1.3 1.8 0 1 .3 1.6 1.2 1.6.6 0 1-.1 1.5-.4z"/><path d="m24.7 2.7h4.4v5.1h-1.4v-4h-1.6v4h-1.4z"/><path d="m30.1 5.2c0-1.8.8-2.6 2.7-2.6s2.4 1 2.4 2.7c0 1.8-.8 2.6-2.7 2.6-1.9-.1-2.4-1.1-2.4-2.7zm3.6-.1c0-.9-.2-1.6-1-1.6-.9 0-1.2.6-1.2 1.8 0 .9.2 1.6 1 1.6 1 0 1.2-.6 1.2-1.8z"/><path d="m40.4 7.4c-.4.3-1.1.5-1.9.5-1.9 0-2.5-.9-2.5-2.6 0-1.8 1-2.7 2.7-2.7.8 0 1.5.3 1.8.7l-.8.7c-.3-.3-.6-.5-1-.5-.9 0-1.3.5-1.3 1.7 0 1 .3 1.6 1.2 1.6.6 0 1-.1 1.5-.4z"/><path d="m40.8 5.2c0-1.8.8-2.6 2.7-2.6s2.4 1 2.4 2.7c0 1.8-.8 2.6-2.7 2.6-1.8-.1-2.4-1.1-2.4-2.7zm3.7-.1c0-.9-.2-1.6-1-1.6-.9 0-1.2.6-1.2 1.8 0 .9.2 1.6 1 1.6.9 0 1.2-.6 1.2-1.8z"/><path d="m49.3.4c1.2-.2 1.6-.3 2-.4l.3 1.2c-.5.2-1.2.3-2.1.4-1.1.2-1.5.6-1.6 2 .4-.7 1.2-1 1.8-1 1.6 0 2.2 1 2.2 2.6 0 1.7-.8 2.6-2.7 2.6-1.7 0-2.4-.9-2.4-3.4 0-2.4.4-3.7 2.5-4zm1.1 4.8c0-.8-.2-1.6-1-1.6-.9 0-1.2.6-1.2 1.7 0 .8.2 1.6 1 1.6.9 0 1.2-.6 1.2-1.7z"/><path d="m57.5 7.7c-.1 0-.3 0-.5 0-.6 0-.9-.2-1.2-.5-.4.3-1 .6-1.5.6-1.5 0-1.7-.8-1.7-1.6 0-1.3.9-1.6 2.3-1.6h.7v-.2c0-.5-.3-.8-1-.8-.6 0-1.1.2-1.5.4l-.3-1c.5-.3 1.4-.5 2.2-.5 1.5 0 2 .5 2 2.2v1.6c0 .4.2.5.5.5zm-3.5-1.5c0 .4.1.7.6.7.3 0 .6-.1.9-.3v-1c-.3 0-.5 0-.7 0-.6-.1-.8.2-.8.6z"/><path d="m60.8 2.7h4.4v5.1h-1.4v-4h-1.6v4h-1.4z"/><path d="m71 7.7c-.1 0-.3 0-.5 0-.6 0-.9-.2-1.2-.5-.4.3-1 .6-1.5.6-1.5 0-1.7-.8-1.7-1.6 0-1.3.9-1.6 2.3-1.6h.7v-.2c0-.5-.3-.8-1-.8-.6 0-1.1.2-1.5.4l-.3-1c.5-.3 1.4-.5 2.2-.5 1.6 0 2.1.5 2.1 2.1v1.6c0 .4.2.5.5.5v1zm-3.4-1.5c0 .4.1.7.6.7.3 0 .6-.1.9-.3v-1c-.3 0-.5 0-.7 0-.6-.1-.8.2-.8.6z"/><path d="m72.8 2.7.1.3c.2-.1.3-.2.5-.3.3-.1.6-.2.9-.2 1.5 0 2.1 1 2.1 2.5 0 1.6-.7 2.8-2.4 2.8-.2 0-.5 0-.7-.1-.1 0-.2 0-.2-.1v2.4l-1.4.2v-6.2l-.1-1.4h1.2zm1 4.1c.7 0 1.2-.4 1.2-1.7 0-1.1-.4-1.6-1.1-1.6-.2 0-.4.1-.6.2l-.1.1v2.9c.1 0 .1.1.2.1z"/><path d="m77.5 7.7v-5h1.4v2h.3l1.6-2h1.5l-2 2.4 2.1 2.6h-1.6l-1.6-2h-.3v2z"/><path d="m82.6 5.2c0-1.8.8-2.6 2.7-2.6s2.4 1 2.4 2.7c0 1.8-.8 2.6-2.7 2.6-1.8-.1-2.4-1.1-2.4-2.7zm3.7-.1c0-.9-.2-1.6-1-1.6-.9 0-1.2.6-1.2 1.8 0 .9.2 1.6 1 1.6.9 0 1.2-.6 1.2-1.8z"/><path d="m93.2 6.3c0 .9-.8 1.4-1.7 1.4h-2.9v-5h2.7c1 0 1.6.4 1.6 1.3 0 .6-.3.9-.9 1.1.7.1 1.2.5 1.2 1.2zm-2.1-2.7h-1.1v1h1.1c.4 0 .5-.3.5-.5s-.1-.5-.5-.5zm0 3.1c.4 0 .6-.2.6-.6 0-.3-.2-.6-.6-.6h-1.1v1.2z"/><path d="m94.1 7.7v-5h1.4v2h.3l1.6-2h1.6l-2 2.4 2.1 2.6h-1.6l-1.6-2h-.3v2z"/><path d="m102.3 2.7h2v5.1h-1.4v-4h-.1l-1.4 3.9h-2v-5h1.4v3.9h.1z"/></g></svg>