<svg enable-background="new 0 0 141.6 9.9" height="9.9" viewBox="0 0 141.6 9.9" width="141.6" xmlns="http://www.w3.org/2000/svg"><g fill="#6f7175"><path d="m6.8.4v7.1h-.6v-6.7h-.1l-2.3 6.7h-.8l-2.4-6.7h-.1v6.7h-.5v-7.1h1l2.4 6.6h.1l2.3-6.7h1z"/><path d="m8 5c0-1.7.7-2.6 2.3-2.6s2.1 1 2.1 2.6c0 1.7-.8 2.6-2.4 2.6s-2-1-2-2.6zm3.9-.1c0-1.1-.3-2.1-1.6-2.1-1.3.1-1.7.8-1.7 2.3 0 1.2.3 2.1 1.5 2.1 1.4-.1 1.8-.8 1.8-2.3z"/><path d="m13.6 2.5h.5v4.5h2.2v-4.5h.5v4.5h2.2v-4.5h.5v4.5h.7v1.9h-.5v-1.4h-6.2v-5z"/><path d="m24.5 2.5h.5v5h-.5v-2.3h-2.8v2.3h-.5v-5h.5v2.2h2.8z"/><path d="m28.6 4.4c.9 0 1.7.5 1.7 1.5s-.6 1.6-1.7 1.6h-2.1v-5h.5v1.9zm0 2.6c.7 0 1.1-.3 1.1-1.1 0-.7-.4-1-1.1-1h-1.6v2.1zm2.6-4.5h.5v5h-.5z"/><path d="m36.5 2.5h.9v5h-.5v-4.5h-.1l-2.7 4.5h-.9v-5h.5v4.5h.1zm.3-2.4c0 1-.5 1.7-1.5 1.7s-1.5-.6-1.5-1.7h.5c0 .8.3 1.3 1 1.3s1-.5 1-1.3h.5z"/><path d="m41 4.4c0-2.3.4-3.7 2.4-4.1.7-.1 1.2-.2 1.6-.3l.1.5c-.3.1-.9.2-1.6.3-1.5.3-1.9 1.2-2 2.8.3-.8 1-1 2-1 1.5 0 2 1 2 2.6 0 1.7-.8 2.5-2.4 2.5-1.5-.1-2.1-1-2.1-3.3zm3.9.6c0-1.1-.3-2-1.6-2-1.4 0-1.8.8-1.8 2s.4 2.1 1.5 2.1c1.5 0 1.9-.7 1.9-2.1z"/><path d="m46.4 5c0-1.7.7-2.6 2.2-2.6s1.9 1 1.9 2.4v.3h-3.5c0 .4 0 .7.1.9.2.8.8 1.1 1.6 1.1.7 0 1.3-.2 1.6-.4l.2.4c-.3.2-1.1.5-1.8.5-1.8 0-2.3-.8-2.3-2.6zm3.5-.3c0-1.4-.6-1.8-1.3-1.8-.6 0-1 .2-1.3.5-.2.3-.3.7-.4 1.3z"/><path d="m55.1 7.2c-.3.2-.9.4-1.5.4-1.6 0-2.3-.9-2.3-2.5 0-1.7.9-2.7 2.4-2.7.6 0 1.1.2 1.4.6l-.3.3c-.2-.2-.6-.4-1.1-.4-1.2 0-1.8.7-1.8 2.3 0 1.2.5 2 1.7 2 .6 0 1-.1 1.3-.3z"/><path d="m56.1 2.5h3.8v5h-.5v-4.5h-2.8v4.5h-.5z"/><path d="m61.8 2.5.1.4c.2-.2.5-.3.7-.4.3-.1.6-.2.9-.2 1.4 0 2 .9 2 2.6 0 1.5-.7 2.6-2.4 2.6-.4 0-.7-.1-1-.2l-.2-.1v2.5l-.5.1v-6.1l-.1-1.2zm1.3 4.6c1.2 0 1.8-.7 1.8-2.2 0-1-.3-2-1.6-2-.3 0-.6.1-.9.2-.2.1-.4.2-.5.4v3.4c.2 0 .4.1.5.1.3.1.5.1.7.1z"/><path d="m66.4 5c0-1.7.7-2.6 2.3-2.6s2.1 1 2.1 2.6c0 1.7-.8 2.6-2.4 2.6-1.5 0-2-1-2-2.6zm3.9-.1c0-1.1-.3-2.1-1.6-2.1-1.4 0-1.8.8-1.8 2.2 0 1.2.3 2.1 1.5 2.1 1.5 0 1.9-.7 1.9-2.2z"/><path d="m75.9 6.1c0 1-.8 1.4-1.6 1.4h-2.3v-5h2.2c.9 0 1.5.4 1.5 1.2 0 .6-.3 1-.8 1.1.5.2 1 .5 1 1.3zm-1.8-3.1h-1.5v1.7h1.6c.8 0 1.1-.4 1.1-.9-.1-.6-.6-.8-1.2-.8zm0 4c.7 0 1.3-.2 1.3-.9s-.5-1-1.2-1h-1.7v1.9z"/><path d="m76.8 5c0-1.7.7-2.6 2.3-2.6s2.1 1 2.1 2.6c0 1.7-.8 2.6-2.4 2.6-1.5 0-2-1-2-2.6zm3.9-.1c0-1.1-.3-2.1-1.6-2.1-1.4 0-1.8.8-1.8 2.2 0 1.2.3 2.1 1.5 2.1 1.5 0 1.9-.7 1.9-2.2z"/><path d="m82.1 7.5v1.5h-.5v-2h.6c.4-1.1.6-2.3.7-4.5h3.1v4.5h.7v1.9h-.5v-1.4zm3.4-.5v-4h-2.1c0 1.5-.2 2.8-.6 4z"/><path d="m91 2.5h.5v5h-.5v-2.3h-2.8v2.3h-.5v-5h.5v2.2h2.8z"/><path d="m92.7 5c0-1.7.7-2.6 2.3-2.6s2.1 1 2.1 2.6c0 1.7-.8 2.6-2.4 2.6-1.5 0-2-1-2-2.6zm3.9-.1c0-1.1-.3-2.1-1.6-2.1-1.4 0-1.8.8-1.8 2.2 0 1.2.3 2.1 1.5 2.1 1.5 0 1.9-.7 1.9-2.2z"/><path d="m101.7 2.5h.9v5h-.6v-4.5h-.1l-2.7 4.5h-.9v-5h.5v4.5h.2zm.2-2.4c0 1-.5 1.7-1.5 1.7s-1.5-.6-1.5-1.7h.5c0 .8.3 1.3 1 1.3s1-.5 1-1.3h.5z"/><path d="m106.4 2.5h3.8v5h-.5v-4.5h-2.8v4.5h-.5z"/><path d="m113.8 4.4c.9 0 1.7.5 1.7 1.5s-.6 1.6-1.7 1.6h-2.1v-5h.5v1.9zm0 2.6c.7 0 1.1-.3 1.1-1.1 0-.7-.4-1-1.1-1h-1.6v2.1zm2.6-4.5h.5v5h-.5z"/><path d="m117.7 7h.3c.5 0 .7-.7.8-2.4 0-.7.1-1.5.1-2.1h3.1v5h-.5v-4.5h-2.1c0 .5 0 1.1-.1 2-.1 1.7-.4 2.6-1.2 2.6-.2 0-.3 0-.5-.1z"/><path d="m123.2 5c0-1.7.7-2.6 2.2-2.6s1.9 1 1.9 2.4v.3h-3.5c0 .4 0 .7.1.9.2.8.8 1.1 1.6 1.1.7 0 1.3-.2 1.6-.4l.2.4c-.3.2-1.1.5-1.8.5-1.7 0-2.3-.8-2.3-2.6zm3.6-.3c0-1.4-.6-1.8-1.3-1.8-.6 0-1 .2-1.3.5-.2.3-.3.7-.4 1.3z"/><path d="m132 7.2c-.3.2-.9.4-1.5.4-1.6 0-2.3-.9-2.3-2.5 0-1.7.9-2.7 2.4-2.7.6 0 1.1.2 1.4.6l-.3.3c-.2-.2-.6-.4-1.1-.4-1.2 0-1.8.7-1.8 2.3 0 1.2.5 2 1.7 2 .6 0 1-.1 1.3-.3z"/><path d="m132.4 5c0-1.7.7-2.6 2.3-2.6s2.1 1 2.1 2.6c0 1.7-.8 2.6-2.4 2.6-1.5 0-2-1-2-2.6zm3.9-.1c0-1.1-.3-2.1-1.6-2.1-1.4 0-1.8.8-1.8 2.2 0 1.2.3 2.1 1.5 2.1 1.5 0 1.9-.7 1.9-2.2z"/><path d="m141.6 7.2c-.3.2-.9.4-1.5.4-1.6 0-2.3-.9-2.3-2.5 0-1.7.9-2.7 2.4-2.7.6 0 1.1.2 1.4.6l-.3.3c-.2-.2-.6-.4-1.1-.4-1.2 0-1.8.7-1.8 2.3 0 1.2.5 2 1.7 2 .6 0 1-.1 1.3-.3z"/></g></svg>