<svg xmlns="http://www.w3.org/2000/svg" viewBox="0 0 98.51 31.1"><title>Butt_Dino</title><path d="M63.1,29s-16.87-.38-18.42,0-2.7,2-5.11,2c-3.18-.05-3.32-1.88-5.46-2S10,29,9.22,29s-1.33,1-2.73,1C3.39,30,.08,22,0,17.15-.08,11,.92,5.6,1.71,5.31A109.73,109.73,0,0,1,14,1.36a62.84,62.84,0,0,1,11.94-1c3.14,0,6.09-.3,7.5.5s2.73,1.77,3.75.49S47.56.87,53.55.87,70.12.72,72,.87s5.22,1.22,8.53,1,8.9-3.71,13-.49,6.83,13.14,3.75,22.69-9.54,6.74-9.89,6.42C85.07,28.65,78,29,76.05,29s-2.56,1.49-6.13,1.48S65.09,29.09,63.1,29Z" style="fill:#f7931e;fill-rule:evenodd"/><path d="M16.84,23.56a.89.89,0,0,1-.18-.58c0-.46,0-.85,0-1.18s0-.62-.05-.86c-.07-1.09-.1-1.9-.1-2.45,0-1.12,0-2.24-.08-3.37,0-.79-.09-1.58-.15-2.34,0-.19,0-.45-.05-.79,0-.14,0-.31,0-.51s0-.44,0-.69c-.06-1.24-.15-3.11-.29-5.59a.75.75,0,0,1,.13-.54,1,1,0,0,1,.56-.2c.68-.07,1.31-.12,1.88-.15l1.13-.08c.65,0,1,.34,1,.92,0,3.4.07,5.95.1,7.65,0,1.33.07,2.67.15,4s.13,3,.23,4.42l0,.71a7.91,7.91,0,0,0,.08,1.1v.07q0,.54-.51.54c-.17,0-.28-.06-.32-.19a2.48,2.48,0,0,1-.06-.65c0-.6,0-1.51-.1-2.73q0-.39-.06-1c0-.38,0-.83,0-1.34s0-.93-.05-1.68L20,14.44,20,12.29c0-1.07,0-2.14-.08-3.21,0-.34,0-.87,0-1.58,0-1.06-.05-1.86-.05-2.4l-.56,0c-.27,0-.5,0-.69.08l-1.83.1.07,2.32c0,.53,0,1.28.07,2.25s.05,1.8.08,2.5.11,1.89.21,3.32l.1,1.65.05,1.28c0,1.12.07,2,.1,2.6l0,.82c0,.19,0,.47,0,.84v.48a1.12,1.12,0,0,1,0,.32.17.17,0,0,1-.17.09A.54.54,0,0,1,16.84,23.56Z" style="fill:#0626e7"/><path d="M24.37,14.87V14q0-7.12,1.83-7.12a1,1,0,0,1,.36.08,7.39,7.39,0,0,0,1.61.35c.32.07.65.4,1,1a7.38,7.38,0,0,1,.8,2.42,17.41,17.41,0,0,1,.27,3.09l-.05.13c0,.56,0,1.06,0,1.5l0,1.53c0,.87,0,1.65-.1,2.35A13.57,13.57,0,0,1,29.6,22a5.38,5.38,0,0,1-.53,1.15,2.61,2.61,0,0,1-.72.76,1.59,1.59,0,0,1-1,.31Q24.37,24.26,24.37,14.87Zm4.36,7.24a11.68,11.68,0,0,0,.59-2.9c.07-1,.1-1.84.1-2.45s-.05-1.69-.15-3c-.09-1.48-.13-2.49-.13-3l-.1-.21.05-.13a3.06,3.06,0,0,0-.63-1.93,1.84,1.84,0,0,0-1.52-.82,1.28,1.28,0,0,0-1.4,1.12c0,.26-.07.62-.1,1.1a14.45,14.45,0,0,1-.15,2.58c0,.25,0,.65-.08,1.19l-.05,1.2c0,.38,0,.71,0,1l0,1a22.36,22.36,0,0,0,.2,2.75,17.15,17.15,0,0,0,.36,1.94,4.34,4.34,0,0,0,.59,1.36,1.08,1.08,0,0,0,.89.61C27.91,23.52,28.41,23.05,28.73,22.11Z" style="fill:#0626e7"/><path d="M39.14,25.56l.13-.67a4.85,4.85,0,0,0,.12-1c-.57-.05-1.15-.07-1.73-.07s-1.52,0-2.36.11l-2.46.25a.69.69,0,0,0-.21.53s0,.18.08.49a1.66,1.66,0,0,1,0,.28c0,.15-.09.25-.28.3l-.1,0a.58.58,0,0,1-.38-.13.46.46,0,0,1-.21-.31c-.07-.71-.1-1.25-.1-1.6a.38.38,0,0,1,.19-.35.71.71,0,0,1,.4-.09.85.85,0,0,0,.76-.25,2.71,2.71,0,0,0,.41-.82,25.16,25.16,0,0,0,.64-2.86c.17-1.51.28-2.69.33-3.53s.08-1.82.1-2.95c0-.28,0-.78,0-1.47s0-1.43.07-2.2a4.12,4.12,0,0,0,0-.76,4.38,4.38,0,0,1-.05-.62.68.68,0,0,1,.14-.56.85.85,0,0,1,.57-.15l2.88-.08a.7.7,0,0,1,.5.18.58.58,0,0,1,.17.49l-.23,5.17c-.1,1.64-.16,2.88-.16,3.73s0,1.9.11,3c0,1,0,2.11.07,3.39A6.54,6.54,0,0,1,40,22.85a.78.78,0,0,1,.49.16.46.46,0,0,1,.19.38.48.48,0,0,1-.1.31,2.57,2.57,0,0,0-.44,1.23l-.09.81q-.1.41-.57.3A.36.36,0,0,1,39.14,25.56ZM37.58,23q.11-4.66.18-7.22l.08-2.47c0-1.12,0-1.95,0-2.48q0-1.2,0-2a.78.78,0,0,0-.1-.48.56.56,0,0,0-.41-.16l-.86,0h-.9q-.15,2.14-.33,6.25c-.12,2.65-.2,4.2-.25,4.64-.12,1-.24,1.82-.35,2.35a11.89,11.89,0,0,1-.55,1.81Z" style="fill:#0626e7"/><path d="M42.84,24.08a21.24,21.24,0,0,1-.28-3.67c0-.55,0-1.34.07-2.38l0-2.37a1.49,1.49,0,0,1-.17-.59,6,6,0,0,0,.25-2.34,39.78,39.78,0,0,0-.13-4.95c.16-.43.28-.64.36-.64h1.12a2,2,0,0,1,.81.27A4.78,4.78,0,0,1,45.8,8c.42.39.64,1.4.64,3a19.45,19.45,0,0,1-.08,2,3.06,3.06,0,0,1-.17.77,3.64,3.64,0,0,1-.34.63,3,3,0,0,1-1.3,1,5.6,5.6,0,0,1-1.07.41v3c0,.42,0,1.26.12,2.5l0,.82.06,1.65c0,.31-.17.46-.49.46Zm2.06-9.82a3.16,3.16,0,0,0,.34-.69,3.92,3.92,0,0,0,.2-.84A8.77,8.77,0,0,0,45.59,11v-.69c0-.24,0-.47,0-.69a4.49,4.49,0,0,0-.1-.64,1.88,1.88,0,0,0-.27-.55,1.54,1.54,0,0,0-.45-.37A1.65,1.65,0,0,0,44,7.93a.53.53,0,0,0-.43.15.84.84,0,0,0-.13.54c0,.41,0,1,.08,1.84l0,1.83c0,.45,0,.84,0,1.2l-.05,1.2.17.26A1.5,1.5,0,0,0,44.9,14.26Z" style="fill:#0626e7"/><path d="M48.6,14.87V14c0-4.75.62-7.12,1.84-7.12a1.07,1.07,0,0,1,.36.08,7.31,7.31,0,0,0,1.6.35c.33.07.65.4,1,1a7.37,7.37,0,0,1,.81,2.42,17.41,17.41,0,0,1,.27,3.09l-.06.13q0,.84,0,1.5l0,1.53c0,.87,0,1.65-.11,2.35A13.57,13.57,0,0,1,53.83,22a4.94,4.94,0,0,1-.52,1.15,2.78,2.78,0,0,1-.73.76,1.56,1.56,0,0,1-1,.31Q48.61,24.26,48.6,14.87ZM53,22.11a11.66,11.66,0,0,0,.58-2.9c.07-1,.1-1.84.1-2.45s0-1.69-.15-3c-.08-1.48-.13-2.49-.13-3l-.1-.21,0-.13a3.12,3.12,0,0,0-.62-1.93,1.86,1.86,0,0,0-1.52-.82,1.28,1.28,0,0,0-1.4,1.12c0,.26-.07.62-.11,1.1a14.45,14.45,0,0,1-.15,2.58,11.34,11.34,0,0,1-.08,1.19l0,1.2c0,.38,0,.71,0,1l0,1a20.7,20.7,0,0,0,.21,2.75A15.17,15.17,0,0,0,50,21.55a4.33,4.33,0,0,0,.58,1.36,1.11,1.11,0,0,0,.9.61C52.15,23.52,52.64,23.05,53,22.11Z" style="fill:#0626e7"/><path d="M58,23.85a.51.51,0,0,1-.46-.19A1.23,1.23,0,0,1,57.4,23c0-3.14,0-5.51,0-7.09,0-.44,0-1.1,0-2s.05-1.5.05-2l0-1.23q0-.37,0-1.17l0-.77c0-.17,0-.42,0-.76a6,6,0,0,0-.07-1v-.2a.46.46,0,0,1,.08-.32.51.51,0,0,1,.35-.09c.75,0,1.51,0,2.29.1a.56.56,0,0,1,.36.17.51.51,0,0,1,.13.37c0,.29-.2.41-.59.36l-.84-.07-.82,0c0,.17,0,.35-.05.54s0,.39,0,.61l0,1.15c0,1,.05,1.79.05,2.3l-.07,2.27,1.15.33A2.52,2.52,0,0,1,61,16.07a6.18,6.18,0,0,1,.59,2.65,7.31,7.31,0,0,1-.51,2.63,3.7,3.7,0,0,1-2.71,2.45Zm2-2.32a6.8,6.8,0,0,0,.69-2.94,6.92,6.92,0,0,0-.36-2.11,1.71,1.71,0,0,0-.62-.83,1.62,1.62,0,0,0-1-.32,3.85,3.85,0,0,0-.44.05l0,.94q0,1.16,0,1.71l0,1.76a22.86,22.86,0,0,0,.17,3A2.64,2.64,0,0,0,60,21.53Z" style="fill:#0626e7"/><path d="M67.82,23.86s-.06-.09-.06-.19,0-.29,0-.41q-.1-4.59-.11-6.3l-.07-.1.1-.23a5.09,5.09,0,0,0-.1-.94l-.39-.11a1.6,1.6,0,0,1-.51.08,5.18,5.18,0,0,1-.84-.13A3,3,0,0,0,65,15.4l-.28.11c0,.59,0,1.13,0,1.6s0,1,0,1.61l0,.1c0,.48,0,1.19.08,2.15s.07,1.64.07,2.11a1,1,0,0,1-.1.48.34.34,0,0,1-.3.19q-.57,0-.57-1.53c0-.87,0-1.65,0-2.35l0-2.32a17.82,17.82,0,0,0-.08-2.5A6,6,0,0,0,64,13.36c0-.81,0-1.81-.11-3l0-1-.05-2A.5.5,0,0,1,64,7.06a.39.39,0,0,1,.31-.15c.34,0,.51.49.51,1.48,0,1.16,0,2.2,0,3.14s0,2,0,3.08c0,.21.65.31,1.94.31h.1a1,1,0,0,0,.7-.19.82.82,0,0,0,.22-.65c0-.9-.06-2.08-.18-3.52S67.33,7.82,67.33,7a.35.35,0,0,1,.13-.27.41.41,0,0,1,.3-.12l.23.08c.12,0,.2,0,.23.08,0,1.32,0,3.31.15,5.94s.16,4.64.16,6,.08,3,.25,4.9v.15a1.15,1.15,0,0,1-.59.13A.93.93,0,0,1,67.82,23.86Zm-.9-9.3,0,0h0Z" style="fill:#0626e7"/><path d="M72,23.57v-.33a2.69,2.69,0,0,0,0-.31l-.1-.1a2.87,2.87,0,0,0,.2-1c0-.39,0-1-.07-1.68l0-1.68c0-.85,0-2.13.07-3.83.07-1.51.1-2.8.1-3.85l0-1.53c0-.46-.05-1-.05-1.53a.71.71,0,0,1,.18-.55A.81.81,0,0,1,72.81,7a.56.56,0,0,1,.41.15,6.42,6.42,0,0,0,.74.11,5,5,0,0,1,1.1.23c.32.1.48.23.48.38s-.16.34-.48.51A7.91,7.91,0,0,0,73,7.85L72.86,8c0,.15,0,.52,0,1.09,0,.74,0,1.39,0,2s0,1.26,0,2c0,.47.12.71.36.71l.41,0a2.9,2.9,0,0,1,.43,0c.66,0,1,.15,1,.46a.87.87,0,0,1-.13.47.42.42,0,0,1-.38.19.78.78,0,0,1-.59-.2l-.82-.13H73l-.13.13v.08c0,.29,0,1,0,2,0,.66,0,1.27,0,1.81l0,1.81c0,.67,0,1.35.07,2a1.06,1.06,0,0,0,.26.78,1.33,1.33,0,0,0,.84.19l.46,0a3.89,3.89,0,0,1,.51,0c.49,0,.74.11.74.33s-.37.46-1.12.46H72.51C72.2,24.1,72,23.93,72,23.57Z" style="fill:#0626e7"/><path d="M78.27,23.57v-.33a1.42,1.42,0,0,0,0-.31l-.1-.1a3.09,3.09,0,0,0,.2-1c0-.39,0-1-.08-1.68l0-1.68c0-.85,0-2.13.08-3.83.07-1.51.1-2.8.1-3.85l0-1.53c0-.46-.05-1-.05-1.53a.71.71,0,0,1,.18-.55A.8.8,0,0,1,79.09,7a.58.58,0,0,1,.41.15,6.42,6.42,0,0,0,.74.11,5,5,0,0,1,1.09.23c.33.1.49.23.49.38s-.16.34-.49.51a8,8,0,0,0-2.06-.49L79.14,8c0,.15,0,.52,0,1.09,0,.74,0,1.39,0,2s0,1.26,0,2c0,.47.12.71.35.71l.41,0a3,3,0,0,1,.44,0c.66,0,1,.15,1,.46a.79.79,0,0,1-.13.47.41.41,0,0,1-.38.19.8.8,0,0,1-.59-.2l-.81-.13h-.13l-.13.13v.08c0,.29,0,1,0,2,0,.66,0,1.27,0,1.81l0,1.81c0,.67,0,1.35.08,2a1.07,1.07,0,0,0,.25.78,1.38,1.38,0,0,0,.85.19l.46,0a3.89,3.89,0,0,1,.51,0c.49,0,.74.11.74.33s-.38.46-1.13.46H78.78C78.48,24.1,78.31,23.93,78.27,23.57Z" style="fill:#0626e7"/></svg>