<!-- Generator: Adobe Illustrator 23.0.1, SVG Export Plug-In  -->
<svg version="1.1" xmlns="http://www.w3.org/2000/svg" xmlns:xlink="http://www.w3.org/1999/xlink" x="0px" y="0px" width="335.4px"
	 height="107.3px" viewBox="0 0 335.4 107.3" style="enable-background:new 0 0 335.4 107.3;" xml:space="preserve">
<style type="text/css">
	.st0{fill:#FFD400;}
	.st1{fill:#D60A12;}
	.st2{fill:#1C1C1A;}
	.st3{fill:#0E0F0E;}
	.st4{fill:#1D1D1B;}
	.st5{fill:#00A23A;}
	.st6{fill:#009AD7;}
	.st7{fill:#E3010C;}
	.st8{fill:#FEEE00;}
	.st9{fill:#FFFFFF;}
	.st10{fill:none;stroke:#000000;stroke-miterlimit:10;}
</style>
<defs>
</defs>
<g>
	<g>
		<g>
			<path class="st0" d="M182.8,13.5c-0.6,0.3-1.3,0.6-2,0.7c-1.4,0.2-2.7-0.2-3.7-1c-1.1-0.8-1.9-2.1-2.1-3.6
				c-0.2-1.8,0.5-3.4,1.7-4.6c0.8-0.6,0.9-0.1,1,0.4c0,0.2,0,1-0.1,1.7c-0.4,0.6-0.6,1.4-0.5,2.1c0.2,1.7,1.8,2.9,3.5,2.7
				c1.7-0.2,2.9-1.8,2.7-3.5c0-0.4-0.2-0.7-0.3-1c0-0.7,0-1.6,0.1-1.8c0.1-0.4,0.2-0.9,0.8-0.5c0.8,0.8,1.4,1.8,1.5,3
				C185.6,10.5,184.6,12.5,182.8,13.5z"/>
			<path class="st0" d="M182.8,13.5c0,0.8-0.1,3.3-0.2,3.6c-0.2,0-1.2,0.4-3,0.3c-1.3-0.1-2.5-0.5-2.8-0.6l0.2-3.6
				c1,0.8,2.4,1.1,3.7,1C181.6,14.1,182.3,13.9,182.8,13.5z"/>
			<path class="st0" d="M181.8,17.3c-0.5,0.1-1.2,0.2-2.1,0.1c-0.6,0-1.1-0.1-1.6-0.2l-1-4c1,0.8,2.4,1.1,3.7,1
				c0.7-0.1,1.4-0.3,2-0.7L181.8,17.3z"/>
		</g>
		<path class="st0" d="M144.7,14.7l8.9,0v13.1c0,3.5,1.3,4.3,2.9,4.3c0.8,0,1.4-0.2,2.2-0.6V14.6h8.9v20.1c-3.4,2.5-7,3.7-11.1,3.7
			c-6.4,0-11.8-1.7-11.8-9.8V14.7z"/>
		<path class="st1" d="M187.8,32.7c0,0-1.8-4-2.9-6.3c0,0,0,0,0,0c-0.5-1-0.8-2.3-0.8-3.3c0-0.1,0-0.1,0-0.2c0-0.3,0-0.6-0.1-1
			c-0.1-1-0.2-5.2-0.3-6l-7.9-0.5c-0.2,1.4-1.2,9-1.3,10.3c-0.2,1.4,0.1,2.9,0.7,4.1c0.2,0.4,0.6,1.1,1.1,2c0.9,1.7,2.1,3.8,2.5,4.6
			c0.6,1.1,1.8,2.6,2.5,2.9c0.4,0.2,2.9,0.7,4.8-0.4c1.4-0.8,2.2-2.4,2.2-4.6C188.2,34.2,188,33.4,187.8,32.7z"/>
		<path class="st2" d="M184.7,22.2"/>
		<g>
			<path class="st3" d="M50.3,37.6l0-33.7l13.5,0c7,0,12,4.6,12,11c0,3.7-1.7,7.1-4.8,9.2l6.4,13.5H67.2L62,25.9l-2.2,0l0,11.7
				L50.3,37.6z M59.7,18.4l2.9,0c2.4,0,3.8-1.2,3.8-3.4c0-2-1.4-3.1-3.8-3.1h-2.9V18.4z"/>
			<path class="st4" d="M63.8,3.9c3.3,0,6.3,1.1,8.5,3c2.3,2,3.5,4.8,3.5,8c0,3.7-1.7,7.1-4.8,9.2l0,0l0,0l6.4,13.5H67.2L62,25.9
				l0,0h0h-2.2h0v0v11.6h-9.4V3.9H63.8 M59.7,18.5L59.7,18.5h2.9c2.4,0,3.8-1.2,3.8-3.4c0-2-1.4-3.1-3.8-3.1h-2.8h0v0V18.5
				L59.7,18.5 M63.8,3.9H50.3v33.7h9.5V25.9H62l5.2,11.7h10.3L71,24.1c3.1-2.1,4.8-5.5,4.8-9.2C75.9,8.2,70.4,3.9,63.8,3.9L63.8,3.9
				z M59.8,18.4V12h2.8c2.5,0,3.8,1.1,3.8,3.1c0,2.1-1.3,3.4-3.7,3.4H59.8L59.8,18.4z"/>
		</g>
		<path class="st5" d="M96.7,23.8c-0.4-2.3-1.9-3.7-4.2-3.7c-2,0-3.6,1.4-3.9,3.7H96.7z M88.6,28.5c0.2,2.6,2.5,4.1,5.1,4.1
			c2.1,0,4-0.6,6.1-2.4l4.7,3.8c-3.3,3-6.8,4.8-11.4,4.8c-8.1,0-14-4.9-14-12.5c0-7.6,6-12.5,13.5-12.5c7.8,0,13.5,5.4,13.5,14.8
			H88.6z"/>
		<rect x="193.8" class="st5" width="8.9" height="37.6"/>
		<path class="st6" d="M120.4,29.9c3.8,3.1,9.2,1.1,9.5-3.1c0.3-5.3-5.5-8.1-9.5-3.9L120.4,29.9z M111.5,2.9l8.9-0.1v13
			c1.1-0.7,2.8-1.6,4.1-1.8c4.7-1,14,0.4,14,12.6c0,7-5.5,11.8-14.7,11.8c-3.7,0-8.9-1.5-12.3-4V2.9z"/>
		<path class="st6" d="M227.3,22.9c-4-4.3-9.8-1.5-9.5,3.9c0.2,4.2,5.7,6.2,9.5,3.1L227.3,22.9z M236.2,34.4c-3.4,2.5-8.6,4-12.3,4
			c-9.3,0-14.7-4.8-14.7-11.8c0-12.2,9.3-13.6,14-12.6c1.3,0.3,3,1.1,4.1,1.8v-13l8.9,0.1V34.4z"/>
		<rect x="10.8" y="59.4" class="st1" width="7.2" height="7.2"/>
		<g>
			<path class="st3" d="M67.9,84.4c-8.2,0-14-5.1-14-12.5c0-7.2,5.7-12.5,13.5-12.5c8.2,0,13.4,5.8,13.5,14.8l-17.4,0
				c0.2,2.8,2.8,4.1,5.1,4.1c2.3,0,4.1-0.7,6.1-2.4l4.6,3.8C75.7,82.9,72.2,84.4,67.9,84.4z M67.4,65.8c-2.1,0-3.6,1.5-4,3.7l8.1,0
				C71.2,67.2,69.7,65.8,67.4,65.8z"/>
			<path class="st4" d="M67.4,59.5c8.1,0,13.4,5.8,13.4,14.7H63.5h0l0,0c0.2,2,1.9,4.1,5.2,4.1c2.3,0,4.1-0.7,6.1-2.4l4.6,3.8
				c-3.6,3.3-7.1,4.7-11.3,4.7c-3.9,0-7.5-1.2-10-3.4c-2.6-2.3-4-5.4-4-9.1c0-3.6,1.4-6.8,3.9-9.1C60.4,60.7,63.7,59.5,67.4,59.5
				 M63.4,69.5L63.4,69.5h8.1h0.1l0-0.1c-0.4-2.3-2-3.7-4.2-3.7C65.4,65.8,63.8,67.2,63.4,69.5L63.4,69.5 M67.4,59.4
				c-7.5,0-13.5,4.9-13.5,12.5c0,7.6,6,12.5,14,12.5c4.6,0,8.1-1.8,11.4-4.8l-4.7-3.8c-2.1,1.8-3.9,2.4-6.1,2.4
				c-2.6,0-4.9-1.4-5.1-4h17.4C80.9,64.8,75.2,59.4,67.4,59.4L67.4,59.4z M63.5,69.5c0.4-2.3,1.9-3.7,3.9-3.7c2.2,0,3.8,1.4,4.2,3.7
				H63.5L63.5,69.5z"/>
		</g>
		<path class="st5" d="M39.1,70c0-2.6-1-3.8-2.6-3.8c-2,0-2.9,1.1-2.9,3.5V83h-8.9V45.4h8.9v16.2c1.1-1,3-2.2,5.1-2.2
			c6,0,9.3,3,9.3,9.9V83h-8.9V70z"/>
		<path class="st6" d="M1.9,53.3v1.4H0.3C0.1,54.7,0,54.8,0,55v4.1c0,0.2,0.1,0.3,0.3,0.3h1.6v2.8H0.3c-0.2,0-0.3,0.1-0.3,0.3v4.1
			c0,0.2,0.1,0.3,0.3,0.3h1.6v2.8H0.3c-0.2,0-0.3,0.1-0.3,0.3v4.1c0,0.2,0.1,0.3,0.3,0.3h1.6V77H0.3C0.1,77,0,77.1,0,77.3v4.1
			c0,0.2,0.1,0.3,0.3,0.3h1.6V83h8.9V53.3H1.9z"/>
		<rect x="193.8" y="45.3" class="st0" width="8.9" height="37.6"/>
		<path class="st1" d="M151.1,59c-7.3,0-13.8,4.8-13.8,12.2c0,7.7,7,12.4,13.7,12.4c7.5,0,14-4.6,14-12.4
			C165,64.8,159.8,59,151.1,59z M148,64.4c0-0.3,0.2-0.5,0.5-0.5h5.4c0.3,0,0.5,0.2,0.5,0.5V66H148V64.4z M155.5,78.8H147v-0.9
			c0.1,0,0.3,0,0.4,0h7.6c0.2,0,0.3,0,0.5,0V78.8z M157.5,74.8c0,1.4-1.1,2.5-2.5,2.5h-7.6c-1.4,0-2.5-1.1-2.5-2.5v-5.8
			c0-1.4,1.1-2.5,2.5-2.5h7.6c1.4,0,2.5,1.1,2.5,2.5V74.8z"/>
		<path class="st1" d="M150.2,72c0-0.4-0.3-0.7-0.7-0.7c-0.4,0-0.7,0.3-0.7,0.7c0,0.4,0.3,0.7,0.7,0.7
			C149.9,72.7,150.2,72.3,150.2,72z"/>
		<path class="st1" d="M153.1,71.2c-0.4,0-0.7,0.3-0.7,0.7c0,0.4,0.3,0.7,0.7,0.7c0.4,0,0.7-0.3,0.7-0.7
			C153.8,71.6,153.4,71.2,153.1,71.2z"/>
		<path class="st1" d="M152.8,74c0,0-0.5,0.4-1.5,0.4c-1,0-1.5-0.4-1.5-0.4c-0.1-0.1-0.2,0-0.3,0.1c-0.1,0.1,0,0.2,0.1,0.3
			c0,0,0.7,0.5,1.7,0.5c1,0,1.5-0.4,1.7-0.5c0.1-0.1,0.1-0.2,0.1-0.3C153,74,152.9,74,152.8,74z"/>
		<polygon class="st6" points="121.5,68.1 126.5,60.2 136.1,60.2 122.2,82.9 115.9,73.8 109.5,82.9 96.1,60.2 105.7,60.2 110.2,68 
			115.9,59.2 		"/>
		<g>
			<path class="st3" d="M223.9,83.7c-9.1,0-14.7-4.5-14.7-11.8c0-11.9,8.7-12.8,11.4-12.8c0.9,0,1.8,0.1,2.6,0.3
				c1.4,0.3,3.1,1.2,4.1,1.8l0-13l8.9,0.1l0,31.5C233,82.1,227.9,83.7,223.9,83.7L223.9,83.7z M222.9,66.1c-1.4,0-2.7,0.6-3.6,1.6
				c-1.1,1.1-1.6,2.7-1.5,4.4c0.2,2.6,2.5,4.6,5.4,4.6h0c1.5,0,2.9-0.5,4.1-1.5l0-7C226.1,66.9,224.5,66.1,222.9,66.1z"/>
			<path class="st4" d="M227.3,48.2l8.8,0.1v31.5c-3.2,2.3-8.2,3.9-12.3,3.9c-4.5,0-8.2-1.1-10.8-3.3c-2.5-2.1-3.9-5-3.9-8.5
				c0-4.6,1.3-8,3.9-10.2c2.6-2.2,5.8-2.6,7.5-2.6c0.9,0,1.8,0.1,2.6,0.3c1.4,0.3,3.1,1.2,4.1,1.8l0.1,0v-0.1V48.2 M223.2,76.7
				c1.5,0,2.9-0.5,4.1-1.5l0,0l0,0l0-7l0,0l0,0c-1.3-1.3-2.8-2.1-4.4-2.1c-1.4,0-2.7,0.6-3.7,1.6c-1.1,1.1-1.6,2.7-1.5,4.4
				C217.9,74.8,220.3,76.7,223.2,76.7 M227.3,48.2v13c-1.1-0.7-2.8-1.6-4.1-1.8c-0.8-0.2-1.6-0.3-2.6-0.3c-4.9,0-11.4,2.6-11.4,12.8
				c0,7,5.5,11.8,14.7,11.8c0,0,0,0,0,0c3.7,0,8.9-1.5,12.3-4V48.2L227.3,48.2L227.3,48.2z M223.2,76.7c-2.7,0-5.2-1.8-5.4-4.6
				c-0.2-3.5,2.3-5.9,5.1-5.9c1.5,0,3,0.6,4.4,2.1l0,7C226,76.2,224.6,76.7,223.2,76.7L223.2,76.7z"/>
		</g>
		<path class="st4" d="M239.3,48.6h-1v-0.3h2.4v0.3h-1v2.6h-0.3V48.6z"/>
		<path class="st4" d="M243.8,48.2v2.9h-0.3v-2.1l-0.9,1.3h-0.1l-0.9-1.3v2.1h-0.3v-2.9h0.1l1.2,1.7l1.2-1.7H243.8z"/>
		<path class="st5" d="M171.2,60.2h8.9v2.2c2.1-2.1,3.9-2.6,5.5-2.6c1.2,0,2.7,0.3,3.7,1l-3.1,5.6c-0.6-0.3-1.4-0.5-2.2-0.5
			c-2.2,0-3.9,1.8-3.9,4.5v12.6h-8.9V60.2z"/>
	</g>
</g>
<g>
	<path class="st4" d="M107.3,95.1h8.1v9.6h-2v-7.9h-4.1v7.9h-2V95.1z"/>
	<path class="st4" d="M117,101.1c0-2.1,1.7-3.8,3.9-3.8c2.2,0,3.9,1.7,3.9,3.8c0,2.1-1.7,3.8-3.9,3.8
		C118.7,104.8,117,103.2,117,101.1z M122.7,101.1c0-1.1-0.8-2-1.9-2c-1.1,0-1.9,0.8-1.9,2c0,1.1,0.8,2,1.9,2
		C121.9,103,122.7,102.2,122.7,101.1z"/>
	<path class="st4" d="M125.9,101.1c0-2.1,1.7-3.8,3.9-3.8c1.4,0,2.5,0.7,3.1,1.8l-1.4,1.1c-0.4-0.6-0.9-1.1-1.7-1.1
		c-1.1,0-1.9,0.8-1.9,2c0,1.1,0.8,2,1.9,2c0.8,0,1.3-0.4,1.7-1l1.4,1.1c-0.6,1.1-1.7,1.8-3.1,1.8
		C127.6,104.9,125.9,103.2,125.9,101.1z"/>
	<path class="st4" d="M135.8,99.1h-2.2v-1.7h6.4v1.7h-2.2v5.6h-2V99.1z"/>
	<path class="st4" d="M148.8,101.1c0,2.2-1.5,3.8-3.5,3.8c-0.9,0-1.6-0.3-2.2-0.9v3.3h-2v-9.9h1.8v0.9c0.5-0.7,1.3-1.1,2.3-1.1
		C147.3,97.3,148.8,98.9,148.8,101.1z M146.8,101.1c0-1.2-0.8-2-1.9-2c-0.9,0-1.8,0.6-1.8,2c0,1.4,0.9,2,1.8,2
		C145.9,103.1,146.8,102.3,146.8,101.1z"/>
	<path class="st4" d="M149.9,101.1c0-2.1,1.7-3.8,3.9-3.8c2.2,0,3.9,1.7,3.9,3.8c0,2.1-1.7,3.8-3.9,3.8
		C151.6,104.8,149.9,103.2,149.9,101.1z M155.7,101.1c0-1.1-0.8-2-1.9-2c-1.1,0-1.9,0.8-1.9,2c0,1.1,0.8,2,1.9,2
		C154.9,103,155.7,102.2,155.7,101.1z"/>
	<path class="st4" d="M165.9,97.3v7.4h-2v-3.9l-4,4.1h-0.6v-7.4h2v3.9l4-4.1H165.9z M160.2,93.8v-0.4h1.6v0.4c0,0.7,0.3,1.2,0.9,1.2
		c0.6,0,0.9-0.4,0.9-1.2v-0.4h1.6v0.4c0,1.5-1,2.5-2.5,2.5S160.2,95.3,160.2,93.8z"/>
	<path class="st4" d="M171.6,101.1c0-2.1,1.7-3.8,3.9-3.8c1.4,0,2.5,0.7,3.1,1.8l-1.4,1.1c-0.4-0.6-0.9-1.1-1.7-1.1
		c-1.1,0-1.9,0.8-1.9,2c0,1.1,0.8,2,1.9,2c0.8,0,1.3-0.4,1.7-1l1.4,1.1c-0.6,1.1-1.7,1.8-3.1,1.8
		C173.3,104.9,171.6,103.2,171.6,101.1z"/>
	<path class="st4" d="M186.5,102.5c0,1.3-1.1,2.2-2.6,2.2h-3.8v-7.2h3.4c1.4,0,2.5,0.8,2.5,2c0,0.5-0.2,1-0.6,1.3
		C186.1,101.1,186.5,101.7,186.5,102.5z M181.9,100.3h1.4c0.6,0,0.9-0.2,0.9-0.7c0-0.5-0.3-0.7-0.9-0.7h-1.4V100.3z M184.7,102.4
		c0-0.5-0.4-0.8-1-0.8h-1.8v1.6h1.8C184.3,103.2,184.7,102.9,184.7,102.4z"/>
	<path class="st4" d="M187.7,101.1c0-2.1,1.7-3.8,3.9-3.8c2.2,0,3.9,1.7,3.9,3.8c0,2.1-1.7,3.8-3.9,3.8
		C189.4,104.8,187.7,103.2,187.7,101.1z M193.4,101.1c0-1.1-0.8-2-1.9-2c-1.1,0-1.9,0.8-1.9,2c0,1.1,0.8,2,1.9,2
		C192.6,103,193.4,102.2,193.4,101.1z"/>
	<path class="st4" d="M203.7,97.3v7.4h-2v-3.9l-4,4.1H197v-7.4h2v3.9l4-4.1H203.7z M198,93.8v-0.4h1.6v0.4c0,0.7,0.3,1.2,0.9,1.2
		c0.6,0,0.9-0.4,0.9-1.2v-0.4h1.6v0.4c0,1.5-1,2.5-2.5,2.5C199,96.4,198,95.3,198,93.8z"/>
	<path class="st4" d="M209.8,97.3h0.6l3.4,3.8l3.4-3.8h0.6v7.4h-2v-3.5l-1.8,2h-0.7l-1.7-2v3.5h-2V97.3z"/>
	<path class="st4" d="M226.6,97.3v7.4h-2v-3.9l-4,4.1h-0.6v-7.4h2v3.9l4-4.1H226.6z"/>
	<path class="st4" d="M236.2,101.1c0,2.2-1.5,3.8-3.5,3.8c-0.9,0-1.6-0.3-2.2-0.9v3.3h-2v-9.9h1.8v0.9c0.5-0.7,1.3-1.1,2.3-1.1
		C234.7,97.3,236.2,98.9,236.2,101.1z M234.2,101.1c0-1.2-0.8-2-1.9-2c-0.9,0-1.8,0.6-1.8,2c0,1.4,0.9,2,1.8,2
		C233.3,103.1,234.2,102.3,234.2,101.1z"/>
</g>
<g>
	<path class="st7" d="M334.9,78.2c-21.7,0-43.3,0-65,0c0-21.7,0-43.3,0-65c21.7,0,43.3,0,65,0C334.9,34.9,334.9,56.5,334.9,78.2z
		 M311.1,56.4c0.8,1,1.8,1.7,2.9,2.1c3.9,1.5,9.4,1.2,12.9-3.6c2.1-2.8,3.3-6,4.3-9.3c0.7-2.4,1.1-4.9,0.9-7.4
		c-0.3-2.6-1.5-4.7-3.8-5.8c-3.9-1.9-7.8-1.5-11.4,0.9c-0.3,0.2-0.4,0.2-0.7,0c-0.8-0.5-1.6-1.1-2.5-1.4c-3.5-1.1-7-1-10.3,0.8
		c-0.3,0.2-0.5,0.1-0.8-0.1c-1-0.8-2.2-1.2-3.5-1.3c-0.9-0.1-1.9-0.1-2.9-0.1c-1.8,0.1-3.6,0.4-5.3,1.4c-0.3,0.2-0.7,0.4-1,0.7
		c-0.5-0.9-1.3-1.4-2.2-1.7c-1.5-0.4-3-0.4-4.5,0c-2.2,0.6-3.7,2-4.8,3.9c-1.1,2-2.1,4-3,6.1c-1.4,3.1-2.5,6.4-2.9,9.8
		c-0.4,3.4,1.3,6.3,4.5,7.3c2.9,0.9,5.7,0.6,8.3-0.9c0.3-0.2,0.5-0.2,0.8,0c0.7,0.4,1.3,0.7,2,0.9c3.1,0.9,6.2,0.5,9-1.1
		c0.2-0.1,0.5-0.1,0.6,0c2.8,1.9,5.9,2,9,1.1C308.5,58.3,309.8,57.5,311.1,56.4z"/>
	<path class="st8" d="M311.1,56.4c-1.3,1.1-2.6,1.9-4.2,2.4c-3.2,0.9-6.2,0.8-9-1.1c-0.1-0.1-0.5-0.1-0.6,0c-2.8,1.6-5.9,2-9,1.1
		c-0.7-0.2-1.4-0.6-2-0.9c-0.3-0.2-0.5-0.2-0.8,0c-2.7,1.4-5.5,1.7-8.3,0.9c-3.2-1-4.9-3.9-4.5-7.3c0.4-3.4,1.5-6.7,2.9-9.8
		c0.9-2.1,1.9-4.1,3-6.1c1-1.9,2.6-3.4,4.8-3.9c1.5-0.4,3-0.4,4.5,0c1,0.2,1.7,0.8,2.2,1.7c0.4-0.2,0.7-0.5,1-0.7
		c1.6-1,3.4-1.3,5.3-1.4c0.9,0,1.9,0,2.9,0.1c1.3,0.1,2.5,0.6,3.5,1.3c0.3,0.2,0.5,0.2,0.8,0.1c3.3-1.7,6.8-1.9,10.3-0.8
		c0.9,0.3,1.7,0.9,2.5,1.4c0.3,0.2,0.4,0.2,0.7,0c3.6-2.4,7.5-2.8,11.4-0.9c2.4,1.1,3.6,3.2,3.8,5.8c0.3,2.5-0.1,5-0.9,7.4
		c-1,3.3-2.2,6.5-4.3,9.3c-3.5,4.8-9.1,5.1-12.9,3.6C312.9,58.1,311.9,57.4,311.1,56.4z M311.4,53.9c0.1,0.1,0.1,0.2,0.2,0.3
		c0.8,1.7,2.1,2.8,3.9,3.2c3.6,0.9,7.8,0.1,10.5-3.7c1.8-2.5,2.8-5.3,3.7-8.2c0.6-2.1,1.1-4.3,1-6.6c-0.1-2-0.8-3.7-2.5-4.9
		c-1-0.7-2.2-1-3.4-1.2c-3.2-0.3-6,0.4-8.3,2.8c-0.1,0.1-0.1,0.1-0.2,0.2c-0.9-1.6-2.4-2.5-4.1-2.9c-3.3-0.7-6.4-0.3-9.3,1.8
		c-0.8-1-1.8-1.6-3-1.9c-1.4-0.4-2.9-0.3-4.3-0.1c-2.4,0.2-4.5,1.1-6,3.2c0,0-0.1,0-0.1,0c-0.3-1.9-1-2.8-2.8-3.1
		c-2.7-0.4-5,0.3-6.5,2.8c-1.5,2.5-2.7,5.3-3.8,8c-1,2.6-1.9,5.2-2.2,7.9c-0.3,2.7,1.1,5,3.7,5.6c2.8,0.7,5.6,0.4,7.9-1.6
		c0.1,0,0.1-0.1,0.2-0.1c1.6,1.6,3.7,2.1,5.9,2c2.2-0.1,4.2-0.7,5.8-2.3c2,2.1,4.4,2.6,7.1,2.2C307.5,57.3,309.6,56,311.4,53.9z"/>
	<path d="M311.4,53.9c-1.8,2.1-3.9,3.4-6.6,3.7c-2.7,0.4-5.2-0.1-7.1-2.2c-1.6,1.6-3.6,2.2-5.8,2.3c-2.2,0.1-4.3-0.4-5.9-2
		c-0.1,0-0.1,0.1-0.2,0.1c-2.4,1.9-5.1,2.2-7.9,1.6c-2.5-0.6-3.9-2.9-3.7-5.6c0.3-2.8,1.2-5.4,2.2-7.9c1.1-2.8,2.3-5.5,3.8-8
		c1.5-2.6,3.9-3.3,6.5-2.8c1.8,0.3,2.5,1.2,2.8,3.1c0,0,0.1,0,0.1,0c1.5-2.1,3.6-3,6-3.2c1.4-0.1,2.9-0.2,4.3,0.1
		c1.2,0.3,2.3,0.9,3,1.9c2.8-2.1,5.9-2.5,9.3-1.8c1.8,0.3,3.2,1.2,4.1,2.9c0.1-0.1,0.2-0.1,0.2-0.2c2.3-2.4,5.1-3.1,8.3-2.8
		c1.2,0.1,2.4,0.4,3.4,1.2c1.7,1.2,2.4,2.9,2.5,4.9c0.2,2.3-0.3,4.4-1,6.6c-0.9,2.9-1.9,5.7-3.7,8.2c-2.7,3.8-6.9,4.6-10.5,3.7
		c-1.8-0.4-3.2-1.5-3.9-3.2C311.5,54.1,311.5,54.1,311.4,53.9z M318,55.8c0.7-0.1,1.4-0.1,2-0.2c2.2-0.4,3.7-1.8,4.8-3.6
		c1.5-2.5,2.6-5.2,3.3-8c0.4-1.8,0.9-3.6,0.6-5.4c-0.3-1.8-1.3-3-3-3.4c-3.4-0.8-6.7,0.1-8.7,3.4c-1.4,2.5-2.4,5.1-3.1,7.9
		c-0.5,1.7-0.8,3.4-0.8,5.2c0.1,1.9,1.1,3.3,2.9,3.8C316.6,55.7,317.4,55.7,318,55.8z M307.3,47.8c-0.3,1.2-0.8,2.2-1.8,2.9
		c-0.6,0.4-1.2,0.5-1.8,0.1c-0.6-0.4-0.5-1-0.4-1.6c0,0,0,0,0-0.1c0.5-2.6,1.5-5.1,2.6-7.5c0.3-0.7,0.7-1.3,1.2-2
		c0.4-0.6,1.1-0.8,1.9-0.7c0.4,0.1,0.6,0.3,0.6,0.7c-0.1,0.3-0.2,0.6-0.2,0.9c-0.2,0.8,0.1,1.4,0.9,1.7c1.4,0.5,3.2-0.1,3.9-1.5
		c0.4-0.7,0.5-1.6,0.6-2.4c0.1-1.4-0.6-2.5-1.9-3c-0.9-0.3-1.8-0.5-2.7-0.6c-3.3-0.2-6,0.9-7.8,3.8c-0.6,1-1.2,2.1-1.7,3.1
		c-1.2,2.7-2.2,5.6-2.4,8.6c-0.2,2.9,1.5,5.1,4.3,5.3c2.3,0.2,4.3-0.4,6.1-1.8c2.5-2.1,3.7-4.9,3.9-8.1c0.1-1.3-0.8-2.2-2.1-2.3
		c-0.6-0.1-1.1,0-1.7,0c-1.6,0.1-2.5,0.8-2.9,2.4c-0.3,0.9,0.1,1.6,1,1.8C306.9,47.7,307.1,47.8,307.3,47.8z M293.8,42.6
		c0.2-0.4,0.3-0.7,0.4-1.1c0.3-1.1,1-1.6,2.2-1.5c1.1,0.1,2.3,0,3.4-0.6c1-0.6,1.5-1.4,1.5-2.6c-0.1-1.1-0.9-1.7-1.9-1.9
		c-0.8-0.2-1.7-0.2-2.6-0.2c-2.9-0.1-5.1,1.2-6.4,3.7c-2,3.7-3.5,7.6-4.1,11.9c-0.3,2.7,0.8,4.6,3.3,5.2c1.9,0.5,3.8,0.2,5.5-0.7
		c0.9-0.5,1.6-1.3,1.8-2.4c0.3-1.5-0.3-2.5-1.8-2.6c-0.6-0.1-1.2-0.1-1.8,0c-0.7,0.1-1.3,0.2-2.1,0.3c0.3-1.1,0.6-2.1,0.9-3
		c0.9,0.1,1.8,0.1,2.6,0.1c1.6,0,2.7-0.9,3.2-2.4c0.4-1.3,0-2.1-1.4-2.3C295.7,42.5,294.8,42.6,293.8,42.6z M281.7,50.1
		c0.6-1.3,1.3-2.6,1.8-3.8c1.1-2.5,2.2-5,3.3-7.6c0.3-0.7,0.4-1.5,0.4-2.2c0-0.7-0.5-1.3-1.2-1.3c-0.6-0.1-1.2,0-1.7,0.1
		c-1.2,0.2-2,1.1-2.6,2.1c-1.9,3.3-3.3,6.7-4.5,10.3c-0.5,1.6-1,3.3-1,5c0,1.6,0.8,2.7,2.4,3c1.6,0.3,3.2,0.2,4.7-0.4
		c1.3-0.5,2.1-1.5,2.4-3c0.2-1.2-0.2-1.9-1.4-2.1C283.4,50,282.6,50.1,281.7,50.1z"/>
	<path class="st9" d="M318,55.8c-0.6-0.1-1.4-0.2-2.1-0.4c-1.9-0.5-2.9-1.9-2.9-3.8c-0.1-1.8,0.3-3.5,0.8-5.2
		c0.8-2.7,1.7-5.4,3.1-7.9c2-3.4,5.2-4.2,8.7-3.4c1.8,0.4,2.7,1.6,3,3.4c0.3,1.9-0.1,3.6-0.6,5.4c-0.7,2.8-1.8,5.5-3.3,8
		c-1.1,1.8-2.6,3.2-4.8,3.6C319.4,55.7,318.7,55.7,318,55.8z M323.9,40.4c0-1.1-0.3-1.4-1.1-1.3c-0.8,0.1-1.2,0.7-1.5,1.4
		c-1.3,2.6-2.2,5.3-3,8c-0.1,0.5-0.2,0.9-0.3,1.4c-0.1,1,0.7,1.5,1.5,1.1c0.3-0.1,0.5-0.4,0.7-0.6c0.3-0.4,0.5-0.8,0.7-1.2
		c0.8-2.1,1.6-4.2,2.4-6.4C323.6,41.9,323.8,41,323.9,40.4z"/>
	<path class="st9" d="M307.3,47.8c-0.2-0.1-0.4-0.1-0.6-0.1c-0.9-0.3-1.3-0.9-1-1.8c0.4-1.5,1.3-2.3,2.9-2.4c0.6,0,1.1-0.1,1.7,0
		c1.3,0.1,2.1,1,2.1,2.3c-0.1,3.2-1.4,6-3.9,8.1c-1.7,1.5-3.8,2-6.1,1.8c-2.8-0.3-4.5-2.4-4.3-5.3c0.2-3,1.2-5.8,2.4-8.6
		c0.5-1.1,1.1-2.1,1.7-3.1c1.8-2.9,4.5-4.1,7.8-3.8c0.9,0.1,1.9,0.3,2.7,0.6c1.3,0.5,2,1.6,1.9,3c-0.1,0.8-0.3,1.6-0.6,2.4
		c-0.7,1.3-2.5,2-3.9,1.5c-0.8-0.3-1.1-0.8-0.9-1.7c0.1-0.3,0.2-0.6,0.2-0.9c0.1-0.4-0.1-0.7-0.6-0.7c-0.7-0.1-1.4,0.1-1.9,0.7
		c-0.5,0.6-0.9,1.3-1.2,2c-1.1,2.4-2.1,4.9-2.6,7.5c0,0,0,0,0,0.1c-0.1,0.6-0.2,1.2,0.4,1.6c0.6,0.4,1.3,0.2,1.8-0.1
		C306.6,50,307.1,49,307.3,47.8z"/>
	<path class="st9" d="M293.8,42.6c1,0,1.9-0.1,2.7,0c1.4,0.2,1.8,1,1.4,2.3c-0.5,1.5-1.6,2.4-3.2,2.4c-0.8,0-1.7-0.1-2.6-0.1
		c-0.3,0.9-0.6,1.9-0.9,3c0.8-0.1,1.4-0.3,2.1-0.3c0.6,0,1.2,0,1.8,0c1.5,0.2,2.2,1.2,1.8,2.6c-0.2,1.1-0.9,1.9-1.8,2.4
		c-1.7,0.9-3.6,1.2-5.5,0.7c-2.5-0.6-3.7-2.5-3.3-5.2c0.5-4.2,2-8.1,4.1-11.9c1.4-2.5,3.6-3.8,6.4-3.7c0.9,0,1.8,0.1,2.6,0.2
		c1,0.2,1.8,0.8,1.9,1.9c0.1,1.1-0.4,2-1.5,2.6c-1.1,0.6-2.2,0.7-3.4,0.6c-1.2-0.1-1.9,0.4-2.2,1.5C294.2,41.8,294,42.2,293.8,42.6z
		"/>
	<path class="st9" d="M281.7,50.1c0.9,0,1.7-0.1,2.5,0c1.2,0.2,1.6,0.9,1.4,2.1c-0.3,1.4-1,2.4-2.4,3c-1.5,0.6-3.1,0.7-4.7,0.4
		c-1.6-0.3-2.4-1.4-2.4-3c0-1.7,0.5-3.4,1-5c1.2-3.6,2.6-7,4.5-10.3c0.6-1,1.3-1.9,2.6-2.1c0.6-0.1,1.2-0.1,1.7-0.1
		c0.7,0.1,1.2,0.6,1.2,1.3c0,0.8-0.1,1.6-0.4,2.2c-1,2.6-2.2,5.1-3.3,7.6C282.9,47.5,282.3,48.7,281.7,50.1z"/>
	<path d="M323.9,40.4c-0.1,0.6-0.3,1.4-0.6,2.3c-0.8,2.1-1.6,4.3-2.4,6.4c-0.2,0.4-0.4,0.9-0.7,1.2c-0.2,0.2-0.4,0.5-0.7,0.6
		c-0.9,0.4-1.6-0.1-1.5-1.1c0-0.5,0.1-0.9,0.3-1.4c0.8-2.8,1.7-5.4,3-8c0.3-0.6,0.7-1.3,1.5-1.4C323.6,39,323.9,39.3,323.9,40.4z"/>
</g>
<g>
	<path d="M331.5,29.4c0.8,0,1.5,0.7,1.5,1.5s-0.7,1.5-1.5,1.5s-1.5-0.7-1.5-1.5S330.7,29.4,331.5,29.4 M331.5,28.9c-1.1,0-2,0.9-2,2
		s0.9,2,2,2c1.1,0,2-0.9,2-2S332.6,28.9,331.5,28.9L331.5,28.9z"/>
</g>
<g>
	<path d="M330.9,30c0.1,0,0.3,0,0.5,0c0.3,0,0.4,0,0.6,0.1c0.1,0.1,0.2,0.2,0.2,0.4c0,0.2-0.2,0.4-0.3,0.4v0c0.1,0,0.2,0.2,0.2,0.3
		c0.1,0.2,0.1,0.4,0.1,0.5h-0.4c0,0-0.1-0.2-0.1-0.4c0-0.2-0.1-0.3-0.3-0.3h-0.1v0.7h-0.4V30z M331.3,30.7h0.2
		c0.2,0,0.3-0.1,0.3-0.2c0-0.2-0.1-0.2-0.3-0.2c-0.1,0-0.1,0-0.2,0V30.7z"/>
</g>
<rect x="269.9" y="13.2" class="st10" width="65" height="65"/>
</svg>
