<!-- Generator: Adobe Illustrator 23.0.1, SVG Export Plug-In  -->
<svg version="1.1" xmlns="http://www.w3.org/2000/svg" xmlns:xlink="http://www.w3.org/1999/xlink" x="0px" y="0px" width="292px"
	 height="72px" viewBox="0 0 292 72" style="enable-background:new 0 0 292 72;" xml:space="preserve">
<style type="text/css">
	.st0{fill:url(#SVGID_1_);}
	.st1{fill:#FFFFFF;}
	.st2{fill:url(#SVGID_2_);}
</style>
<defs>
</defs>
<linearGradient id="SVGID_1_" gradientUnits="userSpaceOnUse" x1="146" y1="0" x2="146" y2="72">
	<stop  offset="0" style="stop-color:#8D0202"/>
	<stop  offset="1" style="stop-color:#530000"/>
</linearGradient>
<path class="st0" d="M280,72H12C5.4,72,0,66.6,0,60V12C0,5.4,5.4,0,12,0h268c6.6,0,12,5.4,12,12v48C292,66.6,286.6,72,280,72z"/>
<g>
	<path class="st1" d="M44.7,47V25.8h18.1V47h-4.2V29.7H49V47H44.7z"/>
	<path class="st1" d="M89.5,36.4c0,1.6-0.3,3-0.9,4.4c-0.6,1.3-1.4,2.5-2.4,3.5c-1,1-2.2,1.8-3.6,2.4s-2.8,0.8-4.4,0.8
		c-1.6,0-3.1-0.3-4.4-0.8s-2.5-1.4-3.6-2.4c-1-1-1.8-2.2-2.4-3.5c-0.6-1.3-0.9-2.8-0.9-4.4c0-1.6,0.3-3,0.9-4.4
		c0.6-1.3,1.4-2.5,2.4-3.5c1-1,2.2-1.8,3.6-2.4c1.4-0.6,2.8-0.8,4.4-0.8c1.6,0,3.1,0.3,4.4,0.8c1.4,0.6,2.5,1.4,3.6,2.4
		c1,1,1.8,2.2,2.4,3.5S89.5,34.8,89.5,36.4z M71.3,36.4c0,1,0.2,1.9,0.5,2.8c0.3,0.9,0.8,1.6,1.4,2.3s1.4,1.2,2.2,1.5
		c0.9,0.4,1.8,0.6,2.8,0.6s2-0.2,2.8-0.6c0.9-0.4,1.6-0.9,2.2-1.5c0.6-0.6,1.1-1.4,1.4-2.3c0.3-0.9,0.5-1.8,0.5-2.8
		s-0.2-1.9-0.5-2.8c-0.3-0.9-0.8-1.6-1.4-2.3c-0.6-0.6-1.4-1.2-2.2-1.5c-0.8-0.4-1.8-0.6-2.8-0.6s-2,0.2-2.8,0.6
		c-0.8,0.4-1.6,0.9-2.2,1.5s-1.1,1.4-1.4,2.3C71.5,34.5,71.3,35.4,71.3,36.4z"/>
	<path class="st1" d="M94,47l-0.3,5.6h-3.6v-9.6h3c0.5-1,0.9-2.1,1.2-3.1c0.3-1,0.5-2,0.7-3.1s0.2-2.1,0.3-3.2
		c0-1.1,0.1-2.2,0.1-3.4v-4.6h16.1v17.3h3.2v9.6H111l-0.3-5.6H94z M99.7,30.3c0,1.4,0,2.7-0.1,3.8c-0.1,1.2-0.1,2.3-0.3,3.3
		c-0.1,1-0.3,2-0.6,2.9c-0.3,0.9-0.6,1.8-1,2.7h9.6V29.7h-7.6V30.3z"/>
	<path class="st1" d="M122.7,38.8V47h-4.2V25.8h10.6c1.1,0,2,0.1,2.8,0.3c0.7,0.2,1.4,0.5,2,1c0.8,0.6,1.4,1.3,1.8,2.2
		c0.5,0.9,0.7,1.9,0.7,3c0,1.1-0.2,2.1-0.7,3c-0.5,0.9-1.1,1.6-1.8,2.2c-0.6,0.4-1.2,0.7-2,1c-0.7,0.2-1.7,0.3-2.8,0.3H122.7z
		 M129.6,34.9c0.8,0,1.4-0.2,1.9-0.7c0.5-0.4,0.7-1.1,0.7-1.9s-0.2-1.5-0.7-1.9c-0.5-0.4-1.1-0.7-1.9-0.7h-6.8v5.2H129.6z"/>
	<path class="st1" d="M161,36.4c0,1.6-0.3,3-0.9,4.4c-0.6,1.3-1.4,2.5-2.4,3.5c-1,1-2.2,1.8-3.6,2.4s-2.8,0.8-4.4,0.8
		c-1.6,0-3.1-0.3-4.4-0.8s-2.5-1.4-3.6-2.4c-1-1-1.8-2.2-2.4-3.5c-0.6-1.3-0.9-2.8-0.9-4.4c0-1.6,0.3-3,0.9-4.4
		c0.6-1.3,1.4-2.5,2.4-3.5c1-1,2.2-1.8,3.6-2.4c1.4-0.6,2.8-0.8,4.4-0.8c1.6,0,3.1,0.3,4.4,0.8c1.4,0.6,2.5,1.4,3.6,2.4
		c1,1,1.8,2.2,2.4,3.5S161,34.8,161,36.4z M142.8,36.4c0,1,0.2,1.9,0.5,2.8c0.3,0.9,0.8,1.6,1.4,2.3s1.4,1.2,2.2,1.5
		c0.9,0.4,1.8,0.6,2.8,0.6s2-0.2,2.8-0.6c0.9-0.4,1.6-0.9,2.2-1.5c0.6-0.6,1.1-1.4,1.4-2.3c0.3-0.9,0.5-1.8,0.5-2.8
		s-0.2-1.9-0.5-2.8c-0.3-0.9-0.8-1.6-1.4-2.3c-0.6-0.6-1.4-1.2-2.2-1.5c-0.8-0.4-1.8-0.6-2.8-0.6s-2,0.2-2.8,0.6
		c-0.8,0.4-1.6,0.9-2.2,1.5s-1.1,1.4-1.4,2.3C142.9,34.5,142.8,35.4,142.8,36.4z"/>
	<path class="st1" d="M175.7,33.6c0.7,0,1.4,0.1,2,0.2c0.6,0.1,1.3,0.3,1.8,0.6c1.1,0.5,2,1.2,2.6,2.2c0.7,1,1,2.2,1,3.7
		c0,1.1-0.2,2-0.6,2.8c-0.4,0.8-0.9,1.5-1.6,2.1c-0.7,0.6-1.5,1-2.4,1.3c-0.9,0.3-1.9,0.5-2.9,0.5h-10.5V25.8h16.4v3.9h-12.1v3.9
		H175.7z M169.5,37.6v5.5h6.5c0.9,0,1.5-0.2,2.1-0.7s0.8-1.2,0.8-2s-0.3-1.5-0.8-2c-0.5-0.5-1.2-0.7-2.1-0.7H169.5z"/>
	<path class="st1" d="M187.1,47V25.8h4.2v8.3h9.9v-8.3h4.2V47h-4.2v-9h-9.9v9H187.1z"/>
	<path class="st1" d="M226.1,34.1V38h-10.6v5h11.7V47h-15.9V25.8h15.9v3.9h-11.7v4.4H226.1z"/>
	<path class="st1" d="M247.2,34.1V38h-10.6v5h11.7V47h-15.9V25.8h15.9v3.9h-11.7v4.4H247.2z"/>
</g>
</svg>
