<svg xmlns="http://www.w3.org/2000/svg" viewBox="0 0 289.99 77.98"><title>Flag</title><g id="Слой_2" data-name="Слой 2"><g id="Flag"><g id="Vector_Smart_Object.psd" data-name="Vector Smart Object.psd" style="isolation:isolate"><path d="M276.15,78.28H144.61c-.11-.59-.62-.48-1-.56-4.13-.89-8.25-1.79-12.38-2.67l-24-5.15-28.34-6L52.64,58.23l-28.23-6-23-4.92c.11-.59.62-.49,1-.56l22-4.06,25.74-4.79,27.1-5,19-3.55L125,24c6.43-1.19,12.85-2.41,19.27-3.59,9.5-1.75,19-3.47,28.49-5.23,6.5-1.2,13-2.46,19.51-3.66q16.23-3,32.47-6c7.71-1.42,15.42-2.82,23.12-4.29,1-.19,2.11-.05,2.9-.91.38,0,.76,0,1.14,0h38.47V1.59c-.46.24-.35.73-.42,1.11-1.15,6.13-2.26,12.28-3.39,18.42q-4.12,22.54-8.27,45.07C277.56,70.22,276.87,74.25,276.15,78.28Z" transform="translate(-0.38 -0.3)" style="fill:#00476b"/><path d="M1.39,47.3l23,4.92,28.23,6,26.24,5.63,28.34,6,24,5.15c4.13.88,8.25,1.78,12.38,2.67.38.08.89,0,1,.56H16.88A21.5,21.5,0,0,0,15,74.47Q7.75,60.9.49,47.33Z" transform="translate(-0.38 -0.3)" style="fill:#003c5b"/><path d="M.49,47.33c-.3-.46.09-.81.25-1.16Q11.09,23.7,21.46,1.23A1.41,1.41,0,0,1,23,.3q113.51,0,227,0c.25,0,.51,0,.76,0-.79.86-1.92.72-2.9.91-7.7,1.47-15.41,2.87-23.12,4.29q-16.25,3-32.47,6c-6.51,1.2-13,2.46-19.51,3.66-9.5,1.76-19,3.48-28.49,5.23-6.42,1.18-12.84,2.4-19.27,3.59L96.27,29.29l-19,3.55-27.1,5L24.41,42.68l-22,4.06c-.39.07-.9,0-1,.56Z" transform="translate(-0.38 -0.3)" style="fill:#004160"/></g><path d="M55.23,35.21h-4V22.5h-6.5V35.21h-4V18.88H55.23Z" transform="translate(-0.38 -0.3)" style="fill:#fff"/><path d="M68.35,32.8H61.11l-1,2.41H56l7.24-16.33H66.5l7.14,16.33H69.37ZM67,29.55l-2.23-5.27L62.5,29.55Z" transform="translate(-0.38 -0.3)" style="fill:#fff"/><path d="M89.55,35.21H84.63l-4.92-6.49h-1.3v6.49h-4V18.88h4v6.49h1.4l4.82-6.49h4.55l-6.19,8Z" transform="translate(-0.38 -0.3)" style="fill:#fff"/><path d="M102.06,31.59v3.62H90.37V18.88h11.51V22.5H94.36v2.87H101v3.35H94.36v2.87Z" transform="translate(-0.38 -0.3)" style="fill:#fff"/><path d="M117,22.5h-5.11V35.21h-4V22.5h-5.2V18.88H117Z" transform="translate(-0.38 -0.3)" style="fill:#fff"/><path d="M123.57,27a8.92,8.92,0,0,1,17.82,0,8.92,8.92,0,0,1-17.82,0Zm13.65,0a4.74,4.74,0,1,0-4.74,4.74A4.76,4.76,0,0,0,137.22,27Z" transform="translate(-0.38 -0.3)" style="fill:#fff"/><path d="M157.19,35.21h-4V22.5h-6.5V35.21h-4V18.88h14.48Z" transform="translate(-0.38 -0.3)" style="fill:#fff"/><path d="M175.86,31.59v7.24h-2.6l-.84-3.62h-13V18.88h4V31.59h6.31V18.88h4V31.59Z" transform="translate(-0.38 -0.3)" style="fill:#fff"/><path d="M191.33,35.21h-4v-9l-7.8,9h-2.41V18.88h4v9.37L189,18.88h2.32Z" transform="translate(-0.38 -0.3)" style="fill:#fff"/><path d="M207.77,35.21h-4v-9l-7.79,9h-2.42V18.88h4v9.37l7.9-9.37h2.32ZM196.81,14h2.51a1.59,1.59,0,0,0,3.15,0H205a4.1,4.1,0,0,1-8.17,0Z" transform="translate(-0.38 -0.3)" style="fill:#fff"/><path d="M120.87,53.28c0,3.2-2.39,5.1-5.75,5.1h-8V42H115c2.6,0,5.11,1.63,5.11,4.55a3.47,3.47,0,0,1-1.63,2.86A4.29,4.29,0,0,1,120.87,53.28Zm-9.75-7.8v3.15h3.35a1.53,1.53,0,0,0,1.67-1.57,1.59,1.59,0,0,0-1.67-1.58Zm5.57,7.89a1.68,1.68,0,0,0-1.76-1.58h-3.81V55h3.81A1.6,1.6,0,0,0,116.69,53.37Z" transform="translate(-0.38 -0.3)" style="fill:#fff"/><path d="M143.06,58.38h-4V45.66h-6.5V58.38h-4V42h14.48Z" transform="translate(-0.38 -0.3)" style="fill:#fff"/><path d="M144.37,50.21a8.92,8.92,0,1,1,8.91,8.45A8.69,8.69,0,0,1,144.37,50.21Zm13.64,0A4.74,4.74,0,1,0,153.28,55,4.75,4.75,0,0,0,158,50.21Z" transform="translate(-0.38 -0.3)" style="fill:#fff"/><path d="M180.23,54.76V62h-2.6l-.84-3.62H165.65L164.82,62h-2.6V54.76h1.51c1.13-1.09,1.55-3.16,1.55-6.22V42h12.91V54.76Zm-12.56,0h6.52v-9.1h-4.92v2.6C169.27,51.3,168.83,53.28,167.67,54.76Z" transform="translate(-0.38 -0.3)" style="fill:#fff"/><path d="M192.91,56h-7.24l-1,2.41h-4.09L187.8,42h3.25l7.15,16.34h-4.27Zm-1.39-3.25-2.23-5.27-2.23,5.27Z" transform="translate(-0.38 -0.3)" style="fill:#fff"/><path d="M211.88,47.52a5.33,5.33,0,0,1-5.66,5.38H203v5.48h-4V42h7.24A5.38,5.38,0,0,1,211.88,47.52Zm-4.17,0a2,2,0,0,0-2.14-2H203v4h2.6A2,2,0,0,0,207.71,47.52Z" transform="translate(-0.38 -0.3)" style="fill:#fff"/><path d="M212.55,50.21a8.93,8.93,0,1,1,8.92,8.45A8.7,8.7,0,0,1,212.55,50.21Zm13.65,0A4.74,4.74,0,1,0,221.47,55,4.75,4.75,0,0,0,226.2,50.21Z" transform="translate(-0.38 -0.3)" style="fill:#fff"/><path d="M246.83,58.38h-4.92L237,51.88h-1.3v6.5h-4V42h4v6.5h1.39l4.83-6.5h4.55l-6.2,8Z" transform="translate(-0.38 -0.3)" style="fill:#fff"/><path d="M260.09,39.19l.51.73-1.75,1.17-.44-.66-.79-1.71-.75,1.71-.44.66-1.75-1.17.51-.73L256.51,38l-1.83-.1-.81-.29.66-2,.81.22,1.55.86-.38-1.81V34h2.12v.88l-.35,1.81,1.59-.86.8-.22.66,2-.8.29-1.81.1Z" transform="translate(-0.38 -0.3)" style="fill:#fff"/></g></g></svg>