<svg xmlns="http://www.w3.org/2000/svg" viewBox="0 0 58.11 24.42"><title>Logo</title><g id="Слой_2" data-name="Слой 2"><g id="Logo"><path d="M7.69,8.89c0,1.79-1.16,2.84-3.91,2.84S0,10.47,0,8.68H2.27c0,.82.46,1.07,1.51,1.07S5.31,9.51,5.31,9s-.47-.66-1.37-.81L3.07,8c-1.78-.31-3-1-3-2.74s1.13-2.79,3.7-2.79c2.86,0,3.65,1.36,3.65,3H5.22c0-.67-.4-1-1.39-1-1.16,0-1.42.19-1.42.71s.34.65,1.53.86l.81.16C6.42,6.51,7.69,7.11,7.69,8.89Zm-4.9-7L1.19,0H3l.86.75L4.62,0h1.7L4.67,1.88Z" style="fill:#fff"/><path d="M14.7,11.58,12.54,8.14,11.14,9.8v1.78H9V2.64h2.18V7l3.51-4.36h2.49l-3.2,3.82,3.4,5.12Z" style="fill:#fff"/><path d="M17.18,7.11a4.76,4.76,0,0,1,4.88-4.62,4.74,4.74,0,0,1,4.87,4.62,4.74,4.74,0,0,1-4.87,4.62A4.75,4.75,0,0,1,17.18,7.11Zm7.47,0A2.59,2.59,0,1,0,22.06,9.7,2.6,2.6,0,0,0,24.65,7.11Z" style="fill:#fff"/><path d="M36.33,7.11a4.62,4.62,0,0,1-4.77,4.47H28.11V2.64h3.45A4.63,4.63,0,0,1,36.33,7.11Zm-2.28,0a2.44,2.44,0,0,0-2.59-2.49H30.29v5h1.17A2.44,2.44,0,0,0,34.05,7.11Z" style="fill:#fff"/><path d="M42.85,10.26h-4l-.56,1.32H36.09l4-8.94h1.77l3.91,8.94H43.41Zm-.76-1.78L40.87,5.6,39.65,8.48Z" style="fill:#fff"/><path d="M13.23,24.27l-2.16-3.44-1.4,1.66v1.78H7.49V15.33H9.67v4.36l3.51-4.36h2.48l-3.2,3.82,3.41,5.12Z" style="fill:#fff"/><path d="M15.71,19.8a4.75,4.75,0,0,1,4.87-4.62,4.75,4.75,0,0,1,4.88,4.62,4.74,4.74,0,0,1-4.88,4.62A4.74,4.74,0,0,1,15.71,19.8Zm7.46,0a2.59,2.59,0,1,0-2.59,2.59A2.6,2.6,0,0,0,23.17,19.8Z" style="fill:#fff"/><path d="M34.86,19.8a4.62,4.62,0,0,1-4.77,4.47H26.63V15.33h3.46A4.63,4.63,0,0,1,34.86,19.8Zm-2.28,0A2.44,2.44,0,0,0,30,17.31H28.82v5H30A2.44,2.44,0,0,0,32.58,19.8Z" style="fill:#fff"/><path d="M36,15.33h2.19v8.94H36Z" style="fill:#fff"/><path d="M45.65,23h-4l-.56,1.32H38.89l4-8.94h1.78l3.91,8.94H46.21Zm-.76-1.78-1.22-2.88-1.22,2.88Z" style="fill:#fff"/><path d="M55.67,24.27l-.31-.42A4.55,4.55,0,1,1,58,19.8a4.31,4.31,0,0,1-1.17,2.88l1.27,1.59Zm-2.49-1.88a2.51,2.51,0,0,0,.84-.14l-1.44-1.84H55l.43.59a2.68,2.68,0,0,0,.28-1.2,2.52,2.52,0,0,0-2.54-2.59,2.55,2.55,0,0,0-2.53,2.59A2.59,2.59,0,0,0,53.18,22.39Z" style="fill:#fff"/></g></g></svg>