<svg xmlns="http://www.w3.org/2000/svg" viewBox="0 0 135.55 179.85"><title>LOGO_SK</title><g id="Слой_2" data-name="Слой 2"><g id="Flag"><path d="M72.46,179.85c-.06-.27-.28-.23-.47-.23a5.52,5.52,0,0,1-5.08-5.21,8.36,8.36,0,0,1,.28-3.07,5.27,5.27,0,0,1,4.41-3.69,5.52,5.52,0,0,1,5.87,2.71,8.14,8.14,0,0,1-1.41.91,4.3,4.3,0,0,0-1.83-1.6,3.65,3.65,0,0,0-5.12,1.93,5.34,5.34,0,0,0,0,4.15,3.76,3.76,0,0,0,6.27,1.15l.6-.67c.41,0,.64.22.92.34a.73.73,0,0,1,.52.54,5.17,5.17,0,0,1-4.06,2.57s-.1.11-.15.17Z" style="fill:#1b1b1b"/><path d="M8.38,179.85a.41.41,0,0,0,0-.22,2,2,0,0,1,2.43,0,.41.41,0,0,0,0,.22Z" style="fill:#9c9c9c"/><path d="M23.47,136.68v3.87c-.29.29-.63.17-.93.17l-11.39-.05c-1.12,0-2.24,0-3.35.06a2.62,2.62,0,0,0-1.8.57,6.48,6.48,0,0,0,0,1.91,1.6,1.6,0,0,0,1.31.67,37.88,37.88,0,0,0,4.88.23c2.35.09,4.7.15,7.05.25a9,9,0,0,1,2,.29c2.22.62,2.69,1.35,3,3.5a15,15,0,0,1-.17,5,3.22,3.22,0,0,1-2,2.5,10,10,0,0,1-3.36.66c-1.44.07-2.88,0-4.31.1a25.22,25.22,0,0,1-3.58.09c-3-.21-6.06-.12-9.08-.23A9.4,9.4,0,0,1,.45,156a10.65,10.65,0,0,1,0-4.21,16.76,16.76,0,0,1,3.54,0c1.28.14,2.55.11,3.82.13,2.36,0,4.72,0,7.08,0a13.37,13.37,0,0,0,2.36-.22c.94-.17,1.18-.47,1.18-1.46a1.26,1.26,0,0,0-1.27-1.43c-.86-.11-1.73-.19-2.61-.22-2.07-.05-4.16,0-6.23-.12A25.54,25.54,0,0,1,2.91,148a3.45,3.45,0,0,1-2.72-3.06,15.07,15.07,0,0,1,0-5,3.6,3.6,0,0,1,2.93-3.07,22,22,0,0,1,3.53-.49c3-.2,6-.23,9-.14,2.07.07,4.14.14,6.2.19C22.35,136.46,22.86,136.59,23.47,136.68Z" style="fill:#1b1b1b"/><path d="M27.62,136.58a26,26,0,0,1,5.64.06,11.91,11.91,0,0,1,.1,2.73c0,.88,0,1.76,0,2.64v2.85a7.32,7.32,0,0,0,1.7-1.24q3.93-3.1,7.82-6.29a3.49,3.49,0,0,1,2.5-.88c1.56.07,3.12,0,4.68,0,.38,0,.81-.11,1.11.47-3.34,2.75-6.82,5.38-10.21,8.14,3.59,3.7,7.41,7.07,11,10.82a44.06,44.06,0,0,1-7.92.16c-2.59-2.39-5-5.05-7.66-7.39l-3,2.39v5H27.7C27.5,155.07,27.43,139.93,27.62,136.58Z" style="fill:#1b1b1b"/><path d="M65.16,0C81.89.16,96,5.91,107.5,17.6a56.46,56.46,0,0,1,16.69,40.19,56.57,56.57,0,0,1-17.51,42.47C95.14,111.57,81.13,117.12,64.93,117a58.33,58.33,0,0,1-57.7-58.5A56.58,56.58,0,0,1,25,16.58,57.3,57.3,0,0,1,65.16,0Z" style="fill:#1c1c1c"/><path d="M31.8,167.86h1.4c.18,1.28.12,10.77-.08,11.64a6.09,6.09,0,0,1-1.56.08,8,8,0,0,1-.1-2.24c0-.8,0-1.6,0-2.4v-2.26l-.16,0c-1.15,2.28-2.3,4.56-3.45,6.82a2,2,0,0,1-1.26,0l-3.44-6.81-.18,0V175c0,.76,0,1.52,0,2.28a6.26,6.26,0,0,1-.13,2.24,3.6,3.6,0,0,1-.37.08H21.2V167.87l1.31-.06,4.67,9.28C28.76,173.92,30.27,170.91,31.8,167.86Z" style="fill:#1c1c1c"/><path d="M89.27,169.28v3.38c1.57,0,3.15,0,4.7,0,.52.47.12,1,.38,1.6h-5v3.62h5.9a4.68,4.68,0,0,1,0,1.46,39,39,0,0,1-7.72,0c-.1-1-.12-10.28,0-11.48a33,33,0,0,1,7.46-.16c.24.22.14.52.14.78a1.18,1.18,0,0,1-.11.78Z" style="fill:#1d1d1d"/><path d="M108,179.49V167.75a42.86,42.86,0,0,1,7.56.1,4.68,4.68,0,0,1,0,1.45h-5.83v3.34h4.88v1.69h-4.9v3.54l5.91.07v1.55Z" style="fill:#1c1c1c"/><path d="M10.8,179.63H8.37a5.32,5.32,0,0,1-3.33-2,7.32,7.32,0,0,1,1.38-1A6,6,0,0,0,8.74,178a3.89,3.89,0,0,0,2.32-.21,1.51,1.51,0,0,0,.23-2.68,6.32,6.32,0,0,0-1.55-.58,13.27,13.27,0,0,1-2.6-.81,3.15,3.15,0,0,1,.54-5.85,5.46,5.46,0,0,1,5.93,1.52,5.59,5.59,0,0,1-1.52,1A3.41,3.41,0,0,0,9,169.28H8.73a1.86,1.86,0,0,0-1.52,1.34c-.08.62.29,1.16,1.06,1.56a10,10,0,0,0,2.26.68,7.89,7.89,0,0,1,1.35.44,3,3,0,0,1,2,3.06,3.26,3.26,0,0,1-2.07,3A6.69,6.69,0,0,1,10.8,179.63Z" style="fill:#1c1c1c"/><path d="M102,179.32a3.11,3.11,0,0,1-1.29,0l-4.81-11.61h1.9c1.23,2.8,2.29,5.8,3.57,8.8,1.21-3,2.39-5.85,3.56-8.73a4.59,4.59,0,0,1,1.89-.07Z" style="fill:#1c1c1c"/><path d="M57.5,173.28l3.27-5.41h2l-4.47,7.3v4.31a4.69,4.69,0,0,1-1.67.07,5.35,5.35,0,0,1-.18-2.24c0-.76,0-1.52,0-2.31L52,167.87h2Z" style="fill:#1c1c1c"/><path d="M79,167.84a7.21,7.21,0,0,1,1.79.06v10h5.11c.32.31.18.6.21.87s0,.46,0,.76H79Z" style="fill:#1f1f1f"/><path d="M46.55,167.86h1.67v10c1.84.19,3.62,0,5.48.07a4.61,4.61,0,0,1-.16,1.59H46.68A98.32,98.32,0,0,1,46.55,167.86Z" style="fill:#1c1c1c"/><path d="M14.22,131.65h4a11.34,11.34,0,0,1-2.78,3.53H10a15.76,15.76,0,0,1-3.1-3.55c1.44-.1,2.82,0,4.14,0,.68.49.85,1.32,1.51,1.77C13.44,133.06,13.54,132.08,14.22,131.65Z" style="fill:#1c1c1c"/><path d="M17.93,179.55H16.3c-.05-2,0-3.89,0-5.83s0-3.82,0-5.77c.53-.26,1.07-.08,1.65-.14Z" style="fill:#1b1b1b"/><path d="M78.42,142a8.59,8.59,0,0,0-.4-2,4.49,4.49,0,0,0-3.11-3.16,20.06,20.06,0,0,0-5-.66c-1.51-.11-3,0-4.55,0v0H63a26.9,26.9,0,0,0-5.8.49,4.76,4.76,0,0,0-4,4,18.68,18.68,0,0,0-.38,3.06c0,2,0,3.91,0,5.87a11.35,11.35,0,0,0,.58,3.26,4.58,4.58,0,0,0,3.23,3,17.38,17.38,0,0,0,4.46.62c2.71.11,5.43.09,8.14,0a23.78,23.78,0,0,0,4.61-.45c2.39-.49,3.68-1.36,4.31-3.85a21.33,21.33,0,0,0,.48-4A53.45,53.45,0,0,0,78.42,142Zm-6.24,7.34c-.16,1.68-.72,2.26-2.23,2.48a9.14,9.14,0,0,1-1,.14l-.6,0H65.78v0c-1.08,0-2.16,0-3.23,0a6,6,0,0,1-1.65-.27,2.21,2.21,0,0,1-1.64-2.1,27.48,27.48,0,0,1,0-6.66,2.16,2.16,0,0,1,1.78-2,11.59,11.59,0,0,1,2.12-.26c1.72,0,3.44,0,5.16,0a10.79,10.79,0,0,1,2.12.27,2.11,2.11,0,0,1,1.73,2.14A39.27,39.27,0,0,1,72.18,149.36Z" style="fill:#1b1b1b"/><path d="M106.27,141.48c-.43-2.35-1.16-3.62-3.94-4.34a17.74,17.74,0,0,0-4.24-.49l-15,0c-.26,0-.56-.1-.8.19V156a1.5,1.5,0,0,0,.33.11c6.1-.08,12.21.26,18.31-.26a8.66,8.66,0,0,0,2.41-.58,4.33,4.33,0,0,0,2.61-2.75,9.27,9.27,0,0,0,.51-2.67A38.31,38.31,0,0,0,106.27,141.48Zm-6,7.65c-.09,1.51-1.06,2.28-2.77,2.39s-3.64.25-5.48.19c-1.23,0-2.46,0-3.84,0V141.28c.24-.32.5-.25.73-.25,2.24,0,4.47,0,6.71,0a12.78,12.78,0,0,1,2.48.22,2.38,2.38,0,0,1,2.19,2.31A24,24,0,0,1,100.27,149.13Z" style="fill:#1b1b1b"/><path d="M125.88,136.66h-9l-9.7,19.4h6.28c.66-1,1-2.07,1.64-2.89h12.68l1.49,2.88h6.3C132.29,149.47,129.1,143,125.88,136.66Zm-8.74,12.21,4-7.81c.65-.08.74.33.89.63,1.2,2.35,2.39,4.72,3.64,7.18Z" style="fill:#1b1b1b"/><path d="M9.09,47.11a24.13,24.13,0,0,1,1-4.62,56.68,56.68,0,0,1,4.16-10.44,58.16,58.16,0,0,1,38.51-30A53.39,53.39,0,0,1,59.23,1,55.57,55.57,0,0,1,68.16.61c2,.11,4,.3,6,.6a63,63,0,0,1,6.51,1.31A57.34,57.34,0,0,1,94,7.86a55.41,55.41,0,0,1,7.91,5.3,58.31,58.31,0,0,1,16.52,21,55.65,55.65,0,0,1,4.24,13,61.39,61.39,0,0,1,1,7.77,47,47,0,0,1,.12,4.89c-.19.53,0,1.11-.15,1.69a3.55,3.55,0,0,1-2,0c-2.33-.26-2.32-.27-3.38,1.62-.39,0-.4-.31-.48-.56-.08-1.67,0-3.35,0-5a49.78,49.78,0,0,0-4.07-19.48A50.26,50.26,0,0,0,102.1,21.21,52.2,52.2,0,0,0,45.72,10.42a51.15,51.15,0,0,0-14.46,9.07A51.95,51.95,0,0,0,14.69,48a2.59,2.59,0,0,1-.57,1.55,8.24,8.24,0,0,0-4-1.21C9.46,48.28,8.75,48.1,9.09,47.11Z" style="fill:#eff0f0"/><path d="M120.73,76.9a13.4,13.4,0,0,1-1.12,3.32,59.13,59.13,0,0,1-6.14,11.37,58.53,58.53,0,0,1-4.11,5.22q-1.5,1.71-3.12,3.3a56.27,56.27,0,0,1-9.59,7.52A62,62,0,0,1,88.21,112a59.89,59.89,0,0,1-8.88,2.92,40.63,40.63,0,0,1-4.26.85c-1.56.22-3.14.32-4.7.51a46.32,46.32,0,0,1-7.63.13c-1.24-.06-2.5-.2-3.75-.34s-2.65-.37-4-.59c-1.54-.26-3.06-.62-4.57-1a56.08,56.08,0,0,1-11.84-4.73,59,59,0,0,1-9-5.91,62.94,62.94,0,0,1-6.78-6.38,47.76,47.76,0,0,1-4-4.88,62.37,62.37,0,0,1-5.51-9.32,56.15,56.15,0,0,1-4-11.36,37.79,37.79,0,0,1-1.08-6.38c-.07-1.2-.32-2.41-.4-3.62a4,4,0,0,1,0-.6c1,1.26,2.51,1.16,3.89,1.32,1,.1,1.5.38,1.68,1.45.37,2.23.66,4.49,1.21,6.69,0,.19-.08.49.26.56s.43.64.54,1A51.74,51.74,0,0,0,26.24,92.45a55.26,55.26,0,0,0,6.94,6.74,2.69,2.69,0,0,1,.82.86,5,5,0,0,0,1.71,1.47,51.82,51.82,0,0,0,23.46,9.06,53.26,53.26,0,0,0,17.26-.72,52.62,52.62,0,0,0,38-31.7,4.14,4.14,0,0,1,1.07-2A6.91,6.91,0,0,1,120.73,76.9Z" style="fill:#a3a9ae"/><path d="M115.43,76.41a56.56,56.56,0,0,1-3,6.66,45.29,45.29,0,0,1-4,6.42c-1,1.29-2,2.62-3.09,3.85-.92,1-1.84,2.08-2.85,3a51.12,51.12,0,0,1-9.06,7.07,55.17,55.17,0,0,1-10.36,4.9c-1,.35-2,.7-3.08,1a20.71,20.71,0,0,1-3,.73c-.91.09-1.81.36-2.72.54a20.71,20.71,0,0,1-2.29.33,24.12,24.12,0,0,1-2.81.3c-.91,0-1.83,0-2.75,0H63.29a40.6,40.6,0,0,1-4.79-.44,46,46,0,0,1-5.48-1,51.63,51.63,0,0,1-6.15-2A66.16,66.16,0,0,1,40,104.53a36.6,36.6,0,0,1-5.28-3.41c-.35-.27-.87-.36-1-.87l.2-.1c.63-.08,1,.35,1.49.66a51,51,0,0,0,25.43,9.53,51.57,51.57,0,0,0,27.51-4.86,50.56,50.56,0,0,0,14.57-10.4,51.94,51.94,0,0,0,14.33-28.6,24.94,24.94,0,0,0,.34-3c0-.39-.11-.93.54-1,.06.22-.09.48.18.72.13-.74-.07-1.54.67-2.13a21,21,0,0,1,4.56.4c.36-.47-.18-1.15.31-1.62a28,28,0,0,1-.37,5c-.1,1-.27,1.93-.36,2.9-.3.68-.91.57-1.45.51-.71-.08-1.42-.18-2.14-.25-1.21-.11-1.46,0-1.72,1.27a48.35,48.35,0,0,1-1.56,5.78A3.12,3.12,0,0,1,115.43,76.41Z" style="fill:#d5d7d8"/><path d="M115.43,76.41c.32-1.06.63-2.12,1-3.18a23.52,23.52,0,0,0,1-3.89c.07-.41.35-.78.21-1.23.6-.41,1.11-.89,1.83-.38a.43.43,0,0,0,.23,0,7.35,7.35,0,0,1,2,.22,1.58,1.58,0,0,0,1.46-.22,23.53,23.53,0,0,1-.72,3.92c-.38,1.67-.92,3.31-1.39,5a.35.35,0,0,1-.21.26c-.17-.09-.36-.27-.52-.24-.95.14-1.84-.4-2.78-.26-.12,0-.29.06-.35,0C116.52,75.89,116,76.35,115.43,76.41Z" style="fill:#b5babe"/><path d="M9.09,47.11l0,.59c.28.11.5.43.82.38.84-.14,1.6.33,2.44.26s1.29.55,1.7,1.18c.37.3.28.72.22,1.1-.27,1.83-.35,3.69-.64,5.53A1.24,1.24,0,0,1,13,57c-1.27-1.32-3.25-.72-4.73-1.48a1.89,1.89,0,0,1-.09-1.5,24.75,24.75,0,0,1,.67-5.62C8.9,48,8.68,47.48,9.09,47.11Z" style="fill:#c6c9cc"/><path d="M8.13,54.06v1.07c.13.12.23.3.36.33a13.91,13.91,0,0,0,1.92.29,4.47,4.47,0,0,1,2,.37,1.53,1.53,0,0,0,.7.8c.22-.17-.09-.59.31-.68.47.45.38,1,.38,1.58a51.82,51.82,0,0,0,1.15,12.23,1.51,1.51,0,0,1,0,1.28c-.05.14,0,.32-.18.48a39.1,39.1,0,0,1-1.32-7.28L13,64.05c.28-.37.3-.71-.21-1.07a31.27,31.27,0,0,1-4.5-.53c-.38-.31.15-.88-.33-1.16-.11-2.28,0-4.56,0-6.85A.37.37,0,0,1,8.13,54.06Z" style="fill:#b4b8bc"/><path d="M122.81,174.48a3.31,3.31,0,0,0,2.19-2,3.46,3.46,0,0,0-2.55-4.67,22.79,22.79,0,0,0-4.29-.17.67.67,0,0,0-.71.27v11.39a7.09,7.09,0,0,0,1.79,0c0-.85,0-1.57,0-2.28a16.24,16.24,0,0,1,.05-2.21H121l3.34,4.48h2.13Zm-1.44-1.12c-.67,0-1.35,0-2.09,0v-4.05a15.57,15.57,0,0,1,2.27,0,1.91,1.91,0,0,1,1.82,2.1A2,2,0,0,1,121.37,173.36Z" style="fill:#1c1c1c"/><path d="M41.44,167.87c-1.62-.12-3.26,0-5,0a102,102,0,0,0,.12,11.68H38.2v-4.23c1,0,2,0,3,0a3.7,3.7,0,0,0,3.5-3.52A3.64,3.64,0,0,0,41.44,167.87Zm-.27,5.72a6.11,6.11,0,0,1-3,.1V169.6a3.7,3.7,0,0,1,3.75.46A2.07,2.07,0,0,1,41.17,173.59Z" style="fill:#1b1b1b"/><path d="M14.88,71.33c-.23-1.13-.48-2.27-.71-3.4a60.16,60.16,0,0,1-.77-11.69,54.58,54.58,0,0,1,.72-6.49.61.61,0,0,0,0-.23,54.37,54.37,0,0,1,2.79-10,51.19,51.19,0,0,1,6.7-12.14,51.91,51.91,0,0,1,11-10.95,49.51,49.51,0,0,1,7.26-4.53,51.25,51.25,0,0,1,12.1-4.4,61.08,61.08,0,0,1,8-1.21,44.12,44.12,0,0,1,6-.13,53.66,53.66,0,0,1,9.51,1.27,53.12,53.12,0,0,1,14.11,5.42A51.77,51.77,0,0,1,100.19,19a52.77,52.77,0,0,1,10.34,12.29,52.94,52.94,0,0,1,7,19,50.79,50.79,0,0,1,.55,10c0,.72,0,1.44,0,2.16-.24.1-.19.31-.2.5a44.69,44.69,0,0,1-2,10.58A52.11,52.11,0,0,1,98,99.83a53.53,53.53,0,0,1-12.82,7.38,47.79,47.79,0,0,1-8.7,2.58,53.15,53.15,0,0,1-8.24,1,24.62,24.62,0,0,1-3.32.11c-2.29-.19-4.58-.27-6.86-.6A53.15,53.15,0,0,1,47.4,107.6a48.32,48.32,0,0,1-9.53-4.72c-1.36-.87-2.68-1.82-4-2.73-1.58-1.39-3.19-2.72-4.72-4.16A44.41,44.41,0,0,1,26,92.59a49.88,49.88,0,0,1-4.32-5.8,56.29,56.29,0,0,1-5.8-12.34A25.55,25.55,0,0,0,14.88,71.33Z" style="fill:#1b1b1b"/><path d="M113.8,58.55a35,35,0,0,1-.36,6.55,50.19,50.19,0,0,1-2.79,10.77,48.38,48.38,0,0,1-8.08,13.67,48,48,0,0,1-21.84,14.75,52.93,52.93,0,0,1-8.55,1.94,44.74,44.74,0,0,1-9.53.35,47.55,47.55,0,0,1-17.25-4.43,49.27,49.27,0,0,1-12-7.93A48.19,48.19,0,0,1,24,82.46a47.27,47.27,0,0,1-5.16-13.1,48.65,48.65,0,0,1-.87-5.27,53.5,53.5,0,0,1-.15-9.8,43.12,43.12,0,0,1,1.63-9,48.54,48.54,0,0,1,6.31-13.62,45.42,45.42,0,0,1,7.2-8.45A47.94,47.94,0,0,1,50.74,12.77a51.14,51.14,0,0,1,8.55-1.95,48.85,48.85,0,0,1,9.89-.34,45.76,45.76,0,0,1,10.37,1.89A48.32,48.32,0,0,1,98,22.83a49.09,49.09,0,0,1,9.48,11.76,46.65,46.65,0,0,1,4.91,12.16,43.49,43.49,0,0,1,1.14,6.43C113.74,55,113.77,56.76,113.8,58.55Z" style="fill:#fefefe"/><path d="M64.32,34.11a5.29,5.29,0,0,0,1.59,0,53.83,53.83,0,0,0-9.49-11.55c-1-1-2.13-1.92-3.19-2.89-.6-.56-.59-.58-.66-1.45a1.84,1.84,0,0,1,1.22-.86,47.34,47.34,0,0,1,7.08-1.47,57.62,57.62,0,0,1,7.88-.21,4.21,4.21,0,0,1,2.7,1.08A46.65,46.65,0,0,1,84.09,33.44a43.86,43.86,0,0,1,3.06,9.69,58.59,58.59,0,0,1,1,8.26A35.48,35.48,0,0,1,88.26,55c-.13,2.61-.26,5.22-.6,7.83a89,89,0,0,1-2,10.24c-.36,1.41-.78,2.81-1.17,4.2.35,2,.57,2.2,3,2,.84-.94.4-2.21.64-3.35a1.36,1.36,0,0,1,1.52-.65,25.46,25.46,0,0,1,10.92,4.67c.58.43,1.1.92,1.66,1.38a1.85,1.85,0,0,1,.71,2,18.62,18.62,0,0,1-4.39,3.48A25.72,25.72,0,0,1,90.37,90a8.44,8.44,0,0,1-1.42.14.88.88,0,0,1-.89-.51l-.25-2.44a1.18,1.18,0,0,0-1-.44c-.24,0-.48,0-.72,0-12.51,0-25,0-37.53,0a5.77,5.77,0,0,0-3.48.89A.57.57,0,0,1,45,87a2.83,2.83,0,0,1,2.5-1.12,24.74,24.74,0,0,0,4-.13,2.08,2.08,0,0,1,1.88-.84q16.59,0,33.18,0c1.66,0,2.88.65,3.28,2.2a1.89,1.89,0,0,0,1.56,0,15.71,15.71,0,0,0,5.93-3,6.19,6.19,0,0,1,4.32-1.61c.23-.33,0-.54-.22-.71a22.1,22.1,0,0,0-12.28-5.65c-.54.39-.5.94-.45,1.5a13.67,13.67,0,0,1,0,2.93,4.37,4.37,0,0,1-4.37.13c-1-3,0-5.91.74-8.8a31.47,31.47,0,0,0,1-4.06c.57-3.3,1-6.61,1.29-10a41.86,41.86,0,0,0,0-7.51,53.87,53.87,0,0,0-1-7,43.22,43.22,0,0,0-9.1-19.47,48.83,48.83,0,0,0-6.39-6.47,2.62,2.62,0,0,0-1.37-.7,21.79,21.79,0,0,0-4.18-.36A49.08,49.08,0,0,0,54.47,18c.39.32,1.12.11,1.24.82-.55.61-1.18.19-2.05.09a24.41,24.41,0,0,0,1.87,1.84A55.19,55.19,0,0,1,66,32.76c.41.65,1.15,1.37.23,2.21a5,5,0,0,1-1.22,0,1.18,1.18,0,0,1-.52-.17C64.31,34.58,64.15,34.39,64.32,34.11Z" style="fill:#171b1c"/><path d="M45.1,87.21v.41L41,90.08H34.32a2.34,2.34,0,0,1-1-1,108.75,108.75,0,0,0-6.44-9.75c-.24-.31-.44-.66-.68-1a2.5,2.5,0,0,1-.5-2.27,1.81,1.81,0,0,1,1.71-.83c4,0,7.92,0,11.88,0a4.17,4.17,0,0,1,1.81.52c2.11,1,4.2,2,6.32,3a4.55,4.55,0,0,0,1.93.56,1.67,1.67,0,0,0,1.82-2,23.3,23.3,0,0,0-1.56-6.21,22.85,22.85,0,0,0-5.84-8.76A27.62,27.62,0,0,0,35.34,57,50.64,50.64,0,0,0,25,54.09a1.77,1.77,0,0,1-1.65-2.28,41.83,41.83,0,0,1,4.61-13.52c.66-1.19,1.21-1.41,2.54-1A109.92,109.92,0,0,1,43.94,42.5a14.62,14.62,0,0,0,3.74,1.21,3.7,3.7,0,0,0,1.43-.54,9.6,9.6,0,0,0-1.71-1.6A73.68,73.68,0,0,0,36.86,34c-1.07-.65-2.2-1.21-3.24-1.91a.58.58,0,0,1-.32-.44c-.13-.38.12-.42.39-.44a95.29,95.29,0,0,1,13,8.77c.83.69,1.65,1.38,2.44,2.1.43.4.91.84.56,1.54a3,3,0,0,1-1.13.64,5.54,5.54,0,0,1-1.52.1,12.68,12.68,0,0,1-3.24-1,104.38,104.38,0,0,0-13-5.14c-1.49-.49-1.83-.35-2.57,1a45.78,45.78,0,0,0-3.83,10.53,8.67,8.67,0,0,0-.24,1.35,1,1,0,0,0,.51,1.48.85.85,0,0,0,.65.61c2.07.59,4.21.91,6.26,1.59a1,1,0,0,0,1.2-.5,1.75,1.75,0,0,1,1.27.18,31.25,31.25,0,0,1,11.64,7A24.43,24.43,0,0,1,52.48,73.5c.22.94.79,1.86.38,2.9-.29.24-.61-.08-.93,0A11,11,0,0,0,51.86,78a1.93,1.93,0,0,1-1.53,1.89,2.62,2.62,0,0,0-1.88,1.45,2,2,0,0,1-1.6-.2A21.4,21.4,0,0,1,43,79.68c-.51-1,.71-.92,1-1.7a17.67,17.67,0,0,0-4.66-2h-.39c-2.87,0-5.73,0-8.59,0a9.82,9.82,0,0,0-3.13.14c.56.8,1.41,1.27,1.68,2.16a2.72,2.72,0,0,0,.49,1.57c1.69,2.46,3.37,5,4.9,7.52a1.61,1.61,0,0,0,1.55.91,26.7,26.7,0,0,0,5.36-.27c.78.45,1.42.07,2.11-.29S44.32,86.82,45.1,87.21Z" style="fill:#151a1b"/><path d="M33.82,31.29c-.24,0-.48,0-.52.32-.34-.23-.21-.56-.19-.86,2.82-3.6,9.37-8.89,12.09-9.74a4.57,4.57,0,0,1,1.91.83,131.85,131.85,0,0,1,12.38,8.9c.55.45,1.1.91,1.64,1.38a10.38,10.38,0,0,0,3.19,2c-.06.23.21.31.22.51-.24.27-.53.15-.82.09a11.24,11.24,0,0,1-3.41-2.21c-1.13-.91-2.18-1.91-3.36-2.76A121.9,121.9,0,0,0,46.7,22.52a2.45,2.45,0,0,0-3,0,50.17,50.17,0,0,0-5.87,4.5A13.45,13.45,0,0,0,35.67,29a10.38,10.38,0,0,0-1.13,1.17c.34.41,1-.08,1.26.41a.4.4,0,0,1-.08.32A2.46,2.46,0,0,1,33.82,31.29Z" style="fill:#202020"/><path d="M35.72,30.81v-.24a.48.48,0,0,1-.11-.46,3.52,3.52,0,0,1,.73-.9c.67-.65,1.31-1.33,2-2A44.69,44.69,0,0,1,42.92,24a1.81,1.81,0,0,1,2,0,75.23,75.23,0,0,1,12.5,8.83c1.09.94,2.17,1.9,3.16,2.94,1.43,1.47,2.91,2.88,4.33,4.35,1.54,1.71,2.74,3.71,4.59,5.14a4.51,4.51,0,0,0,1.84.65c.43,0,.88.15,1.26-.18a1.25,1.25,0,0,0-.12-.93,53.25,53.25,0,0,0-15.22-24c-.61-.57-1.6-.84-1.63-1.91a2.64,2.64,0,0,0-1.29-.48H53.3c.18-.5.52-.51.88-.48,3,.09,5.93-.76,8.91-.94,1.24-.08,2.47-.11,3.71-.07a3.24,3.24,0,0,1,2,.85A47.55,47.55,0,0,1,84.53,42.55c0,.11,0,.23.06.35A41.41,41.41,0,0,1,86,53a66.14,66.14,0,0,1-.78,13.63c-.26,1.32-.41,2.66-.71,4-.43,1.66-.76,3.35-1.27,5-.61,1.93-.5,3.61,1.21,4.93.07.25.26.23.47.23h3.19l.65-.49c.43-.7.1-1.84,1.24-2.14a17.47,17.47,0,0,1,7.43,3.1,5.25,5.25,0,0,0,3.65,1.15,1.55,1.55,0,0,1,1.35.31c0,.3-.25.24-.44.24H99.4a20,20,0,0,1-9.7,5,.46.46,0,0,1-.21-.44,2.16,2.16,0,0,0-2.14-2.19H52.28c-.45.22,0,.76-.43.93-.17-.15-.35-.31-.53-.45a18.45,18.45,0,0,0-4.81-.07,27.43,27.43,0,0,0-4.06,2.11c-.37.19-.7.54-1.18.37a3.73,3.73,0,0,1-2,.48c-1.51,0-3,0-4.55,0-2-3.17-3.93-6.31-6.14-9.36a1,1,0,0,1,.21-.94c.6-.36,1.25-.12,1.87-.12,3,0,6.1,0,9.15,0,1.12.25,2.31.33,3.16,1.27l4.81,1.6a5.43,5.43,0,0,0,.68.13,3.85,3.85,0,0,1,.83-.11c2.33-.14,3.5-1.48,3.35-3.82,0-.32-.1-.64.15-.9a8.18,8.18,0,0,0-.53-2.74,25.51,25.51,0,0,0-2.36-6.19A30.54,30.54,0,0,0,47,63.22a23.48,23.48,0,0,0-5.21-4.6,23.58,23.58,0,0,0-4.91-2.69c-1.33-.52-2.64-1.1-4-1.57a.8.8,0,0,1-.69.08c-2.11-.45-4.19-1-6.28-1.6a1.47,1.47,0,0,1-.82-.44,2,2,0,0,1-.19-1.14c.16-1,.48-2,.7-3a29.74,29.74,0,0,1,2.47-6.59c.74-1.47,1.33-1.7,2.9-1.18a111.57,111.57,0,0,1,14.38,5.89c1.83,1,3.79,1.81,5.59,2.91a16,16,0,0,0,3.22,1.58,12.47,12.47,0,0,0,2.45.71c.66,0,1.37.2,1.9-.38.18-.55-.18-.86-.45-1.19A72.9,72.9,0,0,0,36.6,31.66C36.24,31.46,35.72,31.4,35.72,30.81Z" style="fill:#73b731"/><path d="M84.25,42.8c-.42-1.46-.74-2.95-1.27-4.37a48.8,48.8,0,0,0-2.23-5.15,49.75,49.75,0,0,0-5.41-8.41,62.33,62.33,0,0,0-5.19-5.59,17.09,17.09,0,0,0-1.71-1.46,3.43,3.43,0,0,0-2-.71,43.4,43.4,0,0,0-5.47.3c-1.59.12-3.16.53-4.75.7a3.11,3.11,0,0,1-2.09-.26,13.18,13.18,0,0,1,3.38-1,52.18,52.18,0,0,1,6.24-.8,37.74,37.74,0,0,1,5,.06A3.42,3.42,0,0,1,71,17a48.29,48.29,0,0,1,10,11.38,46.5,46.5,0,0,1,5.42,13,11.57,11.57,0,0,0,.29,1.73A1.67,1.67,0,0,1,84.25,42.8Z" style="fill:#e9ebed"/><path d="M55.65,18.81a8.13,8.13,0,0,0,1.54,1.45c1.68,1.65,3.38,3.27,4.92,5a55.63,55.63,0,0,1,5,6.74,49.44,49.44,0,0,1,4.14,8.14c.7,1.77,1.27,3.59,1.89,5.39a2.37,2.37,0,0,1,.05.51,8.21,8.21,0,0,1-1.91.06A1.83,1.83,0,0,1,70.43,45a72,72,0,0,0-4-8.82c-.2-.4-.56-.82-.21-1.32l.27-.54a8.71,8.71,0,0,0-1.6-2.79c-1.18-1.65-2.42-3.26-3.75-4.8a64.24,64.24,0,0,0-4.81-5c-1.09-1-2.21-2-3.36-3.19h1.4l.43.37A1.2,1.2,0,0,1,55.65,18.81Z" style="fill:#010101"/><path d="M102.44,82.65H99a22,22,0,0,0-9-4.33,3.14,3.14,0,0,1-.93-2.61,9.9,9.9,0,0,1,2.65.47,23.81,23.81,0,0,1,10,5.34C102,81.82,102.53,82.05,102.44,82.65Z" style="fill:#f0f2f3"/><path d="M84.94,66.81a13.9,13.9,0,0,1,.47-3.58,1,1,0,0,0,0-.24c0-1.7.35-3.37.26-5.08s0-3.35,0-5c.42-.24,1,0,1.37-.31.47-.7-.11-1.67.54-2.34.24.09.21.29.21.49,0,2.16.1,4.32,0,6.46a19.4,19.4,0,0,1-.36,3.38,22.33,22.33,0,0,0-.25,2.34c-.22,1.55-.4,3.1-.76,4.62a2.59,2.59,0,0,0,0,.48C85.35,68.23,85.28,67.36,84.94,66.81Z" style="fill:#949da3"/><path d="M87.59,50.23v2.91c-.72-.07-1.34.16-1.91-.26a21.16,21.16,0,0,0-.31-4.21c-.22-2-.73-3.91-1.12-5.87a1.29,1.29,0,0,0,1,.25h1.4c.41.48.31,1.14.41,1.69a23.89,23.89,0,0,1,.36,2.56A23.77,23.77,0,0,1,87.59,50.23Z" style="fill:#b9c0c5"/><path d="M69.34,45.43a14.1,14.1,0,0,1-2.85-3.07c-.25-.3-.49-.61-.76-.88a4.11,4.11,0,0,1-1-1.3c-.33-1.35-.67-2.7-1.06-4a1.7,1.7,0,0,1,.1-1.7c.27,0,.45.29.73.17l.47,0a1.44,1.44,0,0,1,1,.94c1.29,2.85,2.29,5.8,3.41,8.7A1,1,0,0,1,69.34,45.43Z" style="fill:#838c91"/><path d="M84.46,80.49a2.7,2.7,0,0,1-1.93-2.57A9.2,9.2,0,0,1,83,75.31c.35-1.45.69-2.91,1-4.36a1.73,1.73,0,0,1,.16-.3c.84-.05.85.74,1.19,1.19A6.13,6.13,0,0,1,85,73.63c-.21.66-.33,1.35-.54,2a9.91,9.91,0,0,0-.24,3C85,79.12,84.65,79.82,84.46,80.49Z" style="fill:#525b60"/><path d="M69.34,45.43a6.87,6.87,0,0,0-.86-2.61c-.48-1.17-.81-2.39-1.32-3.55s-1.12-2.62-1.61-4c-.13-.35-.49-.35-.54-.66a1.56,1.56,0,0,1,1.21.23A4.66,4.66,0,0,0,67,36.68c.68,1.17,1.21,2.42,1.8,3.63.76,1.55,1.32,3.19,2,4.79.14.36.32.7.48,1A5.64,5.64,0,0,1,69.34,45.43Z" style="fill:#485055"/><path d="M51.8,85.53l.05.7H46.59a4.64,4.64,0,0,0-1.49,1c-1,.19-1.67.94-2.6,1.39H41.3l0-.41c1.44-.85,2.89-1.69,4.33-2.55a1.53,1.53,0,0,1,.69-.12A26.7,26.7,0,0,1,51.8,85.53Z" style="fill:#030303"/><path d="M85.41,71.84a1.34,1.34,0,0,1-.71-.73.68.68,0,0,0-.48-.46,4.62,4.62,0,0,1,.29-1.81,12.36,12.36,0,0,0,.2-1.82c0-.07.15-.14.23-.21a1.38,1.38,0,0,1,.76.81.55.55,0,0,0,.65.38A24.44,24.44,0,0,1,85.41,71.84Z" style="fill:#7a8488"/><path d="M89.07,75.71A26.08,26.08,0,0,1,90,78.32l-.41,0c-.19.65,0,1.52-.82,1.88l-.49-.7a3.57,3.57,0,0,0,.09-2.2A1.25,1.25,0,0,1,89.07,75.71Z" style="fill:#4e5558"/><path d="M45.34,46.65a1.26,1.26,0,0,1-.55-.17,120.42,120.42,0,0,0-12-5c-1-.36-2-.67-3.09-1-.72.06-1.11.65-1.41,1.31a35.68,35.68,0,0,0-2.44,6.56c-.59.51-.75,1.44-1.6,1.71,0,0-.06-.05-.08-.08a.17.17,0,0,1,0-.2c.7-4.12,3.42-10.85,4.94-12.17a1.87,1.87,0,0,1,1,0A111.15,111.15,0,0,1,43.6,42.86a2,2,0,0,1,.3.2,13.66,13.66,0,0,1,1.39,2.36C45.48,45.81,45.71,46.22,45.34,46.65Z" style="fill:#e3e6e8"/><path d="M35.72,30.81c1.2.72,2.39,1.45,3.61,2.15A51.47,51.47,0,0,1,45,36.81a79.6,79.6,0,0,1,8.38,7.4c1.86,1.91,3.53,4,5.24,6A1.37,1.37,0,0,1,59,51.3c-.64.79-1.54.63-2.4.6a2.12,2.12,0,0,1-.9-.75C54,48.81,52,46.74,50.15,44.53c-.24-.29-.63-.51-.49-1v-.6A39.2,39.2,0,0,0,46.28,40a67.62,67.62,0,0,0-5.8-4.32A54.75,54.75,0,0,0,35,32.39c-.43-.21-.72-.6-1.17-.77,0,0,0-.22,0-.33s0-.11,0-.11Z" style="fill:#010101"/><path d="M30,75.72q4.68-.09,9.34,0a4.52,4.52,0,0,1,.41,2.71c-3.28,0-6.49,0-9.77,0A2.54,2.54,0,0,1,30,75.72Z" style="fill:#e3e4e4"/><path d="M45.34,46.65a4.57,4.57,0,0,0-1-2.31,2,2,0,0,1-.45-1.28l2.42.83c.23.07.46.09.69.14a2.21,2.21,0,0,1,2,1.35c.49.91,1.11,1.74,1.62,2.63.26.46.65,1,.21,1.52-1.21-.61-2.42-1.2-3.62-1.83A7.67,7.67,0,0,1,45.34,46.65Z" style="fill:#aeb5ba"/><path d="M50.86,49.53a2.13,2.13,0,0,0-.5-1.51c-.76-1.26-1.6-2.46-2.33-3.57-.34-.38-.83,0-1-.42l1.69,0c.41-.25.69,0,.91.28A60.39,60.39,0,0,1,53.85,50c.22.37.5.75.14,1.2A12.4,12.4,0,0,1,50.86,49.53Z" style="fill:#727b80"/><path d="M54,51.2a3.7,3.7,0,0,0-1.08-2.12c-1.13-1.6-2.35-3.15-3.52-4.72A.71.71,0,0,0,48.7,44a1.13,1.13,0,0,1,1-.47,17.8,17.8,0,0,0,1.84,2.13,69.79,69.79,0,0,1,5.14,6.24,7,7,0,0,1-2.21-.59Z" style="fill:#41494e"/><path d="M52.77,76.41a2.42,2.42,0,0,0,0,.47,3.5,3.5,0,0,1-4.31,4.46s0-.06-.06-.1A1.9,1.9,0,0,1,49,79.82c1-.1,2.18-.16,2.59-1.53-.1-.78.22-1.66-.35-2.57C52,75.73,52.27,76.31,52.77,76.41Z" style="fill:#020302"/><path d="M30,75.72v2.55h9.62a6.93,6.93,0,0,1-.28-2.54l.25,0a2.51,2.51,0,0,1,.47,2.87H29.9a2.22,2.22,0,0,1-1.13-.21,6.52,6.52,0,0,0-2.16-2,.67.67,0,0,1,.77-.65Z" style="fill:#b9c0be"/><path d="M40.05,78.56a11.63,11.63,0,0,0-.47-2.87,14.26,14.26,0,0,1,2.66,1.08c.78.41,1.58.8,2.39,1.21-.11.6-.67.6-1,.85s-.75.15-.65.68Z" style="fill:#464c50"/><path d="M25.2,52.35l3.74.88.17.58.31-.42c1.14.31,2.31.55,3.44,1v1C30.52,55,28.4,54,26.05,53.82l-.58-.46a.94.94,0,0,1-1.22-.12c-.09-.42.49-.26.44-.61S24.92,52.26,25.2,52.35Z" style="fill:#020302"/><path d="M24.21,49.75l.17.28c.33-.76.66-1.48,1.5-1.71l-.7,2.89c-.25.39-.54.72-1.06.56-.29-.09-.28-.34-.17-.59C24.07,50.71,23.81,50.17,24.21,49.75Z" style="fill:#a5adb1"/><path d="M24,51.18l.08.49c.49,0,.77-.36,1.15-.46l0,1.14c-.18.07-.45,0-.51.28h-.86C23.79,52.14,23.5,51.65,24,51.18Z" style="fill:#636b70"/><path d="M57.34,33a90.84,90.84,0,0,0-9.48-7c-1-.64-2.07-1.26-3.12-1.88a1.38,1.38,0,0,0-1.62.05A41.67,41.67,0,0,0,39.19,27a7.94,7.94,0,0,1-.78.5c-.45.11-.68-.14-.81-.52A28.94,28.94,0,0,1,42,23.36c.64-.46,1.3-.9,2-1.34a2.12,2.12,0,0,1,2.46,0,123.88,123.88,0,0,1,10.59,7.47s0,.07,0,.11a6.19,6.19,0,0,1,.69,2.26C57.87,32.28,58,32.82,57.34,33Z" style="fill:#e8eaec"/><path d="M63.81,34.45a9.31,9.31,0,0,0,.67,3.16c.19.74.37,1.49.54,2.24,0,.19-.08.28-.25.33a48.92,48.92,0,0,1-4.3-4.34,9.66,9.66,0,0,0-.35-2.33c-.1-.45-.28-.95.33-1.22.52.38,1.07.74,1.55,1.17A5.34,5.34,0,0,0,63.81,34.45Z" style="fill:#a1a9af"/><path d="M60.45,32.29c-.08.17-.25.37-.21.52.18.89.41,1.78.64,2.7-.09.12-.18.3-.41.33L57.34,33c.44-.32.27-.75.16-1.13a6,6,0,0,1-.39-2.25A27,27,0,0,1,60.45,32.29Z" style="fill:#c8ced1"/><path d="M37.6,27c.37,0,.46.47.81.52a11.25,11.25,0,0,1-1.94,1.9c-.54.27-.92.23-1-.49A7.89,7.89,0,0,1,37.6,27Z" style="fill:#c1c8ca"/><path d="M35.5,28.88c0,.25.24.35.42.49h.55a1.46,1.46,0,0,1-.73.72c-.48.11-1,.78-1.43,0A3.92,3.92,0,0,1,35.5,28.88Z" style="fill:#879094"/><path d="M34.31,30.09c.14.38.43.29.65.14a1.36,1.36,0,0,1,.78-.14v.48a6.15,6.15,0,0,0-1.83.2C34.09,30.55,33.93,30.18,34.31,30.09Z" style="fill:#4a5153"/><path d="M66.47,64.69c-.08-.08-.25-.19-.23-.23a3.32,3.32,0,0,1,1.06-1.59,8.4,8.4,0,0,1,6.13-1.57,6.16,6.16,0,0,1,3.23,1.28,7.88,7.88,0,0,1,3.51,6.49,8.56,8.56,0,0,1-1.26,4.56,2.28,2.28,0,0,1-.42.4c-.82-.17-.94-.87-1.15-1.5.34-1.17,1.11-2.17,1.08-3.5a5,5,0,0,0-5-5,5.1,5.1,0,0,0-4.64,5.74,4.69,4.69,0,0,1,.2,1.54,20.67,20.67,0,0,1-2.14,1.83,1.43,1.43,0,0,1-1.31.39,6.87,6.87,0,0,1-1.24-3.45,7.7,7.7,0,0,1,.28-3.21,1.49,1.49,0,0,1,.73-1c.52-.69,1.36-.58,2-.83a6.25,6.25,0,0,0,1.31-.43C67.86,64.44,67.16,65.16,66.47,64.69Z" style="fill:#010101"/><path d="M76.54,75.92a9.76,9.76,0,0,1-3,1.25c-1.16.38-2.22-.06-3.32-.09,0,0-.08-.12-.12-.19a.73.73,0,0,1-.32-1,6.13,6.13,0,0,1,1.07-2.19,13.49,13.49,0,0,0,4.94.39C76.37,74.54,76.84,75.07,76.54,75.92Z" style="fill:#abb3b8"/><path d="M75.82,74.22c-.51,0-.95.27-1.47.29a6.84,6.84,0,0,1-3.59-.69c-.72.1-1.08-.49-1.56-.84-.63-.47-1,.1-1.46.36s-.95,1-1.75.7a.72.72,0,0,1-.49-.51,6.51,6.51,0,0,0,2.37-1.73,1.24,1.24,0,0,1,1-.44c.56,0,.77.51,1.09.82a5,5,0,0,0,6.4.76,1.76,1.76,0,0,1,1.07-.44c.41.47.56,1.11,1,1.53a1.74,1.74,0,0,1-1,1.17C77,74.84,76.63,74.12,75.82,74.22Z" style="fill:#313537"/><path d="M69.35,72.76l1.41,1.06c0,.2,0,.43-.05.57a17.21,17.21,0,0,0-.88,2l.23.49a5.66,5.66,0,0,1-3.13-1.67c-.29-.45,0-.77.3-1A6.38,6.38,0,0,1,69.35,72.76Z" style="fill:#dde1e3"/><path d="M66.47,64.69a19.8,19.8,0,0,1,2.71-.57c.2.17.18.37.21.68-1.31.53-2.75.71-4.12,1.11L65,65.72a2.58,2.58,0,0,1,.86-1.31l.22.42A.26.26,0,0,0,66.47,64.69Z" style="fill:#f4f5f3"/><path d="M69.35,72.76c-.28.64-1,.82-1.45,1.24s-.94.58-1,1.22c-.42-.31-.89-.58-.94-1.18a6.83,6.83,0,0,0,2.24-1.44l.32-.26A.64.64,0,0,1,69.35,72.76Z" style="fill:#a2a9ac"/><path d="M75.82,74.22c.05-.32.44-.14.58-.46.41.48,1,.73,1.11,1.44l-1,.72C76.5,75.27,76,74.81,75.82,74.22Z" style="fill:#767f83"/><path d="M51.8,85.53H46.29a.33.33,0,0,1,.36-.23h4.83C51.66,85.29,51.78,85.34,51.8,85.53Z" style="fill:#171b1c"/><path d="M77.46,72.5a5.71,5.71,0,0,1-3.74,1.57A5.19,5.19,0,0,1,69.38,72c-.17-.21-.19-.53-.48-.64a5.2,5.2,0,0,1,1.53-6.51,4.8,4.8,0,0,1,5.13-.69,4.94,4.94,0,0,1,3.17,4.25A5.38,5.38,0,0,1,77.46,72.5Z" style="fill:#fefefe"/></g></g></svg>