<svg xmlns="http://www.w3.org/2000/svg" viewBox="0 0 51.86 12.12"><title>Off_Diller</title><g id="Слой_2" data-name="Слой 2"><g id="TEXT"><path d="M0,3.55A2.27,2.27,0,0,1,2.31,1.24,2.27,2.27,0,0,1,4.62,3.55,2.29,2.29,0,0,1,2.31,5.87,2.29,2.29,0,0,1,0,3.55Zm3.94,0a1.59,1.59,0,0,0-1.63-1.7A1.59,1.59,0,0,0,.69,3.55,1.6,1.6,0,0,0,2.31,5.26,1.61,1.61,0,0,0,3.94,3.55Z"/><path d="M7.86,5.36v.51H7.2V5.36a1.86,1.86,0,1,1,0-3.71V1.24h.66v.41a1.84,1.84,0,0,1,2,1.85A1.86,1.86,0,0,1,7.86,5.36ZM7.2,4.77V2.23A1.2,1.2,0,0,0,5.85,3.5,1.19,1.19,0,0,0,7.2,4.77Zm2-1.27A1.2,1.2,0,0,0,7.86,2.23V4.77A1.19,1.19,0,0,0,9.21,3.5Z"/><path d="M14.2,1.32V5.79h-.66V2.66L11,5.79h-.38V1.32h.66V4.51l2.57-3.19Z"/><path d="M19.32,6.88h-.43l-.2-1.09H15.26V1.32h.66V5.21h2.26V1.32h.66V5.21h.48Z"/><path d="M23.6,1.32V5.79h-.66V2.66L20.4,5.79H20V1.32h.66V4.51l2.57-3.19Z"/><path d="M27.41,4.8H25.33l-.41,1h-.69l1.93-4.47h.43l1.93,4.47h-.71Zm-.24-.59L26.38,2.3l-.8,1.91Z"/><path d="M33.08,5.79h-.66V1.9H30.75V3.2c0,2.06-.39,2.67-1.19,2.67a1.34,1.34,0,0,1-.7-.2l.3-.48a.67.67,0,0,0,.34.09c.35,0,.59-.28.59-1.88V1.32h3Z"/><path d="M37.37,4.39a1.41,1.41,0,0,1-1.5,1.4H34.14V1.32h.66V3h1.07A1.41,1.41,0,0,1,37.37,4.39Zm-.69,0a.79.79,0,0,0-.81-.81H34.8V5.21h1.07A.79.79,0,0,0,36.68,4.39Z"/><path d="M41.69,1.32V5.79H41v-2H38.71v2h-.66V1.32h.66V3.2H41V1.32Z"/><path d="M46,4.39a1.41,1.41,0,0,1-1.5,1.4H42.75V1.32h.66V3h1.06A1.41,1.41,0,0,1,46,4.39Zm-.69,0a.79.79,0,0,0-.81-.81H43.41V5.21h1.06A.79.79,0,0,0,45.28,4.39Zm1.93-3.07V5.79h-.66V1.32Z"/><path d="M51.86,1.32V5.79H51.2V2.66L48.66,5.79h-.38V1.32h.66V4.51L51.5,1.32ZM49.32,0h.42a.39.39,0,0,0,.42.41c.25,0,.37-.16.38-.41H51a.8.8,0,0,1-.81.84A.8.8,0,0,1,49.32,0Z"/><path d="M15.72,12.12h-.66V8.26H12.75v3.86h-.66V7.65h3.63Z"/><path d="M19.52,11.13H17.45l-.41,1h-.69l1.93-4.47h.43l1.93,4.47h-.71Zm-.24-.58L18.5,8.63l-.8,1.92Z"/><path d="M24.37,9.08a1.43,1.43,0,0,1-1.5,1.42h-.94v1.62h-.66V7.65h1.6A1.45,1.45,0,0,1,24.37,9.08Zm-.69,0a.81.81,0,0,0-.81-.84h-.94V9.91h.94A.8.8,0,0,0,23.68,9.08Z"/><path d="M28.36,8.24h-1.5v3.88H26.2V8.24H24.71V7.65h3.65Z"/><path d="M32.65,7.65v4.47H32v-2H29.68v2H29V7.65h.66V9.53H32V7.65Z"/><path d="M36.65,11.54v.58H33.71V7.65H36.6v.59H34.37V9.56h1.9v.58h-1.9v1.4Z"/><path d="M40.5,9.08A1.43,1.43,0,0,1,39,10.5h-.94v1.62h-.66V7.65H39A1.44,1.44,0,0,1,40.5,9.08Zm-.68,0A.81.81,0,0,0,39,8.24h-.94V9.91H39A.81.81,0,0,0,39.82,9.08Z"/></g></g></svg>