<svg viewBox="0 0 436.42 48.95" xmlns="http://www.w3.org/2000/svg"><g fill="#fff"><path d="m32.1 37.08c0 7.48-4.87 11.92-16.31 11.92-11.98 0-15.74-5.29-15.79-12.76h9.48c0 3.39 1.91 4.45 6.31 4.45 4.92 0 6.35-1 6.35-3.18 0-1.91-2-2.76-5.72-3.39l-3.6-.64c-7.42-1.32-12.5-4.29-12.5-11.48 0-7 4.71-11.66 15.47-11.66 11.92 0 15.2 5.67 15.2 12.51h-9.22c0-2.81-1.64-4.24-5.77-4.24-4.88 0-5.93.79-5.93 3 0 1.8 1.43 2.7 6.35 3.6l3.39.63c7 1.34 12.29 3.83 12.29 11.24zm-20.45-29.24-6.65-7.84h7.31l3.6 3.13 3.37-3.13h7.1l-6.88 7.84z"/><path d="m60.4 48.32-9.01-14.32-5.83 6.9v7.42h-9.11v-37.32h9.11v18.19l14.63-18.19h10.38l-13.35 16 14.2 21.35z"/><path d="m69.64 29.67c0-10.86 9.36-19.29 20.36-19.29s20.34 8.37 20.34 19.29-9.34 19.33-20.34 19.33-20.36-8.42-20.36-19.33zm31.15 0a10.81 10.81 0 1 0 -10.79 10.81 10.85 10.85 0 0 0 10.79-10.81z"/><path d="m148.61 29.67c0 10.44-9 18.65-19.92 18.65h-14.41v-37.32h14.41c10.91 0 19.92 8.28 19.92 18.67zm-9.54 0c0-6.15-4.5-10.39-10.81-10.39h-4.87v20.77h4.87c6.31 0 10.81-4.24 10.81-10.38z"/><path d="m174.67 42.81h-16.53l-2.33 5.51h-9.32l16.51-37.32h7.41l16.32 37.3h-9.73zm-3.18-7.42-5.08-12-5.09 12z"/><path d="m187.26 29.24h16.1v7.42h-16.1z"/><path d="m232 42.81h-16.54l-2.33 5.51h-9.32l16.53-37.32h7.41l16.32 37.3h-9.75zm-3.18-7.42-5.08-12-5.09 12z"/><path d="m243.75 33.69v-22.69h9.11v22.91c0 4.34 3.12 6.78 7.63 6.78 4.29 0 7.41-2.44 7.41-6.78v-22.91h9.1v22.69c0 9.31-6.87 15.31-16.51 15.31-9.86 0-16.74-6-16.74-15.31z"/><path d="m311.77 19.28h-11.65v29h-9.12v-29h-11.86v-8.28h32.63z"/><path d="m311.83 29.67c0-10.86 9.32-19.29 20.34-19.29s20.34 8.37 20.34 19.29-9.32 19.33-20.34 19.33-20.34-8.42-20.34-19.33zm31.15 0a10.81 10.81 0 1 0 -10.81 10.81 10.86 10.86 0 0 0 10.83-10.81z"/><path d="m354.1 39.2h9.11v9.12h-9.11z"/><path d="m382.67 36h-4.87v12.32h-9.11v-37.32h17.37c7.68 0 12.93 5.4 12.93 12.5a11.47 11.47 0 0 1 -7 10.81l9.32 14h-10.8zm-4.87-7.85h6.78a4.53 4.53 0 0 0 4.87-4.66c0-2.81-2.17-4.45-4.87-4.45h-6.78z"/><path d="m403.14 33.69v-22.69h9.12v22.91c0 4.34 3.12 6.78 7.63 6.78 4.29 0 7.41-2.44 7.41-6.78v-22.91h9.12v22.69c0 9.31-6.89 15.31-16.53 15.31-9.89 0-16.75-6-16.75-15.31z"/></g></svg>