<svg xmlns="http://www.w3.org/2000/svg" viewBox="0 0 41.49 12.75"><title>TEXT</title><g id="Слой_2" data-name="Слой 2"><g id="TEXT"><path d="M3.22,3.22A1.29,1.29,0,0,1,1.83,4.54H0V.08H1.62A1.25,1.25,0,0,1,3,1.29a1.07,1.07,0,0,1-.52.9A1.05,1.05,0,0,1,3.22,3.22ZM.66.66V2H1.6a.66.66,0,0,0,.71-.69A.67.67,0,0,0,1.6.66ZM2.54,3.28a.72.72,0,0,0-.74-.69H.66V4H1.83A.66.66,0,0,0,2.54,3.28Z" style="fill:#fff"/><path d="M8.72,4.54H8.09V1.69L6.64,4.54H6.21L4.76,1.69V4.54H4.13V.08h.5L6.42,3.66,8.21.08h.51Z" style="fill:#fff"/><path d="M12.86,4v.58H9.91V.08h2.9V.66H10.57V2h1.91v.58H10.57V4Z" style="fill:#fff"/><path d="M13.38,2.31A2.15,2.15,0,0,1,15.54,0a2.11,2.11,0,0,1,1.89,1.06l-.54.32A1.56,1.56,0,0,0,15.54.61a1.52,1.52,0,0,0-1.47,1.7A1.52,1.52,0,0,0,15.54,4a1.44,1.44,0,0,0,1.32-.77l.56.31a2.08,2.08,0,0,1-1.88,1.07A2.17,2.17,0,0,1,13.38,2.31Z" style="fill:#fff"/><path d="M21.53.66H20V4.54h-.66V.66h-1.5V.08h3.65Z" style="fill:#fff"/><path d="M25.26,4v.58H22.32V.08h2.89V.66H23V2h1.9v.58H23V4Z" style="fill:#fff"/><path d="M12,11.66h-.84L9.32,9.71H8.91v1.95H8.25V7.19h.66V9.1h.45l1.71-1.91h.81l-2,2.2Z" style="fill:#fff"/><path d="M17.82,11.66h-.66V7.8H14.85v3.86h-.66V7.19h3.63Z" style="fill:#fff"/><path d="M18.7,9.43A2.31,2.31,0,1,1,21,11.74,2.27,2.27,0,0,1,18.7,9.43Zm3.93,0A1.58,1.58,0,0,0,21,7.72a1.6,1.6,0,0,0-1.63,1.71,1.63,1.63,0,1,0,3.25,0Z" style="fill:#fff"/><path d="M27.42,10.38a1.3,1.3,0,0,1-1.35,1.28H24.2V7.19h2.87v.59h-2.2V9.1h1.2A1.29,1.29,0,0,1,27.42,10.38Zm-.68,0A.72.72,0,0,0,26,9.68H24.87v1.4H26A.72.72,0,0,0,26.74,10.37Z" style="fill:#fff"/><path d="M31.18,11.08v.58H28.24V7.19h2.89v.59H28.9V9.1h1.9v.58H28.9v1.4Z" style="fill:#fff"/><path d="M36.18,11.08v1.67h-.46l-.18-1.09H32.47l-.18,1.09h-.45V11.08h.38a2.19,2.19,0,0,0,.53-1.6V7.19h3v3.89Zm-3.28,0H35V7.78H33.39V9.4A2.63,2.63,0,0,1,32.9,11.08Z" style="fill:#fff"/><path d="M40,11.08v.58H37V7.19h2.9v.59H37.66V9.1h1.91v.58H37.66v1.4Z" style="fill:#fff"/><path d="M40.75,10.92h.74v.74h-.74Zm0-3.22V7.19h.68V7.7l-.1,2.64h-.48Z" style="fill:#fff"/></g></g></svg>