<svg xmlns="http://www.w3.org/2000/svg" viewBox="0 0 134.49 33"><title>Butt_1sc_1</title><rect width="134.49" height="33" style="fill:#fd0"/><path d="M15.86,11.33H23v8.48H21.38V12.6H17.49v7.21H15.86Z"/><path d="M24.6,16.6c0-2.21,1.31-3.51,3.29-3.51,2.14,0,3.17,1.29,3.17,3.43A3.1,3.1,0,0,1,27.77,20C25.74,20,24.6,18.68,24.6,16.6Zm4.83-.05c0-1.13-.3-2.19-1.59-2.19s-1.62,1.06-1.62,2.19.38,2.12,1.63,2.12S29.43,17.72,29.43,16.55Z"/><path d="M31.74,18.6h.72a5.75,5.75,0,0,0,.79-2,30,30,0,0,0,.33-3.3h4.57V18.6H39.2v3H37.73V19.81H33.22v1.76H31.74Zm4.81,0V14.47H34.94a21.09,21.09,0,0,1-.3,2.55,5.08,5.08,0,0,1-.54,1.58Z"/><path d="M40.39,13.26H42v.49a2.92,2.92,0,0,1,1.84-.64c1.51,0,2.64,1,2.64,3.19,0,2.71-1.67,3.63-3.48,3.63-.41,0-.74,0-1-.06v2.58H40.39Zm4.45,3.1c0-1.18-.45-1.91-1.55-1.91A3,3,0,0,0,42,14.8v3.8a9.49,9.49,0,0,0,1,.09C44.25,18.69,44.84,17.71,44.84,16.36Z"/><path d="M47.44,16.6c0-2.21,1.3-3.51,3.28-3.51,2.15,0,3.18,1.29,3.18,3.43A3.1,3.1,0,0,1,50.6,20C48.57,20,47.44,18.68,47.44,16.6Zm4.83-.05c0-1.13-.3-2.19-1.6-2.19s-1.62,1.06-1.62,2.19.39,2.12,1.64,2.12S52.27,17.72,52.27,16.55Z"/><path d="M55.06,16.22c0-1.41.26-3.51,1.1-4.23s2.55-1.08,4.59-1.44L61,12a12.71,12.71,0,0,0-3.81.89,2.28,2.28,0,0,0-.56,1.47,4.47,4.47,0,0,1,2.19-.54c1.62,0,2.58.8,2.58,2.74a3.06,3.06,0,0,1-3.32,3.39C56.24,19.93,55.06,18.8,55.06,16.22Zm4.74.39c0-.91-.4-1.59-1.47-1.59a4,4,0,0,0-1.74.47c0,.19,0,.53,0,.71,0,1.69.55,2.46,1.62,2.46C59.44,18.66,59.8,17.59,59.8,16.61Z"/><path d="M62.8,13.26h1.59v2.65h2.75V13.26h1.59v6.55H67.14V17.14H64.39v2.67H62.8Z"/><path d="M70.13,16.63c0-2.61,1.38-3.52,3.09-3.52,2,0,2.78,1.22,2.78,3.29V17H71.73c0,1.39.9,1.68,2,1.68a7.39,7.39,0,0,0,1.88-.28l.25,1.21a7.3,7.3,0,0,1-2.35.36C71.46,20,70.13,19.21,70.13,16.63Zm4.23-.72c0-1-.37-1.65-1.2-1.65s-1.33.57-1.39,1.65Z"/><path d="M77,16.63c0-2.61,1.38-3.52,3.09-3.52,2,0,2.79,1.22,2.79,3.29V17H78.59c0,1.39.9,1.68,2,1.68a7.46,7.46,0,0,0,1.89-.28l.25,1.21a7.34,7.34,0,0,1-2.35.36C78.31,20,77,19.21,77,16.63Zm4.23-.72c0-1-.37-1.65-1.2-1.65s-1.33.57-1.39,1.65Z"/></svg>