<svg xmlns="http://www.w3.org/2000/svg" viewBox="0 0 138.15 33"><title>Butt_2sc</title><rect width="138.15" height="33" style="fill:#fd0"/><path d="M14.42,19.35l.08-1.1a4,4,0,0,0,1.92.43c.85,0,1.85-.35,1.85-1.45,0-1.26-1.25-1.35-2-1.35h-.52v-1h.38c.83,0,2.05-.24,2.05-1.39,0-.85-.82-1.18-1.62-1.18a4.84,4.84,0,0,0-1.79.39l-.12-1a7.84,7.84,0,0,1,2.13-.35c1.48,0,2.76.57,2.76,2.06a1.93,1.93,0,0,1-1.6,1.88,1.94,1.94,0,0,1,1.75,2c0,1.5-1.34,2.31-3.14,2.31A6,6,0,0,1,14.42,19.35Z"/><path d="M24.57,19.53l0-.94a2.05,2.05,0,0,1-1.88,1.08,1.75,1.75,0,0,1-2-1.78c0-1.56,1.4-2,3.16-2h.68v-.25a1.2,1.2,0,0,0-1.37-1.35,3.27,3.27,0,0,0-1.76.48l-.08-.93a5.65,5.65,0,0,1,1.95-.39c1.54,0,2.43.66,2.43,2.28v2.5a13,13,0,0,0,.07,1.33Zm-.4-2.93c-1.18,0-2.32.16-2.32,1.22,0,.68.45,1,1.09,1,1.09,0,1.56-.86,1.56-1.87V16.6Z"/><path d="M27.31,13.54h1.2v2.74L31,13.54h1.45l-2.63,2.8,2.95,3.19H31.22l-2.71-3v3h-1.2Z"/><path d="M37.07,19.53l0-.94a2.07,2.07,0,0,1-1.89,1.08,1.75,1.75,0,0,1-2-1.78c0-1.56,1.41-2,3.17-2H37v-.25a1.2,1.2,0,0,0-1.37-1.35,3.27,3.27,0,0,0-1.76.48l-.07-.93a5.59,5.59,0,0,1,1.94-.39c1.55,0,2.44.66,2.44,2.28v2.5a10.69,10.69,0,0,0,.07,1.33Zm-.39-2.93c-1.19,0-2.33.16-2.33,1.22,0,.68.46,1,1.09,1,1.09,0,1.56-.86,1.56-1.87V16.6Z"/><path d="M39.34,19.32l.07-1a3.44,3.44,0,0,0,1.7.42c.88,0,1.46-.41,1.46-1,0-.77-.54-1-1.49-1h-.57V16H41c.81,0,1.42-.21,1.42-.91s-.62-.75-1.21-.75a4.06,4.06,0,0,0-1.68.44l-.07-.94a5.79,5.79,0,0,1,2-.39c1.28,0,2.22.33,2.22,1.46a1.53,1.53,0,0,1-1.3,1.45,1.46,1.46,0,0,1,1.43,1.46c0,1.3-1.15,1.88-2.52,1.88A5.07,5.07,0,0,1,39.34,19.32Z"/><path d="M48.69,19.53l0-.94a2.05,2.05,0,0,1-1.88,1.08,1.75,1.75,0,0,1-2-1.78c0-1.56,1.4-2,3.16-2h.68v-.25a1.2,1.2,0,0,0-1.37-1.35,3.27,3.27,0,0,0-1.76.48l-.08-.93a5.69,5.69,0,0,1,2-.39c1.54,0,2.43.66,2.43,2.28v2.5a13,13,0,0,0,.07,1.33Zm-.4-2.93c-1.18,0-2.32.16-2.32,1.22,0,.68.45,1,1.09,1,1.09,0,1.56-.86,1.56-1.87V16.6Z"/><path d="M52.64,14.42H50.71v-.88h5v.88H53.84v5.11h-1.2Z"/><path d="M56.69,13.54h1.2v2.18h1.53c1.15,0,2.17.52,2.17,1.85s-1,2-2.26,2H56.69Zm2.4,5.15c.85,0,1.29-.42,1.29-1.11s-.45-1-1.34-1H57.89v2.14Z"/><path d="M67.31,14.42H65.38v-.88h5.05v.88H68.51v5.11h-1.2Z"/><path d="M72.25,16.8a1.9,1.9,0,0,0,2,2,3.51,3.51,0,0,0,1.62-.38l.07.89a5,5,0,0,1-1.86.33A2.86,2.86,0,0,1,71,16.51a2.84,2.84,0,0,1,2.75-3.09c1.88,0,2.5,1.33,2.5,3v.36Zm2.86-.74c0-.92-.26-1.81-1.34-1.81s-1.5.94-1.54,1.81Z"/><path d="M81.77,19.44a4.13,4.13,0,0,1-1.51.23,2.91,2.91,0,0,1-3.13-3.16,3,3,0,0,1,3.15-3.09,4.25,4.25,0,0,1,1.5.2l-.07,1a2.84,2.84,0,0,0-1.26-.26,2,2,0,0,0-2,2.19,2,2,0,0,0,2.1,2.24,2.66,2.66,0,0,0,1.19-.26Z"/><path d="M84.18,14.42H82.25v-.88h5v.88H85.38v5.11h-1.2Z"/><path d="M87.89,16.31v-1h3v1Z"/><path d="M91.38,18.66h.68a5.47,5.47,0,0,0,.8-3.42v-1.7h4.32v5.12H98v2.58H97V19.53H92.46v1.71H91.38Zm4.6,0V14.4h-2v1.07a5.77,5.77,0,0,1-.67,3.19Z"/><path d="M99,22.12V15.43c0-.71,0-1.31,0-1.89h1.13l0,1A2.11,2.11,0,0,1,102,13.42c1.82,0,2.46,1.5,2.46,3.09s-.67,3.16-2.48,3.16a1.9,1.9,0,0,1-1.81-1.11v3.56Zm2.69-3.38c1.21,0,1.51-1.23,1.51-2.23s-.26-2.17-1.5-2.17-1.53,1.21-1.53,2.17a3.22,3.22,0,0,0,.32,1.48A1.34,1.34,0,0,0,101.69,18.74Z"/><path d="M109.25,19.53l0-.94a2,2,0,0,1-1.88,1.08,1.75,1.75,0,0,1-2-1.78c0-1.56,1.4-2,3.17-2h.67v-.25a1.2,1.2,0,0,0-1.37-1.35,3.27,3.27,0,0,0-1.76.48l-.07-.93a5.59,5.59,0,0,1,1.94-.39c1.55,0,2.43.66,2.43,2.28v2.5a10.56,10.56,0,0,0,.08,1.33Zm-.4-2.93c-1.18,0-2.32.16-2.32,1.22,0,.68.45,1,1.09,1,1.09,0,1.56-.86,1.56-1.87V16.6Z"/><path d="M112,13.54h1.16v4.53l2.77-4.53h1.29v6H116V15l-2.76,4.52H112Zm.77-2.28.64-.38a1.29,1.29,0,0,0,1.24.79,1.32,1.32,0,0,0,1.23-.79l.65.38a2,2,0,0,1-3.76,0Z"/><path d="M118.86,13.54h2.76c1,0,2,.33,2,1.47a1.35,1.35,0,0,1-1.16,1.39,1.44,1.44,0,0,1,1.31,1.43c0,1.4-1.17,1.7-2.35,1.7h-2.52ZM121.17,16c.69,0,1.18-.24,1.18-.85s-.44-.82-1.16-.82h-1.14V16Zm.08,2.7c.82,0,1.27-.4,1.27-1s-.49-.9-1.35-.9h-1.12v1.91Z"/></svg>