<svg xmlns="http://www.w3.org/2000/svg" viewBox="0 0 180.36 29.79"><title>H1</title><path d="M49,8.15c1.07-.33,1.53-.47,1.86-1.12l.17-.32h-.68L46.82,0h2.66l2.39,4.92L53.57,0h2.71L53.12,6.86c-1.21,2.65-2,2.76-3.47,3.17Z" style="fill:#fff"/><path d="M55.68,6c0-2.38,1.6-3.95,4.19-3.95a4.91,4.91,0,0,1,2.44.53l-.6,1.7A4,4,0,0,0,60,4C59,4,58.08,4.4,58.08,6c0,1.47.35,2.15,2.18,2.15A8.07,8.07,0,0,0,61.89,8l.32,1.78a8.07,8.07,0,0,1-2.07.28C56.9,10.06,55.68,8.87,55.68,6Z" style="fill:#fff"/><path d="M65.23,4H62.84V2.25H70V4H67.56V9.9H65.23Z" style="fill:#fff"/><path d="M70.51,7.72c0-1.93,1.77-2.33,3.28-2.33h1.33V4.92c0-.68-.44-.87-1.39-.87a9.17,9.17,0,0,0-2.28.33L71,2.69a8.27,8.27,0,0,1,3.09-.62c2.37,0,3.32.68,3.32,2.4v3.4c0,.25.25.31.69.32L78,10h-.54c-.93,0-1.91-.15-2.12-.81a3.8,3.8,0,0,1-2.2.87C71.46,10,70.51,9.25,70.51,7.72ZM75.12,8V6.75L74,6.78c-.69,0-1.19.24-1.19.8s.43.64.85.64A5.19,5.19,0,0,0,75.12,8Z" style="fill:#fff"/><path d="M79.39,2.25h2.34v3h2.73v-3H86.8V9.9H84.46v-3H81.73v3H79.39Z" style="fill:#fff"/><path d="M88.18,6.15a3.77,3.77,0,0,1,4-4.09c2.72,0,3.94,1.53,3.94,4a3.74,3.74,0,0,1-4.06,4A3.57,3.57,0,0,1,88.18,6.15Zm5.56-.07c0-1.23-.31-2.17-1.6-2.17s-1.61.94-1.61,2.18.39,2.12,1.64,2.12S93.74,7.38,93.74,6.08Z" style="fill:#fff"/><path d="M97.52,2.25h3.79c1.63,0,2.65.71,2.65,2.11a1.6,1.6,0,0,1-.95,1.5,1.68,1.68,0,0,1,1.33,1.73c0,1.49-1.3,2.31-3,2.31H97.52Zm2.92,3.07c.75,0,1.29-.17,1.29-.73s-.42-.74-1.09-.74h-.78V5.32Zm.37,3c.7,0,1.15-.26,1.15-.79s-.52-.77-1.24-.78h-.86V8.31Z" style="fill:#fff"/><path d="M105.73,2.25h2.34V5.59l0,1.2.8-1.2,2.25-3.34h2.34V9.9h-2.34V6.61l0-1.22-.8,1.22L108.07,9.9h-2.34Z" style="fill:#fff"/><path d="M116.93,4h-2.39V2.25h7.12V4h-2.4V9.9h-2.33Z" style="fill:#fff"/><path d="M122.32,6.19c0-3.12,1.61-4.12,3.93-4.12s3.36,1.57,3.36,3.88v.84h-5c0,1.21.94,1.43,2.16,1.43A10.88,10.88,0,0,0,129,7.91l.35,1.73a9.83,9.83,0,0,1-2.87.43C124,10.07,122.32,9.25,122.32,6.19Zm4.89-.9c0-.92-.38-1.56-1.13-1.56s-1.32.56-1.36,1.56Z" style="fill:#fff"/><path d="M0,22.81c0-2.38,1.6-3.95,4.19-3.95a4.94,4.94,0,0,1,2.44.53L6,21.09a3.9,3.9,0,0,0-1.73-.33c-1,0-1.89.44-1.89,2.08,0,1.47.35,2.15,2.18,2.15a8.24,8.24,0,0,0,1.63-.19l.32,1.78a8.08,8.08,0,0,1-2.08.28C1.22,26.86,0,25.67,0,22.81Z" style="fill:#fff"/><path d="M7.91,19.05h3.8c1.62,0,2.64.71,2.64,2.11a1.6,1.6,0,0,1-.95,1.5,1.68,1.68,0,0,1,1.33,1.73c0,1.49-1.3,2.31-3,2.31H7.91Zm2.93,3.07c.74,0,1.29-.17,1.29-.73s-.42-.74-1.1-.74h-.78v1.47Zm.36,3c.7,0,1.15-.26,1.15-.79s-.52-.77-1.23-.78h-.87v1.57Z" style="fill:#fff"/><path d="M15.64,23a3.77,3.77,0,0,1,4-4.09c2.72,0,3.94,1.53,3.94,4a3.74,3.74,0,0,1-4.06,4A3.57,3.57,0,0,1,15.64,23Zm5.56-.07c0-1.23-.31-2.17-1.6-2.17S18,21.65,18,22.89,18.38,25,19.63,25,21.2,24.18,21.2,22.88Z" style="fill:#fff"/><path d="M25,19.05h2.33v3.34l0,1.2.8-1.2,2.26-3.34h2.34V26.7H30.33V23.41l0-1.22-.8,1.22L27.31,26.7H25Z" style="fill:#fff"/><path d="M37.77,19.05H45V26.7H42.7V20.76H40.11V26.7H37.77Z" style="fill:#fff"/><path d="M46.91,19.05h2.33v.55a3.39,3.39,0,0,1,1.85-.74c2.1,0,3.37,1,3.37,3.67,0,3.19-2.06,4.31-4.28,4.31-.35,0-.66,0-.94-.05v3H46.91Zm5.2,3.55c0-1.37-.55-1.78-1.72-1.78a3.93,3.93,0,0,0-1.15.21V25a7.74,7.74,0,0,0,1,.08C51.42,25.06,52.11,24,52.11,22.6Z" style="fill:#fff"/><path d="M55.31,24.52c0-1.94,1.77-2.33,3.28-2.33h1.33v-.47c0-.68-.43-.87-1.38-.87a9.25,9.25,0,0,0-2.29.33l-.46-1.69a8.31,8.31,0,0,1,3.09-.62c2.37,0,3.33.67,3.33,2.4v3.4c0,.25.25.31.68.32l-.08,1.77h-.55c-.92,0-1.9-.15-2.11-.81a3.8,3.8,0,0,1-2.2.87C56.27,26.83,55.31,26,55.31,24.52Zm4.61.24V23.55l-1.15,0c-.68,0-1.19.24-1.19.8s.44.64.86.64A5.13,5.13,0,0,0,59.92,24.76Z" style="fill:#fff"/><path d="M64.19,19.05H68c1.62,0,2.64.71,2.64,2.11a1.6,1.6,0,0,1-.95,1.5A1.68,1.68,0,0,1,71,24.39c0,1.49-1.3,2.31-3,2.31h-3.8Zm2.93,3.07c.74,0,1.29-.17,1.29-.73s-.42-.74-1.1-.74h-.78v1.47Zm.36,3c.7,0,1.15-.26,1.15-.79s-.52-.77-1.23-.78h-.87v1.57Z" style="fill:#fff"/><path d="M72.41,19.05h2.34v3.34l0,1.2.79-1.2,2.26-3.34H80.1V26.7H77.76V23.41l0-1.22L77,23.41,74.75,26.7H72.41Z" style="fill:#fff"/><path d="M81.09,25.06a2.84,2.84,0,0,0,1.55-1,16.31,16.31,0,0,0,.65-5H89V26.7H86.69V20.76H85.22c-.22,2.48-.55,4-1,4.75a3.8,3.8,0,0,1-2.5,1.42Z" style="fill:#fff"/><path d="M90.34,24.52c0-1.94,1.77-2.33,3.28-2.33H95v-.47c0-.68-.44-.87-1.39-.87a9.17,9.17,0,0,0-2.28.33l-.46-1.69a8.27,8.27,0,0,1,3.09-.62c2.37,0,3.32.67,3.32,2.4v3.4c0,.25.25.31.69.32l-.09,1.77h-.54c-.93,0-1.91-.15-2.12-.81a3.8,3.8,0,0,1-2.2.87C91.29,26.83,90.34,26,90.34,24.52Zm4.61.24V23.55l-1.15,0c-.69,0-1.19.24-1.19.8s.43.64.85.64A5.14,5.14,0,0,0,95,24.76Z" style="fill:#fff"/><path d="M102.45,19.05h7.27V26.7h-2.34V20.76h-2.59V26.7h-2.34Z" style="fill:#fff"/><path d="M111.59,19.05h2.33v.55a3.39,3.39,0,0,1,1.85-.74c2.1,0,3.37,1,3.37,3.67,0,3.19-2.06,4.31-4.28,4.31-.35,0-.66,0-.94-.05v3h-2.33Zm5.2,3.55c0-1.37-.55-1.78-1.72-1.78a3.87,3.87,0,0,0-1.15.21V25a7.59,7.59,0,0,0,1,.08C116.1,25.06,116.79,24,116.79,22.6Z" style="fill:#fff"/><path d="M120.06,23a3.78,3.78,0,0,1,4-4.09c2.72,0,3.93,1.53,3.93,4a3.74,3.74,0,0,1-4.06,4A3.57,3.57,0,0,1,120.06,23Zm5.56-.07c0-1.23-.3-2.17-1.59-2.17s-1.61.94-1.61,2.18.39,2.12,1.63,2.12S125.62,24.18,125.62,22.88Z" style="fill:#fff"/><path d="M128.92,22.81c0-2.38,1.6-3.95,4.19-3.95a4.91,4.91,0,0,1,2.44.53l-.6,1.7a4,4,0,0,0-1.74-.33c-1,0-1.89.44-1.89,2.08,0,1.47.35,2.15,2.18,2.15a8.07,8.07,0,0,0,1.63-.19l.32,1.78a8.07,8.07,0,0,1-2.07.28C130.14,26.86,128.92,25.67,128.92,22.81Z" style="fill:#fff"/><path d="M136.83,19.05h2.86l1.77,5.59,2-5.59h2.77V26.7H144V24.42l.07-2.1-1.45,4.38h-2.42l-1.32-4.42.12,2.14V26.7h-2.18Z" style="fill:#fff"/><path d="M147.57,23a3.78,3.78,0,0,1,4-4.09c2.72,0,3.93,1.53,3.93,4a3.74,3.74,0,0,1-4.06,4A3.57,3.57,0,0,1,147.57,23Zm5.56-.07c0-1.23-.3-2.17-1.59-2.17s-1.61.94-1.61,2.18.39,2.12,1.63,2.12S153.13,24.18,153.13,22.88Z" style="fill:#fff"/><path d="M158.55,20.78h-2.4V19.05h7.12v1.73h-2.39V26.7h-2.33Z" style="fill:#fff"/><path d="M164.39,19.05h2.32v.55a3.39,3.39,0,0,1,1.85-.74c2.1,0,3.38,1,3.38,3.67,0,3.19-2.06,4.31-4.29,4.31-.35,0-.66,0-.94-.05v3h-2.32Zm5.19,3.55c0-1.37-.54-1.78-1.72-1.78a4,4,0,0,0-1.15.21V25a7.92,7.92,0,0,0,1,.08C168.9,25.06,169.58,24,169.58,22.6Z" style="fill:#fff"/><path d="M172.79,24.52c0-1.94,1.76-2.33,3.27-2.33h1.33v-.47c0-.68-.43-.87-1.38-.87a9.25,9.25,0,0,0-2.29.33l-.46-1.69a8.33,8.33,0,0,1,3.1-.62c2.36,0,3.32.67,3.32,2.4v3.4c0,.25.25.31.68.32l-.08,1.77h-.55c-.92,0-1.9-.15-2.11-.81a3.8,3.8,0,0,1-2.2.87C173.74,26.83,172.79,26,172.79,24.52Zm4.6.24V23.55l-1.14,0c-.69,0-1.2.24-1.2.8s.44.64.86.64A5.07,5.07,0,0,0,177.39,24.76Z" style="fill:#fff"/></svg>