<svg xmlns="http://www.w3.org/2000/svg" viewBox="0 0 120.46 10.27"><title>H2</title><path d="M0,5.37c0-2,1.1-3.07,2.92-3.07a3.36,3.36,0,0,1,1.64.37l-.36,1A3.14,3.14,0,0,0,3,3.42c-1,0-1.61.49-1.61,1.91,0,1.09.37,1.7,1.78,1.7a5.59,5.59,0,0,0,1.16-.15l.19,1A5.25,5.25,0,0,1,3,8.15C.84,8.15,0,7.2,0,5.37Z" style="fill:#fff"/><path d="M8,2.44h5V8H11.64V3.48H9.4V8H8Z" style="fill:#fff"/><path d="M14.51,2.44h1.35v.42a2.53,2.53,0,0,1,1.58-.55c1.29,0,2.25.82,2.25,2.72a2.76,2.76,0,0,1-3,3.1c-.35,0-.63,0-.86-.05v2.19H14.51Zm3.8,2.64c0-1-.39-1.62-1.32-1.62a2.74,2.74,0,0,0-1.13.29V7a7.42,7.42,0,0,0,.84.08C17.81,7.07,18.31,6.24,18.31,5.08Z" style="fill:#fff"/><path d="M20.86,2.44h1.36v3l0,.82.53-.82,2.05-3h1.36V8H24.77V5.09l0-.82-.52.82L22.22,8H20.86Z" style="fill:#fff"/><path d="M27.3,5.37c0-2,1.1-3.07,2.92-3.07a3.36,3.36,0,0,1,1.64.37l-.36,1a3.14,3.14,0,0,0-1.2-.26c-1,0-1.61.49-1.61,1.91,0,1.09.37,1.7,1.78,1.7a5.42,5.42,0,0,0,1.15-.15l.2,1a5.25,5.25,0,0,1-1.51.22C28.14,8.15,27.3,7.2,27.3,5.37Z" style="fill:#fff"/><path d="M34.12,3.49h-1.8V2.44h5V3.49H35.48V8H34.12Z" style="fill:#fff"/><path d="M37.75,6.49c0-1.43,1.26-1.71,2.31-1.72h1.1V4.28c0-.64-.36-.81-1.12-.81a5.54,5.54,0,0,0-1.61.25l-.28-1a5.37,5.37,0,0,1,2.14-.41c1.47,0,2.2.48,2.2,1.67V6.69c0,.27.24.33.54.34l-.05,1h-.27c-.68,0-1.29-.14-1.43-.64a2.71,2.71,0,0,1-1.77.68A1.58,1.58,0,0,1,37.75,6.49Zm3.41.21V5.59l-1,0c-.64,0-1.05.27-1.05.76s.36.66.82.66A3.15,3.15,0,0,0,41.16,6.7Z" style="fill:#fff"/><path d="M44.08,2.44h2.49c1.2,0,1.91.52,1.91,1.49a1.2,1.2,0,0,1-.74,1.14,1.27,1.27,0,0,1,1,1.3c0,1-.85,1.66-2.15,1.66H44.08Zm2.06,2.31c.64,0,1-.21,1-.68s-.39-.66-1-.66h-.73V4.75Zm.17,2.3c.59,0,1-.17,1-.71s-.45-.72-1.15-.73h-.77V7.05Z" style="fill:#fff"/><path d="M49.93,2.44h1.36V5.1l2-2.66h1.47L52.6,5,55,8H53.35L51.29,5.18V8H49.93Z" style="fill:#fff"/><path d="M55.45,5.29a2.69,2.69,0,0,1,2.8-3C60.08,2.3,61,3.39,61,5.22a2.65,2.65,0,0,1-2.81,2.93A2.55,2.55,0,0,1,55.45,5.29Zm4.12,0c0-1-.26-1.86-1.36-1.86s-1.38.9-1.38,1.86.33,1.81,1.39,1.81S59.57,6.25,59.57,5.24Z" style="fill:#fff"/><path d="M62.12,2.44h1.36v3l0,.82L64,5.4l2.05-3h1.36V8H66V5.09l0-.82-.52.82L63.48,8H62.12ZM63,.62,63.56,0a1.52,1.52,0,0,0,1.19.6A1.52,1.52,0,0,0,66,0l.53.62a2,2,0,0,1-1.73,1A2,2,0,0,1,63,.62Z" style="fill:#fff"/><path d="M71.49.8h1.74l2.2,6.07L77.92.8h1.65V8h-1.4V4.52L78.23,3h0l-2,5H74.55L72.84,3h0l.08,1.43V8H71.49Z" style="fill:#fff"/><path d="M80.92,5.29a2.69,2.69,0,0,1,2.8-3c1.83,0,2.71,1.09,2.71,2.92a2.65,2.65,0,0,1-2.81,2.93A2.55,2.55,0,0,1,80.92,5.29Zm4.12,0c0-1-.26-1.86-1.36-1.86s-1.38.9-1.38,1.86.32,1.81,1.39,1.81S85,6.25,85,5.24Z" style="fill:#fff"/><path d="M86.91,2.44h1.46l1,3.34.32,1.14.35-1.15,1.14-3.33h1.42L90.53,8H88.85Z" style="fill:#fff"/><path d="M93.39,0h1.36V1.35H93.39Zm0,2.4h1.37V8H93.39Z" style="fill:#fff"/><path d="M97.63,5.17,95.75,2.44h1.57l1.09,1.87L99.5,2.44H101L99.17,5.16l2,2.87H99.57L98.41,6,97.22,8h-1.6Z" style="fill:#fff"/><path d="M104.66.8h2.64a2.36,2.36,0,0,1,2.62,2.45c0,1.37-1.07,2.52-3.15,2.52h-.71V8h-1.4Zm1.4,3.87h.77c1.09,0,1.63-.53,1.63-1.38a1.22,1.22,0,0,0-1.39-1.39h-1Z" style="fill:#fff"/><path d="M110.94,2.44h1.36v.75a1.91,1.91,0,0,1,1.5-.86,2.25,2.25,0,0,1,.72.09l-.19,1.13a3.23,3.23,0,0,0-.72-.06,1.75,1.75,0,0,0-1.31.63V8h-1.36Z" style="fill:#fff"/><path d="M115,5.29a2.69,2.69,0,0,1,2.8-3c1.83,0,2.71,1.09,2.71,2.92a2.64,2.64,0,0,1-2.81,2.93A2.55,2.55,0,0,1,115,5.29Zm4.12,0c0-1-.25-1.86-1.36-1.86s-1.38.9-1.38,1.86.33,1.81,1.39,1.81S119.07,6.25,119.07,5.24Z" style="fill:#fff"/></svg>