<svg xmlns="http://www.w3.org/2000/svg" viewBox="0 0 208.03 23.13"><title>H2_1000MOVIES</title><path d="M5.27,4.27H0V1.12H14.58V4.27H9.31V17.9h-4Z" style="fill:#fff"/><path d="M15.88,4.94h4V8.57H21.2c3.73,0,6,1.66,6,4.73a4.6,4.6,0,0,1-4.89,4.6H15.88Zm4,6.53V15h1.49c1.29,0,1.86-.59,1.86-1.73,0-1.33-.81-1.78-2.24-1.78ZM28.4,4.94h4v13h-4Z" style="fill:#fff"/><path d="M34.74,11.3c0-4,2.7-6.69,7.09-6.69a8.28,8.28,0,0,1,4.14.9l-1,2.87A6.74,6.74,0,0,0,42,7.83c-1.64,0-3.21.74-3.21,3.52,0,2.49.6,3.66,3.71,3.66a13.43,13.43,0,0,0,2.75-.34l.55,3a13.43,13.43,0,0,1-3.51.47C36.8,18.16,34.74,16.15,34.74,11.3Z" style="fill:#fff"/><path d="M46.7,17.9c.14-.16,3.35-4.39,3.49-4.63a4.07,4.07,0,0,1-2.11-3.7c0-3.06,2.44-4.63,5.48-4.63h5.63v13h-4V14.17H53.78l-2.5,3.73Zm8.52-6.62V7.83H54a1.73,1.73,0,0,0-1.88,1.74,1.9,1.9,0,0,0,2.09,1.71Z" style="fill:#fff"/><path d="M69.54,12.94a8.75,8.75,0,0,1-3.35.66c-3.34,0-4.74-1.3-4.74-4.79V4.94h3.94V8.55c0,1.66.71,2.09,1.8,2.09a5,5,0,0,0,2.35-.57V4.94h4v13h-4Z" style="fill:#fff"/><path d="M76.69,4.94h4v5.65l-.07,2,1.36-2,3.82-5.65h4v13h-4V12.32l.07-2.06-1.35,2.06L80.65,17.9h-4Z" style="fill:#fff"/><path d="M104.4,18.19c-4.44,0-6.8-2.59-6.8-6.65,0-4.27,2.71-6.91,6.8-6.93V0h3.87V4.61c4.6,0,6.79,2.58,6.79,6.81s-2.92,6.67-6.79,6.77v4.93H104.4Zm0-10.45c-2.17,0-2.81,1.59-2.81,3.7s.72,3.68,2.81,3.68ZM111,11.42c0-2.07-.64-3.63-2.75-3.68V15C110.38,15,111,13.63,111,11.42Z" style="fill:#fff"/><path d="M117.45,4.94h4v5.65l-.07,2,1.35-2,3.82-5.65h4v13h-4V12.32l.07-2.06-1.35,2.06-3.82,5.58h-4Z" style="fill:#fff"/><path d="M132.17,15.12a4.88,4.88,0,0,0,2.64-1.73c.47-.81.95-4,1.09-8.45h9.74v13h-4V7.83h-2.49c-.38,4.21-.93,6.8-1.76,8.05a6.46,6.46,0,0,1-4.25,2.4Z" style="fill:#fff"/><path d="M148.82,4.94h4V8.57h1.36c3.72,0,6.26,1.66,6.26,4.73,0,2.58-2.2,4.6-5.12,4.6h-6.46Zm4,6.53V15h1.5c1.28,0,2.09-.59,2.09-1.73,0-1.33-1.05-1.78-2.47-1.78Z" style="fill:#fff"/><path d="M162.42,4.94h4.84l3,9.47,3.32-9.47h4.7v13h-3.7V14l.12-3.56-2.45,7.43h-4.11l-2.23-7.5L166.1,14V17.9h-3.68Z" style="fill:#fff"/><path d="M180.63,11.54c0-4.3,2.68-6.93,6.79-6.93,4.61,0,6.67,2.58,6.67,6.81,0,4.42-2.89,6.77-6.88,6.77C182.93,18.19,180.63,15.6,180.63,11.54Zm9.43-.12c0-2.09-.52-3.68-2.71-3.68s-2.73,1.59-2.73,3.7S185.29,15,187.4,15,190.06,13.63,190.06,11.42Z" style="fill:#fff"/><path d="M196.47,4.94h6.43c2.76,0,4.49,1.19,4.49,3.56A2.71,2.71,0,0,1,205.77,11,2.86,2.86,0,0,1,208,14c0,2.52-2.21,3.92-5.13,3.92h-6.43Zm5,5.2c1.26,0,2.18-.29,2.18-1.24s-.71-1.25-1.85-1.25h-1.33v2.49Zm.62,5.06c1.18,0,1.94-.43,1.94-1.33s-.87-1.31-2.09-1.33h-1.47V15.2Z" style="fill:#fff"/></svg>