<svg xmlns="http://www.w3.org/2000/svg" viewBox="0 0 149.36 13.68"><title>H2_200_ch</title><path d="M0,10c1.57-1.11,6.65-3.8,6.65-5.41,0-1.12-1-1.42-2.35-1.42a10,10,0,0,0-3.18.61L.21,1A10.78,10.78,0,0,1,4.46,0c4.94,0,6.06,2.4,6.06,4.56,0,2.87-3.68,4.77-5.61,5.58h6.27V13.3H0Z" style="fill:#fff"/><path d="M12.49,7c0-4.27,2.35-7,7.33-7s6.82,2.75,6.82,6.51c0,4.82-2.73,7.07-7.22,7.07C14.67,13.58,12.49,11.37,12.49,7Zm10.14-.36c0-2.16-.93-3.37-2.95-3.37S16.5,4.58,16.5,6.91s1.35,3.42,3,3.42S22.63,9.14,22.63,6.62Z" style="fill:#fff"/><path d="M27.73,7c0-4.27,2.35-7,7.34-7s6.81,2.75,6.81,6.51c0,4.82-2.73,7.07-7.22,7.07C29.92,13.58,27.73,11.37,27.73,7Zm10.14-.36c0-2.16-.93-3.37-2.94-3.37s-3.19,1.33-3.19,3.66,1.36,3.42,3,3.42S37.87,9.14,37.87,6.62Z" style="fill:#fff"/><path d="M49.5.33h4V5.86L57.2.33h4.2L56.74,6.22l5.11,7.08H57.27l-3.8-5.87V13.3h-4Z" style="fill:#fff"/><path d="M62.75,9.59c0-3.27,3-3.94,5.56-3.94h2.25V4.84c0-1.14-.73-1.47-2.35-1.47a15.21,15.21,0,0,0-3.87.57l-.78-2.87a14.19,14.19,0,0,1,5.25-1c4,0,5.62,1.14,5.62,4.06V9.85c0,.43.43.53,1.17.55l-.15,3c-.31,0-.61,0-.92,0-1.57,0-3.23-.26-3.59-1.37a6.42,6.42,0,0,1-3.73,1.47C64.37,13.51,62.75,12.18,62.75,9.59Zm7.81.41V8L68.62,8c-1.17,0-2,.4-2,1.35,0,.76.73,1.1,1.45,1.1A8.38,8.38,0,0,0,70.56,10Z" style="fill:#fff"/><path d="M77.8.33h4v5H86.4v-5h4v13h-4v-5H81.77v5h-4Z" style="fill:#fff"/><path d="M92.6,9.59c0-3.27,3-3.94,5.55-3.94h2.26V4.84c0-1.14-.74-1.47-2.35-1.47a15.15,15.15,0,0,0-3.87.57L93.4,1.07a14.19,14.19,0,0,1,5.25-1c4,0,5.63,1.14,5.63,4.06V9.85c0,.43.42.53,1.16.55l-.14,3c-.31,0-.62,0-.93,0-1.57,0-3.23-.26-3.58-1.37a6.45,6.45,0,0,1-3.73,1.47C94.21,13.51,92.6,12.18,92.6,9.59Zm7.81.41V8l-2,0c-1.16,0-2,.4-2,1.35,0,.76.74,1.1,1.45,1.1A8.5,8.5,0,0,0,100.41,10Z" style="fill:#fff"/><path d="M106.15,10.52a5,5,0,0,0,2.64-1.74c.47-.8.95-4,1.09-8.45h9.73v13h-4V3.23h-2.49c-.38,4.2-.93,6.79-1.76,8a6.5,6.5,0,0,1-4.25,2.4Z" style="fill:#fff"/><path d="M122,6.93C122,2.64,124.65,0,128.75,0c4.61,0,6.68,2.59,6.68,6.81,0,4.42-2.9,6.77-6.89,6.77C124.27,13.58,122,11,122,6.93Zm9.43-.12c0-2.09-.52-3.68-2.71-3.68S126,4.72,126,6.84s.67,3.58,2.78,3.58S131.39,9,131.39,6.81Z" style="fill:#fff"/><path d="M137.8.33h6.43c2.76,0,4.49,1.19,4.49,3.56a2.7,2.7,0,0,1-1.61,2.54,2.87,2.87,0,0,1,2.25,3c0,2.52-2.21,3.92-5.13,3.92H137.8Zm5,5.2C144,5.53,145,5.25,145,4.3S144.23,3,143.09,3h-1.32V5.53Zm.62,5.06c1.19,0,2-.43,2-1.33s-.88-1.31-2.09-1.33h-1.47v2.66Z" style="fill:#fff"/></svg>