<svg xmlns="http://www.w3.org/2000/svg" viewBox="0 0 335.49 23.55"><title>H2_image</title><path d="M0,1.54H4v8.88l-.1,2.23,1.54-2.39,5.68-8.72h4V18.33h-4V9.45l.09-2.23L9.71,9.62,4,18.33H0Z" style="fill:#fff"/><path d="M17.64,17.45l1-2.94a9.5,9.5,0,0,0,3.68,1c.88,0,1.69-.38,1.69-1.19s-.81-1.14-1.76-1.14h-2V10.3h1.9c1.16,0,1.59-.59,1.59-1.14s-.57-1-1.55-1a9,9,0,0,0-3.27.74L18,6.13A11.19,11.19,0,0,1,22.89,5C26,5,27.66,6.7,27.66,8.48a3.13,3.13,0,0,1-1.85,3,3.23,3.23,0,0,1,2.44,3.25c0,1.81-1.59,3.85-5.53,3.85A12.13,12.13,0,0,1,17.64,17.45Z" style="fill:#fff"/><path d="M29.77,12c0-4.3,2.68-6.94,6.79-6.94,4.61,0,6.67,2.59,6.67,6.82,0,4.41-2.9,6.76-6.88,6.76C32.07,18.61,29.77,16,29.77,12Zm9.43-.12c0-2.09-.53-3.68-2.71-3.68s-2.73,1.59-2.73,3.7.66,3.59,2.78,3.59S39.2,14.06,39.2,11.85Z" style="fill:#fff"/><path d="M45.18,11.37c0-2.94.54-7,2.39-8.52C49,1.69,52.94.64,57,0l.59,3.49C54,4,51,4.44,50.09,5A3.18,3.18,0,0,0,49,7.48a8.46,8.46,0,0,1,4.25-1c3.32,0,5.15,1.64,5.15,5.32,0,4.67-3,6.74-7,6.74C47.69,18.59,45.18,16.36,45.18,11.37Zm9.23.69a2.25,2.25,0,0,0-2.54-2.54,7.21,7.21,0,0,0-3,.71c0,.31,0,1,0,1.33,0,2.73,1,3.92,2.81,3.92C53.79,15.48,54.41,13.7,54.41,12.06Z" style="fill:#fff"/><path d="M60.77,5.37h3.95v.92A5.75,5.75,0,0,1,67.85,5c3.56,0,5.72,1.64,5.72,6.22,0,5.42-3.49,7.32-7.26,7.32-.6,0-1.12-.07-1.59-.1v5.08H60.77Zm8.81,6c0-2.32-.92-3-2.92-3a6.92,6.92,0,0,0-1.94.35v6.7a13.11,13.11,0,0,0,1.68.14C68.42,15.55,69.58,13.79,69.58,11.37Z" style="fill:#fff"/><path d="M75,14.62c0-3.27,3-3.94,5.55-3.94h2.26v-.8c0-1.14-.74-1.48-2.35-1.48A15.21,15.21,0,0,0,76.61,9L75.82,6.1a14.28,14.28,0,0,1,5.25-1c4,0,5.63,1.14,5.63,4.06v5.77c0,.42.43.52,1.16.54l-.14,3c-.31,0-.62,0-.93,0-1.56,0-3.23-.26-3.58-1.38a6.35,6.35,0,0,1-3.73,1.47C76.63,18.54,75,17.21,75,14.62Zm7.81.41V13l-2,0c-1.16,0-2,.41-2,1.36,0,.76.74,1.09,1.45,1.09A8.5,8.5,0,0,0,82.83,15Z" style="fill:#fff"/><path d="M88.48,18.33l4.89-6.79L89.1,5.37h4.25l3.11,5.39V5.37h4v5.39l3.11-5.39h4.25l-4.27,6.17,4.82,6.79h-4.42l-3.49-5.46v5.46h-4V12.82L92.7,18.33Z" style="fill:#fff"/><path d="M109.23,12c0-5.3,2.73-7,6.64-7,4.09,0,5.7,2.66,5.7,6.57v1.43h-8.4c0,2,1.59,2.42,3.65,2.42a19.3,19.3,0,0,0,3.71-.52l.59,2.92a16.84,16.84,0,0,1-4.87.73C112,18.61,109.23,17.21,109.23,12Zm8.28-1.52c0-1.57-.64-2.66-1.92-2.66s-2.23,1-2.3,2.66Z" style="fill:#fff"/><path d="M123.92,5.37h4v5h4.63v-5h4v13h-4v-5h-4.63v5h-4Z" style="fill:#fff"/><path d="M139.66,5.37h4V11l-.08,2,1.36-2,3.82-5.65h4v13h-4V12.75l.07-2.07-1.35,2.07-3.82,5.58h-4Z" style="fill:#fff"/><path d="M155.12,12c0-5.3,2.73-7,6.64-7,4.09,0,5.7,2.66,5.7,6.57v1.43h-8.4c0,2,1.59,2.42,3.65,2.42a19.3,19.3,0,0,0,3.71-.52l.59,2.92a16.84,16.84,0,0,1-4.87.73C157.87,18.61,155.12,17.21,155.12,12Zm8.28-1.52c0-1.57-.64-2.66-1.92-2.66s-2.23,1-2.3,2.66Z" style="fill:#fff"/><path d="M175.29,5.37h6.44c2.75,0,4.49,1.18,4.49,3.56a2.72,2.72,0,0,1-1.62,2.54,2.86,2.86,0,0,1,2.26,2.94c0,2.52-2.21,3.92-5.13,3.92h-6.44Zm5,5.2c1.25,0,2.18-.29,2.18-1.24s-.71-1.26-1.85-1.26h-1.33v2.5Zm.61,5c1.19,0,1.95-.42,1.95-1.33s-.88-1.3-2.09-1.33h-1.47v2.66Z" style="fill:#fff"/><path d="M194.81,11.49V1.54h4.08v9.81c0,2.56,1.16,4,3.73,4s3.73-1.5,3.73-4.49V1.54h4v9.38c0,5.87-3.94,7.72-7.69,7.72S194.81,16.93,194.81,11.49Z" style="fill:#fff"/><path d="M213.54.43h4v17.9h-4Z" style="fill:#fff"/><path d="M221.42,14.29v-6h-1.9V5.37h1.9V2.71h3.94V5.37h4V8.29h-4v5.77c0,.94.36,1.25,1.43,1.25a12.79,12.79,0,0,0,2.8-.38L230,18a13.4,13.4,0,0,1-3.68.6C223.18,18.64,221.42,17.57,221.42,14.29Z" style="fill:#fff"/><path d="M232.2,5.37h4V7.1a4.62,4.62,0,0,1,3.35-2,5.67,5.67,0,0,1,1.78.22l-.52,3.25A7.43,7.43,0,0,0,239,8.43a4.27,4.27,0,0,0-2.88,1.11v8.79h-4Z" style="fill:#fff"/><path d="M242,14.62c0-3.27,3-3.94,5.56-3.94h2.25v-.8c0-1.14-.74-1.48-2.35-1.48a15.21,15.21,0,0,0-3.87.57l-.78-2.87a14.18,14.18,0,0,1,5.24-1c4,0,5.63,1.14,5.63,4.06v5.77c0,.42.43.52,1.16.54l-.14,3c-.31,0-.62,0-.93,0-1.56,0-3.22-.26-3.58-1.38a6.35,6.35,0,0,1-3.73,1.47C243.59,18.54,242,17.21,242,14.62Zm7.81.41V13l-1.95,0c-1.16,0-2,.41-2,1.36,0,.76.73,1.09,1.44,1.09A8.44,8.44,0,0,0,249.79,15Z" style="fill:#fff"/><path d="M262.89,1.54h4V8.36h7.12V1.54h4V18.33h-4V11.42h-7.12v6.91h-4Z" style="fill:#fff"/><path d="M282,1.54h6c5.82,0,9.81,2.5,9.81,8.34s-3.61,8.45-9.66,8.45H282Zm6.41,13.63c3.87,0,5.36-1.76,5.36-5.06,0-3.6-1.8-5.41-5.84-5.41H286V15.17Z" style="fill:#fff"/><path d="M315.41,14.91v3.42h-4V14.91h-7.21v-3L310,1.54h5.46V11.78h2.23v3.13Zm-4-9.88L308,11.78h3.44Z" style="fill:#fff"/><path d="M320.18,1.54h4v7.2L330,1.54h5.15L328.32,9.4l7.17,8.93h-5.15l-6.13-8.41v8.41h-4Z" style="fill:#fff"/></svg>