<svg xmlns="http://www.w3.org/2000/svg" viewBox="0 0 60 60"><title>Logo</title><path d="M0,0H60V60H0V.47C0,.31,0,.16,0,0" style="fill:#c02624"/><path d="M41.18,22.8v6.72c0,.15,0,.3,0,.44a1.47,1.47,0,0,1-1.29,1.52,31.13,31.13,0,0,1-5.76.91c-1.56.1-3.13.17-4.7.16a41.27,41.27,0,0,1-9.06-1,1.61,1.61,0,0,1-1.45-1.84c0-4.05,0-8.1,0-12.15,0-.7,0-1.41,0-2.11a1.31,1.31,0,0,1,1-1.27c.93-.23,1.87-.43,2.82-.59a45.73,45.73,0,0,1,7-.56,41.68,41.68,0,0,1,9.9,1,1.63,1.63,0,0,1,1.46,1.88V22.8m-1.24,0V15.82c0-.43,0-.5-.47-.61l-.75-.15a30,30,0,0,0-5.16-.72c-1.83-.09-3.68-.12-5.52-.08a37.28,37.28,0,0,0-7.35,1c-.52.12-.58.18-.58.7q0,6.91,0,13.82c0,.44.07.53.5.61,1.18.21,2.35.46,3.53.61,1.46.17,2.92.3,4.38.37a38.77,38.77,0,0,0,5.7-.15,42.78,42.78,0,0,0,5.27-.83c.39-.09.46-.19.46-.59v-7" style="fill:#fdfcfb;fill-rule:evenodd"/><path d="M15.73,43.52h.88A.41.41,0,0,1,17,44c0,.85,0,1.7,0,2.56,0,.35-.19.5-.54.5s-.65-.17-.67-.56,0-.63,0-.94v-.84H10a2.17,2.17,0,0,0,0,.25v1.52a.6.6,0,0,1-1.2.08c0-.88,0-1.76,0-2.64,0-.28.2-.39.47-.4.58,0,.76-.12.9-.68a7.37,7.37,0,0,0,.25-1.55c0-1,0-2,0-3.05s.1-1,1-1c1.25,0,2.49,0,3.74,0,.46,0,.65.23.65.71,0,1.75,0,3.48,0,5.22v.42m-4.4,0H14c.27,0,.37-.07.37-.37,0-1.52,0-3,0-4.57a2.32,2.32,0,0,0,0-.24H12.19c-.4,0-.47.07-.47.48,0,.78,0,1.57,0,2.35a5.55,5.55,0,0,1-.38,2.35" style="fill:#fdfcfb;fill-rule:evenodd"/><path d="M49.39,44a9.45,9.45,0,0,1-1.11.71,2.35,2.35,0,0,1-1.67.09,2.08,2.08,0,0,1-1.55-2c0-.27,0-.53-.05-.79v-4A1,1,0,0,1,46,37a1,1,0,0,1,1,1.1c0,1.29,0,2.58,0,3.87,0,.7.34,1,1,1a2,2,0,0,0,.75-.19.75.75,0,0,0,.48-.78c0-1.29,0-2.58,0-3.87A1,1,0,0,1,50.5,37a1,1,0,0,1,.86,1v4.14c0,.53,0,1,0,1.58a1.36,1.36,0,0,1,0,.29.9.9,0,0,1-1.36.77,1.27,1.27,0,0,1-.48-.47,1.06,1.06,0,0,1-.09-.36" style="fill:#fdfcfb;fill-rule:evenodd"/><path d="M31.21,40.19a2.46,2.46,0,0,1-.14.38c-.39.88-.79,1.74-1.19,2.62a.78.78,0,0,1-.74.56.8.8,0,0,1-.74-.57c-.45-1-.9-2-1.41-3V44.1a1.34,1.34,0,0,1,0,.35.67.67,0,0,1-1.3,0,1.71,1.71,0,0,1,0-.46c0-2,0-4.09,0-6.13a1.27,1.27,0,0,1,.18-.69.74.74,0,0,1,1.26.17c.35.74.72,1.47,1.08,2.21l1,2.09.27-.48,1.71-3.4a4.25,4.25,0,0,1,.35-.58A.6.6,0,0,1,32.2,37a.67.67,0,0,1,.49.59v6.69A.67.67,0,0,1,32,45a.69.69,0,0,1-.69-.75v-4l-.08,0" style="fill:#fdfcfb;fill-rule:evenodd"/><path d="M17.57,41.12a4.54,4.54,0,0,1,1-3.1,3.25,3.25,0,0,1,4.81,0,4.62,4.62,0,0,1-.23,5.91,3.19,3.19,0,0,1-4.49-.13,3.93,3.93,0,0,1-1.06-2.68m5.35-.21a3.62,3.62,0,0,0-.43-1.77,1.73,1.73,0,0,0-1.6-.92,1.65,1.65,0,0,0-1.57,1,3.67,3.67,0,0,0,.06,3.41,1.79,1.79,0,0,0,3,.19,3.18,3.18,0,0,0,.55-1.91" style="fill:#fdfcfb;fill-rule:evenodd"/><path d="M41.19,37.93l.23-.25a2,2,0,0,1,2.06-.59.93.93,0,0,1,.78,1.15,1,1,0,0,1-1.17.77,3.76,3.76,0,0,0-1.16,0,1,1,0,0,0-.74,1c0,1.31,0,2.62,0,3.93a1,1,0,0,1-.79,1,1,1,0,0,1-1.17-.64,2.28,2.28,0,0,1-.06-.64c0-1.83,0-3.66,0-5.49a.22.22,0,0,1,0-.08c0-.66.23-1,.71-1,.67-.07,1.14.15,1.27.75,0,0,0,0,0,.09" style="fill:#fdfcfb;fill-rule:evenodd"/><path d="M35.86,44.79a1.31,1.31,0,0,1-1.33-1.31,1.29,1.29,0,0,1,1.34-1.32,1.31,1.31,0,0,1,1.31,1.3,1.32,1.32,0,0,1-1.32,1.33" style="fill:#fdfcfb;fill-rule:evenodd"/><path d="M34,18.71a1.87,1.87,0,0,1,1.88-1.85,1.92,1.92,0,0,1,1.86,1.88,1.87,1.87,0,0,1-3.74,0" style="fill:#fdfcfb;fill-rule:evenodd"/></svg>