<svg xmlns="http://www.w3.org/2000/svg" viewBox="0 0 69.82 11.03"><title>Medium</title><path d="M4,1.68l-1.36.46.83,1.12-.64.48L2,2.56,1.16,3.74.5,3.26l.83-1.12L0,1.68.26.91l1.34.51L1.58,0h.83l0,1.42L3.72.91Z" style="fill:#fff"/><path d="M6.26,8.66H4.94V2.47h1.8L8.47,7.39h0l1.66-4.92H12V8.66H10.64V4.55h0L9.14,8.66H7.76L6.29,4.55h0Z" style="fill:#fff"/><path d="M18.85,2.47,16.56,8.54c0,.06-.07.18-.13.36s-.11.3-.13.36l-.14.34c-.07.16-.12.27-.16.34l-.18.28a1.18,1.18,0,0,1-.23.28l-.25.21a1.19,1.19,0,0,1-.3.18l-.36.1a2.72,2.72,0,0,1-.42,0,9.44,9.44,0,0,1-.95-.07V9.8a3.69,3.69,0,0,0,.72.09,1.09,1.09,0,0,0,.26,0,.62.62,0,0,0,.22-.15l.17-.19a1.14,1.14,0,0,0,.13-.25L14.92,9,15,8.72a1.21,1.21,0,0,0,.07-.24l-2.37-6h1.5L15.86,7l1.56-4.56Z" style="fill:#fff"/><path d="M25.15,6.91a1.57,1.57,0,0,1-.59,1.3,2.76,2.76,0,0,1-1.69.45H19.62V2.47H23a2,2,0,0,1,1.35.4A1.36,1.36,0,0,1,24.88,4a1.38,1.38,0,0,1-.22.8,1.65,1.65,0,0,1-.67.51v0A1.47,1.47,0,0,1,25.15,6.91ZM22.69,3.5H21V4.93h1.74c.53,0,.79-.25.79-.74S23.24,3.5,22.69,3.5Zm.18,2.43H21v1.7h1.88q.93,0,.93-.84a.82.82,0,0,0-.24-.63A.93.93,0,0,0,22.87,5.93Z" style="fill:#fff"/><path d="M28,8.66H26.29V2.47h1.37V7h0L30,2.47h1.73V8.66H30.37V4.15h0Z" style="fill:#fff"/><path d="M39,8.66H37.31l-2-2.77-.81.85V8.66H33.18V2.47h1.37V5.22L37,2.47h1.67L36.28,5Z" style="fill:#fff"/><path d="M45.24,6.32a2.72,2.72,0,0,1-2.84,2.5,2.89,2.89,0,0,1-2.22-.88,3.21,3.21,0,0,1-.83-2.31,3.42,3.42,0,0,1,.83-2.44,2.9,2.9,0,0,1,2.25-.91,2.94,2.94,0,0,1,1.92.6,2.44,2.44,0,0,1,.84,1.67H43.83a1.56,1.56,0,0,0-.47-.9,1.35,1.35,0,0,0-.92-.31,1.46,1.46,0,0,0-1.24.59,2.59,2.59,0,0,0-.46,1.63,2.54,2.54,0,0,0,.44,1.6,1.43,1.43,0,0,0,1.22.58,1.39,1.39,0,0,0,1-.37,1.79,1.79,0,0,0,.5-1Z" style="fill:#fff"/><path d="M51,8.66H49.63V2.47h5.45V8.66H53.71V3.55H51Z" style="fill:#fff"/><path d="M57.83,2.47V3.3a2.19,2.19,0,0,1,2-1,2.58,2.58,0,0,1,2.06.9,3.58,3.58,0,0,1,.76,2.4,3.51,3.51,0,0,1-.75,2.35,2.47,2.47,0,0,1-2,.88,2.32,2.32,0,0,1-2-1V11H56.54V2.47Zm1.74.93A1.51,1.51,0,0,0,58.31,4a2.5,2.5,0,0,0-.46,1.6,2.5,2.5,0,0,0,.46,1.58,1.55,1.55,0,0,0,1.28.58,1.5,1.5,0,0,0,1.24-.58,2.45,2.45,0,0,0,.45-1.56A2.54,2.54,0,0,0,60.82,4,1.48,1.48,0,0,0,59.57,3.4Z" style="fill:#fff"/><path d="M66.72,2.29A3,3,0,0,1,69,3.18a3.33,3.33,0,0,1,.84,2.39A3.34,3.34,0,0,1,69,8a3,3,0,0,1-2.26.89A3,3,0,0,1,64.42,8a3.31,3.31,0,0,1-.86-2.4,3.3,3.3,0,0,1,.86-2.39A3.06,3.06,0,0,1,66.72,2.29ZM68,4a1.54,1.54,0,0,0-1.27-.58A1.56,1.56,0,0,0,65.41,4a2.53,2.53,0,0,0-.47,1.61,2.57,2.57,0,0,0,.47,1.63,1.58,1.58,0,0,0,1.3.59A1.5,1.5,0,0,0,68,7.19a2.57,2.57,0,0,0,.47-1.63A2.53,2.53,0,0,0,68,4Z" style="fill:#fff"/></svg>