<svg enable-background="new 0 0 24.6 24.6" height="24.6" viewBox="0 0 24.6 24.6" width="24.6" xmlns="http://www.w3.org/2000/svg"><circle cx="12.3" cy="12.3" fill="none" r="10.8" stroke="#662d91" stroke-miterlimit="10" stroke-width="3"/><path d="m9.6 15.1.7-.8c.4.3 1 .6 1.6.6.7 0 1.3-.3 1.3-1 0-.6-.5-1-1.3-1-.5 0-.7.1-.8.1v-1.1h.5c.6 0 1.5-.2 1.5-.9 0-.6-.5-.8-1-.8-.6 0-1.2.2-1.6.5l-.7-.9c.4-.3 1.2-.7 2.2-.7 1.4 0 2.3.4 2.3 1.7 0 .6-.5 1.2-1 1.4.7.3 1.3.7 1.3 1.7 0 1.4-1.2 2.1-2.7 2.1-1-.1-1.9-.4-2.3-.9z" fill="#662d91"/></svg>