<svg enable-background="new 0 0 103.8 7.5" height="7.5" viewBox="0 0 103.8 7.5" width="103.8" xmlns="http://www.w3.org/2000/svg"><g fill="#662d91"><path d="m0 3.8c0-2.5 1.2-3.8 3.4-3.8.9 0 1.9.3 2.5 1l-.8.9c-.4-.5-.9-.7-1.6-.7-1.3 0-1.9.9-1.9 2.7 0 1.6.6 2.4 1.9 2.4.8 0 1.5-.2 2.1-.5l.3 1.1c-.7.4-1.7.6-2.6.6-2.3 0-3.3-1.3-3.3-3.7z"/><path d="m14.9.1v7.3h-1.5v-6.2h-.1l-1.4 6.2h-1.9l-1.4-6.2h-.1v6.2h-1.5v-7.3h2.6l1.4 6.2h.1l1.3-6.2h2.5z"/><path d="m19.6 0c2.4 0 3.2 1.5 3.2 3.8 0 2.5-1.1 3.7-3.5 3.7s-3.2-1.5-3.2-3.8c.1-2.5 1.2-3.7 3.5-3.7zm0 1.1c-1.5 0-2 1-2 2.7 0 1.4.4 2.5 1.7 2.5 1.5 0 2-1 2-2.7 0-1.3-.4-2.5-1.7-2.5z"/><path d="m28.9.1v1.2h-2.1v6.1h-1.5v-6.1h-2.1v-1.2z"/><path d="m29.7 7.4v-7.3h2.7c1.6 0 2.6.8 2.6 2.3s-1 2.4-2.4 2.4h-1.4v2.6zm2.7-3.8c.6 0 1.2-.3 1.2-1.3 0-.9-.6-1.1-1.2-1.1h-1.2v2.4z"/><path d="m40.9 6.3v1.2h-4.8v-7.4h4.7v1.2h-3.2v1.8h3.1v1.1h-3.1v2h3.3z"/><path d="m47.3.1v1.2h-2.1v6.1h-1.5v-6.1h-2.1v-1.2z"/><path d="m49.6.1v2.7h1.5c1.6 0 2.6.7 2.6 2.3s-.9 2.3-2.6 2.3h-2.9v-7.3zm0 3.8v2.4h1.4c.5 0 1.2-.2 1.2-1.2 0-.9-.6-1.2-1.2-1.2z"/><path d="m57.3 7.4v-7.3h4.6v1.2h-3.1v6.1z"/><path d="m66.6 7.4-.6-1.9h-2.7l-.6 1.9h-1.5l2.6-7.3h1.9l2.5 7.3zm-2-6.2-.9 3.1h2z"/><path d="m68.4 6.1h.3c.6 0 .8-.6 1-2.1.1-1 .1-3.1.1-3.9h4.9v7.3h-1.5v-6.1h-2c0 .6-.1 2-.2 3.3-.2 2-.7 2.9-2 2.9-.2 0-.5 0-.7-.1z"/><path d="m81 6.3v1.2h-4.8v-7.4h4.7v1.2h-3.2v1.8h3.1v1.1h-3.1v2h3.3z"/><path d="m82.4 7.4v-7.3h2.7c1.6 0 2.6.8 2.6 2.3s-1 2.4-2.4 2.4h-1.4v2.6zm2.6-3.8c.6 0 1.2-.3 1.2-1.3 0-.9-.6-1.1-1.2-1.1h-1.2v2.4z"/><path d="m93.5 6.3v1.2h-4.8v-7.4h4.7v1.2h-3.2v1.8h3.1v1.1h-3.1v2h3.3z"/><path d="m96.4 7.4h-1.5v-7.3h1.5v3.1h1.1c.2-2.1 1.2-3.2 3.3-3.2 2.2 0 3.1 1.5 3.1 3.8 0 2.5-1.1 3.7-3.3 3.7-2.1 0-2.9-1.2-3-3.2h-1.1v3.1zm4.3-6.3c-1.4 0-1.9.9-1.9 2.7 0 1.5.4 2.5 1.6 2.5 1.4 0 1.9-.9 1.9-2.7 0-1.4-.4-2.5-1.6-2.5z"/></g></svg>