<svg enable-background="new 0 0 98.7 24.3" height="24.3" viewBox="0 0 98.7 24.3" width="98.7" xmlns="http://www.w3.org/2000/svg"><g fill="#fff"><path d="m17.5 0c2.4 0 3.2 1.5 3.2 3.8 0 2.5-1.1 3.7-3.5 3.7s-3.2-1.5-3.2-3.8c.1-2.5 1.2-3.7 3.5-3.7zm0 1.1c-1.5 0-2 1-2 2.7 0 1.4.4 2.5 1.7 2.5 1.5 0 2-1 2-2.7 0-1.3-.4-2.5-1.7-2.5z"/><path d="m26.9 8.8h-1.2v-1.4h-3.4v1.4h-1.3v-2.4h.5c.5-1 .6-2.3.6-4h4v4h.7v2.4zm-2.2-2.4v-3h-1.3c-.1 1.1-.2 2.2-.5 3z"/><path d="m30.6 2.3h1.4v5.1h-1.4v-2h-1.6v2h-1.4v-5.1h1.4v2h1.6z"/><path d="m33 4.9c0-1.8.8-2.6 2.7-2.6s2.4 1 2.4 2.7c0 1.8-.8 2.6-2.7 2.6-1.8-.1-2.4-1.1-2.4-2.7zm3.7-.1c0-.9-.2-1.6-1-1.6-.9 0-1.2.6-1.2 1.8 0 .9.2 1.6 1 1.6.9 0 1.2-.6 1.2-1.8z"/><path d="m41.7 7.4v-5.1h1.4v2h.3l1.6-2h1.5l-2 2.4 2.1 2.6h-1.6l-1.6-2h-.3v2h-1.4z"/><path d="m51.7 7.4c-.1 0-.3 0-.5 0-.6 0-.9-.2-1.2-.5-.4.3-1 .6-1.5.6-1.5 0-1.7-.8-1.7-1.6 0-1.3.9-1.6 2.3-1.6h.7v-.2c0-.5-.3-.8-1-.8-.6 0-1.1.2-1.5.4l-.3-1c.5-.3 1.4-.5 2.2-.5 1.6 0 2.1.5 2.1 2.1v1.6c0 .4.2.5.5.5v1zm-3.5-1.5c0 .4.1.7.6.7.3 0 .6-.1.9-.3v-1c-.3 0-.5 0-.7 0-.6-.1-.8.2-.8.6z"/><path d="m56.6 7.1c-.4.3-1.1.5-1.9.5-1.9 0-2.5-.9-2.5-2.6 0-1.8 1-2.7 2.7-2.7.8 0 1.5.3 1.8.7l-.8.8c-.3-.3-.6-.5-1-.5-.9 0-1.3.5-1.3 1.7 0 1 .3 1.6 1.2 1.6.6 0 1-.1 1.5-.4z"/><path d="m62.1 7.4c-.1 0-.3 0-.5 0-.6 0-.9-.2-1.2-.5-.4.3-1 .6-1.5.6-1.5 0-1.7-.8-1.7-1.6 0-1.3.9-1.6 2.3-1.6h.7v-.2c0-.5-.3-.8-1-.8-.6 0-1.1.2-1.5.4l-.3-.9c.5-.3 1.4-.5 2.2-.5 1.6 0 2.1.5 2.1 2.1v1.6c0 .4.2.5.5.5v.9zm-3.5-1.5c0 .4.1.7.6.7.3 0 .6-.1.9-.3v-1c-.3 0-.5 0-.7 0-.6-.1-.8.2-.8.6z"/><path d="m65.8 2.3h1.4v5.1h-1.4v-2h-1.6v2h-1.4v-5.1h1.4v2h1.6z"/><path d="m71.2 2.3h2v5.1h-1.4v-3.9h-.1l-1.4 3.9h-2v-5.1h1.4v3.9h.1z"/><path d="m74.2 4.8c0-1.8.8-2.6 2.5-2.6 1.9 0 2.2 1.1 2.2 2.5v.5h-3.3c0 .3.1.6.2.9.2.3.6.4 1.2.4.8 0 1.2-.2 1.6-.4l.3.9c-.4.3-1.3.5-2.1.5-1.9 0-2.6-.9-2.6-2.7zm3.3-.5c0-.7-.2-1.1-.8-1.1s-.9.3-1 .9v.2z"/><path d="m79.5 8.6c.6-.9.6-1.7.6-2.6h1.3c0 1.5-.3 2.3-1 3.1z"/><path d="m3 16.7h1.4v5.1h-1.4v-1.8c-.4.2-.9.2-1.2.2-1.1 0-1.7-.5-1.7-1.6v-1.9h1.4v1.6c0 .6.2.8.7.8.3 0 .5 0 .8-.1z"/><path d="m5 17.8v-1.1h4.5v1.1h-1.5v4h-1.4v-4z"/><path d="m9.9 19.3c0-1.8.8-2.6 2.7-2.6s2.4 1 2.4 2.7c0 1.8-.8 2.6-2.7 2.6-1.8-.1-2.4-1.1-2.4-2.7zm3.6-.1c0-.9-.2-1.6-1-1.6-.9 0-1.2.6-1.2 1.8 0 .9.2 1.6 1 1.6 1 0 1.2-.6 1.2-1.8z"/><path d="m18.4 14.5c1.2-.2 1.6-.3 2-.4l.3 1.2c-.5.2-1.2.3-2.1.4-1.1.2-1.5.6-1.6 2 .4-.7 1.2-1 1.8-1 1.6 0 2.2 1 2.2 2.6 0 1.7-.8 2.6-2.7 2.6-1.7 0-2.4-.9-2.4-3.4-.1-2.4.4-3.7 2.5-4zm1.1 4.8c0-.8-.2-1.6-1-1.6-.9 0-1.2.6-1.2 1.7 0 .8.2 1.6 1 1.6.9 0 1.2-.6 1.2-1.7z"/><path d="m24.5 18.5c1 0 1.8.5 1.8 1.7s-.8 1.7-2 1.7h-2.4v-5.1h1.4v1.7zm-.4 2.3c.5 0 .7-.2.7-.7 0-.4-.3-.7-.7-.7h-.8v1.4zm2.8-4.1h1.4v5.1h-1.4z"/><path d="m35.2 16.7h1.4v5.1h-1.4v-2h-1.6v2h-1.4v-5.1h1.4v2h1.6z"/><path d="m42.4 21.8c-.1 0-.3 0-.5 0-.6 0-.9-.2-1.2-.5-.4.3-1 .6-1.5.6-1.5 0-1.7-.8-1.7-1.6 0-1.3.9-1.6 2.3-1.6h.7v-.2c0-.5-.3-.8-1-.8-.6 0-1.1.2-1.5.4l-.3-.9c.5-.3 1.4-.5 2.2-.5 1.6 0 2.1.5 2.1 2.1v1.6c0 .4.2.5.5.5v.9zm-3.4-1.5c0 .4.1.7.6.7.3 0 .6-.1.9-.3v-1c-.3 0-.5 0-.7 0-.6-.1-.8.2-.8.6z"/><path d="m45.9 16.7h1.4v5.1h-1.4v-1.8c-.4.2-.9.2-1.2.2-1.1 0-1.7-.5-1.7-1.6v-1.9h1.4v1.6c0 .6.2.8.7.8.3 0 .5 0 .8-.1z"/><path d="m53.1 21.8c-.1 0-.3 0-.5 0-.6 0-.9-.2-1.2-.5-.4.3-1 .6-1.5.6-1.5 0-1.7-.8-1.7-1.6 0-1.3.9-1.6 2.3-1.6h.7v-.2c0-.5-.3-.8-1-.8-.6 0-1.1.2-1.5.4l-.3-.9c.5-.3 1.4-.5 2.2-.5 1.6 0 2.1.5 2.1 2.1v1.6c0 .4.2.5.5.5v.9zm-3.4-1.5c0 .4.1.7.6.7.3 0 .6-.1.9-.3v-1c-.3 0-.5 0-.7 0-.6-.1-.8.2-.8.6z"/><path d="m53.3 17.8v-1.1h4.5v1.1h-1.5v4h-1.4v-4z"/><path d="m61.1 18.5c1 0 1.8.5 1.8 1.7s-.8 1.7-2 1.7h-2.6v-5.1h1.4v1.7zm-.4 2.3c.5 0 .7-.2.7-.7 0-.4-.3-.7-.7-.7h-.9v1.4z"/><path d="m67.5 16.7.1.3c.2-.1.3-.2.5-.3.3-.1.6-.2.9-.2 1.5 0 2.1 1 2.1 2.5 0 1.6-.7 2.8-2.4 2.8-.2 0-.5 0-.7-.1-.1 0-.2 0-.2-.1v2.4l-1.4.2v-6.2l-.1-1.4h1.2zm.9 4.2c.7 0 1.2-.4 1.2-1.7 0-1.1-.4-1.6-1.1-1.6-.2 0-.4.1-.6.2l-.1.1v2.9c.1 0 .1.1.2.1z"/><path d="m76.7 21.8c-.1 0-.3 0-.5 0-.6 0-.9-.2-1.2-.5-.4.3-1 .6-1.5.6-1.5 0-1.7-.8-1.7-1.6 0-1.3.9-1.6 2.3-1.6h.7v-.2c0-.5-.3-.8-1-.8-.6 0-1.1.2-1.5.4l-.3-1c.5-.3 1.4-.5 2.2-.5 1.6 0 2.1.5 2.1 2.1v1.6c0 .4.2.5.5.5v1zm-3.4-1.5c0 .4.1.7.6.7.3 0 .6-.1.9-.3v-1c-.3 0-.5 0-.7 0-.6-.1-.8.2-.8.6z"/><path d="m79.9 14.5c1.2-.2 1.6-.3 2-.4l.3 1.2c-.5.2-1.2.3-2.1.4-1.1.2-1.5.6-1.6 2 .4-.7 1.2-1 1.8-1 1.6 0 2.2 1 2.2 2.6 0 1.7-.8 2.6-2.7 2.6-1.7 0-2.4-.9-2.4-3.4-.1-2.4.3-3.7 2.5-4zm1.1 4.8c0-.8-.2-1.6-1-1.6-.9 0-1.2.6-1.2 1.7 0 .8.2 1.6 1 1.6.9 0 1.2-.6 1.2-1.7z"/><path d="m83.2 19.3c0-1.8.8-2.6 2.7-2.6s2.4 1 2.4 2.7c0 1.8-.8 2.6-2.7 2.6-1.9-.1-2.4-1.1-2.4-2.7zm3.6-.1c0-.9-.2-1.6-1-1.6-.9 0-1.2.6-1.2 1.8 0 .9.2 1.6 1 1.6 1 0 1.2-.6 1.2-1.8z"/><path d="m88.7 17.8v-1.1h4.5v1.1h-1.5v4h-1.4v-4z"/><path d="m93.5 16.7h1.6l1 3.4h.1l1-3.4h1.5l-2 5.5c-.5 1.3-1 2.1-2.4 2.1-.2 0-.5 0-.7-.1l.2-1h.4c.5 0 .7-.2.9-.4s.4-.7.5-1.2z"/></g></svg>