<svg enable-background="new 0 0 191 44.5" height="44.5" viewBox="0 0 191 44.5" width="191" xmlns="http://www.w3.org/2000/svg"><path d="m183.9 44.5h-176.8c-3.9 0-7.1-3.2-7.1-7.1v-30.3c0-3.9 3.2-7.1 7.1-7.1h176.9c3.9 0 7.1 3.2 7.1 7.1v30.4c-.1 3.8-3.3 7-7.2 7z" fill="#ea0041"/><g fill="#fff"><path d="m35.6 25 4.1-9.8h1.2l-4.9 11.5c-.9 2.1-1.5 3.2-3.7 3.2-.6 0-1.2-.1-1.4-.3l.2-1c.4.1.7.2 1.1.2 1.5 0 2.1-.7 2.7-2.4l-5.1-11.3h1.3l4.3 9.8h.2z"/><path d="m40.8 29.3.3-.8c.7.3 1.6.6 3.1.6 2.1 0 3.3-.6 3.3-2.2 0-1.3-1.1-1.8-2.7-1.8h-1.9v-1h1.8c1.7 0 2.4-.8 2.4-1.8 0-1.3-1.1-1.9-2.5-1.9-1.3 0-2.2.4-2.9.9l-.7-.7c.8-.8 2-1.2 3.6-1.2 2.4 0 3.7 1 3.7 2.7 0 1.3-.7 2.1-1.7 2.4 1 .3 2 .8 2 2.5 0 2-1.8 3-4.3 3-1.9 0-2.9-.4-3.5-.7z"/><path d="m57.9 19.6h1.1v10.2h-1.1v-4.7h-5.7v4.7h-1.1v-10.2h1.1v4.5h5.7z"/><path d="m70 29.9c-.1 0-.2 0-.4 0-.9 0-1.3-.5-1.5-1.2-.7.6-1.9 1.3-3.8 1.3-2.2 0-3.1-1.2-3.1-3.1 0-2.4 1.8-3 4.2-3h.7c.6 0 1.1.1 1.8.1v-.5c0-2.5-.4-3.2-2.7-3.2-1.2 0-2.5.5-3.2.8l-.3-.9c1-.5 2.3-.9 3.8-.9 2.6 0 3.5 1.1 3.5 4.1v3.9c0 1.2.3 1.5.9 1.5v1.1zm-7.5-3c0 1.5.7 2.2 2.4 2.2 1.2 0 2.4-.7 3.2-1.3v-2.7c-.9-.1-1.7-.1-2.7-.1-2.2-.1-2.9.6-2.9 1.9z"/><path d="m70.8 20.6v-1h7.9v1h-3.4v9.2h-1.1v-9.2z"/><path d="m85.3 23.5c1.9 0 3.4 1 3.4 3 0 2.1-1.3 3.2-3.4 3.2h-4.6v-10.1h1.1v3.9zm0 5.3c1.4 0 2.3-.7 2.3-2.3 0-1.4-.9-2.1-2.3-2.1h-3.5v4.3h3.5z"/><path d="m95.3 23.4c0-4.8.9-7.6 4.9-8.4 1.4-.3 2.3-.3 3.2-.6l.3 1c-.7.3-1.8.4-3.3.6-3.1.6-3.8 2.5-4.1 5.6.6-1.6 2.1-2.1 4-2.1 3 0 4.1 2 4.1 5.3 0 3.5-1.5 5.1-4.8 5.1-3.1.1-4.3-1.6-4.3-6.5zm8 1.3c0-2.2-.6-4.1-3.2-4.1-2.8 0-3.6 1.6-3.6 4.1 0 2.4.8 4.3 3.1 4.3 2.8.1 3.7-1.5 3.7-4.3z"/><path d="m106.2 24.7c0-3.6 1.5-5.3 4.8-5.3s4.3 2 4.3 5.4c0 3.6-1.5 5.3-4.8 5.3-3.3-.1-4.3-2.1-4.3-5.4zm8-.1c0-2.3-.6-4.2-3.2-4.2-2.8 0-3.7 1.6-3.7 4.5 0 2.4.6 4.2 3.2 4.2 2.8 0 3.7-1.6 3.7-4.5z"/><path d="m116.1 28.9c.2.1.4.1.6.1 1 0 1.5-1.5 1.7-5 .1-1.4.1-3.1.2-4.3h6.4v10.2h-1.1v-9.2h-4.3c-.1 1 0 2.4-.2 4.1-.3 3.4-.9 5.2-2.5 5.2-.4 0-.7 0-1-.1z"/><path d="m132.7 23.5c1.9 0 3.4 1 3.4 3 0 2.1-1.3 3.2-3.4 3.2h-4.7v-10.1h1.1v3.9zm-.1 5.3c1.4 0 2.3-.7 2.3-2.3 0-1.4-.9-2.1-2.3-2.1h-3.5v4.3h3.5z"/><path d="m143.8 19.6h1.1v9.2h4.4v-9.2h1.1v10.2h-12.1v-10.2h1.1v9.2h4.4z"/><path d="m152.8 24.6c0-3.6 1.5-5.3 4.5-5.3 3.2 0 3.9 2.1 3.9 4.9v.8h-7.2c0 .8.1 1.4.2 1.9.5 1.7 1.6 2.2 3.3 2.2 1.3 0 2.6-.5 3.2-.8l.4.8c-.6.4-2.2.9-3.7.9-3.5 0-4.6-1.7-4.6-5.4zm7.2-.5c0-2.9-1.2-3.7-2.8-3.7-1.2 0-2.1.4-2.6 1.1-.4.6-.7 1.5-.7 2.6z"/></g></svg>