<svg enable-background="new 0 0 75.6 7.3" height="7.3" viewBox="0 0 75.6 7.3" width="75.6" xmlns="http://www.w3.org/2000/svg"><g fill="#fff"><path d="m2.5.3-.8 1 1.3-.2v.6l-1.3-.1.8 1-.5.3-.5-1.2-.6 1.2-.5-.3.8-1-1.2.1v-.5l1.2.2-.8-1 .5-.4.5 1.2.6-1.2z"/><path d="m4.2 2.5h2.6c-.1-1.1-.8-1.9-1.9-1.9-.4 0-.8.1-1.2.3l-.2-.6c.4-.2.9-.3 1.4-.3 1.8 0 2.7 1.3 2.7 2.9 0 1.8-1.2 2.9-2.7 2.9-.6 0-1.1-.1-1.5-.3l.2-.6c.3.1.8.3 1.2.3 1.2 0 2-.9 2-2.1h-2.6z"/><path d="m11.5 1.7v4h-.7v-3.5h-1.4v1c0 1.1-.1 1.9-.6 2.2-.2.2-.4.3-.8.3l-.1-.5c.1 0 .3-.1.4-.2.4-.3.4-.8.4-1.7v-1.6z"/><path d="m16.5.1v5h.5v1.9h-.6v-1.3h-3.5v1.3h-.6v-1.9h.4c.2-.4.4-.8.5-1.2.2-.6.3-1.4.3-2.4v-1.4zm-2.4 1.6c0 .9-.1 1.6-.3 2.3-.1.4-.3.8-.5 1.1h2.5v-4.4h-1.7z"/><path d="m18.3 1.7 1.3 1.7h.1v-1.7h.7v1.7h.1l1.5-1.7h.8l-1.6 1.8c.6.1 1 .4 1.2 1.1.1.4.3.8.4 1.1h-.7c-.1-.2-.2-.6-.4-.9-.2-.7-.6-.9-1.1-.9h-.1v1.8h-.7v-1.8h-.1c-.6 0-.9.2-1.2.9-.1.3-.2.7-.4.9h-.7c.2-.3.3-.7.4-1.1.2-.6.6-1 1.2-1.1l-1.6-1.8z"/><path d="m24.2 1.7v1.7 1.6c.2-.5.4-.8.6-1.2l1.3-2.1h.9v4h-.7v-1.7c0-.7 0-1 0-1.6-.3.5-.4.8-.7 1.2-.4.6-.8 1.4-1.3 2.1h-.8v-4z"/><path d="m30.6.1v2.5h.2l1.9-2.5h.9l-2.1 2.6c.9.1 1.3.7 1.6 1.4.2.6.4 1.1.6 1.6h-.8c-.2-.4-.4-.9-.5-1.3-.3-.7-.6-1.2-1.6-1.2h-.2v2.6h-.7v-5.7z"/><path d="m38 3.6c0 1.5-1 2.1-2 2.1-1.1 0-1.9-.8-1.9-2.1s.9-2.1 2-2.1c1.1.1 1.9.9 1.9 2.1zm-3.2.1c0 .9.5 1.5 1.2 1.5s1.2-.7 1.2-1.6c0-.7-.3-1.5-1.2-1.5-.8 0-1.2.8-1.2 1.6z"/><path d="m38.9 3c0-.5 0-.9 0-1.3h.7v.7c.3-.5.8-.8 1.4-.8 1 0 1.7.8 1.7 2 0 1.4-.9 2.2-1.8 2.2-.5 0-1-.2-1.2-.6v2.2h-.7v-4.4zm.7 1v.3c.1.5.6.9 1.1.9.8 0 1.2-.6 1.2-1.5 0-.8-.4-1.5-1.2-1.5-.5 0-1 .4-1.1.9v.3z"/><path d="m46.7 1.7v3.5h.4v1.8h-.6v-1.3h-2.8v1.3h-.7v-1.8h.3c.2-.3.3-.5.4-.8.2-.5.2-1 .2-1.6v-1h2.8zm-2.1 1.2c0 .5-.1 1-.2 1.5-.1.3-.2.5-.3.7h1.8v-2.9h-1.3z"/><path d="m47.7.4c.4-.2.9-.4 1.5-.4 1 0 1.6.5 1.6 1.4 0 .7-.5 1.2-1.2 1.4.8.1 1.4.6 1.4 1.4 0 1.2-1 1.6-2 1.6-.5 0-1-.1-1.5-.4l.2-.6c.4.2.9.4 1.3.4.8 0 1.3-.4 1.3-1.1 0-.8-.8-1.1-1.5-1.1h-.3v-.5h.3c.7 0 1.3-.5 1.3-1 0-.6-.4-.9-1-.9-.4 0-.9.2-1.2.4z"/><path d="m52.4 3.8c0 1 .6 1.4 1.4 1.4.5 0 .8-.1 1.1-.2l.1.5c-.3.1-.7.3-1.3.3-1.2 0-2-.8-2-2s.7-2.2 1.9-2.2c1.3 0 1.7 1.2 1.7 1.9v.3zm2.2-.5c0-.5-.2-1.2-1-1.2-.7 0-1.1.7-1.1 1.2z"/><path d="m56.2 3c0-.5 0-.9 0-1.3h.7v.7c.3-.5.8-.8 1.4-.8 1 0 1.7.8 1.7 2 0 1.4-.9 2.2-1.8 2.2-.5 0-1-.2-1.2-.6v2.2h-.7v-4.4zm.7 1v.3c.1.5.6.9 1.1.9.8 0 1.2-.6 1.2-1.5 0-.8-.4-1.5-1.2-1.5-.5 0-1 .4-1.1.9v.3z"/><path d="m64.5 3.6c0 1.5-1 2.1-2 2.1-1.1 0-1.9-.8-1.9-2.1s.9-2.1 2-2.1c1.2.1 1.9.9 1.9 2.1zm-3.1.1c0 .9.5 1.5 1.2 1.5s1.2-.7 1.2-1.6c0-.7-.3-1.5-1.2-1.5s-1.2.8-1.2 1.6z"/><path d="m68.1 3.9-.6 1.8h-.7l1.9-5.6h.9l1.9 5.6h-.8l-.6-1.8zm1.9-.5-.5-1.6c-.1-.4-.2-.7-.3-1-.1.3-.2.7-.3 1l-.5 1.6z"/><path d="m72.5 5.2h.6c.4-.1.8-.2 1.1-.5.4-.3.6-.8.7-1.4-.3.4-.7.6-1.3.6-1 0-1.6-.7-1.6-1.6 0-1 .7-1.9 1.8-1.9s1.8.9 1.8 2.3c0 1.2-.4 2-.9 2.5-.4.4-1 .7-1.6.7-.3 0-.5 0-.7 0v-.7zm1.3-4.4c-.6 0-1.1.5-1.1 1.3 0 .7.4 1.1 1 1.1.5 0 .9-.2 1.1-.6 0-.1.1-.1.1-.3 0-.8-.3-1.5-1.1-1.5z"/></g></svg>