<svg xmlns="http://www.w3.org/2000/svg" viewBox="0 0 53 22"><title>A15</title><rect width="53" height="22" rx="3.38" style="fill:#f7582b"/><path d="M23.05,17.3a1.35,1.35,0,0,1-.45,1.05,1.51,1.51,0,0,1-1,.4,1.57,1.57,0,0,1-1.08-.32A1.83,1.83,0,0,1,20,17.6l-.71-2.18H13.16l-.7,2.16a1.85,1.85,0,0,1-.54.83,1.46,1.46,0,0,1-1.05.34,1.56,1.56,0,0,1-1.13-.44,1.39,1.39,0,0,1-.49-1.1,1.53,1.53,0,0,1,.06-.45,1.19,1.19,0,0,1,.09-.27L13.85,4.43a3.38,3.38,0,0,1,.9-1.3,2.22,2.22,0,0,1,1.45-.52,2.14,2.14,0,0,1,1.46.52,3,3,0,0,1,.88,1.3l4.34,12.06A3.29,3.29,0,0,1,23,17,2.14,2.14,0,0,1,23.05,17.3ZM16.23,6h-.05l-2.07,6.34h4.15Z" style="fill:#fefefe"/><path d="M29.67,17a1.65,1.65,0,0,1-.47,1.27,1.62,1.62,0,0,1-1.16.44A1.57,1.57,0,0,1,26.39,17V5.91h-1.3A1.33,1.33,0,0,1,24,5.44a1.71,1.71,0,0,1-.34-1.05,1.63,1.63,0,0,1,.39-1,1.37,1.37,0,0,1,1.09-.47h3.12a1.32,1.32,0,0,1,1.07.45,1.64,1.64,0,0,1,.39,1.11Z" style="fill:#fefefe"/><path d="M42.49,12.68a8.11,8.11,0,0,1-.36,2.5A5,5,0,0,1,41,17.08a4.81,4.81,0,0,1-1.82,1.23,6.38,6.38,0,0,1-2.5.44,6.11,6.11,0,0,1-1.41-.19A8.32,8.32,0,0,1,33.69,18a5,5,0,0,1-1.28-.93,1.77,1.77,0,0,1-.54-1.28,1.47,1.47,0,0,1,1.48-1.48,1.46,1.46,0,0,1,.71.22c.24.14.5.3.77.49a7.62,7.62,0,0,0,.9.47,2.55,2.55,0,0,0,1,.21,1.94,1.94,0,0,0,1-.25,2.09,2.09,0,0,0,.75-.67,3.25,3.25,0,0,0,.43-.92,3.45,3.45,0,0,0,.15-1,2.37,2.37,0,0,0-.54-1.61,2,2,0,0,0-1.58-.6,2.33,2.33,0,0,0-.77.11,2.82,2.82,0,0,0-.58.26c-.17.08-.35.16-.54.23a1.9,1.9,0,0,1-.68.11,1.25,1.25,0,0,1-1-.37,1.11,1.11,0,0,1-.32-.66c0-.14,0-.27,0-.38s0-.24,0-.37L33.71,5a5.37,5.37,0,0,1,.2-1,1.69,1.69,0,0,1,.34-.64A1,1,0,0,1,34.74,3a2.26,2.26,0,0,1,.69-.09h5.28a1.66,1.66,0,0,1,1.18.41,1.28,1.28,0,0,1,.41,1,2,2,0,0,1-.17.9,1.43,1.43,0,0,1-.45.49,1.28,1.28,0,0,1-.5.22,2.31,2.31,0,0,1-.4,0H36.65l-.32,2.31.81-.15A5.69,5.69,0,0,1,38,8a4.51,4.51,0,0,1,1.82.36,5.41,5.41,0,0,1,1.44,1,4.82,4.82,0,0,1,.94,1.5A5.17,5.17,0,0,1,42.49,12.68Z" style="fill:#fefefe"/></svg>