<svg xmlns="http://www.w3.org/2000/svg" viewBox="0 0 131 32"><title>Butt</title><rect width="131" height="32" rx="5.72" style="fill:#69ba44"/><path d="M12.67,9.79a1.12,1.12,0,0,1,.39-.85,3.41,3.41,0,0,1,1-.54,6.55,6.55,0,0,1,1.25-.32A10.44,10.44,0,0,1,16.43,8a4.52,4.52,0,0,1,1.6.25,3.06,3.06,0,0,1,1.14.66,2.64,2.64,0,0,1,.67,1,3.46,3.46,0,0,1,.21,1.21,3.63,3.63,0,0,1-.33,1.53,2.23,2.23,0,0,1-1.16,1.08,2.46,2.46,0,0,1,.9.41,3.4,3.4,0,0,1,.69.73,3.53,3.53,0,0,1,.58,1.9,3.67,3.67,0,0,1-.29,1.44,3.83,3.83,0,0,1-2.23,2,5,5,0,0,1-1.76.3,9.43,9.43,0,0,1-1.19-.09,5.74,5.74,0,0,1-1.33-.31,3.79,3.79,0,0,1-1.12-.63,1.26,1.26,0,0,1-.44-1,1.2,1.2,0,0,1,.31-.85,1,1,0,0,1,.83-.37,1.26,1.26,0,0,1,.57.14l.59.3a5,5,0,0,0,.73.3,3.47,3.47,0,0,0,1,.13,1.55,1.55,0,0,0,1.13-.45A1.5,1.5,0,0,0,18,16.58a2.11,2.11,0,0,0-.13-.78,1.21,1.21,0,0,0-.4-.46,1.8,1.8,0,0,0-.55-.24,4.44,4.44,0,0,0-.62,0h-.51a1.19,1.19,0,0,1-.85-.36,1.17,1.17,0,0,1-.35-.85,1.15,1.15,0,0,1,.35-.84,1.16,1.16,0,0,1,.85-.37h.68a1.11,1.11,0,0,0,.75-.27,1.08,1.08,0,0,0,.31-.88,1.07,1.07,0,0,0-.33-.81,1.19,1.19,0,0,0-.9-.33,2.43,2.43,0,0,0-.79.12,5.57,5.57,0,0,0-.63.24c-.19.09-.37.18-.55.25a1.27,1.27,0,0,1-.5.1,1,1,0,0,1-.85-.38A1.43,1.43,0,0,1,12.67,9.79Z" style="fill:#fff"/><path d="M29.72,19.2a1.4,1.4,0,0,1-.32.93,1.09,1.09,0,0,1-.88.39,1.12,1.12,0,0,1-1.15-1A1.26,1.26,0,0,1,27,20a3.6,3.6,0,0,1-.58.32,2.45,2.45,0,0,1-.67.18,3.57,3.57,0,0,1-.63.07,4.44,4.44,0,0,1-1.37-.2,3.28,3.28,0,0,1-1.07-.55,2.4,2.4,0,0,1-.69-.91,3.11,3.11,0,0,1-.25-1.28,2.49,2.49,0,0,1,.54-1.68,3.5,3.5,0,0,1,1.4-1,6.48,6.48,0,0,1,1.81-.43,17,17,0,0,1,1.82-.1v-.67a.52.52,0,0,0-.28-.5,1.71,1.71,0,0,0-.79-.15,2.4,2.4,0,0,0-.87.14,4.49,4.49,0,0,0-.58.28l-.45.3a.79.79,0,0,1-.43.11,1,1,0,0,1-.83-.33,1.17,1.17,0,0,1-.25-.69,1,1,0,0,1,.33-.72A3.43,3.43,0,0,1,24,11.6a5.1,5.1,0,0,1,1.1-.4,4.45,4.45,0,0,1,1.13-.15,4.07,4.07,0,0,1,2.6.72,2.39,2.39,0,0,1,.92,2Zm-2.35-3H26.23a4.46,4.46,0,0,0-1.08.12,1.83,1.83,0,0,0-.8.4,1,1,0,0,0-.31.83.67.67,0,0,0,.13.43.93.93,0,0,0,.33.26,1.34,1.34,0,0,0,.48.15,2.47,2.47,0,0,0,.54,0A1.82,1.82,0,0,0,26.93,18a1.9,1.9,0,0,0,.44-1.36Z" style="fill:#fff"/><path d="M43.64,19.15a1.36,1.36,0,0,1-.34,1,1.12,1.12,0,0,1-.88.39,1.09,1.09,0,0,1-.88-.39,1.32,1.32,0,0,1-.35-1V13.39H38v5.76a1.32,1.32,0,0,1-.35,1,1.09,1.09,0,0,1-.88.39,1.12,1.12,0,0,1-.88-.39,1.36,1.36,0,0,1-.34-1V12.61a1.38,1.38,0,0,1,.34-1,1.14,1.14,0,0,1,.88-.38h5.62a1.14,1.14,0,0,1,.88.38,1.38,1.38,0,0,1,.34,1Z" style="fill:#fff"/><path d="M53.44,15.8a5.22,5.22,0,0,1-.32,1.81,4.62,4.62,0,0,1-.88,1.51,4,4,0,0,1-1.39,1,4.08,4.08,0,0,1-1.79.39,4.32,4.32,0,0,1-3.19-1.4A4.62,4.62,0,0,1,45,17.61a5.22,5.22,0,0,1-.32-1.81A5.15,5.15,0,0,1,45,14a4.85,4.85,0,0,1,.9-1.51,4.12,4.12,0,0,1,1.39-1.05,4.14,4.14,0,0,1,3.55,0,4.26,4.26,0,0,1,1.4,1.05A5,5,0,0,1,53.12,14,5.15,5.15,0,0,1,53.44,15.8ZM51,15.8a3.39,3.39,0,0,0-.12-.88,2.69,2.69,0,0,0-.35-.81,1.92,1.92,0,0,0-.59-.58,1.59,1.59,0,0,0-.88-.24,1.54,1.54,0,0,0-.88.24,1.85,1.85,0,0,0-.6.58,2.69,2.69,0,0,0-.35.81,3.39,3.39,0,0,0-.12.88,3.28,3.28,0,0,0,.12.88,2.8,2.8,0,0,0,.37.8,1.76,1.76,0,0,0,.59.56,1.55,1.55,0,0,0,.87.23,1.52,1.52,0,0,0,.86-.23,1.89,1.89,0,0,0,.6-.56,3.09,3.09,0,0,0,.36-.8A3.28,3.28,0,0,0,51,15.8Z" style="fill:#fff"/><path d="M62.35,19.35a1.12,1.12,0,0,1-.33.83,1,1,0,0,1-.81.34.91.91,0,0,1-.62-.24L60,19.77,57,16.48h0v2.67a1.37,1.37,0,0,1-.35,1,1.12,1.12,0,0,1-.88.39,1.09,1.09,0,0,1-.88-.39,1.32,1.32,0,0,1-.35-1V12.41a1.34,1.34,0,0,1,.35-1,1.11,1.11,0,0,1,.88-.38,1.14,1.14,0,0,1,.88.38,1.38,1.38,0,0,1,.35,1v2.36l2.77-3.19a1.42,1.42,0,0,1,.55-.39,1.44,1.44,0,0,1,.54-.14.93.93,0,0,1,.75.35,1.15,1.15,0,0,1,.3.77,1.05,1.05,0,0,1-.13.49,2.86,2.86,0,0,1-.35.47L59,15.57l3.06,3a.88.88,0,0,1,.24.4A1.48,1.48,0,0,1,62.35,19.35Z" style="fill:#fff"/><path d="M70.57,12.12a1.65,1.65,0,0,1-.11.63L66.35,23a2,2,0,0,1-.43.68,1,1,0,0,1-.73.28,1.24,1.24,0,0,1-.94-.33,1,1,0,0,1-.34-.71,1.5,1.5,0,0,1,.05-.37l.12-.35,1.06-2.65-2.7-6.84c0-.1-.06-.2-.09-.3a1.69,1.69,0,0,1,0-.33.74.74,0,0,1,.12-.42,1.35,1.35,0,0,1,.28-.35,1,1,0,0,1,.36-.21,1.08,1.08,0,0,1,.4-.09,1.2,1.2,0,0,1,.75.24,1.4,1.4,0,0,1,.48.63l1.68,4.71,1.79-4.71a1.4,1.4,0,0,1,.48-.63,1.2,1.2,0,0,1,.75-.24,1.08,1.08,0,0,1,.4.09,1,1,0,0,1,.36.21,1.21,1.21,0,0,1,.29.35A.82.82,0,0,1,70.57,12.12Z" style="fill:#fff"/><path d="M79.3,19.15a1.36,1.36,0,0,1-.34,1,1.12,1.12,0,0,1-.88.39,1.09,1.09,0,0,1-.88-.39,1.32,1.32,0,0,1-.35-1V13.39H73.69v5.76a1.32,1.32,0,0,1-.35,1,1.09,1.09,0,0,1-.88.39,1.12,1.12,0,0,1-.88-.39,1.36,1.36,0,0,1-.34-1V12.61a1.38,1.38,0,0,1,.34-1,1.14,1.14,0,0,1,.88-.38h5.62a1.14,1.14,0,0,1,.88.38,1.38,1.38,0,0,1,.34,1Z" style="fill:#fff"/><path d="M88.57,19.35a1.12,1.12,0,0,1-.33.83,1.06,1.06,0,0,1-.82.34.87.87,0,0,1-.61-.24q-.27-.23-.57-.51l-3.07-3.29h0v2.67a1.37,1.37,0,0,1-.35,1,1.09,1.09,0,0,1-.88.39,1.1,1.1,0,0,1-.88-.39,1.37,1.37,0,0,1-.35-1V12.41a1.38,1.38,0,0,1,.35-1,1.13,1.13,0,0,1,.88-.38,1.11,1.11,0,0,1,.88.38,1.38,1.38,0,0,1,.35,1v2.36l2.77-3.19a1.5,1.5,0,0,1,.55-.39,1.44,1.44,0,0,1,.55-.14.9.9,0,0,1,.74.35,1.15,1.15,0,0,1,.3.77,1,1,0,0,1-.13.49,2.38,2.38,0,0,1-.35.47l-2.36,2.44,3.06,3a1,1,0,0,1,.25.4A2,2,0,0,1,88.57,19.35Z" style="fill:#fff"/><path d="M97,19.2a1.39,1.39,0,0,1-.31.93,1.1,1.1,0,0,1-.88.39,1.24,1.24,0,0,1-.7-.22,1.26,1.26,0,0,1-.45-.8,1.26,1.26,0,0,1-.41.45,3.6,3.6,0,0,1-.58.32,2.45,2.45,0,0,1-.67.18,3.57,3.57,0,0,1-.63.07,4.44,4.44,0,0,1-1.37-.2,3.28,3.28,0,0,1-1.07-.55,2.4,2.4,0,0,1-.69-.91A3.11,3.11,0,0,1,89,17.58a2.49,2.49,0,0,1,.54-1.68,3.5,3.5,0,0,1,1.4-1,6.4,6.4,0,0,1,1.81-.43,17,17,0,0,1,1.82-.1v-.67a.52.52,0,0,0-.28-.5,1.71,1.71,0,0,0-.79-.15,2.4,2.4,0,0,0-.87.14,4.49,4.49,0,0,0-.58.28l-.45.3a.79.79,0,0,1-.43.11,1,1,0,0,1-.83-.33,1.17,1.17,0,0,1-.25-.69,1,1,0,0,1,.33-.72,3.43,3.43,0,0,1,.85-.58,5.1,5.1,0,0,1,1.1-.4,4.45,4.45,0,0,1,1.13-.15,4.09,4.09,0,0,1,2.6.72,2.38,2.38,0,0,1,.91,2Zm-2.34-3H93.5a4.46,4.46,0,0,0-1.08.12,1.83,1.83,0,0,0-.8.4,1,1,0,0,0-.31.83.67.67,0,0,0,.13.43.93.93,0,0,0,.33.26,1.34,1.34,0,0,0,.48.15,2.44,2.44,0,0,0,.53,0A1.83,1.83,0,0,0,94.2,18a2,2,0,0,0,.44-1.36Z" style="fill:#fff"/><path d="M109.45,19.34a1.16,1.16,0,0,1-.31.83,1.14,1.14,0,0,1-.85.35,1.11,1.11,0,0,1-.91-.34,1.37,1.37,0,0,1-.35-.76l-.63-4.57h0L105,19.65a1.38,1.38,0,0,1-.35.57,1.24,1.24,0,0,1-.93.3,1.44,1.44,0,0,1-.55-.09,1.07,1.07,0,0,1-.36-.21.83.83,0,0,1-.25-.29.94.94,0,0,1-.12-.28l-1.36-4.8h0l-.62,4.57a1.37,1.37,0,0,1-.35.76,1.17,1.17,0,0,1-.93.34,1.08,1.08,0,0,1-.81-.35,1.13,1.13,0,0,1-.33-.83,1.29,1.29,0,0,1,0-.24l1.23-7a1.33,1.33,0,0,1,.48-.73,1.6,1.6,0,0,1,1-.35,1.53,1.53,0,0,1,1,.33,1.47,1.47,0,0,1,.53.69l1.41,4.56h0l1.4-4.56a1.35,1.35,0,0,1,.53-.69,1.5,1.5,0,0,1,1-.33,1.89,1.89,0,0,1,.6.1,2.73,2.73,0,0,1,.48.27,1.24,1.24,0,0,1,.32.33,1.07,1.07,0,0,1,.15.38l1.23,7A1.29,1.29,0,0,1,109.45,19.34Z" style="fill:#fff"/><path d="M118.63,19.15a1.32,1.32,0,0,1-.35,1,1.09,1.09,0,0,1-.88.39,1.12,1.12,0,0,1-.88-.39,1.36,1.36,0,0,1-.34-1v-3.7h0L112.79,20a1.7,1.7,0,0,1-.43.42,1.18,1.18,0,0,1-1.45-.24,1.37,1.37,0,0,1-.35-1V12.41a1.38,1.38,0,0,1,.35-1,1.13,1.13,0,0,1,.88-.38,1.11,1.11,0,0,1,.88.38,1.34,1.34,0,0,1,.35,1v3.64h0l3.12-4.25a2.22,2.22,0,0,1,.58-.53,1.08,1.08,0,0,1,.64-.22,1.11,1.11,0,0,1,.88.38,1.34,1.34,0,0,1,.35,1Z" style="fill:#fff"/></svg>