<svg xmlns="http://www.w3.org/2000/svg" viewBox="0 0 118.08 75.75"><title>Car</title><path d="M37.72,69.17a7.58,7.58,0,1,0-5.34,2.2,7.57,7.57,0,0,0,5.34-2.2m64.2,0a7.58,7.58,0,1,0-5.34,2.2,7.57,7.57,0,0,0,5.34-2.2ZM91.54,41.07a2.19,2.19,0,1,1,0-4.37h20.22L97.89,21.87H78.39V61.65h6.46A11.93,11.93,0,0,1,105,55.42a11.78,11.78,0,0,1,3.28,6.23h5.4V41.07ZM4.38,46.87V61.65H20.65a11.95,11.95,0,0,1,23.47,0H74V4.37H4.38v42.5ZM0,42.49V2.19A2.2,2.2,0,0,1,2.2,0h74a2.19,2.19,0,0,1,2.19,2.18h0V17.5H98.84a2.12,2.12,0,0,1,1.59.7l16.95,18.12a2.23,2.23,0,0,1,.7,1.59V63.84A2.18,2.18,0,0,1,115.89,66h-7.6a11.93,11.93,0,0,1-23.45,0H44.12a11.94,11.94,0,0,1-23.47,0H2.2A2.2,2.2,0,0,1,0,63.84V42.49Z" style="fill:#043e44;fill-rule:evenodd"/></svg>