<svg xmlns="http://www.w3.org/2000/svg" viewBox="0 0 157.59 36.21"><title>H_Privozim</title><path d="M10.44,1.33v9.55A1.22,1.22,0,0,1,9.16,12.2a1.21,1.21,0,0,1-1.27-1.32V2.24H2.55v8.64A1.21,1.21,0,0,1,1.27,12.2,1.21,1.21,0,0,1,0,10.88V1.33A1.23,1.23,0,0,1,1.27,0H9.16A1.23,1.23,0,0,1,10.44,1.33Z" style="fill:#fff"/><path d="M11.9,4.32A1.23,1.23,0,0,1,13.12,3a1.18,1.18,0,0,1,1.23,1,2.71,2.71,0,0,1,2.33-1.12c2.63,0,3.94,2.46,3.94,4.84s-1.56,4.61-4,4.61a3.48,3.48,0,0,1-2.24-.85v3a1.23,1.23,0,1,1-2.45,0Zm4.37,5.74c1.27,0,1.9-1.32,1.9-2.46s-.63-2.5-1.9-2.5-1.92,1.22-1.92,2.41S14.93,10.06,16.27,10.06Z" style="fill:#fff"/><path d="M28.49,12.2a1.23,1.23,0,0,1-1.22-1.36V7.24h0l-3.35,4.4a1.19,1.19,0,0,1-1,.56,1.23,1.23,0,0,1-1.22-1.36V4.32a1.23,1.23,0,1,1,2.44,0V7.85h0l3.13-4.14A1.61,1.61,0,0,1,28.49,3a1.23,1.23,0,0,1,1.22,1.36v6.52A1.23,1.23,0,0,1,28.49,12.2Z" style="fill:#fff"/><path d="M31.11,4.18a1.15,1.15,0,0,1,1.17-1.12h3.28A2.23,2.23,0,0,1,37.94,5.3a1.85,1.85,0,0,1-1.17,1.86v0a2.21,2.21,0,0,1,1.94,2.16,2.65,2.65,0,0,1-3,2.75H32.28A1.17,1.17,0,0,1,31.11,11Zm2.41,2.47h1a.94.94,0,0,0,1-1,.91.91,0,0,0-1-.9h-1Zm0,3.77H35a1.08,1.08,0,0,0,1.19-1.11c0-.59-.46-1-1.34-1H33.52Z" style="fill:#fff"/><path d="M48.38,7.6a4.4,4.4,0,1,1-8.77,0,4.4,4.4,0,1,1,8.77,0Zm-6.32,0c0,1.17.61,2.46,1.94,2.46s1.93-1.29,1.93-2.46S45.34,5.1,44,5.1,42.06,6.43,42.06,7.6Z" style="fill:#fff"/><path d="M52.55,12.31c-1.74,0-3.49-.77-3.49-1.87a1.16,1.16,0,0,1,1.06-1.09c1,0,1.1.81,2.26.81.63,0,1.07-.27,1.07-.81,0-1.7-2.2-.48-2.2-2s1.84-.49,1.84-1.77c0-.27-.17-.59-.75-.59-.8,0-1.49.71-2,.71a1.06,1.06,0,0,1-1-1.09c0-1.2,2-1.76,3.17-1.76,1.93,0,2.82,1.17,2.82,2.36a2.1,2.1,0,0,1-1.11,2,2.41,2.41,0,0,1,1.57,2.3C55.83,11,54.65,12.31,52.55,12.31Z" style="fill:#fff"/><path d="M63.78,12.2a1.23,1.23,0,0,1-1.22-1.36V7.24h0l-3.34,4.4a1.22,1.22,0,0,1-1,.56A1.23,1.23,0,0,1,57,10.84V4.32a1.23,1.23,0,1,1,2.45,0V7.85h0l3.13-4.14A1.61,1.61,0,0,1,63.78,3,1.24,1.24,0,0,1,65,4.32v6.52A1.24,1.24,0,0,1,63.78,12.2Z" style="fill:#fff"/><path d="M76.4,12.2a1.17,1.17,0,0,1-1.28-1.08l-.63-4.47h0l-1.38,4.69a1.19,1.19,0,0,1-1.27.86,1.21,1.21,0,0,1-1.28-.86L69.17,6.65h0l-.61,4.47a1.18,1.18,0,0,1-1.28,1.08A1.14,1.14,0,0,1,66.1,11a2,2,0,0,1,0-.24L67.34,4A1.52,1.52,0,0,1,68.87,3,1.63,1.63,0,0,1,70.4,4l1.41,4.47h0L73.23,4a1.63,1.63,0,0,1,1.53-1A1.54,1.54,0,0,1,76.31,4l1.23,6.76a2,2,0,0,1,0,.24A1.13,1.13,0,0,1,76.4,12.2Z" style="fill:#fff"/><path d="M90.06,12.2a1.23,1.23,0,0,1-1.22-1.36V5.2H85.68v5.64a1.23,1.23,0,1,1-2.45,0V4.42a1.23,1.23,0,0,1,1.22-1.36h5.61a1.24,1.24,0,0,1,1.23,1.36v6.42A1.24,1.24,0,0,1,90.06,12.2Z" style="fill:#fff"/><path d="M92.68,4.32A1.24,1.24,0,0,1,93.91,3a1.16,1.16,0,0,1,1.22,1,2.71,2.71,0,0,1,2.33-1.12c2.63,0,3.94,2.46,3.94,4.84s-1.56,4.61-4,4.61a3.5,3.5,0,0,1-2.24-.85v3a1.23,1.23,0,1,1-2.45,0Zm4.37,5.74C98.33,10.06,99,8.74,99,7.6s-.63-2.5-1.91-2.5-1.92,1.22-1.92,2.41S95.71,10.06,97.05,10.06Z" style="fill:#fff"/><path d="M110.85,7.6a4.4,4.4,0,1,1-8.77,0,4.4,4.4,0,1,1,8.77,0Zm-6.32,0c0,1.17.61,2.46,1.94,2.46s1.94-1.29,1.94-2.46-.6-2.5-1.94-2.5S104.53,6.43,104.53,7.6Z" style="fill:#fff"/><path d="M119.78,14.69a1.24,1.24,0,0,1-1.22-1.36V12.1h-5.24v1.23a1.23,1.23,0,1,1-2.45,0v-2A1.24,1.24,0,0,1,112.1,10h.13a20.18,20.18,0,0,0,.62-5.54,1.2,1.2,0,0,1,1.22-1.36h4.35a1.23,1.23,0,0,1,1.22,1.36V10h.14A1.23,1.23,0,0,1,121,11.32v2A1.24,1.24,0,0,1,119.78,14.69ZM117.33,5h-2.09a22.36,22.36,0,0,1-.63,5.07h2.72Z" style="fill:#fff"/><path d="M121.06,4.64a1.68,1.68,0,0,1-.12-.63,1.17,1.17,0,0,1,1.15-1,1.25,1.25,0,0,1,1.23.86L125,8.43l1.8-4.61A1.25,1.25,0,0,1,128,3a1.17,1.17,0,0,1,1.15,1,1.36,1.36,0,0,1-.12.63L125,14.84a1.33,1.33,0,0,1-1.16,1,1.15,1.15,0,0,1-1.28-1.06,2,2,0,0,1,.16-.71l1.07-2.65Z" style="fill:#fff"/><path d="M129.85,4.32a1.23,1.23,0,1,1,2.44,0V6.56L135,3.48a1.57,1.57,0,0,1,1.1-.52,1.09,1.09,0,0,1,1,1.1,1.41,1.41,0,0,1-.48,1l-2.27,2.33,3,2.87a1.13,1.13,0,0,1,.31.82,1.15,1.15,0,0,1-1.16,1.15,1.8,1.8,0,0,1-1.17-.74l-3-3.18h0v2.56a1.23,1.23,0,1,1-2.44,0Z" style="fill:#fff"/><path d="M140.44,5.2h-1.72a1,1,0,0,1-1.07-1.07,1,1,0,0,1,1.07-1.07h5.88a1,1,0,0,1,1.17,1.07A1,1,0,0,1,144.6,5.2h-1.72v5.64a1.23,1.23,0,1,1-2.44,0Z" style="fill:#fff"/><path d="M146.47,10.74V4.32a1.23,1.23,0,1,1,2.45,0v2h1.73c1.91,0,3.28.9,3.28,2.88a2.77,2.77,0,0,1-3,2.9h-3.2A1.23,1.23,0,0,1,146.47,10.74Zm2.45-.66h1.61a.89.89,0,0,0,1-.92c0-.46-.36-.81-1.06-.81h-1.51Zm6.22-5.76a1.23,1.23,0,1,1,2.45,0v6.52a1.23,1.23,0,1,1-2.45,0Z" style="fill:#fff"/><path d="M8,32.71a4.09,4.09,0,0,1-4.08-3,9,9,0,0,1-.3-2.83c0-1.79.56-3.9,1.37-4.7s1.46-1.34,4.52-1.58c.41,0,.73-.4,1.14-.4a1.1,1.1,0,0,1,1.12,1c0,.67-.62,1.41-1.85,1.48a9,9,0,0,0-3.33.68,1.92,1.92,0,0,0-.88,1.26l0,.05a3.35,3.35,0,0,1,2.41-1.07,4.44,4.44,0,0,1,4.22,4.56A4.36,4.36,0,0,1,8,32.71Zm0-7A2.15,2.15,0,0,0,6,28.1,2.12,2.12,0,0,0,8,30.46,2.12,2.12,0,0,0,9.92,28.1,2.15,2.15,0,0,0,8,25.7Z" style="fill:#fff"/><path d="M13.4,31.14V24.72a1.23,1.23,0,1,1,2.45,0v2h1.74c1.9,0,3.28.9,3.28,2.88a2.78,2.78,0,0,1-3.05,2.9H14.63A1.24,1.24,0,0,1,13.4,31.14Zm2.45-.66h1.62a.88.88,0,0,0,1-.92c0-.46-.36-.81-1.05-.81H15.85Zm6.22-5.76a1.23,1.23,0,1,1,2.45,0v6.53a1.23,1.23,0,1,1-2.45,0Z" style="fill:#fff"/><path d="M31.93,26c-.61,0-1.15-.48-1.93-.48-1.4,0-2.06,1.24-2.06,2.5A2.25,2.25,0,0,0,30,30.46,13,13,0,0,0,31.81,30,1.08,1.08,0,0,1,32.87,31c0,1.26-2.11,1.69-3,1.69A4.45,4.45,0,0,1,25.49,28a4.55,4.55,0,0,1,4.39-4.74c1,0,3,.35,3,1.54C32.87,25.31,32.51,26,31.93,26Z" style="fill:#fff"/><path d="M35.81,25.6H34.09A1,1,0,0,1,33,24.53a1,1,0,0,1,1.07-1.07H40c.63,0,1.18.29,1.18,1.07A1,1,0,0,1,40,25.6H38.26v5.65a1.23,1.23,0,1,1-2.45,0Z" style="fill:#fff"/><path d="M41.84,24.72a1.24,1.24,0,0,1,1.23-1.36,1.16,1.16,0,0,1,1.22,1,2.71,2.71,0,0,1,2.33-1.12c2.64,0,3.94,2.46,3.94,4.84s-1.56,4.61-4,4.61a3.51,3.51,0,0,1-2.25-.85v3a1.23,1.23,0,1,1-2.45,0Zm4.37,5.74c1.28,0,1.91-1.32,1.91-2.46s-.63-2.5-1.91-2.5-1.92,1.22-1.92,2.41S44.87,30.46,46.21,30.46Z" style="fill:#fff"/><path d="M60,28a4.4,4.4,0,1,1-8.77,0A4.4,4.4,0,1,1,60,28Zm-6.33,0c0,1.17.62,2.46,1.94,2.46s1.94-1.29,1.94-2.46-.6-2.5-1.94-2.5S53.69,26.83,53.69,28Z" style="fill:#fff"/><path d="M72.44,32.6a1.23,1.23,0,0,1-1.22-1.35V27.64h0L67.84,32a1.21,1.21,0,0,1-1,.56,1.23,1.23,0,0,1-1.22-1.35V24.72a1.23,1.23,0,1,1,2.45,0v3.53h0l3.13-4.14a1.63,1.63,0,0,1,1.22-.75,1.24,1.24,0,0,1,1.23,1.36v6.53A1.23,1.23,0,0,1,72.44,32.6Z" style="fill:#fff"/><path d="M83.65,32.71a4.09,4.09,0,0,1-4.08-3,9,9,0,0,1-.31-2.83c0-1.79.56-3.9,1.38-4.7s1.46-1.34,4.52-1.58c.41,0,.73-.4,1.14-.4a1.1,1.1,0,0,1,1.12,1c0,.67-.63,1.41-1.85,1.48a9,9,0,0,0-3.33.68,2,2,0,0,0-.89,1.26l.05.05a3.36,3.36,0,0,1,2.42-1.07A4.43,4.43,0,0,1,88,28.19,4.35,4.35,0,0,1,83.65,32.71Zm0-7c-1.35,0-1.94,1.28-1.94,2.4a2,2,0,1,0,3.87,0C85.58,27,85,25.7,83.65,25.7Z" style="fill:#fff"/><path d="M91,28.8a2.13,2.13,0,0,0,2.31,1.77c1.26,0,2.13-1,2.77-1a1.09,1.09,0,0,1,1,1.05c0,1.06-2.18,2.08-4,2.08A4.46,4.46,0,0,1,88.54,28a4.4,4.4,0,1,1,8.79-.29c0,.73-.32,1.09-1.07,1.09Zm3.84-1.63a1.92,1.92,0,0,0-1.95-1.87A2,2,0,0,0,91,27.17Z" style="fill:#fff"/><path d="M98.2,24.72a1.23,1.23,0,0,1,1.22-1.36,1.18,1.18,0,0,1,1.23,1A2.71,2.71,0,0,1,103,23.26c2.63,0,3.94,2.46,3.94,4.84s-1.56,4.61-4,4.61a3.48,3.48,0,0,1-2.24-.85v3a1.23,1.23,0,1,1-2.45,0Zm4.37,5.74c1.27,0,1.9-1.32,1.9-2.46s-.63-2.5-1.9-2.5-1.92,1.22-1.92,2.41S101.23,30.46,102.57,30.46Z" style="fill:#fff"/><path d="M109.93,28.8a2.12,2.12,0,0,0,2.31,1.77c1.26,0,2.13-1,2.77-1a1.08,1.08,0,0,1,1,1.05c0,1.06-2.17,2.08-4,2.08A4.46,4.46,0,0,1,107.43,28a4.4,4.4,0,1,1,8.79-.29c0,.73-.32,1.09-1.07,1.09Zm3.84-1.63a1.94,1.94,0,0,0-2-1.87,2,2,0,0,0-1.94,1.87Z" style="fill:#fff"/><path d="M128.44,32.6a1.8,1.8,0,0,1-1.17-.74l-3-3.18h0v2.57a1.23,1.23,0,1,1-2.45,0V28.68h0l-3,3.18a1.8,1.8,0,0,1-1.17.74,1.15,1.15,0,0,1-1.16-1.15,1.13,1.13,0,0,1,.31-.82l3-2.87-2.28-2.33a1.4,1.4,0,0,1-.47-1,1.08,1.08,0,0,1,1-1.1,1.59,1.59,0,0,1,1.11.52L121.79,27V24.72a1.23,1.23,0,1,1,2.45,0V27l2.69-3.08a1.57,1.57,0,0,1,1.1-.52,1.08,1.08,0,0,1,1,1.1,1.41,1.41,0,0,1-.48,1l-2.27,2.33,3,2.87a1.13,1.13,0,0,1,.31.82A1.15,1.15,0,0,1,128.44,32.6Z" style="fill:#fff"/><path d="M137.15,32.6a1.23,1.23,0,0,1-1.23-1.35V28.87h-3.16v2.38a1.23,1.23,0,1,1-2.45,0V24.72a1.23,1.23,0,1,1,2.45,0v2h3.16v-2a1.23,1.23,0,1,1,2.45,0v6.53A1.23,1.23,0,0,1,137.15,32.6Z" style="fill:#fff"/><path d="M148.18,28a4.4,4.4,0,1,1-8.77,0,4.4,4.4,0,1,1,8.77,0Zm-6.33,0c0,1.17.62,2.46,1.94,2.46s1.94-1.29,1.94-2.46-.59-2.5-1.94-2.5S141.85,26.83,141.85,28Z" style="fill:#fff"/><path d="M150,31.38a1.33,1.33,0,1,1,1.33,1.33A1.33,1.33,0,0,1,150,31.38Zm.1-10a1.14,1.14,0,0,1,1.23-1.15,1.15,1.15,0,0,1,1.22,1.15V27.9a1.15,1.15,0,0,1-1.22,1.15,1.14,1.14,0,0,1-1.23-1.15Z" style="fill:#fff"/></svg>