<svg xmlns="http://www.w3.org/2000/svg" viewBox="0 0 154.96 19.09"><title>H_promo</title><path d="M9.57,13.77a1.07,1.07,0,0,1-1.11-1.19V2.08H2.23v10.5a1.07,1.07,0,0,1-1.12,1.19A1.07,1.07,0,0,1,0,12.58V1.34A1.07,1.07,0,0,1,1.11.15H9.57a1.07,1.07,0,0,1,1.11,1.19V12.58A1.07,1.07,0,0,1,9.57,13.77Z" style="fill:#fefefe"/><path d="M19,0c3.8,0,5.93,3.32,5.93,6.89S22.76,13.77,19,13.77,13,10.46,13,6.89,15.17,0,19,0Zm0,11.85c2.74,0,3.7-2.69,3.7-5s-1-5-3.7-5-3.69,2.69-3.69,5S16.23,11.85,19,11.85Z" style="fill:#fefefe"/><path d="M43.14,13.77A1.07,1.07,0,0,1,42,12.58V2.08H35.8v10.5a1.12,1.12,0,1,1-2.23,0V1.34A1.08,1.08,0,0,1,34.69.15h8.45a1.08,1.08,0,0,1,1.12,1.19V12.58A1.07,1.07,0,0,1,43.14,13.77Z" style="fill:#fefefe"/><path d="M47.3,1.19a1.12,1.12,0,1,1,2.23,0v.66h0A3.67,3.67,0,0,1,53.17,0c3.65,0,5.75,3.32,5.75,6.89s-2.1,6.88-5.75,6.88A4.4,4.4,0,0,1,49.58,12h0V17.9a1.12,1.12,0,1,1-2.23,0ZM53,11.85c2.74,0,3.7-2.69,3.7-5s-1-5-3.7-5-3.69,2.69-3.69,5S50.26,11.85,53,11.85Z" style="fill:#fefefe"/><path d="M66.62,0c3.79,0,5.92,3.32,5.92,6.89s-2.13,6.88-5.92,6.88-5.93-3.31-5.93-6.88S62.82,0,66.62,0Zm0,11.85c2.73,0,3.69-2.69,3.69-5s-1-5-3.69-5-3.7,2.69-3.7,5S63.88,11.85,66.62,11.85Z" style="fill:#fefefe"/><path d="M89.12,13.77a1.26,1.26,0,0,1-1.06-1.14L86.29,3.7h-.05l-2.68,8.6c-.28.89-.51,1.47-1.32,1.47s-1-.58-1.32-1.47L78.24,3.7h0l-1.77,8.93a1.3,1.3,0,0,1-1.22,1.14,1,1,0,0,1-1-1,4,4,0,0,1,.13-.86L76.75,1.16A1.28,1.28,0,0,1,78,0a1.39,1.39,0,0,1,1.34,1.16l2.83,9.09h.05L85.1,1.16A1.38,1.38,0,0,1,86.44,0a1.32,1.32,0,0,1,1.29,1.16l2.46,10.76a5.24,5.24,0,0,1,.12.94C90.31,13.29,89.88,13.77,89.12,13.77Z" style="fill:#fefefe"/><path d="M97.86,0c3.8,0,5.93,3.32,5.93,6.89s-2.13,6.88-5.93,6.88-5.92-3.31-5.92-6.88S94.06,0,97.86,0Zm0,11.85c2.74,0,3.7-2.69,3.7-5s-1-5-3.7-5-3.69,2.69-3.69,5S95.13,11.85,97.86,11.85Z" style="fill:#fefefe"/><path d="M115.59,13.77a2,2,0,0,1-1.3-.68l-5.92-5.32v4.81a1.12,1.12,0,1,1-2.23,0V1.19a1.12,1.12,0,1,1,2.23,0V5.34L113.71.68A2.25,2.25,0,0,1,115,0a.92.92,0,0,1,.94,1c0,.33-.13.58-.56,1l-5.22,4.56L116,11.75a1.49,1.49,0,0,1,.53,1.13A.92.92,0,0,1,115.59,13.77Z" style="fill:#fefefe"/><path d="M123.31,0c3.8,0,5.92,3.32,5.92,6.89s-2.12,6.88-5.92,6.88-5.92-3.31-5.92-6.88S119.51,0,123.31,0Zm0,11.85c2.73,0,3.69-2.69,3.69-5s-1-5-3.69-5-3.7,2.69-3.7,5S120.58,11.85,123.31,11.85Z" style="fill:#fefefe"/><path d="M142.88,17.8a1.07,1.07,0,0,1-1.11-1.19v-3h-9.7v3a1.12,1.12,0,1,1-2.23,0V12.88A1.07,1.07,0,0,1,131,11.7h.86c1.14-3,1.34-6.36,1.34-10.36A1.13,1.13,0,0,1,134.27.15h6.38a1.08,1.08,0,0,1,1.12,1.19V11.7h1.11A1.06,1.06,0,0,1,144,12.88v3.73A1.07,1.07,0,0,1,142.88,17.8ZM139.54,2.08h-4.18a30.13,30.13,0,0,1-1.26,9.62h5.44Z" style="fill:#fefefe"/><path d="M144.88,2.18a4,4,0,0,1-.3-1.24,1,1,0,0,1,1-.94,1.16,1.16,0,0,1,1.12.83l3.08,9.25h.06l3-9.25A1.1,1.1,0,0,1,154,0a1,1,0,0,1,1,.94,4,4,0,0,1-.3,1.24L149,18.25a1.16,1.16,0,0,1-1.09.84,1,1,0,0,1-1-.94,3.54,3.54,0,0,1,.33-1.24l1.42-3.77Z" style="fill:#fefefe"/></svg>