<svg xmlns="http://www.w3.org/2000/svg" viewBox="0 0 173.64 43.1"><title>H_Skidka</title><path d="M17.05,18.72a2.28,2.28,0,0,1-.73,1.76,5,5,0,0,1-1.79,1.08,9.47,9.47,0,0,1-2.23.56,16,16,0,0,1-2,.15,10.36,10.36,0,0,1-4.22-.85,10.62,10.62,0,0,1-3.25-2.35A11,11,0,0,1,.73,15.56,12.47,12.47,0,0,1,0,11.22,12.63,12.63,0,0,1,.73,6.86,11,11,0,0,1,2.84,3.34,9.82,9.82,0,0,1,6.09,1,10.52,10.52,0,0,1,10.31.18a14.52,14.52,0,0,1,1.91.14,9.74,9.74,0,0,1,2.11.53,5.61,5.61,0,0,1,1.72,1,2.13,2.13,0,0,1,.71,1.64A2.19,2.19,0,0,1,16.26,5a1.77,1.77,0,0,1-1.38.59A2.5,2.5,0,0,1,14,5.39L13.1,5c-.34-.12-.73-.23-1.18-.35a6.06,6.06,0,0,0-1.61-.18A5.22,5.22,0,0,0,7.85,5,5.29,5.29,0,0,0,6.09,6.53,6.54,6.54,0,0,0,5,8.7a8.9,8.9,0,0,0-.38,2.61A8.5,8.5,0,0,0,5,13.86a6.24,6.24,0,0,0,1,2.11A6,6,0,0,0,7.88,17.4a5.37,5.37,0,0,0,2.43.53A6.41,6.41,0,0,0,12,17.75a8.27,8.27,0,0,0,1.23-.44l1-.43a2.09,2.09,0,0,1,.91-.21,1.72,1.72,0,0,1,.88.23,2.48,2.48,0,0,1,.61.53,2.2,2.2,0,0,1,.35.68A1.87,1.87,0,0,1,17.05,18.72Z" style="fill:#fefefe"/><path d="M36.21,20.19a1.76,1.76,0,0,1-.7,1.55,2.68,2.68,0,0,1-1.64.53,1.83,1.83,0,0,1-1.17-.39,8.54,8.54,0,0,1-1.12-1l-7.91-8.58V20.1a2.13,2.13,0,0,1-.61,1.52,2.17,2.17,0,0,1-1.64.65,2.32,2.32,0,0,1-1.62-.59,2.06,2.06,0,0,1-.64-1.58V2.4A2.21,2.21,0,0,1,19.78.82,2.15,2.15,0,0,1,21.42.18,2.31,2.31,0,0,1,23,.76a2.1,2.1,0,0,1,.64,1.64V9.05l7.56-8A3.34,3.34,0,0,1,31.9.44,2,2,0,0,1,33,.18a2.3,2.3,0,0,1,1.55.58,2.05,2.05,0,0,1,.68,1.58,2,2,0,0,1-.36,1.12,10.6,10.6,0,0,1-1.11,1.26l-5.86,5.77L35,17.9A13.09,13.09,0,0,1,35.83,19,2.07,2.07,0,0,1,36.21,20.19Z" style="fill:#fefefe"/><path d="M55.93,19.92a2.18,2.18,0,0,1-2.26,2.35,2.25,2.25,0,0,1-1.61-.62,2.22,2.22,0,0,1-.64-1.73V8.55h-.06l-9.7,12.72a2.82,2.82,0,0,1-.94.76,2.49,2.49,0,0,1-1,.24,2.26,2.26,0,0,1-1.62-.62,2.22,2.22,0,0,1-.64-1.73V2.52A2.32,2.32,0,0,1,38.14.76a2.54,2.54,0,0,1,3.23,0A2.32,2.32,0,0,1,42,2.52V14h.06l9.7-12.86a2.42,2.42,0,0,1,.94-.76,2.45,2.45,0,0,1,1-.23,2.29,2.29,0,0,1,1.61.58,2.32,2.32,0,0,1,.65,1.76Z" style="fill:#fefefe"/><path d="M79.16,24.4a2.13,2.13,0,0,1-2.26,2.35,2.13,2.13,0,0,1-2.25-2.35V21.88H61.93V24.4a2.26,2.26,0,1,1-4.51,0V20.27a2.21,2.21,0,0,1,2.26-2.34c.21,0,.45-.35.7-1.05a19.64,19.64,0,0,0,.7-2.64c.2-1.06.37-2.18.53-3.37a28.11,28.11,0,0,0,.21-3.25V2.87a2.22,2.22,0,0,1,.64-1.73A2.24,2.24,0,0,1,64.07.53H74.21a2.24,2.24,0,0,1,1.61.61,2.22,2.22,0,0,1,.64,1.73V17.93h.44a2.15,2.15,0,0,1,2.26,2.34ZM72,4.48H66.3V7.32q0,1.35-.12,2.85c-.1,1-.22,2-.38,3a27.23,27.23,0,0,1-.56,2.73,13.33,13.33,0,0,1-.67,2H72Z" style="fill:#fefefe"/><path d="M97.71,20.19A1.77,1.77,0,0,1,97,21.74a2.66,2.66,0,0,1-1.64.53,1.83,1.83,0,0,1-1.17-.39,9.26,9.26,0,0,1-1.11-1l-7.91-8.58V20.1a2.14,2.14,0,0,1-.62,1.52,2.17,2.17,0,0,1-1.64.65,2.32,2.32,0,0,1-1.61-.59,2,2,0,0,1-.65-1.58V2.4A2.21,2.21,0,0,1,81.27.82,2.16,2.16,0,0,1,82.91.18a2.31,2.31,0,0,1,1.61.58,2.11,2.11,0,0,1,.65,1.64V9.05l7.55-8A3.44,3.44,0,0,1,93.4.44a2,2,0,0,1,1-.26A2.31,2.31,0,0,1,96,.76a2,2,0,0,1,.67,1.58,2,2,0,0,1-.35,1.12,11.87,11.87,0,0,1-1.12,1.26l-5.85,5.77,7.09,7.41A12.88,12.88,0,0,1,97.32,19,2,2,0,0,1,97.71,20.19Z" style="fill:#fefefe"/><path d="M116.54,20.27a1.85,1.85,0,0,1-.61,1.44,2.09,2.09,0,0,1-1.44.56,2.16,2.16,0,0,1-1.46-.44,2.7,2.7,0,0,1-.74-1.15l-1-3H103l-1,2.95a2.68,2.68,0,0,1-.73,1.15,2,2,0,0,1-1.44.47,2.18,2.18,0,0,1-1.55-.62,1.88,1.88,0,0,1-.67-1.49,2.28,2.28,0,0,1,.08-.62,1.91,1.91,0,0,1,.12-.38L104,2.67A4.49,4.49,0,0,1,105.18.88a3,3,0,0,1,2-.7,2.88,2.88,0,0,1,2,.7,4,4,0,0,1,1.2,1.79l6,16.49a4,4,0,0,1,.2.67C116.53,20,116.54,20.18,116.54,20.27ZM107.2,4.86h-.06l-2.84,8.68H110Z" style="fill:#fefefe"/><path d="M133.62,19.92a2.24,2.24,0,1,1-4.48,0V4.69h-1.79A1.79,1.79,0,0,1,125.8,4a2.4,2.4,0,0,1-.47-1.43,2.23,2.23,0,0,1,.53-1.44,1.87,1.87,0,0,1,1.49-.64h4.28a1.84,1.84,0,0,1,1.47.61,2.27,2.27,0,0,1,.52,1.53Z" style="fill:#fefefe"/><path d="M151.17,14a10.7,10.7,0,0,1-.5,3.42A6.79,6.79,0,0,1,149.15,20a6.55,6.55,0,0,1-2.49,1.67,8.82,8.82,0,0,1-3.43.62A8.38,8.38,0,0,1,141.3,22a10.76,10.76,0,0,1-2.17-.76A7,7,0,0,1,137.37,20a2.45,2.45,0,0,1-.73-1.76,2,2,0,0,1,2-2,2,2,0,0,1,1,.29c.33.2.68.42,1.05.68a11.89,11.89,0,0,0,1.23.64,3.43,3.43,0,0,0,1.41.3,2.58,2.58,0,0,0,1.38-.36,2.75,2.75,0,0,0,1-.9,4.42,4.42,0,0,0,.59-1.26,4.71,4.71,0,0,0,.2-1.41,3.25,3.25,0,0,0-.73-2.2,2.73,2.73,0,0,0-2.17-.82,3.07,3.07,0,0,0-1.05.15,4.09,4.09,0,0,0-.79.35c-.24.12-.48.22-.73.32a2.61,2.61,0,0,1-.94.15,1.71,1.71,0,0,1-1.35-.5,1.54,1.54,0,0,1-.44-.91,4.05,4.05,0,0,1,0-.52l.06-.5.76-6.33A8,8,0,0,1,139.42,2a2.52,2.52,0,0,1,.47-.88,1.57,1.57,0,0,1,.68-.44,3.48,3.48,0,0,1,.93-.11h7.24a2.25,2.25,0,0,1,1.61.55,1.81,1.81,0,0,1,.56,1.35,2.58,2.58,0,0,1-.24,1.23,2,2,0,0,1-.61.68,2,2,0,0,1-.68.29,3.46,3.46,0,0,1-.55.06h-5.66l-.44,3.16c.36-.08.73-.14,1.12-.2A7.11,7.11,0,0,1,145,7.56a6,6,0,0,1,2.49.5,7,7,0,0,1,2,1.37,6.48,6.48,0,0,1,1.29,2.05A6.88,6.88,0,0,1,151.17,14Z" style="fill:#fefefe"/><path d="M163.07,5a4.65,4.65,0,0,1-.36,1.84,4.56,4.56,0,0,1-.93,1.56,4.51,4.51,0,0,1-1.47,1,4.19,4.19,0,0,1-1.84.41,4.11,4.11,0,0,1-1.85-.41,4.49,4.49,0,0,1-1.49-1,4.59,4.59,0,0,1-.94-1.56A4.82,4.82,0,0,1,153.84,5a5.15,5.15,0,0,1,.35-1.88,5.07,5.07,0,0,1,.94-1.55,4.29,4.29,0,0,1,1.49-1,4.38,4.38,0,0,1,1.85-.38,4.46,4.46,0,0,1,1.84.38,4.3,4.3,0,0,1,1.47,1.05,5,5,0,0,1,.93,1.55A5,5,0,0,1,163.07,5Zm-3,0a2,2,0,0,0-.41-1.26,1.33,1.33,0,0,0-1.14-.56,1.39,1.39,0,0,0-1.18.56A2,2,0,0,0,156.88,5a2,2,0,0,0,.41,1.23,1.42,1.42,0,0,0,1.18.53,1.36,1.36,0,0,0,1.14-.53A2,2,0,0,0,160,5Zm10.43-3.37a2.64,2.64,0,0,1,0,.38,1.68,1.68,0,0,1-.21.53L160.14,21.45c-.24.31-.43.55-.59.73a1,1,0,0,1-.76.26,1.7,1.7,0,0,1-1.17-.5,1.47,1.47,0,0,1-.56-1.17,1.58,1.58,0,0,1,.12-.61,1.61,1.61,0,0,1,.2-.47L167.31,1a2.17,2.17,0,0,1,.59-.79,1.42,1.42,0,0,1,.79-.18,1.81,1.81,0,0,1,1.23.5A1.56,1.56,0,0,1,170.45,1.67Zm3.19,15.76a4.69,4.69,0,0,1-.35,1.85,5.07,5.07,0,0,1-1,1.55,4.65,4.65,0,0,1-1.46,1,4.25,4.25,0,0,1-1.85.41,4.2,4.2,0,0,1-1.84-.41,4.69,4.69,0,0,1-1.47-1,5,5,0,0,1-1-1.55,4.69,4.69,0,0,1-.36-1.85,4.87,4.87,0,0,1,.36-1.87,5.48,5.48,0,0,1,1-1.56A4.3,4.3,0,0,1,167.17,13a4.49,4.49,0,0,1,1.84-.38,4.53,4.53,0,0,1,1.85.38A4.26,4.26,0,0,1,172.32,14a5.51,5.51,0,0,1,1,1.56A4.86,4.86,0,0,1,173.64,17.43Zm-3.07,0a2,2,0,0,0-.41-1.26,1.31,1.31,0,0,0-1.15-.55,1.29,1.29,0,0,0-1.14.55,2,2,0,0,0-.41,1.26,2,2,0,0,0,.41,1.23,1.32,1.32,0,0,0,1.14.53,1.34,1.34,0,0,0,1.15-.53A2,2,0,0,0,170.57,17.43Z" style="fill:#fefefe"/><path d="M12,41.77a1.24,1.24,0,0,1-.37,1,1.26,1.26,0,0,1-.91.35,1.28,1.28,0,0,1-.91-.35,1.24,1.24,0,0,1-.37-1V38H4.1v3.82a1.27,1.27,0,0,1-.36,1,1.29,1.29,0,0,1-.91.35,1.3,1.3,0,0,1-.92-.35,1.27,1.27,0,0,1-.36-1V31.91a1.31,1.31,0,0,1,.36-1,1.29,1.29,0,0,1,.92-.34,1.29,1.29,0,0,1,.91.34,1.31,1.31,0,0,1,.36,1v3.7H9.43v-3.7a1.22,1.22,0,0,1,1.28-1.33,1.25,1.25,0,0,1,.91.34,1.28,1.28,0,0,1,.37,1Z" style="fill:#fefefe"/><path d="M23.46,42a1.07,1.07,0,0,1-.35.82,1.16,1.16,0,0,1-.81.31,1.19,1.19,0,0,1-.83-.25,1.41,1.41,0,0,1-.42-.65l-.54-1.69H15.79l-.55,1.68a1.42,1.42,0,0,1-.41.64,1.14,1.14,0,0,1-.82.27,1.26,1.26,0,0,1-.88-.35,1.07,1.07,0,0,1-.38-.84,1.18,1.18,0,0,1,.05-.35,1,1,0,0,1,.07-.22L16.32,32a2.74,2.74,0,0,1,.7-1,1.75,1.75,0,0,1,1.13-.4,1.68,1.68,0,0,1,1.13.4A2.38,2.38,0,0,1,20,32l3.37,9.35a2.54,2.54,0,0,1,.11.38A1.34,1.34,0,0,1,23.46,42Zm-5.29-8.73h0l-1.61,4.91h3.22Z" style="fill:#fefefe"/><path d="M39.22,41.77a1.24,1.24,0,0,1-1.28,1.33,1.3,1.3,0,0,1-.92-.35,1.27,1.27,0,0,1-.36-1V33H31.33v8.75a1.24,1.24,0,0,1-.37,1,1.26,1.26,0,0,1-.91.35,1.24,1.24,0,0,1-1.28-1.33V32.11a1.24,1.24,0,0,1,1.28-1.33h7.89a1.24,1.24,0,0,1,1.28,1.33Z" style="fill:#fefefe"/><path d="M47.65,41.72a1.2,1.2,0,0,1-.32.8,1.08,1.08,0,0,1-.89.36H42.05a1.32,1.32,0,0,1-.93-.34,1.24,1.24,0,0,1-.38-.93V32.26a1.59,1.59,0,0,1,.34-1.06,1.16,1.16,0,0,1,1-.42h4.22a1.09,1.09,0,0,1,.91.37,1.23,1.23,0,0,1,.3.81,1.2,1.2,0,0,1-.32.81,1,1,0,0,1-.89.37h-3v2.47h2.79A1.15,1.15,0,0,1,47,36a1.23,1.23,0,0,1,.3.81,1.2,1.2,0,0,1-.32.8,1.11,1.11,0,0,1-.91.36H43.3v2.59h3.14a1.12,1.12,0,0,1,.91.37A1.23,1.23,0,0,1,47.65,41.72Z" style="fill:#fefefe"/><path d="M57.29,34.85A4.13,4.13,0,0,1,57,36.53a4,4,0,0,1-.91,1.27,4.11,4.11,0,0,1-1.36.8,4.69,4.69,0,0,1-1.65.28H51.17v2.89a1.24,1.24,0,0,1-.37,1,1.26,1.26,0,0,1-.91.35,1.28,1.28,0,0,1-.91-.35,1.24,1.24,0,0,1-.37-1V32.11a1.33,1.33,0,0,1,.35-1,1.24,1.24,0,0,1,1-.37h3a4.89,4.89,0,0,1,1.74.3,4.12,4.12,0,0,1,1.38.81,4.23,4.23,0,0,1,.89,1.3A4.07,4.07,0,0,1,57.29,34.85Zm-2.63,0a1.85,1.85,0,0,0-.47-1.28A1.67,1.67,0,0,0,52.9,33H51.17v3.62H52.9a1.63,1.63,0,0,0,1.29-.53A1.84,1.84,0,0,0,54.66,34.83Z" style="fill:#fefefe"/><path d="M66.87,39.2a4.14,4.14,0,0,1-.29,1.59,3.17,3.17,0,0,1-.8,1.15,3.36,3.36,0,0,1-1.25.71,5.09,5.09,0,0,1-1.61.23h-3.5a1.39,1.39,0,0,1-1-.34,1.25,1.25,0,0,1-.38-.95V32.06a1.22,1.22,0,0,1,.38-1,1.37,1.37,0,0,1,1-.33h3.27a3.42,3.42,0,0,1,1.25.22,3,3,0,0,1,1,.6,2.52,2.52,0,0,1,.68.94,3,3,0,0,1,.25,1.25,2.47,2.47,0,0,1-1.58,2.49v0a2.84,2.84,0,0,1,1,.33,3.15,3.15,0,0,1,.81.63,3,3,0,0,1,.55.88A2.59,2.59,0,0,1,66.87,39.2Zm-3.55-5a1.05,1.05,0,0,0-.41-.9,1.53,1.53,0,0,0-1-.32H60.62v2.56h1.32a1.4,1.4,0,0,0,1-.35A1.28,1.28,0,0,0,63.32,34.24Zm.9,4.93a1.2,1.2,0,0,0-.45-1,2,2,0,0,0-1.36-.38H60.62v2.82h2a1.65,1.65,0,0,0,1.15-.38A1.35,1.35,0,0,0,64.22,39.17Z" style="fill:#fefefe"/><path d="M76.3,31.81a1.66,1.66,0,0,1-.13.57l-4.55,10a1.38,1.38,0,0,1-.48.57,1.11,1.11,0,0,1-.61.18A1.69,1.69,0,0,1,70,43a1.43,1.43,0,0,1-.43-.25,1.66,1.66,0,0,1-.32-.38,1.13,1.13,0,0,1-.11-.52,1.76,1.76,0,0,1,.13-.58l1-2.26-3.22-6.64a1.41,1.41,0,0,1-.14-.58,1,1,0,0,1,.12-.5,1.07,1.07,0,0,1,.32-.38,1.45,1.45,0,0,1,.43-.26,1.41,1.41,0,0,1,.49-.09,1.06,1.06,0,0,1,.62.19,1.23,1.23,0,0,1,.48.56L71.72,36l2.14-4.68a1.18,1.18,0,0,1,.48-.56,1.14,1.14,0,0,1,.64-.19,1.43,1.43,0,0,1,.93.34A1.14,1.14,0,0,1,76.3,31.81Z" style="fill:#fefefe"/><path d="M92.87,36.84a6.76,6.76,0,0,1-.43,2.46,5.86,5.86,0,0,1-1.19,2A5.59,5.59,0,0,1,87,43.1a5.87,5.87,0,0,1-2.12-.38,5.5,5.5,0,0,1-1.73-1.08A5.77,5.77,0,0,1,81.92,40,6.16,6.16,0,0,1,81.25,38H79.59v3.82a1.27,1.27,0,0,1-.36,1,1.3,1.3,0,0,1-.92.35A1.24,1.24,0,0,1,77,41.77V31.91a1.31,1.31,0,0,1,.37-1,1.27,1.27,0,0,1,.91-.34,1.29,1.29,0,0,1,.92.34,1.31,1.31,0,0,1,.36,1v3.7h1.68a7.08,7.08,0,0,1,.68-2A6.26,6.26,0,0,1,83.18,32a5.48,5.48,0,0,1,1.71-1A6.09,6.09,0,0,1,87,30.58a5.76,5.76,0,0,1,2.36.48,5.86,5.86,0,0,1,1.86,1.35,6.29,6.29,0,0,1,1.21,2A6.85,6.85,0,0,1,92.87,36.84Zm-2.65,0a5.62,5.62,0,0,0-.2-1.48,4.32,4.32,0,0,0-.6-1.26,3.27,3.27,0,0,0-1-.84A2.72,2.72,0,0,0,87,32.92a2.78,2.78,0,0,0-1.41.34,3.23,3.23,0,0,0-1,.84,4.32,4.32,0,0,0-.6,1.26,5.62,5.62,0,0,0-.2,1.48,5.51,5.51,0,0,0,.2,1.48,3.73,3.73,0,0,0,.58,1.24,3.33,3.33,0,0,0,1,.87,3.41,3.41,0,0,0,2.84,0,3.33,3.33,0,0,0,1-.87A3.73,3.73,0,0,0,90,38.32,5.51,5.51,0,0,0,90.22,36.84Z" style="fill:#fefefe"/><path d="M109,41.77a1.24,1.24,0,0,1-1.28,1.33,1.3,1.3,0,0,1-.92-.35,1.27,1.27,0,0,1-.36-1V33h-5.33v8.75a1.24,1.24,0,0,1-.37,1,1.26,1.26,0,0,1-.91.35,1.24,1.24,0,0,1-1.28-1.33V32.11a1.24,1.24,0,0,1,1.28-1.33h7.89A1.24,1.24,0,0,1,109,32.11Z" style="fill:#fefefe"/><path d="M121.78,36.84a6.77,6.77,0,0,1-.44,2.46,6,6,0,0,1-1.17,2,6.15,6.15,0,0,1-1.85,1.33,6.19,6.19,0,0,1-4.78,0,6,6,0,0,1-1.84-1.33,6.22,6.22,0,0,1-1.2-2,7.21,7.21,0,0,1-.41-2.46,7.36,7.36,0,0,1,.41-2.47,6.12,6.12,0,0,1,1.2-2,5.53,5.53,0,0,1,1.84-1.33,6,6,0,0,1,2.39-.47,5.7,5.7,0,0,1,2.34.48,5.86,5.86,0,0,1,1.86,1.35,6.11,6.11,0,0,1,1.21,2A6.85,6.85,0,0,1,121.78,36.84Zm-2.66,0a5.62,5.62,0,0,0-.2-1.48,3.86,3.86,0,0,0-.6-1.26,2.86,2.86,0,0,0-1-.84,3,3,0,0,0-2.77,0,3,3,0,0,0-1,.84,4.32,4.32,0,0,0-.6,1.26,5.24,5.24,0,0,0-.21,1.48,5.14,5.14,0,0,0,.2,1.48,3.75,3.75,0,0,0,.59,1.24,3.1,3.1,0,0,0,1,.87,3.36,3.36,0,0,0,2.82,0,3.1,3.1,0,0,0,1-.87,3.55,3.55,0,0,0,.58-1.24A5.51,5.51,0,0,0,119.12,36.84Z" style="fill:#fefefe"/><path d="M132.48,41.92a1,1,0,0,1-.4.88,1.47,1.47,0,0,1-.92.3,1,1,0,0,1-.67-.22,4.4,4.4,0,0,1-.63-.58l-4.48-4.86v4.43a1.25,1.25,0,0,1-.35.87,1.23,1.23,0,0,1-.93.36,1.29,1.29,0,0,1-.91-.33,1.13,1.13,0,0,1-.37-.9v-10a1.23,1.23,0,0,1,1.28-1.26,1.27,1.27,0,0,1,.91.34,1.16,1.16,0,0,1,.37.92v3.77l4.28-4.56a2.19,2.19,0,0,1,.38-.32,1.16,1.16,0,0,1,.6-.15,1.26,1.26,0,0,1,.88.34,1.13,1.13,0,0,1,.38.89,1.07,1.07,0,0,1-.2.63,5.72,5.72,0,0,1-.63.72l-3.32,3.27,4,4.2c.19.21.35.41.5.61A1.16,1.16,0,0,1,132.48,41.92Z" style="fill:#fefefe"/><path d="M141.7,31.81a1.72,1.72,0,0,1-.14.57l-4.54,10a1.47,1.47,0,0,1-.49.57,1.09,1.09,0,0,1-.61.18,1.74,1.74,0,0,1-.5-.08,1.56,1.56,0,0,1-.43-.25,2,2,0,0,1-.32-.38,1.27,1.27,0,0,1-.11-.52,1.76,1.76,0,0,1,.13-.58l1-2.26-3.22-6.64a1.39,1.39,0,0,1-.13-.58,1.15,1.15,0,0,1,.11-.5,1.18,1.18,0,0,1,.32-.38,1.59,1.59,0,0,1,.43-.26,1.47,1.47,0,0,1,.5-.09,1,1,0,0,1,.61.19,1.23,1.23,0,0,1,.48.56l2.3,4.68,2.14-4.68a1.24,1.24,0,0,1,1.11-.75,1.43,1.43,0,0,1,.93.34A1.15,1.15,0,0,1,141.7,31.81Z" style="fill:#fefefe"/><path d="M152.87,41.77a1.24,1.24,0,0,1-.37,1,1.26,1.26,0,0,1-.91.35,1.24,1.24,0,0,1-1.28-1.33V33H145v8.75a1.22,1.22,0,0,1-1.27,1.33,1.3,1.3,0,0,1-.92-.35,1.27,1.27,0,0,1-.36-1V32.11a1.27,1.27,0,0,1,.36-1,1.3,1.3,0,0,1,.92-.35h7.88a1.26,1.26,0,0,1,.91.35,1.24,1.24,0,0,1,.37,1Z" style="fill:#fefefe"/><path d="M164.06,41.92a1,1,0,0,1-.4.88,1.48,1.48,0,0,1-.93.3,1,1,0,0,1-.66-.22,4.4,4.4,0,0,1-.63-.58L157,37.44v4.43a1.24,1.24,0,0,1-.34.87,1.26,1.26,0,0,1-.93.36,1.33,1.33,0,0,1-.92-.33,1.16,1.16,0,0,1-.36-.9v-10a1.21,1.21,0,0,1,.35-.89,1.23,1.23,0,0,1,.93-.37,1.27,1.27,0,0,1,.91.34,1.19,1.19,0,0,1,.36.92v3.77l4.29-4.56a1.86,1.86,0,0,1,.38-.32,1.14,1.14,0,0,1,.6-.15,1.28,1.28,0,0,1,.88.34,1.16,1.16,0,0,1,.38.89,1.14,1.14,0,0,1-.2.63,6.68,6.68,0,0,1-.63.72l-3.32,3.27,4,4.2c.18.21.35.41.49.61A1.11,1.11,0,0,1,164.06,41.92Z" style="fill:#fefefe"/><path d="M173.27,31.81a1.66,1.66,0,0,1-.13.57l-4.55,10a1.38,1.38,0,0,1-.48.57,1.11,1.11,0,0,1-.61.18A1.69,1.69,0,0,1,167,43a1.43,1.43,0,0,1-.43-.25,1.66,1.66,0,0,1-.32-.38,1.14,1.14,0,0,1-.12-.52,1.83,1.83,0,0,1,.14-.58l1-2.26-3.22-6.64a1.41,1.41,0,0,1-.14-.58,1,1,0,0,1,.12-.5,1.07,1.07,0,0,1,.32-.38,1.45,1.45,0,0,1,.43-.26,1.41,1.41,0,0,1,.49-.09,1.06,1.06,0,0,1,.62.19,1.23,1.23,0,0,1,.48.56L168.69,36l2.14-4.68a1.23,1.23,0,0,1,.48-.56,1.14,1.14,0,0,1,.64-.19,1.43,1.43,0,0,1,.93.34A1.14,1.14,0,0,1,173.27,31.81Z" style="fill:#fefefe"/></svg>