<svg xmlns="http://www.w3.org/2000/svg" viewBox="0 0 346.06 14.27"><title>Legal_Date</title><path d="M4.77,9.9c1.63,0,2.35-1,2.91-1,.32,0,.54.24.54.63,0,.68-1.55,1.51-3.45,1.51C1.62,11.06,0,8.35,0,5.53S1.62,0,4.84,0C6.77,0,8,1,8,1.59a.59.59,0,0,1-.55.64c-.61,0-.92-1.07-2.6-1.07-2.41,0-3.4,2.29-3.4,4.37S2.46,9.9,4.77,9.9Z"/><path d="M9.53,3.47a.68.68,0,1,1,1.35,0v.39h0a2.22,2.22,0,0,1,2.17-1.11c2.2,0,3.46,2,3.46,4.15s-1.26,4.16-3.46,4.16A2.66,2.66,0,0,1,10.91,10h0v3.59a.68.68,0,1,1-1.35,0ZM13,9.9c1.65,0,2.23-1.62,2.23-3s-.58-3-2.23-3-2.23,1.62-2.23,3S11.32,9.9,13,9.9Z"/><path d="M21.19,2.75c2.29,0,3.57,2,3.57,4.15s-1.28,4.16-3.57,4.16-3.57-2-3.57-4.16S18.9,2.75,21.19,2.75Zm0,7.15c1.65,0,2.23-1.62,2.23-3s-.58-3-2.23-3S19,5.53,19,6.9,19.54,9.9,21.19,9.9Z"/><path d="M31.88,11.06a1.22,1.22,0,0,1-.78-.41L27.53,7.44v2.9a.67.67,0,1,1-1.34,0V3.47a.67.67,0,1,1,1.34,0V6l3.22-2.81a1.36,1.36,0,0,1,.77-.41.55.55,0,0,1,.56.59.77.77,0,0,1-.33.59L28.6,6.67l3.53,3.17a.91.91,0,0,1,.32.68A.56.56,0,0,1,31.88,11.06Z"/><path d="M43.07,11.06a.65.65,0,0,1-.68-.72V4H38.64v6.34a.68.68,0,1,1-1.35,0V3.56A.65.65,0,0,1,38,2.84h5.11a.65.65,0,0,1,.67.72v6.78A.65.65,0,0,1,43.07,11.06Z"/><path d="M45.57,3.47a.68.68,0,1,1,1.35,0v.39h0a2.22,2.22,0,0,1,2.17-1.11c2.2,0,3.46,2,3.46,4.15s-1.26,4.16-3.46,4.16A2.66,2.66,0,0,1,47,10h0v3.59a.68.68,0,1,1-1.35,0ZM49,9.9c1.65,0,2.23-1.62,2.23-3s-.58-3-2.23-3-2.23,1.62-2.23,3S47.36,9.9,49,9.9Z"/><path d="M57.23,2.75c2.29,0,3.57,2,3.57,4.15s-1.28,4.16-3.57,4.16-3.57-2-3.57-4.16S54.94,2.75,57.23,2.75Zm0,7.15c1.65,0,2.23-1.62,2.23-3s-.58-3-2.23-3S55,5.53,55,6.9,55.58,9.9,57.23,9.9Z"/><path d="M66,11H62.9a.65.65,0,0,1-.67-.72V3.56a.65.65,0,0,1,.67-.72h2.9A2,2,0,0,1,68,4.78a1.8,1.8,0,0,1-1.13,1.79h0a2,2,0,0,1,1.76,2A2.41,2.41,0,0,1,66,11Zm-.4-7h-2V6.11h2A1,1,0,0,0,66.66,5,1,1,0,0,0,65.57,4Zm.31,3.24H63.57V9.84h2.26a1.32,1.32,0,0,0,1.45-1.32A1.29,1.29,0,0,0,65.88,7.21Z"/><path d="M70.87,7.42a2.32,2.32,0,0,0,2.4,2.48c1.79,0,2.25-1.1,2.75-1.1a.53.53,0,0,1,.49.59c0,.66-1.67,1.67-3.25,1.67-2.6,0-3.73-2-3.73-4.16s1.37-4.15,3.65-4.15a3.71,3.71,0,0,1,3.5,4c0,.47-.17.71-.75.71Zm4.46-1a2.3,2.3,0,0,0-2.15-2.51c-1.67,0-2.26,1.27-2.31,2.51Z"/><path d="M85.08,13.49a.65.65,0,0,1-.67-.72V11H78.56v1.8a.68.68,0,1,1-1.35,0V10.52a.64.64,0,0,1,.68-.71h.51a17.5,17.5,0,0,0,.81-6.25.68.68,0,0,1,.68-.72h3.85a.65.65,0,0,1,.67.72V9.81h.67a.64.64,0,0,1,.67.71v2.25A.65.65,0,0,1,85.08,13.49ZM83.06,4H80.54a18.16,18.16,0,0,1-.76,5.81h3.28Z"/><path d="M87.59,7.42A2.31,2.31,0,0,0,90,9.9c1.79,0,2.25-1.1,2.75-1.1a.53.53,0,0,1,.49.59c0,.66-1.66,1.67-3.25,1.67-2.6,0-3.73-2-3.73-4.16s1.38-4.15,3.65-4.15a3.7,3.7,0,0,1,3.5,4c0,.47-.17.71-.75.71Zm4.46-1a2.3,2.3,0,0,0-2.16-2.51c-1.66,0-2.26,1.27-2.3,2.51Z"/><path d="M96,10.34a.67.67,0,1,1-1.34,0V3.47a.67.67,0,1,1,1.34,0V6.08h3.76V3.47a.67.67,0,1,1,1.34,0v6.87a.67.67,0,1,1-1.34,0V7.24H96Z"/><path d="M108.67,11.06a.65.65,0,0,1-.67-.72V5.25h0l-3.73,5.35c-.18.26-.26.46-.67.46a.65.65,0,0,1-.67-.72V3.47a.67.67,0,1,1,1.34,0V8.54h0L108,3.19c.17-.24.26-.44.67-.44a.64.64,0,0,1,.67.72v6.87A.65.65,0,0,1,108.67,11.06Z"/><path d="M116,11.06a.65.65,0,0,1-.67-.72v-3h-.11l-3.39,3.42a.77.77,0,0,1-.58.28.59.59,0,0,1-.62-.54.62.62,0,0,1,.23-.52l2.61-2.64H113A2.09,2.09,0,0,1,110.83,5a2.33,2.33,0,0,1,2.48-2.2H116a.64.64,0,0,1,.67.72v6.78A.64.64,0,0,1,116,11.06ZM115.33,4h-1.89a1.15,1.15,0,0,0-1.27,1.1c0,.85.38,1.22,1.25,1.22h1.91Z"/><path d="M127.71,11.06a.65.65,0,0,1-.68-.72V10l0,0a2.77,2.77,0,0,1-2.24,1.07c-1.47,0-2.81-.72-2.81-2.38,0-2.54,2.84-2.74,4.92-2.74h.18v-1c0-.68-.57-1-1.44-1-1.28,0-1.51.83-2.09.83a.55.55,0,0,1-.61-.55c0-.85,1.59-1.44,2.7-1.44,1.77,0,2.77.79,2.77,2.29v5.3A.65.65,0,0,1,127.71,11.06ZM127.05,7h-.29c-1.71,0-3.47,0-3.47,1.7,0,.88.83,1.22,1.71,1.22a2,2,0,0,0,2-2.16Z"/><path d="M135.85,11.06a1.2,1.2,0,0,1-.78-.41L131.5,7.44v2.9a.68.68,0,1,1-1.35,0V3.47a.68.68,0,1,1,1.35,0V6l3.22-2.81a1.34,1.34,0,0,1,.76-.41.56.56,0,0,1,.57.59.76.76,0,0,1-.34.59l-3.15,2.74,3.53,3.17a.88.88,0,0,1,.32.68A.55.55,0,0,1,135.85,11.06Z"/><path d="M144.56,13.49a.65.65,0,0,1-.68-.72V11h-5.77a.65.65,0,0,1-.67-.72V3.47a.67.67,0,1,1,1.34,0V9.81h3.76V3.47a.67.67,0,1,1,1.34,0V9.81h.68a.64.64,0,0,1,.67.71v2.25A.65.65,0,0,1,144.56,13.49Z"/><path d="M152,11.06a.65.65,0,0,1-.67-.72V5.25h0l-3.73,5.35c-.18.26-.26.46-.67.46a.65.65,0,0,1-.67-.72V3.47a.67.67,0,1,1,1.34,0V8.54h0l3.73-5.35c.17-.24.26-.44.67-.44a.64.64,0,0,1,.67.72v6.87A.65.65,0,0,1,152,11.06Z"/><path d="M160.2,11.06a.65.65,0,0,1-.67-.72V5.25h0l-3.73,5.35c-.18.26-.26.46-.67.46a.65.65,0,0,1-.67-.72V3.47a.67.67,0,1,1,1.34,0V8.54h0l3.73-5.35c.17-.24.26-.44.67-.44a.64.64,0,0,1,.67.72v6.87A.65.65,0,0,1,160.2,11.06Z"/><path d="M169.78,2.75c1.38,0,2.18.47,2.18,1a.56.56,0,0,1-.54.57c-.52,0-.72-.43-1.64-.43-1.66,0-2.32,1.62-2.32,3s.66,3,2.32,3c.95,0,1.19-.46,1.62-.46a.5.5,0,0,1,.52.56c0,.51-.75,1.06-2.14,1.06-2.47,0-3.67-2-3.67-4.16S167.31,2.75,169.78,2.75Z"/><path d="M183.09,9.81a.58.58,0,1,1,0,1.16h-5.27c-.57,0-.74-.32-.74-.55s.06-.29.29-.61l3.76-5a3.43,3.43,0,0,0,.8-1.92,1.66,1.66,0,0,0-1.73-1.7c-1.3,0-2,1.1-2,2.46a.54.54,0,0,1-.59.61c-.43,0-.66-.26-.66-.82A3.28,3.28,0,0,1,180.43,0a2.77,2.77,0,0,1,2.93,2.7A3.36,3.36,0,0,1,182.61,5L179,9.81Z"/><path d="M187.41,4.2a2.93,2.93,0,0,1,4.22,3c0,2.34-1.33,3.87-3.53,3.87-1.8,0-3.06-1.15-3.06-1.8a.53.53,0,0,1,.49-.58c.55,0,1,1.13,2.58,1.13a2.16,2.16,0,0,0,2.08-2.36c0-1.28-.56-2.3-1.88-2.3a8.75,8.75,0,0,0-1.85.41.4.4,0,0,1-.45-.41c0-.17.06-.57.1-.9l.57-3.81c0-.27.18-.35.5-.35H191a.58.58,0,1,1,0,1.16h-3.11Z"/><path d="M194.47,9.5a.78.78,0,1,1-.78.78A.78.78,0,0,1,194.47,9.5Z"/><path d="M200.47,0c2,0,3.59,2,3.59,5.53s-1.6,5.53-3.59,5.53-3.59-2-3.59-5.53S198.49,0,200.47,0Zm0,9.9c1.2,0,2.16-1.33,2.16-4.37s-1-4.37-2.16-4.37-2.15,1.33-2.15,4.37S199.28,9.9,200.47,9.9Z"/><path d="M208.66,0a2.56,2.56,0,0,1,2.78,2.49A2.53,2.53,0,0,1,210,4.9a2.65,2.65,0,0,1,2,2.72,3.33,3.33,0,1,1-6.66,0,2.66,2.66,0,0,1,2-2.72,2.55,2.55,0,0,1-1.42-2.41A2.56,2.56,0,0,1,208.66,0Zm0,9.9a2,2,0,0,0,1.9-2.22,1.91,1.91,0,1,0-3.79,0A2,2,0,0,0,208.66,9.9Zm0-5.55a1.47,1.47,0,0,0,1.53-1.6,1.53,1.53,0,1,0-3.05,0A1.47,1.47,0,0,0,208.66,4.35Z"/><path d="M214.67,9.5a.78.78,0,1,1-.78.78A.79.79,0,0,1,214.67,9.5Z"/><path d="M223.48,9.81a.58.58,0,0,1,0,1.16h-5.27c-.56,0-.73-.32-.73-.55s.06-.29.29-.61l3.76-5a3.42,3.42,0,0,0,.79-1.92,1.66,1.66,0,0,0-1.73-1.7c-1.29,0-2,1.1-2,2.46a.55.55,0,0,1-.6.61c-.42,0-.65-.26-.65-.82A3.28,3.28,0,0,1,220.82,0a2.77,2.77,0,0,1,2.94,2.7A3.36,3.36,0,0,1,223,5l-3.65,4.86Z"/><path d="M228.86,0c2,0,3.59,2,3.59,5.53s-1.6,5.53-3.59,5.53-3.59-2-3.59-5.53S226.87,0,228.86,0Zm0,9.9c1.19,0,2.15-1.33,2.15-4.37s-1-4.37-2.15-4.37-2.15,1.33-2.15,4.37S227.67,9.9,228.86,9.9Z"/><path d="M239.86,9.81a.58.58,0,1,1,0,1.16h-5.27c-.57,0-.73-.32-.73-.55s.06-.29.29-.61l3.75-5a3.37,3.37,0,0,0,.8-1.92A1.66,1.66,0,0,0,237,1.16c-1.3,0-2,1.1-2,2.46a.55.55,0,0,1-.6.61c-.43,0-.66-.26-.66-.82A3.29,3.29,0,0,1,237.2,0a2.77,2.77,0,0,1,2.93,2.7A3.4,3.4,0,0,1,239.39,5l-3.65,4.86Z"/><path d="M245.24,0c2,0,3.59,2,3.59,5.53s-1.61,5.53-3.59,5.53-3.59-2-3.59-5.53S243.25,0,245.24,0Zm0,9.9c1.19,0,2.15-1.33,2.15-4.37s-1-4.37-2.15-4.37-2.16,1.33-2.16,4.37S244.05,9.9,245.24,9.9Z"/><path d="M259.81,11.06a.65.65,0,0,1-.67-.72V4h-3.76v6.34a.67.67,0,1,1-1.34,0V3.56a.65.65,0,0,1,.67-.72h5.1a.64.64,0,0,1,.67.72v6.78A.64.64,0,0,1,259.81,11.06Z"/><path d="M265.48,2.75c2.29,0,3.57,2,3.57,4.15s-1.28,4.16-3.57,4.16-3.57-2-3.57-4.16S263.19,2.75,265.48,2.75Zm0,7.15c1.65,0,2.23-1.62,2.23-3s-.58-3-2.23-3-2.23,1.62-2.23,3S263.83,9.9,265.48,9.9Z"/><path d="M280.32,9.81a.58.58,0,0,1,0,1.16h-5.27c-.57,0-.74-.32-.74-.55s.06-.29.29-.61l3.76-5a3.42,3.42,0,0,0,.79-1.92,1.65,1.65,0,0,0-1.72-1.7c-1.3,0-2,1.1-2,2.46a.54.54,0,0,1-.59.61c-.43,0-.66-.26-.66-.82A3.28,3.28,0,0,1,277.66,0a2.77,2.77,0,0,1,2.93,2.7A3.36,3.36,0,0,1,279.84,5l-3.65,4.86Z"/><path d="M284.64,4.2a2.93,2.93,0,0,1,4.22,3c0,2.34-1.33,3.87-3.53,3.87-1.8,0-3.06-1.15-3.06-1.8a.53.53,0,0,1,.49-.58c.55,0,1,1.13,2.58,1.13a2.16,2.16,0,0,0,2.08-2.36c0-1.28-.57-2.3-1.88-2.3a8.75,8.75,0,0,0-1.85.41.4.4,0,0,1-.45-.41c0-.17.06-.57.1-.9l.57-3.81c0-.27.18-.35.5-.35h3.77a.58.58,0,0,1,0,1.16h-3.1Z"/><path d="M291.7,9.5a.78.78,0,1,1-.78.78A.78.78,0,0,1,291.7,9.5Z"/><path d="M297.7,0c2,0,3.59,2,3.59,5.53s-1.6,5.53-3.59,5.53-3.59-2-3.59-5.53S295.72,0,297.7,0Zm0,9.9c1.19,0,2.16-1.33,2.16-4.37s-1-4.37-2.16-4.37-2.15,1.33-2.15,4.37S296.51,9.9,297.7,9.9Z"/><path d="M309.19,3.74c0,3.18-2.14,5.62-3.79,7a1,1,0,0,1-.62.31.61.61,0,0,1-.55-.63c0-.21.15-.38.53-.72a10,10,0,0,0,2.34-3h0a3.51,3.51,0,0,1-1.73.43c-1.77,0-2.75-1.68-2.75-3.58A3.38,3.38,0,0,1,305.92,0C307.82,0,309.19,1.57,309.19,3.74Zm-3.25-2.49c-1.33,0-1.91,1.09-1.91,2.35C304,5,304.61,6,305.94,6s1.91-1.1,1.91-2.36S307.27,1.25,305.94,1.25Z"/><path d="M311.9,9.5a.78.78,0,1,1-.78.78A.78.78,0,0,1,311.9,9.5Z"/><path d="M320.71,9.81a.58.58,0,1,1,0,1.16h-5.27c-.56,0-.73-.32-.73-.55s.06-.29.29-.61l3.75-5a3.37,3.37,0,0,0,.8-1.92,1.66,1.66,0,0,0-1.73-1.7c-1.3,0-2,1.1-2,2.46a.55.55,0,0,1-.6.61c-.43,0-.66-.26-.66-.82A3.29,3.29,0,0,1,318.05,0,2.77,2.77,0,0,1,321,2.7,3.4,3.4,0,0,1,320.24,5l-3.65,4.86Z"/><path d="M326.09,0c2,0,3.59,2,3.59,5.53s-1.61,5.53-3.59,5.53-3.59-2-3.59-5.53S324.1,0,326.09,0Zm0,9.9c1.19,0,2.15-1.33,2.15-4.37s-1-4.37-2.15-4.37-2.16,1.33-2.16,4.37S324.9,9.9,326.09,9.9Z"/><path d="M337.09,9.81a.58.58,0,1,1,0,1.16h-5.27c-.57,0-.74-.32-.74-.55s.07-.29.3-.61l3.75-5a3.37,3.37,0,0,0,.8-1.92,1.66,1.66,0,0,0-1.73-1.7c-1.3,0-2,1.1-2,2.46a.54.54,0,0,1-.59.61c-.43,0-.66-.26-.66-.82A3.28,3.28,0,0,1,334.43,0a2.77,2.77,0,0,1,2.93,2.7A3.36,3.36,0,0,1,336.61,5L333,9.81Z"/><path d="M342.47,0c2,0,3.59,2,3.59,5.53s-1.61,5.53-3.59,5.53-3.59-2-3.59-5.53S340.48,0,342.47,0Zm0,9.9c1.19,0,2.15-1.33,2.15-4.37s-1-4.37-2.15-4.37-2.16,1.33-2.16,4.37S341.28,9.9,342.47,9.9Z"/></svg>