<svg xmlns="http://www.w3.org/2000/svg" viewBox="0 0 595.43 12.14"><title>Legal</title><path d="M1.1,9a.55.55,0,0,1-.55.43A.5.5,0,0,1,0,8.93a2.51,2.51,0,0,1,.16-.57L3,.7c.16-.4.38-.7.82-.7s.66.3.82.7L7.54,8.36a2.51,2.51,0,0,1,.16.57.5.5,0,0,1-.55.48A.56.56,0,0,1,6.59,9L6,7.32H1.7ZM3.86,1.33h0l-1.79,5H5.64Z"/><path d="M12.29,0c2.63,0,4.05,2.3,4.05,4.71s-1.42,4.7-4.05,4.7-4.06-2.3-4.06-4.7S9.65,0,12.29,0Zm0,8.42c2.08,0,2.83-1.95,2.83-3.71S14.37,1,12.29,1s-2.84,2-2.84,3.72S10.21,8.42,12.29,8.42Z"/><path d="M21.78,3.54c.11-.21.24-.34.44-.34a.48.48,0,0,1,.52.45.83.83,0,0,1-.15.41L21.52,5.85l1.07,1.79a.83.83,0,0,1,.15.41.48.48,0,0,1-.52.45c-.2,0-.33-.13-.44-.34L20.49,5.85Zm2,0c.12-.21.25-.34.44-.34a.47.47,0,0,1,.52.45.9.9,0,0,1-.14.41L23.57,5.85l1.08,1.79a.9.9,0,0,1,.14.41.47.47,0,0,1-.52.45c-.19,0-.32-.13-.44-.34L22.54,5.85Z"/><path d="M27.6,1.14H25.87a.5.5,0,0,1-.56-.53.5.5,0,0,1,.56-.53h4.6A.5.5,0,0,1,31,.61a.5.5,0,0,1-.56.53H28.74V8.8a.57.57,0,1,1-1.14,0Z"/><path d="M34.55,2.34c2,0,3.05,1.7,3.05,3.54s-1.1,3.53-3.05,3.53-3-1.7-3-3.53S32.6,2.34,34.55,2.34Zm0,6.08c1.41,0,1.9-1.37,1.9-2.54S36,3.33,34.55,3.33s-1.89,1.38-1.89,2.55S33.15,8.42,34.55,8.42Z"/><path d="M38.86,3A.57.57,0,1,1,40,3v.34h0a1.88,1.88,0,0,1,1.84-1c1.88,0,3,1.7,3,3.54s-1.07,3.53-3,3.53A2.24,2.24,0,0,1,40,8.48h0v3a.57.57,0,1,1-1.14,0Zm2.92,5.47c1.41,0,1.9-1.37,1.9-2.54s-.49-2.55-1.9-2.55-1.9,1.38-1.9,2.55S40.38,8.42,41.78,8.42Z"/><path d="M47,2.42h3.12c.38,0,.57.18.57.49s-.19.5-.57.5H47.54V8.8a.57.57,0,1,1-1.14,0V3A.56.56,0,0,1,47,2.42Z"/><path d="M54,2.34c2,0,3,1.7,3,3.54S56,9.41,54,9.41s-3-1.7-3-3.53S52.05,2.34,54,2.34Zm0,6.08c1.41,0,1.9-1.37,1.9-2.54S55.41,3.33,54,3.33s-1.9,1.38-1.9,2.55S52.6,8.42,54,8.42Z"/><path d="M61.44,9.33H58.82a.55.55,0,0,1-.57-.61V3a.55.55,0,0,1,.57-.61h2.47a1.74,1.74,0,0,1,1.88,1.65,1.53,1.53,0,0,1-1,1.52h0a1.69,1.69,0,0,1,1.5,1.72A2,2,0,0,1,61.44,9.33ZM61.1,3.38H59.4V5.2h1.69A.89.89,0,0,0,62,4.26.83.83,0,0,0,61.1,3.38Zm.26,2.76h-2V8.37h1.92a1.13,1.13,0,0,0,1.24-1.12A1.1,1.1,0,0,0,61.36,6.14Z"/><path d="M67.48,5.07c1.61,0,2.41.9,2.41,2.08a2.14,2.14,0,0,1-2.37,2.18H65.45a.55.55,0,0,1-.57-.61V3A.58.58,0,1,1,66,3V5.07Zm0,1H66V8.35h1.36a1.2,1.2,0,0,0,1.35-1.21C68.74,6.47,68.28,6,67.43,6ZM72,8.8a.58.58,0,1,1-1.15,0V3A.58.58,0,1,1,72,3Z"/><path d="M78.3,9.41a.55.55,0,0,1-.57-.61V4.47h0L74.53,9c-.16.22-.22.39-.57.39a.55.55,0,0,1-.58-.61V3A.55.55,0,0,1,74,2.34a.55.55,0,0,1,.57.61V7.27h0l3.18-4.55c.14-.21.22-.38.57-.38a.55.55,0,0,1,.57.61V8.8A.55.55,0,0,1,78.3,9.41ZM74.81,0c.41,0,.63.74,1.36.74s1-.74,1.35-.74a.42.42,0,0,1,.4.47c0,.76-1,1.26-1.75,1.26s-1.76-.5-1.76-1.26A.43.43,0,0,1,74.81,0Z"/><path d="M89.69,11.48a.55.55,0,0,1-.58-.61V9.33h-5v1.54a.55.55,0,0,1-.58.61.55.55,0,0,1-.57-.61V9a.55.55,0,0,1,.57-.61H84A15.08,15.08,0,0,0,84.69,3a.58.58,0,0,1,.58-.61h3.27a.55.55,0,0,1,.57.61V8.35h.58a.55.55,0,0,1,.57.61v1.91A.55.55,0,0,1,89.69,11.48ZM88,3.41H85.83a15.69,15.69,0,0,1-.65,4.94H88Z"/><path d="M93.83,2.34c2,0,3,1.7,3,3.54s-1.1,3.53-3,3.53-3-1.7-3-3.53S91.88,2.34,93.83,2.34Zm0,6.08c1.41,0,1.9-1.37,1.9-2.54s-.49-2.55-1.9-2.55-1.89,1.38-1.89,2.55S92.43,8.42,93.83,8.42Z"/><path d="M105.39,9.41a.65.65,0,0,1-.55-.58l-.91-4.59h0l-1.38,4.42c-.14.45-.26.75-.68.75s-.53-.3-.67-.75L99.8,4.24h0l-.91,4.59a.65.65,0,0,1-.62.58.48.48,0,0,1-.53-.5,2.07,2.07,0,0,1,.06-.45L99,2.94a.67.67,0,0,1,.67-.6c.31,0,.56.18.69.6l1.45,4.66h0l1.45-4.66c.13-.42.38-.6.69-.6a.69.69,0,0,1,.67.6l1.26,5.52a2.4,2.4,0,0,1,.06.48C106,9.17,105.78,9.41,105.39,9.41Z"/><path d="M111.41,3.54c.12-.21.25-.34.44-.34a.47.47,0,0,1,.52.45.9.9,0,0,1-.14.41l-1.08,1.79,1.08,1.79a.9.9,0,0,1,.14.41.47.47,0,0,1-.52.45c-.19,0-.32-.13-.44-.34l-1.29-2.31Zm2,0c.12-.21.25-.34.45-.34a.48.48,0,0,1,.52.45.94.94,0,0,1-.15.41L113.2,5.85l1.08,1.79a.94.94,0,0,1,.15.41.48.48,0,0,1-.52.45c-.2,0-.33-.13-.45-.34l-1.28-2.31Z"/><path d="M116.82,8.72c0,.46-.22.69-.57.69s-.58-.23-.58-.69v-8c0-.46.22-.69.58-.69h6c.36,0,.58.23.58.69v8c0,.46-.22.69-.58.69s-.57-.23-.57-.69V1.07h-4.87Z"/><path d="M125.07,6.32a2,2,0,0,0,2,2.1c1.52,0,1.91-.93,2.34-.93a.46.46,0,0,1,.42.51c0,.55-1.42,1.41-2.77,1.41-2.21,0-3.17-1.7-3.17-3.53A3.25,3.25,0,0,1,127,2.34a3.15,3.15,0,0,1,3,3.37c0,.4-.14.61-.63.61Zm3.8-.86A2,2,0,0,0,127,3.33c-1.42,0-1.93,1.08-2,2.13Z"/><path d="M131.16,3a.57.57,0,1,1,1.14,0v.34h0a1.88,1.88,0,0,1,1.84-1c1.87,0,3,1.7,3,3.54s-1.08,3.53-3,3.53a2.23,2.23,0,0,1-1.84-.93h0v3a.57.57,0,1,1-1.14,0Zm2.92,5.47c1.41,0,1.9-1.37,1.9-2.54s-.49-2.55-1.9-2.55-1.9,1.38-1.9,2.55S132.68,8.42,134.08,8.42Z"/><path d="M139.06,6.32a2,2,0,0,0,2,2.1c1.52,0,1.91-.93,2.34-.93a.46.46,0,0,1,.42.51c0,.55-1.42,1.41-2.77,1.41-2.21,0-3.17-1.7-3.17-3.53s1.17-3.54,3.1-3.54a3.15,3.15,0,0,1,3,3.37c0,.4-.14.61-.64.61Zm3.8-.86A2,2,0,0,0,141,3.33c-1.41,0-1.92,1.08-2,2.13Z"/><path d="M149.94,9.41a1,1,0,0,1-.66-.35l-3-2.73V8.8a.58.58,0,1,1-1.15,0V3a.58.58,0,1,1,1.15,0V5.08L149,2.69a1.17,1.17,0,0,1,.65-.35.47.47,0,0,1,.48.51c0,.17-.07.3-.29.49l-2.67,2.34,3,2.69a.79.79,0,0,1,.27.59A.47.47,0,0,1,149.94,9.41Z"/><path d="M151.34,3a.55.55,0,0,1,.58-.61.55.55,0,0,1,.57.61v.34h0a1.91,1.91,0,0,1,1.85-1c1.87,0,2.95,1.7,2.95,3.54s-1.08,3.53-2.95,3.53a2.26,2.26,0,0,1-1.85-.93h0v3a.55.55,0,0,1-.57.61.55.55,0,0,1-.58-.61Zm2.93,5.47c1.4,0,1.9-1.37,1.9-2.54s-.5-2.55-1.9-2.55-1.9,1.38-1.9,2.55S152.87,8.42,154.27,8.42Z"/><path d="M159.25,6.32a2,2,0,0,0,2,2.1c1.52,0,1.91-.93,2.34-.93a.46.46,0,0,1,.42.51c0,.55-1.42,1.41-2.77,1.41-2.21,0-3.18-1.7-3.18-3.53a3.25,3.25,0,0,1,3.11-3.54,3.15,3.15,0,0,1,3,3.37c0,.4-.14.61-.64.61Zm.69-6.24a.7.7,0,0,1,.7.7.7.7,0,0,1-1.4,0A.7.7,0,0,1,159.94.08ZM163,5.46a2,2,0,0,0-1.83-2.13c-1.42,0-1.92,1.08-2,2.13ZM162.36.08a.7.7,0,0,1,.7.7.7.7,0,0,1-.7.7.7.7,0,0,1-.71-.7A.7.7,0,0,1,162.36.08Z"/><path d="M168.1,2.34c1.17,0,1.86.4,1.86.87a.48.48,0,0,1-.47.48c-.44,0-.61-.36-1.39-.36-1.42,0-2,1.38-2,2.55s.55,2.54,2,2.54c.81,0,1-.39,1.38-.39a.43.43,0,0,1,.44.48c0,.43-.64.9-1.82.9-2.1,0-3.12-1.7-3.12-3.53S166,2.34,168.1,2.34Z"/><path d="M176,2.91c0,.31-.19.5-.57.5h-1.66V8.8a.58.58,0,1,1-1.15,0V3.41H171c-.38,0-.57-.19-.57-.5s.19-.49.57-.49h4.47C175.8,2.42,176,2.6,176,2.91Z"/><path d="M179.31,2.34c1.95,0,3,1.7,3,3.54s-1.09,3.53-3,3.53-3-1.7-3-3.53S177.36,2.34,179.31,2.34Zm0,6.08c1.4,0,1.9-1.37,1.9-2.54s-.5-2.55-1.9-2.55-1.9,1.38-1.9,2.55S177.9,8.42,179.31,8.42Z"/><path d="M188.41,9.41a1,1,0,0,1-.67-.35l-3-2.73V8.8a.57.57,0,1,1-1.14,0V3a.57.57,0,1,1,1.14,0V5.08l2.75-2.39a1.17,1.17,0,0,1,.65-.35.48.48,0,0,1,.48.51c0,.17-.07.3-.29.49l-2.68,2.34,3,2.69a.79.79,0,0,1,.27.59A.47.47,0,0,1,188.41,9.41Z"/><path d="M190.72,5.85l-1.08-1.79a.9.9,0,0,1-.14-.41A.47.47,0,0,1,190,3.2c.19,0,.32.13.44.34l1.29,2.31-1.29,2.31c-.12.21-.25.34-.44.34a.47.47,0,0,1-.52-.45.9.9,0,0,1,.14-.41Zm2.05,0L191.7,4.06a.83.83,0,0,1-.15-.41.48.48,0,0,1,.52-.45c.2,0,.33.13.45.34l1.28,2.31-1.28,2.31c-.12.21-.25.34-.45.34a.48.48,0,0,1-.52-.45.83.83,0,0,1,.15-.41Z"/><path d="M195.45,8.57c.13-.25.28-.48.61-.48a.5.5,0,0,1,.52.49,1.08,1.08,0,0,1-.14.48l-.73,1.43c-.13.25-.27.48-.61.48a.51.51,0,0,1-.52-.49,1,1,0,0,1,.15-.48Z"/><path d="M202.93,1.07h-1.2a.5.5,0,0,1-.49-.5.49.49,0,0,1,.49-.49h2c.22,0,.35,0,.35.31V8.8a.57.57,0,1,1-1.14,0Z"/><path d="M208.86,0c1.69,0,3,1.73,3,4.71s-1.36,4.7-3,4.7-3.06-1.73-3.06-4.7S207.17,0,208.86,0Zm0,8.42c1,0,1.83-1.13,1.83-3.71S209.87,1,208.86,1,207,2.12,207,4.71,207.84,8.42,208.86,8.42Z"/><path d="M218.63,3.18c0,2.71-1.82,4.79-3.22,6a.82.82,0,0,1-.53.26.51.51,0,0,1-.47-.53c0-.18.13-.33.45-.61a8.6,8.6,0,0,0,2-2.58h0a2.88,2.88,0,0,1-1.47.37c-1.51,0-2.34-1.43-2.34-3a2.87,2.87,0,0,1,2.83-3A2.9,2.9,0,0,1,218.63,3.18Zm-2.77-2.11c-1.13,0-1.62.92-1.62,2s.49,2,1.62,2,1.63-.94,1.63-2S217,1.07,215.86,1.07Z"/><path d="M222.79,0c1.69,0,3.06,1.73,3.06,4.71s-1.37,4.7-3.06,4.7-3-1.73-3-4.7S221.1,0,222.79,0Zm0,8.42c1,0,1.83-1.13,1.83-3.71S223.81,1,222.79,1,221,2.12,221,4.71,221.78,8.42,222.79,8.42Z"/><path d="M232.15,8.35a.49.49,0,1,1,0,1h-4.48c-.48,0-.63-.27-.63-.46s.05-.25.25-.52l3.2-4.28a2.89,2.89,0,0,0,.67-1.64A1.41,1.41,0,0,0,229.69,1c-1.1,0-1.69.93-1.69,2.09a.46.46,0,0,1-.5.52c-.37,0-.56-.22-.56-.7A2.79,2.79,0,0,1,229.89,0a2.36,2.36,0,0,1,2.5,2.3,2.9,2.9,0,0,1-.64,1.91l-3.11,4.14Z"/><path d="M239.54,3.18c0,2.71-1.82,4.79-3.23,6a.8.8,0,0,1-.53.26.52.52,0,0,1-.47-.53c0-.18.13-.33.46-.61a8.59,8.59,0,0,0,2-2.58h0a2.88,2.88,0,0,1-1.47.37c-1.51,0-2.34-1.43-2.34-3a2.82,2.82,0,1,1,5.62.16Zm-2.77-2.11c-1.13,0-1.63.92-1.63,2s.5,2,1.63,2,1.62-.94,1.62-2S237.9,1.07,236.77,1.07Z"/><path d="M241.37,8.57c.13-.25.27-.48.61-.48a.5.5,0,0,1,.52.49,1.08,1.08,0,0,1-.14.48l-.73,1.43c-.13.25-.27.48-.61.48a.5.5,0,0,1-.52-.49,1.05,1.05,0,0,1,.14-.48Z"/><path d="M256.64,9.41c-.3,0-.56-.09-.61-.49L255,1.48h0l-2.21,7.46a.56.56,0,0,1-.59.47.54.54,0,0,1-.58-.47l-2.21-7.46h0l-1.08,7.44c0,.4-.31.49-.61.49a.51.51,0,0,1-.53-.58,3.05,3.05,0,0,1,.06-.52L248.41.87c.11-.65.49-.87.9-.87a.75.75,0,0,1,.83.6l2,6.77h0l2-6.77A.75.75,0,0,1,255,0c.42,0,.8.22.9.87l1.26,7.44a3.27,3.27,0,0,1,.07.52A.52.52,0,0,1,256.64,9.41Z"/><path d="M261.05,2.34c1.95,0,3,1.7,3,3.54s-1.09,3.53-3,3.53-3-1.7-3-3.53S259.1,2.34,261.05,2.34Zm0,6.08c1.41,0,1.9-1.37,1.9-2.54s-.49-2.55-1.9-2.55-1.9,1.38-1.9,2.55S259.65,8.42,261.05,8.42Z"/><path d="M268.12,2.34c1.17,0,1.86.4,1.86.87a.48.48,0,0,1-.47.48c-.44,0-.61-.36-1.39-.36-1.41,0-2,1.38-2,2.55s.56,2.54,2,2.54c.81,0,1-.39,1.38-.39a.43.43,0,0,1,.44.48c0,.43-.63.9-1.82.9-2.1,0-3.12-1.7-3.12-3.53S266,2.34,268.12,2.34Z"/><path d="M275.92,9.41a1,1,0,0,1-.66-.35l-3-2.73V8.8a.58.58,0,1,1-1.15,0V3a.58.58,0,1,1,1.15,0V5.08L275,2.69a1.2,1.2,0,0,1,.65-.35.47.47,0,0,1,.48.51.61.61,0,0,1-.28.49l-2.68,2.34,3,2.69a.79.79,0,0,1,.27.59A.47.47,0,0,1,275.92,9.41Z"/><path d="M280.46,9.33h-2.61a.55.55,0,0,1-.58-.61V3a.55.55,0,0,1,.58-.61h2.47a1.74,1.74,0,0,1,1.87,1.65,1.52,1.52,0,0,1-1,1.52h0a1.69,1.69,0,0,1,1.49,1.72A2,2,0,0,1,280.46,9.33Zm-.34-5.95h-1.7V5.2h1.69a.89.89,0,0,0,.93-.94A.83.83,0,0,0,280.12,3.38Zm.26,2.76h-2V8.37h1.92a1.13,1.13,0,0,0,1.24-1.12A1.1,1.1,0,0,0,280.38,6.14Z"/><path d="M288.53,9.41A.55.55,0,0,1,288,8.8V8.53l0,0a2.35,2.35,0,0,1-1.91.91c-1.24,0-2.39-.61-2.39-2,0-2.15,2.42-2.32,4.19-2.32H288V4.2c0-.59-.48-.87-1.22-.87-1.09,0-1.29.7-1.78.7a.47.47,0,0,1-.52-.47c0-.71,1.35-1.22,2.3-1.22,1.51,0,2.35.68,2.35,2V8.8A.55.55,0,0,1,288.53,9.41ZM288,5.94h-.24c-1.46,0-3,0-3,1.44,0,.76.7,1,1.45,1A1.66,1.66,0,0,0,288,6.59Z"/><path d="M291,8.57c.13-.25.27-.48.61-.48a.5.5,0,0,1,.52.49,1,1,0,0,1-.15.48l-.73,1.43c-.12.25-.27.48-.61.48a.51.51,0,0,1-.52-.49,1,1,0,0,1,.15-.48Z"/><path d="M296.73,3.46a1.93,1.93,0,0,1-.15-.64.51.51,0,0,1,.52-.48.59.59,0,0,1,.57.43l1.59,4.74h0l1.56-4.74a.56.56,0,0,1,.55-.43.51.51,0,0,1,.52.48,2.08,2.08,0,0,1-.16.64l-2.88,8.25a.59.59,0,0,1-.56.43.5.5,0,0,1-.52-.48A1.69,1.69,0,0,1,298,11l.73-1.93Z"/><path d="M307.28,9.41a.55.55,0,0,1-.57-.61V3.41H304.5V5.67c0,2.55-1.08,3.7-2.27,3.7-.33,0-.56-.15-.56-.5a.49.49,0,0,1,.56-.52c.52,0,1.12-.82,1.12-2.68V3a.55.55,0,0,1,.57-.62h3.36a.55.55,0,0,1,.57.61V8.8A.55.55,0,0,1,307.28,9.41Z"/><path d="M310.23,8.09a.66.66,0,1,1-.66.66A.66.66,0,0,1,310.23,8.09Z"/><path d="M319.56,8.42c1.39,0,2-.83,2.49-.83.27,0,.45.21.45.53,0,.59-1.31,1.29-2.94,1.29-2.68,0-4.05-2.3-4.05-4.7S316.88,0,319.63,0c1.64,0,2.68.88,2.68,1.35a.5.5,0,0,1-.47.55c-.52,0-.78-.91-2.21-.91-2.06,0-2.9,2-2.9,3.72S317.6,8.42,319.56,8.42Z"/><path d="M323.62,3a.57.57,0,1,1,1.14,0v.34h0a1.88,1.88,0,0,1,1.84-1c1.88,0,3,1.7,3,3.54s-1.08,3.53-3,3.53a2.24,2.24,0,0,1-1.84-.93h0v3a.57.57,0,1,1-1.14,0Zm2.92,5.47c1.41,0,1.9-1.37,1.9-2.54s-.49-2.55-1.9-2.55-1.89,1.38-1.89,2.55S325.14,8.42,326.54,8.42Z"/><path d="M331.67,8.09a.66.66,0,1,1,0,1.32.66.66,0,1,1,0-1.32Z"/><path d="M338.44,8.8a.55.55,0,0,1-.57.61.55.55,0,0,1-.58-.61V.61a.55.55,0,0,1,.58-.61.55.55,0,0,1,.57.61V4l4-3.63A1,1,0,0,1,343,0a.47.47,0,0,1,.49.49.57.57,0,0,1-.23.52l-3.8,3.42,4.15,4a.59.59,0,0,1,.23.47.53.53,0,0,1-.56.5.72.72,0,0,1-.56-.24l-4.31-4.24Z"/><path d="M349.38,9.41a.55.55,0,0,1-.57-.61V8.53l0,0a2.38,2.38,0,0,1-1.91.91c-1.25,0-2.4-.61-2.4-2,0-2.15,2.42-2.32,4.19-2.32h.16V4.2c0-.59-.49-.87-1.23-.87-1.09,0-1.28.7-1.78.7a.47.47,0,0,1-.52-.47c0-.71,1.35-1.22,2.3-1.22,1.51,0,2.36.68,2.36,2V8.8A.55.55,0,0,1,349.38,9.41Zm-.55-3.47h-.25c-1.46,0-2.95,0-2.95,1.44,0,.76.7,1,1.45,1a1.67,1.67,0,0,0,1.75-1.83Z"/><path d="M356.38,9.41a.55.55,0,0,1-.57-.61V3.41H353.6V5.67c0,2.55-1.08,3.7-2.27,3.7-.33,0-.55-.15-.55-.5a.48.48,0,0,1,.55-.52c.52,0,1.12-.82,1.12-2.68V3a.55.55,0,0,1,.57-.62h3.36A.55.55,0,0,1,357,3V8.8A.55.55,0,0,1,356.38,9.41Z"/><path d="M363.37,9.41a.55.55,0,0,1-.57-.61V4.47h0L359.6,9c-.15.22-.22.39-.57.39a.55.55,0,0,1-.57-.61V3a.57.57,0,1,1,1.14,0V7.27h0l3.17-4.55c.14-.21.22-.38.57-.38a.55.55,0,0,1,.57.61V8.8A.55.55,0,0,1,363.37,9.41Z"/><path d="M370.39,2.91c0,.31-.19.5-.57.5h-1.66V8.8a.58.58,0,1,1-1.15,0V3.41h-1.66c-.38,0-.57-.19-.57-.5s.19-.49.57-.49h4.47C370.2,2.42,370.39,2.6,370.39,2.91Z"/><path d="M372.37,8.8a.55.55,0,0,1-.57.61.55.55,0,0,1-.58-.61V3a.55.55,0,0,1,.58-.61.55.55,0,0,1,.57.61V5.17h3.2V3a.57.57,0,1,1,1.14,0V8.8a.57.57,0,1,1-1.14,0V6.16h-3.2Z"/><path d="M383.13,9.41a.55.55,0,0,1-.57-.61V4.47h0L379.36,9c-.15.22-.22.39-.57.39a.55.55,0,0,1-.57-.61V3a.57.57,0,1,1,1.14,0V7.27h0l3.17-4.55c.14-.21.22-.38.57-.38a.55.55,0,0,1,.57.61V8.8A.55.55,0,0,1,383.13,9.41Z"/><path d="M390.06,9.41a1,1,0,0,1-.66-.35l-3-2.73V8.8a.55.55,0,0,1-.58.61.55.55,0,0,1-.57-.61V3a.55.55,0,0,1,.57-.61.55.55,0,0,1,.58.61V5.08l2.74-2.39a1.17,1.17,0,0,1,.65-.35.47.47,0,0,1,.48.51c0,.17-.06.3-.29.49l-2.67,2.34,3,2.69a.79.79,0,0,1,.27.59A.47.47,0,0,1,390.06,9.41Z"/><path d="M394,2.34c2,0,3,1.7,3,3.54S396,9.41,394,9.41s-3-1.7-3-3.53S392.08,2.34,394,2.34Zm0,6.08c1.4,0,1.89-1.37,1.89-2.54s-.49-2.55-1.89-2.55-1.9,1.38-1.9,2.55S392.62,8.42,394,8.42Z"/><path d="M401.46,9.33h-2.61a.55.55,0,0,1-.57-.61V3a.55.55,0,0,1,.57-.61h2.47a1.74,1.74,0,0,1,1.87,1.65,1.52,1.52,0,0,1-1,1.52h0a1.69,1.69,0,0,1,1.49,1.72A2,2,0,0,1,401.46,9.33Zm-.34-5.95h-1.7V5.2h1.69a.9.9,0,0,0,.94-.94A.83.83,0,0,0,401.12,3.38Zm.26,2.76h-2V8.37h1.93a1.12,1.12,0,0,0,1.23-1.12A1.1,1.1,0,0,0,401.38,6.14Z"/><path d="M407.73,2.34c1.17,0,1.86.4,1.86.87a.49.49,0,0,1-.47.48c-.44,0-.61-.36-1.39-.36-1.42,0-2,1.38-2,2.55s.56,2.54,2,2.54c.8,0,1-.39,1.38-.39a.43.43,0,0,1,.44.48c0,.43-.64.9-1.82.9-2.11,0-3.12-1.7-3.12-3.53S405.62,2.34,407.73,2.34Z"/><path d="M415.53,9.41a1,1,0,0,1-.67-.35l-3-2.73V8.8a.57.57,0,1,1-1.14,0V3a.57.57,0,1,1,1.14,0V5.08l2.75-2.39a1.18,1.18,0,0,1,.64-.35.48.48,0,0,1,.49.51c0,.17-.07.3-.29.49l-2.68,2.34,3,2.69A.79.79,0,0,1,416,9,.47.47,0,0,1,415.53,9.41Z"/><path d="M421.38,9.41a.55.55,0,0,1-.57-.61V8.53l0,0a2.37,2.37,0,0,1-1.91.91c-1.25,0-2.39-.61-2.39-2,0-2.15,2.41-2.32,4.18-2.32h.16V4.2c0-.59-.48-.87-1.22-.87-1.1,0-1.29.7-1.78.7a.46.46,0,0,1-.52-.47c0-.71,1.35-1.22,2.3-1.22,1.51,0,2.35.68,2.35,2V8.8A.55.55,0,0,1,421.38,9.41Zm-.56-3.47h-.25c-1.45,0-2.95,0-2.95,1.44,0,.76.7,1,1.46,1a1.67,1.67,0,0,0,1.74-1.83Z"/><path d="M427.62,9.41A.55.55,0,0,1,427,8.8V6.27H427l-2.88,2.91a.69.69,0,0,1-.5.23A.5.5,0,0,1,423,9a.55.55,0,0,1,.2-.45l2.22-2.24-.36,0a1.78,1.78,0,0,1-1.89-2,2,2,0,0,1,2.12-1.87h2.29a.55.55,0,0,1,.57.61V8.8A.55.55,0,0,1,427.62,9.41Zm-.58-6h-1.61a1,1,0,0,0-1.08.93c0,.73.33,1,1.07,1H427Z"/><path d="M430.1,8.57c.13-.25.27-.48.61-.48a.5.5,0,0,1,.52.49,1.08,1.08,0,0,1-.14.48l-.73,1.43c-.13.25-.27.48-.61.48a.51.51,0,0,1-.52-.49,1.05,1.05,0,0,1,.14-.48Z"/><path d="M442.26,11.48a.55.55,0,0,1-.58-.61V9.33h-5v1.54a.55.55,0,0,1-.58.61.55.55,0,0,1-.57-.61V9a.55.55,0,0,1,.57-.61h.44A14.84,14.84,0,0,0,437.26,3a.58.58,0,0,1,.58-.61h3.27a.55.55,0,0,1,.57.61V8.35h.58a.55.55,0,0,1,.57.61v1.91A.55.55,0,0,1,442.26,11.48Zm-1.72-8.07h-2.15a15.41,15.41,0,0,1-.65,4.94h2.8Z"/><path d="M444.53,8.09a.66.66,0,1,1-.66.66A.66.66,0,0,1,444.53,8.09Z"/><path d="M452,8.35a.49.49,0,1,1,0,1h-4.48c-.48,0-.63-.27-.63-.46s.05-.25.25-.52l3.2-4.28A3,3,0,0,0,451,2.43,1.41,1.41,0,0,0,449.57,1c-1.1,0-1.69.93-1.69,2.09a.47.47,0,0,1-.5.52c-.37,0-.56-.22-.56-.7A2.79,2.79,0,0,1,449.77,0a2.36,2.36,0,0,1,2.5,2.3,2.9,2.9,0,0,1-.64,1.91l-3.11,4.14Z"/><path d="M456.61,0A2.17,2.17,0,0,1,459,2.12a2.14,2.14,0,0,1-1.21,2.05,2.26,2.26,0,0,1,1.68,2.32,2.84,2.84,0,1,1-5.67,0,2.26,2.26,0,0,1,1.68-2.32,2.16,2.16,0,0,1-1.21-2A2.18,2.18,0,0,1,456.61,0Zm0,8.42a1.69,1.69,0,0,0,1.61-1.88,1.63,1.63,0,1,0-3.22,0A1.68,1.68,0,0,0,456.61,8.42Zm0-4.71a1.26,1.26,0,0,0,1.3-1.37,1.3,1.3,0,1,0-2.6,0A1.26,1.26,0,0,0,456.61,3.71Z"/><path d="M463.67,2.34c1.17,0,1.86.4,1.86.87a.49.49,0,0,1-.47.48c-.44,0-.61-.36-1.39-.36-1.42,0-2,1.38-2,2.55s.56,2.54,2,2.54c.8,0,1-.39,1.37-.39a.43.43,0,0,1,.45.48c0,.43-.64.9-1.82.9-2.11,0-3.12-1.7-3.12-3.53S461.56,2.34,463.67,2.34Z"/><path d="M466.51,7c-.39,0-.49-.17-.49-.41a1.56,1.56,0,0,1,.28-.66L469.58.52a.93.93,0,0,1,.9-.52c.5,0,.87.27.87,1V6h.58a.49.49,0,0,1,.5.49.5.5,0,0,1-.5.5h-.58V8.8a.57.57,0,1,1-1.14,0V7Zm3.7-1V1.22h0L467.45,6Z"/><path d="M480.54,0c2.64,0,4.06,2.3,4.06,4.71s-1.42,4.7-4.06,4.7-4.06-2.3-4.06-4.7S477.9,0,480.54,0Zm0,8.42c2.08,0,2.83-1.95,2.83-3.71S482.62,1,480.54,1s-2.83,2-2.83,3.72S478.46,8.42,480.54,8.42Z"/><path d="M486.32,9.41a.55.55,0,0,1-.57-.61V.7a.56.56,0,0,1,.61-.62h3.25a.5.5,0,0,1,.56.53.5.5,0,0,1-.56.53H486.9V8.8A.55.55,0,0,1,486.32,9.41Z"/><path d="M492.19,8.8a.58.58,0,1,1-1.15,0V.7a.56.56,0,0,1,.61-.62h2.27a2.83,2.83,0,0,1,3,2.91,2.88,2.88,0,0,1-3,2.89h-1.77Zm0-3.91h1.69a1.85,1.85,0,0,0,1.9-1.9,1.81,1.81,0,0,0-1.95-1.92h-1.64Z"/><path d="M498.93,8.72c0,.46-.22.69-.57.69s-.57-.23-.57-.69v-8c0-.46.22-.69.57-.69s.57.23.57.69V4.2h4.88V.69c0-.46.22-.69.57-.69s.57.23.57.69v8c0,.46-.22.69-.57.69s-.57-.23-.57-.69V5.19h-4.88Z"/><path d="M511.09,1.07h-1.2a.5.5,0,0,1-.49-.5.49.49,0,0,1,.49-.49h2c.22,0,.35,0,.35.31V8.8a.57.57,0,1,1-1.14,0Z"/><path d="M517,0c1.69,0,3.05,1.73,3.05,4.71s-1.36,4.7-3.05,4.7S514,7.68,514,4.71,515.33,0,517,0Zm0,8.42c1,0,1.83-1.13,1.83-3.71S518,1,517,1s-1.84,1.13-1.84,3.72S516,8.42,517,8.42Z"/><path d="M526.38,8.35a.49.49,0,1,1,0,1h-4.49c-.48,0-.62-.27-.62-.46s.05-.25.25-.52l3.19-4.28a2.9,2.9,0,0,0,.68-1.64A1.42,1.42,0,0,0,523.92,1c-1.11,0-1.69.93-1.69,2.09a.47.47,0,0,1-.51.52c-.36,0-.56-.22-.56-.7a2.8,2.8,0,0,1,3-2.9,2.35,2.35,0,0,1,2.49,2.3A2.84,2.84,0,0,1,526,4.21l-3.1,4.14Z"/><path d="M528.33,1.07a.5.5,0,0,1-.5-.5.49.49,0,0,1,.5-.49H533c.35,0,.59.09.59.36a1.76,1.76,0,0,1-.23.69L529.93,9a.67.67,0,0,1-.69.41.45.45,0,0,1-.43-.44,1.91,1.91,0,0,1,.18-.61l3.24-7.27v0Z"/><path d="M534.83,1.07a.5.5,0,0,1-.5-.5.49.49,0,0,1,.5-.49h4.69c.35,0,.59.09.59.36a1.76,1.76,0,0,1-.23.69L536.43,9a.67.67,0,0,1-.69.41.45.45,0,0,1-.43-.44,1.91,1.91,0,0,1,.18-.61l3.24-7.27v0Z"/><path d="M544,0C545.64,0,547,1.73,547,4.71s-1.37,4.7-3.06,4.7-3.05-1.73-3.05-4.7S542.26,0,544,0Zm0,8.42c1,0,1.84-1.13,1.84-3.71S545,1,544,1s-1.83,1.13-1.83,3.72S542.94,8.42,544,8.42Z"/><path d="M550.92,0C552.61,0,554,1.73,554,4.71s-1.37,4.7-3.06,4.7-3-1.73-3-4.7S549.23,0,550.92,0Zm0,8.42c1,0,1.83-1.13,1.83-3.71S551.94,1,550.92,1s-1.83,1.13-1.83,3.72S549.91,8.42,550.92,8.42Z"/><path d="M557.89,0c1.69,0,3.05,1.73,3.05,4.71s-1.36,4.7-3.05,4.7-3.06-1.73-3.06-4.7S556.2,0,557.89,0Zm0,8.42c1,0,1.83-1.13,1.83-3.71S558.9,1,557.89,1s-1.83,1.13-1.83,3.72S556.88,8.42,557.89,8.42Z"/><path d="M564.61,9.41a2.51,2.51,0,0,1-2.7-2.13c0-.4.2-.64.48-.64s.5.2.63.6a1.57,1.57,0,0,0,1.56,1.18,1.7,1.7,0,0,0,1.76-1.71c0-1.38-.76-1.73-1.61-1.73-.46,0-.7-.2-.7-.5s.16-.4.59-.49c.93-.21,1.3-.65,1.3-1.49A1.35,1.35,0,0,0,564.61,1c-.91,0-1.25.65-1.31,1.35,0,.52-.35.53-.55.53a.5.5,0,0,1-.52-.53,2.42,2.42,0,0,1,4.84.05,2.26,2.26,0,0,1-1.1,2,2.22,2.22,0,0,1,1.59,2.25A2.75,2.75,0,0,1,564.61,9.41Z"/><path d="M569,7c-.39,0-.49-.17-.49-.41a1.44,1.44,0,0,1,.28-.66L572.06.52A.92.92,0,0,1,573,0c.5,0,.87.27.87,1V6h.58a.49.49,0,0,1,.5.49.5.5,0,0,1-.5.5h-.58V8.8a.58.58,0,1,1-1.15,0V7Zm3.69-1V1.22h0L569.93,6Z"/><path d="M576,7c-.39,0-.5-.17-.5-.41a1.48,1.48,0,0,1,.29-.66L579,.52a.92.92,0,0,1,.89-.52c.51,0,.87.27.87,1V6h.59a.5.5,0,0,1,.5.49.51.51,0,0,1-.5.5h-.59V8.8a.57.57,0,1,1-1.14,0V7Zm3.69-1V1.22h0L576.89,6Z"/><path d="M588.57,3.18c0,2.71-1.82,4.79-3.23,6a.78.78,0,0,1-.53.26.52.52,0,0,1-.47-.53c0-.18.13-.33.46-.61a8.6,8.6,0,0,0,2-2.58h0a2.86,2.86,0,0,1-1.47.37c-1.5,0-2.34-1.43-2.34-3a2.82,2.82,0,1,1,5.62.16ZM585.8,1.07c-1.13,0-1.63.92-1.63,2s.5,2,1.63,2,1.62-.94,1.62-2S586.93,1.07,585.8,1.07Z"/><path d="M592.48,9.41a2.51,2.51,0,0,1-2.7-2.13c0-.4.21-.64.48-.64s.51.2.64.6a1.55,1.55,0,0,0,1.56,1.18,1.69,1.69,0,0,0,1.75-1.71c0-1.38-.75-1.73-1.61-1.73-.46,0-.7-.2-.7-.5s.17-.4.6-.49c.92-.21,1.29-.65,1.29-1.49A1.34,1.34,0,0,0,592.48,1c-.91,0-1.25.65-1.31,1.35,0,.52-.35.53-.55.53a.5.5,0,0,1-.52-.53,2.42,2.42,0,0,1,4.84.05,2.25,2.25,0,0,1-1.09,2,2.22,2.22,0,0,1,1.58,2.25A2.75,2.75,0,0,1,592.48,9.41Z"/></svg>