<svg xmlns="http://www.w3.org/2000/svg" viewBox="0 0 229 43.5"><title>Logo</title><path d="M196.53,19.07h-3.8a.55.55,0,0,0-.53.53v3.69a.55.55,0,0,0,.53.54h3.8a.55.55,0,0,0,.53-.54V19.6A.55.55,0,0,0,196.53,19.07Z" style="fill:#005826;fill-rule:evenodd"/><path d="M10.33,6a7.17,7.17,0,0,0-.89-.08A10,10,0,0,0,4.83,7.31V6.75c0-.22.1-.61-.43-.61H1.49A1.54,1.54,0,0,0,0,7.56V25.89a4.07,4.07,0,0,0,4.19,4.29H4.4c.25,0,.5-.1.5-.53v-6.6a7.42,7.42,0,0,0,3.94,1.1,8.4,8.4,0,0,0,1.7-.15c3.05-.46,5.82-3.19,5.82-9.16C16.36,9.87,14.23,6.25,10.33,6ZM7.84,20.63c-1.84,0-3-1.45-3-3.9V13c0-2.09,1.17-3.62,3-3.62,2,0,3.16,1.6,3.16,5.57C11,17.86,10.36,20.63,7.84,20.63Z" style="fill:#005826;fill-rule:evenodd"/><path d="M167.6,8.49a8.84,8.84,0,0,0-12.07,0,9.25,9.25,0,0,0-2.59,6.64A9.49,9.49,0,0,0,155.68,22a9,9,0,0,0,11.85,0,9.58,9.58,0,0,0,2.73-6.85A9.58,9.58,0,0,0,167.6,8.49Zm-3.51,10.86a2.71,2.71,0,0,1-2.52,1.46,2.78,2.78,0,0,1-2.52-1.46,7.92,7.92,0,0,1-.78-4.19,7.88,7.88,0,0,1,.88-4.22,2.62,2.62,0,0,1,2.42-1.35A2.58,2.58,0,0,1,164,10.94a7.87,7.87,0,0,1,.89,4.22A8.44,8.44,0,0,1,164.09,19.35Z" style="fill:#005826;fill-rule:evenodd"/><path d="M33.86,9.06A8.13,8.13,0,0,0,27.3,6.14a8.57,8.57,0,0,0-5.75,2,8.81,8.81,0,0,0-3.09,7.13,9.25,9.25,0,0,0,2.48,6.61,8.7,8.7,0,0,0,6.28,2.41,9.71,9.71,0,0,0,5.58-1.56A7.36,7.36,0,0,0,35.53,19c0-.14.11-.46-.28-.46H31.16c-.24,0-.49.29-.56.43a2.75,2.75,0,0,1-.57.85,3.59,3.59,0,0,1-2.56,1A3.34,3.34,0,0,1,24.35,19a5.5,5.5,0,0,1-.57-2.77H35.21c.46-.07.6-.32.64-1v-.14A9.16,9.16,0,0,0,33.86,9.06Zm-3.19,4.26H23.85a3.85,3.85,0,0,1,1-2.67,3.64,3.64,0,0,1,2.59-1.1A2.94,2.94,0,0,1,30,10.87,4.3,4.3,0,0,1,30.67,13.32Z" style="fill:#005826;fill-rule:evenodd"/><path d="M116.7,9.06a8.13,8.13,0,0,0-6.56-2.92,8.57,8.57,0,0,0-5.75,2,8.81,8.81,0,0,0-3.09,7.13,9.25,9.25,0,0,0,2.48,6.61,8.73,8.73,0,0,0,6.29,2.41,9.69,9.69,0,0,0,5.57-1.56A7.3,7.3,0,0,0,118.37,19c0-.14.11-.46-.28-.46H114c-.25,0-.5.29-.57.43a2.58,2.58,0,0,1-.57.85,3.56,3.56,0,0,1-2.55,1A3.35,3.35,0,0,1,107.19,19a5.6,5.6,0,0,1-.57-2.77h11.43c.46-.07.61-.32.64-1v-.14A9.55,9.55,0,0,0,116.7,9.06Zm-3.23,4.26h-6.81a3.8,3.8,0,0,1,1-2.67,3.62,3.62,0,0,1,2.59-1.1,2.94,2.94,0,0,1,2.59,1.32A4.22,4.22,0,0,1,113.47,13.32Z" style="fill:#005826;fill-rule:evenodd"/><path d="M84.48,18c-1.1-2.27-2.06-3.62-3-3.76,0,0,1.25-.08,2.1-2.35.28-.82,1.1-2.66,1.63-3.8a6.75,6.75,0,0,1,.89-1.31.57.57,0,0,0,.07-.22.39.39,0,0,0-.36-.39H82.27c-1,0-1.45.79-1.77,1.53C80,9,79.75,9.73,79,11.4a2.53,2.53,0,0,1-2.49,1.67h-1V.64c0-.21.1-.64-.43-.64H71.84a1.58,1.58,0,0,0-1.53,1.42V21a4.07,4.07,0,0,0,.22,1.38,2.22,2.22,0,0,0,2,1.42h2.23c.57,0,.75-.28.75-.74V16h.89c2,0,2.8,2.23,3.65,3.79s2.1,4.05,4.48,3.91h2.8a.38.38,0,0,0,.35-.35,1.3,1.3,0,0,0,0-.18C86.89,22.16,85.4,19.74,84.48,18Z" style="fill:#005826;fill-rule:evenodd"/><path d="M186.52,18c-1.1-2.27-2.06-3.62-3-3.76,0,0,1.24-.08,2.09-2.35.28-.82,1.1-2.66,1.63-3.8a7.79,7.79,0,0,1,.89-1.31.44.44,0,0,0,.07-.22.39.39,0,0,0-.35-.39h-3.55c-1,0-1.46.79-1.78,1.53-.53,1.24-.74,2-1.49,3.66a2.52,2.52,0,0,1-2.48,1.67h-1V.64c0-.21.11-.64-.43-.64H174a1.56,1.56,0,0,0-1.52,1.42V21a4,4,0,0,0,.21,1.38,2.2,2.2,0,0,0,2,1.42h2.24c.57,0,.74-.28.74-.74V16h.89c1.95,0,2.81,2.23,3.66,3.79s2.09,4.05,4.47,3.91h2.8a.39.39,0,0,0,.36-.35,1,1,0,0,0,0-.18A52,52,0,0,1,186.52,18Z" style="fill:#005826;fill-rule:evenodd"/><path d="M130.44,13l-2.88-.39c-.92-.15-2.2-.43-2.2-1.6a1.57,1.57,0,0,1,.93-1.39,3.89,3.89,0,0,1,1.88-.35,3.31,3.31,0,0,1,3.37,1.92.33.33,0,0,0,.39.17l3.37-.71a.32.32,0,0,0,.25-.46,6.45,6.45,0,0,0-1.88-2.52,8.27,8.27,0,0,0-5.32-1.53,9.9,9.9,0,0,0-5.29,1.25,5.21,5.21,0,0,0-2.35,4.26,4.88,4.88,0,0,0,1.64,3.69,8.81,8.81,0,0,0,4.43,1.71l2.49.39c1,.17,2.41.39,2.41,1.74a1.43,1.43,0,0,1-.71,1.31,6.07,6.07,0,0,1-2.59.53,5.23,5.23,0,0,1-3-.89,3.27,3.27,0,0,1-1-1.42.43.43,0,0,0-.39-.24l-3.58.53a.39.39,0,0,0-.29.5,7.39,7.39,0,0,0,2.35,3.05,10.27,10.27,0,0,0,5.89,1.6,10.72,10.72,0,0,0,5.86-1.46,5.11,5.11,0,0,0,2.27-4.33,4.79,4.79,0,0,0-1.35-3.48A8.5,8.5,0,0,0,130.44,13Z" style="fill:#005826;fill-rule:evenodd"/><path d="M228.37,6.14h-4.23a.47.47,0,0,0-.46.46v9.59a4.7,4.7,0,0,1-.78,2.88,3,3,0,0,1-2.34,1.17,2.2,2.2,0,0,1-1.78-.78,4.55,4.55,0,0,1-.6-2.66V6.6a.47.47,0,0,0-.46-.46h-1.53A3.18,3.18,0,0,0,213,9.34v8.31c0,1.85.25,3.87,2,5.33a5.36,5.36,0,0,0,3.69,1.24A5.57,5.57,0,0,0,224,20.7h.07a3.17,3.17,0,0,0,3.16,3.16h1.17a.47.47,0,0,0,.46-.46V6.6A.53.53,0,0,0,228.37,6.14Z" style="fill:#005826;fill-rule:evenodd"/><path d="M48.66,7v-.6A.48.48,0,0,0,48.24,6a2.46,2.46,0,0,0-.54,0h-.32a4.69,4.69,0,0,0-3.19,1.49,5.07,5.07,0,0,0-1.28,2.77h-.07V6.46a.4.4,0,0,0-.39-.39H40a1.71,1.71,0,0,0-1.71,1.71V22.26A1.69,1.69,0,0,0,40,24h3.08a.4.4,0,0,0,.4-.39V15.84c0-1.88.24-3.55,1.95-4.62a4.44,4.44,0,0,1,2.38-.6h.28c.6.1.53-.54.53-.54Z" style="fill:#005826;fill-rule:evenodd"/><path d="M100.13,7v-.6A.48.48,0,0,0,99.7,6a2.37,2.37,0,0,0-.53,0h-.32a4.66,4.66,0,0,0-3.19,1.49,5,5,0,0,0-1.28,2.77h-.07V6.46a.4.4,0,0,0-.39-.39H91.5a1.7,1.7,0,0,0-1.7,1.71V22.26A1.68,1.68,0,0,0,91.5,24h3.09a.4.4,0,0,0,.39-.39V15.84c0-1.88.25-3.55,2-4.62a4.46,4.46,0,0,1,2.38-.6h.29c.6.1.53-.54.53-.54Z" style="fill:#005826;fill-rule:evenodd"/><path d="M210.19,7v-.6a.48.48,0,0,0-.42-.46,2.41,2.41,0,0,0-.53,0h-.32a4.69,4.69,0,0,0-3.2,1.49,5.07,5.07,0,0,0-1.28,2.77h-.07V6.64a.39.39,0,0,0-.39-.39h-3.76a.4.4,0,0,0-.39.39v17a.4.4,0,0,0,.39.39h4.4a.39.39,0,0,0,.39-.39V15.91c0-1.88.25-3.55,2-4.62a4.45,4.45,0,0,1,2.35-.6h.28c.6.11.6-.53.6-.53V7Z" style="fill:#005826;fill-rule:evenodd"/><path d="M152.55,6.29h-5.68V.64c0-.21.11-.64-.42-.64h-3.16a1.51,1.51,0,0,0-1.49,1.42V6.29h-5.61c-.35,0-.35.21-.32.39.5,1.66,1.74,3.26,3.51,3.33h1.78a.83.83,0,0,1,.64.54v8.31a11.15,11.15,0,0,0,.28,2.48,3.3,3.3,0,0,0,.89,1.42,5.69,5.69,0,0,0,4.19,1.49,31.34,31.34,0,0,0,3.48-.24.42.42,0,0,0,.35-.4v-3a.39.39,0,0,0-.46-.39,11.43,11.43,0,0,1-1.46.1,2.09,2.09,0,0,1-1.59-.53,2.66,2.66,0,0,1-.57-2V14.13h0V10.76a.77.77,0,0,1,.7-.75h1.78c1.77-.07,3-1.67,3.51-3.33C152.94,6.5,152.91,6.29,152.55,6.29Z" style="fill:#005826;fill-rule:evenodd"/><path d="M63.8,23.92h3.48c0-3.17-3.11-4.29-5.41-4.22H51c0,3.1,3.11,4.22,5.41,4.22Z" style="fill:#005826"/><path d="M53.67,6.21h8.2c2.3,0,5.41,1.06,5.41,4.23H56.41c-2.3,0-5.41-1.06-5.41-4.23Z" style="fill:#005826"/><path d="M53.67,12.92h8.2c2.3,0,5.41,1.12,5.41,4.23H56.41c-2.3,0-5.41-1.06-5.41-4.23Z" style="fill:#005826"/><path d="M105.1,40.77a3.47,3.47,0,0,1-3.42-3.67,3.42,3.42,0,1,1,6.83,0A3.46,3.46,0,0,1,105.1,40.77Zm0-5.59c-1.06,0-1.49,1-1.49,1.92S104.1,39,105.1,39s1.49-1,1.49-1.93S106.15,35.18,105.1,35.18Z" style="fill:#005826"/><path d="M114.6,40.77a1,1,0,0,1-.93-1.06V37.78h-2.49v1.93a.94.94,0,1,1-1.86,0V34.49a.94.94,0,1,1,1.86,0v1.62h2.49V34.49a.94.94,0,1,1,1.86,0v5.22A1,1,0,0,1,114.6,40.77Z" style="fill:#005826"/><path d="M121.93,40.77a1,1,0,0,1-.93-1.06V35.24h-1.62v2c0,2.3-1,3.48-2.42,3.48a.87.87,0,0,1-.25-1.68c.37-.12.81-.5.81-1.62V34.62a1,1,0,0,1,.93-1.06H122a1,1,0,0,1,.93,1.06v5.09A1,1,0,0,1,121.93,40.77Z" style="fill:#005826"/><path d="M129.07,40.77c-.44,0-.75-.19-.87-.81a2.08,2.08,0,0,1-1.8.81c-1.55,0-2.61-.81-2.61-2.3,0-2.18,2.54-2.49,4.35-2.49v-.49c0-.38-.31-.5-.81-.5-1.12,0-1.3.62-1.8.62a.75.75,0,0,1-.81-.81c0-.81,1.55-1.43,2.67-1.43,1.74,0,2.73.75,2.73,2.12v4.22C129.94,40.33,129.63,40.77,129.07,40.77Zm-.93-3.36c-1.12,0-2.61-.12-2.61,1.06,0,.56.56.68,1.12.68a1.25,1.25,0,0,0,1.42-1.43v-.31Z" style="fill:#005826"/><path d="M136.27,40.77a1,1,0,0,1-.93-1.06V36.85l-2.61,3.48a.95.95,0,0,1-1.74-.62V34.49a.94.94,0,1,1,1.87,0v2.8l2.42-3.3a1.17,1.17,0,0,1,.93-.55.94.94,0,0,1,.93,1.05v5.22A.85.85,0,0,1,136.27,40.77Zm-4.22-9.07a.58.58,0,0,1,.62-.62c.81,0,.56.86,1.43.86s.62-.86,1.43-.86a.62.62,0,0,1,.62.62c0,.93-1,1.49-2.05,1.49S132.05,32.63,132.05,31.7Z" style="fill:#005826"/><path d="M143.6,40.77a1,1,0,0,1-.93-1.06V37.78h-2.48v1.93a.94.94,0,1,1-1.87,0V34.49a.94.94,0,1,1,1.87,0v1.62h2.48V34.49a.94.94,0,1,1,1.86,0v5.22A.89.89,0,0,1,143.6,40.77Z" style="fill:#005826"/><path d="M149.07,37.6h-2.8a.73.73,0,0,1-.74-.81c0-.5.25-.87.74-.87h2.8c.49,0,.74.37.74.87A.73.73,0,0,1,149.07,37.6Z" style="fill:#005826"/><path d="M153.91,40.77a3.46,3.46,0,0,1-3.41-3.67,3.54,3.54,0,0,1,3.41-3.66c.75,0,2.3.31,2.3,1.18,0,.37-.25.93-.75.93s-.93-.37-1.49-.37a1.72,1.72,0,0,0-1.61,1.92A1.76,1.76,0,0,0,154,39a11.21,11.21,0,0,0,1.43-.38.83.83,0,0,1,.81.81C156.27,40.46,154.6,40.77,153.91,40.77Z" style="fill:#005826"/><path d="M162.67,34.74l-3.17,8c-.18.44-.43.75-.87.75a.92.92,0,0,1-1-.81,1.94,1.94,0,0,1,.12-.56l.81-2.05-2.11-5.34a1.25,1.25,0,0,1-.06-.5.88.88,0,0,1,.87-.8.93.93,0,0,1,.93.68l1.3,3.66,1.43-3.66a1,1,0,0,1,.93-.68.92.92,0,0,1,.87.8A1.43,1.43,0,0,1,162.67,34.74Z" style="fill:#005826"/><path d="M168.57,40.77a1,1,0,0,1-.93-1.06V35.24h-2.49v4.47a.94.94,0,1,1-1.86,0V34.62a1,1,0,0,1,.93-1.06h4.35a1,1,0,0,1,.93,1.06v5.09A1,1,0,0,1,168.57,40.77Z" style="fill:#005826"/><path d="M176.15,37.72h-4a1.62,1.62,0,0,0,1.8,1.37c1,0,1.68-.75,2.17-.75a.87.87,0,0,1,.81.81c0,.81-1.68,1.62-3.1,1.62a3.46,3.46,0,0,1-3.54-3.67,3.42,3.42,0,1,1,6.83-.19A.82.82,0,0,1,176.15,37.72ZM173.6,35a1.46,1.46,0,0,0-1.49,1.43h3A1.59,1.59,0,0,0,173.6,35Z" style="fill:#005826"/><path d="M181.3,40.77a2.66,2.66,0,0,1-1.74-.69v2.3a.94.94,0,1,1-1.86,0v-8a1,1,0,0,1,.93-1.06,1,1,0,0,1,.93.87,2.13,2.13,0,0,1,1.8-.87c2,0,3,1.93,3,3.79A3.32,3.32,0,0,1,181.3,40.77Zm-.25-5.59c-1,0-1.49,1-1.49,1.86s.44,2,1.49,2,1.49-1,1.49-1.93S182.05,35.18,181.05,35.18Z" style="fill:#005826"/><path d="M193,40.77a.92.92,0,0,1-1-.87l-.5-3.54-1.06,3.72a.94.94,0,0,1-1,.69.89.89,0,0,1-1-.69l-1.06-3.72L187,39.9a1,1,0,0,1-1,.87.87.87,0,0,1-.87-.94v-.18l.93-5.41a1.2,1.2,0,0,1,1.18-.8,1.25,1.25,0,0,1,1.18.8l1.12,3.54,1.06-3.54a1.25,1.25,0,0,1,1.18-.8,1.15,1.15,0,0,1,1.18.8l.93,5.41v.18A.82.82,0,0,1,193,40.77Z" style="fill:#005826"/><path d="M199.87,40.77c-.43,0-.74-.19-.87-.81a2.08,2.08,0,0,1-1.8.81c-1.55,0-2.61-.81-2.61-2.3,0-2.18,2.55-2.49,4.35-2.49v-.49c0-.38-.31-.5-.81-.5-1.12,0-1.3.62-1.8.62a.75.75,0,0,1-.81-.81c0-.81,1.56-1.43,2.68-1.43,1.73,0,2.73.75,2.73,2.12v4.22C200.74,40.33,200.43,40.77,199.87,40.77Zm-.93-3.36c-1.12,0-2.61-.12-2.61,1.06,0,.56.56.68,1.12.68a1.26,1.26,0,0,0,1.43-1.43v-.31Z" style="fill:#005826"/><path d="M205.4,40.77a2.66,2.66,0,0,1-1.74-.69v2.3a.94.94,0,1,1-1.86,0v-8a1,1,0,0,1,.93-1.06,1,1,0,0,1,.93.87,2.13,2.13,0,0,1,1.8-.87c2,0,3,1.93,3,3.79A3.32,3.32,0,0,1,205.4,40.77Zm-.25-5.59c-1,0-1.49,1-1.49,1.86s.44,2,1.49,2,1.49-1,1.49-1.93S206.14,35.18,205.15,35.18Z" style="fill:#005826"/><path d="M214.59,40.77c-.37,0-.62-.25-.93-.56l-2.36-2.55v2.05a.94.94,0,1,1-1.86,0V34.49a.94.94,0,1,1,1.86,0v1.8l2.17-2.48a1.45,1.45,0,0,1,.87-.44.84.84,0,0,1,.81.87,1.11,1.11,0,0,1-.37.75l-1.87,1.86,2.36,2.3a.89.89,0,0,1,.25.62A1,1,0,0,1,214.59,40.77Z" style="fill:#005826"/><path d="M221.61,37.72h-4a1.62,1.62,0,0,0,1.8,1.37c1,0,1.68-.75,2.18-.75a.87.87,0,0,1,.8.81c0,.81-1.67,1.62-3.1,1.62a3.46,3.46,0,0,1-3.54-3.67,3.42,3.42,0,1,1,6.83-.19A.89.89,0,0,1,221.61,37.72ZM219,35a1.46,1.46,0,0,0-1.49,1.43h3A1.51,1.51,0,0,0,219,35Z" style="fill:#005826"/><path d="M227.94,35.24h-1.3v4.47a.94.94,0,1,1-1.86,0V35.24h-1.31a.76.76,0,0,1-.81-.81.79.79,0,0,1,.81-.81h4.6c.49,0,.93.19.93.81A1,1,0,0,1,227.94,35.24Z" style="fill:#005826"/></svg>