<svg enable-background="new 0 0 125.3 37.6" height="37.6" viewBox="0 0 125.3 37.6" width="125.3" xmlns="http://www.w3.org/2000/svg"><g fill="#00973a"><path d="m7.9 12.6c-.2 1-.6 1.7-1.3 2.3s-1.6.8-2.6.8c-.7 0-1.3-.1-1.8-.3s-.9-.5-1.2-.9-.5-.8-.7-1.4c-.2-.5-.3-1.1-.3-1.6v-4.5c0-.5.1-.9.2-1.4s.4-.9.7-1.3.7-.7 1.2-.9 1.2-.4 1.9-.4c.6 0 1.1.1 1.5.3.5.1.9.4 1.2.7s.6.6.8 1 .3.8.4 1.2l-2.4.7c0-.1-.1-.3-.1-.4-.1-.2-.2-.4-.3-.5s-.3-.2-.5-.3c-.1-.1-.4-.2-.6-.2-.3 0-.5 0-.7.1s-.3.3-.4.4-.2.3-.2.5-.1.3-.1.4v4.6c0 .5.1.9.3 1.2s.6.5 1.1.5c.4 0 .7-.1.9-.4.3-.2.4-.6.5-1z"/><path d="m17.1 15.6v-5.9h-.1l-.9 2.3-.7 1.6h-1.9l-.7-1.7-.8-2.2h-.1v5.9h-2.5v-12.5h2.4l1.4 3.5 1.2 3.1h.1l1.2-3.1 1.4-3.5h2.4v12.5z"/><path d="m29.4 11.7c0 .6-.1 1.2-.3 1.7s-.5.9-.8 1.3c-.4.4-.8.6-1.3.8s-1 .3-1.6.3c-.7 0-1.3-.1-1.8-.3s-.9-.5-1.2-.9-.6-.8-.7-1.4c-.1-.5-.2-1.1-.2-1.6v-4.6c0-.5.1-.9.2-1.4s.4-.9.7-1.3.7-.7 1.2-.9 1.1-.4 1.8-.4 1.3.1 1.8.4c.5.2.9.5 1.2.9s.6.8.7 1.3c.2.5.2 1 .2 1.5v4.6zm-2.6-4.8c0-.1 0-.3-.1-.4 0-.2-.1-.3-.2-.5-.1-.1-.2-.3-.4-.4s-.4-.2-.7-.2-.5 0-.7.1-.3.4-.4.5-.2.3-.3.5v.4 4.6c0 .5.1.9.3 1.2s.6.5 1.1.5c.4 0 .7-.1 1-.4.3-.2.4-.6.4-1z"/><path d="m35.5 5.5v10.2h-2.6v-10.2h-2.7v-2.4h7.9v2.4z"/><path d="m47.4 7.1c0 .6-.1 1.1-.3 1.6-.1.5-.4.9-.7 1.3s-.7.6-1.2.8-1 .3-1.6.3h-1.5v4.6h-2.6v-12.6h4c.6 0 1.1.1 1.6.2s.9.4 1.2.7c.4.3.6.7.8 1.2.2.6.3 1.2.3 1.9zm-2.5-.1c0-.5-.1-.9-.4-1.2-.3-.2-.6-.4-1.1-.4h-1.4v3.1h1.4c.4 0 .7-.1 1-.4.3-.1.5-.5.5-1.1z"/><path d="m54.6 15.6v-6.8l-3.5 6.8h-2.4v-12.5h2.6v7.3l3.6-7.3h2.3v12.5z"/><path d="m71.6 11.8c0 .6-.1 1.2-.3 1.6-.2.5-.4.9-.8 1.2-.3.3-.7.6-1.2.7s-1 .3-1.5.3h-4.2v-12.5h4c1.2 0 2.1.3 2.8.9.6.6.9 1.5.9 2.6 0 .5-.1.9-.3 1.4s-.6.8-1.1 1v.1c.3.1.5.2.7.4s.4.4.5.7.2.5.3.8.2.5.2.8zm-2.7-5.1c0-.4-.1-.7-.3-.9s-.5-.3-1-.3h-1.3v2.5h1.3c.5 0 .8-.1 1-.4.2-.2.3-.5.3-.9zm.2 5c0-.4-.1-.8-.3-1-.2-.3-.5-.4-1-.4h-1.4v2.9h1.4c.5 0 .9-.1 1.1-.4.1-.4.2-.7.2-1.1z"/><path d="m85.5 12.6c-.2 1-.6 1.7-1.3 2.3s-1.6.8-2.6.8c-.7 0-1.3-.1-1.8-.3s-.9-.5-1.2-.9-.5-.8-.7-1.4c-.1-.5-.2-1.1-.2-1.6v-4.5c0-.5.1-.9.2-1.4s.4-.9.7-1.3.7-.7 1.2-.9 1.1-.4 1.8-.4c.6 0 1.1.1 1.5.3.5.1.9.4 1.2.7s.6.6.8 1 .3.8.4 1.2l-2.5.7c0-.1-.1-.3-.1-.4-.1-.2-.1-.3-.3-.4-.1-.1-.3-.2-.4-.3-.2-.1-.4-.1-.6-.1-.3 0-.5 0-.7.1s-.3.1-.4.2-.2.3-.2.5-.1.3-.1.5v4.6c0 .5.1.9.3 1.2s.6.5 1.1.5c.4 0 .7-.1.9-.4.3-.2.4-.6.5-1z"/><path d="m95 11.8c0 .6-.1 1.2-.3 1.6-.2.5-.4.9-.8 1.2-.3.3-.7.6-1.2.7s-1 .3-1.5.3h-4.2v-12.5h4c1.2 0 2.1.3 2.8.9.6.6.9 1.5.9 2.6 0 .5-.1.9-.3 1.4s-.6.8-1.1 1v.1c.3.1.5.2.7.4s.4.4.5.7.2.5.3.8.2.5.2.8zm-2.7-5.1c0-.4-.1-.7-.3-.9s-.5-.3-1-.3h-1.3v2.5h1.3c.5 0 .8-.1 1-.4.2-.2.3-.5.3-.9zm.1 5c0-.4-.1-.8-.3-1-.2-.3-.5-.4-1-.4h-1.4v2.9h1.4c.5 0 .9-.1 1.1-.4.1-.4.2-.7.2-1.1z"/><path d="m104.5 11.7c0 .6-.1 1.2-.3 1.7s-.5.9-.8 1.3c-.4.4-.8.6-1.3.8s-1 .3-1.6.3c-.7 0-1.3-.1-1.8-.3s-.9-.5-1.2-.9-.6-.8-.7-1.4c-.1-.5-.2-1.1-.2-1.6v-4.6c0-.5.1-.9.2-1.4s.4-.9.7-1.3.7-.7 1.2-.9 1.1-.4 1.8-.4 1.3.1 1.8.4c.5.2.9.5 1.2.9s.6.8.7 1.3c.2.5.2 1 .2 1.5v4.6zm-2.7-4.8c0-.1 0-.3-.1-.4 0-.2-.1-.3-.2-.5-.1-.1-.2-.3-.4-.4s-.4-.2-.7-.2-.5 0-.7.1-.2.4-.3.5-.2.3-.3.5c0 .1-.1.3-.1.4v4.6c0 .5.1.9.3 1.2s.6.5 1.1.5c.4 0 .7-.1 1-.4.3-.2.4-.6.4-1z"/><path d="m106.3 15.6v-12.5h7.2v2.4h-4.7v2.6h4v2.4h-4v2.7h4.7v2.5h-7.2zm.7-13.2v-2.4h2.4v2.4zm3.5 0v-2.4h2.4v2.4z"/><path d="m122.7 15.6v-5.9h-.1l-.9 2.2-.7 1.6h-1.9l-.7-1.7-.8-2.2h-.1v5.9h-2.6v-12.4h2.4l1.4 3.5 1.2 3.1h.1l1.2-3.1 1.4-3.5h2.4v12.5z"/><path d="m26.8 34.4c-.2 1-.6 1.7-1.3 2.3s-1.6.8-2.6.8c-.7 0-1.3-.1-1.8-.3s-.9-.5-1.2-.9-.5-.8-.7-1.4c-.1-.5-.2-1.1-.2-1.6v-4.5c0-.5.1-.9.2-1.4s.4-.9.7-1.3.7-.7 1.2-.9 1.1-.4 1.9-.4c.6 0 1.1.1 1.5.3.5.2.8.4 1.2.7s.6.6.8 1 .3.8.4 1.2l-2.5.7c0-.1-.1-.3-.1-.4-.1-.2-.1-.3-.3-.4-.1-.1-.3-.2-.4-.3-.2-.1-.4-.1-.6-.1-.3 0-.5 0-.7.1s-.3.2-.4.3-.2.3-.2.5-.1.3-.1.5v4.6c0 .5.1.9.3 1.2s.6.5 1.1.5c.4 0 .7-.1.9-.4.3-.2.4-.6.5-1z"/><path d="m36 37.4v-5.9h-.1l-.9 2.3-.7 1.6h-1.9l-.7-1.7-.7-2.2h-.1v5.9h-2.6v-12.5h2.4l1.4 3.5 1.2 3.1h.1l1.2-3.1 1.4-3.5h2.4v12.5z"/><path d="m45.9 34.9h-3c-.1.4-.2.8-.3 1.3-.1.4-.2.9-.3 1.3h-2.7l3.6-12.5h2.6l3.6 12.5h-2.8zm-2-4.1-.4 1.8h1.8l-.3-1.8-.5-2.5h-.1z"/><path d="m58.5 28.9c0 .6-.1 1.1-.3 1.6s-.4.9-.8 1.3-.7.6-1.2.8-1 .3-1.6.3h-1.5v4.6h-2.6v-12.6h4c.6 0 1.1.1 1.6.2s.9.4 1.3.7.6.7.8 1.2c.2.6.3 1.2.3 1.9zm-2.6-.1c0-.5-.1-.9-.4-1.2-.3-.2-.6-.4-1.1-.4h-1.4v3.1h1.4c.4 0 .7-.1 1-.4.4-.1.5-.5.5-1.1z"/><path d="m64.1 27.3v10.2h-2.6v-10.2h-2.7v-2.4h7.9v2.4z"/><path d="m73.9 37.4h-2.5v-1.1c-.9-.1-1.6-.3-2.2-.6s-1-.7-1.3-1.2-.5-1-.6-1.6-.2-1.3-.2-1.9c0-.7.1-1.3.2-1.9s.3-1.2.6-1.6c.3-.5.7-.9 1.3-1.2.5-.3 1.2-.5 2.1-.6v-.7h2.5v.7c.8 0 1.5.2 2 .5s1 .7 1.3 1.2.5 1 .7 1.6c.1.6.2 1.2.2 1.9s-.1 1.3-.2 2c-.1.6-.3 1.2-.6 1.7-.2.4-.6.8-1.2 1.2-.5.3-1.3.5-2.2.6v1zm-2.5-9.5c-.4 0-.6.1-.9.3s-.4.4-.5.6c-.1.3-.2.6-.3.9 0 .4-.1.7-.1 1.1v1.1c0 .4.1.7.2 1s.3.5.5.7.6.3 1 .3v-6zm2.5 6.2c.4 0 .7-.1.9-.3s.4-.4.5-.7.2-.6.2-1 0-.7 0-1.1 0-.8-.1-1.1c0-.3-.1-.7-.3-.9s-.3-.5-.5-.6c-.2-.2-.5-.3-.8-.3v6z"/><path d="m87.6 33.5c0 .6-.1 1.2-.3 1.7s-.5.9-.8 1.3c-.4.4-.8.6-1.3.8s-1 .3-1.6.3c-.7 0-1.3-.1-1.8-.3s-.9-.5-1.2-.9-.6-.8-.7-1.4c-.1-.5-.2-1.1-.2-1.6v-4.5c0-.5.1-.9.2-1.4s.4-.9.7-1.3.7-.7 1.2-.9 1.1-.4 1.9-.4c.7 0 1.3.1 1.8.4.5.2.9.5 1.2.9s.6.8.7 1.3c.2.5.2 1 .2 1.5zm-2.6-4.8c0-.1 0-.3-.1-.4 0-.2-.1-.3-.2-.5-.1-.1-.2-.3-.4-.4s-.4-.2-.7-.2-.5 0-.7.1-.3.2-.4.3-.2.3-.3.5-.1.3-.1.5v4.6c0 .5.1.9.3 1.2s.6.5 1.1.5c.4 0 .7-.1 1-.4.3-.2.4-.6.4-1v-4.8z"/><path d="m94.9 37.4v-5.1h-2.8v5.1h-2.6v-12.5h2.6v5h2.8v-5h2.6v12.5z"/><path d="m99.7 37.4v-12.5h7.2v2.4h-4.7v2.6h4v2.4h-4v2.7h4.7v2.5h-7.2z"/></g></svg>