<svg enable-background="new 0 0 199.7 93" height="93" viewBox="0 0 199.7 93" width="199.7" xmlns="http://www.w3.org/2000/svg"><path d="m139 40.2h1.5 14.3c4.9 0 9.1 3.4 10.1 8.2.1.3.1.5.3 1 .4-.6.7-1 .9-1.4 4-6.3 11.6-9.6 18.8-8.2 7.6 1.5 13.5 7.3 14.6 14.8 1.8 11.9-6.5 19.9-15.2 21.1-7.8 1.1-13.8-1.9-18.2-8.3-.2-.4-.5-.7-.7-1.1 0 0-.1 0-.2 0-.1.6-.3 1.1-.4 1.7-1.3 4.4-5 7.5-9.6 7.7-5.1.2-10.3 0-15.4 0-.2 0-.4-.1-.6-.1-.2-11.7-.2-23.4-.2-35.4zm51.7 17.5c0-5-4-9.1-9-9.2-5.1-.1-9.2 4-9.3 9.1 0 5 4.1 9.2 9.2 9.2 5 0 9.1-4 9.1-9.1zm-42.3 3.8v5.9c.3 0 .5.1.7.1h3.7c1.7 0 3-1.3 3-3 0-1.6-1.3-3-3-3-1.4-.1-2.8 0-4.4 0zm-.1-7.5c1.7 0 3.3.1 4.9 0 1.4-.1 2.5-1.3 2.6-2.8.1-1.4-.9-3-2.4-3.1-1.7-.2-3.4 0-5.1.2v1.6zm12 3.6c1 .7 1.9 1.4 2.9 2.1 0-1.3 0-2.6 0-3.9-1 .7-2 1.3-2.9 1.8z" fill="#cf1a31"/><path d="m111.3 40.1h9.8v13.2h6.3c0-4.3 0-8.7 0-13.2h9.7v35.7c-3.2 0-6.3 0-9.6 0 0-4.5 0-9 0-13.7-2.1 0-4.2 0-6.3 0v13.6c-3.4 0-6.6 0-9.8 0-.3-.9-.4-33.8-.1-35.6z" fill="#cf1a31"/><path d="m141.8 14.6c.5 0 .9 0 1.3-.1 1.8 2.2 3.5 4.5 5.4 6.8 1.7-2.3 3.3-4.5 5-6.8h1.2v13.1c-.4 0-.8 0-1.3.1 0-3.6 0-7.1 0-10.5-.1 0-.2-.1-.3-.1-1.6 2.1-3.2 4.1-4.9 6.4-1.7-2.1-3.3-4.3-5-6.3-.2 3.5-.1 6.9-.2 10.5-.5 0-.9 0-1.3 0 .1-4.4.1-8.6.1-13.1z" fill="#cf1a31"/><path d="m138.6 21.1c-.1 3.8-3.1 6.8-6.9 6.7-3.9-.1-6.7-3.1-6.6-7.1.1-3.7 3.1-6.5 6.9-6.4 3.9 0 6.7 3 6.6 6.8zm-1.4.2c0-3.1-2.3-5.5-5.3-5.6-2.9-.1-5.4 2.4-5.4 5.3 0 3.1 2.2 5.5 5.3 5.5 3 .1 5.4-2.2 5.4-5.2z" fill="#cf1a31"/><path d="m175.2 21c0-3.8 2.9-6.7 6.8-6.7 3.7 0 6.6 2.9 6.6 6.6 0 3.9-2.9 7-6.8 7-3.7-.1-6.6-3-6.6-6.9zm12.1.2c0-3-2.4-5.5-5.4-5.5-2.9 0-5.3 2.4-5.3 5.4 0 3.1 2.3 5.4 5.4 5.4 3 0 5.3-2.3 5.3-5.3z" fill="#cf1a31"/><path d="m111.2 14.6h1.3v5.7h8.1c0-1.9 0-3.7 0-5.6.5 0 .9-.1 1.4-.1v13.2c-.4 0-.8 0-1.3 0 0-2 0-4 0-6-2.7 0-5.3 0-8.1 0v5.9c-.5 0-.9.1-1.3.1-.1-4.5-.1-8.7-.1-13.2z" fill="#cf1a31"/><path d="m166.4 20.3v1.4c-1.9 0-3.7 0-5.7 0v4.7h6.4v1.3c-2.6 0-5.2 0-7.8 0 0-4.4 0-8.7 0-13.1h7.6c0 .4.1.8.1 1.3-2.1 0-4.2 0-6.3 0v4.3c1.8.1 3.7.1 5.7.1z" fill="#cf1a31"/><path d="m193.3 22.1v5.6c-.5 0-.9 0-1.3 0 0-4.4 0-8.6 0-12.9 1-.3 5.5-.4 7.6-.1 0 .3.1.7.1 1.2-2.1 0-4.1 0-6.2 0v4.8h5.8v1.4c-2.1 0-4 0-6 0z" fill="#cf1a31"/><path d="m197.5 39.7c1.2 0 2.1 1 2.1 2.1 0 1.2-1 2.1-2.2 2.1s-2-.9-2-2.1c0-1.1 1-2.1 2.1-2.1zm.9 3.4c.8-.3.7-.9.6-1.5-.1-.8-.7-1.2-1.6-1.3-.4.2-.8.4-1.2.6-.5 1.3-.4 1.8.3 2.4.7.5 1.2.5 1.9-.2z" fill="#cf1a31"/><path d="m181.6 50.5c3.9 0 7.1 3.3 7.1 7.2s-3.3 7.1-7.1 7.1c-3.9 0-7.2-3.2-7.2-7.2 0-3.9 3.2-7.1 7.2-7.1z" fill="#cf1a31"/><path d="m198.5 43.1c-.4-.3-.8-.5-1.3-.8-.1.2-.2.5-.3.8-.1 0-.1 0-.2 0 0-.7 0-1.3 0-2.1h1.7c-.1.5-.2.9-.3 1.5 0-.1.2.3.4.6-.1 0 0 0 0 0z" fill="#cf1a31"/><path d="m15 92.4h4.4c4.3 0 8.7 0 13-.1-.1-.3-.4-.3-.6-.3-4.4-.9-8.7-1.6-13.1-2.5-3.7-.7-7.3-1.4-11-2.3-2.2-.5-4.5-1.1-6.7-1.8-.4-.2-.6 0-.6.4.4 1.2 1 2.2 1.7 3.1 1.6 2 3.7 3.1 6.2 3.5z" fill="#2d3438"/><path d="m81.3 0c2.8 0 5.3.5 7.6 2.2.5.5.9.9 1.4 1.4 1.3 1.7 2 3.5 2.2 5.6 0 2.6-.2 29.1-.3 38.4v.5c-.2 0-.4 0-.6 0-2.7-.5-5.4-1-8.1-1.6-2.9-.6-5.8-1.1-8.8-1.7-3.6-.7-7.2-1.4-10.8-2.1-.5-.1-1.1-.4-1.7-.2-.4-.8-.6-1.7-.9-2.5-1.1-3.1-2.2-6.2-3.3-9.3-1.8-5.1-3.6-10.2-5.4-15.3-.2-.5-.4-.6-.9-.6-.6 0-1.3 0-1.9 0-2.8 0-5.6 0-8.4 0-.9 0-1 0-1.3.9-.6 1.7-1.2 3.4-1.8 5.1-.3.8-.7 1.5-.8 2.4-.1.1-.2.2-.2.3-.7 1.9-1.4 3.8-2 5.7-.8 2.3-1.6 4.6-2.4 7-.5 1.5-1 3.1-1.6 4.6-1.7-.2-3.3-.6-4.9-.9-2.3-.4-4.6-.9-6.9-1.3-2.8-.5-5.6-1-8.4-1.3-2.1-.2-4.3-.5-6.4-.6-.3 0-.5 0-.8-.1-1.2-.1-2.5-.2-3.7.1 0-8.8 0-17.6 0-26.3 0-.3 0-.5 0-.8-.3-3.8 2.6-7.6 6.4-8.8 1-.3 2-.5 3.1-.5 6.5 0 13 .1 19.5-.1.4 0 36.4-.2 52.1-.2z" fill="#1f262b"/><path d="m.5 85.8c-.3-.7-.4-1.5-.5-2.3 0-1.1 0-2.3 0-3.4.1 0 .2 0 .2.1 3.8 1.7 7.8 2.6 11.7 3.5 4.1.9 8.1 1.6 12.2 2.4 2.6.5 5.1 1 7.7 1.5l12.6 2.4c3.4.6 6.7 1.3 10.1 1.9.4.1.9-.1 1.1.5-2.8 0-5.6 0-8.4 0-4.7 0-9.4 0-14.1 0-.2 0-.5 0-.7 0-.1-.3-.4-.3-.6-.3-4.4-.9-8.7-1.6-13.1-2.5-3.7-.7-7.3-1.4-11-2.3-2.2-.5-4.5-1.1-6.7-1.8-.3-.2-.4-.1-.5.3z" fill="#32393d"/><path d="m92.1 78.6c0 1.9.2 3.8-.1 5.7-.2 1.6-.8 3.1-1.9 4.4-.4.4-.7.9-1.1 1.2-1.4-.5-2.9-.6-4.3-.9-3.6-.7-7.3-1.4-10.9-2.1-2-.4-4.1-.8-6.1-1.2-3.6-.7-7.2-1.4-10.9-2.1-2.2-.4-4.4-.8-6.6-1.3-4.6-.9-9.1-1.8-13.7-2.7-3.1-.6-6.2-1.2-9.4-1.8-1.8-.3-3.6-.7-5.4-1.1-.2 0-.5-.1-.5-.4h9c.4 0 .6-.1.7-.5.4-1.2.8-2.5 1.3-3.7.8-2.1 1.5-4.2 2.2-6.3 1.1.2 2.2.5 3.3.7 2.1.4 4.1.8 6.2 1.2 3.6.7 7.3 1.4 10.9 2.1 1.7.3 3.4.6 5.2 1 .6 1.6 1.2 3.3 1.8 4.9.2.4.3.6.9.6h6 5c.4 0 .5-.1.3-.5-.1-.3-.2-.6-.3-.8h.7c1.3.3 2.6.5 3.9.8 3.6.7 7.3 1.4 10.9 2.1 1 .4 1.9.7 2.9.7z" fill="#40454a"/><path d="m21.2 76.5c0 .3.3.3.5.4 1.8.3 3.6.7 5.4 1.1 3.1.6 6.2 1.2 9.4 1.8 4.6.9 9.1 1.8 13.7 2.7 2.2.4 4.4.9 6.6 1.3 3.6.7 7.2 1.4 10.9 2.1 2 .4 4.1.8 6.1 1.2 3.6.7 7.3 1.4 10.9 2.1 1.4.3 2.9.4 4.3.9-1.9 1.6-4 2.5-6.5 2.5-2 0-4 0-6 0-.1-.3-.4-.3-.6-.3-.9-.2-1.8-.3-2.6-.5-3.4-.7-6.9-1.3-10.3-2-3.5-.7-6.9-1.3-10.4-2-3.3-.6-6.5-1.3-9.8-1.9-3.5-.7-6.9-1.3-10.4-2s-6.9-1.3-10.4-2c-4.4-.9-8.9-1.7-13.3-2.9-2.8-.8-5.5-1.8-8.1-3.3-.2-.1-.4-.2-.6-.2 0-4.9 0-9.9 0-14.8.1 0 .2 0 .3-.1 2.5-1.6 5.3-1.9 8.2-2 1.6-.1 3.1.1 4.7.3 2.6.3 5.2.9 7.8 1.3 1.1.1 2.2.8 3.4.2-.1.3-.3.6-.4 1-.2.8-.7 1.6-.8 2.5 0 .1-.1.2-.1.3-1.6-.3-3.2-.5-4.8-.8-1.7-.3-3.4-.6-5.1-.7s-3.4-.1-5.1.1c-1.5-.2-2.9.3-4.1 1.2-1.4 1.1-1.8 2.4-1.3 4.2.3 1.2 1.1 2.1 2.1 2.8 2.1 1.7 4.6 2.5 7.1 3.3 2.3.7 4.7.9 6.9 1.6-.1.3-.1.5.3.4.7.2 1.4.2 2.1.2z" fill="#3d4347"/><path d="m62.1 42.6c.6-.3 1.1.1 1.7.2l10.8 2.1c2.9.6 5.8 1.1 8.8 1.7 2.7.5 5.4 1 8.1 1.6h.6v10.4c-.2 0-.4 0-.6-.1-1.9-.4-3.7-.7-5.6-1.1-3.6-.7-7.3-1.4-10.9-2.1-1.7-.3-3.4-.7-5.2-1 0-.1-.1-.2-.2-.2 0-.3-.1-.4-.4-.5-.2-.3-.5-.4-.8-.4 0-.1 0-.1 0-.2-.1-.2-.2-.2-.4-.3-1.8-.7-3.1-1.9-3.7-3.8-.3-1.2-.9-2.4-1.3-3.6-.3-.9-.7-1.8-.9-2.7z" fill="#272e32"/><path d="m0 75.3c.2 0 .4.1.6.2 2.6 1.4 5.3 2.5 8.1 3.3 4.4 1.2 8.9 2 13.3 2.9 3.4.7 6.9 1.4 10.4 2 3.5.7 6.9 1.3 10.4 2 3.3.6 6.5 1.3 9.8 1.9 3.5.7 6.9 1.3 10.4 2 3.4.7 6.9 1.3 10.3 2 .9.2 1.8.3 2.6.5.2 0 .5 0 .6.3-4.3 0-8.7 0-13 0-2.6 0-5.2 0-7.9 0-.2-.5-.7-.4-1.1-.5-3.4-.7-6.7-1.3-10.1-1.9-4.2-.8-8.4-1.6-12.6-2.4-2.6-.5-5.1-1-7.7-1.5-4.1-.8-8.2-1.5-12.2-2.4-3.9-.9-7.9-1.8-11.6-3.5-.1 0-.2 0-.2-.1-.1-1.6-.1-3.2-.1-4.8z" fill="#383e43"/><path d="m92.1 62.8v4.9c-.6 0-1.3-.2-1.9-.3-2.1-.4-4.1-.8-6.2-1.2-3.6-.7-7.3-1.4-10.9-2.1-1.2-.2-2.4-.6-3.7-.6-.4-1.1-.8-2.1-1.2-3.2-.2-.8-.4-1.6-1.2-2.1.3-.2.6-.2.9-.1 3.3.6 6.6 1.3 9.9 1.9 2.5.5 5.1 1 7.6 1.5 2.3.5 4.5.9 6.7 1.3z" fill="#32393d"/><path d="m69.5 63.6c1.3 0 2.5.4 3.7.6 3.6.7 7.3 1.4 10.9 2.1 2.1.4 4.1.8 6.2 1.2.6.1 1.2.3 1.9.3v5.3c-1.9-.4-3.9-.8-5.8-1.2-3.6-.7-7.3-1.4-10.9-2.1-1.3-.2-2.6-.7-3.9-.6-.8-1.9-1.4-3.8-2.1-5.6z" fill="#383e43"/><path d="m71.5 69.2c1.3 0 2.6.4 3.9.6 3.6.7 7.3 1.4 10.9 2.1 1.9.4 3.9.8 5.8 1.2v5.5c-1 0-2-.3-2.9-.5-3.7-.7-7.3-1.4-10.9-2.1-1.3-.3-2.6-.5-3.9-.8-.2 0-.5 0-.7 0-.8-2-1.5-4-2.2-6z" fill="#3d4347"/><path d="m92.1 62.8c-2.2-.4-4.4-.9-6.7-1.3-2.5-.5-5.1-1-7.6-1.5-3.3-.6-6.6-1.3-9.9-1.9-.3-.1-.6 0-.9.1-.5-.1-.9-.5-1.4-.5-.1-.3-.3-.5-.4-.8 0 0 0-.1.1-.1.2 0 .4 0 .4-.3.1 0 .3.1.3-.1 1-.3 2-.9 3-1.4.1 0 .1-.1.1-.2.4 0 .5-.3.7-.6 1.7.3 3.4.7 5.2 1 3.6.7 7.3 1.4 10.9 2.1 1.9.4 3.7.7 5.6 1.1.2 0 .4 0 .6.1z" fill="#2d3438"/><path d="m0 10.4v26.3 4.9 6.8 2.4" fill="#383e43"/><path d="m0 48.5c.7-.1 1.4-.2 2.1-.2 1.6 0 3.1-.2 4.7-.1 1.8.1 3.6.3 5.5.5 2.5.3 5 .8 7.5 1.2s4.9.9 7.3 1.4h.6c.2.2 0 .6.5.7 0 .1.1.2.2.2 0 .3.3.3.5.4.1.4.4.5.7.7.1.5-.2.8-.5 1-1 .6-2 1.1-3.1 1.5-.2-.3-.5 0-.8 0-2.8-.6-5.7-1.1-8.5-1.6-3.1-.6-6.3-1-9.4-1-1.6 0-3.1 0-4.7.2-.9.1-1.7.4-2.7.4.1-1 .1-4.6.1-5.3z" fill="#32393d"/><path d="m0 53.8c.9 0 1.8-.2 2.7-.4 1.6-.2 3.1-.2 4.7-.2 3.2 0 6.3.5 9.4 1 2.8.5 5.7 1 8.5 1.6.3.1.5-.3.8 0-.1.2-.3.2-.4.2-.4.2-.9.4-1.3.6-.6.4-.6 1.1-.1 1.3.7.3.8.5.5 1.3-.1.3-.2.6-.3.8-1.2.6-2.3 0-3.4-.2-2.6-.3-5.2-.9-7.8-1.3-1.6-.2-3.1-.4-4.7-.3-2.9.1-5.7.5-8.2 2-.1.1-.2 0-.3.1-.1-2.1-.1-4.3-.1-6.5z" fill="#383e43"/><path d="m0 41.6c0-1.6 0-3.3 0-4.9 1.2-.2 2.5-.1 3.7-.1.3 0 .5 0 .8.1 2.1 0 4.3.3 6.4.6 2.8.3 5.6.9 8.4 1.3 2.3.4 4.6.9 6.9 1.3 1.6.3 3.3.7 4.9.9-.1.3-.2.6-.4.9-.4 1.2-.8 2.4-1.3 3.6-.2 0-.4 0-.6 0-2-.4-3.9-.8-5.9-1.1-2.8-.5-5.5-1-8.3-1.5-1.5-.3-3.1-.4-4.6-.6-1-.1-2-.2-3-.3-1.5-.2-3-.1-4.6-.1-.7-.2-1.5-.1-2.4-.1z" fill="#272e32"/><path d="m37.5 23.1c.1-.8.5-1.6.8-2.4.6-1.7 1.2-3.4 1.8-5.1.3-.9.3-.9 1.3-.9h8.4 1.9c.4 0 .7.2.9.6 1.8 5.1 3.6 10.2 5.4 15.3 1.1 3.1 2.2 6.2 3.3 9.3-.1 0-.1 0-.2 0-.6-1.7-1.2-3.3-1.8-5-.6-1.6-1.2-3.3-1.8-4.9 0-.1-.1-.2-.1-.4-.4-1.1-.7-2.1-1.1-3.2-.6-1.6-1.2-3.2-1.8-4.8 0-.1-.1-.2-.1-.4-.7-2-1.4-4.1-2.1-6.1-.2 0-.3-.1-.6-.1-3.6 0-7.2 0-10.8 0-.2 0-.4.1-.5.3-.5 1.5-1.1 3-1.5 4.5 0 .1-.1.2-.1.4-.4 1-.8 2-1.2 3.1 0-.1-.1-.1-.1-.2z" fill="#2d3438"/><path d="m37.5 23.1s.1.1.1.1c-.2.6-.4 1.2-.6 1.8-1.6 4.6-3.2 9.1-4.9 13.7-.2.5-.5 1.1-.5 1.7-.2.1-.2.2-.1.4-.2.1-.2.2-.1.4s-.1.1-.1.1c-.3.9-.7 1.8-1 2.7-.3 1-.8 1.9-.9 2.9-.3.2-.2.6-.4.9 0 0-.1-.1-.1-.1.2-.7.5-1.5.7-2.2.5-1.2.9-2.4 1.3-3.6.1-.3.2-.6.4-.9.5-1.5 1-3.1 1.6-4.6.8-2.3 1.6-4.6 2.4-7 .7-1.9 1.3-3.8 2-5.7 0-.3.1-.5.2-.6z" fill="#40454a"/><path d="m61 40.1h.2c.4.8.5 1.7.9 2.5.1.9.6 1.8.9 2.7.4 1.2 1 2.4 1.3 3.6.5 2 1.8 3.1 3.7 3.8.2.1.3.1.4.3 0 0-.1.1-.1.1-1-.4-1.9-.8-2.7-1.6-.1-.1-.1-.1-.2-.2s-.2-.2-.3-.4c-.6-.7-.8-1.5-1.1-2.3-1-2.8-2-5.6-3-8.5z" fill="#32393d"/><path d="m59.9 71c-1.7-.3-3.4-.6-5.2-1-3.6-.7-7.3-1.4-10.9-2.1-2.1-.4-4.1-.8-6.2-1.2-1.1-.2-2.2-.4-3.3-.7.1-.3.2-.5.2-.8.3-.2.3-.6.4-.9.4-1.1.7-2.1 1.2-3.2.1.2.3.3.6.4 2.5.5 5.1.9 7.6 1.4 4.3.8 8.6 1.7 12.8 2.5.3.1.5 0 .7-.2h.1.1v.1c0 .9.5 1.6.7 2.5.5 1.1 1 2.1 1.2 3.2z" fill="#3d4347"/><path d="m59.9 71c-.2-1.1-.7-2-1-3.1-.2-.8-.6-1.6-.7-2.5.5 1.3.9 2.6 1.4 3.9.2.6.4 1.2.7 1.7.2 1.1.7 2.1 1 3.2.2.5.3 1 .5 1.4.1.5.4.6.8.6h10.3c.6 0 .7 0 .4-.6-1.2-3.5-2.4-6.9-3.6-10.4-.3-.9-.7-1.8-1-2.7-.3-1-.7-2-1-3.1-.2-.5-.5-.9-1-1.1-.4-.2-.8-.3-1.1-.6.5 0 .9.3 1.4.5.7.5 1 1.3 1.2 2.1.3 1.1.7 2.2 1.2 3.2.7 1.9 1.3 3.8 2 5.7.7 2 1.4 4 2.1 6 .1.3.2.6.3.8.1.4.1.5-.3.5-1.7 0-3.3 0-5 0-2 0-4 0-6 0-.5 0-.7-.2-.9-.6-.5-1.7-1.1-3.3-1.7-4.9z" fill="#aeb0b2"/><path d="m34.6 65.2c-.1.3-.2.5-.2.8-.7 2.1-1.4 4.2-2.2 6.3-.4 1.2-.8 2.5-1.3 3.7-.1.4-.3.5-.7.5-3 0-6 0-9 0-.7 0-1.4 0-2.1 0-.4 0-.4-.2-.3-.4.6-1.7 1.2-3.4 1.9-5.2.8-2.1 1.6-4.2 2.4-6.4-.1.8-.5 1.5-.7 2.3v.2.1c-.1.1-.1.1 0 .1v.2c-.4 0-.4.2-.4.3-.5 1.6-1.1 3.1-1.6 4.7v.1.2c-.2 0-.2.2-.2.4-.3.9-.6 1.8-1 2.7-.2.4 0 .5.3.5h10.6c.3 0 .5-.1.6-.4.6-1.9 1.3-3.8 2-5.7.6-1.7 1.2-3.3 1.8-5z" fill="#aeb0b2"/><path d="m23 64.5c-.8 2.1-1.6 4.2-2.4 6.4-.6 1.7-1.3 3.4-1.9 5.2-2.3-.7-4.7-.9-6.9-1.6-2.5-.8-5-1.6-7.1-3.3-.9-.8-1.8-1.6-2.1-2.8-.4-1.9 0-3.2 1.4-4.4 1.2-1 2.6-1.4 4.2-1.6 1.7-.2 3.4-.2 5.1-.1s3.4.5 5.1.7c1.6.2 3.2.5 4.8.8-.1.3-.1.5-.2.7z" fill="#40454a"/><path d="m24.4 60.1c.1-.3.2-.6.3-.8.3-.8.2-.9-.5-1.3-.6-.3-.5-.9.1-1.3.4-.3.9-.4 1.3-.6.2-.1.3-.1.4-.2 1.1-.4 2.1-.9 3.1-1.5.3-.2.6-.5.5-1 .4.3 0 .6-.1 1 0 0-.1.1-.1.1-.4.2-.7.4-1 .6-.1 0-.2.1-.3.1-.5.2-1 .4-1.4.7-.1.1-.2.1-.3.2-.3.1-.7.2-1 .4-.1 0-.2.1-.3.1-.3.1-.6.2-.8.5 0 0-.1.1-.1.1-.4.4-.2.6.2.8.7.3.8.6.6 1.2-.5 1.6-1.1 3.1-1.7 4.7 0 0 0-.1-.1-.1 0-.9.5-1.7.8-2.5.1-.5.3-.9.4-1.2z" fill="#40454a"/><path d="m23.3 63.6s0 .1.1.1c0 .2-.1.3-.1.5-.1 0-.1.1-.1.2 0 0-.1 0-.1.1.1-.2.1-.4.2-.6-.1-.1-.1-.2 0-.3z" fill="#aeb0b2"/><path d="m65.8 57.8c.3.3.8.4 1.1.6.5.3.8.6 1 1.1.3 1 .7 2 1 3.1v.5c-.4-.7-.6-1.5-.8-2.3-.3-1.3-.9-2.3-2.3-2.8-.4-.1-.6-.5-.6-.9s.2-.7.6-.9c1-.6 2.2-1.1 3.2-1.7.2-.1.4-.2.5-.4 0-.2-.3-.4-.5-.5-.1-.1-.2-.1-.3-.2-.9-.4-1.8-.7-2.5-1.3-.2-.2-.5-.3-.5-.7.8.7 1.8 1.1 2.7 1.6h.1c.2.1.5.2.7.4 0 0 .1.1.1.1.1.1.2.2.4.4.1.4-.3.5-.5.8-1 .5-2.1.9-3.1 1.6 0 .2-.2.1-.3.1-.2.1-.3.1-.4.3 0 0 0 .1-.1.1-.1.6.1.8.5 1z" fill="#e65e72"/><path d="m69.2 54.8c.1-.3.6-.4.5-.8.2 0 .2.1.2.2-.2.3-.3.6-.7.6z" fill="#aeb0b2"/><path d="m69.2 53.5c-.2-.1-.5-.2-.7-.4.3 0 .6.1.8.4z" fill="#aeb0b2"/><path d="m69.6 54c-.1-.1-.2-.2-.4-.4v-.1c.3.1.5.2.4.5z" fill="#aeb0b2"/><path d="m68.4 53.2h-.1s.1-.1.1-.1c0-.1 0 0 0 .1z" fill="#aeb0b2"/><path d="m66.1 56.4c.9-.7 2-1.1 3.1-1.6 0 .1 0 .2-.1.2-1 .5-1.9 1.1-3 1.4z" fill="#aeb0b2"/><path d="m65.8 57.8c-.4-.1-.5-.4-.4-.8.1.2.2.5.4.8z" fill="#aeb0b2"/><path d="m65.4 56.8c.1-.2.3-.2.4-.3 0 .3-.2.3-.4.3z" fill="#aeb0b2"/><path d="m29.6 45.3c-.2.7-.5 1.5-.7 2.2-.3.8-.7 1.6-.8 2.5-.3.4-.2.9-.2 1.3-.2 0-.4.1-.6 0-2.4-.5-4.9-1-7.3-1.4-2.5-.4-5-.9-7.5-1.2-1.8-.2-3.6-.4-5.5-.5-1.6-.1-3.2 0-4.7.1-.7 0-1.4.1-2.1.2 0-2.3 0-4.6 0-6.8.8 0 1.7-.1 2.5-.1 1.5.1 3 0 4.6.1 1 .1 2 .1 3 .3 1.5.2 3.1.4 4.6.6 2.8.5 5.5 1 8.3 1.5 2 .4 3.9.8 5.9 1.1.1.1.3.1.5.1z" fill="#2d3438"/><path d="m27.8 51.3c0-.4-.1-.9.2-1.3h.1v.3.3c-.2.2 0 .5 0 .7 0 .1 0 .3.1.4v.2c-.3 0-.1-.4-.4-.6z" fill="#40454a"/><path d="m29.7 53.3c-.3-.2-.6-.3-.7-.7.1.1.3.1.4.2s.1.1.2.2.1.2.1.3z" fill="#40454a"/><path d="m29 52.6c-.2-.1-.4-.1-.5-.4.1 0 .3.1.4.1.1.1.1.2.1.3z" fill="#40454a"/><path d="m28.5 52.2c-.1 0-.2-.1-.2-.2h.2z" fill="#40454a"/><path d="m29.7 53c-.1-.1-.1-.1-.2-.2 0-.3-.2-.4-.5-.4 0-.3-.2-.3-.5-.4 0-.2 0-.2-.2-.3-.1-.1-.1-.2-.1-.4.2-.2.2-.5 0-.7 0-.1 0-.2 0-.3.4-.1.3-.4.3-.6.3-1 .8-1.9.9-2.9l.2-.2c.6-1.7 1.3-3.5 1.9-5.3 0-.1 0-.2 0-.2.1-.1.1-.2.1-.4.1-.1.1-.2.1-.4.1-.1.2-.2.2-.3.5-1.3 1-2.7 1.4-4 1.3-3.6 2.6-7.2 3.8-10.8 0 0 .1-.1.1-.1.5-1.5 1.1-3 1.6-4.5.1-.1.1-.3 0-.4 0-.1.1-.2.1-.4.3 0 .3-.3.3-.5.4-1.2.9-2.4 1.3-3.6.1-.4.3-.5.8-.5h10c.6 0 .8.2 1 .7.6 1.7 1.2 3.4 1.8 5.1.1.2 0 .4.3.4 0 .1.1.2.1.4-.2.1 0 .3 0 .4.8 2.4 1.7 4.8 2.5 7.3.1.1.1.3.3.3 0 .1.1.2.1.4-.2.2 0 .4.1.6 1.1 3.1 2.2 6.2 3.2 9.3 1.1 3.2 2.3 6.5 3.4 9.7.2.5.4 1 .8 1.3.1.2.2.3.4.2.1.1.1.1.2.2 0 .4.3.5.5.7.8.6 1.7.9 2.5 1.3.1.1.2.1.3.2.2.1.5.2.5.5 0 .2-.3.3-.5.4-1.1.6-3.8 2.1-3.8 2.5s.2.8.6.9c1.4.4 2 1.4 2.3 2.8.2.8.4 1.5.8 2.3.1.2.1.4.2.6 1.4 4 2.8 8.1 4.2 12.1-.2.2-.5.1-.7.1-3.4 0-6.9 0-10.3 0-.2-.5-.4-1.1-.6-1.7-.3-1-.7-2-1-2.9 0-.1-.1-.3-.3-.3 0-.7-.3-1.4-.5-2-.5-1.5-1-3-1.6-4.5-.3-.7-.3-1.4-.8-2 0-.2-.1-.5-.1-.7 0-.5-.2-.6-.7-.6-.9 0-1.8 0-2.6 0-4.6 0-9.1 0-13.7 0-.5 0-.6-.1-.4-.6.2-.4.3-.8.4-1.2.4-1 .2-1.4-.7-1.9-.2-.1-.2-.4-.2-.6h.2c1.4-.7 2.8-1.3 4.3-2 .2-.1.5-.2.4-.5.3 0 .6-.1.6-.5.2-.3.5-.5 0-.8v-.1c0-.4-.2-.6-.6-.6 0 0-.1-.1-.1-.1 0-.3-.2-.4-.5-.4 0-.2-.1-.3-.2-.2 0-.1 0-.2 0-.3-.2-.7-.1-.7.6-.7h1.6c.2 0 .4.1.5-.2h6.4c.2.3.5.2.7.1s0-.4 0-.5c-.6-1.7-1.2-3.5-1.8-5.2-.1-.2-.1-.4-.3-.4 0 0 0 0 0-.1s0-.3 0-.4c-.4-1.1-.8-2.2-1.2-3.4 0-.1-.1-.1-.2-.2-.1-.2-.2-.5-.3-.7.1-.4 0-.7-.3-1-.1-.1-.1-.3-.2-.5.2-.2.1-.2-.1-.3 0-.1-.1-.2-.1-.3.1-.4 0-.7-.3-.9-.1-.1-.1-.3-.2-.5.2-.2.1-.2-.1-.3-.1-.2-.2-.5-.2-.7.1-.5-.1-1-.5-1.3-.1-.2-.2-.5-.2-.7.1-.5-.1-1-.5-1.3-.1-.2-.2-.5-.2-.7.2-.2 0-.4-.1-.7-.1.3-.3.4-.1.7 0 .1-.1.2-.1.3-.2 0-.3.1-.1.3 0 .2 0 .3-.2.5-.4.2-.4.6-.3 1-.1.2-.2.5-.2.7-.4.3-.5.8-.5 1.3-.1.2-.2.5-.2.7-.2 0-.3.1-.1.3 0 .2 0 .3-.2.5-.4.2-.4.6-.3 1-.1.2-.2.5-.3.7-.3 0-.3.3-.3.4-1.1 3-2.2 6-3.2 9-.3.9-.7 1.7-.8 2.6-.1.6.2 1.1.5 1.3 0 .3.2.4.5.4 0 .3.2.4.5.4s.1.1.1.1c0 .1.1.1.1.2 0 .3-.1.7-.1 1 0 .1-.1.2-.2.2-.2 0-.3 0-.5.1-1.2.6-2.5 1.2-3.7 1.8-.4.2-.7.3-1 .6-.5.5-.4 1 .3 1.2.1.1.3.1.5.1 0 .7-.2 1.4-.4 2-.5 1.2-1 2.5-1.3 3.8v.3c-.5.5-.5 1.1-.7 1.7-.5 1.4-1 2.8-1.5 4.2-.7 1.9-1.4 3.8-2 5.7-3.7 0-7.4 0-11.1 0 .3-1 .7-2.1 1.1-3.1.5-.9.7-2 1.1-2.9.3-.8.7-1.6.8-2.4 0-.1 0-.1 0-.2h.1-.1v-.1-.1c.2.1.2-.1.3-.2.2-.1.2-.3.3-.5.5-1.4 1-2.7 1.4-4.1.3-1.1.9-2.1 1.1-3.2.1-.6 0-1-.6-1.2-.4-.1-.4-.3-.4-.7 0 0 .1-.1.1-.1.3 0 .7-.1.8-.5.1 0 .2-.1.3-.1.4.1.7-.1 1-.4.1-.1.2-.1.3-.2.6.1 1-.2 1.4-.7.1 0 .2-.1.3-.1.4 0 .8-.1 1-.6 0 0 .1-.1.1-.1.4-.1.4-.4.4-.7-.2-.1-.2-.4-.6-.4z" fill="#cf1a31"/><path d="m54.3 21.5c-.3 0-.3-.3-.3-.4-.6-1.7-1.2-3.4-1.8-5.1-.2-.5-.4-.7-1-.7-3.3 0-6.7 0-10 0-.4 0-.6.1-.8.5-.4 1.2-.8 2.4-1.3 3.6-.1.2 0 .5-.3.5.4-1.5 1-3 1.5-4.5.1-.2.2-.3.5-.3h10.8c.3 0 .4.1.5.4.8 1.9 1.5 4 2.2 6z" fill="#d22a3f"/><path d="m64.9 51.2c-.4-.4-.6-.8-.8-1.3-1.1-3.2-2.3-6.5-3.4-9.7-1.1-3.1-2.2-6.2-3.2-9.3-.1-.2-.3-.4-.1-.6.6 1.6 1.2 3.3 1.8 4.9.6 1.7 1.2 3.3 1.8 5 1 2.9 2 5.7 3 8.6.3.8.5 1.6 1.1 2.3-.1 0-.1 0-.2.1z" fill="#d22a3f"/><path d="m57.3 29.9c-.2 0-.2-.2-.3-.3-.8-2.4-1.7-4.8-2.5-7.3 0-.1-.2-.3 0-.4.6 1.6 1.2 3.2 1.8 4.8.3 1 .6 2.1 1 3.2z" fill="#d22a3f"/><path d="m38.8 20.2c.2.1.1.3 0 .4-.5 1.5-1.1 3-1.6 4.5 0 0-.1.1-.1.1 0-.1-.1-.1-.1-.2.2-.6.4-1.2.6-1.8.4-1 .8-2 1.2-3z" fill="#d22a3f"/><path d="m37 25c0 .1.1.1.1.2-1.2 3.6-2.5 7.2-3.8 10.8-.5 1.3-1 2.7-1.4 4 0 .1-.1.2-.2.3 0-.6.3-1.1.5-1.7 1.6-4.4 3.2-9 4.8-13.6z" fill="#e65e72"/><path d="m31.5 41.4c-.6 1.8-1.2 3.5-1.9 5.3 0 .1-.1.1-.2.2.2-1 .6-1.9.9-2.9.3-.9.6-1.8 1-2.7.1 0 .1 0 .2.1z" fill="#d22a3f"/><path d="m29.5 46.8c-.2 1-.6 2-.9 2.9-.1.2 0 .5-.3.6 0-.1 0-.2 0-.3s.1-.1.1-.1c.1-.2.1-.4.2-.6 0 0 .1-.1.1-.1v-.1c.1-.1.1-.1.1-.2s.1-.2.1-.3v-.1c.1-.3.2-.5.3-.8 0-.3 0-.7.3-.9z" fill="#d22a3f"/><path d="m29 47.7c0 .3-.1.6-.3.8v.1c0 .1-.1.2-.1.3s-.1.1-.1.2v.1s-.1.1-.1.1c-.1.2-.1.4-.2.6 0 0-.1.1-.1.1h-.1c.2-.9.5-1.7.8-2.5.1.1.2.1.2.2z" fill="#32393d"/><path d="m31.6 40.8c0 .1 0 .3-.1.4-.1-.2-.1-.3.1-.4z" fill="#e65e72"/><path d="m31.7 40.4c0 .1 0 .3-.1.4 0-.1 0-.3.1-.4z" fill="#e65e72"/><path d="m31.5 41.4s-.1-.1-.1-.1.1-.1.1-.1z" fill="#e65e72"/><path d="m64.9 51.2s.1-.1.1-.1c.1.1.2.2.3.4-.1-.1-.3-.2-.4-.3z" fill="#e65e72"/><path d="m58 65.3c-.2.2-.4.2-.7.2-4.3-.9-8.6-1.7-12.8-2.5-2.5-.5-5.1-1-7.6-1.4-.2 0-.5-.1-.6-.4 0-.2.1-.4.2-.5.3-.8.7-1.5.6-2.4.6.3 1.3.4 2 .5.4.1.7 0 .9-.3.2.2.1.4 0 .6-.2.6-.5 1.3-.7 1.9-.3.8-.3.8.6.8h16.4c.4 0 .7.1.8.6.2.9.5 1.9.9 2.9z" fill="#383e43"/><path d="m58 65.3c-.3-1-.7-2-1-3-.1-.4-.3-.6-.8-.6-5.5 0-10.9 0-16.4 0-.8 0-.8 0-.6-.8.2-.6.5-1.3.7-1.9.1-.2.2-.4 0-.6 0-.4-.3-.3-.5-.4-.5-.3-.6-.7-.2-1.1.1-.2.3-.3.5-.4 1.2-.6 2.4-1.1 3.7-1.7.1-.1.2-.2.3 0-.7.4-1.4.7-2.1 1.1s-1.6.5-2.1 1.1c-.4.4-.3.6.2.8.6.3.8.6.6 1.2s-.4 1.2-.6 1.8c-.2.7-.2.7.5.7h16.3c.4 0 .7.1.8.5 0 .2.1.4.2.6.1.9.5 1.7.8 2.5 0 .1 0 .1-.1.2-.1 0-.2 0-.2 0z" fill="#515258"/><path d="m36.9 58.2c.1.9-.3 1.6-.6 2.4-.1.2-.2.3-.2.5-.5 1-.8 2.1-1.2 3.2-.1.3-.2.6-.4.9-.1 0-.1-.1-.2-.1 0-.3.3-.5.2-.9.1 0 .1-.1.1-.2.6-1.6 1.2-3.2 1.7-4.8.1-.4.3-.8-.1-1.2-.1-.1-.2-.2-.3-.2-.6-.2-.7-.6-.1-1 .1-.1.3-.2.4-.2 1.3-.6 2.5-1.2 3.8-1.8v.2c-.7.5-1.6.8-2.4 1.2-.6.3-1.1.5-1.7.9-.2.1-.5.4 0 .5.6.1.8.4 1 .6z" fill="#515258"/><path d="m58.2 65.1c-.3-.8-.7-1.6-.8-2.5.5.6.6 1.3.8 2 .6 1.5 1.1 3 1.6 4.5.2.7.5 1.3.5 2-.3-.5-.5-1.1-.7-1.7-.5-1.3-.9-2.6-1.4-3.9v-.1c0-.2 0-.2 0-.3z" fill="#e65e72"/><path d="m58.2 65.1v.2h-.1c0-.1.1-.1.1-.2z" fill="#aeb0b2"/><path d="m61.6 74.3c.1.6.3 1.1.6 1.7.2.2.4.1.6.1h5.6 4.3c.1 0 .5.2.4-.2-1.4-4-2.8-8.1-4.2-12.1-.1-.2-.1-.4-.2-.6 0-.2 0-.3 0-.5.3.9.7 1.8 1 2.7 1.2 3.4 2.4 6.9 3.6 10.4.2.6.2.6-.4.6-3.4 0-6.9 0-10.3 0-.5 0-.7-.1-.8-.6s-.3-1-.5-1.4c.2-.1.3-.1.3-.1z" fill="#df96a4"/><path d="m61.6 74.3c-.1 0-.1 0-.2 0-.3-1.1-.8-2.1-1-3.2.2 0 .2.1.3.3.3.9.6 1.9.9 2.9z" fill="#e65e72"/><path d="m20.4 72.8c-.4 1-.8 2-1.1 3.1 0 .2.2.1.4.1h10.3c.2 0 .4.1.5-.1.7-1.9 1.4-3.8 2-5.7h.2c-.7 1.9-1.3 3.8-2 5.7-.1.3-.3.4-.6.4-3.5 0-7.1 0-10.6 0-.4 0-.5-.1-.3-.5.3-.9.6-1.8 1-2.7 0-.1 0-.3.2-.4z" fill="#df96a4"/><path d="m24.3 57c0 .3.1.5.4.7.5.2.7.6.6 1.2-.3 1.1-.8 2.1-1.1 3.2-.4 1.4-.9 2.7-1.4 4.1-.1.2-.1.4-.3.5-.1 0-.1 0-.2 0 .2-.8.6-1.5.7-2.3 0 0 .1 0 .1-.1s.1-.1.1-.2c0-.2.1-.3.1-.5.6-1.6 1.2-3.1 1.7-4.7.2-.7.1-.9-.6-1.2-.4 0-.5-.3-.1-.7z" fill="#d22a3f"/><path d="m32.7 70.2c-.1 0-.1 0-.2 0 .5-1.4 1-2.8 1.5-4.2.2-.6.2-1.2.7-1.7.1.3-.2.6-.2.9-.6 1.6-1.2 3.3-1.8 5z" fill="#e65e72"/><path d="m20.4 72.8v-.1c0-.1 0-.1 0-.2v-.1c.5-1.6 1.1-3.1 1.6-4.7 0-.1 0-.3.2-.2-.1.9-.5 1.6-.8 2.4-.3 1-.5 2-1 2.9z" fill="#e65e72"/><path d="m22.3 66.7h.2c0 .1-.1.3-.3.2.1 0 .1-.1.1-.2z" fill="#e65e72"/><path d="m22.3 67.1v.1c-.1 0-.1-.1 0-.1z" fill="#e65e72"/><path d="m20.4 72.4v.1z" fill="#df96a4"/><path d="m22.3 67.2c0 .1 0 .1 0 0-.1.1 0 0 0 0z" fill="#e65e72"/><path d="m28.3 55.1c-.4.4-.8.7-1.4.7.4-.3.9-.6 1.4-.7z" fill="#d22a3f"/><path d="m29.7 53c.4 0 .4.3.4.6s0 .6-.4.7c.1-.3.5-.6.1-1-.1-.1-.1-.2-.1-.3z" fill="#d22a3f"/><path d="m26.5 55.9c-.2.3-.5.6-1 .4.4-.2.7-.3 1-.4z" fill="#d22a3f"/><path d="m29.6 54.3c-.1.5-.5.6-1 .6.3-.2.6-.4 1-.6z" fill="#d22a3f"/><path d="m25.2 56.5c-.2.4-.5.4-.8.5.2-.3.5-.4.8-.5z" fill="#d22a3f"/><path d="m23.2 64.2c0 .1-.1.1-.1.2 0-.1 0-.1.1-.2z" fill="#40454a"/><path d="m69.3 53.5v.1s-.1-.1-.1-.1z" fill="#32393d"/><path d="m28.2 50.7c.2.2.2.5 0 .7-.1-.2-.2-.5 0-.7z" fill="#d22a3f"/><path d="m28.3 51.8c.2 0 .2.1.2.3-.1 0-.1 0-.2 0 0-.2 0-.3 0-.3z" fill="#d22a3f"/><path d="m29 52.4c.2 0 .5.1.5.4-.1-.1-.3-.1-.4-.2s-.1-.2-.1-.2z" fill="#d22a3f"/><path d="m28.5 52c.2 0 .5.1.5.4-.1 0-.3-.1-.4-.1-.1-.1-.1-.2-.1-.3z" fill="#d22a3f"/><path d="m41.2 52.9s-.1-.1-.1-.1c0-.3-.1-.4-.4-.3-.1 0-.1 0-.2 0v-.1c.1-.3-.2-.2-.3-.2s-.1 0-.2 0c0-.1 0-.1 0-.2.2-.1.1-.2 0-.4-.2-.3-.2-.7-.1-1 .2-.9.5-1.8.9-2.6.1.3.4.5.7.6 2.4.4 4.8.9 7.2 1.3.4.1.9-.1 1.1.4-2.1 0-4.1 0-6.2 0-.3 0-.6 0-.6.4 0 .7.1 1.3.7 1.7.3.2.6.5.9.7.4.3.3.7-.1 1-.3.2-.5.4-.9.2-.6-.2-1.3 0-1.8-.6-.1-.3-.1-.7-.6-.8z" fill="#2d3438"/><path d="m41.7 53.8c.5.6 1.2.4 1.8.6.4.1.6 0 .9-.2.4-.3.4-.6.1-1-.3-.3-.5-.5-.9-.7-.6-.4-.7-1-.7-1.7 0-.4.3-.4.6-.4h6.2 2.1c.9 0 .9 0 .6-.8-.1-.3-.2-.5-.3-.8-.4-1-.8-2-1-3.1h.1c.5 1.4 1 2.9 1.6 4.3.2.5.2.7-.4.7-2.1 0-4.2 0-6.4 0-.8 0-1.6 0-2.3 0-.6 0-.7.1-.6.8.1.2.1.4.3.5 0 .1.1.2.2.2.1.2.3.3.5.4 0 0 .1.1.1.1l.6.6v.1.8c-.3.1-.4.3-.6.5-.3 0-.4.2-.7.3-.1-.2-.2-.1-.3 0-1.2.6-2.4 1.1-3.7 1.7-.2.1-.4.2-.5.4-.4.4-.3.9.2 1.1.2.1.5.1.5.4-.3.3-.5.4-.9.3-.7-.1-1.4-.2-2-.5-.2-.2-.4-.5-.8-.6-.5-.1-.2-.4 0-.5.5-.4 1.1-.6 1.7-.9.8-.4 1.7-.6 2.4-1.2.3 0 .5-.1.5-.4.1-.1.2-.2.3-.2s.2-.1.2-.2c.1-.1.1-.1.2-.2.4 0 .2-.5.4-.4z" fill="#32393d"/><path d="m51.3 45.6h-.1c-.3-.2-.1-.8-.6-.9 0-.3-.1-.6-.2-.9-1.1-3.2-2.3-6.5-3.4-9.7-.2-.6-.4-1.2-.7-1.9-.2.4-.3.7-.4 1-.8 2.3-1.6 4.7-2.5 7-.1.2-.1.4-.3.4.2-.7.4-1.3.6-2 .1-.2.2-.5.3-.7.2-.3.3-.6.3-1 .1-.1.1-.3.2-.5 0-.1.1-.2.1-.3.1-.2.2-.5.2-.7.2-.4.3-.9.5-1.3.1-.2.2-.5.2-.7.2-.3.3-.6.3-1 .1-.1.1-.3.2-.5 0-.1.1-.2.1-.3s.1-.2.1-.3h.2c.1.2.2.5.2.7.1.5.2.9.5 1.3.1.2.2.5.2.7.1.5.2.9.5 1.3.1.2.2.5.2.7 0 .1.1.2.1.3 0 .2 0 .3.2.5.1.3.2.7.3.9 0 .1.1.2.1.3s.1.2.1.3c0 .2 0 .3.2.5.1.3.2.7.3 1 .1.2.2.5.3.7.2.7.3 1.4.6 2s.3 1.4.8 1.9v.1c.1.5.2.8.3 1.1z" fill="#2d3438"/><path d="m57.2 62c-.1-.4-.4-.5-.8-.5-5.4 0-10.9 0-16.3 0-.7 0-.7 0-.5-.7.2-.6.4-1.2.6-1.8.2-.7 0-1-.6-1.2-.4-.2-.6-.4-.2-.8 0 .2 0 .4.2.6.9.5 1 1 .7 1.9-.1.4-.2.8-.4 1.2-.2.5-.1.6.4.6h13.7 2.6c.5 0 .7.2.7.6-.1.1-.1.1-.1.1z" fill="#d22a3f"/><path d="m43.7 38.7c-.2.7-.4 1.3-.6 2-.1.1-.2.3-.2.5-.2.4-.3.8-.4 1.2-.4 1-.7 1.9-1 3-.3.6-.5 1.2-.6 1.8v.1c-.5 1.1-.9 2.2-1.2 3.4-.1.5-.1 1 .2 1.4v.2c-.4-.2-.6-.8-.5-1.3.1-.9.5-1.8.8-2.6 1-3 2.1-6 3.2-9 .1-.4.1-.7.3-.7z" fill="#d22a3f"/><path d="m40.9 54.4c-.1.1-.2.2-.3.2-.2.1-.3.2-.5.2-1.3.6-2.6 1.2-3.8 1.8-.1.1-.3.1-.4.2-.5.4-.5.8.1 1 .1.1.3.1.3.2-.2 0-.3 0-.5-.1-.7-.2-.8-.7-.3-1.2.3-.3.7-.4 1-.6 1.2-.6 2.5-1.2 3.7-1.8.4.1.6 0 .7.1z" fill="#d22a3f"/><path d="m51.3 45.6c-.1-.3-.2-.6-.3-.9.2 0 .2.2.3.4.6 1.7 1.2 3.5 1.8 5.2.1.2.3.4 0 .5-.2.1-.5.2-.7-.1.6 0 .6-.2.4-.7-.5-1.5-1-2.9-1.5-4.4z" fill="#d22a3f"/><path d="m36.4 58.1c.4.4.3.8.1 1.2-.6 1.6-1.2 3.2-1.7 4.8 0 0-.1-.1-.1-.1.3-1.3.9-2.5 1.3-3.8.3-.7.5-1.4.4-2.1z" fill="#d22a3f"/><path d="m30.4 75.9c-.1.2-.3.1-.5.1-3.4 0-6.8 0-10.3 0-.1 0-.3.1-.4-.1z" fill="#e65e72"/><path d="m73.2 75.8c.1.4-.3.2-.4.2-1.4 0-2.9 0-4.3 0-1.9 0-3.8 0-5.6 0-.2 0-.4.1-.6-.1h10.3c.2 0 .4.1.6-.1z" fill="#e65e72"/><path d="m43.6 54.9c.2-.1.4-.3.7-.3 0 .3-.3.4-.4.5-1.4.7-2.8 1.3-4.3 2-.1 0-.2 0-.2 0 .6-.6 1.4-.8 2.1-1.1.7-.4 1.4-.7 2.1-1.1z" fill="#d22a3f"/><path d="m43.5 51.9c-.2-.1-.2-.3-.3-.5-.2-.6-.1-.8.6-.8h2.3c-.1.3-.3.2-.5.2-.5 0-1 0-1.6 0-.7 0-.7.1-.6.7.1.2.1.3.1.4z" fill="#d22a3f"/><path d="m51 44.6c-.4-.6-.5-1.3-.8-1.9s-.4-1.3-.6-2c.1 0 .2 0 .2.2.4 1.1.8 2.2 1.2 3.4.1 0 0 .2 0 .3z" fill="#d22a3f"/><path d="m47.8 35.6c-.2-.4-.4-.9-.5-1.3.5.4.6.8.5 1.3z" fill="#d22a3f"/><path d="m45.3 34.3c-.1.4-.2.9-.5 1.3-.1-.5.1-.9.5-1.3z" fill="#d22a3f"/><path d="m47.1 33.6c-.2-.4-.4-.9-.5-1.3.5.4.6.8.5 1.3z" fill="#d22a3f"/><path d="m41.7 53.8c-.2 0 0 .5-.4.2.1-.3.2-.6-.1-.9 0-.1-.1-.1-.1-.2.6.1.6.5.6.9z" fill="#40454a"/><g fill="#d22a3f"><path d="m41.3 53.2c.3.3.2.6.1.9-.1.1-.1.1-.2.2 0-.5 0-.8.1-1.1z"/><path d="m49.4 40c-.2-.3-.3-.6-.3-1 .3.3.4.6.3 1z"/><path d="m48.7 38c-.2-.3-.3-.6-.3-.9.3.2.4.5.3.9z"/><path d="m44.3 37c-.1.3-.2.7-.3 1-.1-.4 0-.7.3-1z"/><path d="m46.4 31.6c-.1 0-.1 0-.2 0-.2-.2 0-.4.1-.7.1.3.3.5.1.7z"/><path d="m45.8 32.7c-.1.3-.2.7-.3 1-.1-.5 0-.8.3-1z"/><path d="m44.9 53.2c-.2-.2-.4-.4-.6-.6.4 0 .6.2.6.6z"/><path d="m44.9 54.1c0-.3 0-.5 0-.8.5.3.2.5 0 .8z"/><path d="m44.3 54.6c.2-.2.3-.4.6-.5 0 .4-.2.5-.6.5z"/><path d="m44.2 52.5c-.2-.1-.4-.2-.5-.4.3 0 .5.1.5.4z"/><path d="m40.5 52.3v.1c-.3 0-.5 0-.5-.4h.2c0 .2.1.3.3.3z"/><path d="m40.5 52.5h.2l.3.3c-.3 0-.6 0-.5-.3z"/></g><path d="m57.2 62s.1-.1.1-.1c0 .2.2.4.1.7-.2-.1-.2-.3-.2-.6z" fill="#e65e72"/><path d="m40.9 52.8c-.1-.1-.2-.2-.3-.3.3-.1.5 0 .3.3.1 0 .1 0 0 0z" fill="#40454a"/><path d="m46.1 32c0 .1-.1.2-.1.3-.2-.2-.1-.3.1-.3z" fill="#d22a3f"/><path d="m43.7 52.1c-.1 0-.2-.1-.2-.2.2 0 .2.1.2.2z" fill="#d22a3f"/><path d="m44.6 36.3c0 .1-.1.2-.1.3-.2-.2-.1-.2.1-.3z" fill="#d22a3f"/><path d="m48.9 38.6c0-.1-.1-.2-.1-.3.2.1.3.1.1.3z" fill="#d22a3f"/><path d="m48.2 36.6c0-.1-.1-.2-.1-.3.2.1.3.1.1.3z" fill="#d22a3f"/><path d="m34.7 63.9s.1.1.1.1c0 .1 0 .2-.1.2 0-.1 0-.2 0-.3z" fill="#e65e72"/><path d="m28.5 49c0-.1.1-.1.1-.2 0 .1 0 .2-.1.2z" fill="#2d3438"/><path d="m28.7 48.6c0-.1 0-.1 0 0 .1-.1 0-.1 0 0z" fill="#2d3438"/><path d="m28.2 50s.1-.1.1-.1c-.1 0-.1.1-.1.1z" fill="#40454a"/><path d="m28.4 49.3s.1-.1.1-.1 0 .1-.1.1z" fill="#2d3438"/><path d="m40.2 54.9c.2-.1.3-.2.5-.2 0 .3-.2.4-.5.4 0-.1 0-.2 0-.2z" fill="#40454a"/><path d="m40.9 47.1c.2-.1.2-.2.3-.4.1-.5.3-.9.4-1.4.3-.7.6-1.5.8-2.2.2 0 .3.1.3.2-.1.5.3.5.6.6 2.1.4 4.2.8 6.3 1.2.5.1.9.3.9-.5.4.2.2.7.6.9.2 1.1.7 2.1 1 3.1.1.3.2.5.3.8.3.8.3.8-.6.8-.7 0-1.4 0-2.1 0-.2-.5-.7-.4-1.1-.4-2.4-.5-4.8-.9-7.2-1.3-.4-.1-.6-.3-.7-.6.1-.2.3-.5.2-.8z" fill="#272e32"/><path d="m40.9 47.1c.1.3-.1.6-.1.9-.4.8-.7 1.7-.9 2.6-.1.3-.1.7.1 1 .1.1.2.2 0 .4-.3-.4-.3-.9-.2-1.4.2-1.3.6-2.4 1.1-3.5z" fill="#40454a"/><path d="m40.5 52.3c-.1 0-.2-.1-.3-.2.1.1.4-.1.3.2z" fill="#40454a"/><path d="m50.6 44.7c0 .8-.5.6-.9.5-2.1-.4-4.2-.8-6.3-1.2-.3-.1-.7 0-.6-.6 0-.1-.1-.2-.3-.2.1-.3.2-.5.2-.8.1-.3.3-.6.4-.9.1-.2 0-.2-.1-.2 0-.2.1-.3.2-.5.3 0 .3-.2.3-.4.8-2.3 1.6-4.7 2.5-7 .1-.3.2-.6.4-1 .3.7.5 1.3.7 1.9 1.1 3.2 2.3 6.5 3.4 9.7 0 .1.1.4.1.7z" fill="#1f262b"/><path d="m42.7 42.3c-.1.3-.2.5-.2.8-.2.8-.5 1.5-.8 2.2 0 0-.1-.1-.1-.1.3-1 .6-2 1-3 0 .1 0 .1.1.1z" fill="#383e43"/><path d="m41.5 45.3s.1.1.1.1c-.1.5-.3.9-.4 1.4 0 .2-.1.3-.3.3.1-.7.3-1.3.6-1.8z" fill="#3d4347"/><path d="m42.7 42.3h-.1c.1-.4.2-.8.4-1.2.1 0 .2.1.1.2-.1.4-.3.7-.4 1z" fill="#2d3438"/></svg>