<svg enable-background="new 0 0 29 29" height="29" viewBox="0 0 29 29" width="29" xmlns="http://www.w3.org/2000/svg"><path d="m8.9 18h-.9v-7.3c-.1.1-.2.2-.3.3s-.3.2-.5.3-.4.2-.6.3-.4.1-.6.2v-1c.2-.1.4-.1.7-.2s.5-.2.7-.3.4-.3.6-.4.4-.3.5-.4h.4z"/><path d="m11.7 15.7c0-.2 0-.4.1-.7s.2-.4.3-.6.3-.4.5-.5.4-.3.7-.4c-.4-.2-.7-.5-.9-.8s-.4-.7-.4-1.1c0-.3.1-.6.2-.9s.3-.5.5-.7.5-.3.8-.4.6-.2.9-.2.7.1.9.2.5.3.8.5.4.4.5.7.2.5.2.8c0 .4-.1.7-.3 1.1s-.5.6-.9.8c.2.1.5.2.7.4s.4.3.5.5.2.4.3.6.1.4.1.7c0 .4-.1.7-.2 1s-.3.6-.6.8-.5.4-.9.5-.7.2-1.1.2-.8-.1-1.1-.2-.6-.3-.9-.5-.4-.5-.5-.8-.2-.6-.2-1zm1-.1c0 .3 0 .5.1.7s.2.4.3.5.3.3.5.3.4.1.7.1c.2 0 .5 0 .7-.1s.4-.2.5-.3.3-.3.4-.5.1-.4.1-.7c0-.2 0-.5-.1-.7s-.2-.4-.3-.5-.3-.3-.5-.4-.4-.1-.7-.1c-.2 0-.5 0-.7.1s-.4.2-.5.4-.3.3-.4.5-.1.5-.1.7zm.3-3.9c0 .2 0 .4.1.6s.2.3.3.4.3.2.4.3.3.1.5.1.4 0 .5-.1.3-.2.4-.3.2-.3.3-.4.1-.4.1-.5c0-.2 0-.4-.1-.6s-.2-.3-.3-.4-.3-.2-.4-.3-.4-.1-.5-.1c-.2 0-.4 0-.6.1s-.3.2-.4.3-.2.3-.3.4 0 .3 0 .5z"/><path d="m24.5 14.9h-2.4v2.4h-.8v-2.4h-2.3v-.8h2.4v-2.4h.8v2.4h2.4v.8z"/><circle cx="14.5" cy="14.5" fill="none" r="14" stroke="#000" stroke-miterlimit="10"/></svg>