<svg enable-background="new 0 0 48 48" height="48" viewBox="0 0 48 48" width="48" xmlns="http://www.w3.org/2000/svg"><circle cx="24" cy="24" fill="#00973a" r="24"/><g fill="#fff"><path d="m14.6 22.2h-1.1l1.5-4.2h-.7v.6h-1v-1.6h2.8v.9z"/><path d="m19.3 22.2v1.1h-.9v-2l.4-.1c.1-.1.2-.2.2-.4.1-.1.1-.3.1-.4 0-.2 0-.3.1-.6 0-.2 0-.4 0-.7l.1-2.1h2.9v4.1h.5v2h-.9v-1.1h-2.5zm1-2.8v.5.5c0 .2 0 .3-.1.5 0 .1-.1.3-.1.4h1.3v-3.3h-1z"/><path d="m25.6 22.2v-2.1h-1.2v2.1h-1.1v-5.1h1.1v2h1.2v-2h1v5.1z"/><path d="m27.6 22.2v-5.1h3v1h-1.9v1.1h1.6v1h-1.6v1.1h1.9v1h-3z"/><path d="m33.5 22.2v-2.8l-1.4 2.8h-1v-5.1h1.1v3l1.5-3h1v5.1zm-.6-5.4c-.2 0-.4 0-.6-.1-.1-.1-.3-.2-.4-.3s-.2-.3-.2-.4-.1-.3-.1-.4h.8v.2c0 .1.1.1.1.2s.1.1.1.1.1.1.2.1.1 0 .2-.1c.1 0 .1-.1.1-.1 0-.1.1-.1.1-.2s0-.1 0-.2h.8c0 .1 0 .3-.1.4 0 .1-.1.3-.2.4s-.2.2-.4.3c0 .1-.2.1-.4.1z"/><path d="m7 30.3v-5.1h2.8v1h-1.7v.9h.6c.3 0 .5 0 .7.1s.4.2.5.3.2.3.3.5.1.4.1.6c0 .3 0 .5-.1.7s-.2.4-.3.5-.3.2-.5.3-.4.1-.7.1h-1.7zm1.6-1c.2 0 .3-.1.4-.2s.1-.3.1-.5-.1-.4-.2-.5-.2-.1-.4-.1h-.4v1.2h.5z"/><path d="m10.9 30.3v-5.1h3v1h-1.9v1.1h1.6v1h-1.6v1.1h1.9v1h-3z"/><path d="m17.5 29.1c-.1.4-.3.7-.5.9-.3.2-.6.3-1.1.3-.3 0-.5 0-.7-.1s-.4-.2-.5-.4-.2-.3-.3-.6c-.1-.2-.1-.4-.1-.7v-1.8c0-.2 0-.4.1-.6s.2-.4.3-.5c.1-.2.3-.3.5-.4s.5-.2.8-.2c.2 0 .4 0 .6.1s.3.2.5.3c.1.1.2.3.3.4.1.2.1.3.2.5l-1 .3s0-.1 0-.2-.1-.1-.1-.2-.1-.1-.2-.1-.2-.1-.3-.1-.2 0-.3.1c-.1 0-.1.1-.2.1 0 .1-.1.1-.1.2s0 .1 0 .2v1.9c0 .2 0 .4.1.5s.2.2.4.2c.1 0 .3 0 .4-.1s.2-.2.2-.4z"/><path d="m20.3 30.3v-4.1h-1.1v4.1h-1.1v-5.1h3.2v5.1z"/><path d="m25.6 25.2v5.1h-1v-4.1h-.9v1.6c0 .4 0 .7-.1 1 0 .3-.1.6-.2.8s-.3.4-.5.6c-.2.1-.5.2-.8.3l-.2-.8c.2-.1.3-.1.4-.2s.2-.2.2-.4c.1-.1.1-.3.1-.5s0-.4 0-.7v-2.6h3z"/><path d="m28.7 29.2h-1.2c0 .2-.1.3-.1.5s-.1.3-.1.5h-1.1l1.5-5.1h1.1l1.5 5.1h-1.1zm-.9-1.6-.1.7h.7l-.1-.7-.2-1z"/><path d="m32.1 26.1v4.1h-1.1v-4.1h-1v-1h3.2v1z"/><path d="m35.9 30.3v-2.1h-1.2v2.1h-1.1v-5.1h1.1v2h1.2v-2h1v5.1z"/><path d="m41 28.7c0 .3 0 .5-.1.7s-.2.4-.3.5-.3.3-.5.3c-.2.1-.4.1-.7.1s-.5 0-.7-.1-.4-.2-.5-.4-.2-.3-.3-.6c-.1-.2-.1-.4-.1-.7v-1.8c0-.2 0-.4.1-.6s.2-.4.3-.5c.1-.2.3-.3.5-.4s.5-.2.8-.2.5 0 .7.1.4.2.5.4.2.3.3.5.1.4.1.6v2.1zm-1.1-2s0-.1 0-.2 0-.1-.1-.2c0-.1-.1-.1-.2-.2-.1 0-.2-.1-.3-.1s-.2 0-.3.1c-.1 0-.1.1-.2.1 0 .1-.1.1-.1.2v.2 1.9c0 .2 0 .4.1.5s.2.2.4.2.3 0 .4-.1.2-.2.2-.4v-2z"/></g></svg>