<svg enable-background="new 0 0 202.6 82.1" height="82.1" viewBox="0 0 202.6 82.1" width="202.6" xmlns="http://www.w3.org/2000/svg"><path d="m121.5 19.3c-.4 2-1.2 3.5-2.7 4.6-1.4 1.1-3.1 1.7-5.2 1.7-1.4 0-2.7-.2-3.7-.7s-1.8-1.1-2.5-1.9c-.6-.8-1.1-1.7-1.4-2.7s-.5-2.1-.5-3.3v-9c0-.9.1-1.9.4-2.8.3-1 .7-1.8 1.4-2.6.6-.8 1.5-1.4 2.5-1.9s2.3-.7 3.7-.7c1.2 0 2.2.2 3.1.5.9.4 1.7.8 2.3 1.4s1.2 1.2 1.6 2 .7 1.6.9 2.4l-4.9 1.5c0-.2-.1-.5-.2-.9-.1-.3-.3-.6-.5-.9s-.5-.5-.9-.7-.8-.3-1.3-.3-1 .1-1.3.3c-.4.2-.6.4-.9.7-.2.3-.4.6-.5.9s-.1.6-.1.9v9.3c0 1 .2 1.8.6 2.4s1.1.9 2.2.9c.7 0 1.4-.2 1.9-.7.6-.5.9-1.1 1-1.9z" fill="#fff"/><path d="m124.7 25.4v-25.2h14.6v4.8h-9.4v5.2h8.1v4.8h-8.1v5.4h9.4v5z" fill="#fff"/><path d="m157.6 25.4v-11.9h-.1l-1.7 4.5-1.3 3.3h-3.7l-1.4-3.5-1.7-4.3h-.1v11.9h-5.2v-25.2h4.8l2.9 7 2.5 6.3h.2l2.4-6.3 2.9-7h4.9v25.2z" fill="#fff"/><path d="m183 17.3c0 1.3-.2 2.5-.6 3.5s-.9 1.8-1.6 2.5-1.5 1.2-2.5 1.5-2 .5-3.2.5h-8.3v-25.1h5.2v9.4h3.2c1.3 0 2.5.2 3.5.6s1.8.9 2.4 1.6 1.1 1.5 1.4 2.4c.4 1 .5 2 .5 3.1zm-5.2.1c0-1.1-.3-1.8-.8-2.3-.5-.4-1.2-.7-2.1-.7h-2.9v6h2.9c1 0 1.7-.3 2.2-.9.5-.4.7-1.1.7-2.1z" fill="#fff"/><path d="m201.4.2v25.2h-5.2v-10.2h-1.5c-.8 0-1.5.3-2 .9s-.9 1.5-1.3 2.9l-1.4 6.5h-5.4l1.6-7.5c.2-.8.5-1.6.9-2.3s1-1.2 1.8-1.5c-1.2-.5-2.2-1.3-2.7-2.4-.6-1.1-.8-2.4-.8-3.8 0-1.2.2-2.3.6-3.3.4-.9.9-1.7 1.6-2.4s1.5-1.1 2.4-1.5c.9-.3 1.9-.5 3-.5h8.4zm-10.8 7.7c0 .5.1 1 .3 1.3s.4.6.7.8.6.3 1 .4.8.1 1.2.1h2.4v-5.5h-2.6c-2 0-3 1-3 2.9z" fill="#fff"/><path d="m13.5 59.8v-13.7l-7 13.7h-4.9v-25.2h5.2v14.6h.1l7.1-14.6h4.7v25.2z" fill="#fff"/><path d="m39.2 34.6v25.2h-5.1v-20.3h-4.2v7.8c0 1.8-.1 3.5-.3 5s-.5 2.8-1 3.9-1.3 2-2.2 2.7c-1 .7-2.3 1.2-3.9 1.4l-1.2-4.1c.9-.3 1.7-.7 2.2-1.2s.9-1.1 1.2-1.8.4-1.5.5-2.5.1-2.1.1-3.3v-12.8z" fill="#fff"/><path d="m55.6 59.8v-13.7l-7 13.7h-4.9v-25.2h5.2v14.6h.1l7.2-14.6h4.7v25.2z" fill="#fff"/><path d="m73.7 59.8v-25.2h14v4.9h-8.8v4.6h3.1c1.3 0 2.5.2 3.5.6s1.8.9 2.4 1.6 1.1 1.5 1.4 2.4c.3 1 .5 2 .5 3.1 0 1.4-.2 2.5-.6 3.5s-.9 1.8-1.6 2.5-1.5 1.2-2.5 1.5-2 .5-3.2.5zm8.1-4.8c1 0 1.7-.3 2.1-.8.5-.6.7-1.3.7-2.2 0-1.1-.3-1.8-.8-2.3-.5-.4-1.2-.7-2.1-.7h-2.9v6z" fill="#fff"/><path d="m104.5 59.8v-13.7l-7 13.7h-4.9v-25.2h5.2v14.6h.1l7.2-14.6h4.7v25.2z" fill="#fff"/><path d="m112.8 53.9c.8-.3 1.7-.5 2.5-.8s1.6-.5 2.5-.8c.2.8.6 1.5 1.1 2 .6.5 1.2.7 2 .7.5 0 .9-.1 1.2-.3s.6-.4.8-.7.4-.6.5-1c.1-.3.2-.7.2-1 0-.4 0-.8-.1-1.1-.1-.4-.2-.7-.4-1s-.5-.5-.9-.7-.9-.3-1.5-.3h-1.8v-4.4h1.8c.8 0 1.4-.2 2-.6.5-.4.8-1.1.8-2.2 0-.2 0-.5-.1-.8s-.2-.5-.4-.8c-.2-.2-.4-.4-.7-.6-.3-.1-.7-.2-1.1-.2-.8 0-1.5.2-2.1.7-.5.5-.9 1.1-1.1 1.9l-4.7-1.8c.5-1.8 1.4-3.2 2.7-4.3s3.1-1.6 5.3-1.6c2.4 0 4.2.6 5.5 1.8s2 2.9 2 5.1c0 .4 0 .8-.1 1.3s-.2 1-.4 1.5-.5 1-.9 1.4-.9.8-1.5 1.1v.1c.6.2 1.1.5 1.4.9s.7.8.9 1.3.4 1 .5 1.6.2 1.1.2 1.7c0 1.4-.2 2.5-.6 3.5s-1 1.8-1.7 2.4-1.6 1.1-2.6 1.4-2 .4-3.1.4c-2.2 0-4-.6-5.4-1.7-1.3-.8-2.2-2.3-2.7-4.1z" fill="#fff"/><path d="m143.2 59.8v-10.3h-5.7v10.4h-5.2v-25.3h5.2v10.1h5.7v-10.1h5.1v25.2z" fill="#fff"/><path d="m152.7 59.8v-25.2h14.6v4.9h-9.4v5.2h8.1v4.8h-8.1v5.4h9.4v5h-14.6z" fill="#fff"/><path d="m185.6 53.8c-.4 2-1.2 3.5-2.7 4.6-1.4 1.1-3.1 1.7-5.2 1.7-1.4 0-2.7-.2-3.7-.7s-1.8-1.1-2.5-1.9c-.6-.8-1.1-1.7-1.4-2.7s-.5-2.1-.5-3.3v-9c0-.9.1-1.9.4-2.8.3-1 .7-1.8 1.4-2.6.6-.8 1.5-1.4 2.5-1.9s2.3-.7 3.7-.7c1.2 0 2.2.2 3.1.5.9.4 1.7.8 2.3 1.4s1.2 1.2 1.6 2 .7 1.6.9 2.4l-4.9 1.5c0-.2-.1-.5-.2-.9-.1-.3-.3-.6-.5-.9s-.5-.5-.9-.7-.8-.3-1.3-.3-1 .1-1.3.3c-.4.2-.6.4-.9.7-.2.3-.4.6-.5.9s-.1.6-.1.9v9.3c0 1 .2 1.8.6 2.4s1.1.9 2.2.9c.7 0 1.4-.2 1.9-.7.6-.5.9-1.1 1-1.9z" fill="#fff"/><path d="m202.4 41.4c0 1.1-.1 1.9-.4 2.6s-.6 1.3-1 1.9c-.3.5-.6.9-1 1.3-.3.4-.7.9-1 1.4s-.5 1-.7 1.5-.3 1.1-.3 1.7v1.1h-5v-1.2c0-1 .1-1.8.2-2.5.2-.7.5-1.4.9-2.1.3-.6.7-1.1 1-1.6s.6-1 .9-1.5.5-.9.7-1.4c.2-.4.2-.9.2-1.3 0-.2 0-.4-.1-.7s-.2-.5-.3-.7-.3-.4-.6-.5c-.2-.1-.6-.2-1-.2-.6 0-1.1.2-1.5.7s-.6 1.2-.7 2.4c-.8-.1-1.7-.2-2.5-.3s-1.7-.2-2.5-.3c.1-1.2.3-2.2.7-3.1s1-1.7 1.6-2.3c.7-.6 1.4-1.1 2.3-1.4s1.8-.5 2.8-.5c2.4 0 4.1.6 5.3 1.9 1.4 1.3 2 3 2 5.1zm-9.4 18.4v-4.8h5v4.8z" fill="#fff"/><g fill="#d6a26c"><path d="m6.6 79.9c-.2.7-.6 1.3-1.2 1.7s-1.3.6-2.1.6c-.5 0-1-.1-1.4-.3s-.8-.4-1.1-.7-.5-.7-.7-1.1c0-.5-.1-.9-.1-1.5v-4.9c0-.5.1-1 .2-1.4.2-.4.4-.8.7-1.1.3-.2.6-.5 1.1-.7s.9-.3 1.4-.3c.8 0 1.5.2 2 .6.6.4 1 .9 1.2 1.6l-1.3.6c-.1-.4-.3-.8-.6-1s-.7-.4-1.3-.4c-.3 0-.6.1-.9.2s-.5.3-.6.5c-.2.2-.3.4-.4.7s-.1.5-.1.8v5c0 .3 0 .5.1.8s.2.5.4.7.4.4.6.5.5.2.9.2c.5 0 .9-.1 1.2-.4s.5-.6.7-1z"/><path d="m16.2 82v-8.2h-.1l-.9 2.3-1.6 3.6h-1l-1.6-3.6-.9-2.2h-.1v8.1h-1.3v-11.7h1.4l1.9 4.4 1.1 2.7h.1l1.1-2.7 1.9-4.4h1.4v11.7z"/><path d="m26.7 78.6c0 .5-.1 1-.3 1.5s-.4.8-.7 1.1-.7.5-1.1.7-.9.2-1.4.2c-.6 0-1.1-.1-1.6-.3s-.6-.4-.9-.8c-.3-.3-.5-.7-.6-1.2s-.2-.9-.2-1.4v-4.7c0-.4.1-.8.2-1.2s.3-.8.6-1.1.6-.6 1.1-.8c.4-.2 1-.3 1.6-.3s1.1.1 1.5.3.8.5 1.1.8.5.7.6 1.1.2.8.2 1.3v4.8zm-1.4-4.8c0-.2 0-.4-.1-.6s-.2-.5-.3-.7c-.2-.2-.4-.4-.6-.6-.3-.2-.6-.2-1-.2s-.7.1-1 .2c-.3.2-.5.3-.6.6-.2.2-.3.5-.3.7-.1.3-.1.5-.1.7v4.6c0 .3 0 .7.1.9.1.3.2.6.4.8s.4.4.6.5c.3.1.6.2.9.2s.5 0 .8-.1c.2-.1.4-.2.6-.4s.3-.4.4-.7.2-.5.2-.9z"/><path d="m32.1 71.6v10.4h-1.4v-10.4h-2.7v-1.3h6.7v1.3z"/><path d="m43.2 73.9c0 .4-.1.9-.2 1.3s-.3.8-.6 1.1-.6.6-1 .8-.9.3-1.5.3h-2v4.6h-1.4v-11.7h3.3c1.1 0 1.9.3 2.5.9s.9 1.5.9 2.7zm-1.4-.1c0-.7-.2-1.2-.5-1.6s-.8-.6-1.6-.6h-1.9v4.4h1.9c.4 0 .7-.1 1-.2s.5-.3.6-.5c.2-.2.3-.4.3-.7.2-.2.2-.5.2-.8z"/><path d="m45.2 82v-11.7h1.4v8.9h.1l1.7-3.5 2.8-5.4h1.4v11.7h-1.4v-8.9h-.2l-1.6 3.2-2.9 5.7z"/><path d="m66 78.7c0 1.1-.3 1.9-.8 2.5s-1.4.8-2.4.8h-3.6v-11.7h3.3c1.1 0 1.9.3 2.4.8s.8 1.3.8 2.2c0 .5-.1 1-.3 1.4s-.6.8-1.2 1.1v.2c.3.1.6.2.8.4s.4.4.5.6.2.5.3.8.2.6.2.9zm-5.3-7.1v3.8h1.8c.7 0 1.2-.2 1.5-.5s.5-.8.5-1.4-.2-1-.5-1.4c-.3-.3-.8-.5-1.5-.5zm0 5v4.1h2c.4 0 .7-.1.9-.2s.4-.3.6-.5c.1-.2.2-.4.3-.7s.1-.5.1-.8c0-.6-.1-1.1-.4-1.4-.3-.4-.8-.6-1.5-.6h-2z"/><path d="m78.8 79.9c-.2.7-.6 1.3-1.2 1.7s-1.3.6-2.1.6c-.5 0-1-.1-1.4-.3s-.8-.4-1.1-.7-.5-.7-.7-1.1-.2-.9-.2-1.4v-4.9c0-.5.1-1 .2-1.4.2-.4.4-.8.7-1.1s.6-.6 1.1-.7.9-.3 1.4-.3c.8 0 1.5.2 2 .6.6.4 1 .9 1.2 1.6l-1.2.5c-.1-.4-.3-.8-.6-1s-.7-.4-1.3-.4c-.3 0-.6.1-.9.2s-.5.3-.6.5c-.2.2-.3.4-.4.7s-.1.5-.1.8v5c0 .3 0 .5.1.8s.2.5.4.7.4.4.6.5.5.2.9.2c.5 0 .9-.1 1.2-.4s.5-.6.7-1z"/><path d="m87.6 78.7c0 1.1-.3 1.9-.8 2.5s-1.4.8-2.3.8h-3.6v-11.7h3.3c1.1 0 1.9.3 2.4.8s.8 1.3.8 2.2c0 .5-.1 1-.3 1.4s-.6.8-1.2 1.1v.2c.3.1.6.2.8.4s.4.4.5.6.2.5.3.8.1.6.1.9zm-5.3-7.1v3.8h1.8c.7 0 1.2-.2 1.5-.5s.5-.8.5-1.4-.2-1-.5-1.4c-.3-.3-.8-.5-1.5-.5zm0 5v4.1h2c.4 0 .7-.1.9-.2s.4-.3.6-.5c.1-.2.2-.4.3-.7s.1-.5.1-.8c0-.6-.1-1.1-.4-1.4-.3-.4-.8-.6-1.5-.6h-2z"/><path d="m96.4 78.6c0 .5-.1 1-.3 1.5s-.4.8-.7 1.1-.7.5-1.1.7-.9.2-1.4.2c-.6 0-1.1-.1-1.6-.3s-.8-.5-1.1-.8-.5-.7-.6-1.2-.2-.9-.2-1.4v-4.7c0-.4.1-.8.2-1.2s.3-.8.6-1.1.6-.6 1.1-.8c.4-.2 1-.3 1.6-.3s1.1.1 1.5.3.8.5 1.1.8.5.7.6 1.1.2.8.2 1.3v4.8zm-1.4-4.8c0-.2 0-.4-.1-.6s-.2-.5-.3-.7c-.2-.2-.4-.4-.6-.6-.3-.2-.6-.2-1-.2s-.7.1-1 .2c-.3.2-.5.3-.6.6-.2.2-.3.5-.3.7-.1.1-.1.4-.1.6v4.6c0 .3 0 .7.1.9.1.3.2.6.4.8s.4.4.6.5c.3.1.6.2.9.2s.5 0 .8-.1c.2-.1.4-.2.6-.4s.3-.4.4-.7.2-.5.2-.9z"/><path d="m98.9 82v-11.7h6.2v1.3h-4.8v3.8h4.1v1.3h-4.1v3.9h4.8v1.4z"/><path d="m114.6 82v-8.2h-.1l-.9 2.3-1.6 3.6h-1l-1.6-3.7-.9-2.2h-.1v8.2h-1.4v-11.7h1.4l1.9 4.4 1.1 2.7h.1l1.1-2.7 1.9-4.4h1.4v11.7z"/><path d="m129.1 79.9c-.2.7-.6 1.3-1.2 1.7s-1.3.6-2.1.6c-.5 0-1-.1-1.4-.3s-.8-.4-1.1-.7-.5-.7-.7-1.1-.2-.9-.2-1.4v-4.9c0-.5.1-1 .2-1.4.2-.4.4-.8.7-1.1s.6-.6 1.1-.7.9-.3 1.4-.3c.8 0 1.5.2 2 .6.6.4 1 .9 1.2 1.6l-1.3.5c-.1-.4-.3-.8-.6-1s-.7-.4-1.3-.4c-.3 0-.6.1-.9.2s-.5.3-.6.5c-.2.2-.3.4-.4.7s-.1.5-.1.8v5c0 .3 0 .5.1.8s.2.5.4.7.4.4.6.5.5.2.9.2c.5 0 .9-.1 1.2-.4s.5-.6.7-1z"/><path d="m138.7 82v-8.2h-.1l-.9 2.3-1.6 3.6h-1l-1.6-3.7-.9-2.2h-.1v8.2h-1.4v-11.7h1.4l1.9 4.4 1.1 2.7h.1l1.1-2.7 1.9-4.4h1.4v11.7z"/><path d="m148.4 82-.7-2.7h-3.7l-.7 2.7h-1.4l3.4-11.7h1.3l3.4 11.7zm-1.9-6.9-.7-2.6h-.1l-.7 2.6-.9 3h3.1z"/><path d="m158.3 73.9c0 .4-.1.9-.2 1.3s-.3.8-.6 1.1-.6.6-1 .8-.9.3-1.5.3h-2v4.6h-1.4v-11.7h3.3c1.1 0 1.9.3 2.5.9s.9 1.5.9 2.7zm-1.4-.1c0-.7-.2-1.2-.5-1.6s-.8-.6-1.6-.6h-1.8v4.4h1.9c.4 0 .7-.1 1-.2s.5-.3.6-.5c.2-.2.3-.4.3-.7.1-.2.1-.5.1-.8z"/><path d="m163.3 71.6v10.4h-1.4v-10.4h-2.7v-1.3h6.7v1.3z"/><path d="m170.5 81.1c-.7 0-1.3-.2-1.7-.4-.5-.2-.8-.6-1.1-1s-.5-.9-.6-1.6c-.1-.6-.2-1.3-.2-2.2 0-1.6.3-2.8.9-3.6s1.5-1.3 2.8-1.4v-.6h1.4v.6h.1c1.3.1 2.2.6 2.8 1.4s.9 2 .9 3.6c0 .8-.1 1.6-.2 2.2s-.3 1.1-.6 1.5-.7.7-1.1 1c-.5.2-1 .4-1.7.5h-.1v.9h-1.4v-.9zm0-9c-.8 0-1.4.4-1.8 1s-.6 1.6-.6 2.9c0 .8.1 1.4.2 1.9s.3.9.5 1.2.4.5.7.6.6.2 1 .2zm1.4 7.8c.4 0 .7-.1 1-.2s.5-.3.8-.6.4-.7.5-1.2.2-1.1.2-1.9c0-1.3-.2-2.3-.6-2.9s-1-.9-1.8-1v7.8z"/><path d="m184.5 78.6c0 .5-.1 1-.3 1.5s-.4.8-.7 1.1-.7.5-1.1.7-.9.2-1.4.2c-.6 0-1.1-.1-1.6-.3s-.8-.5-1.1-.8-.5-.7-.6-1.2-.2-.9-.2-1.4v-4.7c0-.4.1-.8.2-1.2s.3-.8.6-1.1.6-.6 1.1-.8c.4-.2 1-.3 1.6-.3s1.1.1 1.5.3.8.5 1.1.8.5.7.6 1.1.2.8.2 1.3v4.8zm-1.4-4.8c0-.2 0-.4-.1-.6s-.2-.5-.3-.7c-.2-.2-.4-.4-.6-.6-.3-.2-.6-.2-1-.2s-.7.1-1 .2c-.3.2-.5.3-.6.6-.2.2-.3.5-.3.7-.1.3-.1.5-.1.7v4.6c0 .3 0 .7.1.9.1.3.2.6.4.8s.4.4.6.5c.3.1.6.2.9.2s.5 0 .8-.1c.2-.1.4-.2.6-.4s.3-.4.4-.7.2-.5.2-.9z"/><path d="m192.2 82v-5.3h-3.9v5.3h-1.4v-11.7h1.4v5.1h3.9v-5.1h1.4v11.7z"/><path d="m196.4 82v-11.7h6.2v1.3h-4.8v3.8h4.1v1.3h-4.1v3.9h4.8v1.4z"/></g></svg>