<svg enable-background="new 0 0 296.9 30.4" height="30.4" viewBox="0 0 296.9 30.4" width="296.9" xmlns="http://www.w3.org/2000/svg"><g fill="#fff"><path d="m16.6 29.8h-16.6c.5-.3.9-.7 1.2-1s.5-.7.6-1.1c.2-.4.2-.8.3-1.3 0-.4 0-.9 0-1.5v-19.4c0-.5 0-1 0-1.5-.1-.4-.1-.8-.3-1.2-.1-.4-.3-.8-.6-1.1-.3-.4-.7-.7-1.2-1.1h15.5v4.1c-.3-.5-.6-1-.8-1.3-.2-.4-.5-.6-.9-.9-.4-.2-.9-.4-1.6-.5-.7 0-1.7-.1-2.8-.1h-4.7v11h7.2 1.1c.3 0 .5-.1.8-.2.2-.1.5-.2.7-.4s.5-.4.8-.6v3.9c-.3-.3-.5-.5-.7-.6-.2-.2-.4-.3-.6-.4s-.5-.2-.8-.2-.7-.1-1.3-.1h-7.2v9.5c0 .8 0 1.5.1 2.1s.3 1.1.6 1.4c.3.4.8.7 1.4.8.6.2 1.4.3 2.5.3 1.7 0 3-.2 4.1-.5 1.1-.4 2-.8 2.7-1.3s1.2-1 1.6-1.5.8-.9 1.1-1.1z"/><path d="m46.6 24.6c.7.9 1.3 1.7 1.8 2.2s.9.9 1.2 1.1.7.4.9.4c.3 0 .6.1.9.1.5 0 .9 0 1.2-.2.3-.1.5-.2.7-.2-.3.6-.7 1-1.2 1.3s-1.3.4-2.5.4c-.4 0-.8 0-1.2-.2-.4-.1-.8-.3-1.3-.7-.5-.3-1-.8-1.6-1.5-.6-.6-1.3-1.5-2-2.6l-8.5-11.7-.9.9v11 1.9c0 .4.1.8.2 1.1s.2.6.4.8c.2.3.4.6.8 1h-5.3c.3-.4.6-.8.8-1 .2-.3.3-.5.4-.8s.1-.7.2-1.1c0-.4 0-1.1 0-1.9v-19.4c0-.8 0-1.4 0-1.9 0-.4-.1-.8-.2-1.1s-.2-.6-.4-.8c-.2-.3-.4-.6-.8-1h5.3c-.3.4-.6.8-.8 1-.2.3-.3.5-.4.8s-.1.7-.2 1.1v1.9 6.9l9.1-9.6c.1-.2.3-.4.5-.6s.3-.5.3-.7c0-.3-.1-.6-.4-.9h5.4c-.2.1-.5.2-.8.3s-.7.3-1.1.5-.9.5-1.4.9-1 .8-1.6 1.4l-7.5 7.8z"/><path d="m85.5 25.9c.3.8.6 1.5.8 1.9s.5.8.7 1 .4.4.7.5c.2.1.5.3.9.5h-6.1c.2-.3.4-.5.6-.8.2-.2.3-.6.3-1.1 0-.2 0-.4-.1-.6s-.2-.4-.2-.6l-3.9-9.7h-9.9l-3.9 9c-.1.3-.3.7-.4 1.2-.1.4-.2.8-.2 1 0 .5.1.9.3 1 .2.2.4.4.7.6h-4.9c.5-.4.9-.7 1.2-.9.3-.3.5-.5.8-.8.2-.3.4-.6.6-1s.4-.9.7-1.6l10.8-25.5zm-11.2-21.2-4.5 10.8h8.9z"/><path d="m111.9 24.9v1.9c0 .4.1.8.2 1.1s.2.6.4.8c.2.3.4.6.8 1h-5.3c.3-.4.6-.8.8-1 .2-.3.3-.5.4-.8s.1-.7.2-1.1c0-.4 0-1.1 0-1.9v-23h-6.2c-.7 0-1.2 0-1.7.1-.4.1-.8.2-1.1.4s-.7.5-1 .8c-.4.4-.9.8-1.4 1.2l2.2-4.4c.1.1.3.1.5.2s.4.2.6.2c.2.1.5.1.9.2.3 0 .8.1 1.3.1h16.3c.6 0 1.3-.1 2-.2.8-.1 1.5-.3 2.2-.5l-2.4 4.8c-.1-.5-.2-1-.2-1.4-.1-.4-.2-.7-.3-.9-.2-.2-.4-.4-.7-.5s-.8-.1-1.5-.1h-6.9v23z"/><path d="m151 29.8h-16.6c.5-.3.9-.7 1.2-1s.5-.7.6-1.1.2-.8.2-1.2 0-.9 0-1.5v-19.5c0-.5 0-1 0-1.5 0-.4-.1-.8-.2-1.2s-.3-.8-.6-1.1-.7-.7-1.2-1h15.5v4.1c-.3-.5-.6-1-.8-1.3-.2-.4-.5-.6-.9-.9-.4-.2-.9-.4-1.6-.5s-1.6-.1-2.8-.1h-4.8v11h7.2 1.1c.3 0 .5-.1.8-.2.2-.1.5-.2.7-.4s.5-.4.8-.6v3.9c-.3-.3-.5-.5-.7-.6-.2-.2-.4-.3-.6-.4s-.5-.2-.8-.2-.7-.1-1.3-.1h-7.2v9.5c0 .8 0 1.5.1 2.1s.3 1.1.6 1.4c.3.4.8.7 1.4.8.6.2 1.4.3 2.5.3 1.7 0 3-.2 4.1-.5 1.1-.4 2-.8 2.7-1.3s1.2-1 1.6-1.5.8-.9 1.1-1.1z"/><path d="m168.6 24.9v1.9c0 .4.1.8.2 1.1s.2.6.4.8c.2.3.4.6.8 1h-5.3c.3-.4.6-.8.8-1 .2-.3.3-.5.4-.8s.1-.7.2-1.1c0-.4 0-1.1 0-1.9v-19.4c0-.8 0-1.4 0-1.9 0-.4-.1-.8-.2-1.1s-.2-.6-.4-.8c-.2-.3-.4-.6-.8-1h5.2c1.2 0 2.5.1 4 .2s2.8.5 4.1 1 2.3 1.4 3.2 2.5c.8 1.1 1.3 2.6 1.3 4.5 0 1.3-.2 2.4-.7 3.4s-1.1 1.8-1.9 2.5-1.7 1.2-2.8 1.5-2.2.5-3.3.5c-.5 0-.9-.1-1.4-.2-.4-.1-.8-.3-1.1-.4-.3-.2-.6-.4-.8-.5-.2-.2-.3-.3-.3-.5s.1-.3.3-.3.3.1.5.2.3.2.5.4c.2.1.4.2.7.3s.6.2 1 .2c.9 0 1.8-.2 2.6-.5.8-.4 1.5-.8 2.1-1.4s1.1-1.3 1.4-2.1.5-1.7.5-2.5c0-1.8-.4-3.1-1.1-4.1s-1.7-1.7-2.8-2.2-2.3-.8-3.6-.9-2.5-.2-3.6-.2v22.8z"/><path d="m194.5 4.4c0-.7 0-1.2-.1-1.6 0-.4-.1-.7-.2-1-.1-.2-.2-.4-.3-.6s-.3-.4-.5-.6h3.8c-.2.2-.4.4-.5.6s-.3.4-.3.6c-.1.2-.2.6-.2 1s-.1.9-.1 1.6v20.3l20.7-24.1h5.3c-.7.3-1.3.6-1.8.9s-1 .6-1.4.9-.8.7-1.1 1c-.3.4-.6.8-.9 1.2v21.4c0 .7 0 1.2.1 1.6 0 .4.1.7.2 1 .1.2.2.4.3.6s.3.4.5.6h-3.8c.2-.2.4-.4.5-.6s.3-.4.3-.6c.1-.2.2-.6.2-1s.1-.9.1-1.6v-19.6l-20.7 24v-26z"/><path d="m256.1 24.9v1.9c0 .4.1.8.2 1.1s.2.6.4.8c.2.3.4.6.8 1h-5.3c.3-.4.6-.8.8-1 .2-.3.3-.5.4-.8s.1-.7.2-1.1c0-.4 0-1.1 0-1.9v-9.7h-16.7v9.7 1.9c0 .4.1.8.2 1.1s.2.6.4.8c.2.3.4.6.8 1h-5.3c.3-.4.6-.8.8-1 .2-.3.3-.5.4-.8s.1-.7.2-1.1c0-.4 0-1.1 0-1.9v-19.4c0-.8 0-1.4 0-1.9 0-.4-.1-.8-.2-1.1s-.2-.6-.4-.8c-.2-.3-.4-.6-.8-1h5.3c-.3.4-.6.8-.8 1-.2.3-.3.5-.4.8s-.1.7-.2 1.1v1.9 8.5h16.7v-8.5c0-.8 0-1.4 0-1.9 0-.4-.1-.8-.2-1.1s-.2-.6-.4-.8c-.2-.3-.4-.6-.8-1h5.3c-.3.4-.6.8-.8 1-.2.3-.3.5-.4.8s-.1.7-.2 1.1v1.9z"/><path d="m293.8 25.9c.3.8.6 1.5.8 1.9s.5.8.7 1 .4.4.7.5c.2.1.5.3.9.5h-6.1c.2-.3.4-.5.6-.8.2-.2.3-.6.3-1.1 0-.2 0-.4-.1-.6s-.2-.4-.2-.6l-3.9-9.7h-9.9l-3.8 9.1c-.1.3-.3.7-.4 1.2-.1.4-.2.8-.2 1 0 .5.1.9.3 1 .2.2.4.4.7.6h-4.9c.5-.4.9-.7 1.2-.9.3-.3.5-.5.8-.8.2-.3.4-.6.6-1s.4-.9.7-1.6l10.6-25.6zm-11.2-21.2-4.5 10.8h8.9z"/></g></svg>