<svg enable-background="new 0 0 265.5 19.2" height="19.2" viewBox="0 0 265.5 19.2" width="265.5" xmlns="http://www.w3.org/2000/svg"><g fill="#fff"><path d="m2.9.4c.9 0 1.8 0 2.7.1s1.6.3 2.3.6 1.2.8 1.6 1.4.6 1.4.6 2.4c0 .7-.1 1.3-.4 1.7-.2.5-.5.9-.9 1.1-.3.3-.7.5-1 .7-.4.1-.7.2-.9.3v.1c.3 0 .7.1 1.2.3s1 .4 1.5.8.9.9 1.2 1.4c.4.6.5 1.3.5 2.2v.5c0 .3-.1.6-.2 1s-.3.8-.6 1.3c-.3.4-.7.9-1.2 1.2-.5.4-1.2.7-2 .9s-1.8.4-3 .4h-4.3c.3-.2.6-.4.8-.7.2-.2.3-.4.4-.7.1-.2.1-.5.2-.8 0-.3 0-.6 0-.9v-12.2c0-.3 0-.7 0-.9 0-.3-.1-.5-.2-.8s-.3-.5-.4-.7c-.2-.3-.5-.5-.8-.7zm1.3 8c1.4 0 2.4-.3 3.2-.9.7-.7 1.1-1.5 1.1-2.7 0-.9-.2-1.6-.6-2.1-.4-.4-.9-.8-1.4-1-.6-.2-1.2-.4-1.8-.4-.6-.1-1.2-.1-1.7-.1v7.1h1.2zm-1.2 7.2v1c0 .3.1.5.2.8.1.2.3.4.6.5.2.1.6.1 1.1.1.6 0 1.2-.1 1.8-.3s1.1-.5 1.5-.8c.4-.4.8-.8 1.1-1.3s.4-1.1.4-1.8c0-.6-.1-1.2-.3-1.7s-.6-1-1-1.5c-.5-.4-1-.8-1.7-1-.7-.3-1.5-.4-2.3-.4-.3 0-.6 0-.8 0s-.4 0-.6.1z"/><path d="m52.2 18.8h-10.5c.3-.2.6-.4.8-.7.2-.2.3-.4.4-.7.1-.2.1-.5.2-.8 0-.3 0-.6 0-.9v-12.2c0-.3 0-.7 0-.9 0-.3-.1-.5-.2-.8-.1-.2-.2-.5-.4-.7s-.4-.4-.8-.7h9.8v2.6c-.2-.3-.4-.6-.5-.8s-.3-.4-.6-.5-.6-.2-1-.3-1-.1-1.7-.1h-2.9v7h4.6.7c.2 0 .3-.1.5-.1.2-.1.3-.2.4-.3s.3-.2.5-.4v2.5c-.2-.2-.3-.3-.5-.4-.1-.1-.2-.2-.4-.2-.1-.1-.3-.1-.5-.1s-.5 0-.8 0h-4.5v6c0 .5 0 1 .1 1.4 0 .4.2.7.4.9s.5.4.9.5.9.2 1.6.2c1.1 0 1.9-.1 2.6-.3s1.3-.5 1.7-.8.8-.6 1-1c.3-.3.5-.6.7-.7z"/><path d="m94.4 18.8h3.9c-.2-.1-.4-.2-.6-.3s-.3-.2-.4-.3-.3-.4-.4-.6c-.2-.3-.3-.7-.5-1.2l-6.7-16.4-6.8 16.1c-.2.4-.3.8-.5 1-.1.2-.2.5-.4.6-.1.2-.3.4-.5.5-.2.2-.4.4-.8.6h3.1c-.2-.1-.3-.3-.5-.4-.1-.1-.2-.3-.2-.6 0-.1 0-.4.1-.6.1-.3.2-.5.3-.7l2.4-5.8.4-.8 3-6.9 2.7 6.9.3.8 2.5 6.2c.1.1.1.3.2.4 0 .1.1.3.1.4 0 .3-.1.5-.2.7-.2.1-.3.3-.5.4z"/><path d="m123.2 2.8c0-.4 0-.8 0-1 0-.3-.1-.5-.1-.6-.1-.2-.1-.3-.2-.4s-.2-.2-.3-.4h2.4c-.1.1-.2.3-.3.4s-.2.2-.2.4c-.1.2-.1.4-.1.6v1 12.9l13.1-15.3h3.3c-.4.2-.8.4-1.1.6s-.6.4-.9.6-.5.4-.7.7c-.2.2-.4.5-.6.8v13.4 1c0 .3.1.5.1.6.1.2.1.3.2.4s.2.2.3.4h-2.4c.1-.1.2-.3.3-.4s.2-.2.2-.4c.1-.2.1-.4.1-.6 0-.3 0-.6 0-1v-12.4l-13.1 15.2z"/><path d="m176.5 15.6c.5.6.8 1.1 1.1 1.4s.6.6.8.7c.2.2.4.2.6.3h.6c.3 0 .6 0 .7-.1.2-.1.3-.1.4-.1-.2.4-.4.6-.7.8s-.8.2-1.6.2c-.2 0-.5 0-.7-.1-.3-.1-.5-.2-.8-.4s-.6-.5-1-.9-.8-1-1.3-1.6l-5.4-7.5-.6.6v7 1.2c0 .3.1.5.1.7.1.2.1.4.3.5.1.2.3.4.5.7h-3.4c.2-.3.4-.5.5-.7s.2-.3.3-.5.1-.4.1-.7 0-.7 0-1.2v-12.4c0-.5 0-.9 0-1.2s-.1-.5-.1-.7c-.1-.2-.1-.4-.3-.5-.1-.2-.3-.4-.5-.7h3.4c-.2.3-.4.5-.5.7s-.2.3-.3.5-.1.4-.1.7v1.2 4.4l5.7-6.1c.1-.1.2-.2.3-.4.1-.1.2-.3.2-.5s-.1-.4-.2-.6h3.5c-.1.1-.3.1-.5.2s-.4.2-.7.3-.6.3-.9.5-.7.5-1 .9l-4.8 4.9z"/><path d="m222.2 16.4c.2.5.4.9.5 1.2.2.3.3.5.4.6s.3.3.4.3c.2.1.3.2.6.3h-3.9c.1-.2.3-.3.4-.5s.2-.4.2-.7c0-.1 0-.3-.1-.4 0-.1-.1-.3-.2-.4l-2.5-6.2h-6.3l-2.4 5.8c-.1.2-.2.5-.3.7-.1.3-.1.5-.1.6 0 .3.1.5.2.6s.3.2.5.4h-3.1c.3-.2.6-.4.8-.6s.3-.3.5-.5c.1-.2.3-.4.4-.6s.3-.6.5-1l6.8-16zm-7.1-13.4-2.9 6.9h5.6z"/><path d="m263 9.6h-2.6c-.4.5-.9 1.1-1.3 1.7-.5.7-1 1.3-1.5 2s-1 1.3-1.6 2c-.5.6-1.1 1.2-1.6 1.7-.6.5-1.1.9-1.7 1.2s-1.1.5-1.7.5c-.7 0-1.1-.1-1.4-.3s-.5-.4-.5-.5.1-.2.2-.2c.1.1.3.1.4.1h.5c.5 0 1.1-.2 1.7-.6s1.3-1 2-1.8 1.5-1.7 2.3-2.7c.8-1.1 1.7-2.3 2.6-3.6-.5-.1-1.1-.3-1.5-.5-.5-.2-.9-.5-1.3-.9s-.6-.8-.8-1.3-.3-1.1-.3-1.8c0-.9.2-1.6.6-2.1.4-.6.9-1 1.5-1.3s1.4-.6 2.2-.7 1.7-.2 2.5-.2h3.9c-.2.3-.4.5-.5.7s-.2.3-.3.5-.1.4-.1.7v1.2 12.3 1.2c0 .3.1.5.1.7.1.2.1.4.3.5.1.2.3.4.5.7h-3.4c.2-.3.4-.5.5-.7s.2-.3.3-.5.1-.4.1-.7 0-.7 0-1.2v-6.1zm0-.8v-7.6h-1.7c-.9 0-1.6.1-2.2.3s-1.1.5-1.5.8-.7.7-.9 1.2c-.2.4-.3.9-.3 1.4 0 .7.1 1.3.4 1.8s.6.9 1.1 1.2 1 .6 1.6.7 1.3.2 2 .2z"/></g></svg>