<svg enable-background="new 0 0 246.3 49.7" height="49.7" viewBox="0 0 246.3 49.7" width="246.3" xmlns="http://www.w3.org/2000/svg"><path d="m15.4 18.8c-.4 1.9-1.2 3.4-2.6 4.5s-3.1 1.6-5 1.6c-1.4 0-2.6-.2-3.6-.7-1-.4-1.8-1-2.4-1.8s-1.1-1.6-1.4-2.7c-.3-1-.4-2.1-.4-3.2v-8.6c0-1 .1-1.9.4-2.8s.7-1.8 1.3-2.5 1.4-1.4 2.4-1.8c1.1-.6 2.3-.8 3.7-.8 1.1 0 2.1.2 3 .5s1.6.8 2.3 1.4c.6.6 1.1 1.2 1.5 2 .4.7.7 1.5.8 2.3l-4.8 1.4c0-.2-.1-.5-.2-.8s-.3-.6-.5-.9-.5-.5-.8-.7c-.4-.2-.8-.3-1.3-.3s-.9.1-1.3.3c-.3.2-.6.4-.8.7-.2.2-.4.5-.5.8-.1.4-.1.7-.1.9v9.1c0 .9.2 1.7.6 2.3s1.1 1 2.1 1c.7 0 1.3-.2 1.9-.7.5-.5.9-1.1.9-1.9z" fill="#fff"/><path d="m25.7 12.3 1.5-5.3c.3-1.1.6-2.3.9-3.4s.6-2.2.9-3.4h4.9l-5.2 17.1c-.1.5-.3.9-.4 1.3s-.3.8-.5 1.2c-.4 1.1-.8 1.9-1.2 2.5s-.9 1.1-1.4 1.5-1.1.6-1.7.7-1.3.2-2 .2h-2v-4.1h1.2c.5 0 .9-.1 1.2-.3s.7-.6 1-1.2c0-.1.1-.2.2-.4s.1-.3.2-.4l-6.6-18.1h5.3l2 6.8 1.6 5.3z" fill="#fff"/><path d="m46.5 24.7v-19.7h-5.2v19.7h-5.1v-24.5h15.3v24.5z" fill="#fff"/><path d="m55.8 24.7v-24.5h14.2v4.7h-9.1v5.1h7.8v4.7h-7.8v5.2h9.1v4.8z" fill="#fff"/><path d="m88.5 7.9c0 1.2-.2 2.2-.5 3.2-.4 1-.9 1.8-1.5 2.5-.7.7-1.4 1.2-2.4 1.6-.9.4-2 .6-3.1.6h-3v8.9h-5v-24.5h7.7c1.1 0 2.2.2 3.2.5s1.8.8 2.5 1.4c.6.6 1.2 1.4 1.6 2.4.4.9.5 2.1.5 3.4zm-4.9 0c0-1.1-.3-1.8-.8-2.3s-1.2-.7-2.1-.7h-2.7v6.1h2.7c.7 0 1.4-.2 2-.7s.9-1.3.9-2.4z" fill="#fff"/><path d="m101.5 24.7v-19.7h-5.2v19.7h-5.1v-24.5h15.3v24.5z" fill="#fff"/><path d="m126.3 7.9c0 1.2-.2 2.2-.5 3.2-.4 1-.9 1.8-1.5 2.5-.7.7-1.4 1.2-2.4 1.6-.9.4-2 .6-3.1.6h-2.9v8.9h-5.1v-24.5h7.7c1.1 0 2.2.2 3.2.5s1.8.8 2.5 1.4 1.2 1.4 1.6 2.4c.3.9.5 2.1.5 3.4zm-5 0c0-1.1-.3-1.8-.8-2.3s-1.2-.7-2.1-.7h-2.7v6.1h2.7c.7 0 1.4-.2 2-.7s.9-1.3.9-2.4z" fill="#fff"/><path d="m128.9 24.7v-24.5h14.2v4.7h-9.1v5.1h7.8v4.7h-7.8v5.2h9.1v4.8z" fill="#fff"/><path d="m160.9 24.7v-11.6h-.1l-1.7 4.4-1.3 3.2h-3.6l-1.4-3.4-1.6-4.2h-.1v11.6h-5v-24.5h4.7l2.8 6.8 2.4 6.1h.2l2.3-6.2 2.8-6.8h4.8v24.5h-5.2z" fill="#fff"/><path d="m185.6 16.9c0 1.3-.2 2.4-.6 3.4s-.9 1.8-1.6 2.4c-.7.7-1.5 1.2-2.4 1.5s-2 .5-3.1.5h-8v-24.5h5.1v9.2h3.1c1.3 0 2.4.2 3.4.6s1.7.9 2.4 1.5c.6.7 1.1 1.5 1.4 2.4.2.9.3 1.9.3 3zm-5 .1c0-1.1-.3-1.8-.8-2.2s-1.2-.6-2.1-.6h-2.7v5.8h2.8c.9 0 1.6-.3 2.1-.8.5-.6.7-1.3.7-2.2z" fill="#fff"/><path d="m188.3 24.7v-24.5h14.2v4.7h-9.1v5.1h7.8v4.7h-7.8v5.2h9.1v4.8z" fill="#fff"/><path d="m221 7.9c0 1.2-.2 2.2-.5 3.2s-.9 1.8-1.5 2.5c-.7.7-1.4 1.2-2.4 1.6-.9.4-2 .6-3.1.6h-2.9v8.9h-5.1v-24.5h7.7c1.1 0 2.2.2 3.2.5s1.8.8 2.5 1.4 1.2 1.4 1.6 2.4c.3.9.5 2.1.5 3.4zm-4.9 0c0-1.1-.3-1.8-.8-2.3s-1.2-.7-2.1-.7h-2.7v6.1h2.7c.7 0 1.4-.2 2-.7s.9-1.3.9-2.4z" fill="#fff"/><path d="m223.6 24.7v-24.5h5.1v9.2h3.1c1.3 0 2.4.2 3.4.6s1.7.9 2.3 1.5c.6.7 1.1 1.5 1.4 2.4s.5 1.9.5 3c0 1.3-.2 2.5-.5 3.4-.4 1-.9 1.8-1.5 2.4-.7.6-1.5 1.1-2.4 1.5-.9.3-2 .5-3.1.5zm7.9-4.7c.9 0 1.6-.3 2.1-.8s.7-1.3.7-2.2c0-1.1-.2-1.8-.7-2.2s-1.2-.6-2.1-.6h-2.8v5.8zm9.7 4.7v-24.5h5.1v24.5z" fill="#fff"/><g fill="#d6a26c"><path d="m83.7 45.6c0 1.3-.3 2.3-1 3s-1.6 1-2.7 1h-4.2v-14h4c1.3 0 2.2.3 2.8 1s.9 1.6.9 2.7c0 .6-.1 1.2-.4 1.7-.2.5-.7.9-1.4 1.3v.1c.4.1.7.2.9.5s.5.5.6.8c.2.3.3.6.3 1 .2.1.2.5.2.9zm-6.3-8.5v4.5h2.2c.8 0 1.4-.2 1.7-.6s.5-1 .5-1.7-.2-1.2-.5-1.6c-.4-.4-.9-.6-1.7-.6zm0 6v4.9h2.4c.4 0 .8-.1 1.1-.2s.5-.3.7-.5.3-.5.4-.8.1-.6.1-1c0-.7-.2-1.3-.5-1.7-.4-.4-.9-.7-1.8-.7z"/><path d="m95 37.1v12.4h-1.7v-12.4h-3.2v-1.5h8v1.5z"/><path d="m108.1 45.6c0 1.3-.3 2.3-1 3s-1.6 1-2.7 1h-4.2v-14h4c1.3 0 2.2.3 2.8 1s.9 1.6.9 2.7c0 .6-.1 1.2-.4 1.7-.2.5-.7.9-1.4 1.3v.1c.4.1.7.2.9.5s.5.5.6.8c.2.3.3.6.3 1 .2.1.2.5.2.9zm-6.3-8.5v4.5h2.2c.8 0 1.4-.2 1.7-.6s.5-1 .5-1.7-.2-1.2-.5-1.6c-.4-.4-.9-.6-1.7-.6zm0 6v4.9h2.4c.4 0 .8-.1 1.1-.2s.5-.3.7-.5.3-.5.4-.8.1-.6.1-1c0-.7-.2-1.3-.5-1.7-.4-.4-.9-.7-1.8-.7z"/><path d="m118.7 45.5c0 .6-.1 1.2-.3 1.7s-.5 1-.8 1.3c-.4.4-.8.6-1.3.8s-1 .3-1.6.3c-.7 0-1.4-.1-1.9-.4-.5-.2-.9-.6-1.3-1-.3-.4-.6-.9-.7-1.4s-.2-1.1-.2-1.7v-5.6c0-.5.1-.9.2-1.4s.4-.9.7-1.3.7-.7 1.3-1c.5-.3 1.1-.4 1.9-.4.7 0 1.3.1 1.8.4.5.2.9.6 1.3 1 .3.4.6.8.7 1.3.2.5.2 1 .2 1.5zm-1.7-5.8c0-.2 0-.5-.1-.8s-.2-.6-.4-.8c-.2-.3-.4-.5-.7-.7s-.7-.3-1.2-.3-.9.1-1.2.3-.6.4-.7.7c-.2.3-.3.5-.4.9-.1.3-.1.6-.1.8v5.5c0 .4 0 .8.1 1.1.1.4.2.7.4.9s.5.5.8.6c.3.2.7.2 1.1.2.3 0 .6-.1.9-.2s.5-.3.7-.5.4-.5.5-.8.2-.7.2-1v-5.9z"/><path d="m121.6 49.6v-14h7.4v1.6h-5.7v4.6h4.9v1.5h-4.9v4.7h5.7v1.6z"/><path d="m140.3 49.6v-9.7h-.1l-1.1 2.7-1.9 4.3h-1.1l-1.9-4.4-1.1-2.6h-.1v9.7h-1.7v-14h1.7l2.3 5.3 1.3 3.2h.1l1.4-3.3 2.3-5.2h1.7v14z"/><path d="m157.7 47c-.2.9-.7 1.6-1.4 2s-1.5.7-2.5.7c-.6 0-1.2-.1-1.7-.3s-.9-.5-1.3-.9c-.3-.4-.6-.8-.8-1.3s-.3-1.1-.3-1.7v-5.9c0-.6.1-1.1.3-1.6s.4-.9.8-1.3c.3-.4.8-.7 1.3-.9s1.1-.3 1.7-.3c.9 0 1.8.2 2.4.7.7.5 1.2 1.1 1.4 2l-1.6.6c-.1-.5-.4-.9-.8-1.2s-.9-.5-1.5-.5c-.4 0-.7.1-1 .2s-.5.3-.7.6c-.2.2-.4.5-.5.8s-.2.6-.2.9v5.9c0 .3.1.7.2 1s.3.6.5.8.4.4.7.6.6.2 1 .2c.6 0 1.1-.2 1.5-.5s.7-.7.8-1.2z"/><path d="m169.1 49.6v-9.7h-.1l-1.1 2.7-1.9 4.3h-1.1l-1.9-4.4-1.1-2.6h-.1v9.7h-1.7v-14h1.7l2.3 5.3 1.3 3.2h.1l1.4-3.3 2.3-5.2h1.7v14z"/><path d="m180.7 49.6-.9-3.2h-4.4l-.9 3.2h-1.7l4-14h1.5l4 14zm-2.3-8.3-.8-3.1h-.1l-.8 3.1-1 3.6h3.7z"/><path d="m192.5 39.8c0 .5-.1 1.1-.2 1.6s-.4.9-.7 1.3-.7.7-1.2.9-1.1.4-1.8.4h-2.4v5.6h-1.7v-14h3.9c1.3 0 2.3.3 3 1 .8.7 1.1 1.8 1.1 3.2zm-1.6 0c0-.8-.2-1.4-.6-1.9s-1-.7-1.9-.7h-2.3v5.2h2.3c.5 0 .9-.1 1.2-.2s.6-.3.7-.6c.2-.2.3-.5.4-.8s.2-.7.2-1z"/><path d="m198.5 37.1v12.4h-1.7v-12.4h-3.2v-1.5h8v1.5z"/><path d="m207 48.5c-.8-.1-1.5-.2-2.1-.5s-1-.7-1.4-1.2-.6-1.1-.8-1.9c-.2-.7-.2-1.6-.2-2.6 0-1.9.4-3.3 1.1-4.3s1.8-1.6 3.3-1.7v-.7h1.7v.7h.1c1.6.1 2.7.7 3.4 1.7s1 2.4 1 4.3c0 1-.1 1.9-.2 2.6-.2.7-.4 1.3-.8 1.8s-.8.9-1.4 1.1c-.6.3-1.2.5-2 .6h-.1v1.1h-1.6zm0-10.8c-.9 0-1.7.4-2.1 1.2-.5.7-.7 1.9-.7 3.4 0 .9.1 1.7.2 2.2.1.6.3 1.1.6 1.4.2.4.5.6.9.8.3.2.7.2 1.2.3v-9.3zm1.7 9.3c.4 0 .8-.1 1.2-.3s.7-.4.9-.7c.3-.3.4-.8.6-1.4s.2-1.4.2-2.3c0-1.6-.2-2.7-.7-3.4s-1.2-1.1-2.2-1.2z"/><path d="m223.7 45.5c0 .6-.1 1.2-.3 1.7s-.5 1-.8 1.3c-.4.4-.8.6-1.3.8s-1 .3-1.6.3c-.7 0-1.4-.1-1.9-.4-.5-.2-.9-.6-1.3-1-.3-.4-.6-.9-.7-1.4s-.2-1.1-.2-1.7v-5.6c0-.5.1-.9.2-1.4s.4-.9.7-1.3.7-.7 1.3-1c.5-.3 1.1-.4 1.9-.4.7 0 1.3.1 1.8.4.5.2.9.6 1.3 1 .3.4.6.8.7 1.3.2.5.2 1 .2 1.5zm-1.7-5.8c0-.2 0-.5-.1-.8s-.2-.6-.4-.8c-.2-.3-.4-.5-.7-.7s-.7-.3-1.2-.3-.9.1-1.2.3-.6.4-.7.7c-.2.3-.3.5-.4.9-.1.3-.1.6-.1.8v5.5c0 .4 0 .8.1 1.1.1.4.2.7.4.9s.5.5.8.6c.3.2.7.2 1.1.2.3 0 .6-.1.9-.2s.5-.3.7-.5.4-.5.5-.8.2-.7.2-1v-5.9z"/><path d="m233 49.6v-6.4h-4.7v6.4h-1.7v-14h1.7v6.1h4.7v-6.1h1.7v14z"/><path d="m237.9 49.6v-14h7.4v1.6h-5.7v4.6h4.9v1.5h-4.9v4.7h5.7v1.6z"/></g></svg>