<svg enable-background="new 0 0 207.5 14.3" height="14.3" viewBox="0 0 207.5 14.3" width="207.5" xmlns="http://www.w3.org/2000/svg"><path d="m2.4 1.8-.9.2.7.8-.4.3-.6-.9-.5.9-.4-.3.7-.8-1-.2.2-.4.9.3-.1-1.1h.5l-.1 1.1.9-.3z"/><path d="m9.5 5.6h-.6v-4.4h-2.5v4.4h-.6v-5h3.8v5z"/><path d="m11.6 5.1v2.1h-.6v-5.1h.6v.6c.2-.5.7-.7 1.2-.7s.8.2 1.1.5.4.7.4 1.3-.1 1.1-.4 1.4c-.3.4-.7.5-1.2.5s-.9-.2-1.1-.6zm0-1.4v.5c0 .3.1.5.3.7s.4.3.7.3.6-.1.8-.4.3-.6.3-1.1c0-.4-.1-.7-.3-.9s-.4-.3-.7-.3-.6.1-.8.3-.3.5-.3.9z"/><path d="m18.4 5.6h-.5v-2.8c-.1.1-.1.2-.2.4l-1.7 2.4h-.6v-3.5h.5v2.8c0-.1.1-.2.2-.3l1.7-2.5h.6z"/><path d="m23.4 5.7c-.5 0-.9-.2-1.3-.5-.3-.3-.5-.8-.5-1.3 0-.6.2-1.1.5-1.4.4-.4.8-.5 1.4-.5.5 0 .9.2 1.2.5s.4.8.4 1.4-.2 1-.5 1.4c-.2.2-.6.4-1.2.4zm.1-3.2c-.4 0-.7.1-.9.4-.2.2-.3.6-.3 1s.1.8.3 1 .5.4.9.4.6-.1.8-.4c.2-.2.3-.6.3-1s-.1-.8-.3-1c-.2-.3-.5-.4-.8-.4z"/><path d="m28.4 5.7v1.6h-.5v-1.6h-.1c-.5 0-.9-.2-1.2-.5s-.5-.8-.5-1.3c0-.6.2-1 .5-1.4.3-.3.7-.5 1.2-.5h.1v-1.4h.5v1.4h.1c.5 0 1 .2 1.3.5s.5.8.5 1.4c0 .5-.2 1-.5 1.3s-.7.5-1.2.5zm-.5-.5v-2.7h-.1c-.4 0-.6.1-.9.4-.2.2-.3.6-.3 1s.1.7.3 1c.3.2.6.3 1 .3zm.5-2.7v2.8h.1c.4 0 .6-.1.9-.4.2-.2.3-.6.3-1s-.1-.8-.3-1c-.2-.3-.5-.4-1-.4z"/><path d="m32.9 5.7c-.5 0-.9-.2-1.3-.5-.3-.3-.5-.8-.5-1.3 0-.6.2-1.1.5-1.4.4-.4.8-.5 1.4-.5.5 0 .9.2 1.2.5s.4.8.4 1.4-.2 1-.5 1.4c-.2.2-.7.4-1.2.4zm0-3.2c-.4 0-.7.1-.9.4-.2.2-.3.6-.3 1s.1.8.3 1 .5.4.9.4.6-.1.8-.4c.2-.2.3-.6.3-1s-.1-.8-.3-1c-.1-.3-.4-.4-.8-.4z"/><path d="m36.4 5.1v2.1h-.6v-5.1h.6v.6c.3-.5.7-.7 1.2-.7s.8.2 1.1.5.4.7.4 1.3-.1 1.1-.4 1.4c-.3.4-.7.5-1.2.5s-.9-.2-1.1-.6zm0-1.4v.5c0 .3.1.5.3.7s.4.3.7.3.6-.1.8-.4.3-.6.3-1.1c0-.4-.1-.7-.3-.9s-.4-.3-.7-.3-.6.1-.8.3-.3.5-.3.9z"/><path d="m44 5.6h-.6v-2.9c-.1.1-.1.4-.2.7l-.9 2.3h-.5l-.9-2.3c0-.1-.1-.3-.2-.7v2.9h-.5v-3.5h.7l.9 2.3c.1.2.2.4.3.7l.3-.7.9-2.3h.7z"/><path d="m48 5.6h-.6v-3.1h-.8c-.1 1.1-.3 2-.5 2.4-.2.5-.5.7-.9.7-.1 0-.2 0-.3 0v-.5c.1 0 .2.1.3.1.5 0 .8-1 1-3.1h1.8z"/><path d="m52.3 4h-2.5c0 .4.1.7.3.9s.5.3.8.3c.4 0 .8-.1 1.1-.4v.5c-.3.2-.7.3-1.2.3s-.9-.2-1.2-.5-.4-.8-.4-1.4.2-1 .5-1.4c.3-.1.6-.3 1.1-.3s.8.2 1.1.5.4.7.4 1.3zm-.6-.5c0-.3-.1-.6-.2-.8-.2-.2-.4-.3-.6-.3-.3 0-.5.1-.7.3s-.3.4-.3.8z"/><path d="m56.3 5.6h-.6v-1.6h-1.8v1.6h-.6v-3.5h.6v1.5h1.8v-1.5h.6z"/><path d="m60.7 5.6h-.5v-2.8c-.1.1-.2.2-.3.4l-1.6 2.4h-.6v-3.5h.5v2.8c0-.1.1-.2.2-.3l1.7-2.5h.6z"/><path d="m65 5.6h-.5v-2.8c-.1.1-.1.2-.2.4l-1.6 2.4h-.6v-3.5h.5v2.8c0-.1.1-.2.2-.3l1.7-2.5h.5z"/><path d="m71.5 5.6h-.5v-3.1h-1.8v3.1h-.6v-3.5h2.9z"/><path d="m74.4 5.7c-.5 0-.9-.2-1.3-.5-.3-.3-.5-.8-.5-1.3 0-.6.2-1.1.5-1.4s.8-.5 1.4-.5c.5 0 .9.2 1.2.5s.4.8.4 1.4-.2 1-.5 1.4c-.2.2-.7.4-1.2.4zm0-3.2c-.4 0-.7.1-.9.4-.2.2-.3.6-.3 1s.1.8.3 1 .5.4.9.4.6-.1.8-.4c.2-.2.3-.6.3-1s-.1-.8-.3-1c-.1-.3-.4-.4-.8-.4z"/><path d="m80.4 6.9h-.5v-1.3h-2.6v1.3h-.5v-1.8h.3c.6-.8.9-1.9.9-3h1.8v3.1h.5v1.7zm-1.1-1.8v-2.6h-.8c-.1 1-.3 1.8-.8 2.6z"/><path d="m84.4 5.6h-.6v-3.1h-1.8v3.1h-.6v-3.5h2.9v3.5z"/><path d="m88.7 5.6h-.5v-2.8c0 .1-.1.2-.2.4l-1.6 2.4h-.6v-3.5h.5v2.8c0-.1.1-.2.2-.3l1.7-2.5h.6v3.5z"/><path d="m92.5 5.5c-.3.2-.6.2-1 .2-.5 0-.9-.2-1.2-.5s-.5-.8-.5-1.3c0-.6.2-1.1.5-1.4.4-.3.9-.5 1.4-.5.3 0 .6 0 .8.2v.6c-.3-.2-.5-.3-.8-.3-.4 0-.7.1-.9.4s-.3.6-.3 1 .1.7.3 1c.2.2.5.4.9.4.3 0 .6-.1.9-.3v.5z"/><path d="m96.6 5.6h-.8l-1.6-1.7v1.7h-.6v-3.5h.6v1.6l1.5-1.6h.7l-1.6 1.7z"/><path d="m100.4 5.6h-.5v-2.8c-.1.1-.1.2-.2.4l-1.7 2.4h-.6v-3.5h.5v2.8c0-.1.1-.2.2-.3l1.7-2.5h.6z"/><path d="m104 5.6v-3.5h1.5c.3 0 .6.1.8.2.2.2.3.4.3.6 0 .5-.2.7-.7.8.5.1.8.3.8.8 0 .3-.1.5-.3.7s-.5.3-.8.3h-1.6zm.5-3.1v1h.8c.5 0 .7-.2.7-.5s-.2-.5-.6-.5zm0 1.5v1.1h1c.5 0 .7-.2.7-.6s-.3-.5-.8-.5z"/><path d="m113.1 5.6h-.6v-3.1h-1.8v3.1h-.6v-3.5h2.9v3.5z"/><path d="m115 5.1v2.1h-.6v-5.1h.6v.6c.3-.5.7-.7 1.2-.7s.8.2 1.1.5.4.7.4 1.3-.1 1.1-.4 1.4c-.3.4-.7.5-1.2.5s-.8-.2-1.1-.6zm0-1.4v.5c0 .3.1.5.3.7s.4.3.7.3.6-.1.8-.4.3-.6.3-1.1c0-.4-.1-.7-.3-.9s-.4-.3-.7-.3-.6.1-.8.3-.3.5-.3.9z"/><path d="m121.8 5.6h-.5v-2.8c-.1.1-.1.2-.2.4l-1.6 2.4h-.6v-3.5h.5v2.8c0-.1.1-.2.2-.3l1.7-2.5h.6v3.5z"/><path d="m125.8 5.6h-.6v-3.1h-.8c-.1 1.1-.3 2-.5 2.4-.2.5-.5.7-.9.7-.1 0-.2 0-.3 0v-.5c.1 0 .2.1.3.1.5 0 .8-1 1-3.1h1.9v3.5z"/><path d="m128.7 5.7c-.5 0-.9-.2-1.3-.5-.3-.3-.5-.8-.5-1.3 0-.6.2-1.1.5-1.4s.8-.5 1.3-.5.9.2 1.2.5.4.8.4 1.4-.2 1-.5 1.4c-.2.2-.6.4-1.1.4zm0-3.2c-.4 0-.7.1-.9.4-.2.2-.3.6-.3 1s.1.8.3 1 .5.4.9.4.6-.1.8-.4c.2-.2.3-.6.3-1s-.1-.8-.3-1c-.1-.3-.4-.4-.8-.4z"/><path d="m136.3 5.6h-.8l-1.6-1.8v1.8h-.5v-1.7l-1.6 1.8h-.8l1.8-1.8-1.6-1.7h.7l1.5 1.7v-1.8h.5v1.7l1.5-1.7h.7l-1.7 1.7z"/><path d="m140 4h-2.5c0 .4.1.7.3.9s.5.3.8.3c.4 0 .8-.1 1.1-.4v.5c-.3.2-.7.3-1.2.3s-.9-.2-1.2-.5-.4-.8-.4-1.4.2-1 .5-1.4c.3-.3.7-.5 1.2-.5s.8.2 1.1.5.4.7.4 1.3v.4zm-.6-.5c0-.3-.1-.6-.2-.8-.2-.2-.4-.3-.6-.3-.3 0-.5.1-.7.3s-.3.4-.3.8z"/><path d="m144 5.6h-.6v-1.6h-1.8v1.6h-.6v-3.5h.6v1.5h1.8v-1.5h.6z"/><path d="m148.4 5.6h-.5v-2.8c-.1.1-.1.2-.2.4l-1.7 2.4h-.6v-3.5h.5v2.8c0-.1.1-.2.2-.3l1.7-2.5h.6z"/><path d="m152.2 5.6h-.6v-1.5h-.5c-.2 0-.4.2-.6.6l-.5.9h-.7l.6-1.1c.1-.3.3-.4.5-.5-.3 0-.5-.1-.6-.3s-.2-.4-.2-.6c0-.3.1-.6.3-.7.2-.2.5-.3 1-.3h1.2v3.5zm-.6-1.9v-1.2h-.7c-.5 0-.7.2-.7.5 0 .4.2.6.7.6h.7z"/><path d="m156.1 2.1-1.1 1.8 1.2 1.8h-.7l-.7-1.2c0-.1-.1-.2-.2-.3s-.1.1-.2.3l-.7 1.2h-.7l1.2-1.7-1.2-1.8h.7l.7 1.2c.1.1.1.2.1.3l.9-1.5h.7z"/><path d="m159.5 1.2c-.1 0-.2 0-.3-.1s-.1-.2-.1-.3 0-.2.1-.3.2-.1.3-.1.2 0 .3.1.1.2.1.3 0 .2-.1.3c-.1 0-.2.1-.3.1zm.3 4.4h-.6v-3.5h.6z"/><path d="m163.3 5.7c-.7 0-1.3-.2-1.7-.7s-.6-1.1-.6-1.8c0-.8.2-1.4.6-1.9s1-.7 1.8-.7c.7 0 1.2.2 1.6.7s.6 1.1.6 1.8c0 .8-.2 1.5-.6 1.9-.4.5-1 .7-1.7.7zm0-4.6c-.5 0-.9.2-1.3.6-.3.4-.5.9-.5 1.5s.2 1.1.5 1.5.7.6 1.2.6 1-.2 1.3-.5c.3-.4.5-.9.5-1.5 0-.7-.2-1.2-.5-1.5-.2-.5-.6-.7-1.2-.7z"/><path d="m166.6 5.4v-.7c.1.1.2.1.3.2s.2.1.3.1.2.1.4.1.2 0 .3 0c.4 0 .6-.1.8-.2s.3-.3.3-.6c0-.1 0-.3-.1-.4s-.1-.2-.2-.3-.2-.2-.4-.2c-.1-.1-.3-.2-.5-.2-.2-.1-.3-.2-.5-.3s-.3-.2-.4-.3-.2-.2-.3-.4c-.1-.1-.1-.3-.1-.5s0-.4.1-.6.2-.3.4-.4.3-.2.5-.2c.2-.1.4-.1.6-.1.5 0 .8.1 1.1.2v.7c-.3-.2-.7-.3-1.1-.3-.1 0-.3 0-.4 0s-.2.1-.3.1c-.1.1-.2.1-.2.2-.1.1-.1.2-.1.3s0 .2.1.3c0 .1.1.2.2.3s.2.2.3.2c.1.1.3.2.5.2.2.1.3.2.5.3s.3.2.4.3.2.2.3.4c.1.1.1.3.1.5s0 .5-.1.6c-.1.2-.2.3-.4.4s-.3.2-.6.2c-.2 0-.4.1-.7.1-.1 0-.2 0-.3 0s-.2 0-.4-.1c-.1 0-.2-.1-.3-.1.1.3 0 .3-.1.2z"/><path d="m175.9 5.6h-.5v-2.8c-.1.1-.1.2-.2.4l-1.6 2.4h-.6v-3.5h.5v2.8c0-.1.1-.2.2-.3l1.7-2.5h.6v3.5z"/><path d="m183.4 5.6h-.6l-.5-1.4h-2.1l-.5 1.4h-.7l1.9-5h.6zm-1.3-1.9-.8-2.1c0-.1-.1-.2-.1-.3 0 .1 0 .3-.1.3l-.8 2.1z"/><path d="m187.3 5.6h-.6v-2c0-.8-.3-1.1-.8-1.1-.3 0-.5.1-.7.3s-.3.5-.3.8v2h-.6v-3.5h.6v.6c.3-.4.7-.7 1.2-.7.4 0 .7.1.9.4s.3.6.3 1.1z"/><path d="m191.6 5.6h-.6v-.6c-.3.5-.7.7-1.2.7-.4 0-.8-.2-1.1-.5s-.4-.8-.4-1.3c0-.6.1-1.1.4-1.4s.8-.5 1.3-.5.8.2 1.1.6v-2.2h.6v5.2zm-.6-1.6v-.5c0-.3-.1-.5-.3-.7s-.4-.3-.7-.3-.6.1-.8.4-.3.6-.3 1.1c0 .4.1.7.3 1 .2.2.4.4.8.4.3 0 .6-.1.8-.3s.2-.7.2-1.1z"/><path d="m194.8 2.6c-.1-.1-.2-.1-.4-.1s-.4.1-.6.3-.2.5-.2.9v1.8h-.6v-3.4h.6v.7c.1-.2.2-.4.4-.6.2-.1.4-.2.6-.2h.3v.6z"/><path d="m197.2 5.7c-.5 0-.9-.2-1.3-.5-.3-.3-.5-.8-.5-1.3 0-.6.2-1.1.5-1.4s.8-.5 1.3-.5.9.2 1.2.5.4.8.4 1.4-.2 1-.5 1.4c-.2.2-.6.4-1.1.4zm0-3.2c-.4 0-.7.1-.9.4-.2.2-.3.6-.3 1s.1.8.3 1 .5.4.9.4.6-.1.8-.4c.2-.2.3-.6.3-1s-.1-.8-.3-1c-.1-.3-.4-.4-.8-.4z"/><path d="m200.4 1.2c-.1 0-.2 0-.3-.1 0-.1-.1-.2-.1-.3s0-.2.1-.3.2-.1.3-.1.2 0 .3.1.1.2.1.3 0 .2-.1.3c-.1 0-.2.1-.3.1zm.3 4.4h-.6v-3.5h.6z"/><path d="m205.3 5.6h-.6v-.6c-.3.5-.7.7-1.3.7-.5 0-.9-.2-1.1-.5-.3-.3-.4-.8-.4-1.4s.2-1.1.5-1.5.7-.6 1.3-.6c.5 0 .9.2 1.1.6v-2.3h.6v5.6zm-.6-1.7v-.6c0-.3-.1-.6-.3-.8s-.5-.3-.8-.3c-.4 0-.7.1-.9.4s-.3.6-.3 1.1c0 .4.1.8.3 1 .2.3.5.4.8.4s.6-.1.8-.4c.3-.1.4-.4.4-.8z"/><path d="m207 5.7c-.1 0-.2 0-.3-.1s-.1-.2-.1-.3 0-.2.1-.3.2-.1.3-.1.2 0 .3.1.1.2.1.3 0 .2-.1.3-.2.1-.3.1z"/><path d="m19.7 12.5h-.7v-4.8h-2.8v4.7h-.6v-5.2h4v5.3z"/><path d="m22.8 12.6c-.6 0-1-.2-1.3-.5-.3-.4-.5-.8-.5-1.4s.2-1.1.5-1.5.8-.5 1.4-.5 1 .2 1.3.5.5.8.5 1.4-.2 1.1-.5 1.5c-.4.3-.8.5-1.4.5zm0-3.5c-.4 0-.7.1-.9.4s-.3.6-.3 1.1c0 .4.1.8.3 1.1s.5.4.9.4.7-.1.9-.4.3-.6.3-1.1-.1-.8-.3-1.1-.5-.4-.9-.4z"/><path d="m28.5 12.3c-.3.2-.6.3-1 .3-.5 0-1-.2-1.3-.5-.3-.4-.5-.8-.5-1.4s.2-1.1.5-1.5c.4-.4.8-.6 1.4-.6.3 0 .6.1.9.2v.6c-.3-.2-.6-.3-.9-.3-.4 0-.7.1-.9.4s-.4.6-.4 1.1c0 .4.1.8.3 1.1s.5.4.9.4c.3 0 .6-.1.9-.3v.5z"/><path d="m32.4 12.5h-.6v-3.3h-.9c-.1 1.2-.3 2.1-.5 2.6s-.6.7-1 .7c-.1 0-.2 0-.3-.1v-.5c.1 0 .2.1.3.1.5 0 .9-1.1 1-3.3h2z"/><path d="m36.9 10.7h-2.7c0 .4.1.7.3 1 .2.2.5.3.9.3s.8-.1 1.2-.4v.6c-.3.2-.8.4-1.3.4s-1-.2-1.3-.5-.5-.8-.5-1.5c0-.6.2-1.1.5-1.4.3-.4.7-.6 1.2-.6s.9.2 1.1.5c.3.3.4.8.4 1.3v.3zm-.6-.5c0-.4-.1-.6-.3-.8s-.4-.3-.7-.3-.5.1-.7.3-.3.5-.4.8z"/><path d="m42 12.6c-.6 0-1-.2-1.3-.5-.3-.4-.5-.8-.5-1.4s.2-1.1.5-1.5.8-.5 1.4-.5 1 .2 1.3.5.5.8.5 1.4-.2 1.1-.5 1.5c-.3.3-.8.5-1.4.5zm.1-3.5c-.4 0-.7.1-.9.4s-.3.6-.3 1.1c0 .4.1.8.3 1.1s.5.4.9.4.7-.1.9-.4.3-.6.3-1.1-.1-.8-.3-1.1-.5-.4-.9-.4z"/><path d="m48.3 12.5h-.8l-1.7-1.8v1.8h-.6v-3.8h.6v1.7l1.6-1.7h.8l-1.7 1.8z"/><path d="m50.7 12.6c-.6 0-1-.2-1.3-.5-.3-.4-.5-.8-.5-1.4s.2-1.1.5-1.5.8-.5 1.4-.5 1 .2 1.3.5.5.8.5 1.4-.2 1.1-.5 1.5c-.3.3-.8.5-1.4.5zm.1-3.5c-.4 0-.7.1-.9.4s-.3.6-.3 1.1c0 .4.1.8.3 1.1s.5.4.9.4.7-.1.9-.4.3-.6.3-1.1-.1-.8-.3-1.1-.5-.4-.9-.4z"/><path d="m57 12.5h-.6v-1.7h-1.9v1.7h-.6v-3.8h.6v1.6h1.9v-1.6h.6z"/><path d="m61.5 12.5h-.6v-1.5c-.4.2-.8.4-1.2.4-.8 0-1.3-.4-1.3-1.3v-1.4h.6v1.3c0 .6.2.8.7.8.4 0 .8-.1 1.2-.3v-1.8h.6z"/><path d="m65.7 12.5h-.6v-.6c-.3.5-.6.7-1.2.7-.4 0-.7-.1-.9-.3s-.3-.5-.3-.8c0-.7.4-1.1 1.2-1.2l1.1-.2c0-.6-.3-1-.8-1s-.9.2-1.2.5v-.7c.4-.2.8-.4 1.3-.4.9 0 1.3.5 1.3 1.4v2.6zm-.6-2-.9.1c-.3 0-.5.1-.6.2s-.2.3-.2.5.1.3.2.5c.1.1.3.2.5.2.3 0 .5-.1.7-.3s.3-.5.3-.8z"/><path d="m70.3 12.5h-.6v-1.7h-1.9v1.7h-.6v-3.8h.6v1.6h1.9v-1.6h.6z"/><path d="m74.9 12.5h-.5v-3c-.1.1-.1.3-.2.4l-1.7 2.6h-.6v-3.8h.6v3c0-.1.1-.2.2-.4l1.8-2.6h.6v3.8z"/><path d="m79 12.5h-.6v-1.6h-.5c-.2 0-.5.2-.7.6l-.5 1h-.7l.6-1.2c.1-.3.3-.5.5-.5-.3 0-.5-.1-.7-.3s-.2-.4-.2-.7.1-.6.4-.8c.2-.2.6-.3 1-.3h1.4zm-.6-2.1v-1.2h-.7c-.5 0-.8.2-.8.6s.2.6.7.6z"/><path d="m85.2 9.2h-1.2v3.3h-.6v-3.3h-1.1v-.5h2.9z"/><path d="m89.2 10.7h-2.7c0 .4.1.7.3 1 .2.2.5.3.9.3s.8-.1 1.2-.4v.6c-.3.2-.8.4-1.3.4s-1-.2-1.3-.5-.5-.8-.5-1.5c0-.6.2-1.1.5-1.4.3-.4.7-.6 1.2-.6s.9.2 1.1.5c.3.3.4.8.4 1.3v.3zm-.6-.5c0-.4-.1-.6-.3-.8s-.4-.3-.7-.3-.5.1-.7.3-.3.5-.4.8z"/><path d="m93 12.3c-.3.2-.6.3-1 .3-.5 0-1-.2-1.3-.5-.3-.4-.5-.8-.5-1.4s.2-1.1.5-1.5c.4-.4.8-.6 1.4-.6.3 0 .6.1.9.2v.6c-.3-.2-.6-.3-.9-.3-.4 0-.7.1-.9.4s-.4.6-.4 1.1c0 .4.1.8.3 1.1s.5.4.9.4c.3 0 .6-.1.9-.3v.5z"/><path d="m96.5 9.2h-1.1v3.3h-.6v-3.3h-1.1v-.5h2.9v.5z"/><path d="m99.1 12.6c-.6 0-1-.2-1.3-.5-.3-.4-.5-.8-.5-1.4s.2-1.1.5-1.5.8-.5 1.4-.5 1 .2 1.3.5.5.8.5 1.4-.2 1.1-.5 1.5c-.4.3-.8.5-1.4.5zm0-3.5c-.4 0-.7.1-.9.4s-.3.6-.3 1.1c0 .4.1.8.3 1.1s.5.4.9.4.7-.1.9-.4.3-.6.3-1.1-.1-.8-.3-1.1-.5-.4-.9-.4z"/><path d="m102.2 12.5v-3.8h1.6c.4 0 .7.1.9.2.2.2.3.4.3.7 0 .5-.2.8-.7.9.6.1.9.4.9.9 0 .3-.1.6-.4.8-.2.2-.5.3-.9.3zm.6-3.3v1.1h.9c.5 0 .7-.2.7-.6 0-.3-.2-.5-.7-.5zm0 1.6v1.2h1c.5 0 .7-.2.7-.6s-.3-.6-.8-.6z"/><path d="m108 12.6c-.6 0-1-.2-1.3-.5-.3-.4-.5-.8-.5-1.4s.2-1.1.5-1.5.8-.5 1.4-.5 1 .2 1.3.5.5.8.5 1.4-.2 1.1-.5 1.5c-.3.3-.8.5-1.4.5zm.1-3.5c-.4 0-.7.1-.9.4s-.3.6-.3 1.1c0 .4.1.8.3 1.1s.5.4.9.4.7-.1.9-.4.3-.6.3-1.1-.1-.8-.3-1.1-.5-.4-.9-.4z"/><path d="m113.3 9.2h-1.5v3.3h-.6v-3.8h2.1z"/><path d="m115.9 12.6c-.6 0-1-.2-1.3-.5-.3-.4-.5-.8-.5-1.4s.2-1.1.5-1.5.8-.5 1.4-.5 1 .2 1.3.5.5.8.5 1.4-.2 1.1-.5 1.5c-.4.3-.8.5-1.4.5zm0-3.5c-.4 0-.7.1-.9.4s-.3.6-.3 1.1c0 .4.1.8.3 1.1s.5.4.9.4.7-.1.9-.4.3-.6.3-1.1-.1-.8-.3-1.1-.5-.4-.9-.4z"/><path d="m124.5 12.5h-.6v-3.3h-1.9v3.3h-.6v-3.8h3.1z"/><path d="m129 10.7h-2.7c0 .4.1.7.3 1 .2.2.5.3.9.3s.8-.1 1.2-.4v.6c-.3.2-.8.4-1.3.4s-1-.2-1.3-.5-.5-.8-.5-1.5c0-.6.2-1.1.5-1.4.3-.4.7-.6 1.2-.6s.9.2 1.1.5c.3.3.4.8.4 1.3v.3zm-.6-.5c0-.4-.1-.6-.3-.8s-.4-.3-.7-.3-.5.1-.7.3-.3.5-.4.8z"/><path d="m130.8 11.9v2.3h-.6v-5.5h.6v.7c.3-.5.7-.8 1.3-.8.5 0 .9.2 1.1.5.3.3.4.8.4 1.4s-.2 1.1-.5 1.5-.7.6-1.3.6c-.4 0-.7-.3-1-.7zm0-1.5v.5c0 .3.1.6.3.8s.5.3.8.3c.4 0 .7-.1.9-.4s.3-.7.3-1.2c0-.4-.1-.8-.3-1s-.5-.4-.8-.4c-.4 0-.6.1-.8.4-.3.3-.4.6-.4 1z"/><path d="m138.1 12.5h-.5v-3c-.1.1-.1.3-.2.4l-1.7 2.6h-.6v-3.8h.6v3c0-.1.1-.2.2-.4l1.8-2.6h.6v3.8z"/><path d="m141.1 12.6c-.6 0-1-.2-1.3-.5-.3-.4-.5-.8-.5-1.4s.2-1.1.5-1.5.8-.5 1.4-.5 1 .2 1.3.5.5.8.5 1.4-.2 1.1-.5 1.5c-.4.3-.8.5-1.4.5zm.1-3.5c-.4 0-.7.1-.9.4s-.3.6-.3 1.1c0 .4.1.8.3 1.1s.5.4.9.4.7-.1.9-.4.3-.6.3-1.1-.1-.8-.3-1.1-.5-.4-.9-.4z"/><path d="m147.5 13.8h-.5v-1.4h-2.8v1.4h-.5v-1.8h.3c.6-.9 1-2 1-3.3h2v3.3h.6v1.8zm-1.1-1.8v-2.8h-.8c-.1 1-.4 1.9-.9 2.8z"/><path d="m151.3 12.5h-.6v-.6c-.3.5-.6.7-1.2.7-.4 0-.7-.1-.9-.3s-.3-.5-.3-.8c0-.7.4-1.1 1.2-1.2l1.1-.2c0-.6-.3-1-.8-1s-.9.2-1.2.5v-.7c.4-.2.8-.4 1.3-.4.9 0 1.3.5 1.3 1.4v2.6zm-.6-2-.9.1c-.3 0-.5.1-.6.2s-.2.3-.2.5.1.3.2.5c.1.1.3.2.5.2.3 0 .5-.1.7-.3s.3-.5.3-.8z"/><path d="m158.2 10.6h-3.8v-.5h3.8z"/><path d="m163.7 8.5c0-.2 0-.3-.1-.4 0-.1-.1-.2-.2-.3s-.2-.1-.3-.2c-.1 0-.2-.1-.4-.1-.1 0-.2 0-.3 0s-.2.1-.3.1c-.1.1-.2.1-.3.2s-.2.2-.3.3v-.5c.2-.2.4-.3.6-.4s.5-.1.8-.1c.2 0 .4 0 .6.1s.3.2.5.3.2.3.3.4c.1.2.1.4.1.6s0 .4-.1.6c0 .2-.1.3-.2.5s-.2.3-.4.4-.3.3-.5.4c-.2.2-.5.3-.6.5-.2.1-.3.2-.4.4-.1.1-.2.2-.2.3s-.1.2-.1.4h2.6v.5h-3.3v-.3c0-.2 0-.4.1-.6 0-.2.1-.3.2-.5s.3-.3.4-.5c.2-.2.4-.3.7-.5.2-.1.4-.3.5-.4s.2-.3.3-.4.1-.3.2-.4.1-.2.1-.4z"/><path d="m168.9 9.5c0 .5 0 .9-.1 1.3s-.2.7-.4 1-.4.5-.7.6-.6.2-.9.2-.7-.1-.9-.2v-.6c.3.2.6.2.9.2.2 0 .5 0 .6-.1.2-.1.3-.2.5-.4.1-.2.2-.4.3-.7s.1-.6.1-1c-.2.5-.6.7-1.2.7-.2 0-.4 0-.6-.1s-.4-.2-.5-.3-.2-.3-.3-.5-.1-.4-.1-.7 0-.5.1-.7.2-.4.4-.6.3-.3.5-.4.4-.1.7-.1.5.1.7.2.4.3.5.5.2.5.3.8c0 .2.1.5.1.9zm-.7-.6c0-.2 0-.4-.1-.6s-.1-.3-.2-.4-.2-.2-.3-.3-.3-.1-.4-.1-.3 0-.4.1-.2.1-.3.2-.2.2-.2.4c-.1.1-.1.3-.1.5s0 .4.1.5.1.3.2.4.2.2.3.2c.1.1.3.1.4.1s.3 0 .4-.1.2-.1.3-.2.2-.2.2-.3c.1-.1.1-.2.1-.4z"/><path d="m173.2 9.5c0 .5 0 .9-.1 1.3s-.2.7-.4 1-.4.5-.7.6-.6.2-.9.2-.7-.1-.9-.2v-.6c.3.2.6.2.9.2.2 0 .5 0 .6-.1.2-.1.3-.2.5-.4.1-.2.2-.4.3-.7s.1-.6.1-1c-.2.5-.6.7-1.2.7-.2 0-.4 0-.6-.1s-.4-.2-.5-.3-.2-.3-.3-.5-.1-.4-.1-.7 0-.5.1-.7.2-.4.4-.6.3-.3.5-.4.4-.1.7-.1.5.1.7.2.4.3.5.5.2.5.3.8c.1.2.1.5.1.9zm-.6-.6c0-.2 0-.4-.1-.6s-.1-.3-.2-.4-.2-.2-.3-.3-.3-.1-.4-.1-.3 0-.4.1-.2.1-.3.2-.2.2-.2.4c-.1.1-.1.3-.1.5s0 .4.1.5.1.3.2.4.2.2.3.2c.1.1.3.1.4.1s.3 0 .4-.1.2-.1.3-.2.2-.2.2-.3.1-.2.1-.4z"/><path d="m177.4 11.9v2.3h-.6v-5.5h.6v.7c.3-.5.7-.8 1.3-.8.5 0 .9.2 1.1.5.3.3.4.8.4 1.4s-.2 1.1-.5 1.5-.7.6-1.3.6c-.3 0-.7-.3-1-.7zm0-1.5v.5c0 .3.1.6.3.8s.5.3.8.3c.4 0 .7-.1.9-.4s.3-.7.3-1.2c0-.4-.1-.8-.3-1s-.5-.4-.8-.4c-.4 0-.6.1-.8.4-.3.3-.4.6-.4 1z"/><path d="m184.5 8.7-1.7 4.4c-.3.8-.7 1.2-1.3 1.2-.2 0-.3 0-.4 0v-.5c.1 0 .2.1.4.1.3 0 .5-.2.7-.5l.3-.7-1.5-4h.7l1 2.9s0 .1.1.3c0-.1 0-.2.1-.3l1.1-2.9z"/><path d="m188.3 6.8v.6c-.1.1-.3.1-.5.2-.6.1-.9.2-1.2.2-.2.1-.4.2-.5.5s-.2.6-.3 1.1c.3-.4.7-.6 1.3-.6.5 0 .9.2 1.2.5s.5.8.5 1.4-.2 1-.5 1.4-.7.5-1.3.5-1-.2-1.3-.6-.5-1-.5-1.8c0-.6.1-1.1.2-1.5s.3-.7.5-.9.4-.4.7-.4c.2-.1.7-.2 1.3-.3.2-.2.3-.2.4-.3zm-2.4 3.2v.5c0 .2 0 .4.1.6s.1.4.2.5.2.3.4.3c.1.1.3.1.5.1.3 0 .6-.1.8-.4s.3-.6.3-1-.1-.8-.3-1c-.2-.3-.5-.4-.9-.4-.5.1-.9.3-1.1.8z"/><path d="m190.3 12.5c-.1 0-.2 0-.3-.1s-.1-.2-.1-.3 0-.2.1-.3.2-.1.3-.1.2 0 .3.1.1.2.1.3 0 .2-.1.3-.2.1-.3.1z"/><path d="m194.4 7.2-2.5 6.2h-.6l2.5-6.2z"/><path d="m199.3 12.5h-.6v-3.2c-.1.2-.1.4-.3.7l-.9 2.4h-.5l-1-2.4c-.1-.1-.1-.4-.3-.7v3.1h-.5v-3.7h.8l1 2.5c.1.2.2.4.3.7l.3-.7 1-2.5h.8v3.8z"/><path d="m203.8 10.7h-2.7c0 .4.1.7.3 1 .2.2.5.3.9.3s.8-.1 1.2-.4v.6c-.3.2-.8.4-1.3.4s-1-.2-1.3-.5-.5-.8-.5-1.5c0-.6.2-1.1.5-1.4.3-.4.7-.6 1.2-.6s.9.2 1.1.5c.3.3.4.8.4 1.3v.3zm-.6-.5c0-.4-.1-.6-.3-.8s-.4-.3-.7-.3-.5.1-.7.3-.3.5-.4.8z"/><path d="m207.5 12.3c-.3.2-.6.3-1 .3-.5 0-1-.2-1.3-.5-.3-.4-.5-.8-.5-1.4s.2-1.1.5-1.5c.4-.4.8-.6 1.4-.6.3 0 .6.1.9.2v.6c-.3-.2-.6-.3-.9-.3-.4 0-.7.1-.9.4s-.4.6-.4 1.1c0 .4.1.8.3 1.1s.5.4.9.4c.3 0 .6-.1.9-.3v.5z"/></svg>