<svg enable-background="new 0 0 200.3 92.2" height="92.2" viewBox="0 0 200.3 92.2" width="200.3" xmlns="http://www.w3.org/2000/svg"><g fill="#fff"><path d="m0 46.1c0-12.2.1-24.4 0-36.6 0-3.9 2.8-8.3 7.2-9.3.6-.1 1.3-.2 1.9-.2h74.3c4.6 0 8.6 3.8 8.9 8.4.1.7 0 1.4 0 2.1v71c0 1.4-.1 2.8-.5 4.1-1.2 4-4.8 6.6-9 6.6-24.5 0-48.9 0-73.4 0-4.4 0-8.2-3-9.2-7.3-.2-.7-.1-1.4-.1-2.1-.1-12.3-.1-24.5-.1-36.7zm53 4.3c-3.3 0-6.5 0-9.7 0-.5 1.7 1.5 1.8 1.6 3-.2.7-.8 1-1.4 1.3-1.1.5-2.3 1-3.4 1.6-.4.2-.7.5-1.1.9.5.4.8.7 1.3 1-.3 1-.6 2-.9 3.1h17.5c1.7 5 3.4 9.8 5.1 14.6h11.5c-.2-.6-.4-1-.5-1.4-1.7-5-3.5-10-5.1-15-.3-.8-.7-1.3-1.5-1.6-.5-.2-1.1-.5-.9-1.4 1.3-.8 2.7-1.7 4.2-2.6-.6-.9-1.3-1.1-2-1.4-1.9-.8-3-2.1-3.7-4.1-3.8-10.8-7.6-21.6-11.4-32.3-.2-.4-.3-.9-.5-1.3-3.9 0-7.6 0-11.4 0-.1.4-.3.7-.4 1.1-3.8 11.1-7.7 22.1-11.6 33.2-.3.7-.3 1.6-.3 2.1.6 1 1.6 1.1 1.6 2.4-.4.3-.9.7-1.5 1-1.1.5-2.2 1-3.2 1.5-.4.2-.8.6-1.3.9.4.4.7.7 1.1 1-.1.5-.2 1-.3 1.5-1 2.9-2.1 5.7-3.1 8.6-.9 2.5-1.8 5-2.7 7.6h11.5c2.1-5.9 4.2-11.8 6.2-17.7-.5-.4-.9-.7-1.4-1.1.5-.4.9-.7 1.3-.9 1.1-.6 2.3-1 3.4-1.6.5-.3 1-.7 1.6-1.1-.5-.5-.9-.9-1.3-1.2-.7-.5-.8-1.2-.7-2 .1-.4.2-.7.3-1.1 1.9-5.5 3.9-11 5.8-16.4.1-.3.3-.7.5-1.2 2.4 6.4 4.6 12.6 6.8 19z"/><path d="m139.6 40.3h1.5 14.3c4.9 0 9.1 3.4 10.1 8.2.1.3.1.5.3 1 .4-.6.7-1 .9-1.4 4-6.3 11.6-9.6 18.8-8.2 7.6 1.5 13.5 7.3 14.6 14.8 1.8 11.9-6.5 19.9-15.2 21.1-7.8 1.1-13.8-1.9-18.2-8.3-.2-.4-.5-.7-.7-1.1 0 0-.1 0-.2 0-.1.6-.3 1.1-.4 1.7-1.3 4.4-5 7.5-9.6 7.7-5.1.2-10.3 0-15.4 0-.2 0-.4-.1-.6-.1-.2-11.6-.2-23.4-.2-35.4zm51.7 17.6c0-5-4-9.1-9-9.2-5.1-.1-9.2 4-9.3 9.1 0 5 4.1 9.2 9.2 9.2 5-.1 9-4.1 9.1-9.1zm-42.3 3.7v5.9c.3 0 .5.1.7.1h3.7c1.7 0 3-1.3 3-3 0-1.6-1.3-3-3-3-1.4 0-2.8 0-4.4 0zm-.1-7.5c1.7 0 3.3.1 4.9 0 1.4-.1 2.5-1.3 2.6-2.8.1-1.4-.9-3-2.4-3.1-1.7-.2-3.4 0-5.1.2v1.6zm12 3.7c1 .7 1.9 1.4 2.9 2.1 0-1.3 0-2.6 0-3.9-1.1.6-2 1.2-2.9 1.8z"/><path d="m111.9 40.2h9.8v13.2h6.3c0-4.3 0-8.7 0-13.2h9.7v35.7c-3.2 0-6.3 0-9.6 0 0-4.5 0-9 0-13.7-2.1 0-4.2 0-6.3 0v13.6c-3.4 0-6.6 0-9.8 0-.4-.9-.5-33.7-.1-35.6z"/><path d="m142.4 14.8c.5 0 .9 0 1.3-.1 1.8 2.2 3.5 4.5 5.4 6.8 1.7-2.3 3.3-4.5 5-6.8h1.2v13.1c-.4 0-.8 0-1.3.1 0-3.6 0-7.1 0-10.5-.1 0-.2-.1-.3-.1-1.6 2.1-3.2 4.1-4.9 6.4-1.7-2.1-3.3-4.3-5-6.3-.2 3.5-.1 6.9-.2 10.5-.5 0-.9 0-1.3 0 .1-4.4.1-8.7.1-13.1z"/><path d="m139.2 21.2c-.1 3.8-3.1 6.8-6.9 6.7-3.9-.1-6.7-3.1-6.6-7.1.1-3.7 3.1-6.5 6.9-6.4s6.6 3 6.6 6.8zm-1.4.2c0-3.1-2.3-5.5-5.3-5.6-2.9-.1-5.4 2.4-5.4 5.3 0 3.1 2.2 5.5 5.3 5.5 3 .1 5.3-2.1 5.4-5.2z"/><path d="m175.8 21.1c0-3.8 2.9-6.7 6.8-6.7 3.7 0 6.6 2.9 6.6 6.6 0 3.9-2.9 7-6.8 7-3.7-.1-6.6-3-6.6-6.9zm12.1.2c0-3-2.4-5.5-5.4-5.5-2.9 0-5.3 2.4-5.3 5.4 0 3.1 2.3 5.4 5.4 5.4 3 .1 5.3-2.2 5.3-5.3z"/><path d="m111.8 14.8h1.3v5.7h8.1c0-1.9 0-3.7 0-5.6.5 0 .9-.1 1.4-.1v13.2c-.4 0-.8 0-1.3 0 0-2 0-4 0-6-2.7 0-5.3 0-8.1 0v5.9c-.5 0-.9.1-1.3.1-.1-4.5-.1-8.8-.1-13.2z"/><path d="m166.9 20.4v1.4c-1.9 0-3.7 0-5.7 0v4.7h6.4v1.3c-2.6 0-5.2 0-7.8 0 0-4.4 0-8.7 0-13.1h7.6c0 .4.1.8.1 1.3-2.1 0-4.2 0-6.3 0v4.3c1.9.1 3.7.1 5.7.1z"/><path d="m193.8 22.3v5.6c-.5 0-.9 0-1.3 0 0-4.4 0-8.6 0-12.9 1-.3 5.5-.4 7.6-.1 0 .3.1.7.1 1.2-2.1 0-4.1 0-6.2 0v4.8h5.8v1.4c-2 0-3.9 0-6 0z"/><path d="m198.1 39.9c1.2 0 2.1 1 2.1 2.1 0 1.2-1 2.1-2.2 2.1s-2-.9-2-2.1 1-2.1 2.1-2.1zm.9 3.4c.8-.3.7-.9.6-1.5-.1-.8-.7-1.2-1.6-1.3-.4.2-.8.4-1.2.6-.5 1.3-.4 1.8.3 2.4.7.4 1.1.4 1.9-.2z"/><path d="m182.2 50.7c3.9 0 7.1 3.3 7.1 7.2s-3.3 7.1-7.1 7.1c-3.9 0-7.2-3.2-7.2-7.2 0-3.9 3.2-7.1 7.2-7.1z"/><path d="m199.1 43.2c-.4-.3-.8-.5-1.3-.8-.1.2-.2.5-.3.8-.1 0-.1 0-.2 0 0-.7 0-1.3 0-2.1h1.7c-.1.5-.2.9-.3 1.5 0 0 .2.3.4.6-.1.1 0 0 0 0z"/></g></svg>