<svg enable-background="new 0 0 207.4 29.6" height="29.6" viewBox="0 0 207.4 29.6" width="207.4" xmlns="http://www.w3.org/2000/svg" xmlns:xlink="http://www.w3.org/1999/xlink"><linearGradient id="a" gradientUnits="userSpaceOnUse" x1="127.2274" x2="108.5672" y1="14.7791" y2="14.7791"><stop offset="0" stop-color="#ffdf00"/><stop offset=".4087" stop-color="#fbbc0e"/><stop offset=".7754" stop-color="#f9a418"/><stop offset="1" stop-color="#f89b1c"/></linearGradient><linearGradient id="b" gradientUnits="userSpaceOnUse" x1="122.3193" x2="105.0161" y1="16.3404" y2="33.6436"><stop offset="0" stop-color="#ee4447"/><stop offset="1" stop-color="#c5166c"/></linearGradient><linearGradient id="c" gradientUnits="userSpaceOnUse" x1="104.9389" x2="119.0666" y1="-4.1631" y2="9.9646"><stop offset="0" stop-color="#269e6f"/><stop offset=".05089003" stop-color="#2ba06f"/><stop offset=".4663" stop-color="#53b26b"/><stop offset=".7971" stop-color="#6bbd69"/><stop offset="1" stop-color="#74c168"/></linearGradient><path d="m203.6 29.6h-96.5c-2.1 0-3.9-1.7-3.9-3.7v-22.2c0-2 1.7-3.7 3.9-3.7h96.5c2.1 0 3.9 1.7 3.9 3.7v22.2c-.1 2-1.8 3.7-3.9 3.7z" fill="#12100b"/><path d="m203.6.6c1.8 0 3.2 1.4 3.2 3.1v22.2c0 1.7-1.5 3.1-3.2 3.1h-96.5c-1.8 0-3.2-1.4-3.2-3.1v-22.2c0-1.7 1.5-3.1 3.2-3.1zm0-.6h-96.5c-2.1 0-3.9 1.7-3.9 3.7v22.2c0 2 1.7 3.7 3.9 3.7h96.5c2.1 0 3.9-1.7 3.9-3.7v-22.2c-.1-2-1.8-3.7-3.9-3.7z" fill="#a6a5a5"/><path d="m155.8 16.1c-1.8 0-3.3 1.3-3.3 3.1s1.5 3.1 3.3 3.1 3.3-1.3 3.3-3.1-1.5-3.1-3.3-3.1zm0 5c-1 0-1.9-.8-1.9-1.9s.9-1.9 1.9-1.9 1.9.8 1.9 1.9-.9 1.9-1.9 1.9zm-7.2-5c-1.8 0-3.3 1.3-3.3 3.1s1.5 3.1 3.3 3.1 3.3-1.3 3.3-3.1-1.5-3.1-3.3-3.1zm0 5c-1 0-1.9-.8-1.9-1.9s.9-1.9 1.9-1.9 1.9.8 1.9 1.9-.9 1.9-1.9 1.9zm-8.5-4.1v1.3h3.3c-.1.8-.4 1.3-.8 1.7-.5.5-1.2 1-2.6 1-2.1 0-3.7-1.6-3.7-3.5 0-2 1.6-3.5 3.7-3.5 1.1 0 1.9.4 2.5 1l1-.9c-.8-.8-1.9-1.3-3.5-1.3-2.8 0-5.2 2.2-5.2 4.9s2.4 4.9 5.2 4.9c1.5 0 2.7-.5 3.6-1.4s1.2-2.1 1.2-3.1c0-.3 0-.6-.1-.8h-4.6zm35 1.1c-.3-.7-1.1-2-2.8-2s-3.1 1.3-3.1 3.1 1.4 3.1 3.3 3.1c1.5 0 2.4-.9 2.7-1.4l-1.1-.7c-.4.5-.9.9-1.6.9s-1.3-.3-1.6-1l4.4-1.7zm-4.5 1c0-1.2 1-1.8 1.7-1.8.6 0 1.1.3 1.2.7zm-3.6 3.1h1.4v-9.2h-1.4zm-2.4-5.4c-.4-.4-1-.7-1.8-.7-1.6 0-3.1 1.4-3.1 3.2s1.5 3.1 3.1 3.1c.8 0 1.4-.3 1.7-.7v.5c0 1.2-.7 1.8-1.8 1.8-.9 0-1.4-.6-1.7-1.1l-1.3.5c.4.8 1.3 1.9 2.9 1.9 1.7 0 3.1-1 3.1-3.3v-5.6h-1.4v.4zm-1.6 4.3c-1 0-1.8-.8-1.8-1.9s.8-1.9 1.8-1.9 1.8.8 1.8 1.9c-.1 1.1-.8 1.9-1.8 1.9zm18.8-8.2h-3.5v9.2h1.4v-3.5h2c1.6 0 3.2-1.1 3.2-2.9s-1.5-2.8-3.1-2.8zm0 4.5h-2v-3.2h2c1.1 0 1.7.9 1.7 1.6s-.6 1.6-1.7 1.6zm8.9-1.3c-1 0-2.1.4-2.6 1.4l1.3.5c.3-.5.8-.7 1.3-.7.7 0 1.5.4 1.5 1.2v.1c-.3-.1-.8-.4-1.5-.4-1.4 0-2.8.7-2.8 2.1 0 1.2 1.1 2 2.4 2 1 0 1.5-.4 1.8-.9v.7h1.4v-3.5c.2-1.6-1.1-2.5-2.8-2.5zm-.1 5c-.5 0-1.1-.2-1.1-.8 0-.7.8-1 1.5-1 .6 0 .9.1 1.3.3-.1.9-.9 1.5-1.7 1.5zm8.1-4.8-1.7 4-1.7-4h-1.6l2.6 5.6-1.5 3.1h1.5l4-8.7zm-12.9 5.9h1.4v-9.2h-1.4z" fill="#fff"/><path d="m111.3 5.6c-.2.2-.4.6-.4 1v16.3c0 .5.1.8.4 1l.1.1 9.6-9.1v-.1-.1z" fill="#5bc8f3"/><path d="m124.1 17.9-3.2-3.1v-.1-.1l3.2-3h.1l3.8 2.1c1.1.6 1.1 1.5 0 2.1z" fill="url(#a)"/><path d="m124.2 17.9-3.3-3.1-9.6 9.2c.4.4.9.4 1.6 0z" fill="url(#b)"/><path d="m124.2 11.7-11.3-6.1c-.7-.4-1.2-.3-1.6 0l9.6 9.2z" fill="url(#c)"/><g fill="#fff" stroke="#fff" stroke-miterlimit="10" stroke-width=".151"><path d="m135.7 10.5h-.6v-1.4h.5c.4-.3.6-.9.6-1.7v-2.2h3.1v3.9h.5v1.5h-.6v-1h-3.5zm1.1-3.1c0 .7-.1 1.3-.4 1.7h2.3v-3.4h-1.9z"/><path d="m144.5 9c-.5.4-1 .7-1.7.7s-1.2-.2-1.7-.7c-.5-.4-.7-1-.7-1.6s.2-1.2.7-1.6 1-.7 1.7-.7 1.2.2 1.7.7.7 1 .7 1.6c-.1.6-.3 1.2-.7 1.6zm-3-.3c.3.3.8.5 1.3.5s.9-.2 1.3-.5c.3-.3.5-.8.5-1.3s-.2-.9-.5-1.3c-.3-.3-.8-.5-1.3-.5s-.9.2-1.3.5c-.3.3-.5.8-.5 1.3s.2.9.5 1.3z"/><path d="m148.1 9.7c-.7 0-1.3-.2-1.7-.7-.5-.4-.7-1-.7-1.7s.2-1.2.7-1.7c.5-.4 1-.7 1.7-.7s1.3.2 1.7.7l-.4.4c-.3-.4-.7-.6-1.3-.6-.5 0-.9.2-1.3.5-.3.3-.5.8-.5 1.3s.2 1 .5 1.3.8.5 1.3.5c.6 0 1-.2 1.4-.6l.4.4c-.2.2-.5.4-.8.6-.2.2-.6.3-1 .3z"/><path d="m152.4 9.6h-.6v-3.9h-1.3v-.5h3.2v.5h-1.3z"/><path d="m157.8 5.2-1.8 3.7c-.2.5-.6.8-1.1.8-.1 0-.3 0-.5-.1l.2-.5c.1.1.2.1.3.1s.2 0 .3-.1.1-.1.2-.3l.2-.4-1.6-3.3h.7l1.1 2.5 1.1-2.5h.9z"/><path d="m158.4 9.6v-4.4h3.4v4.4h-.6v-3.9h-2.2v3.9z"/><path d="m162.8 9.6v-4.4h.6v1.9h2.3v-1.9h.6v4.4h-.6v-2h-2.3v2z"/><path d="m171.2 9c-.5.4-1 .7-1.7.7s-1.2-.2-1.7-.7c-.5-.4-.7-1-.7-1.6s.2-1.2.7-1.6 1-.7 1.7-.7 1.2.2 1.7.7.7 1 .7 1.6-.2 1.2-.7 1.6zm-3-.3c.3.3.8.5 1.3.5s.9-.2 1.3-.5c.3-.3.5-.8.5-1.3s-.2-.9-.5-1.3c-.3-.3-.8-.5-1.3-.5s-.9.2-1.3.5c-.3.3-.5.8-.5 1.3s.2.9.5 1.3z"/><path d="m174.3 9.6v-4.4h1.7c.4 0 .7.1.9.3.3.2.4.5.4.9 0 .2-.1.4-.2.6s-.3.3-.5.4c.2.1.4.2.6.4.1.2.2.4.2.6 0 .4-.1.7-.4.9s-.6.4-1 .4h-1.7zm.6-2.5h1.1c.2 0 .4-.1.5-.2s.2-.3.2-.5-.1-.3-.2-.5c-.1-.1-.3-.2-.5-.2h-1.1zm0 2h1.2c.2 0 .4-.1.6-.2.1-.2.2-.3.2-.5s-.1-.3-.2-.5-.3-.2-.6-.2h-1.2z"/></g><g transform="scale(4.00216 4.0011)"><path d="m24.7 6.5c0 .4-.3.7-.7.7h-23.1c-.4 0-.7-.3-.7-.7v-5.6c0-.4.3-.7.7-.7h23.1c.4 0 .7.3.7.7z" fill="#fff"/><path d="m24 7.4h-23.1c-.5 0-.9-.4-.9-.9v-5.6c0-.5.4-.9.9-.9h23.1c.5 0 .9.4.9.9v5.6c-.1.5-.4.9-.9.9z" fill="#a6a5a5"/><path d="m24.7 6.5c0 .4-.3.7-.7.7h-23.1c-.4 0-.7-.3-.7-.7v-5.6c0-.4.3-.7.7-.7h23.1c.4 0 .7.3.7.7z"/><g fill="#fff"><path d="m5.5 3.7c0-.6.5-.9.5-.9-.2-.4-.7-.5-.8-.5-.4 0-.7.2-.9.2s-.5-.2-.8-.2c-.4 0-.8.2-1 .6-.4.7-.1 1.8.3 2.4.2.2.5.6.8.6s.4-.2.8-.2.5.2.8.2.5-.3.7-.6.3-.7.3-.7-.6-.2-.7-.9zm-.5-1.8c.2-.2.3-.5.2-.8-.2.1-.5.2-.7.4-.1.2-.3.5-.2.7.2.1.5-.1.7-.3z"/><path d="m9.9 5.6h-.4l-.3-.7h-.8l-.2.7h-.4l.8-2.5h.5zm-.7-1.1-.2-.6c0-.1-.1-.2-.1-.5 0 .1-.1.3-.1.5l-.3.6zm2.7.2c0 .3-.1.5-.2.7s-.3.2-.5.2-.4-.1-.5-.3v.9h-.4v-1.8c0-.2 0-.4 0-.6h.3v.3c.1-.2.3-.3.6-.3.2 0 .4.1.5.2.1.2.2.4.2.7zm-.4 0c0-.2 0-.3-.1-.4s-.2-.2-.3-.2-.2 0-.3.1-.1.1-.2.3v.1.3c0 .1 0 .2.1.3s.2.1.3.1.3-.1.3-.2c.2-.1.2-.2.2-.4zm2.5 0c0 .3-.1.5-.2.7s-.3.2-.5.2-.4-.1-.5-.3v.9h-.4v-1.8c0-.2 0-.4 0-.6h.3v.3c.1-.2.3-.3.6-.3.2 0 .4.1.5.2.1.2.2.4.2.7zm-.4 0c0-.2 0-.3-.1-.4s-.2-.2-.3-.2-.2 0-.3.1-.1.1-.2.3v.1.3c0 .1 0 .2.1.3s.2.1.3.1.3-.1.3-.2c.1-.1.2-.2.2-.4zm2.6.2c0 .2-.1.4-.2.5-.2.1-.4.2-.7.2s-.5-.1-.6-.2l.1-.3c.2.1.4.2.6.2.1 0 .3 0 .3-.1.1-.1.1-.2.1-.3s0-.2-.1-.3-.2-.1-.3-.2c-.4-.2-.6-.4-.6-.7 0-.2.1-.4.2-.5.2-.1.4-.2.6-.2s.4 0 .6.1l-.2.4c-.1-.1-.3-.1-.5-.1-.1 0-.2 0-.3.1s-.1.1-.1.2 0 .2.1.2c.1.1.2.1.4.2s.4.2.5.3c.1.2.1.3.1.5zm1.3-.8h-.4v.9c0 .2.1.3.2.3h.2v.3c-.1 0-.2 0-.3 0-.2 0-.3 0-.4-.1s-.1-.3-.1-.5v-.9h-.3v-.3h.3v-.3l.4-.1v.4h.4zm2 .6c0 .3-.1.5-.2.7-.2.2-.4.3-.6.3-.3 0-.5-.1-.6-.3-.2-.2-.2-.4-.2-.7s.1-.5.2-.7c.2-.2.4-.3.6-.3.3 0 .5.1.6.3s.2.4.2.7zm-.4 0c0-.2 0-.3-.1-.4s-.2-.2-.4-.2-.3.1-.4.2-.1.3-.1.4c0 .2 0 .3.1.4s.2.2.4.2.3-.1.4-.2c0-.1.1-.3.1-.4zm1.7-.6h-.1c-.1 0-.2.1-.3.2s-.1.2-.1.3v.9h-.4v-1.1c0-.2 0-.4 0-.6h.3v.3c0-.1.1-.2.2-.3s.2-.1.3-.1h.1zm1.7.5v.2h-1.2c0 .2.1.3.2.4s.2.1.4.1.3 0 .5-.1l.1.3c-.2.1-.4.1-.6.1-.3 0-.5-.1-.6-.2-.3-.2-.3-.4-.3-.7s0-.5.2-.7.4-.3.6-.3c.3 0 .4.1.6.3.1.2.1.4.1.6zm-.3-.1c0-.1 0-.2-.1-.3s-.2-.2-.3-.2-.2.1-.3.2-.1.2-.1.3z"/><path d="m8.5 1.8c.1 0 .2 0 .2-.1 0 0 .1-.1.1-.1 0-.1 0-.1-.1-.1 0 0-.1-.1-.2-.1s-.1 0-.2.1c0 0-.1.1-.1.1h-.1c0-.1 0-.2.1-.2.1-.1.2-.1.3-.1s.3 0 .4.1c0 0 .1.1.1.2s0 .1-.1.2c0 0-.1.1-.2.1.1 0 .1.1.2.1s.1.1.1.2 0 .2-.1.3c-.1 0-.2 0-.4 0-.1 0-.2 0-.3-.1-.1 0-.2-.1-.2-.2h.2c0 .1 0 .1.1.1s.1.1.2.1.2 0 .2-.1c.1 0 .1-.1.1-.1 0-.1 0-.1-.1-.2 0 0-.1 0-.2 0h-.1v-.2z"/><path d="m9.9 2.5c-.1 0-.1 0 0 0 0-.1 0-.1 0-.1s-.1.1-.1.1-.1 0-.2 0-.2 0-.2-.1c-.1 0-.1-.1-.1-.2s0-.2.1-.2h.3.2v-.1-.1h-.1-.1v.1h-.4c0-.1 0-.1.1-.2s.2-.1.3-.1.2 0 .3.1v.2.4.1.1zm-.3-.1h.1s.1-.1.1-.1v-.2h-.1c-.1 0-.1 0-.1 0s-.1.1-.1.1c0 .1 0 .1.1.2-.1 0 0 0 0 0z"/><path d="m10.9 1.8h-.4v.8h-.2v-1h.6z"/><path d="m11.9 2.1c0 .1 0 .2-.1.3s-.2.1-.3.1-.1 0-.1 0-.1 0-.1-.1v.4h-.2v-1.2h.2v.1s.1-.1.1-.1h.1c.1 0 .2 0 .3.1s.1.2.1.4zm-.2 0c0-.1 0-.2-.1-.2 0-.1-.1-.1-.2-.1h-.1s-.1 0-.1.1v.4s0 .1.1.1h.1c.1 0 .1 0 .2-.1s.1-.1.1-.2z"/><path d="m12.5 2.1.2-.5h.3l-.4 1.1c0 .1-.1.1-.1.2 0 0-.1.1-.2.1 0 0 0 0-.1 0 0 0 0 0-.1 0v-.2h.1s0-.1.1-.1v-.1l-.3-.9h.2z"/><path d="m13.9 1.8v.1s-.1.1-.1.1c.1 0 .1 0 .1.1v.1c0 .1 0 .2-.1.2s-.2.1-.3.1-.2 0-.3-.1c-.1 0-.1-.1-.1-.2h.2v.1h.1.1v-.1-.1h-.1-.1v-.1h.1.1s0 0 0-.1v-.1h-.1-.1v.1h-.2c0-.1 0-.1.1-.2s.2-.1.3-.1.2 0 .3.1c0 0 .1.1.1.1z"/><path d="m14.7 1.6h.2v.9h-.2v-.6l-.4.6h-.2v-.9h.2v.6z"/><path d="m16 1.8h-.3v.8h-.2v-.8h-.3v-.2h.8z"/><path d="m16.4 1.9h.2c.1 0 .2 0 .3.1.1 0 .1.1.1.2s0 .2-.1.2c-.1.1-.2.1-.3.1h-.4v-.9h.2zm0 .2v.3h.2.1v-.1-.1h-.1-.2z"/><path d="m17.8 2.5v-.9h.4c.1 0 .2 0 .3.1.1 0 .1.1.1.2v.1s-.1.1-.1.1c.1 0 .1 0 .1.1 0 0 .1.1.1.1 0 .1 0 .2-.1.2s-.2.1-.3.1h-.5zm.2-.5h.2.1s0 0 0-.1v-.1h-.1-.2zm0 .1v.2h.2.1s0 0 0-.1v-.1h-.1z"/></g></g></svg>