<svg enable-background="new 0 0 233 33.6" height="33.6" viewBox="0 0 233 33.6" width="233" xmlns="http://www.w3.org/2000/svg"><path clip-rule="evenodd" d="m16.2 0c9 0 16.2 7.3 16.2 16.3s-7.3 16.3-16.2 16.3-16.2-7.3-16.2-16.3 7.3-16.3 16.2-16.3z" fill="#33a357" fill-rule="evenodd"/><path clip-rule="evenodd" d="m11.6 6.7c2.1 0 3.8 1.7 3.8 3.9 0 2.1-1.7 3.9-3.8 3.9s-3.8-1.7-3.8-3.9 1.7-3.9 3.8-3.9z" fill="#fff" fill-rule="evenodd"/><path d="m107.2 16c2.2-1.2 3.2-3 3.2-5.5 0-4.4-3.1-7.1-8-7.1h-10.4v25.9h10.8c4.9 0 7.9-2.9 7.9-7.4 0-1.8-.5-3.3-1.6-4.5-.5-.6-.9-.9-1.9-1.4zm-10.1-2.2v-6h5c2.1 0 3.3 1.1 3.3 3 0 1.8-1.3 3-3.3 3zm-9.2-5.9v-4.6h-18.6v4.5h6.8v21.4h5.1v-21.3zm-22.7 21.3v-25.9h-5.1v10.6h-8.8v-10.6h-5.1v25.9h5.1v-10.8h8.8v10.8zm31.9-4.5v-6.4h5.3c2.1 0 3.4 1.2 3.4 3.2s-1.3 3.2-3.4 3.2z"/><path d="m150 29.2v-25.9h-18.9v25.9h5.1v-21.3h8.8v21.4h5zm25.5 0v-25.9h-15.9l-.4 15.1c-.1 5-1.9 6.2-4.3 6.2h-.8v4.5h2.2c5 0 7.8-3.3 8-10.5l.3-10.8h5.9v21.4zm29.7-12.3c0 3.6-.1 5.4-1.2 6.6-.8.9-2 1.4-3.3 1.4s-2.4-.5-3.3-1.4c-1-1.1-1.3-2.6-1.3-6.4v-1.6c0-3.3.3-5.3 1.3-6.5.8-.9 1.9-1.4 3.3-1.4 1.3 0 2.5.5 3.3 1.4 1 1.1 1.2 3 1.2 6.3zm-4.5-13.8c-2.7 0-5.1.9-7 2.9s-2.4 4.2-2.6 7.9h-3.9v-10.6h-5.1v25.9h5.1v-10.8h3.9c.1 3.4.5 6 2.6 8.2 1.8 1.9 4.2 2.8 7 2.8s5.2-.9 7-2.8c2.6-2.7 2.6-5.8 2.6-10.3 0-.2 0-2 0-2.3 0-3.6-.6-6.1-2.6-8-1.9-1.9-4.2-2.9-7-2.9zm32.3 18.1v1.2c-.3 5.3-4.7 7.3-9.2 7.1-2.5-.1-4.8-1-6.6-2.8-1.3-1.3-2-2.6-2.3-4.8-.3-1.7-.3-3.6-.3-5.7v-1c0-5.1.5-7.2 2.5-9.2 1.8-1.8 4.1-2.7 6.6-2.8 4.4-.2 8.8 1.8 9.2 7.1v.9h-4.5c-.4-3.6-5.3-4.7-7.5-2.2-1.3 1.4-1.3 4.1-1.3 6.5v1.4c0 2.5.1 4.1.4 5.1.2.7.5 1.3.9 1.8 2.2 2.4 7.5 1.3 7.5-2.5z"/><path d="m122.1 18.9h-3.9v14.8h3.9z"/></svg>