<svg xmlns="http://www.w3.org/2000/svg" xmlns:xlink="http://www.w3.org/1999/xlink" viewBox="0 0 159 36"><defs><linearGradient id="a" x1="79.5" x2="79.5" y2="36" gradientUnits="userSpaceOnUse"><stop offset="0" stop-color="#fff"/><stop offset="1" stop-color="#fce03a"/></linearGradient></defs><title>Butt</title><rect width="159" height="36" rx="18" style="fill:url(#a)"/><path d="M48.73,4.56h1.61v4c0,1-.13,2.18-.21,3.12h.06l1-1.94L54,4.56h1.72v9.16H54.13v-4c0-1,.13-2.13.21-3.1h-.06l-1,1.94-2.88,5.17H48.73Z" style="fill:#8c302c"/><path d="M57.46,10.28a3.4,3.4,0,0,1,3.45-3.61,3,3,0,0,1,2,.77l-.79,1A1.67,1.67,0,0,0,61,8c-1.11,0-1.88.92-1.88,2.29s.76,2.29,1.83,2.29A2.24,2.24,0,0,0,62.37,12L63,13a3.44,3.44,0,0,1-2.25.85A3.28,3.28,0,0,1,57.46,10.28Z" style="fill:#8c302c"/><path d="M64.38,6.84h5.85v6.88H68.61V8.12H66v5.6H64.38Z" style="fill:#8c302c"/><path d="M72.28,6.84h1.61V9.2h.73c1.66,0,2.85.62,2.85,2.24s-1.19,2.28-2.85,2.28H72.28Zm2.24,5.63c.94,0,1.39-.33,1.39-1s-.45-1-1.39-1h-.63v2.06Zm4-5.63h1.62v6.88H78.52Z" style="fill:#8c302c"/><path d="M83.68,8.12H81.52V6.84h5.94V8.12H85.29v5.6H83.68Z" style="fill:#8c302c"/><path d="M88.18,11.87c0-1.47,1.22-2.24,4-2.54C92.2,8.59,91.9,8,91,8A3.82,3.82,0,0,0,89,8.65l-.59-1.08a5.39,5.39,0,0,1,2.82-.9c1.72,0,2.57,1.06,2.57,3v4.07H92.51L92.39,13h0a3.39,3.39,0,0,1-2.14.93A1.93,1.93,0,0,1,88.18,11.87Zm4,0V10.33c-1.86.23-2.48.72-2.48,1.42s.41.87,1,.87A2.15,2.15,0,0,0,92.22,11.88Z" style="fill:#8c302c"/><path d="M97.05,8.12H94.89V6.84h5.94V8.12H98.66v5.6H97.05Z" style="fill:#8c302c"/><path d="M102.21,6.84h1.62V9.2h1c1.65,0,2.85.62,2.85,2.24s-1.2,2.28-2.85,2.28h-2.64Zm2.53,5.63c1,0,1.4-.33,1.4-1s-.45-1-1.4-1h-.91v2.06Z" style="fill:#8c302c"/><path d="M32.29,26.18a5.2,5.2,0,0,1-1.28.13c-1.68,0-2.77-.72-2.77-2.54V21.84h1.61v1.93c0,.86.45,1.26,1.5,1.26a4.1,4.1,0,0,0,.94-.11V21.84H33.9v6.88H32.29Z" style="fill:#8c302c"/><path d="M35.94,21.84h1.57v2.37c0,.71-.08,1.63-.14,2.49h0c.24-.42.63-1,.86-1.46l2.18-3.4h1.48v6.88H40.37V26.35c0-.71.08-1.62.15-2.49h-.06l-.84,1.45-2.2,3.41H35.94Z" style="fill:#8c302c"/><path d="M43.4,28l.66-1a3,3,0,0,0,1.83.63c.84,0,1.49-.38,1.49-1s-.48-.91-1.39-.91H45v-1.1h.88c.86,0,1.3-.32,1.3-.86s-.47-.84-1.22-.84a2.88,2.88,0,0,0-1.75.53l-.62-1.05A4.31,4.31,0,0,1,46,21.67c1.41,0,2.68.6,2.68,1.91a1.58,1.58,0,0,1-1.12,1.49v.05A1.62,1.62,0,0,1,49,26.79c0,1.34-1.42,2.1-2.93,2.1A4,4,0,0,1,43.4,28Z" style="fill:#8c302c"/><path d="M50.5,21.84h1.62v2.68H54l2.7,4.2H54.89L53.15,25.8h-1v2.92H50.5Zm2.34,3.3.92-2c.54-1.19,1.13-1.46,2-1.46a1.24,1.24,0,0,1,.48.09L56,23.26a.7.7,0,0,0-.25-.05c-.35,0-.62.11-.93.82l-.61,1.39Z" style="fill:#8c302c"/><path d="M57.05,25.28a3.35,3.35,0,0,1,3.17-3.61c1.86,0,2.84,1.34,2.84,3.27a3.85,3.85,0,0,1-.07.78H58.62a2,2,0,0,0,2,1.92,3,3,0,0,0,1.6-.5l.55,1a4.32,4.32,0,0,1-2.36.75A3.33,3.33,0,0,1,57.05,25.28Zm4.62-.66c0-1.06-.47-1.7-1.42-1.7a1.72,1.72,0,0,0-1.64,1.7Z" style="fill:#8c302c"/><path d="M64.6,21.84h1.56v2.37c0,.71-.07,1.63-.14,2.49h0c.24-.42.63-1,.86-1.46l2.18-3.4h1.48v6.88H69V26.35c0-.71.08-1.62.15-2.49h-.06c-.24.42-.62,1.05-.85,1.45l-2.19,3.41H64.6Zm.75-3.36h1.28c0,.78.26,1.32,1,1.32s1-.54,1-1.32H70a2.3,2.3,0,0,1-4.6,0Z" style="fill:#8c302c"/><path d="M72.64,21.84h1.61v2.68h1.84l2.71,4.2H77L75.28,25.8h-1v2.92H72.64ZM75,25.14l.93-2c.54-1.19,1.12-1.46,2-1.46a1.21,1.21,0,0,1,.48.09l-.26,1.5a.66.66,0,0,0-.25-.05c-.34,0-.62.11-.93.82l-.61,1.39Z" style="fill:#8c302c"/><path d="M79.15,24.6h3.33v1.18H79.15Z" style="fill:#8c302c"/><path d="M83,28l.63-1a2.3,2.3,0,0,0,1.48.56c1.19,0,1.95-.72,1.95-2.36s-.73-2.36-1.85-2.36a2.07,2.07,0,0,0-1.37.5l-.72-.94a3.14,3.14,0,0,1,2.18-.81c1.82,0,3.28,1.17,3.28,3.61s-1.41,3.61-3.3,3.61A3.31,3.31,0,0,1,83,28Zm1.34-3.42h3.57v1.1H84.35Z" style="fill:#8c302c"/><path d="M93.68,29.46l0-1a2.45,2.45,0,0,1-1.33.46c-1.6,0-2.63-1.34-2.63-3.61S91,21.67,92.4,21.67a2.39,2.39,0,0,1,1.33.43l0-1V18.82h1.58V21.1l-.05,1a2.75,2.75,0,0,1,1.44-.48c1.58,0,2.51,1.38,2.51,3.5,0,2.36-1.25,3.72-2.66,3.72a2.28,2.28,0,0,1-1.29-.44l.05,1v2H93.68Zm0-2.3V23.37a1.5,1.5,0,0,0-1-.37c-.73,0-1.31.83-1.31,2.27s.5,2.28,1.37,2.28A1.21,1.21,0,0,0,93.73,27.16Zm3.78-2c0-1.37-.41-2.19-1.3-2.19a1.44,1.44,0,0,0-1,.39v3.8a1.41,1.41,0,0,0,1,.36C96.94,27.55,97.51,26.75,97.51,25.19Z" style="fill:#8c302c"/><path d="M104.28,29.46l0-1a2.48,2.48,0,0,1-1.33.46c-1.6,0-2.63-1.34-2.63-3.61s1.26-3.61,2.63-3.61a2.39,2.39,0,0,1,1.33.43l0-1V18.82h1.58V21.1l0,1a2.75,2.75,0,0,1,1.44-.48c1.58,0,2.51,1.38,2.51,3.5,0,2.36-1.25,3.72-2.66,3.72a2.28,2.28,0,0,1-1.29-.44l0,1v2h-1.58Zm0-2.3V23.37a1.5,1.5,0,0,0-1-.37c-.73,0-1.31.83-1.31,2.27s.5,2.28,1.37,2.28A1.23,1.23,0,0,0,104.33,27.16Zm3.77-2c0-1.37-.4-2.19-1.3-2.19a1.41,1.41,0,0,0-1,.39v3.8a1.41,1.41,0,0,0,1,.36C107.54,27.55,108.1,26.75,108.1,25.19Z" style="fill:#8c302c"/><path d="M110.93,25.28a3.35,3.35,0,0,1,3.18-3.61C116,21.67,117,23,117,24.94a4.75,4.75,0,0,1-.07.78h-4.37a2,2,0,0,0,2,1.92,2.93,2.93,0,0,0,1.59-.5l.55,1a4.27,4.27,0,0,1-2.36.75A3.33,3.33,0,0,1,110.93,25.28Zm4.62-.66c0-1.06-.47-1.7-1.41-1.7a1.73,1.73,0,0,0-1.65,1.7Z" style="fill:#8c302c"/><path d="M118.49,21.84h1.61v2.68h1.84l2.7,4.2h-1.77l-1.74-2.92h-1v2.92h-1.61Zm2.33,3.3.93-2c.54-1.19,1.12-1.46,2-1.46a1.21,1.21,0,0,1,.48.09l-.26,1.5a.66.66,0,0,0-.25-.05c-.34,0-.62.11-.93.82l-.61,1.39Z" style="fill:#8c302c"/><path d="M127,23.12h-2.16V21.84h5.93v1.28H128.6v5.6H127Z" style="fill:#8c302c"/></svg>