<svg xmlns="http://www.w3.org/2000/svg" viewBox="0 0 64.72 27.65"><title>H2_1_1</title><path d="M0,1.08H1.84L3.46,5.56c.2.58.38,1.2.59,1.8h0c.2-.6.38-1.22.58-1.8L6.26,1.08H8.1v9.16H6.61V6.05c0-.84.13-2.06.21-2.91H6.76L6,5.27,4.52,9.38h-1L2,5.27,1.31,3.14H1.25c.08.85.21,2.07.21,2.91v4.19H0Z" style="fill:#0c0c84"/><path d="M9.84,6.81a3.29,3.29,0,1,1,6.54,0,3.29,3.29,0,1,1-6.54,0Zm4.88,0c0-1.38-.6-2.3-1.61-2.3s-1.61.92-1.61,2.3.6,2.28,1.61,2.28S14.72,8.19,14.72,6.81Z" style="fill:#0c0c84"/><path d="M17.06,10.28l.28-1.47a1.08,1.08,0,0,0,.33.06c.43,0,.72-.36.83-1.24.18-1.42.33-2.84.5-4.27h4.66v6.88H22.05V4.64H20.28c-.14,1.14-.27,2.3-.42,3.43-.21,1.53-.9,2.34-2.07,2.34A1.86,1.86,0,0,1,17.06,10.28Z" style="fill:#0c0c84"/><path d="M25.25,6.81a3.29,3.29,0,1,1,6.54,0,3.29,3.29,0,1,1-6.54,0Zm4.89,0c0-1.38-.61-2.3-1.62-2.3s-1.61.92-1.61,2.3.6,2.28,1.61,2.28S30.14,8.19,30.14,6.81Z" style="fill:#0c0c84"/><path d="M37.17,7.71a5.8,5.8,0,0,1-1.28.12c-1.68,0-2.77-.71-2.77-2.53V3.36h1.61V5.3c0,.86.45,1.25,1.5,1.25a4.1,4.1,0,0,0,.94-.11V3.36h1.61v6.88H37.17Z" style="fill:#0c0c84"/><path d="M40.82,3.36h1.62V6h2.74V3.36h1.61v6.88H45.18V7.41H42.44v2.83H40.82Z" style="fill:#0c0c84"/><path d="M48.83,3.36h1.61V5.72h.73C52.83,5.72,54,6.34,54,8s-1.19,2.28-2.85,2.28H48.83ZM51.07,9c.94,0,1.39-.33,1.39-1s-.45-1-1.39-1h-.63V9Zm4-5.63h1.62v6.88H55.07Z" style="fill:#0c0c84"/><path d="M58.73,3.36h1.56V5.73c0,.71-.08,1.63-.14,2.49h.05c.24-.42.63-1,.85-1.45l2.19-3.41h1.48v6.88H63.16V7.87c0-.71.07-1.62.14-2.49h0c-.24.42-.62,1-.85,1.46l-2.19,3.4H58.73ZM59.48,0h1.27c0,.79.27,1.33,1,1.33s1-.54,1-1.33h1.27a2.3,2.3,0,0,1-4.6,0Z" style="fill:#0c0c84"/><path d="M5.31,18.36H6.9V24H9v-5.6h1.54V24h2v-5.6h1.6v6.88H5.31Z" style="fill:#0c0c84"/><path d="M15.73,21.81a3.29,3.29,0,1,1,6.54,0,3.29,3.29,0,1,1-6.54,0Zm4.89,0c0-1.38-.61-2.3-1.62-2.3s-1.61.92-1.61,2.3S18,24.09,19,24.09,20.62,23.19,20.62,21.81Z" style="fill:#0c0c84"/><path d="M23.87,18.36h1.61V21h1.84L30,25.24H28.26l-1.75-2.92h-1v2.92H23.87Zm2.34,3.3.92-2c.54-1.19,1.13-1.46,2-1.46a1.26,1.26,0,0,1,.49.09l-.27,1.5a.6.6,0,0,0-.24-.05c-.35,0-.63.12-.93.82L27.56,22Z" style="fill:#0c0c84"/><path d="M30.42,21.81a3.29,3.29,0,1,1,6.54,0,3.29,3.29,0,1,1-6.54,0Zm4.88,0c0-1.38-.6-2.3-1.61-2.3s-1.62.92-1.62,2.3.61,2.28,1.62,2.28S35.3,23.19,35.3,21.81Z" style="fill:#0c0c84"/><path d="M37.64,25.28l.28-1.47a1.08,1.08,0,0,0,.33.06c.43,0,.72-.36.83-1.24.18-1.42.34-2.84.5-4.27h4.66v6.88H42.63v-5.6H40.86c-.14,1.14-.27,2.3-.42,3.43-.21,1.53-.9,2.34-2.07,2.34A1.86,1.86,0,0,1,37.64,25.28Z" style="fill:#0c0c84"/><path d="M45.91,23.39c0-1.47,1.22-2.24,4.05-2.54,0-.74-.32-1.36-1.25-1.36a3.79,3.79,0,0,0-1.93.68l-.6-1.07A5.35,5.35,0,0,1,49,18.19c1.72,0,2.56,1.06,2.56,3v4.07H50.25l-.12-.76h-.05a3.29,3.29,0,0,1-2.13.93A1.93,1.93,0,0,1,45.91,23.39Zm4.05,0V21.85c-1.87.24-2.49.73-2.49,1.42s.42.87,1,.87A2.17,2.17,0,0,0,50,23.4Z" style="fill:#0c0c84"/><path d="M54.24,27.65H52.85L52.69,25V24h7.38V25l-.16,2.64H58.52V25.24H54.24Zm3.17-8H55.58l-.22,1.95c-.27,2.43-1.06,3.22-2.07,3.31L53.08,24c.35-.19.63-.63.88-2.71l.34-2.89H59v6.41H57.41Z" style="fill:#0c0c84"/></svg>