<svg xmlns="http://www.w3.org/2000/svg" viewBox="0 0 82.64 24.33"><title>H2_2</title><path d="M0,9.2.31,7.73a1.14,1.14,0,0,0,.39.06c.47,0,.81-.25,1.24-2.32C2.32,3.66,2.62,1.89,3,0h5V9.16H6.3V1.37H4.22C4,2.85,3.71,4.24,3.45,5.65,2.89,8.59,2.21,9.33.93,9.33A2.55,2.55,0,0,1,0,9.2Z" style="fill:#0c0c84"/><path d="M9.66,5.73a3.35,3.35,0,0,1,3.17-3.62c1.86,0,2.84,1.35,2.84,3.27a3.77,3.77,0,0,1-.07.78H11.23a2,2,0,0,0,2,1.92,2.88,2.88,0,0,0,1.6-.5l.55,1a4.24,4.24,0,0,1-2.36.75A3.32,3.32,0,0,1,9.66,5.73Zm4.62-.66c0-1.06-.47-1.71-1.41-1.71a1.73,1.73,0,0,0-1.65,1.71Z" style="fill:#0c0c84"/><path d="M17.21,2.28h4.52V3.56h-2.9v5.6H17.21Z" style="fill:#0c0c84"/><path d="M22.13,5.73A3.36,3.36,0,0,1,25.3,2.11c1.87,0,2.85,1.35,2.85,3.27a4.64,4.64,0,0,1-.07.78H23.71a2,2,0,0,0,2,1.92,2.85,2.85,0,0,0,1.59-.5l.55,1a4.19,4.19,0,0,1-2.36.75A3.32,3.32,0,0,1,22.13,5.73Zm4.62-.66c0-1.06-.47-1.71-1.41-1.71a1.73,1.73,0,0,0-1.65,1.71Z" style="fill:#0c0c84"/><path d="M29.69,2.28H31.3V4.91H34V2.28h1.61V9.16H34V6.33H31.3V9.16H29.69Z" style="fill:#0c0c84"/><path d="M38.43,11.57H37l-.16-2.64v-1h7.37v1l-.15,2.64H42.71V9.16H38.43Zm3.16-8H39.77l-.22,1.95c-.28,2.43-1.07,3.22-2.07,3.31l-.21-.94c.35-.19.63-.63.88-2.71l.34-2.89h4.72V8.69H41.59Z" style="fill:#0c0c84"/><path d="M45.22,7.31c0-1.47,1.22-2.24,4.05-2.54C49.24,4,49,3.41,48,3.41a3.82,3.82,0,0,0-1.94.68L45.49,3a5.42,5.42,0,0,1,2.82-.9c1.72,0,2.57,1.06,2.57,3V9.16H49.56l-.13-.76h0a3.31,3.31,0,0,1-2.14.93A1.93,1.93,0,0,1,45.22,7.31Zm4.05,0V5.77c-1.87.24-2.49.72-2.49,1.42s.41.87,1,.87A2.17,2.17,0,0,0,49.27,7.32Z" style="fill:#0c0c84"/><path d="M52.81,2.28h1.33l.12.73h0a3.38,3.38,0,0,1,2.08-.9c1.72,0,2.7,1.38,2.7,3.5,0,2.36-1.4,3.72-2.93,3.72a2.76,2.76,0,0,1-1.77-.76l0,1.15v2.16H52.81Zm4.61,3.35c0-1.37-.44-2.18-1.49-2.18a2.17,2.17,0,0,0-1.5.77v3.2A2.16,2.16,0,0,0,55.81,8C56.72,8,57.42,7.19,57.42,5.63Z" style="fill:#0c0c84"/><path d="M60.71,2.28h1.61V4.91h2.74V2.28h1.62V9.16H65.06V6.33H62.32V9.16H60.71Z" style="fill:#0c0c84"/><path d="M68.26,5.73a3.29,3.29,0,1,1,6.55,0,3.29,3.29,0,1,1-6.55,0Zm4.89,0c0-1.38-.61-2.3-1.61-2.3s-1.62.92-1.62,2.3S70.53,8,71.54,8,73.15,7.1,73.15,5.73Z" style="fill:#0c0c84"/><path d="M76,5.73a3.35,3.35,0,0,1,3.17-3.62C81,2.11,82,3.46,82,5.38a3.77,3.77,0,0,1-.07.78H77.52a2,2,0,0,0,2,1.92,2.91,2.91,0,0,0,1.6-.5l.55,1a4.24,4.24,0,0,1-2.36.75A3.32,3.32,0,0,1,76,5.73Zm4.62-.66c0-1.06-.47-1.71-1.42-1.71a1.72,1.72,0,0,0-1.64,1.71Z" style="fill:#0c0c84"/><path d="M.45,17.28H6.29v6.88H4.68v-5.6H2.06v5.6H.45Z" style="fill:#0c0c84"/><path d="M7.89,20.73a3.35,3.35,0,0,1,3.17-3.62c1.86,0,2.84,1.35,2.84,3.27a3.77,3.77,0,0,1-.07.78H9.46a2,2,0,0,0,2,1.92,2.91,2.91,0,0,0,1.6-.5l.55,1a4.24,4.24,0,0,1-2.36.75A3.32,3.32,0,0,1,7.89,20.73Zm4.62-.66c0-1.06-.47-1.71-1.42-1.71a1.72,1.72,0,0,0-1.64,1.71Z" style="fill:#0c0c84"/><path d="M19.22,21.63a5.8,5.8,0,0,1-1.28.12c-1.68,0-2.77-.72-2.77-2.53V17.28h1.61v1.94c0,.86.45,1.25,1.5,1.25a4.1,4.1,0,0,0,.94-.11V17.28h1.61v6.88H19.22Z" style="fill:#0c0c84"/><path d="M22.42,20.73a3.35,3.35,0,0,1,3.17-3.62c1.86,0,2.84,1.35,2.84,3.27a3.77,3.77,0,0,1-.07.78H24a2,2,0,0,0,2,1.92,2.88,2.88,0,0,0,1.6-.5l.55,1a4.22,4.22,0,0,1-2.36.75A3.32,3.32,0,0,1,22.42,20.73ZM27,20.07c0-1.06-.47-1.71-1.41-1.71A1.73,1.73,0,0,0,24,20.07Z" style="fill:#0c0c84"/><path d="M30,17.28h1.62v2.63h2.74V17.28h1.61v6.88H34.33V21.33H31.59v2.83H30Z" style="fill:#0c0c84"/><path d="M38,17.28h1.61v2.36h1c1.65,0,2.85.62,2.85,2.24s-1.2,2.28-2.85,2.28H38Zm2.53,5.63c.94,0,1.4-.33,1.4-1s-.46-1-1.4-1h-.92v2.05Z" style="fill:#0c0c84"/><path d="M44.58,20.73a3.35,3.35,0,0,1,3.17-3.62c1.86,0,2.84,1.35,2.84,3.27a4.84,4.84,0,0,1-.06.78H46.16a2,2,0,0,0,2,1.92,2.87,2.87,0,0,0,1.59-.5l.55,1a4.19,4.19,0,0,1-2.36.75A3.32,3.32,0,0,1,44.58,20.73Zm4.62-.66c0-1.06-.47-1.71-1.41-1.71a1.73,1.73,0,0,0-1.65,1.71Z" style="fill:#0c0c84"/><path d="M54.59,19.54c0-3,1.66-4.71,4-4.71s4,1.76,4,4.71-1.65,4.79-4,4.79S54.59,22.51,54.59,19.54Zm6.41,0c0-2.05-.93-3.3-2.37-3.3s-2.37,1.25-2.37,3.3.93,3.38,2.37,3.38S61,21.6,61,19.54Z" style="fill:#0c0c84"/><path d="M64.37,17.28h1.32l.13,1.23h0a2.35,2.35,0,0,1,2-1.4,1.76,1.76,0,0,1,.77.14l-.28,1.4a2.57,2.57,0,0,0-.7-.11c-.55,0-1.21.38-1.63,1.42v4.2H64.37Z" style="fill:#0c0c84"/><path d="M69,20.73a3.35,3.35,0,0,1,3.17-3.62C74,17.11,75,18.46,75,20.38a3.77,3.77,0,0,1-.07.78H70.57a2,2,0,0,0,2,1.92,2.91,2.91,0,0,0,1.6-.5l.55,1a4.24,4.24,0,0,1-2.36.75A3.32,3.32,0,0,1,69,20.73Zm4.62-.66c0-1.06-.48-1.71-1.42-1.71a1.72,1.72,0,0,0-1.64,1.71Z" style="fill:#0c0c84"/><path d="M76.1,20.73a3.29,3.29,0,1,1,6.54,0,3.29,3.29,0,1,1-6.54,0Zm4.88,0c0-1.38-.6-2.3-1.61-2.3s-1.62.92-1.62,2.3S78.36,23,79.37,23,81,22.1,81,20.73Z" style="fill:#0c0c84"/></svg>