<svg xmlns="http://www.w3.org/2000/svg" viewBox="0 0 86.47 25.41"><title>H2_3</title><path d="M0,1.08H1.62V4.81H3.85l3.41,5.43H5.53L2.91,6.13H1.62v4.11H0Zm2.75,4,1.4-2.52C4.88,1.28,5.46.91,6.4.91A1.61,1.61,0,0,1,7,1L6.76,2.5a1.4,1.4,0,0,0-.37,0c-.41,0-.65.17-1.11,1l-1.12,2Z" style="fill:#0c0c84"/><path d="M7.64,10.28l.28-1.47a1.08,1.08,0,0,0,.33.06c.43,0,.72-.36.83-1.24.18-1.42.33-2.84.5-4.27h4.66v6.88H12.63V4.64H10.86c-.14,1.14-.27,2.3-.42,3.43-.21,1.53-.9,2.34-2.07,2.34A1.83,1.83,0,0,1,7.64,10.28Z" style="fill:#0c0c84"/><path d="M15.91,8.39c0-1.47,1.22-2.24,4.05-2.54,0-.74-.32-1.36-1.25-1.36a3.82,3.82,0,0,0-1.94.68L16.18,4.1A5.34,5.34,0,0,1,19,3.19c1.72,0,2.57,1.06,2.57,3v4.07H20.25l-.13-.76h0a3.31,3.31,0,0,1-2.13.93A1.93,1.93,0,0,1,15.91,8.39ZM20,8.4V6.85c-1.87.24-2.49.73-2.49,1.42s.41.87,1,.87A2.17,2.17,0,0,0,20,8.4Z" style="fill:#0c0c84"/><path d="M23.05,6.81A3.41,3.41,0,0,1,26.5,3.19a2.9,2.9,0,0,1,2,.78l-.78,1a1.71,1.71,0,0,0-1.14-.5c-1.11,0-1.88.92-1.88,2.3s.76,2.28,1.83,2.28A2.27,2.27,0,0,0,28,8.5l.66,1.06a3.38,3.38,0,0,1-2.25.85A3.27,3.27,0,0,1,23.05,6.81Z" style="fill:#0c0c84"/><path d="M29.18,6.81a3.41,3.41,0,0,1,3.45-3.62,3,3,0,0,1,2,.78l-.79,1a1.71,1.71,0,0,0-1.14-.5c-1.11,0-1.88.92-1.88,2.3s.76,2.28,1.83,2.28a2.24,2.24,0,0,0,1.42-.59l.66,1.06a3.38,3.38,0,0,1-2.25.85A3.27,3.27,0,0,1,29.18,6.81Z" style="fill:#0c0c84"/><path d="M36.11,3.36h1.56V5.73c0,.71-.08,1.63-.14,2.5h0c.23-.43.62-1.05.85-1.46l2.19-3.41h1.47v6.88H40.53V7.87c0-.71.08-1.62.15-2.49h-.06c-.23.42-.61,1-.84,1.46l-2.2,3.4H36.11Z" style="fill:#0c0c84"/><path d="M47.92,7.71a5.8,5.8,0,0,1-1.28.12c-1.68,0-2.77-.71-2.77-2.53V3.36h1.61V5.3c0,.86.45,1.25,1.5,1.25a4.1,4.1,0,0,0,.94-.11V3.36h1.61v6.88H47.92Z" style="fill:#0c0c84"/><path d="M51.12,6.81a3.35,3.35,0,0,1,3.17-3.62c1.86,0,2.84,1.35,2.84,3.27a3.77,3.77,0,0,1-.07.78H52.7a1.94,1.94,0,0,0,2,1.92,2.88,2.88,0,0,0,1.6-.5l.55,1a4.29,4.29,0,0,1-2.36.74A3.32,3.32,0,0,1,51.12,6.81Zm4.62-.66c0-1.06-.47-1.71-1.41-1.71a1.73,1.73,0,0,0-1.65,1.71Z" style="fill:#0c0c84"/><path d="M58.22,6.81a3.41,3.41,0,0,1,3.45-3.62,2.94,2.94,0,0,1,2,.78L62.9,5a1.74,1.74,0,0,0-1.15-.5c-1.1,0-1.87.92-1.87,2.3s.75,2.28,1.82,2.28a2.27,2.27,0,0,0,1.43-.59l.65,1.06a3.34,3.34,0,0,1-2.24.85A3.27,3.27,0,0,1,58.22,6.81Z" style="fill:#0c0c84"/><path d="M65.14,3.36h1.61V6h1.84l2.71,4.2H69.53L67.79,7.32h-1v2.92H65.14Zm2.34,3.3.92-2c.54-1.19,1.13-1.46,2-1.46a1.24,1.24,0,0,1,.48.09l-.27,1.5a.6.6,0,0,0-.24,0c-.35,0-.63.12-.93.82L68.83,7Z" style="fill:#0c0c84"/><path d="M72.45,3.36H74V5.73c0,.71-.08,1.63-.14,2.5h0c.24-.43.62-1.05.85-1.46L77,3.36h1.48v6.88H76.88V7.87c0-.71.07-1.62.14-2.49h0c-.24.42-.62,1-.85,1.46l-2.19,3.4H72.45Z" style="fill:#0c0c84"/><path d="M80.48,3.36h1.57V5.73c0,.71-.08,1.63-.14,2.5h0c.23-.43.62-1.05.85-1.46L85,3.36h1.47v6.88H84.91V7.87c0-.71.08-1.62.15-2.49H85c-.24.42-.61,1-.84,1.46L82,10.24H80.48ZM81.23,0h1.28c0,.79.26,1.33,1,1.33s1-.54,1-1.33h1.28a2.1,2.1,0,0,1-2.3,2.22A2.1,2.1,0,0,1,81.23,0Z" style="fill:#0c0c84"/><path d="M23.65,22.71a5.8,5.8,0,0,1-1.28.12c-1.68,0-2.77-.71-2.77-2.53V18.36h1.61V20.3c0,.86.45,1.25,1.5,1.25a4,4,0,0,0,.94-.11V18.36h1.61v6.88H23.65Z" style="fill:#0c0c84"/><path d="M27.31,18.36h1.56v2.37c0,.71-.08,1.63-.14,2.5h.05c.23-.43.62-1.05.85-1.46l2.19-3.41H33.3v6.88H31.73V22.87c0-.71.08-1.62.15-2.49h-.05c-.24.42-.62,1.05-.85,1.46l-2.19,3.4H27.31Z" style="fill:#0c0c84"/><path d="M34.76,24.56l.66-1a3,3,0,0,0,1.83.63c.84,0,1.49-.38,1.49-1s-.48-.92-1.39-.92h-1V21.15h.87c.87,0,1.3-.32,1.3-.87s-.47-.84-1.22-.84a2.91,2.91,0,0,0-1.75.54l-.62-1.05a4.24,4.24,0,0,1,2.47-.74c1.41,0,2.68.6,2.68,1.91a1.58,1.58,0,0,1-1.12,1.49v.06a1.61,1.61,0,0,1,1.39,1.66c0,1.34-1.41,2.1-2.93,2.1A4,4,0,0,1,34.76,24.56Z" style="fill:#0c0c84"/><path d="M41.87,18.36h1.61V21h1.84l2.7,4.2H46.25l-1.74-2.92h-1v2.92H41.87Zm2.33,3.3.93-2c.54-1.19,1.12-1.46,2-1.46a1.24,1.24,0,0,1,.48.09l-.26,1.5a.66.66,0,0,0-.25-.05c-.34,0-.62.12-.93.82L45.55,22Z" style="fill:#0c0c84"/><path d="M48.41,21.81a3.35,3.35,0,0,1,3.17-3.62c1.86,0,2.84,1.35,2.84,3.27a3.77,3.77,0,0,1-.07.78H50a2,2,0,0,0,2,1.92,2.88,2.88,0,0,0,1.6-.5l.55,1a4.29,4.29,0,0,1-2.36.74A3.32,3.32,0,0,1,48.41,21.81ZM53,21.15c0-1.06-.47-1.71-1.41-1.71A1.73,1.73,0,0,0,50,21.15Z" style="fill:#0c0c84"/><path d="M56,18.36h1.57v2.37c0,.71-.08,1.63-.14,2.5h0c.24-.43.63-1.05.86-1.46l2.18-3.41H62v6.88H60.39V22.87c0-.71.08-1.62.15-2.49h-.06c-.24.42-.61,1.05-.84,1.46l-2.2,3.4H56ZM56.71,15H58c0,.79.26,1.33,1,1.33s1-.54,1-1.33h1.28a2.31,2.31,0,0,1-4.61,0Z" style="fill:#0c0c84"/><path d="M64,18.36h1.61V21h1.84l2.71,4.2H68.39l-1.75-2.92h-1v2.92H64Zm2.34,3.3.92-2c.54-1.19,1.13-1.46,2-1.46a1.26,1.26,0,0,1,.49.09l-.27,1.5a.6.6,0,0,0-.24-.05c-.35,0-.63.12-.93.82L67.69,22Z" style="fill:#0c0c84"/></svg>