<svg xmlns="http://www.w3.org/2000/svg" viewBox="0 0 105 105"><title>New (2)</title><polygon points="105 105 0 105 0 0 105 105" style="fill:#f81027"/><path d="M18.06,32.19l2,2-3.39,3.39L19.05,40l3.39-3.39,2,2-8.81,8.8-2-2,3.67-3.67-2.39-2.39L11.25,43l-2-2Z" style="fill:#fff"/><path d="M21.45,44.3c2.94-2.94,6-3.08,8.06-1s2,5.12-1,8.06-6.05,3.16-8.15,1.07S18.44,47.31,21.45,44.3Zm5,5c1.83-1.83,2.22-3.38,1.3-4.3s-2.47-.53-4.3,1.3-2.3,3.47-1.38,4.38S24.59,51.24,26.49,49.34Z" style="fill:#fff"/><path d="M34.4,48.53l3,3c1.83,1.83,2.72,3.72,1,5.4a2.75,2.75,0,0,1-3.41.4l-.05.05c1,1.49,1,2.82-.15,4-1.8,1.79-4.07,1.13-6-.79l-3.22-3.21Zm-4.21,10.3c1.09,1.09,2,1.21,2.8.41s.59-1.6-.51-2.7l-1.06-1.06-2.29,2.29Zm3.54-3.9c1,1,1.78,1,2.45.3s.48-1.34-.45-2.27l-.89-.89-2,2Z" style="fill:#fff"/><path d="M42.36,56.49l1.8,1.8-3.11,3.12c-1,1-2.44,2.1-3.45,2.94l0,.05,2.68-1.19,6.39-2.37,2,2L40,71.68l-1.81-1.8,3.13-3.12c1-1,2.38-2.05,3.44-2.93l0,0L42,65l-6.4,2.38-2-2Z" style="fill:#fff"/><path d="M50.47,64.6l2,2L49.08,70l2.38,2.38L54.85,69l2,2-8.8,8.8-2-2,3.67-3.68-2.38-2.38L43.66,75.4l-2-2Z" style="fill:#fff"/><path d="M58.64,72.77l2,2L57.19,78.2l2,2-2.22,8.5-2.15-2.14,1.55-5.85-.82-.81-3.69,3.69-2-2Zm-1.2,6.39L61,78c1.85-.61,2.92-.26,3.93.74a2.61,2.61,0,0,1,.6.84L63.4,81a1.9,1.9,0,0,0-.32-.43c-.41-.4-.83-.51-1.79-.19l-2.52.85Z" style="fill:#fff"/><path d="M68.67,82.8l2.39,2.39L65,96.74l-2.11-2.12L66.21,89c.65-1.1,1.42-2.4,2.13-3.54l0,0c-1.14.71-2.42,1.49-3.52,2.15l-5.6,3.31-2-2ZM62.59,87l4.21,4.22L65.25,92.8,61,88.58Z" style="fill:#fff"/></svg>